<?xml version="1.0" encoding="utf-8"?>
<!-- Generator: Adobe Illustrator 18.1.1, SVG Export Plug-In . SVG Version: 6.00 Build 0)  -->
<svg version="1.1" id="Layer_1" xmlns="http://www.w3.org/2000/svg" xmlns:xlink="http://www.w3.org/1999/xlink" x="0px" y="0px"
	 viewBox="0 0 400 600" enable-background="new 0 0 400 600" xml:space="preserve">
<path fill="#005EC7" d="M397.9,363.8c-0.6-4.1-1.4-8.1-2.5-12.1c-2.6-9.6-7-19.2-14.9-25.1c-12.2-9.2-30.1-7.2-43.2,0.7
	c-29.1,17.6-33.9,52.7-58.2,73.9c-9.9,8.6-23.3,9.6-35.8,10c-6.5,0.2-13,0.2-19.5,0.9c-3,0.3-6.4,0.5-9.2,1.6
	c-1.1,0.4-2.3,0.4-3.1,1.3c-0.9,0.9-0.7,3.8-1.1,4.2c-0.3,0.2-0.6,0.5-0.8,0.8c-3.4,2.6-2.4,9.4,3.1,9.4c7.3,0,14.7-1.2,21.9,0.2
	c5.9,1.1,11.8,4.7,13.6,10.5c2.3,7.4-2.3,15.3-4.8,22c-2.9,7.8-5.3,15.8-7.6,23.7c-3.9,13.1-7.1,26.4-9.6,39.9
	c-1.2,6.4-1.2,14.1-3.3,20.2c-1.8,5.4-8.2,4.6-13.4,4.5c-6.7,0-4.4,11.8,2.3,11.8c12.9,0.1,16.2-8.2,22.7-17.4
	c7.5-10.6,20.6-16.1,33.1-17.8c10.6-1.5,22.6-0.2,28.3,10c2.6,4.6,3.6,10,4.6,15.2c1.2,6.4,2.5,12.7,3.7,19.1
	c1,5.2,3.6,8.5,8.1,11.5c9.4,6.3,12.2,2.6,12.2-2.9c0-5.7-2.1-5.1-9.8-12.2c-6.5-6,4.1-37.4,11.1-49.2c4.2-7,9.8-13.1,15.3-19.2
	c9.1-10.1,18-20.5,26-31.6c0,0.3,0,0.6,0,0.9c0,5.4,0.3,10.8,0.4,16.2c0.1,7.1,2.1,37.3,1.5,44.5c-12.1,6.7-8.6,7.5-3.9,8.5
	c-1.3,1-2.8,1.9-3.8,2.8c-2.1,1.8-4.8,4.1-2.9,6c2.1,2.1,6.2,0.6,8.9-0.2c4.1-1.2,7.9-3,10-6.5c2.3-3.7,2.3-8.1,2.9-12.3
	c3.4-22.8,4.4-46.5,4.6-69.6c0-8.1-0.1-16.5,2.4-24.4c2.6-8.2,6.2-15.9,8.3-24.3C399,394.5,400.1,378.9,397.9,363.8z"/>
<circle fill="#FFFFFF" cx="362.6" cy="352.6" r="16.8"/>
<circle fill="#FFC740" cx="363" cy="352.7" r="10.4"/>
<circle fill="#005EC7" cx="363" cy="352.7" r="7.3"/>
<g>
	<g>
		<rect x="159.3" y="344.2" fill="#FF7361" width="55.5" height="223.5"/>
	</g>
	<g>
		<path fill="#FF7361" d="M177.7,467.1v-43.6c30.4,0,41.1-7.7,46.6-13.4c11.9-12.6,16.5-39.5,14-82.1l43.5-2.6
			c3.4,56.8-4.6,92.1-25.8,114.6C238.6,458.5,213.7,467.1,177.7,467.1z"/>
	</g>
	<g>
		<circle fill="#FFC740" cx="187" cy="200" r="186"/>
	</g>
</g>
<path fill="#005EC7" d="M174,449c-2.3-2.1-5.6-3.5-8.8-4.2c0-0.1,0-0.2,0-0.3c-0.2-1.2-0.2-2.5-0.5-3.7c-0.4-1.8-3.2-2.7-4.4-1.2
	c-0.8,1-1.7,2-2.7,2.7c-1.1,0.7-2.3,1.2-3.5,1.9c-1.3,0.7-2.5,1.8-3.4,3c-0.7,0.7-1.2,1.5-1.6,2.5c-0.2,0.4-0.2,0.9,0,1.3
	c-1.2,4,3.1,7.7,6.5,9.3c1.7,0.8,3.5,1.4,5.4,1.4c3.1,0.7,7.1,0,8.9-2.6c0.3-0.4,0.4-0.9,0.4-1.4c0.5,0,1-0.1,1.4-0.3
	c1.3-0.8,1.6-2.3,0.9-3.6c-0.1-0.2-0.2-0.4-0.3-0.6C174.2,453.2,175.9,450.7,174,449z"/>
<circle fill="#FF7361" cx="339.2" cy="366.9" r="10.1"/>
<circle fill="#FF7361" cx="378.9" cy="374.6" r="10.1"/>
<ellipse fill="#FFFFFF" cx="356.6" cy="390.7" rx="5.5" ry="4.7"/>
<circle fill="#FFFFFF" cx="360.7" cy="347.7" r="2.3"/>
</svg>
