<svg xmlns="http://www.w3.org/2000/svg" viewBox="0 0 400 600"><path fill="#005EC7" d="M397.9 363.8c-.6-4.1-1.4-8.1-2.5-12.1-2.6-9.6-7-19.2-14.9-25.1-12.2-9.2-30.1-7.2-43.2.7-29.1 17.6-33.9 52.7-58.2 73.9-9.9 8.6-23.3 9.6-35.8 10-6.5.2-13 .2-19.5.9-3 .3-6.4.5-9.2 1.6-1.1.4-2.3.4-3.1 1.3-.9.9-.7 3.8-1.1 4.2-.3.2-.6.5-.8.8-3.4 2.6-2.4 9.4 3.1 9.4 7.3 0 14.7-1.2 21.9.2 5.9 1.1 11.8 4.7 13.6 10.5 2.3 7.4-2.3 15.3-4.8 22-2.9 7.8-5.3 15.8-7.6 23.7-3.9 13.1-7.1 26.4-9.6 39.9-1.2 6.4-1.2 14.1-3.3 20.2-1.8 5.4-8.2 4.6-13.4 4.5-6.7 0-4.4 11.8 2.3 11.8 12.9.1 16.2-8.2 22.7-17.4 7.5-10.6 20.6-16.1 33.1-17.8 10.6-1.5 22.6-.2 28.3 10 2.6 4.6 3.6 10 4.6 15.2 1.2 6.4 2.5 12.7 3.7 19.1 1 5.2 3.6 8.5 8.1 11.5 9.4 6.3 12.2 2.6 12.2-2.9 0-5.7-2.1-5.1-9.8-12.2-6.5-6 4.1-37.4 11.1-49.2 4.2-7 9.8-13.1 15.3-19.2 9.1-10.1 18-20.5 26-31.6v.9c0 5.4.3 10.8.4 16.2.1 7.1 2.1 37.3 1.5 44.5-12.1 6.7-8.6 7.5-3.9 8.5-1.3 1-2.8 1.9-3.8 2.8-2.1 1.8-4.8 4.1-2.9 6 2.1 2.1 6.2.6 8.9-.2 4.1-1.2 7.9-3 10-6.5 2.3-3.7 2.3-8.1 2.9-12.3 3.4-22.8 4.4-46.5 4.6-69.6 0-8.1-.1-16.5 2.4-24.4 2.6-8.2 6.2-15.9 8.3-24.3 3.5-14.8 4.6-30.4 2.4-45.5z"/><circle fill="#FFF" cx="362.6" cy="352.6" r="16.8"/><circle fill="#FFC740" cx="363" cy="352.7" r="10.4"/><circle fill="#005EC7" cx="363" cy="352.7" r="7.3"/><path fill="#FF7361" d="M159.3 344.2h55.5v223.5h-55.5z"/><path fill="#FF7361" d="M177.7 467.1v-43.6c30.4 0 41.1-7.7 46.6-13.4 11.9-12.6 16.5-39.5 14-82.1l43.5-2.6c3.4 56.8-4.6 92.1-25.8 114.6-17.4 18.5-42.3 27.1-78.3 27.1z"/><circle fill="#FFC740" cx="187" cy="200" r="186"/><path fill="#005EC7" d="M174 449c-2.3-2.1-5.6-3.5-8.8-4.2v-.3c-.2-1.2-.2-2.5-.5-3.7-.4-1.8-3.2-2.7-4.4-1.2-.8 1-1.7 2-2.7 2.7-1.1.7-2.3 1.2-3.5 1.9-1.3.7-2.5 1.8-3.4 3-.7.7-1.2 1.5-1.6 2.5-.2.4-.2.9 0 1.3-1.2 4 3.1 7.7 6.5 9.3 1.7.8 3.5 1.4 5.4 1.4 3.1.7 7.1 0 8.9-2.6.3-.4.4-.9.4-1.4.5 0 1-.1 1.4-.3 1.3-.8 1.6-2.3.9-3.6l-.3-.6c1.9 0 3.6-2.5 1.7-4.2z"/><circle fill="#FF7361" cx="339.2" cy="366.9" r="10.1"/><circle fill="#FF7361" cx="378.9" cy="374.6" r="10.1"/><ellipse fill="#FFF" cx="356.6" cy="390.7" rx="5.5" ry="4.7"/><circle fill="#FFF" cx="360.7" cy="347.7" r="2.3"/></svg>