<?xml version="1.0" encoding="utf-8"?>
<!-- Generator: Adobe Illustrator 18.1.0, SVG Export Plug-In . SVG Version: 6.00 Build 0)  -->
<svg version="1.1" id="Layer_1" xmlns="http://www.w3.org/2000/svg" xmlns:xlink="http://www.w3.org/1999/xlink" x="0px" y="0px"
	 viewBox="0 0 350 400" enable-background="new 0 0 350 400" xml:space="preserve">
<path fill="#285EA9" d="M219.3,31.9c0,3.8,3.1,6.8,6.8,6.8c3.8,0,6.8-3.1,6.8-6.8c0-3.8-3.1-6.8-6.8-6.8
	C222.4,25.1,219.3,28.1,219.3,31.9"/>
<path fill="#285EA9" d="M100.8,41.4c-1.5-2.5-4.3-4.3-8.4-5.2c-3.6-0.8-6.1-2.4-7.4-4.5c-1.3-2.1-1.4-5.1-0.3-8.6l-1.5-0.4
	c-2.4,8,0.7,13.2,8.8,15.1c3.6,0.8,6.1,2.4,7.4,4.5c1.3,2.1,1.4,5.1,0.3,8.6l1.5,0.4C102.4,47.3,102.3,44,100.8,41.4"/>
<path fill="#285EA9" d="M141.4,296.8c2.9-0.2,5.8-1.9,8.4-5.1c2.4-2.9,4.9-4.4,7.4-4.5c2.5-0.1,5.1,1.1,7.8,3.7l1.1-1.1
	c-6.1-5.7-12.1-5.4-17.4,1c-2.4,2.9-4.9,4.4-7.4,4.5c-2.5,0.1-5.1-1.1-7.8-3.7l-1.1,1.1C135.5,295.6,138.5,297,141.4,296.8"/>
<path fill="#FDC642" d="M132.4,351c0,3.8,3.1,6.8,6.8,6.8c3.8,0,6.8-3.1,6.8-6.8c0-3.8-3.1-6.8-6.8-6.8
	C135.5,344.2,132.4,347.3,132.4,351"/>
<path fill="#285EA9" d="M53.7,235.4c0,3.8,3.1,6.8,6.8,6.8c3.8,0,6.8-3.1,6.8-6.8c0-3.8-3.1-6.8-6.8-6.8
	C56.8,228.6,53.7,231.7,53.7,235.4"/>
<path fill="#285EA9" d="M168.4,94.1c-2.1,2-3.1,5.2-3,9.4c0.1,3.7-0.8,6.5-2.6,8.2c-1.8,1.7-4.6,2.5-8.3,2.4l-0.1,1.5
	c8.3,0.4,12.6-3.8,12.5-12.2c-0.1-3.7,0.8-6.5,2.6-8.2c1.8-1.7,4.6-2.5,8.3-2.4l0.1-1.5C173.7,91.2,170.5,92.1,168.4,94.1"/>
<path fill="#FFFFFF" d="M282.8,333.9c0,3.8,3.1,6.8,6.8,6.8c3.8,0,6.8-3.1,6.8-6.8s-3.1-6.8-6.8-6.8
	C285.8,327,282.8,330.1,282.8,333.9"/>
<path fill="#FDC642" d="M38.5,97.8l-1.1-1.5c0.2-0.8,0.2-1.8-0.4-2.6c-0.9-1.2-2.6-1.4-3.8-0.5c-1.2,0.9-1.4,2.7-0.5,3.9
	c0.6,0.8,1.5,1.1,2.4,1.1l1.2,1.5l-3.1,2.5l24.2,31l8.7-6.7L41.7,95.3L38.5,97.8z"/>
<path fill="#FFFFFF" d="M233.1,94.4l3.4,1.9l-0.9,1.6c-0.9,0.1-1.7,0.6-2.2,1.4c-0.8,1.3-0.3,3,1,3.8c1.3,0.8,2.9,0.3,3.7-1
	c0.5-0.8,0.4-1.8,0-2.6l0.9-1.6l3.5,2c10-17.3,32.5-23.6,49.9-13.6c0,0,0,0.1,0.1,0.1l5.5-9.5c0,0,0-0.1-0.1-0.1
	C275.3,63.7,246.4,71.3,233.1,94.4"/>
<path fill="#285EA9" d="M75.2,345.9l0.3-3.9l1.9,0.1c0.4,0.8,1.2,1.3,2.2,1.3c1.5,0.1,2.8-1.1,2.9-2.6c0.1-1.5-1-2.8-2.5-2.9
	c-1-0.1-1.8,0.4-2.4,1.1l-1.9-0.1l0.3-4c-20-1.4-35.5-18.8-34.1-38.9c0,0,0.1-0.1,0.1-0.1l-11-0.8c0,0-0.1,0.1-0.1,0.1
	C29.1,321.4,48.6,344,75.2,345.9"/>
<path fill="#FDC642" d="M335.2,34.2l-1.5-1.1c0-0.8-0.3-1.8-1.1-2.4c-1.2-0.9-2.9-0.7-3.8,0.5c-0.9,1.2-0.7,2.9,0.5,3.9
	c0.8,0.6,1.8,0.6,2.6,0.4l1.5,1.1l-2.4,3.2l31.4,23.7l6.7-8.7L337.6,31L335.2,34.2z"/>
<path fill="#285EA9" d="M325.1,242.3l-0.1,3.9l-1.9-0.1c-0.5-0.8-1.3-1.2-2.3-1.3c-1.5-0.1-2.8,1.2-2.8,2.7
	c-0.1,1.5,1.1,2.7,2.6,2.8c1,0,1.8-0.5,2.3-1.2l1.9,0.1l-0.1,4c20,0.7,36.1,17.6,35.4,37.7c0,0-0.1,0.1-0.1,0.1l11,0.4
	c0,0,0.1-0.1,0.1-0.1C372,265.1,351.8,243.2,325.1,242.3"/>
<path fill="#285EA9" d="M337.5,393.3c1.9-2.2,2.7-5.5,2.2-9.6c-0.4-3.7,0.2-6.6,1.9-8.4c1.6-1.9,4.3-2.9,8.1-3.1l-0.1-1.5
	c-8.3,0.4-12.3,4.9-11.4,13.2c0.4,3.7-0.2,6.6-1.9,8.4c-1.6,1.9-4.3,2.9-8.1,3.1l0.1,1.5C332.5,396.8,335.6,395.6,337.5,393.3"/>
</svg>
