<?xml version="1.0" encoding="utf-8"?>
<!-- Generator: Adobe Illustrator 18.1.1, SVG Export Plug-In . SVG Version: 6.00 Build 0)  -->
<svg version="1.1" id="Layer_1" xmlns="http://www.w3.org/2000/svg" xmlns:xlink="http://www.w3.org/1999/xlink" x="0px" y="0px"
	 viewBox="0 0 350 400" enable-background="new 0 0 350 400" xml:space="preserve">
<path fill="#005EC7" d="M183.6,89c0,2.8,2.2,5,5,5c2.8,0,5-2.2,5-5c0-2.8-2.2-5-5-5C185.9,84,183.6,86.2,183.6,89"/>
<path fill="#005EC7" d="M118.1,66.1c-1.1-1.9-3.2-3.2-6.1-3.8c-2.7-0.6-4.5-1.7-5.4-3.3c-0.9-1.6-1-3.7-0.2-6.4l-1.1-0.3
	c-1.7,5.9,0.5,9.7,6.5,11.1c2.7,0.6,4.5,1.7,5.4,3.3c0.9,1.6,1,3.7,0.2,6.4l1.1,0.3C119.3,70.4,119.2,68,118.1,66.1"/>
<path fill="#005EC7" d="M129.7,343.5c2.2-0.1,4.2-1.4,6.2-3.7c1.8-2.1,3.6-3.2,5.4-3.3c1.8-0.1,3.8,0.8,5.8,2.7l0.8-0.8
	c-4.5-4.2-8.9-4-12.8,0.7c-1.8,2.1-3.6,3.2-5.4,3.3c-1.8,0.1-3.8-0.8-5.8-2.7l-0.8,0.8C125.3,342.6,127.5,343.6,129.7,343.5"/>
<path fill="#005EC7" d="M37.3,222.6c-1.5,1.5-2.3,3.8-2.2,6.9c0,2.7-0.6,4.8-1.9,6.1c-1.3,1.3-3.4,1.9-6.1,1.8l0,1.1
	c6.1,0.3,9.3-2.8,9.2-9c0-2.7,0.6-4.8,1.9-6.1c1.3-1.3,3.4-1.9,6.1-1.8l0-1.1C41.2,220.4,38.9,221.1,37.3,222.6"/>
<path fill="#FFFFFF" d="M199.6,324.3c0,2.8,2.2,5,5,5c2.8,0,5-2.2,5-5c0-2.8-2.2-5-5-5C201.9,319.3,199.6,321.6,199.6,324.3"/>
<path fill="#FFFFFF" d="M316.7,147.1l2.5,1.4l-0.7,1.2c-0.7,0-1.2,0.4-1.6,1c-0.6,1-0.2,2.2,0.8,2.8c1,0.6,2.2,0.2,2.7-0.8
	c0.4-0.6,0.3-1.4,0-1.9l0.7-1.2l2.6,1.5c7.4-12.8,23.9-17.4,36.7-10c0,0,0,0.1,0.1,0.1l4-7c0,0,0-0.1-0.1-0.1
	C347.7,124.5,326.5,130.1,316.7,147.1"/>
<path fill="#FF7361" d="M285.7,43l-1.1-0.8c0-0.6-0.2-1.3-0.8-1.8c-0.9-0.7-2.1-0.5-2.8,0.4c-0.7,0.9-0.5,2.2,0.4,2.8
	c0.6,0.4,1.3,0.5,1.9,0.3l1.1,0.8l-1.8,2.3l23.1,17.4l4.9-6.4l-23.2-17.5L285.7,43z"/>
<g>
	<path fill="#005EC7" d="M274.2,218.1l-0.1,2.9l-1.4,0c-0.3-0.6-0.9-0.9-1.7-0.9c-1.1,0-2,0.9-2.1,2c0,1.1,0.8,2,1.9,2
		c0.7,0,1.3-0.4,1.7-0.9l1.4,0l-0.1,3c14.7,0.5,26.6,12.9,26.1,27.7c0,0,0,0.1,0,0.1l8.1,0.3c0,0,0-0.1,0-0.1
		C308.8,234.9,293.8,218.8,274.2,218.1"/>
	<path fill="#005EC7" d="M246.2,345.7c1.4-1.6,2-4,1.6-7.1c-0.3-2.7,0.2-4.8,1.4-6.2c1.2-1.4,3.2-2.2,5.9-2.3l-0.1-1.1
		c-6.1,0.3-9,3.6-8.4,9.7c0.3,2.7-0.2,4.8-1.4,6.2c-1.2,1.4-3.2,2.2-5.9,2.3l0.1,1.1C242.5,348.2,244.8,347.3,246.2,345.7"/>
	<path fill="#FF7361" d="M27,69.2c0,2.8,2.2,5,5,5c2.8,0,5-2.2,5-5c0-2.8-2.2-5-5-5C29.3,64.1,27,66.4,27,69.2"/>
	<path fill="#FFFFFF" d="M76.8,204.9c0,2.8,2.2,5,5,5c2.8,0,5-2.2,5-5s-2.2-5-5-5C79.1,199.9,76.8,202.2,76.8,204.9"/>
	<path fill="#005EC7" d="M90.5,137.9l0.2-2.9l1.4,0.1c0.3,0.6,0.9,0.9,1.6,1c1.1,0.1,2.1-0.8,2.2-1.9c0.1-1.1-0.8-2-1.9-2.1
		c-0.7,0-1.4,0.3-1.8,0.8l-1.4-0.1l0.2-3c-14.7-1-26.1-13.9-25.1-28.6c0,0,0-0.1,0-0.1l-8.1-0.6c0,0,0,0.1,0,0.1
		C56.5,119.9,70.9,136.5,90.5,137.9"/>
	<path fill="#FF7361" d="M66.7,269.7l-0.8-1.1c0.2-0.6,0.1-1.4-0.3-1.9c-0.7-0.9-1.9-1-2.8-0.4c-0.9,0.7-1,2-0.4,2.8
		c0.4,0.6,1.1,0.8,1.7,0.8L65,271l-2.3,1.8l17.8,22.8l6.4-4.9L69,267.9L66.7,269.7z"/>
</g>
<path fill="#005EC7" d="M44.3,371.9c0,2.8,2.2,5,5,5c2.8,0,5-2.2,5-5c0-2.8-2.2-5-5-5C46.5,366.9,44.3,369.2,44.3,371.9"/>
<path fill="#FFFFFF" d="M199.6,11.3c0,2.8,2.2,5,5,5c2.8,0,5-2.2,5-5c0-2.8-2.2-5-5-5C201.9,6.3,199.6,8.5,199.6,11.3"/>
<path fill="#FF7361" d="M331.8,361.9l0.8-1.1c0.6,0,1.3-0.2,1.8-0.8c0.7-0.9,0.5-2.2-0.4-2.8c-0.9-0.7-2.2-0.5-2.8,0.4
	c-0.4,0.6-0.5,1.3-0.3,1.9l-0.8,1.1l-2.4-1.7l-17.1,23.3l6.5,4.8l17.1-23.4L331.8,361.9z"/>
</svg>
