<?xml version="1.0" encoding="utf-8"?>
<!-- Generator: Adobe Illustrator 18.1.1, SVG Export Plug-In . SVG Version: 6.00 Build 0)  -->
<svg version="1.1" id="Layer_1" xmlns="http://www.w3.org/2000/svg" xmlns:xlink="http://www.w3.org/1999/xlink" x="0px" y="0px"
	 viewBox="0 0 600 400" enable-background="new 0 0 600 400" xml:space="preserve">
<g>
	<path fill="#005EC7" d="M490.6,23c-1.5-2.5-4.2-4.2-8.2-5.1c-3.6-0.8-6-2.3-7.3-4.4c-1.2-2.1-1.3-5-0.3-8.5l-1.4-0.4
		c-2.3,7.9,0.7,13,8.7,14.8c3.6,0.8,6,2.3,7.3,4.4c1.2,2.1,1.3,5,0.3,8.5l1.4,0.4C492.2,28.7,492,25.5,490.6,23"/>
	<path fill="#005EC7" d="M58,56.8c-2.1,2-3.1,5.1-3,9.2c0.1,3.7-0.8,6.4-2.5,8.1c-1.8,1.7-4.5,2.5-8.2,2.3L44.2,78
		c8.2,0.3,12.4-3.8,12.3-12c-0.1-3.7,0.8-6.4,2.5-8.1c1.8-1.7,4.5-2.5,8.2-2.3l0.1-1.5C63.2,53.9,60.1,54.8,58,56.8"/>
	<path fill="#FF7361" d="M367.9,388.8c0,3.7,3,6.7,6.7,6.7c3.7,0,6.7-3,6.7-6.7s-3-6.7-6.7-6.7C370.9,382.1,367.9,385.1,367.9,388.8
		"/>
	<path fill="#FF7361" d="M506.1,133l-0.1,3.8l-1.9-0.1c-0.5-0.7-1.3-1.2-2.2-1.2c-1.5-0.1-2.7,1.1-2.8,2.6c-0.1,1.5,1.1,2.7,2.6,2.7
		c0.9,0,1.8-0.5,2.3-1.2l1.9,0.1l-0.1,4c19.7,0.7,35.5,17.3,34.8,37c0,0-0.1,0.1-0.1,0.1l10.8,0.4c0,0,0.1-0.1,0.1-0.1
		C552.3,155.5,532.4,133.9,506.1,133"/>
	<path fill="#005EC7" d="M511.1,356c2.7-1,4.9-3.3,6.6-7.1c1.5-3.4,3.4-5.5,5.7-6.3c2.3-0.8,5.1-0.4,8.4,1.3l0.7-1.3
		c-7.3-3.8-12.9-1.8-16.2,5.7c-1.5,3.4-3.4,5.5-5.7,6.3c-2.3,0.8-5.1,0.4-8.4-1.3l-0.7,1.3C505.1,356.5,508.4,357,511.1,356"/>
	<path fill="#FF7361" d="M243.5,37.5c0,3.7,3,6.7,6.7,6.7c3.7,0,6.7-3,6.7-6.7c0-3.7-3-6.7-6.7-6.7
		C246.5,30.7,243.5,33.8,243.5,37.5"/>
	<path fill="#005EC7" d="M339.4,195c0,3.7,3,6.7,6.7,6.7c3.7,0,6.7-3,6.7-6.7c0-3.7-3-6.7-6.7-6.7
		C342.4,188.3,339.4,191.3,339.4,195"/>
	<path fill="#005EC7" d="M236.4,175.7l0.3-3.8l1.8,0.1c0.4,0.8,1.2,1.3,2.2,1.3c1.5,0.1,2.8-1,2.9-2.5c0.1-1.5-1-2.7-2.5-2.8
		c-0.9-0.1-1.8,0.4-2.3,1.1l-1.8-0.1l0.3-4c-19.6-1.4-34.9-18.5-33.5-38.2c0,0,0.1-0.1,0.1-0.1l-10.8-0.8c0,0-0.1,0.1-0.1,0.1
		C191,151.7,210.2,173.9,236.4,175.7"/>
	<path fill="#FF7361" d="M77.9,337.7l1.4-1.2c0.8,0.2,1.8,0.1,2.5-0.5c1.1-1,1.3-2.7,0.3-3.8c-1-1.1-2.7-1.3-3.8-0.3
		c-0.7,0.6-1,1.6-0.9,2.4l-1.4,1.2l-2.6-2.9l-29.2,25.4l7,8.2l29.3-25.4L77.9,337.7z"/>
	<path fill="#FFFFFF" d="M87.6,220.5c0,3.7,3,6.7,6.7,6.7c3.7,0,6.7-3,6.7-6.7c0-3.7-3-6.7-6.7-6.7
		C90.6,213.8,87.6,216.8,87.6,220.5"/>
	<path fill="#005EC7" d="M194.9,374.3c-2.1,2-3.1,5.1-3,9.2c0.1,3.7-0.8,6.4-2.5,8.1c-1.8,1.7-4.5,2.5-8.2,2.3l-0.1,1.5
		c8.2,0.3,12.4-3.8,12.3-12c-0.1-3.7,0.8-6.4,2.5-8.1c1.8-1.7,4.5-2.5,8.2-2.3l0.1-1.5C200.1,371.4,197,372.3,194.9,374.3"/>
</g>
</svg>
