<svg xmlns="http://www.w3.org/2000/svg" viewBox="0 0 600 400"><path fill="#005EC7" d="M490.6 23c-1.5-2.5-4.2-4.2-8.2-5.1-3.6-.8-6-2.3-7.3-4.4-1.2-2.1-1.3-5-.3-8.5l-1.4-.4c-2.3 7.9.7 13 8.7 14.8 3.6.8 6 2.3 7.3 4.4 1.2 2.1 1.3 5 .3 8.5l1.4.4c1.1-4 .9-7.2-.5-9.7M58 56.8c-2.1 2-3.1 5.1-3 9.2.1 3.7-.8 6.4-2.5 8.1-1.8 1.7-4.5 2.5-8.2 2.3l-.1 1.6c8.2.3 12.4-3.8 12.3-12-.1-3.7.8-6.4 2.5-8.1 1.8-1.7 4.5-2.5 8.2-2.3l.1-1.5c-4.1-.2-7.2.7-9.3 2.7"/><path fill="#FF7361" d="M367.9 388.8c0 3.7 3 6.7 6.7 6.7s6.7-3 6.7-6.7-3-6.7-6.7-6.7-6.7 3-6.7 6.7M506.1 133l-.1 3.8-1.9-.1c-.5-.7-1.3-1.2-2.2-1.2-1.5-.1-2.7 1.1-2.8 2.6-.1 1.5 1.1 2.7 2.6 2.7.9 0 1.8-.5 2.3-1.2l1.9.1-.1 4c19.7.7 35.5 17.3 34.8 37l-.1.1 10.8.4.1-.1c.9-25.6-19-47.2-45.3-48.1"/><path fill="#005EC7" d="M511.1 356c2.7-1 4.9-3.3 6.6-7.1 1.5-3.4 3.4-5.5 5.7-6.3 2.3-.8 5.1-.4 8.4 1.3l.7-1.3c-7.3-3.8-12.9-1.8-16.2 5.7-1.5 3.4-3.4 5.5-5.7 6.3-2.3.8-5.1.4-8.4-1.3l-.7 1.3c3.6 1.9 6.9 2.4 9.6 1.4"/><path fill="#FF7361" d="M243.5 37.5c0 3.7 3 6.7 6.7 6.7s6.7-3 6.7-6.7-3-6.7-6.7-6.7c-3.7-.1-6.7 3-6.7 6.7"/><path fill="#005EC7" d="M339.4 195c0 3.7 3 6.7 6.7 6.7s6.7-3 6.7-6.7-3-6.7-6.7-6.7-6.7 3-6.7 6.7m-103-19.3l.3-3.8 1.8.1c.4.8 1.2 1.3 2.2 1.3 1.5.1 2.8-1 2.9-2.5.1-1.5-1-2.7-2.5-2.8-.9-.1-1.8.4-2.3 1.1l-1.8-.1.3-4c-19.6-1.4-34.9-18.5-33.5-38.2l.1-.1-10.8-.8-.1.1c-2 25.7 17.2 47.9 43.4 49.7"/><path fill="#FF7361" d="M77.9 337.7l1.4-1.2c.8.2 1.8.1 2.5-.5 1.1-1 1.3-2.7.3-3.8-1-1.1-2.7-1.3-3.8-.3-.7.6-1 1.6-.9 2.4l-1.4 1.2-2.6-2.9L44.2 358l7 8.2 29.3-25.4-2.6-3.1z"/><path fill="#FFF" d="M87.6 220.5c0 3.7 3 6.7 6.7 6.7s6.7-3 6.7-6.7-3-6.7-6.7-6.7-6.7 3-6.7 6.7"/><path fill="#005EC7" d="M194.9 374.3c-2.1 2-3.1 5.1-3 9.2.1 3.7-.8 6.4-2.5 8.1-1.8 1.7-4.5 2.5-8.2 2.3l-.1 1.5c8.2.3 12.4-3.8 12.3-12-.1-3.7.8-6.4 2.5-8.1 1.8-1.7 4.5-2.5 8.2-2.3l.1-1.5c-4.1-.1-7.2.8-9.3 2.8"/></svg>