<?xml version="1.0" encoding="utf-8"?>
<!-- Generator: Adobe Illustrator 18.1.1, SVG Export Plug-In . SVG Version: 6.00 Build 0)  -->
<svg version="1.1" id="Layer_1" xmlns="http://www.w3.org/2000/svg" xmlns:xlink="http://www.w3.org/1999/xlink" x="0px" y="0px"
	 viewBox="0 0 80 40" enable-background="new 0 0 80 40" xml:space="preserve">
<polygon fill="#FFC740" points="0.1,21.8 0.1,21.8 2.8,34.6 79.9,18.2 77.2,5.4 "/>
<g>
	<path fill="#005EC7" d="M27,8.9l-1.5-2.2l-0.8,2.6L27,8.9z M28.4,10.8L24,11.6l-0.7,2.1L21,14.2l3.5-11.5l0.6-0.1l6.8,9.7l-2.3,0.4
		L28.4,10.8z"/>
	<polygon fill="#005EC7" points="36.7,11.1 40.7,11.1 40.7,13.3 34.5,13.1 34.7,2.4 36.9,2.5 	"/>
	<polygon fill="#005EC7" points="45.9,1.4 43.7,1.6 44.6,12.2 50.7,11.7 50.5,9.6 46.5,9.9 	"/>
	<path fill="#005EC7" d="M22.2,29.5l4.5,1.1L25.1,37L23,36.5l0.2-1c-1.5,0.7-2.8,0.6-3.6,0.4c-3-0.7-4.8-3.7-4.1-6.7
		c0.7-3,3.7-4.8,6.7-4.1l0,0c1.3,0.3,2.3,1,3,2l-1.9,1.1c-0.4-0.5-1-0.8-1.7-1l0,0c-0.9-0.2-1.8-0.1-2.6,0.4
		c-0.8,0.5-1.3,1.2-1.5,2.1c-0.2,0.9-0.1,1.8,0.4,2.6c0.5,0.8,1.2,1.3,2.1,1.6l0,0c0.9,0.2,1.8,0.1,2.5-0.4c0.5-0.3,1-0.8,1.3-1.3
		l-2.4-0.6L22.2,29.5z"/>
	<path fill="#005EC7" d="M31.6,30.6c0,1.9,1.5,3.4,3.4,3.4c1.8,0,3.3-1.5,3.3-3.4c0-1.8-1.5-3.3-3.3-3.3
		C33.1,27.2,31.6,28.7,31.6,30.6 M40.5,30.6c0,3.1-2.5,5.6-5.6,5.6c-3.1,0-5.6-2.5-5.6-5.6c0-3.1,2.5-5.6,5.6-5.6
		C38,25,40.5,27.5,40.5,30.6"/>
	<polygon fill="#005EC7" points="50.3,27.6 50.6,33.5 44.4,27.9 43.7,27.9 44.3,38.6 46.4,38.5 46.1,32.2 52.4,38.2 53,38.2 
		52.4,27.4 	"/>
	<polygon fill="#005EC7" points="64.2,27.6 59.3,27 59,28.9 63.1,29.5 62.8,31.6 58.8,31.1 58.5,33.4 63.4,34 63.1,36.1 56.1,35.2 
		57.4,24.6 64.5,25.5 	"/>
</g>
</svg>
