<svg xmlns="http://www.w3.org/2000/svg" viewBox="0 0 40 40"><path fill="#FFC840" d="M14.9.5v39H7.7V.5h7.2z"/><path fill="#FF7462" d="M18.3.5h-3.4V7H18c2.2 0 4.5 1.7 4.5 4.4s-2.3 4.5-4.5 4.5h-3.1v2.6h-1.3c-.4-.5-1-.9-1.7-.9-1.1 0-2 .9-2 2s.9 2 2 2c.7 0 1.3-.4 1.7-.9h1.3v2.7h4.5c.2 0 4.8 0 8.9-5.9 1-1.7 1.5-3.5 1.5-5.6C29.7 5.6 24.6.5 18.3.5z"/><path fill="#005FC6" d="M27.6 18.3c-3.9 5.1-8.1 5.1-8.3 5.1h-.1 1c2.6 0 4.9 2.2 4.9 4.8s-2.2 4.7-4.8 4.7h-5.5v2.2h-1.1c-.4-.6-1-.9-1.7-.9-1.1 0-2 .9-2 2s.9 2 2 2c.7 0 1.3-.4 1.7-.9h1.1v2.2h5.6c6.5 0 11.8-5.2 11.8-11.8.1-3.7-1.8-7.2-4.6-9.4z"/><path fill="#FFC840" d="M17.9 2.1c-.7 0-1.3.4-1.7.9h-1.3v2.2h1.3c.4.5 1 .9 1.7.9 1.1 0 2-.9 2-2s-.9-2-2-2z"/></svg>