<?xml version="1.0" encoding="utf-8"?>
<!-- Generator: Adobe Illustrator 18.1.1, SVG Export Plug-In . SVG Version: 6.00 Build 0)  -->
<svg version="1.1" id="Layer_1" xmlns="http://www.w3.org/2000/svg" xmlns:xlink="http://www.w3.org/1999/xlink" x="0px" y="0px"
	 viewBox="0 0 155 30" enable-background="new 0 0 155 30" xml:space="preserve">
<path fill="#FFC840" d="M148.6,15c0,4.6-3.8,8.4-8.4,8.4l-2.3,0V29h2.3c1.9,0,3.7-0.4,5.4-1.1c1.7-0.7,3.2-1.7,4.4-3
	c1.3-1.3,2.3-2.8,3-4.4c0.8-1.7,1.1-3.6,1.1-5.5H148.6z"/>
<path fill="#005FC6" d="M154.2,15.1c0-1.9-0.4-3.7-1.1-5.5c-0.7-1.7-1.7-3.2-3-4.5c-1.3-1.3-2.8-2.3-4.4-3C144,1.4,142.1,1,140.3,1
	h-7.9v14.1l5.6,0l0-8.5l2.3,0c4.6,0,8.4,3.8,8.4,8.5H154.2z"/>
<polygon fill="#FF7462" points="132.3,15.1 132.3,29 137.9,29 137.9,15.1 "/>
<path fill="#005FC6" d="M84.9,0.5v5.8c4.8,0,8.9,3.9,8.9,8.7h5.8C99.6,7,93.1,0.5,84.9,0.5z"/>
<path fill="#FF7462" d="M99.6,14.9h-5.8c0,4.8-3.9,8.9-8.9,8.9v5.8C93.1,29.5,99.6,23,99.6,14.9z"/>
<path fill="#FFC840" d="M84.9,23.7c-4.8,0-8.7-3.9-8.7-8.7c0-4.8,3.9-8.7,8.7-8.7V0.5C77,0.5,70.4,7,70.4,15c0,8,6.5,14.5,14.5,14.5
	V23.7z"/>
<path fill="#FFC840" d="M121.6,29l-11.6-18l-5.6-10h5.6l11.6,17.6V29z"/>
<rect x="121.5" y="1" fill="#FF7462" width="5.6" height="28"/>
<rect x="104.3" y="1" fill="#005FC6" width="5.6" height="28"/>
<path fill="#FFC840" d="M61,18.8V29h-5.6V18.8H61z"/>
<polygon fill="#005FC6" points="61,18.8 70.1,1 64,1 58.2,12.9 52.5,1 46.3,1 55.4,18.8 "/>
<path fill="#FFC840" d="M6,1v28H0.8V1H6z"/>
<path fill="#005FC6" d="M15.1,13.8c-2.8,3.7-5.8,3.7-5.9,3.7c0,0,0,0,0,0c0,0,0,0,0,0h0.7c1.9,0,3.5,1.6,3.5,3.4s-1.6,3.4-3.4,3.4H6
	V29h4c4.7,0,8.5-3.8,8.5-8.5C18.5,17.9,17.1,15.3,15.1,13.8z"/>
<path fill="#FF7462" d="M8.4,1H6v4.7h2.2c1.6,0,3.2,1.2,3.2,3.2c0,2-1.7,3.2-3.2,3.2H6v5.4c0,0,3,0,3.2,0c0.1,0,3.4,0,6.4-4.3
	c0.7-1.2,1.1-2.5,1.1-4C16.6,4.7,12.9,1,8.4,1z"/>
<circle fill="#FFC840" cx="8.1" cy="3.6" r="1.4"/>
<circle fill="#FF7462" cx="3.8" cy="14.8" r="1.4"/>
<circle fill="#FF7462" cx="31.2" cy="14.6" r="1.4"/>
<circle fill="#005FC6" cx="4" cy="26.6" r="1.4"/>
<rect x="3.8" y="14" fill="#FF7462" width="2.1" height="1.6"/>
<rect x="3.8" y="25.9" fill="#005FC6" width="2.1" height="1.6"/>
<rect x="6" y="2.8" fill="#FFC840" width="2.1" height="1.6"/>
<rect x="29" y="11.8" fill="#005FC6" width="10.6" height="5.6"/>
<rect x="23.3" y="1" fill="#FFC840" width="5.8" height="28"/>
<circle fill="#FFC840" cx="31.2" cy="14.6" r="1.4"/>
<rect x="29" y="23.4" fill="#005FC6" width="12.9" height="5.6"/>
<rect x="29" y="13.8" fill="#FFC840" width="2.1" height="1.6"/>
<circle fill="#005FC6" cx="26.9" cy="26.2" r="1.4"/>
<rect x="26.9" y="25.4" fill="#005FC6" width="2.1" height="1.6"/>
<rect x="29" y="1" fill="#FF7462" width="12.9" height="5.6"/>
<rect x="26.9" y="3" fill="#FF7462" width="2.1" height="1.6"/>
<rect x="57.4" y="18.8" fill="#005FC6" width="1.6" height="2.1"/>
<circle fill="#005FC6" cx="58.2" cy="20.9" r="1.4"/>
<circle fill="#FF7462" cx="26.8" cy="3.8" r="1.4"/>
<circle fill="#005FC6" cx="82.8" cy="3.4" r="1.4"/>
<circle fill="#FFC840" cx="87.2" cy="26.6" r="1.4"/>
<circle fill="#005FC6" cx="112" cy="8.8" r="1.4"/>
<circle fill="#FF7462" cx="119.3" cy="20.9" r="1.4"/>
<circle fill="#FFC840" cx="135.8" cy="26.2" r="1.4"/>
<circle fill="#FF7462" cx="135.1" cy="12.9" r="1.4"/>
<circle fill="#005FC6" cx="151.4" cy="17.2" r="1.4"/>
<circle fill="#FF7462" cx="96.7" cy="12.7" r="1.4"/>
<rect x="82.8" y="2.6" fill="#005FC6" width="2.1" height="1.6"/>
<rect x="84.9" y="25.8" fill="#FFC840" width="2.1" height="1.6"/>
<rect x="109.9" y="8" fill="#005FC6" width="2.1" height="1.6"/>
<rect x="119.3" y="20.1" fill="#FF7462" width="2.1" height="1.6"/>
<rect x="134.4" y="12.9" fill="#FF7462" width="1.6" height="2.1"/>
<rect x="135.8" y="25.5" fill="#FFC840" width="2.1" height="1.6"/>
<rect x="150.7" y="15.1" fill="#005FC6" width="1.6" height="2.1"/>
<rect x="96" y="12.7" fill="#FF7462" width="1.6" height="2.1"/>
</svg>
