<?xml version="1.0" encoding="utf-8"?>
<!-- Generator: Adobe Illustrator 18.1.1, SVG Export Plug-In . SVG Version: 6.00 Build 0)  -->
<svg version="1.1" id="Layer_1" xmlns="http://www.w3.org/2000/svg" xmlns:xlink="http://www.w3.org/1999/xlink" x="0px" y="0px"
	 viewBox="0 0 40 40" enable-background="new 0 0 40 40" xml:space="preserve">
<path fill="#FFC840" d="M14.9,0.5v39H7.7v-39H14.9z"/>
<path fill="#FF7462" d="M18.3,0.5h-3.4V7H18c2.2,0,4.5,1.7,4.5,4.4c0,2.7-2.3,4.5-4.5,4.5h-3.1v2.6h-1.3c-0.4-0.5-1-0.9-1.7-0.9
	c-1.1,0-2,0.9-2,2c0,1.1,0.9,2,2,2c0.7,0,1.3-0.4,1.7-0.9h1.3v2.7c0,0,4.2,0,4.5,0c0.2,0,4.8,0,8.9-5.9c1-1.7,1.5-3.5,1.5-5.6
	C29.7,5.6,24.6,0.5,18.3,0.5z"/>
<path fill="#005FC6" d="M27.6,18.3c-3.9,5.1-8.1,5.1-8.3,5.1c0,0,0,0-0.1,0c0,0,0,0,0,0h1c2.6,0,4.9,2.2,4.9,4.8s-2.2,4.7-4.8,4.7
	h-5.5v2.2h-1.1c-0.4-0.6-1-0.9-1.7-0.9c-1.1,0-2,0.9-2,2c0,1.1,0.9,2,2,2c0.7,0,1.3-0.4,1.7-0.9h1.1v2.2h5.6
	c6.5,0,11.8-5.2,11.8-11.8C32.3,24,30.4,20.5,27.6,18.3z"/>
<path fill="#FFC840" d="M17.9,2.1c-0.7,0-1.3,0.4-1.7,0.9h-1.3v2.2h1.3c0.4,0.5,1,0.9,1.7,0.9c1.1,0,2-0.9,2-2
	C19.9,3,19,2.1,17.9,2.1z"/>
</svg>
