<svg xmlns="http://www.w3.org/2000/svg" viewBox="0 0 155 30"><path fill="#FFC840" d="M148.6 15c0 4.6-3.8 8.4-8.4 8.4h-2.3V29h2.3c1.9 0 3.7-.4 5.4-1.1 1.7-.7 3.2-1.7 4.4-3 1.3-1.3 2.3-2.8 3-4.4.8-1.7 1.1-3.6 1.1-5.5h-5.5z"/><path fill="#005FC6" d="M154.2 15.1c0-1.9-.4-3.7-1.1-5.5-.7-1.7-1.7-3.2-3-4.5-1.3-1.3-2.8-2.3-4.4-3-1.7-.7-3.6-1.1-5.4-1.1h-7.9v14.1h5.6V6.6h2.3c4.6 0 8.4 3.8 8.4 8.5h5.5z"/><path fill="#FF7462" d="M132.3 15.1V29h5.6V15.1"/><path fill="#005FC6" d="M84.9.5v5.8c4.8 0 8.9 3.9 8.9 8.7h5.8C99.6 7 93.1.5 84.9.5z"/><path fill="#FF7462" d="M99.6 14.9h-5.8c0 4.8-3.9 8.9-8.9 8.9v5.8c8.2-.1 14.7-6.6 14.7-14.7z"/><path fill="#FFC840" d="M84.9 23.7c-4.8 0-8.7-3.9-8.7-8.7 0-4.8 3.9-8.7 8.7-8.7V.5C77 .5 70.4 7 70.4 15s6.5 14.5 14.5 14.5v-5.8zm36.7 5.3L110 11l-5.6-10h5.6l11.6 17.6V29z"/><path fill="#FF7462" d="M121.5 1h5.6v28h-5.6z"/><path fill="#005FC6" d="M104.3 1h5.6v28h-5.6z"/><path fill="#FFC840" d="M61 18.8V29h-5.6V18.8H61z"/><path fill="#005FC6" d="M61 18.8L70.1 1H64l-5.8 11.9L52.5 1h-6.2l9.1 17.8"/><path fill="#FFC840" d="M6 1v28H.8V1H6z"/><path fill="#005FC6" d="M15.1 13.8c-2.8 3.7-5.8 3.7-5.9 3.7h.7c1.9 0 3.5 1.6 3.5 3.4s-1.6 3.4-3.4 3.4H6V29h4c4.7 0 8.5-3.8 8.5-8.5 0-2.6-1.4-5.2-3.4-6.7z"/><path fill="#FF7462" d="M8.4 1H6v4.7h2.2c1.6 0 3.2 1.2 3.2 3.2s-1.7 3.2-3.2 3.2H6v5.4h3.2c.1 0 3.4 0 6.4-4.3.7-1.2 1.1-2.5 1.1-4C16.6 4.7 12.9 1 8.4 1z"/><circle fill="#FFC840" cx="8.1" cy="3.6" r="1.4"/><circle fill="#FF7462" cx="3.8" cy="14.8" r="1.4"/><circle fill="#FF7462" cx="31.2" cy="14.6" r="1.4"/><circle fill="#005FC6" cx="4" cy="26.6" r="1.4"/><path fill="#FF7462" d="M3.8 14h2.1v1.6H3.8z"/><path fill="#005FC6" d="M3.8 25.9h2.1v1.6H3.8z"/><path fill="#FFC840" d="M6 2.8h2.1v1.6H6z"/><path fill="#005FC6" d="M29 11.8h10.6v5.6H29z"/><path fill="#FFC840" d="M23.3 1h5.8v28h-5.8z"/><circle fill="#FFC840" cx="31.2" cy="14.6" r="1.4"/><path fill="#005FC6" d="M29 23.4h12.9V29H29z"/><path fill="#FFC840" d="M29 13.8h2.1v1.6H29z"/><circle fill="#005FC6" cx="26.9" cy="26.2" r="1.4"/><path fill="#005FC6" d="M26.9 25.4H29V27h-2.1z"/><path fill="#FF7462" d="M29 1h12.9v5.6H29zm-2.1 2H29v1.6h-2.1z"/><path fill="#005FC6" d="M57.4 18.8H59v2.1h-1.6z"/><circle fill="#005FC6" cx="58.2" cy="20.9" r="1.4"/><circle fill="#FF7462" cx="26.8" cy="3.8" r="1.4"/><circle fill="#005FC6" cx="82.8" cy="3.4" r="1.4"/><circle fill="#FFC840" cx="87.2" cy="26.6" r="1.4"/><circle fill="#005FC6" cx="112" cy="8.8" r="1.4"/><circle fill="#FF7462" cx="119.3" cy="20.9" r="1.4"/><circle fill="#FFC840" cx="135.8" cy="26.2" r="1.4"/><circle fill="#FF7462" cx="135.1" cy="12.9" r="1.4"/><circle fill="#005FC6" cx="151.4" cy="17.2" r="1.4"/><circle fill="#FF7462" cx="96.7" cy="12.7" r="1.4"/><path fill="#005FC6" d="M82.8 2.6h2.1v1.6h-2.1z"/><path fill="#FFC840" d="M84.9 25.8H87v1.6h-2.1z"/><path fill="#005FC6" d="M109.9 8h2.1v1.6h-2.1z"/><path fill="#FF7462" d="M119.3 20.1h2.1v1.6h-2.1zm15.1-7.2h1.6V15h-1.6z"/><path fill="#FFC840" d="M135.8 25.5h2.1v1.6h-2.1z"/><path fill="#005FC6" d="M150.7 15.1h1.6v2.1h-1.6z"/><path fill="#FF7462" d="M96 12.7h1.6v2.1H96z"/></svg>