<?xml version="1.0" encoding="utf-8"?>
<!-- Generator: Adobe Illustrator 18.1.1, SVG Export Plug-In . SVG Version: 6.00 Build 0)  -->
<svg version="1.1" id="Layer_1" xmlns="http://www.w3.org/2000/svg" xmlns:xlink="http://www.w3.org/1999/xlink" x="0px" y="0px"
	 viewBox="0 0 300 300" enable-background="new 0 0 300 300" xml:space="preserve">
<path fill="#FF7361" d="M45.8,53c3.9,0,7-3.1,7-7c0-3.9-3.1-7-7-7c-3.9,0-7,3.1-7,7C38.8,49.8,41.9,53,45.8,53"/>
<path fill="#005EC7" d="M195.9,24.2l1.3-1.4c0.8,0.1,1.9-0.1,2.6-0.8c1.1-1.1,1.1-2.9,0-4c-1.1-1.1-2.9-1.1-4,0
	c-0.7,0.7-0.9,1.7-0.7,2.6l-1.3,1.4l-2.9-2.8l-28.2,28.8l8,7.9L198.8,27L195.9,24.2z"/>
<path fill="#FF7361" d="M157,140.8l-3.5,1.9l0.9,1.7c0.9,0.1,1.7,0.6,2.2,1.5c0.7,1.4,0.2,3.1-1.2,3.8c-1.4,0.7-3,0.2-3.7-1.2
	c-0.5-0.9-0.3-1.9,0.1-2.7l-0.9-1.7l-3.7,1.9c-9.5-18.2-32.3-25.6-50.5-16c0,0,0,0.1-0.1,0.1l-5.2-10c0,0,0-0.1,0.1-0.1
	C115.1,107.6,144.3,116.6,157,140.8"/>
<path fill="#FFFFFF" d="M178.2,214.6l3.3,2.5l0,0l1.2-1.6c-0.2-0.8-0.2-1.9,0.4-2.7c1-1.3,2.7-1.5,4-0.6c1.3,1,1.5,2.8,0.6,4
	c-0.6,0.8-1.6,1.2-2.5,1.1l-1.2,1.6l0,0l3.1,2.4c-3.7,4.9-2.7,11.8,2.2,15.4l-6.8,9C172.8,238.4,170.9,224.5,178.2,214.6"/>
<path fill="#FFFFFF" d="M248.9,173.8c3.9,0,7-3.1,7-7c0-3.9-3.1-7-7-7c-3.9,0-7,3.1-7,7C241.9,170.7,245.1,173.8,248.9,173.8"/>
<path fill="#005EC7" d="M91.3,256.2c3.9,0,7-3.1,7-7c0-3.9-3.1-7-7-7c-3.9,0-7,3.1-7,7C84.3,253,87.5,256.2,91.3,256.2"/>
<path fill="#FF7361" d="M264.5,284c3.9,0,7-3.1,7-7c0-3.9-3.1-7-7-7c-3.9,0-7,3.1-7,7C257.5,280.8,260.7,284,264.5,284"/>
<path fill="#FFFFFF" d="M33.5,200.7l0.3,1.9c-0.6,0.6-1.1,1.6-0.9,2.5c0.2,1.5,1.7,2.6,3.2,2.3c1.5-0.2,2.6-1.7,2.4-3.2
	c-0.2-1-0.9-1.7-1.6-2.1l-0.3-1.9l4-0.7l-6.3-39.8l-11.1,1.7l6.4,39.9L33.5,200.7z"/>
<path fill="#FF7361" d="M265.8,74.3l0.1,4.2l0,0l1.9,0c0.5-0.7,1.4-1.4,2.4-1.4c1.6,0,2.9,1.2,2.9,2.8c0,1.6-1.2,2.9-2.8,3
	c-1,0-1.9-0.5-2.4-1.2l-2,0l0,0l0.1,3.9c-6.1,0.1-10.9,5.2-10.8,11.3l-11.2,0.3C243.8,84.8,253.6,74.6,265.8,74.3"/>
</svg>
