<svg xmlns="http://www.w3.org/2000/svg" viewBox="0 0 30 30"><path fill="#005EC7" d="M-378.1-1336.1c-2.7 2.8-5.3 4.1-7.9 4.1-2.6 0-5.2-1.5-7.7-4.3-5.8-6.3-11.9-6.4-17.9-.2-2.7 2.8-5.3 4.1-7.9 4.1-2.6 0-5.2-1.5-7.7-4.3-5.8-6.3-11.9-6.4-17.9-.2-2.6 2.7-5.3 4.1-7.8 4.1-2.6 0-5.2-1.5-7.7-4.3-5.8-6.3-11.9-6.4-17.9-.2-2.7 2.8-5.3 4.1-7.9 4.1-2.6 0-5.2-1.5-7.7-4.3-5.8-6.3-11.9-6.4-17.9-.2-2.7 2.8-5.3 4.1-7.9 4.1-2.6 0-5.2-1.5-7.7-4.3-5.8-6.3-11.9-6.4-17.9-.2-2.7 2.8-5.3 4.1-7.9 4.1-2.6 0-5.2-1.5-7.7-4.3-5.8-6.3-11.9-6.4-17.9-.2-2.6 2.7-5.3 4.1-7.8 4.1-2.6 0-5.2-1.5-7.7-4.3-5.8-6.3-11.9-6.4-17.9-.2-2.7 2.8-5.3 4.1-7.9 4.1-2.6 0-5.2-1.5-7.7-4.3-5.8-6.3-11.9-6.4-17.9-.2-2.6 2.7-5.3 4.1-7.8 4.1-2.6 0-5.2-1.5-7.7-4.3-5.8-6.3-11.9-6.4-17.9-.2-2.7 2.8-5.3 4.1-7.9 4.1-2.6 0-5.2-1.5-7.7-4.3-5.8-6.3-11.9-6.4-17.9-.2-2.6 2.7-5.3 4.1-7.8 4.1-2.6 0-5.2-1.5-7.7-4.3-5.8-6.3-11.9-6.4-17.9-.2-2.7 2.8-5.3 4.1-7.9 4.1-2.6 0-5.2-1.5-7.7-4.3-5.8-6.3-11.9-6.4-17.9-.2-2.7 2.8-5.3 4.1-7.9 4.1-2.6 0-5.2-1.5-7.7-4.3-5.8-6.3-11.9-6.4-17.9-.2-2.7 2.8-5.3 4.1-7.9 4.1-2.6 0-5.2-1.5-7.7-4.3-5.8-6.3-11.9-6.4-17.9-.2-2.6 2.7-5.3 4.1-7.8 4.1-2.6 0-5.2-1.5-7.7-4.3-5.8-6.3-11.9-6.4-17.9-.2-2.7 2.8-5.3 4.1-7.9 4.1-2.6 0-5.2-1.5-7.7-4.3-5.8-6.3-11.9-6.4-17.9-.2l1.1 1.1c2.7-2.8 5.3-4.1 7.9-4.1 2.6 0 5.2 1.5 7.7 4.3 2.9 3.2 5.9 4.8 8.9 4.8s6-1.5 9-4.6c2.7-2.8 5.3-4.1 7.9-4.1 2.6 0 5.2 1.5 7.7 4.3 2.9 3.2 5.9 4.8 8.9 4.8s6-1.5 9-4.6c2.6-2.7 5.3-4.1 7.8-4 2.6 0 5.2 1.5 7.7 4.3 2.9 3.2 5.9 4.8 8.9 4.8s6-1.5 9-4.6c2.7-2.8 5.3-4.1 7.9-4.1 2.6 0 5.2 1.5 7.7 4.3 2.9 3.2 5.9 4.8 8.9 4.8s6-1.5 9-4.6c2.7-2.8 5.3-4.1 7.9-4.1 2.6 0 5.2 1.5 7.7 4.3 2.9 3.2 5.9 4.8 8.9 4.8s6-1.5 9-4.6c2.7-2.8 5.3-4.1 7.9-4.1 2.6 0 5.2 1.5 7.7 4.3 2.9 3.2 5.9 4.8 8.9 4.8s6-1.5 9-4.6c2.6-2.7 5.3-4.1 7.8-4 2.6 0 5.2 1.5 7.7 4.3 2.9 3.2 5.9 4.8 8.9 4.8s6-1.5 9-4.6c2.7-2.8 5.3-4.1 7.9-4.1 2.6 0 5.2 1.5 7.7 4.3 2.9 3.2 5.9 4.8 8.9 4.8s6-1.5 9-4.6c2.6-2.7 5.3-4.1 7.8-4.1 2.6 0 5.2 1.5 7.7 4.3 2.9 3.2 5.9 4.8 8.9 4.8s6-1.5 9-4.6c2.7-2.8 5.3-4.1 7.9-4.1 2.6 0 5.2 1.5 7.7 4.3 2.9 3.2 5.9 4.8 8.9 4.8s6-1.5 9-4.6c2.6-2.7 5.3-4.1 7.8-4 2.6 0 5.2 1.5 7.7 4.3 2.9 3.2 5.9 4.8 8.9 4.8s6-1.5 9-4.6c2.7-2.8 5.3-4.1 7.9-4.1 2.6 0 5.2 1.5 7.7 4.3 2.9 3.2 5.9 4.8 8.9 4.8s6-1.5 9-4.6c2.7-2.8 5.3-4.1 7.9-4.1 2.6 0 5.2 1.5 7.7 4.3 2.9 3.2 5.9 4.8 8.9 4.8s6-1.5 9-4.6c2.7-2.8 5.3-4.1 7.9-4.1 2.6 0 5.2 1.5 7.7 4.3 2.9 3.2 5.9 4.8 8.9 4.8s6-1.5 9-4.6c2.6-2.7 5.3-4.1 7.8-4 2.6 0 5.2 1.5 7.7 4.3 2.9 3.2 5.9 4.8 8.9 4.8s6-1.5 9-4.6c2.7-2.8 5.3-4.1 7.9-4.1 2.6 0 5.2 1.5 7.7 4.3 2.9 3.2 5.9 4.8 8.9 4.8s6-1.5 9-4.6l-1.1-1.5z"/><path fill="#005EC7" d="M-378.1-1336.1c-2.7 2.8-5.3 4.1-7.9 4.1-2.6 0-5.2-1.5-7.7-4.3-5.8-6.3-11.9-6.4-17.9-.2-2.7 2.8-5.3 4.1-7.9 4.1-2.6 0-5.2-1.5-7.7-4.3-5.8-6.3-11.9-6.4-17.9-.2-2.6 2.7-5.3 4.1-7.8 4.1-2.6 0-5.2-1.5-7.7-4.3-5.8-6.3-11.9-6.4-17.9-.2-2.7 2.8-5.3 4.1-7.9 4.1-2.6 0-5.2-1.5-7.7-4.3-5.8-6.3-11.9-6.4-17.9-.2-2.7 2.8-5.3 4.1-7.9 4.1-2.6 0-5.2-1.5-7.7-4.3-5.8-6.3-11.9-6.4-17.9-.2-2.7 2.8-5.3 4.1-7.9 4.1-2.6 0-5.2-1.5-7.7-4.3-5.8-6.3-11.9-6.4-17.9-.2-2.6 2.7-5.3 4.1-7.8 4.1-2.6 0-5.2-1.5-7.7-4.3-5.8-6.3-11.9-6.4-17.9-.2-2.7 2.8-5.3 4.1-7.9 4.1-2.6 0-5.2-1.5-7.7-4.3-5.8-6.3-11.9-6.4-17.9-.2-2.6 2.7-5.3 4.1-7.8 4.1-2.6 0-5.2-1.5-7.7-4.3-5.8-6.3-11.9-6.4-17.9-.2-2.7 2.8-5.3 4.1-7.9 4.1-2.6 0-5.2-1.5-7.7-4.3-5.8-6.3-11.9-6.4-17.9-.2-2.6 2.7-5.3 4.1-7.8 4.1-2.6 0-5.2-1.5-7.7-4.3-5.8-6.3-11.9-6.4-17.9-.2-2.7 2.8-5.3 4.1-7.9 4.1-2.6 0-5.2-1.5-7.7-4.3-5.8-6.3-11.9-6.4-17.9-.2-2.7 2.8-5.3 4.1-7.9 4.1-2.6 0-5.2-1.5-7.7-4.3-5.8-6.3-11.9-6.4-17.9-.2-2.7 2.8-5.3 4.1-7.9 4.1-2.6 0-5.2-1.5-7.7-4.3-5.8-6.3-11.9-6.4-17.9-.2-2.6 2.7-5.3 4.1-7.8 4.1-2.6 0-5.2-1.5-7.7-4.3-5.8-6.3-11.9-6.4-17.9-.2-2.7 2.8-5.3 4.1-7.9 4.1-2.6 0-5.2-1.5-7.7-4.3-5.8-6.3-11.9-6.4-17.9-.2l1.1 1.1c2.7-2.8 5.3-4.1 7.9-4.1 2.6 0 5.2 1.5 7.7 4.3 2.9 3.2 5.9 4.8 8.9 4.8s6-1.5 9-4.6c2.7-2.8 5.3-4.1 7.9-4.1 2.6 0 5.2 1.5 7.7 4.3 2.9 3.2 5.9 4.8 8.9 4.8s6-1.5 9-4.6c2.6-2.7 5.3-4.1 7.8-4 2.6 0 5.2 1.5 7.7 4.3 2.9 3.2 5.9 4.8 8.9 4.8s6-1.5 9-4.6c2.7-2.8 5.3-4.1 7.9-4.1 2.6 0 5.2 1.5 7.7 4.3 2.9 3.2 5.9 4.8 8.9 4.8s6-1.5 9-4.6c2.7-2.8 5.3-4.1 7.9-4.1 2.6 0 5.2 1.5 7.7 4.3 2.9 3.2 5.9 4.8 8.9 4.8s6-1.5 9-4.6c2.7-2.8 5.3-4.1 7.9-4.1 2.6 0 5.2 1.5 7.7 4.3 2.9 3.2 5.9 4.8 8.9 4.8s6-1.5 9-4.6c2.6-2.7 5.3-4.1 7.8-4 2.6 0 5.2 1.5 7.7 4.3 2.9 3.2 5.9 4.8 8.9 4.8s6-1.5 9-4.6c2.7-2.8 5.3-4.1 7.9-4.1 2.6 0 5.2 1.5 7.7 4.3 2.9 3.2 5.9 4.8 8.9 4.8s6-1.5 9-4.6c2.6-2.7 5.3-4.1 7.8-4.1 2.6 0 5.2 1.5 7.7 4.3 2.9 3.2 5.9 4.8 8.9 4.8s6-1.5 9-4.6c2.7-2.8 5.3-4.1 7.9-4.1 2.6 0 5.2 1.5 7.7 4.3 2.9 3.2 5.9 4.8 8.9 4.8s6-1.5 9-4.6c2.6-2.7 5.3-4.1 7.8-4 2.6 0 5.2 1.5 7.7 4.3 2.9 3.2 5.9 4.8 8.9 4.8s6-1.5 9-4.6c2.7-2.8 5.3-4.1 7.9-4.1 2.6 0 5.2 1.5 7.7 4.3 2.9 3.2 5.9 4.8 8.9 4.8s6-1.5 9-4.6c2.7-2.8 5.3-4.1 7.9-4.1 2.6 0 5.2 1.5 7.7 4.3 2.9 3.2 5.9 4.8 8.9 4.8s6-1.5 9-4.6c2.7-2.8 5.3-4.1 7.9-4.1 2.6 0 5.2 1.5 7.7 4.3 2.9 3.2 5.9 4.8 8.9 4.8s6-1.5 9-4.6c2.6-2.7 5.3-4.1 7.8-4 2.6 0 5.2 1.5 7.7 4.3 2.9 3.2 5.9 4.8 8.9 4.8s6-1.5 9-4.6c2.7-2.8 5.3-4.1 7.9-4.1 2.6 0 5.2 1.5 7.7 4.3 2.9 3.2 5.9 4.8 8.9 4.8s6-1.5 9-4.6l-1.1-1.5z"/><path fill="#005EC7" d="M-378.1-1336.1c-2.7 2.8-5.3 4.1-7.9 4.1-2.6 0-5.2-1.5-7.7-4.3-5.8-6.3-11.9-6.4-17.9-.2-2.7 2.8-5.3 4.1-7.9 4.1-2.6 0-5.2-1.5-7.7-4.3-5.8-6.3-11.9-6.4-17.9-.2-2.6 2.7-5.3 4.1-7.8 4.1-2.6 0-5.2-1.5-7.7-4.3-5.8-6.3-11.9-6.4-17.9-.2-2.7 2.8-5.3 4.1-7.9 4.1-2.6 0-5.2-1.5-7.7-4.3-5.8-6.3-11.9-6.4-17.9-.2-2.7 2.8-5.3 4.1-7.9 4.1-2.6 0-5.2-1.5-7.7-4.3-5.8-6.3-11.9-6.4-17.9-.2-2.7 2.8-5.3 4.1-7.9 4.1-2.6 0-5.2-1.5-7.7-4.3-5.8-6.3-11.9-6.4-17.9-.2-2.6 2.7-5.3 4.1-7.8 4.1-2.6 0-5.2-1.5-7.7-4.3-5.8-6.3-11.9-6.4-17.9-.2-2.7 2.8-5.3 4.1-7.9 4.1-2.6 0-5.2-1.5-7.7-4.3-5.8-6.3-11.9-6.4-17.9-.2-2.6 2.7-5.3 4.1-7.8 4.1-2.6 0-5.2-1.5-7.7-4.3-5.8-6.3-11.9-6.4-17.9-.2-2.7 2.8-5.3 4.1-7.9 4.1-2.6 0-5.2-1.5-7.7-4.3-5.8-6.3-11.9-6.4-17.9-.2-2.6 2.7-5.3 4.1-7.8 4.1-2.6 0-5.2-1.5-7.7-4.3-5.8-6.3-11.9-6.4-17.9-.2-2.7 2.8-5.3 4.1-7.9 4.1-2.6 0-5.2-1.5-7.7-4.3-5.8-6.3-11.9-6.4-17.9-.2-2.7 2.8-5.3 4.1-7.9 4.1-2.6 0-5.2-1.5-7.7-4.3-5.8-6.3-11.9-6.4-17.9-.2-2.7 2.8-5.3 4.1-7.9 4.1-2.6 0-5.2-1.5-7.7-4.3-5.8-6.3-11.9-6.4-17.9-.2-2.6 2.7-5.3 4.1-7.8 4.1-2.6 0-5.2-1.5-7.7-4.3-5.8-6.3-11.9-6.4-17.9-.2-2.7 2.8-5.3 4.1-7.9 4.1-2.6 0-5.2-1.5-7.7-4.3-5.8-6.3-11.9-6.4-17.9-.2l1.1 1.1c2.7-2.8 5.3-4.1 7.9-4.1 2.6 0 5.2 1.5 7.7 4.3 2.9 3.2 5.9 4.8 8.9 4.8s6-1.5 9-4.6c2.7-2.8 5.3-4.1 7.9-4.1 2.6 0 5.2 1.5 7.7 4.3 2.9 3.2 5.9 4.8 8.9 4.8s6-1.5 9-4.6c2.6-2.7 5.3-4.1 7.8-4 2.6 0 5.2 1.5 7.7 4.3 2.9 3.2 5.9 4.8 8.9 4.8s6-1.5 9-4.6c2.7-2.8 5.3-4.1 7.9-4.1 2.6 0 5.2 1.5 7.7 4.3 2.9 3.2 5.9 4.8 8.9 4.8s6-1.5 9-4.6c2.7-2.8 5.3-4.1 7.9-4.1 2.6 0 5.2 1.5 7.7 4.3 2.9 3.2 5.9 4.8 8.9 4.8s6-1.5 9-4.6c2.7-2.8 5.3-4.1 7.9-4.1 2.6 0 5.2 1.5 7.7 4.3 2.9 3.2 5.9 4.8 8.9 4.8s6-1.5 9-4.6c2.6-2.7 5.3-4.1 7.8-4 2.6 0 5.2 1.5 7.7 4.3 2.9 3.2 5.9 4.8 8.9 4.8s6-1.5 9-4.6c2.7-2.8 5.3-4.1 7.9-4.1 2.6 0 5.2 1.5 7.7 4.3 2.9 3.2 5.9 4.8 8.9 4.8s6-1.5 9-4.6c2.6-2.7 5.3-4.1 7.8-4.1 2.6 0 5.2 1.5 7.7 4.3 2.9 3.2 5.9 4.8 8.9 4.8s6-1.5 9-4.6c2.7-2.8 5.3-4.1 7.9-4.1 2.6 0 5.2 1.5 7.7 4.3 2.9 3.2 5.9 4.8 8.9 4.8s6-1.5 9-4.6c2.6-2.7 5.3-4.1 7.8-4 2.6 0 5.2 1.5 7.7 4.3 2.9 3.2 5.9 4.8 8.9 4.8s6-1.5 9-4.6c2.7-2.8 5.3-4.1 7.9-4.1 2.6 0 5.2 1.5 7.7 4.3 2.9 3.2 5.9 4.8 8.9 4.8s6-1.5 9-4.6c2.7-2.8 5.3-4.1 7.9-4.1 2.6 0 5.2 1.5 7.7 4.3 2.9 3.2 5.9 4.8 8.9 4.8s6-1.5 9-4.6c2.7-2.8 5.3-4.1 7.9-4.1 2.6 0 5.2 1.5 7.7 4.3 2.9 3.2 5.9 4.8 8.9 4.8s6-1.5 9-4.6c2.6-2.7 5.3-4.1 7.8-4 2.6 0 5.2 1.5 7.7 4.3 2.9 3.2 5.9 4.8 8.9 4.8s6-1.5 9-4.6c2.7-2.8 5.3-4.1 7.9-4.1 2.6 0 5.2 1.5 7.7 4.3 2.9 3.2 5.9 4.8 8.9 4.8s6-1.5 9-4.6l-1.1-1.5zM13.6 3.7c-.9.5-1.5 1.2-1.9 2-.4.8-.5 1.8-.5 3.3v.5H8.8v4.7h2.4v12.7h5.7V14.2h3.2V9.5h-3.3V9c0-.9.2-1.1.2-1.2.1-.1.4-.2.8-.2.6 0 1.2.1 1.8.2l.7.2.8-4.3-.6-.2c-2.4-.7-5.2-.8-6.9.2z"/></svg>