<?xml version="1.0" encoding="utf-8"?>
<!-- Generator: Adobe Illustrator 18.1.1, SVG Export Plug-In . SVG Version: 6.00 Build 0)  -->
<svg version="1.1" id="Layer_1" xmlns="http://www.w3.org/2000/svg" xmlns:xlink="http://www.w3.org/1999/xlink" x="0px" y="0px"
	 viewBox="0 0 30 30" enable-background="new 0 0 30 30" xml:space="preserve">
<path fill="#005EC7" d="M-378.1-1336.1c-2.7,2.8-5.3,4.1-7.9,4.1c-2.6,0-5.2-1.5-7.7-4.3c-5.8-6.3-11.9-6.4-17.9-0.2l0,0
	c-2.7,2.8-5.3,4.1-7.9,4.1c-2.6,0-5.2-1.5-7.7-4.3c-5.8-6.3-11.9-6.4-17.9-0.2l0,0c-2.6,2.7-5.3,4.1-7.8,4.1c-2.6,0-5.2-1.5-7.7-4.3
	c-5.8-6.3-11.9-6.4-17.9-0.2l0,0c-2.7,2.8-5.3,4.1-7.9,4.1c-2.6,0-5.2-1.5-7.7-4.3c-5.8-6.3-11.9-6.4-17.9-0.2l0,0
	c-2.7,2.8-5.3,4.1-7.9,4.1c-2.6,0-5.2-1.5-7.7-4.3c-5.8-6.3-11.9-6.4-17.9-0.2l0,0c-2.7,2.8-5.3,4.1-7.9,4.1c-2.6,0-5.2-1.5-7.7-4.3
	c-5.8-6.3-11.9-6.4-17.9-0.2l0,0c-2.6,2.7-5.3,4.1-7.8,4.1c-2.6,0-5.2-1.5-7.7-4.3c-5.8-6.3-11.9-6.4-17.9-0.2l0,0
	c-2.7,2.8-5.3,4.1-7.9,4.1c-2.6,0-5.2-1.5-7.7-4.3c-5.8-6.3-11.9-6.4-17.9-0.2l0,0c-2.6,2.7-5.3,4.1-7.8,4.1c-2.6,0-5.2-1.5-7.7-4.3
	c-5.8-6.3-11.9-6.4-17.9-0.2l0,0c-2.7,2.8-5.3,4.1-7.9,4.1c-2.6,0-5.2-1.5-7.7-4.3c-5.8-6.3-11.9-6.4-17.9-0.2l0,0
	c-2.6,2.7-5.3,4.1-7.8,4.1c-2.6,0-5.2-1.5-7.7-4.3c-5.8-6.3-11.9-6.4-17.9-0.2l0,0c-2.7,2.8-5.3,4.1-7.9,4.1c-2.6,0-5.2-1.5-7.7-4.3
	c-5.8-6.3-11.9-6.4-17.9-0.2l0,0c-2.7,2.8-5.3,4.1-7.9,4.1c-2.6,0-5.2-1.5-7.7-4.3c-5.8-6.3-11.9-6.4-17.9-0.2l0,0
	c-2.7,2.8-5.3,4.1-7.9,4.1c-2.6,0-5.2-1.5-7.7-4.3c-5.8-6.3-11.9-6.4-17.9-0.2l0,0c-2.6,2.7-5.3,4.1-7.8,4.1c-2.6,0-5.2-1.5-7.7-4.3
	c-5.8-6.3-11.9-6.4-17.9-0.2l0,0c-2.7,2.8-5.3,4.1-7.9,4.1c-2.6,0-5.2-1.5-7.7-4.3c-5.8-6.3-11.9-6.4-17.9-0.2l1.1,1.1
	c2.7-2.8,5.3-4.1,7.9-4.1c2.6,0,5.2,1.5,7.7,4.3c2.9,3.2,5.9,4.8,8.9,4.8c3,0,6-1.5,9-4.6l0,0c2.7-2.8,5.3-4.1,7.9-4.1
	c2.6,0,5.2,1.5,7.7,4.3c2.9,3.2,5.9,4.8,8.9,4.8c3,0,6-1.5,9-4.6l0,0c2.6-2.7,5.3-4.1,7.8-4c2.6,0,5.2,1.5,7.7,4.3
	c2.9,3.2,5.9,4.8,8.9,4.8c3,0,6-1.5,9-4.6l0,0c2.7-2.8,5.3-4.1,7.9-4.1c2.6,0,5.2,1.5,7.7,4.3c2.9,3.2,5.9,4.8,8.9,4.8
	c3,0,6-1.5,9-4.6l0,0c2.7-2.8,5.3-4.1,7.9-4.1c2.6,0,5.2,1.5,7.7,4.3c2.9,3.2,5.9,4.8,8.9,4.8c3,0,6-1.5,9-4.6l0,0
	c2.7-2.8,5.3-4.1,7.9-4.1c2.6,0,5.2,1.5,7.7,4.3c2.9,3.2,5.9,4.8,8.9,4.8c3,0,6-1.5,9-4.6l0,0c2.6-2.7,5.3-4.1,7.8-4
	c2.6,0,5.2,1.5,7.7,4.3c2.9,3.2,5.9,4.8,8.9,4.8c3,0,6-1.5,9-4.6l0,0c2.7-2.8,5.3-4.1,7.9-4.1c2.6,0,5.2,1.5,7.7,4.3
	c2.9,3.2,5.9,4.8,8.9,4.8c3,0,6-1.5,9-4.6l0,0c2.6-2.7,5.3-4.1,7.8-4.1c2.6,0,5.2,1.5,7.7,4.3c2.9,3.2,5.9,4.8,8.9,4.8
	c3,0,6-1.5,9-4.6l0,0c2.7-2.8,5.3-4.1,7.9-4.1c2.6,0,5.2,1.5,7.7,4.3c2.9,3.2,5.9,4.8,8.9,4.8c3,0,6-1.5,9-4.6l0,0
	c2.6-2.7,5.3-4.1,7.8-4c2.6,0,5.2,1.5,7.7,4.3c2.9,3.2,5.9,4.8,8.9,4.8c3,0,6-1.5,9-4.6l0,0c2.7-2.8,5.3-4.1,7.9-4.1
	c2.6,0,5.2,1.5,7.7,4.3c2.9,3.2,5.9,4.8,8.9,4.8c3,0,6-1.5,9-4.6l0,0c2.7-2.8,5.3-4.1,7.9-4.1c2.6,0,5.2,1.5,7.7,4.3
	c2.9,3.2,5.9,4.8,8.9,4.8c3,0,6-1.5,9-4.6l0,0c2.7-2.8,5.3-4.1,7.9-4.1c2.6,0,5.2,1.5,7.7,4.3c2.9,3.2,5.9,4.8,8.9,4.8
	c3,0,6-1.5,9-4.6l0,0c2.6-2.7,5.3-4.1,7.8-4c2.6,0,5.2,1.5,7.7,4.3c2.9,3.2,5.9,4.8,8.9,4.8c3,0,6-1.5,9-4.6l0,0
	c2.7-2.8,5.3-4.1,7.9-4.1c2.6,0,5.2,1.5,7.7,4.3c2.9,3.2,5.9,4.8,8.9,4.8c3,0,6-1.5,9-4.6L-378.1-1336.1z"/>
<path fill="#005EC7" d="M-378.1-1336.1c-2.7,2.8-5.3,4.1-7.9,4.1c-2.6,0-5.2-1.5-7.7-4.3c-5.8-6.3-11.9-6.4-17.9-0.2l0,0
	c-2.7,2.8-5.3,4.1-7.9,4.1c-2.6,0-5.2-1.5-7.7-4.3c-5.8-6.3-11.9-6.4-17.9-0.2l0,0c-2.6,2.7-5.3,4.1-7.8,4.1c-2.6,0-5.2-1.5-7.7-4.3
	c-5.8-6.3-11.9-6.4-17.9-0.2l0,0c-2.7,2.8-5.3,4.1-7.9,4.1c-2.6,0-5.2-1.5-7.7-4.3c-5.8-6.3-11.9-6.4-17.9-0.2l0,0
	c-2.7,2.8-5.3,4.1-7.9,4.1c-2.6,0-5.2-1.5-7.7-4.3c-5.8-6.3-11.9-6.4-17.9-0.2l0,0c-2.7,2.8-5.3,4.1-7.9,4.1c-2.6,0-5.2-1.5-7.7-4.3
	c-5.8-6.3-11.9-6.4-17.9-0.2l0,0c-2.6,2.7-5.3,4.1-7.8,4.1c-2.6,0-5.2-1.5-7.7-4.3c-5.8-6.3-11.9-6.4-17.9-0.2l0,0
	c-2.7,2.8-5.3,4.1-7.9,4.1c-2.6,0-5.2-1.5-7.7-4.3c-5.8-6.3-11.9-6.4-17.9-0.2l0,0c-2.6,2.7-5.3,4.1-7.8,4.1c-2.6,0-5.2-1.5-7.7-4.3
	c-5.8-6.3-11.9-6.4-17.9-0.2l0,0c-2.7,2.8-5.3,4.1-7.9,4.1c-2.6,0-5.2-1.5-7.7-4.3c-5.8-6.3-11.9-6.4-17.9-0.2l0,0
	c-2.6,2.7-5.3,4.1-7.8,4.1c-2.6,0-5.2-1.5-7.7-4.3c-5.8-6.3-11.9-6.4-17.9-0.2l0,0c-2.7,2.8-5.3,4.1-7.9,4.1c-2.6,0-5.2-1.5-7.7-4.3
	c-5.8-6.3-11.9-6.4-17.9-0.2l0,0c-2.7,2.8-5.3,4.1-7.9,4.1c-2.6,0-5.2-1.5-7.7-4.3c-5.8-6.3-11.9-6.4-17.9-0.2l0,0
	c-2.7,2.8-5.3,4.1-7.9,4.1c-2.6,0-5.2-1.5-7.7-4.3c-5.8-6.3-11.9-6.4-17.9-0.2l0,0c-2.6,2.7-5.3,4.1-7.8,4.1c-2.6,0-5.2-1.5-7.7-4.3
	c-5.8-6.3-11.9-6.4-17.9-0.2l0,0c-2.7,2.8-5.3,4.1-7.9,4.1c-2.6,0-5.2-1.5-7.7-4.3c-5.8-6.3-11.9-6.4-17.9-0.2l1.1,1.1
	c2.7-2.8,5.3-4.1,7.9-4.1c2.6,0,5.2,1.5,7.7,4.3c2.9,3.2,5.9,4.8,8.9,4.8c3,0,6-1.5,9-4.6l0,0c2.7-2.8,5.3-4.1,7.9-4.1
	c2.6,0,5.2,1.5,7.7,4.3c2.9,3.2,5.9,4.8,8.9,4.8c3,0,6-1.5,9-4.6l0,0c2.6-2.7,5.3-4.1,7.8-4c2.6,0,5.2,1.5,7.7,4.3
	c2.9,3.2,5.9,4.8,8.9,4.8c3,0,6-1.5,9-4.6l0,0c2.7-2.8,5.3-4.1,7.9-4.1c2.6,0,5.2,1.5,7.7,4.3c2.9,3.2,5.9,4.8,8.9,4.8
	c3,0,6-1.5,9-4.6l0,0c2.7-2.8,5.3-4.1,7.9-4.1c2.6,0,5.2,1.5,7.7,4.3c2.9,3.2,5.9,4.8,8.9,4.8c3,0,6-1.5,9-4.6l0,0
	c2.7-2.8,5.3-4.1,7.9-4.1c2.6,0,5.2,1.5,7.7,4.3c2.9,3.2,5.9,4.8,8.9,4.8c3,0,6-1.5,9-4.6l0,0c2.6-2.7,5.3-4.1,7.8-4
	c2.6,0,5.2,1.5,7.7,4.3c2.9,3.2,5.9,4.8,8.9,4.8c3,0,6-1.5,9-4.6l0,0c2.7-2.8,5.3-4.1,7.9-4.1c2.6,0,5.2,1.5,7.7,4.3
	c2.9,3.2,5.9,4.8,8.9,4.8c3,0,6-1.5,9-4.6l0,0c2.6-2.7,5.3-4.1,7.8-4.1c2.6,0,5.2,1.5,7.7,4.3c2.9,3.2,5.9,4.8,8.9,4.8
	c3,0,6-1.5,9-4.6l0,0c2.7-2.8,5.3-4.1,7.9-4.1c2.6,0,5.2,1.5,7.7,4.3c2.9,3.2,5.9,4.8,8.9,4.8c3,0,6-1.5,9-4.6l0,0
	c2.6-2.7,5.3-4.1,7.8-4c2.6,0,5.2,1.5,7.7,4.3c2.9,3.2,5.9,4.8,8.9,4.8c3,0,6-1.5,9-4.6l0,0c2.7-2.8,5.3-4.1,7.9-4.1
	c2.6,0,5.2,1.5,7.7,4.3c2.9,3.2,5.9,4.8,8.9,4.8c3,0,6-1.5,9-4.6l0,0c2.7-2.8,5.3-4.1,7.9-4.1c2.6,0,5.2,1.5,7.7,4.3
	c2.9,3.2,5.9,4.8,8.9,4.8c3,0,6-1.5,9-4.6l0,0c2.7-2.8,5.3-4.1,7.9-4.1c2.6,0,5.2,1.5,7.7,4.3c2.9,3.2,5.9,4.8,8.9,4.8
	c3,0,6-1.5,9-4.6l0,0c2.6-2.7,5.3-4.1,7.8-4c2.6,0,5.2,1.5,7.7,4.3c2.9,3.2,5.9,4.8,8.9,4.8c3,0,6-1.5,9-4.6l0,0
	c2.7-2.8,5.3-4.1,7.9-4.1c2.6,0,5.2,1.5,7.7,4.3c2.9,3.2,5.9,4.8,8.9,4.8c3,0,6-1.5,9-4.6L-378.1-1336.1z"/>
<path fill="#005EC7" d="M-378.1-1336.1c-2.7,2.8-5.3,4.1-7.9,4.1c-2.6,0-5.2-1.5-7.7-4.3c-5.8-6.3-11.9-6.4-17.9-0.2l0,0
	c-2.7,2.8-5.3,4.1-7.9,4.1c-2.6,0-5.2-1.5-7.7-4.3c-5.8-6.3-11.9-6.4-17.9-0.2l0,0c-2.6,2.7-5.3,4.1-7.8,4.1c-2.6,0-5.2-1.5-7.7-4.3
	c-5.8-6.3-11.9-6.4-17.9-0.2l0,0c-2.7,2.8-5.3,4.1-7.9,4.1c-2.6,0-5.2-1.5-7.7-4.3c-5.8-6.3-11.9-6.4-17.9-0.2l0,0
	c-2.7,2.8-5.3,4.1-7.9,4.1c-2.6,0-5.2-1.5-7.7-4.3c-5.8-6.3-11.9-6.4-17.9-0.2l0,0c-2.7,2.8-5.3,4.1-7.9,4.1c-2.6,0-5.2-1.5-7.7-4.3
	c-5.8-6.3-11.9-6.4-17.9-0.2l0,0c-2.6,2.7-5.3,4.1-7.8,4.1c-2.6,0-5.2-1.5-7.7-4.3c-5.8-6.3-11.9-6.4-17.9-0.2l0,0
	c-2.7,2.8-5.3,4.1-7.9,4.1c-2.6,0-5.2-1.5-7.7-4.3c-5.8-6.3-11.9-6.4-17.9-0.2l0,0c-2.6,2.7-5.3,4.1-7.8,4.1c-2.6,0-5.2-1.5-7.7-4.3
	c-5.8-6.3-11.9-6.4-17.9-0.2l0,0c-2.7,2.8-5.3,4.1-7.9,4.1c-2.6,0-5.2-1.5-7.7-4.3c-5.8-6.3-11.9-6.4-17.9-0.2l0,0
	c-2.6,2.7-5.3,4.1-7.8,4.1c-2.6,0-5.2-1.5-7.7-4.3c-5.8-6.3-11.9-6.4-17.9-0.2l0,0c-2.7,2.8-5.3,4.1-7.9,4.1c-2.6,0-5.2-1.5-7.7-4.3
	c-5.8-6.3-11.9-6.4-17.9-0.2l0,0c-2.7,2.8-5.3,4.1-7.9,4.1c-2.6,0-5.2-1.5-7.7-4.3c-5.8-6.3-11.9-6.4-17.9-0.2l0,0
	c-2.7,2.8-5.3,4.1-7.9,4.1c-2.6,0-5.2-1.5-7.7-4.3c-5.8-6.3-11.9-6.4-17.9-0.2l0,0c-2.6,2.7-5.3,4.1-7.8,4.1c-2.6,0-5.2-1.5-7.7-4.3
	c-5.8-6.3-11.9-6.4-17.9-0.2l0,0c-2.7,2.8-5.3,4.1-7.9,4.1c-2.6,0-5.2-1.5-7.7-4.3c-5.8-6.3-11.9-6.4-17.9-0.2l1.1,1.1
	c2.7-2.8,5.3-4.1,7.9-4.1c2.6,0,5.2,1.5,7.7,4.3c2.9,3.2,5.9,4.8,8.9,4.8c3,0,6-1.5,9-4.6l0,0c2.7-2.8,5.3-4.1,7.9-4.1
	c2.6,0,5.2,1.5,7.7,4.3c2.9,3.2,5.9,4.8,8.9,4.8c3,0,6-1.5,9-4.6l0,0c2.6-2.7,5.3-4.1,7.8-4c2.6,0,5.2,1.5,7.7,4.3
	c2.9,3.2,5.9,4.8,8.9,4.8c3,0,6-1.5,9-4.6l0,0c2.7-2.8,5.3-4.1,7.9-4.1c2.6,0,5.2,1.5,7.7,4.3c2.9,3.2,5.9,4.8,8.9,4.8
	c3,0,6-1.5,9-4.6l0,0c2.7-2.8,5.3-4.1,7.9-4.1c2.6,0,5.2,1.5,7.7,4.3c2.9,3.2,5.9,4.8,8.9,4.8c3,0,6-1.5,9-4.6l0,0
	c2.7-2.8,5.3-4.1,7.9-4.1c2.6,0,5.2,1.5,7.7,4.3c2.9,3.2,5.9,4.8,8.9,4.8c3,0,6-1.5,9-4.6l0,0c2.6-2.7,5.3-4.1,7.8-4
	c2.6,0,5.2,1.5,7.7,4.3c2.9,3.2,5.9,4.8,8.9,4.8c3,0,6-1.5,9-4.6l0,0c2.7-2.8,5.3-4.1,7.9-4.1c2.6,0,5.2,1.5,7.7,4.3
	c2.9,3.2,5.9,4.8,8.9,4.8c3,0,6-1.5,9-4.6l0,0c2.6-2.7,5.3-4.1,7.8-4.1c2.6,0,5.2,1.5,7.7,4.3c2.9,3.2,5.9,4.8,8.9,4.8
	c3,0,6-1.5,9-4.6l0,0c2.7-2.8,5.3-4.1,7.9-4.1c2.6,0,5.2,1.5,7.7,4.3c2.9,3.2,5.9,4.8,8.9,4.8c3,0,6-1.5,9-4.6l0,0
	c2.6-2.7,5.3-4.1,7.8-4c2.6,0,5.2,1.5,7.7,4.3c2.9,3.2,5.9,4.8,8.9,4.8c3,0,6-1.5,9-4.6l0,0c2.7-2.8,5.3-4.1,7.9-4.1
	c2.6,0,5.2,1.5,7.7,4.3c2.9,3.2,5.9,4.8,8.9,4.8c3,0,6-1.5,9-4.6l0,0c2.7-2.8,5.3-4.1,7.9-4.1c2.6,0,5.2,1.5,7.7,4.3
	c2.9,3.2,5.9,4.8,8.9,4.8c3,0,6-1.5,9-4.6l0,0c2.7-2.8,5.3-4.1,7.9-4.1c2.6,0,5.2,1.5,7.7,4.3c2.9,3.2,5.9,4.8,8.9,4.8
	c3,0,6-1.5,9-4.6l0,0c2.6-2.7,5.3-4.1,7.8-4c2.6,0,5.2,1.5,7.7,4.3c2.9,3.2,5.9,4.8,8.9,4.8c3,0,6-1.5,9-4.6l0,0
	c2.7-2.8,5.3-4.1,7.9-4.1c2.6,0,5.2,1.5,7.7,4.3c2.9,3.2,5.9,4.8,8.9,4.8c3,0,6-1.5,9-4.6L-378.1-1336.1z"/>
<g id="facebook_1_">
	<path fill="#005EC7" d="M13.6,3.7c-0.9,0.5-1.5,1.2-1.9,2c-0.4,0.8-0.5,1.8-0.5,3.3v0.5H8.8v4.7h2.4v12.7h5.7V14.2h3.2V9.5h-3.3V9
		c0-0.9,0.2-1.1,0.2-1.2c0.1-0.1,0.4-0.2,0.8-0.2c0.6,0,1.2,0.1,1.8,0.2L20.3,8l0.8-4.3l-0.6-0.2C18.1,2.8,15.3,2.7,13.6,3.7z"/>
</g>
</svg>
