<svg xmlns="http://www.w3.org/2000/svg" viewBox="0 0 30 30"><path fill="#005EC7" d="M-378.1-1336.1c-2.7 2.8-5.3 4.1-7.9 4.1-2.6 0-5.2-1.5-7.7-4.3-5.8-6.3-11.9-6.4-17.9-.2-2.7 2.8-5.3 4.1-7.9 4.1-2.6 0-5.2-1.5-7.7-4.3-5.8-6.3-11.9-6.4-17.9-.2-2.6 2.7-5.3 4.1-7.8 4.1-2.6 0-5.2-1.5-7.7-4.3-5.8-6.3-11.9-6.4-17.9-.2-2.7 2.8-5.3 4.1-7.9 4.1-2.6 0-5.2-1.5-7.7-4.3-5.8-6.3-11.9-6.4-17.9-.2-2.7 2.8-5.3 4.1-7.9 4.1-2.6 0-5.2-1.5-7.7-4.3-5.8-6.3-11.9-6.4-17.9-.2-2.7 2.8-5.3 4.1-7.9 4.1-2.6 0-5.2-1.5-7.7-4.3-5.8-6.3-11.9-6.4-17.9-.2-2.6 2.7-5.3 4.1-7.8 4.1-2.6 0-5.2-1.5-7.7-4.3-5.8-6.3-11.9-6.4-17.9-.2-2.7 2.8-5.3 4.1-7.9 4.1-2.6 0-5.2-1.5-7.7-4.3-5.8-6.3-11.9-6.4-17.9-.2-2.6 2.7-5.3 4.1-7.8 4.1-2.6 0-5.2-1.5-7.7-4.3-5.8-6.3-11.9-6.4-17.9-.2-2.7 2.8-5.3 4.1-7.9 4.1-2.6 0-5.2-1.5-7.7-4.3-5.8-6.3-11.9-6.4-17.9-.2-2.6 2.7-5.3 4.1-7.8 4.1-2.6 0-5.2-1.5-7.7-4.3-5.8-6.3-11.9-6.4-17.9-.2-2.7 2.8-5.3 4.1-7.9 4.1-2.6 0-5.2-1.5-7.7-4.3-5.8-6.3-11.9-6.4-17.9-.2-2.7 2.8-5.3 4.1-7.9 4.1-2.6 0-5.2-1.5-7.7-4.3-5.8-6.3-11.9-6.4-17.9-.2-2.7 2.8-5.3 4.1-7.9 4.1-2.6 0-5.2-1.5-7.7-4.3-5.8-6.3-11.9-6.4-17.9-.2-2.6 2.7-5.3 4.1-7.8 4.1-2.6 0-5.2-1.5-7.7-4.3-5.8-6.3-11.9-6.4-17.9-.2-2.7 2.8-5.3 4.1-7.9 4.1-2.6 0-5.2-1.5-7.7-4.3-5.8-6.3-11.9-6.4-17.9-.2l1.1 1.1c2.7-2.8 5.3-4.1 7.9-4.1 2.6 0 5.2 1.5 7.7 4.3 2.9 3.2 5.9 4.8 8.9 4.8s6-1.5 9-4.6c2.7-2.8 5.3-4.1 7.9-4.1 2.6 0 5.2 1.5 7.7 4.3 2.9 3.2 5.9 4.8 8.9 4.8s6-1.5 9-4.6c2.6-2.7 5.3-4.1 7.8-4 2.6 0 5.2 1.5 7.7 4.3 2.9 3.2 5.9 4.8 8.9 4.8s6-1.5 9-4.6c2.7-2.8 5.3-4.1 7.9-4.1 2.6 0 5.2 1.5 7.7 4.3 2.9 3.2 5.9 4.8 8.9 4.8s6-1.5 9-4.6c2.7-2.8 5.3-4.1 7.9-4.1 2.6 0 5.2 1.5 7.7 4.3 2.9 3.2 5.9 4.8 8.9 4.8s6-1.5 9-4.6c2.7-2.8 5.3-4.1 7.9-4.1 2.6 0 5.2 1.5 7.7 4.3 2.9 3.2 5.9 4.8 8.9 4.8s6-1.5 9-4.6c2.6-2.7 5.3-4.1 7.8-4 2.6 0 5.2 1.5 7.7 4.3 2.9 3.2 5.9 4.8 8.9 4.8s6-1.5 9-4.6c2.7-2.8 5.3-4.1 7.9-4.1 2.6 0 5.2 1.5 7.7 4.3 2.9 3.2 5.9 4.8 8.9 4.8s6-1.5 9-4.6c2.6-2.7 5.3-4.1 7.8-4.1 2.6 0 5.2 1.5 7.7 4.3 2.9 3.2 5.9 4.8 8.9 4.8s6-1.5 9-4.6c2.7-2.8 5.3-4.1 7.9-4.1 2.6 0 5.2 1.5 7.7 4.3 2.9 3.2 5.9 4.8 8.9 4.8s6-1.5 9-4.6c2.6-2.7 5.3-4.1 7.8-4 2.6 0 5.2 1.5 7.7 4.3 2.9 3.2 5.9 4.8 8.9 4.8s6-1.5 9-4.6c2.7-2.8 5.3-4.1 7.9-4.1 2.6 0 5.2 1.5 7.7 4.3 2.9 3.2 5.9 4.8 8.9 4.8s6-1.5 9-4.6c2.7-2.8 5.3-4.1 7.9-4.1 2.6 0 5.2 1.5 7.7 4.3 2.9 3.2 5.9 4.8 8.9 4.8s6-1.5 9-4.6c2.7-2.8 5.3-4.1 7.9-4.1 2.6 0 5.2 1.5 7.7 4.3 2.9 3.2 5.9 4.8 8.9 4.8s6-1.5 9-4.6c2.6-2.7 5.3-4.1 7.8-4 2.6 0 5.2 1.5 7.7 4.3 2.9 3.2 5.9 4.8 8.9 4.8s6-1.5 9-4.6c2.7-2.8 5.3-4.1 7.9-4.1 2.6 0 5.2 1.5 7.7 4.3 2.9 3.2 5.9 4.8 8.9 4.8s6-1.5 9-4.6l-1.1-1.5z"/><path fill="#005EC7" d="M-378.1-1336.1c-2.7 2.8-5.3 4.1-7.9 4.1-2.6 0-5.2-1.5-7.7-4.3-5.8-6.3-11.9-6.4-17.9-.2-2.7 2.8-5.3 4.1-7.9 4.1-2.6 0-5.2-1.5-7.7-4.3-5.8-6.3-11.9-6.4-17.9-.2-2.6 2.7-5.3 4.1-7.8 4.1-2.6 0-5.2-1.5-7.7-4.3-5.8-6.3-11.9-6.4-17.9-.2-2.7 2.8-5.3 4.1-7.9 4.1-2.6 0-5.2-1.5-7.7-4.3-5.8-6.3-11.9-6.4-17.9-.2-2.7 2.8-5.3 4.1-7.9 4.1-2.6 0-5.2-1.5-7.7-4.3-5.8-6.3-11.9-6.4-17.9-.2-2.7 2.8-5.3 4.1-7.9 4.1-2.6 0-5.2-1.5-7.7-4.3-5.8-6.3-11.9-6.4-17.9-.2-2.6 2.7-5.3 4.1-7.8 4.1-2.6 0-5.2-1.5-7.7-4.3-5.8-6.3-11.9-6.4-17.9-.2-2.7 2.8-5.3 4.1-7.9 4.1-2.6 0-5.2-1.5-7.7-4.3-5.8-6.3-11.9-6.4-17.9-.2-2.6 2.7-5.3 4.1-7.8 4.1-2.6 0-5.2-1.5-7.7-4.3-5.8-6.3-11.9-6.4-17.9-.2-2.7 2.8-5.3 4.1-7.9 4.1-2.6 0-5.2-1.5-7.7-4.3-5.8-6.3-11.9-6.4-17.9-.2-2.6 2.7-5.3 4.1-7.8 4.1-2.6 0-5.2-1.5-7.7-4.3-5.8-6.3-11.9-6.4-17.9-.2-2.7 2.8-5.3 4.1-7.9 4.1-2.6 0-5.2-1.5-7.7-4.3-5.8-6.3-11.9-6.4-17.9-.2-2.7 2.8-5.3 4.1-7.9 4.1-2.6 0-5.2-1.5-7.7-4.3-5.8-6.3-11.9-6.4-17.9-.2-2.7 2.8-5.3 4.1-7.9 4.1-2.6 0-5.2-1.5-7.7-4.3-5.8-6.3-11.9-6.4-17.9-.2-2.6 2.7-5.3 4.1-7.8 4.1-2.6 0-5.2-1.5-7.7-4.3-5.8-6.3-11.9-6.4-17.9-.2-2.7 2.8-5.3 4.1-7.9 4.1-2.6 0-5.2-1.5-7.7-4.3-5.8-6.3-11.9-6.4-17.9-.2l1.1 1.1c2.7-2.8 5.3-4.1 7.9-4.1 2.6 0 5.2 1.5 7.7 4.3 2.9 3.2 5.9 4.8 8.9 4.8s6-1.5 9-4.6c2.7-2.8 5.3-4.1 7.9-4.1 2.6 0 5.2 1.5 7.7 4.3 2.9 3.2 5.9 4.8 8.9 4.8s6-1.5 9-4.6c2.6-2.7 5.3-4.1 7.8-4 2.6 0 5.2 1.5 7.7 4.3 2.9 3.2 5.9 4.8 8.9 4.8s6-1.5 9-4.6c2.7-2.8 5.3-4.1 7.9-4.1 2.6 0 5.2 1.5 7.7 4.3 2.9 3.2 5.9 4.8 8.9 4.8s6-1.5 9-4.6c2.7-2.8 5.3-4.1 7.9-4.1 2.6 0 5.2 1.5 7.7 4.3 2.9 3.2 5.9 4.8 8.9 4.8s6-1.5 9-4.6c2.7-2.8 5.3-4.1 7.9-4.1 2.6 0 5.2 1.5 7.7 4.3 2.9 3.2 5.9 4.8 8.9 4.8s6-1.5 9-4.6c2.6-2.7 5.3-4.1 7.8-4 2.6 0 5.2 1.5 7.7 4.3 2.9 3.2 5.9 4.8 8.9 4.8s6-1.5 9-4.6c2.7-2.8 5.3-4.1 7.9-4.1 2.6 0 5.2 1.5 7.7 4.3 2.9 3.2 5.9 4.8 8.9 4.8s6-1.5 9-4.6c2.6-2.7 5.3-4.1 7.8-4.1 2.6 0 5.2 1.5 7.7 4.3 2.9 3.2 5.9 4.8 8.9 4.8s6-1.5 9-4.6c2.7-2.8 5.3-4.1 7.9-4.1 2.6 0 5.2 1.5 7.7 4.3 2.9 3.2 5.9 4.8 8.9 4.8s6-1.5 9-4.6c2.6-2.7 5.3-4.1 7.8-4 2.6 0 5.2 1.5 7.7 4.3 2.9 3.2 5.9 4.8 8.9 4.8s6-1.5 9-4.6c2.7-2.8 5.3-4.1 7.9-4.1 2.6 0 5.2 1.5 7.7 4.3 2.9 3.2 5.9 4.8 8.9 4.8s6-1.5 9-4.6c2.7-2.8 5.3-4.1 7.9-4.1 2.6 0 5.2 1.5 7.7 4.3 2.9 3.2 5.9 4.8 8.9 4.8s6-1.5 9-4.6c2.7-2.8 5.3-4.1 7.9-4.1 2.6 0 5.2 1.5 7.7 4.3 2.9 3.2 5.9 4.8 8.9 4.8s6-1.5 9-4.6c2.6-2.7 5.3-4.1 7.8-4 2.6 0 5.2 1.5 7.7 4.3 2.9 3.2 5.9 4.8 8.9 4.8s6-1.5 9-4.6c2.7-2.8 5.3-4.1 7.9-4.1 2.6 0 5.2 1.5 7.7 4.3 2.9 3.2 5.9 4.8 8.9 4.8s6-1.5 9-4.6l-1.1-1.5z"/><path fill="#005EC7" d="M-378.1-1336.1c-2.7 2.8-5.3 4.1-7.9 4.1-2.6 0-5.2-1.5-7.7-4.3-5.8-6.3-11.9-6.4-17.9-.2-2.7 2.8-5.3 4.1-7.9 4.1-2.6 0-5.2-1.5-7.7-4.3-5.8-6.3-11.9-6.4-17.9-.2-2.6 2.7-5.3 4.1-7.8 4.1-2.6 0-5.2-1.5-7.7-4.3-5.8-6.3-11.9-6.4-17.9-.2-2.7 2.8-5.3 4.1-7.9 4.1-2.6 0-5.2-1.5-7.7-4.3-5.8-6.3-11.9-6.4-17.9-.2-2.7 2.8-5.3 4.1-7.9 4.1-2.6 0-5.2-1.5-7.7-4.3-5.8-6.3-11.9-6.4-17.9-.2-2.7 2.8-5.3 4.1-7.9 4.1-2.6 0-5.2-1.5-7.7-4.3-5.8-6.3-11.9-6.4-17.9-.2-2.6 2.7-5.3 4.1-7.8 4.1-2.6 0-5.2-1.5-7.7-4.3-5.8-6.3-11.9-6.4-17.9-.2-2.7 2.8-5.3 4.1-7.9 4.1-2.6 0-5.2-1.5-7.7-4.3-5.8-6.3-11.9-6.4-17.9-.2-2.6 2.7-5.3 4.1-7.8 4.1-2.6 0-5.2-1.5-7.7-4.3-5.8-6.3-11.9-6.4-17.9-.2-2.7 2.8-5.3 4.1-7.9 4.1-2.6 0-5.2-1.5-7.7-4.3-5.8-6.3-11.9-6.4-17.9-.2-2.6 2.7-5.3 4.1-7.8 4.1-2.6 0-5.2-1.5-7.7-4.3-5.8-6.3-11.9-6.4-17.9-.2-2.7 2.8-5.3 4.1-7.9 4.1-2.6 0-5.2-1.5-7.7-4.3-5.8-6.3-11.9-6.4-17.9-.2-2.7 2.8-5.3 4.1-7.9 4.1-2.6 0-5.2-1.5-7.7-4.3-5.8-6.3-11.9-6.4-17.9-.2-2.7 2.8-5.3 4.1-7.9 4.1-2.6 0-5.2-1.5-7.7-4.3-5.8-6.3-11.9-6.4-17.9-.2-2.6 2.7-5.3 4.1-7.8 4.1-2.6 0-5.2-1.5-7.7-4.3-5.8-6.3-11.9-6.4-17.9-.2-2.7 2.8-5.3 4.1-7.9 4.1-2.6 0-5.2-1.5-7.7-4.3-5.8-6.3-11.9-6.4-17.9-.2l1.1 1.1c2.7-2.8 5.3-4.1 7.9-4.1 2.6 0 5.2 1.5 7.7 4.3 2.9 3.2 5.9 4.8 8.9 4.8s6-1.5 9-4.6c2.7-2.8 5.3-4.1 7.9-4.1 2.6 0 5.2 1.5 7.7 4.3 2.9 3.2 5.9 4.8 8.9 4.8s6-1.5 9-4.6c2.6-2.7 5.3-4.1 7.8-4 2.6 0 5.2 1.5 7.7 4.3 2.9 3.2 5.9 4.8 8.9 4.8s6-1.5 9-4.6c2.7-2.8 5.3-4.1 7.9-4.1 2.6 0 5.2 1.5 7.7 4.3 2.9 3.2 5.9 4.8 8.9 4.8s6-1.5 9-4.6c2.7-2.8 5.3-4.1 7.9-4.1 2.6 0 5.2 1.5 7.7 4.3 2.9 3.2 5.9 4.8 8.9 4.8s6-1.5 9-4.6c2.7-2.8 5.3-4.1 7.9-4.1 2.6 0 5.2 1.5 7.7 4.3 2.9 3.2 5.9 4.8 8.9 4.8s6-1.5 9-4.6c2.6-2.7 5.3-4.1 7.8-4 2.6 0 5.2 1.5 7.7 4.3 2.9 3.2 5.9 4.8 8.9 4.8s6-1.5 9-4.6c2.7-2.8 5.3-4.1 7.9-4.1 2.6 0 5.2 1.5 7.7 4.3 2.9 3.2 5.9 4.8 8.9 4.8s6-1.5 9-4.6c2.6-2.7 5.3-4.1 7.8-4.1 2.6 0 5.2 1.5 7.7 4.3 2.9 3.2 5.9 4.8 8.9 4.8s6-1.5 9-4.6c2.7-2.8 5.3-4.1 7.9-4.1 2.6 0 5.2 1.5 7.7 4.3 2.9 3.2 5.9 4.8 8.9 4.8s6-1.5 9-4.6c2.6-2.7 5.3-4.1 7.8-4 2.6 0 5.2 1.5 7.7 4.3 2.9 3.2 5.9 4.8 8.9 4.8s6-1.5 9-4.6c2.7-2.8 5.3-4.1 7.9-4.1 2.6 0 5.2 1.5 7.7 4.3 2.9 3.2 5.9 4.8 8.9 4.8s6-1.5 9-4.6c2.7-2.8 5.3-4.1 7.9-4.1 2.6 0 5.2 1.5 7.7 4.3 2.9 3.2 5.9 4.8 8.9 4.8s6-1.5 9-4.6c2.7-2.8 5.3-4.1 7.9-4.1 2.6 0 5.2 1.5 7.7 4.3 2.9 3.2 5.9 4.8 8.9 4.8s6-1.5 9-4.6c2.6-2.7 5.3-4.1 7.8-4 2.6 0 5.2 1.5 7.7 4.3 2.9 3.2 5.9 4.8 8.9 4.8s6-1.5 9-4.6c2.7-2.8 5.3-4.1 7.9-4.1 2.6 0 5.2 1.5 7.7 4.3 2.9 3.2 5.9 4.8 8.9 4.8s6-1.5 9-4.6l-1.1-1.5zM29.4 5.9c-.1-.2-.3-.2-.5-.2-.1 0-.3 0-.5.1-.2 0-.4.1-.7.2.1-.2.2-.4.2-.7l.3-1.2c.1-.2 0-.4-.2-.6-.2-.1-.4-.2-.6 0-.9.5-1.6.8-2.1 1-.5.2-.9.3-1.4.3-.6-.5-1.2-.9-1.8-1.2-.7-.3-1.5-.5-2.4-.5-1 0-2 .2-3 .6-.5.2-.9.5-1.3.9-.6.5-1.1 1.2-1.5 2-.4.8-.6 1.6-.6 2.5v.3c-1-.3-2.6-.8-4.2-1.5-.6-.3-1.5-.9-2.4-1.7-.9-.7-1.7-1.6-2.4-2.6-.1-.1-.2-.2-.4-.2s-.3 0-.5.2-.4.5-.6.7c-.3.4-.6.8-.7 1.2-.2.4-.2.8-.3 1.3 0 .3-.1.7-.1 1.1 0 .8.1 1.7.5 2.5-.3 0-.5.3-.5.5v.6c0 1.9.6 3.4 1.5 4.4l.3.3v.1c0 .7.2 1.4.5 2 .5.9 1.2 1.6 2.1 2.1.3.2.6.4 1 .5-1.4.5-2.6.6-3.6.6H1.1c-.2 0-.3.1-.4.2-.1.1-.1.3-.1.5.2.7.6 1.3 1.1 1.9.9.8 2.1 1.5 3.5 2 1.5.5 3.2.8 5 .8 2.7 0 5.6-.6 8.4-2.1 2.6-1.4 4.7-3.7 6-6.2.4-.9.9-2 1.3-3.2.4-1.2.7-2.5.7-3.7 0-.4 0-.8-.1-1.2.3-.2.6-.5.9-.7.5-.5.9-.9 1.3-1.5.3-.5.6-1.1.9-1.8-.1-.2-.1-.4-.2-.6"/></svg>