<?xml version="1.0" encoding="utf-8"?>
<!-- Generator: Adobe Illustrator 18.1.1, SVG Export Plug-In . SVG Version: 6.00 Build 0)  -->
<svg version="1.1" id="Layer_1" xmlns="http://www.w3.org/2000/svg" xmlns:xlink="http://www.w3.org/1999/xlink" x="0px" y="0px"
	 viewBox="0 0 30 30" enable-background="new 0 0 30 30" xml:space="preserve">
<path fill="#FF7361" d="M15,0.5c1.2,1.2,1.8,2.3,1.8,3.4s-0.7,2.3-1.9,3.4c-2.8,2.5-2.8,5.2-0.1,7.9l0,0c1.2,1.2,1.8,2.3,1.8,3.4
	s-0.7,2.3-1.9,3.4c-2.8,2.5-2.8,5.2-0.1,7.9l0.5-0.5c-1.2-1.2-1.8-2.3-1.8-3.4s0.6-2.3,1.9-3.4c1.4-1.3,2.1-2.6,2.1-3.9
	c0-1.3-0.7-2.6-2-4l0,0c-1.2-1.2-1.8-2.3-1.8-3.4s0.6-2.3,1.9-3.4c1.4-1.3,2.1-2.6,2.1-3.9s-0.7-2.6-2-4L15,0.5z"/>
</svg>
