<?xml version="1.0" encoding="utf-8"?>
<!-- Generator: Adobe Illustrator 18.1.1, SVG Export Plug-In . SVG Version: 6.00 Build 0)  -->
<svg version="1.1" id="Layer_1" xmlns="http://www.w3.org/2000/svg" xmlns:xlink="http://www.w3.org/1999/xlink" x="0px" y="0px"
	 viewBox="0 0 30 30" enable-background="new 0 0 30 30" xml:space="preserve">
<path fill="#005EC7" d="M-378.1-1336.1c-2.7,2.8-5.3,4.1-7.9,4.1c-2.6,0-5.2-1.5-7.7-4.3c-5.8-6.3-11.9-6.4-17.9-0.2l0,0
	c-2.7,2.8-5.3,4.1-7.9,4.1c-2.6,0-5.2-1.5-7.7-4.3c-5.8-6.3-11.9-6.4-17.9-0.2l0,0c-2.6,2.7-5.3,4.1-7.8,4.1c-2.6,0-5.2-1.5-7.7-4.3
	c-5.8-6.3-11.9-6.4-17.9-0.2l0,0c-2.7,2.8-5.3,4.1-7.9,4.1c-2.6,0-5.2-1.5-7.7-4.3c-5.8-6.3-11.9-6.4-17.9-0.2l0,0
	c-2.7,2.8-5.3,4.1-7.9,4.1c-2.6,0-5.2-1.5-7.7-4.3c-5.8-6.3-11.9-6.4-17.9-0.2l0,0c-2.7,2.8-5.3,4.1-7.9,4.1c-2.6,0-5.2-1.5-7.7-4.3
	c-5.8-6.3-11.9-6.4-17.9-0.2l0,0c-2.6,2.7-5.3,4.1-7.8,4.1c-2.6,0-5.2-1.5-7.7-4.3c-5.8-6.3-11.9-6.4-17.9-0.2l0,0
	c-2.7,2.8-5.3,4.1-7.9,4.1c-2.6,0-5.2-1.5-7.7-4.3c-5.8-6.3-11.9-6.4-17.9-0.2l0,0c-2.6,2.7-5.3,4.1-7.8,4.1c-2.6,0-5.2-1.5-7.7-4.3
	c-5.8-6.3-11.9-6.4-17.9-0.2l0,0c-2.7,2.8-5.3,4.1-7.9,4.1c-2.6,0-5.2-1.5-7.7-4.3c-5.8-6.3-11.9-6.4-17.9-0.2l0,0
	c-2.6,2.7-5.3,4.1-7.8,4.1c-2.6,0-5.2-1.5-7.7-4.3c-5.8-6.3-11.9-6.4-17.9-0.2l0,0c-2.7,2.8-5.3,4.1-7.9,4.1c-2.6,0-5.2-1.5-7.7-4.3
	c-5.8-6.3-11.9-6.4-17.9-0.2l0,0c-2.7,2.8-5.3,4.1-7.9,4.1c-2.6,0-5.2-1.5-7.7-4.3c-5.8-6.3-11.9-6.4-17.9-0.2l0,0
	c-2.7,2.8-5.3,4.1-7.9,4.1c-2.6,0-5.2-1.5-7.7-4.3c-5.8-6.3-11.9-6.4-17.9-0.2l0,0c-2.6,2.7-5.3,4.1-7.8,4.1c-2.6,0-5.2-1.5-7.7-4.3
	c-5.8-6.3-11.9-6.4-17.9-0.2l0,0c-2.7,2.8-5.3,4.1-7.9,4.1c-2.6,0-5.2-1.5-7.7-4.3c-5.8-6.3-11.9-6.4-17.9-0.2l1.1,1.1
	c2.7-2.8,5.3-4.1,7.9-4.1c2.6,0,5.2,1.5,7.7,4.3c2.9,3.2,5.9,4.8,8.9,4.8c3,0,6-1.5,9-4.6l0,0c2.7-2.8,5.3-4.1,7.9-4.1
	c2.6,0,5.2,1.5,7.7,4.3c2.9,3.2,5.9,4.8,8.9,4.8c3,0,6-1.5,9-4.6l0,0c2.6-2.7,5.3-4.1,7.8-4c2.6,0,5.2,1.5,7.7,4.3
	c2.9,3.2,5.9,4.8,8.9,4.8c3,0,6-1.5,9-4.6l0,0c2.7-2.8,5.3-4.1,7.9-4.1c2.6,0,5.2,1.5,7.7,4.3c2.9,3.2,5.9,4.8,8.9,4.8
	c3,0,6-1.5,9-4.6l0,0c2.7-2.8,5.3-4.1,7.9-4.1c2.6,0,5.2,1.5,7.7,4.3c2.9,3.2,5.9,4.8,8.9,4.8c3,0,6-1.5,9-4.6l0,0
	c2.7-2.8,5.3-4.1,7.9-4.1c2.6,0,5.2,1.5,7.7,4.3c2.9,3.2,5.9,4.8,8.9,4.8c3,0,6-1.5,9-4.6l0,0c2.6-2.7,5.3-4.1,7.8-4
	c2.6,0,5.2,1.5,7.7,4.3c2.9,3.2,5.9,4.8,8.9,4.8c3,0,6-1.5,9-4.6l0,0c2.7-2.8,5.3-4.1,7.9-4.1c2.6,0,5.2,1.5,7.7,4.3
	c2.9,3.2,5.9,4.8,8.9,4.8c3,0,6-1.5,9-4.6l0,0c2.6-2.7,5.3-4.1,7.8-4.1c2.6,0,5.2,1.5,7.7,4.3c2.9,3.2,5.9,4.8,8.9,4.8
	c3,0,6-1.5,9-4.6l0,0c2.7-2.8,5.3-4.1,7.9-4.1c2.6,0,5.2,1.5,7.7,4.3c2.9,3.2,5.9,4.8,8.9,4.8c3,0,6-1.5,9-4.6l0,0
	c2.6-2.7,5.3-4.1,7.8-4c2.6,0,5.2,1.5,7.7,4.3c2.9,3.2,5.9,4.8,8.9,4.8c3,0,6-1.5,9-4.6l0,0c2.7-2.8,5.3-4.1,7.9-4.1
	c2.6,0,5.2,1.5,7.7,4.3c2.9,3.2,5.9,4.8,8.9,4.8c3,0,6-1.5,9-4.6l0,0c2.7-2.8,5.3-4.1,7.9-4.1c2.6,0,5.2,1.5,7.7,4.3
	c2.9,3.2,5.9,4.8,8.9,4.8c3,0,6-1.5,9-4.6l0,0c2.7-2.8,5.3-4.1,7.9-4.1c2.6,0,5.2,1.5,7.7,4.3c2.9,3.2,5.9,4.8,8.9,4.8
	c3,0,6-1.5,9-4.6l0,0c2.6-2.7,5.3-4.1,7.8-4c2.6,0,5.2,1.5,7.7,4.3c2.9,3.2,5.9,4.8,8.9,4.8c3,0,6-1.5,9-4.6l0,0
	c2.7-2.8,5.3-4.1,7.9-4.1c2.6,0,5.2,1.5,7.7,4.3c2.9,3.2,5.9,4.8,8.9,4.8c3,0,6-1.5,9-4.6L-378.1-1336.1z"/>
<path fill="#005EC7" d="M-378.1-1336.1c-2.7,2.8-5.3,4.1-7.9,4.1c-2.6,0-5.2-1.5-7.7-4.3c-5.8-6.3-11.9-6.4-17.9-0.2l0,0
	c-2.7,2.8-5.3,4.1-7.9,4.1c-2.6,0-5.2-1.5-7.7-4.3c-5.8-6.3-11.9-6.4-17.9-0.2l0,0c-2.6,2.7-5.3,4.1-7.8,4.1c-2.6,0-5.2-1.5-7.7-4.3
	c-5.8-6.3-11.9-6.4-17.9-0.2l0,0c-2.7,2.8-5.3,4.1-7.9,4.1c-2.6,0-5.2-1.5-7.7-4.3c-5.8-6.3-11.9-6.4-17.9-0.2l0,0
	c-2.7,2.8-5.3,4.1-7.9,4.1c-2.6,0-5.2-1.5-7.7-4.3c-5.8-6.3-11.9-6.4-17.9-0.2l0,0c-2.7,2.8-5.3,4.1-7.9,4.1c-2.6,0-5.2-1.5-7.7-4.3
	c-5.8-6.3-11.9-6.4-17.9-0.2l0,0c-2.6,2.7-5.3,4.1-7.8,4.1c-2.6,0-5.2-1.5-7.7-4.3c-5.8-6.3-11.9-6.4-17.9-0.2l0,0
	c-2.7,2.8-5.3,4.1-7.9,4.1c-2.6,0-5.2-1.5-7.7-4.3c-5.8-6.3-11.9-6.4-17.9-0.2l0,0c-2.6,2.7-5.3,4.1-7.8,4.1c-2.6,0-5.2-1.5-7.7-4.3
	c-5.8-6.3-11.9-6.4-17.9-0.2l0,0c-2.7,2.8-5.3,4.1-7.9,4.1c-2.6,0-5.2-1.5-7.7-4.3c-5.8-6.3-11.9-6.4-17.9-0.2l0,0
	c-2.6,2.7-5.3,4.1-7.8,4.1c-2.6,0-5.2-1.5-7.7-4.3c-5.8-6.3-11.9-6.4-17.9-0.2l0,0c-2.7,2.8-5.3,4.1-7.9,4.1c-2.6,0-5.2-1.5-7.7-4.3
	c-5.8-6.3-11.9-6.4-17.9-0.2l0,0c-2.7,2.8-5.3,4.1-7.9,4.1c-2.6,0-5.2-1.5-7.7-4.3c-5.8-6.3-11.9-6.4-17.9-0.2l0,0
	c-2.7,2.8-5.3,4.1-7.9,4.1c-2.6,0-5.2-1.5-7.7-4.3c-5.8-6.3-11.9-6.4-17.9-0.2l0,0c-2.6,2.7-5.3,4.1-7.8,4.1c-2.6,0-5.2-1.5-7.7-4.3
	c-5.8-6.3-11.9-6.4-17.9-0.2l0,0c-2.7,2.8-5.3,4.1-7.9,4.1c-2.6,0-5.2-1.5-7.7-4.3c-5.8-6.3-11.9-6.4-17.9-0.2l1.1,1.1
	c2.7-2.8,5.3-4.1,7.9-4.1c2.6,0,5.2,1.5,7.7,4.3c2.9,3.2,5.9,4.8,8.9,4.8c3,0,6-1.5,9-4.6l0,0c2.7-2.8,5.3-4.1,7.9-4.1
	c2.6,0,5.2,1.5,7.7,4.3c2.9,3.2,5.9,4.8,8.9,4.8c3,0,6-1.5,9-4.6l0,0c2.6-2.7,5.3-4.1,7.8-4c2.6,0,5.2,1.5,7.7,4.3
	c2.9,3.2,5.9,4.8,8.9,4.8c3,0,6-1.5,9-4.6l0,0c2.7-2.8,5.3-4.1,7.9-4.1c2.6,0,5.2,1.5,7.7,4.3c2.9,3.2,5.9,4.8,8.9,4.8
	c3,0,6-1.5,9-4.6l0,0c2.7-2.8,5.3-4.1,7.9-4.1c2.6,0,5.2,1.5,7.7,4.3c2.9,3.2,5.9,4.8,8.9,4.8c3,0,6-1.5,9-4.6l0,0
	c2.7-2.8,5.3-4.1,7.9-4.1c2.6,0,5.2,1.5,7.7,4.3c2.9,3.2,5.9,4.8,8.9,4.8c3,0,6-1.5,9-4.6l0,0c2.6-2.7,5.3-4.1,7.8-4
	c2.6,0,5.2,1.5,7.7,4.3c2.9,3.2,5.9,4.8,8.9,4.8c3,0,6-1.5,9-4.6l0,0c2.7-2.8,5.3-4.1,7.9-4.1c2.6,0,5.2,1.5,7.7,4.3
	c2.9,3.2,5.9,4.8,8.9,4.8c3,0,6-1.5,9-4.6l0,0c2.6-2.7,5.3-4.1,7.8-4.1c2.6,0,5.2,1.5,7.7,4.3c2.9,3.2,5.9,4.8,8.9,4.8
	c3,0,6-1.5,9-4.6l0,0c2.7-2.8,5.3-4.1,7.9-4.1c2.6,0,5.2,1.5,7.7,4.3c2.9,3.2,5.9,4.8,8.9,4.8c3,0,6-1.5,9-4.6l0,0
	c2.6-2.7,5.3-4.1,7.8-4c2.6,0,5.2,1.5,7.7,4.3c2.9,3.2,5.9,4.8,8.9,4.8c3,0,6-1.5,9-4.6l0,0c2.7-2.8,5.3-4.1,7.9-4.1
	c2.6,0,5.2,1.5,7.7,4.3c2.9,3.2,5.9,4.8,8.9,4.8c3,0,6-1.5,9-4.6l0,0c2.7-2.8,5.3-4.1,7.9-4.1c2.6,0,5.2,1.5,7.7,4.3
	c2.9,3.2,5.9,4.8,8.9,4.8c3,0,6-1.5,9-4.6l0,0c2.7-2.8,5.3-4.1,7.9-4.1c2.6,0,5.2,1.5,7.7,4.3c2.9,3.2,5.9,4.8,8.9,4.8
	c3,0,6-1.5,9-4.6l0,0c2.6-2.7,5.3-4.1,7.8-4c2.6,0,5.2,1.5,7.7,4.3c2.9,3.2,5.9,4.8,8.9,4.8c3,0,6-1.5,9-4.6l0,0
	c2.7-2.8,5.3-4.1,7.9-4.1c2.6,0,5.2,1.5,7.7,4.3c2.9,3.2,5.9,4.8,8.9,4.8c3,0,6-1.5,9-4.6L-378.1-1336.1z"/>
<path fill="#005EC7" d="M-378.1-1336.1c-2.7,2.8-5.3,4.1-7.9,4.1c-2.6,0-5.2-1.5-7.7-4.3c-5.8-6.3-11.9-6.4-17.9-0.2l0,0
	c-2.7,2.8-5.3,4.1-7.9,4.1c-2.6,0-5.2-1.5-7.7-4.3c-5.8-6.3-11.9-6.4-17.9-0.2l0,0c-2.6,2.7-5.3,4.1-7.8,4.1c-2.6,0-5.2-1.5-7.7-4.3
	c-5.8-6.3-11.9-6.4-17.9-0.2l0,0c-2.7,2.8-5.3,4.1-7.9,4.1c-2.6,0-5.2-1.5-7.7-4.3c-5.8-6.3-11.9-6.4-17.9-0.2l0,0
	c-2.7,2.8-5.3,4.1-7.9,4.1c-2.6,0-5.2-1.5-7.7-4.3c-5.8-6.3-11.9-6.4-17.9-0.2l0,0c-2.7,2.8-5.3,4.1-7.9,4.1c-2.6,0-5.2-1.5-7.7-4.3
	c-5.8-6.3-11.9-6.4-17.9-0.2l0,0c-2.6,2.7-5.3,4.1-7.8,4.1c-2.6,0-5.2-1.5-7.7-4.3c-5.8-6.3-11.9-6.4-17.9-0.2l0,0
	c-2.7,2.8-5.3,4.1-7.9,4.1c-2.6,0-5.2-1.5-7.7-4.3c-5.8-6.3-11.9-6.4-17.9-0.2l0,0c-2.6,2.7-5.3,4.1-7.8,4.1c-2.6,0-5.2-1.5-7.7-4.3
	c-5.8-6.3-11.9-6.4-17.9-0.2l0,0c-2.7,2.8-5.3,4.1-7.9,4.1c-2.6,0-5.2-1.5-7.7-4.3c-5.8-6.3-11.9-6.4-17.9-0.2l0,0
	c-2.6,2.7-5.3,4.1-7.8,4.1c-2.6,0-5.2-1.5-7.7-4.3c-5.8-6.3-11.9-6.4-17.9-0.2l0,0c-2.7,2.8-5.3,4.1-7.9,4.1c-2.6,0-5.2-1.5-7.7-4.3
	c-5.8-6.3-11.9-6.4-17.9-0.2l0,0c-2.7,2.8-5.3,4.1-7.9,4.1c-2.6,0-5.2-1.5-7.7-4.3c-5.8-6.3-11.9-6.4-17.9-0.2l0,0
	c-2.7,2.8-5.3,4.1-7.9,4.1c-2.6,0-5.2-1.5-7.7-4.3c-5.8-6.3-11.9-6.4-17.9-0.2l0,0c-2.6,2.7-5.3,4.1-7.8,4.1c-2.6,0-5.2-1.5-7.7-4.3
	c-5.8-6.3-11.9-6.4-17.9-0.2l0,0c-2.7,2.8-5.3,4.1-7.9,4.1c-2.6,0-5.2-1.5-7.7-4.3c-5.8-6.3-11.9-6.4-17.9-0.2l1.1,1.1
	c2.7-2.8,5.3-4.1,7.9-4.1c2.6,0,5.2,1.5,7.7,4.3c2.9,3.2,5.9,4.8,8.9,4.8c3,0,6-1.5,9-4.6l0,0c2.7-2.8,5.3-4.1,7.9-4.1
	c2.6,0,5.2,1.5,7.7,4.3c2.9,3.2,5.9,4.8,8.9,4.8c3,0,6-1.5,9-4.6l0,0c2.6-2.7,5.3-4.1,7.8-4c2.6,0,5.2,1.5,7.7,4.3
	c2.9,3.2,5.9,4.8,8.9,4.8c3,0,6-1.5,9-4.6l0,0c2.7-2.8,5.3-4.1,7.9-4.1c2.6,0,5.2,1.5,7.7,4.3c2.9,3.2,5.9,4.8,8.9,4.8
	c3,0,6-1.5,9-4.6l0,0c2.7-2.8,5.3-4.1,7.9-4.1c2.6,0,5.2,1.5,7.7,4.3c2.9,3.2,5.9,4.8,8.9,4.8c3,0,6-1.5,9-4.6l0,0
	c2.7-2.8,5.3-4.1,7.9-4.1c2.6,0,5.2,1.5,7.7,4.3c2.9,3.2,5.9,4.8,8.9,4.8c3,0,6-1.5,9-4.6l0,0c2.6-2.7,5.3-4.1,7.8-4
	c2.6,0,5.2,1.5,7.7,4.3c2.9,3.2,5.9,4.8,8.9,4.8c3,0,6-1.5,9-4.6l0,0c2.7-2.8,5.3-4.1,7.9-4.1c2.6,0,5.2,1.5,7.7,4.3
	c2.9,3.2,5.9,4.8,8.9,4.8c3,0,6-1.5,9-4.6l0,0c2.6-2.7,5.3-4.1,7.8-4.1c2.6,0,5.2,1.5,7.7,4.3c2.9,3.2,5.9,4.8,8.9,4.8
	c3,0,6-1.5,9-4.6l0,0c2.7-2.8,5.3-4.1,7.9-4.1c2.6,0,5.2,1.5,7.7,4.3c2.9,3.2,5.9,4.8,8.9,4.8c3,0,6-1.5,9-4.6l0,0
	c2.6-2.7,5.3-4.1,7.8-4c2.6,0,5.2,1.5,7.7,4.3c2.9,3.2,5.9,4.8,8.9,4.8c3,0,6-1.5,9-4.6l0,0c2.7-2.8,5.3-4.1,7.9-4.1
	c2.6,0,5.2,1.5,7.7,4.3c2.9,3.2,5.9,4.8,8.9,4.8c3,0,6-1.5,9-4.6l0,0c2.7-2.8,5.3-4.1,7.9-4.1c2.6,0,5.2,1.5,7.7,4.3
	c2.9,3.2,5.9,4.8,8.9,4.8c3,0,6-1.5,9-4.6l0,0c2.7-2.8,5.3-4.1,7.9-4.1c2.6,0,5.2,1.5,7.7,4.3c2.9,3.2,5.9,4.8,8.9,4.8
	c3,0,6-1.5,9-4.6l0,0c2.6-2.7,5.3-4.1,7.8-4c2.6,0,5.2,1.5,7.7,4.3c2.9,3.2,5.9,4.8,8.9,4.8c3,0,6-1.5,9-4.6l0,0
	c2.7-2.8,5.3-4.1,7.9-4.1c2.6,0,5.2,1.5,7.7,4.3c2.9,3.2,5.9,4.8,8.9,4.8c3,0,6-1.5,9-4.6L-378.1-1336.1z"/>
<path fill="#005EC7" d="M29.4,5.9c-0.1-0.2-0.3-0.2-0.5-0.2c-0.1,0-0.3,0-0.5,0.1c-0.2,0-0.4,0.1-0.7,0.2c0.1-0.2,0.2-0.4,0.2-0.7
	c0.1-0.4,0.2-0.8,0.3-1.2c0.1-0.2,0-0.4-0.2-0.6c-0.2-0.1-0.4-0.2-0.6,0c-0.9,0.5-1.6,0.8-2.1,1c-0.5,0.2-0.9,0.3-1.4,0.3
	c-0.6-0.5-1.2-0.9-1.8-1.2c-0.7-0.3-1.5-0.5-2.4-0.5c-1,0-2,0.2-3,0.6c-0.5,0.2-0.9,0.5-1.3,0.9c-0.6,0.5-1.1,1.2-1.5,2
	c-0.4,0.8-0.6,1.6-0.6,2.5c0,0.1,0,0.2,0,0.3c0,0,0,0,0,0c-1-0.3-2.6-0.8-4.2-1.5C8.5,7.6,7.6,7,6.7,6.2C5.8,5.5,5,4.6,4.3,3.6
	C4.2,3.5,4.1,3.4,3.9,3.4c-0.2,0-0.3,0-0.5,0.2C3.2,3.8,3,4.1,2.8,4.3C2.5,4.7,2.2,5.1,2.1,5.5C1.9,5.9,1.9,6.3,1.8,6.8
	c0,0.3-0.1,0.7-0.1,1.1c0,0.8,0.1,1.7,0.5,2.5c-0.3,0-0.5,0.3-0.5,0.5c0,0.2,0,0.4,0,0.6c0,1.9,0.6,3.4,1.5,4.4
	c0.1,0.1,0.2,0.2,0.3,0.3c0,0,0,0,0,0c0,0,0,0.1,0,0.1c0,0.7,0.2,1.4,0.5,2c0.5,0.9,1.2,1.6,2.1,2.1c0.3,0.2,0.6,0.4,1,0.5
	c-1.4,0.5-2.6,0.6-3.6,0.6c-0.4,0-0.8,0-1.2,0c-0.4,0-0.7,0-1,0c-0.1,0-0.1,0-0.2,0c-0.2,0-0.3,0.1-0.4,0.2
	c-0.1,0.1-0.1,0.3-0.1,0.5c0.2,0.7,0.6,1.3,1.1,1.9c0.9,0.8,2.1,1.5,3.5,2c1.5,0.5,3.2,0.8,5,0.8c2.7,0,5.6-0.6,8.4-2.1
	c2.6-1.4,4.7-3.7,6-6.2c0.4-0.9,0.9-2,1.3-3.2c0.4-1.2,0.7-2.5,0.7-3.7c0-0.4,0-0.8-0.1-1.2c0.3-0.2,0.6-0.5,0.9-0.7
	c0.5-0.5,0.9-0.9,1.3-1.5c0.3-0.5,0.6-1.1,0.9-1.8C29.5,6.3,29.5,6.1,29.4,5.9"/>
</svg>
