<svg xmlns="http://www.w3.org/2000/svg" viewBox="0 0 300 300"><path fill="#FF7361" d="M45.8 53c3.9 0 7-3.1 7-7s-3.1-7-7-7-7 3.1-7 7c0 3.8 3.1 7 7 7"/><path fill="#005EC7" d="M195.9 24.2l1.3-1.4c.8.1 1.9-.1 2.6-.8 1.1-1.1 1.1-2.9 0-4s-2.9-1.1-4 0c-.7.7-.9 1.7-.7 2.6l-1.3 1.4-2.9-2.8L162.7 48l8 7.9L198.8 27l-2.9-2.8z"/><path fill="#FF7361" d="M157 140.8l-3.5 1.9.9 1.7c.9.1 1.7.6 2.2 1.5.7 1.4.2 3.1-1.2 3.8-1.4.7-3 .2-3.7-1.2-.5-.9-.3-1.9.1-2.7l-.9-1.7-3.7 1.9c-9.5-18.2-32.3-25.6-50.5-16 0 0 0 .1-.1.1l-5.2-10s0-.1.1-.1c23.6-12.4 52.8-3.4 65.5 20.8"/><path fill="#FFF" d="M178.2 214.6l3.3 2.5 1.2-1.6c-.2-.8-.2-1.9.4-2.7 1-1.3 2.7-1.5 4-.6 1.3 1 1.5 2.8.6 4-.6.8-1.6 1.2-2.5 1.1l-1.2 1.6 3.1 2.4c-3.7 4.9-2.7 11.8 2.2 15.4l-6.8 9c-9.7-7.3-11.6-21.2-4.3-31.1m70.7-40.8c3.9 0 7-3.1 7-7s-3.1-7-7-7-7 3.1-7 7 3.2 7 7 7"/><path fill="#005EC7" d="M91.3 256.2c3.9 0 7-3.1 7-7s-3.1-7-7-7-7 3.1-7 7c0 3.8 3.2 7 7 7"/><path fill="#FF7361" d="M264.5 284c3.9 0 7-3.1 7-7s-3.1-7-7-7-7 3.1-7 7c0 3.8 3.2 7 7 7"/><path fill="#FFF" d="M33.5 200.7l.3 1.9c-.6.6-1.1 1.6-.9 2.5.2 1.5 1.7 2.6 3.2 2.3 1.5-.2 2.6-1.7 2.4-3.2-.2-1-.9-1.7-1.6-2.1l-.3-1.9 4-.7-6.3-39.8-11.1 1.7 6.4 39.9 3.9-.6z"/><path fill="#FF7361" d="M265.8 74.3l.1 4.2h1.9c.5-.7 1.4-1.4 2.4-1.4 1.6 0 2.9 1.2 2.9 2.8 0 1.6-1.2 2.9-2.8 3-1 0-1.9-.5-2.4-1.2h-2l.1 3.9c-6.1.1-10.9 5.2-10.8 11.3l-11.2.3c-.2-12.4 9.6-22.6 21.8-22.9"/></svg>