<?xml version="1.0" encoding="utf-8"?>
<!-- Generator: Adobe Illustrator 18.1.1, SVG Export Plug-In . SVG Version: 6.00 Build 0)  -->
<svg version="1.1" id="Layer_1" xmlns="http://www.w3.org/2000/svg" xmlns:xlink="http://www.w3.org/1999/xlink" x="0px" y="0px"
	 viewBox="0 0 70 70" enable-background="new 0 0 70 70" xml:space="preserve">
<g>
	<defs>
		<rect id="SVGID_1_" x="3.8" y="4" width="62" height="62"/>
	</defs>
	<clipPath id="SVGID_2_">
		<use xlink:href="#SVGID_1_"  overflow="visible"/>
	</clipPath>
	<path clip-path="url(#SVGID_2_)" fill="#FDFFF3" d="M51.9,29.5h-1.3v2.4h1.3V29.5z M36.2,13.1h1.3v-2.4h-1.3V13.1z M37.5,14.3h-1.3
		v10.5h1.3V14.3z M50.6,43.5h1.3V33h-1.3V43.5z M42.9,37.8h4.3v-4.3h-4.3V37.8z M42.3,33.5H38v4.3h4.4V33.5z M42.9,42.8h4.4v-4.4
		h-4.4V42.8z M42.3,42.8v-4.4c-1.4,0-2.7,0-4.1,0c-0.3,0-0.3,0.2-0.3,0.4c0,1,0,1.9,0,2.9v1.1H42.3z M49.7,24.8H51v-14h-1.3V24.8z
		 M40.1,14.2v10.5h1.3v-0.6c0-2.3,0-4.5,0-6.8c0-0.2,0.1-0.5,0.2-0.6c0.7-0.5,1.4-1,2.2-1.2c1.3-0.5,2.5-0.4,3.5,0.8
		c0,0,0.1,0,0.1,0.1c0.2-0.2,0.4-0.4,0.6-0.7c0.1-0.1,0.2-0.2,0.3-0.4c-2.3-2.2-4.6-1.4-7-0.1v-1.1H40.1z M21.2,49.9h5.3v12.4h1.4
		V49.9H33v-1.3H21.2V49.9z M53.1,54c-0.1-0.1-0.1-0.2-0.2-0.3c-1.5-1.9-3.5-2.5-5.9-2.1c-2,0.4-3.6,1.4-4.3,3.4c-0.7,2-0.5,4,1,5.7
		c1.8,2.2,6.7,2.6,8.8,0.1c0.3-0.4,0.6-0.7,0.9-1.1c-0.5-0.2-0.8-0.4-1.2-0.6c-0.6,1-1.4,1.8-2.6,2c-0.8,0.1-1.7,0.2-2.6,0
		c-1.5-0.2-2.6-1.1-3.1-2.6c-0.5-1.6-0.3-3,0.9-4.3c1.5-1.7,5.3-2,6.9,0.2c0.1,0.1,0.2,0.2,0.3,0.3C52.4,54.5,52.7,54.2,53.1,54
		 M54.5,33v10.5h1.3v-0.6c0-2.2,0-4.4,0-6.7c0-0.2,0.1-0.4,0.2-0.5c1.1-0.9,2.4-1.5,3.8-1.6c1.7-0.2,3.2,0.3,3.1,2.6
		c-0.1,2.1,0,4.2,0,6.2c0,0.2,0,0.4,0,0.5h1.3c0-0.1,0.1-0.1,0.1-0.2c0-2.5,0-5.1,0-7.6c0-1.4-1-2.5-2.4-2.9c-1.9-0.4-3.6,0-5.3,0.9
		c-0.2,0.1-0.4,0.3-0.7,0.4V33H54.5z M64.4,62.3c0-0.1,0-0.2,0-0.2c0-2.5,0-5,0-7.4c0-1.5-1.1-2.7-2.6-3c-1.7-0.3-3.3,0.1-4.9,0.9
		c-0.3,0.1-0.5,0.3-0.9,0.5v-4.8h-1.3v14H56v-0.6c0-2.2,0-4.4,0-6.7c0-0.2,0.1-0.4,0.2-0.5c1.3-1,2.7-1.7,4.3-1.7
		c1.6,0,2.5,0.6,2.5,2.5c-0.1,2.1,0,4.3,0,6.5c0,0.2,0,0.4,0,0.5H64.4z M63.5,16.1c-0.6-0.8-1.3-1.4-2.2-1.7c-1.3-0.5-2.7-0.5-4-0.3
		c-0.8,0.1-1.7,0.3-2.5,0.7c-1.6,0.8-1.7,2.8-0.3,3.8c0.4,0.3,0.8,0.5,1.2,0.6c0.9,0.2,1.9,0.3,2.8,0.5c0.9,0.2,1.9,0.4,2.8,0.6
		c0.6,0.2,1,0.6,1.1,1.3c0,0.6-0.3,1.1-0.9,1.4c-0.3,0.2-0.6,0.3-0.9,0.4c-1.2,0.4-2.5,0.4-3.7,0.2c-1.1-0.2-2.1-0.7-3-1.5
		c-0.3,0.3-0.6,0.6-1,1c0.8,0.8,1.7,1.4,2.8,1.7c1.3,0.3,2.6,0.4,3.9,0.3c1.2-0.1,2.3-0.5,3.2-1.4c1.3-1.2,1.1-3.2-0.4-4.2
		c-0.5-0.3-1.2-0.5-1.8-0.7c-1.5-0.3-3.1-0.6-4.6-0.9c-0.8-0.2-1.3-0.6-1.3-1.2c0-0.5,0.4-1,1.3-1.2c2.3-0.4,4.5-0.7,6.3,1.4
		C62.9,16.7,63.2,16.4,63.5,16.1 M41.1,57.5c0-0.4,0-0.7-0.1-1.1c-0.3-3-2.6-4.9-5.6-4.9c-2.3,0-5.2,1.6-5.4,5.1
		c-0.2,3.2,1.9,5.7,5.1,5.9c1.7,0.1,3.2-0.3,4.8-0.7c1.1-0.3,1.1-0.3,0.9-1.5c0,0,0,0-0.1-0.1c-0.1,0-0.2,0.1-0.3,0.1
		c-1.3,0.3-2.6,0.6-3.9,0.9c-1.3,0.2-2.5,0.1-3.6-0.7c-1-0.7-1.5-1.7-1.6-3H41.1z M34.7,13.9c-1.5-2.2-3.4-3.2-6-3.1
		c-3.8,0.2-6.7,2.8-7,6.5c-0.3,3.5,1.7,6.5,5.1,7.5c2.6,0.7,5.1,0.3,7.5-1.2c0.2-0.1,0.3-0.4,0.3-0.6c0-1.4,0-2.9,0-4.3
		c0-0.1,0-0.3,0-0.4h-6.6c0,0.2,0,0.5,0,0.7c-0.1,0.5,0.1,0.7,0.6,0.7c1.3,0,2.7,0,4,0c0.2,0,0.4,0,0.6,0c0,1,0,1.9,0,2.8
		c0,0.2-0.2,0.4-0.3,0.4c-1.4,0.7-2.8,1-4.3,0.9c-2.3-0.2-4.1-1.3-5-3.5C23,19.3,23,18.4,23,17.4c0.1-2.4,1.6-4.3,3.9-5
		c2.5-0.7,4.7-0.4,6.3,1.9c0.1,0.1,0.1,0.2,0.2,0.3C33.9,14.3,34.3,14.1,34.7,13.9 M3.8,4h62v62h-62V4z"/>
</g>
<g>
	<defs>
		<rect id="SVGID_3_" x="-27.2" y="5.4" width="62" height="62"/>
	</defs>
	<clipPath id="SVGID_4_">
		<use xlink:href="#SVGID_3_"  overflow="visible"/>
	</clipPath>
</g>
<g>
	<defs>
		<rect id="SVGID_5_" x="-27.2" y="5.4" width="62" height="62"/>
	</defs>
	<clipPath id="SVGID_6_">
		<use xlink:href="#SVGID_5_"  overflow="visible"/>
	</clipPath>
</g>
<g>
	<defs>
		<rect id="SVGID_7_" x="-27.2" y="5.4" width="62" height="62"/>
	</defs>
	<clipPath id="SVGID_8_">
		<use xlink:href="#SVGID_7_"  overflow="visible"/>
	</clipPath>
	<path clip-path="url(#SVGID_8_)" fill="#FDFFF3" d="M8.6,57.6h-8c0.2-1.9,2-3.4,4.2-3.3C6.7,54.3,8.4,55.8,8.6,57.6"/>
</g>
</svg>
