<?xml version="1.0" encoding="UTF-8" standalone="no"?>
<svg width="30px" height="30px" viewBox="0 0 30 30" version="1.1" xmlns="http://www.w3.org/2000/svg" xmlns:xlink="http://www.w3.org/1999/xlink" xmlns:sketch="http://www.bohemiancoding.com/sketch/ns">
    <!-- Generator: Sketch 3.3.3 (12072) - http://www.bohemiancoding.com/sketch -->
    <title>Shape</title>
    <desc>Created with Sketch.</desc>
    <defs></defs>
    <g id="Page-1" stroke="none" stroke-width="1" fill="none" fill-rule="evenodd" sketch:type="MSPage">
        <g id="speaker-twitter" sketch:type="MSLayerGroup" fill="#FFFFFF">
            <path d="M15,29.5 C7,29.5 0.5,23 0.5,15 C0.5,7 7,0.5 15,0.5 C23,0.5 29.5,7 29.5,15 C29.5,23 23,29.5 15,29.5 Z M17.8,14.1 C17.6,13.7 17.4,13.3 17,13 C16.7,12.7 16.3,12.4 15.9,12.2 L15.4,12.7 L15,13.1 L14.6,13.5 L14.4,13.7 C14.9,13.7 15.3,13.9 15.7,14.3 C16.1,14.7 16.2,15.1 16.3,15.6 C16.3,15.9 16.3,16.1 16.2,16.4 C16.1,16.7 16,16.9 15.7,17.2 L15.3,17.6 L14.8,18 L14.3,18.5 L12.9,19.9 C12.5,20.3 12,20.5 11.5,20.5 C11,20.5 10.5,20.3 10.1,19.9 C9.7,19.5 9.5,19 9.5,18.5 C9.5,18 9.7,17.5 10.1,17.1 L11.5,15.7 C11.4,15.5 11.4,15.2 11.3,14.9 L11.3,14.3 C11.3,13.9 11.3,13.6 11.4,13.3 L8.9,15.8 C7.4,17.3 7.4,19.6 8.9,21.1 C9.6,21.8 10.6,22.2 11.5,22.2 C12.5,22.2 13.4,21.8 14.1,21.1 L16.6,18.6 L17,18.2 C17.2,18 17.4,17.7 17.5,17.5 C17.7,17.1 17.9,16.7 18,16.3 C18,16.1 18.1,15.8 18.1,15.6 C18.1,15.3 18.1,15 18,14.8 C18,14.6 17.9,14.3 17.8,14.1 Z M21.2,8.8 C20.5,8.1 19.5,7.7 18.6,7.7 C17.6,7.7 16.7,8.1 16,8.8 L13.5,11.3 L13,11.7 C12.8,11.9 12.6,12.2 12.5,12.4 C12.3,12.8 12.1,13.2 12,13.6 C12,13.8 11.9,14.1 11.9,14.3 C11.9,14.6 11.9,14.9 12,15.1 C12.1,15.3 12.1,15.6 12.2,15.8 C12.4,16.2 12.6,16.6 13,16.9 C13.3,17.2 13.7,17.5 14.1,17.7 L14.6,17.2 L14.9,16.9 L15.3,16.5 C15.4,16.4 15.4,16.4 15.5,16.3 C15,16.3 14.6,16.1 14.2,15.7 C13.8,15.3 13.7,14.9 13.6,14.4 C13.6,14.1 13.6,13.9 13.7,13.6 C13.8,13.3 13.9,13.1 14.2,12.8 L14.6,12.4 L15.2,11.8 L15.7,11.3 L17.1,9.9 C17.5,9.5 18,9.3 18.5,9.3 C19,9.3 19.5,9.5 19.9,9.9 C20.7,10.7 20.7,11.9 19.9,12.7 L18.5,14.1 C18.6,14.3 18.6,14.6 18.7,14.9 L18.7,15.5 C18.7,15.9 18.7,16.2 18.6,16.5 L21.1,14 C22.6,12.7 22.6,10.3 21.2,8.8 Z" id="Shape" sketch:type="MSShapeGroup"></path>
        </g>
    </g>
</svg>
