<svg width="30" height="30" viewBox="0 0 30 30" xmlns="http://www.w3.org/2000/svg"><title>Shape</title><path d="M15 29.5C7 29.5.5 23 .5 15S7 .5 15 .5 29.5 7 29.5 15 23 29.5 15 29.5zm2.8-15.4c-.2-.4-.4-.8-.8-1.1-.3-.3-.7-.6-1.1-.8l-.5.5-.4.4-.4.4-.2.2c.5 0 .9.2 1.3.6.4.4.5.8.6 1.3 0 .3 0 .5-.1.8-.1.3-.2.5-.5.8l-.4.4-.5.4-.5.5-1.4 1.4c-.4.4-.9.6-1.4.6-.5 0-1-.2-1.4-.6-.4-.4-.6-.9-.6-1.4 0-.5.2-1 .6-1.4l1.4-1.4c-.1-.2-.1-.5-.2-.8v-.6c0-.4 0-.7.1-1l-2.5 2.5c-1.5 1.5-1.5 3.8 0 5.3.7.7 1.7 1.1 2.6 1.1 1 0 1.9-.4 2.6-1.1l2.5-2.5.4-.4c.2-.2.4-.5.5-.7.2-.4.4-.8.5-1.2 0-.2.1-.5.1-.7 0-.3 0-.6-.1-.8 0-.2-.1-.5-.2-.7zm3.4-5.3c-.7-.7-1.7-1.1-2.6-1.1-1 0-1.9.4-2.6 1.1l-2.5 2.5-.5.4c-.2.2-.4.5-.5.7-.2.4-.4.8-.5 1.2 0 .2-.1.5-.1.7 0 .3 0 .6.1.8.1.2.1.5.2.7.2.4.4.8.8 1.1.3.3.7.6 1.1.8l.5-.5.3-.3.4-.4.2-.2c-.5 0-.9-.2-1.3-.6-.4-.4-.5-.8-.6-1.3 0-.3 0-.5.1-.8.1-.3.2-.5.5-.8l.4-.4.6-.6.5-.5 1.4-1.4c.4-.4.9-.6 1.4-.6.5 0 1 .2 1.4.6.8.8.8 2 0 2.8l-1.4 1.4c.1.2.1.5.2.8v.6c0 .4 0 .7-.1 1l2.5-2.5c1.5-1.3 1.5-3.7.1-5.2z" fill="#FFF" fill-rule="evenodd"/></svg>