<svg width="30" height="30" viewBox="0 0 30 30" xmlns="http://www.w3.org/2000/svg"><title>Shape</title><path d="M15 29.1C7.2 29.1.9 22.8.9 15S7.2.9 15 .9 29.1 7.2 29.1 15 22.8 29.1 15 29.1zm7.1-18.6c-.1-.1-.2-.1-.3-.1h-.2c-.1 0-.2 0-.3.1 0-.1.1-.2.1-.3.1-.2.1-.4.2-.6 0-.1 0-.2-.1-.3-.1-.1-.2-.1-.3 0-.4.2-.8.4-1.1.5-.2.1-.4.1-.7.2-.3-.3-.6-.5-.9-.6-.4-.2-.8-.2-1.2-.2-.5 0-1 .1-1.5.3-.2.1-.5.2-.6.4-.3.3-.5.6-.7 1-.2.4-.3.8-.3 1.2v.1c-.5-.1-1.3-.4-2.1-.8-.3-.1-.8-.4-1.2-.8-.4-.4-.9-.8-1.2-1.3 0-.1-.1-.1-.2-.1s-.2 0-.2.1c-.1.2-.2.3-.3.4-.1.2-.3.4-.3.6-.1.2-.1.4-.1.7v.5c0 .4.1.8.2 1.2-.1 0-.2.1-.2.3v.3c0 .9.3 1.7.8 2.2l.1.1v.1c0 .3.1.7.2 1 .2.4.6.8 1 1 .2.1.3.2.5.2-.7.2-1.3.3-1.8.3H8.2c-.1 0-.2 0-.2.1-.1.1-.1.2 0 .2.1.3.3.6.6.9.4.4 1 .7 1.7 1 .7.2 1.6.4 2.5.4 1.3 0 2.8-.3 4.1-1.1 1.3-.7 2.3-1.8 2.9-3.1.2-.4.5-1 .6-1.6.2-.6.3-1.2.3-1.8 0-.2 0-.4-.1-.6.2-.1.3-.2.4-.3.3-.2.5-.5.6-.7.2-.3.3-.5.4-.9.1 0 .1-.1.1-.2z" fill="#FFF" fill-rule="evenodd"/></svg>