<?xml version="1.0" encoding="UTF-8" standalone="no"?>
<svg width="30px" height="30px" viewBox="0 0 30 30" version="1.1" xmlns="http://www.w3.org/2000/svg" xmlns:xlink="http://www.w3.org/1999/xlink" xmlns:sketch="http://www.bohemiancoding.com/sketch/ns">
    <!-- Generator: Sketch 3.3.3 (12072) - http://www.bohemiancoding.com/sketch -->
    <title>Shape</title>
    <desc>Created with Sketch.</desc>
    <defs></defs>
    <g id="Page-1" stroke="none" stroke-width="1" fill="none" fill-rule="evenodd" sketch:type="MSPage">
        <g id="twitter" sketch:type="MSLayerGroup" transform="translate(-30.000000, -22.000000)" fill="#FFFFFF">
            <g id="Group" sketch:type="MSShapeGroup">
                <path d="M45,51.1 C37.2,51.1 30.9,44.8 30.9,37 C30.9,29.2 37.2,22.9 45,22.9 C52.8,22.9 59.1,29.2 59.1,37 C59.1,44.8 52.8,51.1 45,51.1 Z M52.1,32.5 C52,32.4 51.9,32.4 51.8,32.4 L51.6,32.4 C51.5,32.4 51.4,32.4 51.3,32.5 C51.3,32.4 51.4,32.3 51.4,32.2 C51.5,32 51.5,31.8 51.6,31.6 C51.6,31.5 51.6,31.4 51.5,31.3 C51.4,31.2 51.3,31.2 51.2,31.3 C50.8,31.5 50.4,31.7 50.1,31.8 C49.9,31.9 49.7,31.9 49.4,32 C49.1,31.7 48.8,31.5 48.5,31.4 C48.1,31.2 47.7,31.2 47.3,31.2 C46.8,31.2 46.3,31.3 45.8,31.5 C45.6,31.6 45.3,31.7 45.2,31.9 C44.9,32.2 44.7,32.5 44.5,32.9 C44.3,33.3 44.2,33.7 44.2,34.1 L44.2,34.2 C43.7,34.1 42.9,33.8 42.1,33.4 C41.8,33.3 41.3,33 40.9,32.6 C40.5,32.2 40,31.8 39.7,31.3 C39.7,31.2 39.6,31.2 39.5,31.2 C39.4,31.2 39.3,31.2 39.3,31.3 C39.2,31.5 39.1,31.6 39,31.7 C38.9,31.9 38.7,32.1 38.7,32.3 C38.6,32.5 38.6,32.7 38.6,33 L38.6,33.5 C38.6,33.9 38.7,34.3 38.8,34.7 C38.7,34.7 38.6,34.8 38.6,35 L38.6,35.3 C38.6,36.2 38.9,37 39.4,37.5 L39.5,37.6 C39.5,37.6 39.5,37.6 39.5,37.7 C39.5,38 39.6,38.4 39.7,38.7 C39.9,39.1 40.3,39.5 40.7,39.7 C40.9,39.8 41,39.9 41.2,39.9 C40.5,40.1 39.9,40.2 39.4,40.2 L38.8,40.2 L38.3,40.2 L38.2,40.2 C38.1,40.2 38,40.2 38,40.3 C37.9,40.4 37.9,40.5 38,40.5 C38.1,40.8 38.3,41.1 38.6,41.4 C39,41.8 39.6,42.1 40.3,42.4 C41,42.6 41.9,42.8 42.8,42.8 C44.1,42.8 45.6,42.5 46.9,41.7 C48.2,41 49.2,39.9 49.8,38.6 C50,38.2 50.3,37.6 50.4,37 C50.6,36.4 50.7,35.8 50.7,35.2 C50.7,35 50.7,34.8 50.6,34.6 C50.8,34.5 50.9,34.4 51,34.3 C51.3,34.1 51.5,33.8 51.6,33.6 C51.8,33.3 51.9,33.1 52,32.7 C52.1,32.7 52.1,32.6 52.1,32.5 Z" id="Shape"></path>
            </g>
        </g>
    </g>
</svg>
