<svg width="30" height="30" viewBox="0 0 30 30" xmlns="http://www.w3.org/2000/svg"><title>Shape</title><path d="M29.2 11.4C27.5 4.9 21.6.5 15 .5h-.4c-.8 0-1.6.1-2.5.3-.5.1-.9.2-1.3.3C4.9 2.8.7 8 .4 14.3c-.2 5.4 2 9.7 6.4 12.8 1.1.8 2.2 1.3 3.5 1.7.1 0 .3.1.4.1.4 0 .7-.2.7-.6v-2.7c-.7 0-1.4.1-2 .1-1.4-.1-2.5-.7-3-2.1-.3-.8-.8-1.5-1.6-2-.1-.1-.3-.2-.4-.3-.2-.2-.1-.4.1-.4s.5-.1.7 0c.9.2 1.5.8 2 1.5 1 1.6 2.5 1.8 4 1.2.1 0 .2-.1.2-.2.1-.7.4-1.3.9-1.8-.6-.1-1.2-.2-1.8-.4-2.1-.5-3.6-1.7-4.3-3.8-.2-.5-.3-1.1-.4-1.6-.3-1.9 0-3.7 1.3-5.2.1-.1.1-.2.1-.3-.3-1-.3-2.1 0-3.1.1-.8.1-.8.8-.7 1.1.2 2.1.7 3.1 1.3.1.1.3.1.5.1 2.3-.6 4.5-.6 6.8 0 .2 0 .4 0 .5-.1.5-.3 1-.6 1.5-.8.6-.3 1.3-.5 2-.5.2 0 .3.1.4.3.4 1.1.5 2.2.1 3.4-.1.2 0 .3.1.5.5.6.9 1.4 1.1 2.2.4 1.8.2 3.7-.6 5.4-.8 1.7-2.3 2.5-4 3-.6.1-1.2.2-1.8.4.8.8 1 1.9.9 2.9v3.6c0 .6.3.9.7.9.1 0 .3 0 .4-.1 7.2-2.6 11.4-10.3 9.5-17.6z" fill="#FFF" fill-rule="evenodd"/></svg>