<?xml version="1.0" encoding="utf-8"?>
<!-- Generator: Adobe Illustrator 18.1.1, SVG Export Plug-In . SVG Version: 6.00 Build 0)  -->
<svg version="1.1" id="Layer_1" xmlns="http://www.w3.org/2000/svg" xmlns:xlink="http://www.w3.org/1999/xlink" x="0px" y="0px"
	 viewBox="-122.5 -80 325 200" enable-background="new -122.5 -80 325 200" xml:space="preserve">
<g>
	<rect x="-122.5" y="-80" fill="#FFE3A0" width="325" height="200"/>
</g>
<path fill="#FFC740" d="M36.1,54.5c0-0.1-0.1-0.3-0.2-0.4c-0.2-0.1-7.2-1.4-9.9-1.9c-0.8-0.1-1.5-0.2-2.1-0.5
	c-0.3-0.1-0.1-1.1,0.3-1.1c0.1,0,7.6,1.4,11.2,2.2c0.3,0,0.7,0.2,0.9,0.1c0.1,0,0.3-0.2,0.3-0.3c0-0.1-0.1-0.3-0.2-0.4
	c-0.2-0.1-8.4-1.7-11.9-2.5c-0.5-0.1-0.3-1.2,0.2-1.1c3.6,0.8,11.9,2.4,12.1,2.4c0.1,0,0.3-0.2,0.3-0.3c0-0.1-0.1-0.3-0.2-0.4
	c-0.2-0.1-0.5-0.2-0.8-0.2c-1.2-0.2-9.6-2.1-11.3-2.5c-0.3,0-0.1-0.9,0.2-1c0.1,0,9.5,2,11.4,2.4c0,0,0.5,0.1,0.7,0.1
	c0.1,0,0.3-0.2,0.3-0.3c0-0.1-0.1-0.3-0.2-0.4c-0.2-0.1-7.5-2.2-10.6-3.3c-2.7-0.9-5.2-1.3-7.8,0.2c-0.3,0.1-0.5,0.3-0.8,0.2
	c-0.9,0.1-1.8,0.2-2.7,0.1c-1.1-0.2-2.2-0.6-3.2-0.8c-5-1.4-10-2.7-15.1-4.1c-1.9-0.5-3.4,0.2-3.8,1.8C-7,44.5-6,45.9-4,46.3
	c1.8,0.3,3.6,0.5,5.4,0.8c4,0.6,8,1.2,12.1,1.7c1.8,0.2,3.5,0.8,4.6,2.2c0.5,0.5,1,1.1,1.6,1.4c0.8,0.5,1.6,1.1,2.4,1.2
	c4.4,0.6,13.6,1.6,13.8,1.5C35.8,54.9,36,54.7,36.1,54.5"/>
<path fill="#FFC740" d="M1.4-0.2C-0.7,0.6-1.9,2.9-1,5.1c0.7,2.1,3.1,3.3,5.2,2.4c2.1-0.7,3.3-3.1,2.4-5.2C5.9,0.2,3.5-0.9,1.4-0.2"
	/>
<path fill="#FFC740" d="M-90.9-58.1c-0.1,0.1-0.2,0.3-0.2,0.4c0.1,0.2,3.9,6.3,5.4,8.6c0.4,0.7,0.8,1.2,1.1,1.9
	c0.2,0.2-0.7,0.8-1,0.5c0-0.1-4.2-6.5-6.1-9.7c-0.1-0.2-0.3-0.7-0.5-0.7c-0.1-0.1-0.3-0.1-0.4,0c-0.1,0.1-0.2,0.3-0.2,0.4
	c0.1,0.2,4.4,7.3,6.4,10.4c0.2,0.4-0.7,1-0.9,0.6c-2-3.2-6.4-10.3-6.5-10.4c-0.1-0.1-0.3-0.1-0.4,0c-0.1,0.1-0.2,0.3-0.2,0.4
	c0.1,0.2,0.2,0.6,0.4,0.7c0.6,1,5.1,8.5,5.9,9.9c0.2,0.2-0.7,0.7-0.9,0.5c-0.2-0.1-5-8.3-6-10c0,0-0.2-0.4-0.4-0.5
	c-0.1-0.1-0.3-0.1-0.4,0s-0.2,0.3-0.2,0.4c0.1,0.2,3.5,6.9,4.9,10c1.1,2.6,2.7,4.6,5.5,5.5c0.2,0.1,0.6,0.2,0.7,0.4
	c0.7,0.6,1.4,1.1,1.9,1.9c0.7,0.9,1.1,2,1.6,2.9c2.4,4.6,4.9,9.1,7.3,13.8c0.9,1.6,2.4,2.3,3.9,1.5c1.5-0.8,1.8-2.5,0.7-4.2
	c-1-1.5-2-2.9-3.1-4.4c-2.4-3.3-4.6-6.7-7-10c-1.1-1.5-1.8-3-1.6-4.9c0.1-0.7,0.2-1.5,0-2.1c-0.2-0.9-0.3-1.9-0.8-2.6
	c-2.5-3.6-8.2-11-8.3-11.2C-90.6-58.1-90.9-58.1-90.9-58.1"/>
<path fill="#FFC740" d="M67.8-13.7c1.6,0.7,3.6,0.4,5.9-0.7c2-1,3.8-1.2,5.1-0.7c1.4,0.5,2.5,1.9,3.4,3.9l0.8-0.3
	c-2-4.6-5.3-5.9-9.8-3.7c-2,1-3.8,1.2-5.1,0.7c-1.4-0.5-2.5-1.9-3.4-3.9l-0.8,0.3C64.9-15.9,66.2-14.4,67.8-13.7"/>
<path fill="#FFC740" d="M-87.5,81.8c-0.9-2.1-3.3-3-5.4-2.2c-2.1,0.9-3,3.3-2.2,5.4c0.9,2.1,3.3,3,5.4,2.2
	C-87.6,86.4-86.6,83.9-87.5,81.8"/>
<path fill="#FFC740" d="M-74.7,34.2c1.4,1.1,3.3,1.5,5.8,1.1c2.2-0.3,3.9-0.1,5.1,0.9c1.1,0.9,1.9,2.5,2.1,4.7l0.9-0.1
	c-0.5-5-3.3-7.2-8.2-6.4c-2.2,0.3-3.9,0.1-5.1-0.9c-1.1-0.9-1.9-2.5-2.1-4.7l-0.9,0.1C-76.9,31.3-76.1,33.1-74.7,34.2"/>
<path fill="#FFC740" d="M75.7,87c2,1.1,4.5,0.4,5.5-1.6c1.1-2,0.4-4.5-1.6-5.5c-2-1.1-4.5-0.4-5.5,1.6C73,83.4,73.7,85.9,75.7,87"/>
<path fill="#FFC740" d="M135.8-35.9c0,0.1,0.3,0.1,0.4,0c0.2-0.1,5.2-5.3,7-7.3c0.5-0.5,1-1.1,1.5-1.5c0.3-0.2,1,0.5,0.8,0.8
	c-0.1,0-5.4,5.5-8,8.2c-0.2,0.2-0.5,0.5-0.6,0.7c0,0.1,0,0.4,0.1,0.4c0,0.1,0.3,0.1,0.4,0c0.2-0.1,6.1-6,8.6-8.6
	c0.4-0.3,1.1,0.4,0.8,0.7c-2.7,2.7-8.5,8.6-8.6,8.7c0,0.1,0,0.4,0.1,0.4c0,0.1,0.3,0.1,0.4,0c0.2-0.1,0.4-0.4,0.7-0.5
	c0.8-0.8,7-6.9,8.3-8.1c0.2-0.2,0.8,0.4,0.7,0.7c0,0.1-6.9,6.8-8.2,8.2c0,0-0.4,0.3-0.4,0.6c0,0.1,0,0.4,0.1,0.4
	c0,0.1,0.3,0.1,0.4,0c0.2-0.1,5.9-5.1,8.5-7c2.2-1.7,4-3.7,4.1-6.7c0-0.3,0.1-0.5,0.2-0.8c0.4-0.7,0.8-1.6,1.4-2.3
	c0.7-0.8,1.7-1.5,2.4-2.3c3.9-3.5,7.7-6.9,11.6-10.3c1.4-1.3,1.6-2.9,0.5-4.1c-1.2-1.3-2.9-1.2-4.2,0.3c-1.2,1.3-2.4,2.7-3.6,4
	c-2.7,3.1-5.4,6.1-8.1,9.2c-1.2,1.4-2.5,2.5-4.4,2.7c-0.7,0.1-1.4,0.2-2.1,0.5c-0.8,0.4-1.7,0.8-2.3,1.4c-2.9,3.3-8.8,10.5-8.8,10.7
	C135.6-36.1,135.6-35.9,135.8-35.9"/>
<path fill="#FFC740" d="M163.7,103.6c-0.9-1.5-2.6-2.5-5.1-3c-2.2-0.4-3.7-1.3-4.5-2.6c-0.8-1.3-0.9-3-0.3-5.1l-0.9-0.2
	c-1.3,4.8,0.6,7.9,5.5,8.9c2.2,0.4,3.7,1.3,4.5,2.6c0.8,1.3,0.9,3,0.3,5.1l0.9,0.2C164.8,107.1,164.6,105,163.7,103.6"/>
<path fill="#FFC740" d="M65.3-58.5c0.2,2.3,2.2,3.9,4.4,3.8c2.3-0.2,3.9-2.2,3.8-4.4c-0.2-2.3-2.2-3.9-4.4-3.8
	C66.8-62.7,65.2-60.8,65.3-58.5"/>
<path fill="#FFC740" d="M-14.1,104.7c1.7-0.2,3.3-1.5,4.8-3.5c1.3-1.9,2.7-2.9,4.2-3.1c1.5-0.2,3.1,0.4,4.9,1.8l0.6-0.7
	c-3.9-3.1-7.5-2.6-10.4,1.5c-1.3,1.9-2.7,2.9-4.2,3.1c-1.5,0.2-3.1-0.4-4.9-1.8l-0.6,0.7C-17.7,104.3-15.8,105-14.1,104.7"/>
<path fill="#FFC740" d="M-8.1-43.5c0.5-1.7,0.1-3.7-1.1-5.8c-1.1-2-1.5-3.7-1.1-5.1c0.4-1.5,1.6-2.7,3.7-3.7l-0.4-0.8
	c-4.5,2.3-5.5,5.7-3,10c1.1,2,1.5,3.7,1.1,5.1c-0.4,1.5-1.6,2.7-3.7,3.7l0.4,0.8C-10-40.4-8.6-41.7-8.1-43.5"/>
<path fill="#FFC740" d="M121.5,19.5c2,1.1,4.5,0.4,5.5-1.6c1.1-2,0.4-4.5-1.6-5.5c-2-1.1-4.5-0.4-5.5,1.6
	C118.8,16,119.5,18.5,121.5,19.5"/>
<path fill="#FFC740" d="M170.1,32.5c1.7-0.2,3.3-1.5,4.8-3.5c1.3-1.9,2.7-2.9,4.2-3.1c1.5-0.2,3.1,0.4,4.9,1.8l0.6-0.7
	c-3.9-3.1-7.5-2.6-10.4,1.5c-1.3,1.9-2.7,2.9-4.2,3.1c-1.5,0.2-3.1-0.4-4.9-1.8l-0.6,0.7C166.5,32.1,168.4,32.7,170.1,32.5"/>
</svg>
