<?xml version="1.0" encoding="utf-8"?>
<!-- Generator: Adobe Illustrator 18.1.1, SVG Export Plug-In . SVG Version: 6.00 Build 0)  -->
<svg version="1.1" id="Layer_1" xmlns="http://www.w3.org/2000/svg" xmlns:xlink="http://www.w3.org/1999/xlink" x="0px" y="0px"
	 viewBox="0 0 300 209.9" enable-background="new 0 0 300 209.9" xml:space="preserve">
<g>
	<rect x="0" y="0" fill="#FFE3A0" width="300" height="209.9"/>
</g>
<path fill="#FFC740" d="M19,13.5c-0.8-2.2-3.3-3.4-5.5-2.6c-2.2,0.8-3.4,3.3-2.6,5.5c0.8,2.2,3.3,3.4,5.5,2.6
	C18.7,18.2,19.9,15.8,19,13.5"/>
<path fill="#FFC740" d="M19,43.5c-0.8-2.2-3.3-3.4-5.5-2.6c-2.2,0.8-3.4,3.3-2.6,5.5c0.8,2.2,3.3,3.4,5.5,2.6
	C18.7,48.2,19.9,45.7,19,43.5"/>
<path fill="#FFC740" d="M19,73.5c-0.8-2.2-3.3-3.4-5.5-2.6c-2.2,0.8-3.4,3.3-2.6,5.5c0.8,2.2,3.3,3.4,5.5,2.6
	C18.7,78.2,19.9,75.7,19,73.5"/>
<path fill="#FFC740" d="M19,103.5c-0.8-2.2-3.3-3.4-5.5-2.6c-2.2,0.8-3.4,3.3-2.6,5.5c0.8,2.2,3.3,3.4,5.5,2.6
	C18.7,108.2,19.9,105.7,19,103.5"/>
<path fill="#FFC740" d="M19,133.4c-0.8-2.2-3.3-3.4-5.5-2.6c-2.2,0.8-3.4,3.3-2.6,5.5c0.8,2.2,3.3,3.4,5.5,2.6
	C18.7,138.1,19.9,135.7,19,133.4"/>
<path fill="#FFC740" d="M19,163.4c-0.8-2.2-3.3-3.4-5.5-2.6c-2.2,0.8-3.4,3.3-2.6,5.5c0.8,2.2,3.3,3.4,5.5,2.6
	C18.7,168.1,19.9,165.7,19,163.4"/>
<path fill="#FFC740" d="M19,193.4c-0.8-2.2-3.3-3.4-5.5-2.6c-2.2,0.8-3.4,3.3-2.6,5.5c0.8,2.2,3.3,3.4,5.5,2.6
	C18.7,198.1,19.9,195.6,19,193.4"/>
<path fill="#FFC740" d="M49,13.5c-0.8-2.2-3.3-3.4-5.5-2.6c-2.2,0.8-3.4,3.3-2.6,5.5c0.8,2.2,3.3,3.4,5.5,2.6
	C48.7,18.2,49.9,15.8,49,13.5"/>
<path fill="#FFC740" d="M49,43.5c-0.8-2.2-3.3-3.4-5.5-2.6c-2.2,0.8-3.4,3.3-2.6,5.5c0.8,2.2,3.3,3.4,5.5,2.6
	C48.7,48.2,49.9,45.7,49,43.5"/>
<path fill="#FFC740" d="M49,73.5c-0.8-2.2-3.3-3.4-5.5-2.6c-2.2,0.8-3.4,3.3-2.6,5.5c0.8,2.2,3.3,3.4,5.5,2.6
	C48.7,78.2,49.9,75.7,49,73.5"/>
<path fill="#FFC740" d="M49,103.5c-0.8-2.2-3.3-3.4-5.5-2.6c-2.2,0.8-3.4,3.3-2.6,5.5c0.8,2.2,3.3,3.4,5.5,2.6
	C48.7,108.2,49.9,105.7,49,103.5"/>
<path fill="#FFC740" d="M49,133.4c-0.8-2.2-3.3-3.4-5.5-2.6c-2.2,0.8-3.4,3.3-2.6,5.5c0.8,2.2,3.3,3.4,5.5,2.6
	C48.7,138.1,49.9,135.7,49,133.4"/>
<path fill="#FFC740" d="M49,163.4c-0.8-2.2-3.3-3.4-5.5-2.6c-2.2,0.8-3.4,3.3-2.6,5.5c0.8,2.2,3.3,3.4,5.5,2.6
	C48.7,168.1,49.9,165.7,49,163.4"/>
<path fill="#FFC740" d="M49,193.4c-0.8-2.2-3.3-3.4-5.5-2.6c-2.2,0.8-3.4,3.3-2.6,5.5c0.8,2.2,3.3,3.4,5.5,2.6
	C48.7,198.1,49.9,195.6,49,193.4"/>
<path fill="#FFC740" d="M79,13.5c-0.8-2.2-3.3-3.4-5.5-2.6c-2.2,0.8-3.4,3.3-2.6,5.5c0.8,2.2,3.3,3.4,5.5,2.6
	C78.7,18.2,79.9,15.8,79,13.5"/>
<path fill="#FFC740" d="M79,43.5c-0.8-2.2-3.3-3.4-5.5-2.6c-2.2,0.8-3.4,3.3-2.6,5.5c0.8,2.2,3.3,3.4,5.5,2.6
	C78.7,48.2,79.9,45.7,79,43.5"/>
<path fill="#FFC740" d="M79,73.5c-0.8-2.2-3.3-3.4-5.5-2.6c-2.2,0.8-3.4,3.3-2.6,5.5c0.8,2.2,3.3,3.4,5.5,2.6
	C78.7,78.2,79.9,75.7,79,73.5"/>
<path fill="#FFC740" d="M79,103.5c-0.8-2.2-3.3-3.4-5.5-2.6c-2.2,0.8-3.4,3.3-2.6,5.5c0.8,2.2,3.3,3.4,5.5,2.6
	C78.7,108.2,79.9,105.7,79,103.5"/>
<path fill="#FFC740" d="M79,133.4c-0.8-2.2-3.3-3.4-5.5-2.6c-2.2,0.8-3.4,3.3-2.6,5.5c0.8,2.2,3.3,3.4,5.5,2.6
	C78.7,138.1,79.9,135.7,79,133.4"/>
<path fill="#FFC740" d="M79,163.4c-0.8-2.2-3.3-3.4-5.5-2.6c-2.2,0.8-3.4,3.3-2.6,5.5c0.8,2.2,3.3,3.4,5.5,2.6
	C78.7,168.1,79.9,165.7,79,163.4"/>
<path fill="#FFC740" d="M79,193.4c-0.8-2.2-3.3-3.4-5.5-2.6c-2.2,0.8-3.4,3.3-2.6,5.5c0.8,2.2,3.3,3.4,5.5,2.6
	C78.7,198.1,79.9,195.6,79,193.4"/>
<path fill="#FFC740" d="M109,13.5c-0.8-2.2-3.3-3.4-5.5-2.6c-2.2,0.8-3.4,3.3-2.6,5.5c0.8,2.2,3.3,3.4,5.5,2.6
	C108.7,18.2,109.9,15.8,109,13.5"/>
<path fill="#FFC740" d="M109,43.5c-0.8-2.2-3.3-3.4-5.5-2.6c-2.2,0.8-3.4,3.3-2.6,5.5c0.8,2.2,3.3,3.4,5.5,2.6
	C108.7,48.2,109.9,45.7,109,43.5"/>
<path fill="#FFC740" d="M109,73.5c-0.8-2.2-3.3-3.4-5.5-2.6c-2.2,0.8-3.4,3.3-2.6,5.5c0.8,2.2,3.3,3.4,5.5,2.6
	C108.7,78.2,109.9,75.7,109,73.5"/>
<path fill="#FFC740" d="M109,103.5c-0.8-2.2-3.3-3.4-5.5-2.6c-2.2,0.8-3.4,3.3-2.6,5.5c0.8,2.2,3.3,3.4,5.5,2.6
	C108.7,108.2,109.9,105.7,109,103.5"/>
<path fill="#FFC740" d="M109,133.4c-0.8-2.2-3.3-3.4-5.5-2.6c-2.2,0.8-3.4,3.3-2.6,5.5c0.8,2.2,3.3,3.4,5.5,2.6
	C108.7,138.1,109.9,135.7,109,133.4"/>
<path fill="#FFC740" d="M109,163.4c-0.8-2.2-3.3-3.4-5.5-2.6c-2.2,0.8-3.4,3.3-2.6,5.5c0.8,2.2,3.3,3.4,5.5,2.6
	C108.7,168.1,109.9,165.7,109,163.4"/>
<path fill="#FFC740" d="M109,193.4c-0.8-2.2-3.3-3.4-5.5-2.6c-2.2,0.8-3.4,3.3-2.6,5.5c0.8,2.2,3.3,3.4,5.5,2.6
	C108.7,198.1,109.9,195.6,109,193.4"/>
<path fill="#FFC740" d="M169,13.5c-0.8-2.2-3.3-3.4-5.5-2.6c-2.2,0.8-3.4,3.3-2.6,5.5c0.8,2.2,3.3,3.4,5.5,2.6
	C168.7,18.2,169.9,15.8,169,13.5"/>
<path fill="#FFC740" d="M169,43.5c-0.8-2.2-3.3-3.4-5.5-2.6c-2.2,0.8-3.4,3.3-2.6,5.5c0.8,2.2,3.3,3.4,5.5,2.6
	C168.7,48.2,169.9,45.7,169,43.5"/>
<path fill="#FFC740" d="M169,73.5c-0.8-2.2-3.3-3.4-5.5-2.6c-2.2,0.8-3.4,3.3-2.6,5.5c0.8,2.2,3.3,3.4,5.5,2.6
	C168.7,78.2,169.9,75.7,169,73.5"/>
<path fill="#FFC740" d="M169,103.5c-0.8-2.2-3.3-3.4-5.5-2.6c-2.2,0.8-3.4,3.3-2.6,5.5c0.8,2.2,3.3,3.4,5.5,2.6
	C168.7,108.2,169.9,105.7,169,103.5"/>
<path fill="#FFC740" d="M169,133.4c-0.8-2.2-3.3-3.4-5.5-2.6c-2.2,0.8-3.4,3.3-2.6,5.5c0.8,2.2,3.3,3.4,5.5,2.6
	C168.7,138.1,169.9,135.7,169,133.4"/>
<path fill="#FFC740" d="M169,163.4c-0.8-2.2-3.3-3.4-5.5-2.6c-2.2,0.8-3.4,3.3-2.6,5.5c0.8,2.2,3.3,3.4,5.5,2.6
	C168.7,168.1,169.9,165.7,169,163.4"/>
<path fill="#FFC740" d="M169,193.4c-0.8-2.2-3.3-3.4-5.5-2.6c-2.2,0.8-3.4,3.3-2.6,5.5c0.8,2.2,3.3,3.4,5.5,2.6
	C168.7,198.1,169.9,195.6,169,193.4"/>
<path fill="#FFC740" d="M199,13.5c-0.8-2.2-3.3-3.4-5.5-2.6c-2.2,0.8-3.4,3.3-2.6,5.5c0.8,2.2,3.3,3.4,5.5,2.6
	C198.7,18.2,199.9,15.8,199,13.5"/>
<path fill="#FFC740" d="M199,43.5c-0.8-2.2-3.3-3.4-5.5-2.6c-2.2,0.8-3.4,3.3-2.6,5.5c0.8,2.2,3.3,3.4,5.5,2.6
	C198.7,48.2,199.9,45.7,199,43.5"/>
<path fill="#FFC740" d="M199,73.5c-0.8-2.2-3.3-3.4-5.5-2.6c-2.2,0.8-3.4,3.3-2.6,5.5c0.8,2.2,3.3,3.4,5.5,2.6
	C198.7,78.2,199.9,75.7,199,73.5"/>
<path fill="#FFC740" d="M199,103.5c-0.8-2.2-3.3-3.4-5.5-2.6c-2.2,0.8-3.4,3.3-2.6,5.5c0.8,2.2,3.3,3.4,5.5,2.6
	C198.7,108.2,199.9,105.7,199,103.5"/>
<path fill="#FFC740" d="M199,133.4c-0.8-2.2-3.3-3.4-5.5-2.6c-2.2,0.8-3.4,3.3-2.6,5.5c0.8,2.2,3.3,3.4,5.5,2.6
	C198.7,138.1,199.9,135.7,199,133.4"/>
<path fill="#FFC740" d="M199,163.4c-0.8-2.2-3.3-3.4-5.5-2.6c-2.2,0.8-3.4,3.3-2.6,5.5c0.8,2.2,3.3,3.4,5.5,2.6
	C198.7,168.1,199.9,165.7,199,163.4"/>
<path fill="#FFC740" d="M199,193.4c-0.8-2.2-3.3-3.4-5.5-2.6c-2.2,0.8-3.4,3.3-2.6,5.5c0.8,2.2,3.3,3.4,5.5,2.6
	C198.7,198.1,199.9,195.6,199,193.4"/>
<path fill="#FFC740" d="M229,13.5c-0.8-2.2-3.3-3.4-5.5-2.6c-2.2,0.8-3.4,3.3-2.6,5.5c0.8,2.2,3.3,3.4,5.5,2.6
	C228.7,18.2,229.9,15.8,229,13.5"/>
<path fill="#FFC740" d="M229,43.5c-0.8-2.2-3.3-3.4-5.5-2.6c-2.2,0.8-3.4,3.3-2.6,5.5c0.8,2.2,3.3,3.4,5.5,2.6
	C228.7,48.2,229.9,45.7,229,43.5"/>
<path fill="#FFC740" d="M229,73.5c-0.8-2.2-3.3-3.4-5.5-2.6c-2.2,0.8-3.4,3.3-2.6,5.5c0.8,2.2,3.3,3.4,5.5,2.6
	C228.7,78.2,229.9,75.7,229,73.5"/>
<path fill="#FFC740" d="M229,103.5c-0.8-2.2-3.3-3.4-5.5-2.6c-2.2,0.8-3.4,3.3-2.6,5.5c0.8,2.2,3.3,3.4,5.5,2.6
	C228.7,108.2,229.9,105.7,229,103.5"/>
<path fill="#FFC740" d="M229,133.4c-0.8-2.2-3.3-3.4-5.5-2.6c-2.2,0.8-3.4,3.3-2.6,5.5c0.8,2.2,3.3,3.4,5.5,2.6
	C228.7,138.1,229.9,135.7,229,133.4"/>
<path fill="#FFC740" d="M229,163.4c-0.8-2.2-3.3-3.4-5.5-2.6c-2.2,0.8-3.4,3.3-2.6,5.5c0.8,2.2,3.3,3.4,5.5,2.6
	C228.7,168.1,229.9,165.7,229,163.4"/>
<path fill="#FFC740" d="M229,193.4c-0.8-2.2-3.3-3.4-5.5-2.6c-2.2,0.8-3.4,3.3-2.6,5.5c0.8,2.2,3.3,3.4,5.5,2.6
	C228.7,198.1,229.9,195.6,229,193.4"/>
<path fill="#FFC740" d="M259,13.5c-0.8-2.2-3.3-3.4-5.5-2.6c-2.2,0.8-3.4,3.3-2.6,5.5c0.8,2.2,3.3,3.4,5.5,2.6
	C258.7,18.2,259.9,15.8,259,13.5"/>
<path fill="#FFC740" d="M259,43.5c-0.8-2.2-3.3-3.4-5.5-2.6c-2.2,0.8-3.4,3.3-2.6,5.5c0.8,2.2,3.3,3.4,5.5,2.6
	C258.7,48.2,259.9,45.7,259,43.5"/>
<path fill="#FFC740" d="M259,73.5c-0.8-2.2-3.3-3.4-5.5-2.6c-2.2,0.8-3.4,3.3-2.6,5.5c0.8,2.2,3.3,3.4,5.5,2.6
	C258.7,78.2,259.9,75.7,259,73.5"/>
<path fill="#FFC740" d="M259,103.5c-0.8-2.2-3.3-3.4-5.5-2.6c-2.2,0.8-3.4,3.3-2.6,5.5c0.8,2.2,3.3,3.4,5.5,2.6
	C258.7,108.2,259.9,105.7,259,103.5"/>
<path fill="#FFC740" d="M259,133.4c-0.8-2.2-3.3-3.4-5.5-2.6c-2.2,0.8-3.4,3.3-2.6,5.5c0.8,2.2,3.3,3.4,5.5,2.6
	C258.7,138.1,259.9,135.7,259,133.4"/>
<path fill="#FFC740" d="M259,163.4c-0.8-2.2-3.3-3.4-5.5-2.6c-2.2,0.8-3.4,3.3-2.6,5.5c0.8,2.2,3.3,3.4,5.5,2.6
	C258.7,168.1,259.9,165.7,259,163.4"/>
<path fill="#FFC740" d="M259,193.4c-0.8-2.2-3.3-3.4-5.5-2.6c-2.2,0.8-3.4,3.3-2.6,5.5c0.8,2.2,3.3,3.4,5.5,2.6
	C258.7,198.1,259.9,195.6,259,193.4"/>
<path fill="#FFC740" d="M289,13.5c-0.8-2.2-3.3-3.4-5.5-2.6c-2.2,0.8-3.4,3.3-2.6,5.5c0.8,2.2,3.3,3.4,5.5,2.6
	C288.7,18.2,289.9,15.8,289,13.5"/>
<path fill="#FFC740" d="M289,43.5c-0.8-2.2-3.3-3.4-5.5-2.6c-2.2,0.8-3.4,3.3-2.6,5.5c0.8,2.2,3.3,3.4,5.5,2.6
	C288.7,48.2,289.9,45.7,289,43.5"/>
<path fill="#FFC740" d="M289,73.5c-0.8-2.2-3.3-3.4-5.5-2.6c-2.2,0.8-3.4,3.3-2.6,5.5c0.8,2.2,3.3,3.4,5.5,2.6
	C288.7,78.2,289.9,75.7,289,73.5"/>
<path fill="#FFC740" d="M289,103.5c-0.8-2.2-3.3-3.4-5.5-2.6c-2.2,0.8-3.4,3.3-2.6,5.5c0.8,2.2,3.3,3.4,5.5,2.6
	C288.7,108.2,289.9,105.7,289,103.5"/>
<path fill="#FFC740" d="M289,133.4c-0.8-2.2-3.3-3.4-5.5-2.6c-2.2,0.8-3.4,3.3-2.6,5.5c0.8,2.2,3.3,3.4,5.5,2.6
	C288.7,138.1,289.9,135.7,289,133.4"/>
<path fill="#FFC740" d="M289,163.4c-0.8-2.2-3.3-3.4-5.5-2.6c-2.2,0.8-3.4,3.3-2.6,5.5c0.8,2.2,3.3,3.4,5.5,2.6
	C288.7,168.1,289.9,165.7,289,163.4"/>
<path fill="#FFC740" d="M289,193.4c-0.8-2.2-3.3-3.4-5.5-2.6c-2.2,0.8-3.4,3.3-2.6,5.5c0.8,2.2,3.3,3.4,5.5,2.6
	C288.7,198.1,289.9,195.6,289,193.4"/>
<path fill="#FFC740" d="M139,13.5c-0.8-2.2-3.3-3.4-5.5-2.6c-2.2,0.8-3.4,3.3-2.6,5.5c0.8,2.2,3.3,3.4,5.5,2.6
	C138.7,18.2,139.9,15.8,139,13.5"/>
<path fill="#FFC740" d="M139,43.5c-0.8-2.2-3.3-3.4-5.5-2.6c-2.2,0.8-3.4,3.3-2.6,5.5c0.8,2.2,3.3,3.4,5.5,2.6
	C138.7,48.2,139.9,45.7,139,43.5"/>
<path fill="#FFC740" d="M139,73.5c-0.8-2.2-3.3-3.4-5.5-2.6c-2.2,0.8-3.4,3.3-2.6,5.5c0.8,2.2,3.3,3.4,5.5,2.6
	C138.7,78.2,139.9,75.7,139,73.5"/>
<path fill="#FFC740" d="M139,103.5c-0.8-2.2-3.3-3.4-5.5-2.6c-2.2,0.8-3.4,3.3-2.6,5.5c0.8,2.2,3.3,3.4,5.5,2.6
	C138.7,108.2,139.9,105.7,139,103.5"/>
<path fill="#FFC740" d="M139,133.4c-0.8-2.2-3.3-3.4-5.5-2.6c-2.2,0.8-3.4,3.3-2.6,5.5c0.8,2.2,3.3,3.4,5.5,2.6
	C138.7,138.1,139.9,135.7,139,133.4"/>
<path fill="#FFC740" d="M139,163.4c-0.8-2.2-3.3-3.4-5.5-2.6c-2.2,0.8-3.4,3.3-2.6,5.5c0.8,2.2,3.3,3.4,5.5,2.6
	C138.7,168.1,139.9,165.7,139,163.4"/>
<path fill="#FFC740" d="M139,193.4c-0.8-2.2-3.3-3.4-5.5-2.6c-2.2,0.8-3.4,3.3-2.6,5.5c0.8,2.2,3.3,3.4,5.5,2.6
	C138.7,198.1,139.9,195.6,139,193.4"/>
</svg>
