<?xml version="1.0" encoding="UTF-8" standalone="no"?>
<svg width="68px" height="144px" viewBox="0 0 68 144" version="1.1" xmlns="http://www.w3.org/2000/svg" xmlns:xlink="http://www.w3.org/1999/xlink" xmlns:sketch="http://www.bohemiancoding.com/sketch/ns">
    <!-- Generator: Sketch 3.3.3 (12072) - http://www.bohemiancoding.com/sketch -->
    <title>Slice 2</title>
    <desc>Created with Sketch.</desc>
    <defs></defs>
    <g id="Page-1" stroke="none" stroke-width="1" fill="none" fill-rule="evenodd" sketch:type="MSPage">
        <g id="lunch-pattern" sketch:type="MSLayerGroup" transform="translate(197.500000, 290.500000) rotate(-90.000000) translate(-197.500000, -290.500000) translate(-95.000000, 93.000000)">
            <rect id="Rectangle-path" fill="#FFE3A0" sketch:type="MSShapeGroup" x="0" y="0" width="584.618855" height="395"></rect>
            <g id="Group" transform="translate(7.892256, 7.900000)" fill="#FFF6DF" sketch:type="MSShapeGroup">
                <g transform="translate(-0.000000, 0.000000)" id="Shape">
                    <g transform="translate(441.966330, 0.000000)">
                        <path d="M117.002694,6.32 C115.02963,8.0975 114.832323,11.2575 116.805387,13.2325 C118.581145,15.2075 121.738047,15.405 123.711111,13.43 C125.684175,11.6525 125.881481,8.4925 123.908418,6.5175 C122.13266,4.5425 118.975758,4.345 117.002694,6.32"></path>
                        <path d="M86.420202,3.3575 C84.8417508,4.74 83.8552189,6.9125 83.8552189,9.875 C83.6579125,12.64 82.8686869,14.4175 81.6848485,15.6025 C80.3037037,16.7875 78.3306397,17.1825 75.5683502,16.985 L75.3710438,18.17 C81.2902357,18.7625 84.6444444,15.9975 84.8417508,10.0725 C85.0390572,7.3075 85.8282828,5.53 87.0121212,4.345 C88.393266,3.16 90.36633,2.765 93.1286195,2.9625 L93.3259259,1.7775 C90.36633,1.3825 87.9986532,1.975 86.420202,3.3575"></path>
                        <path d="M53.6673401,13.2325 C53.6673401,13.035 53.4700337,12.8375 53.2727273,12.8375 C53.0754209,12.8375 47.3535354,13.035 43.9993266,13.035 L41.4343434,13.035 C41.0397306,13.035 41.0397306,11.6525 41.4343434,11.6525 C41.4343434,11.6525 47.7481481,11.455 52.2861953,11.455 L53.4700337,11.455 C53.6673401,11.455 53.8646465,11.2575 53.6673401,11.06 C53.6673401,10.8625 53.4700337,10.665 53.2727273,10.665 L41.6316498,10.665 C41.0397306,10.665 41.0397306,9.2825 41.6316498,9.2825 C46.169697,9.2825 53.2727273,9.085 53.4700337,9.085 C53.6673401,9.085 53.8646465,8.8875 53.6673401,8.69 C53.6673401,8.4925 53.4700337,8.295 53.2727273,8.295 L52.2861953,8.295 C50.9050505,8.295 43.4074074,8.295 41.4343434,8.0975 C41.0397306,8.0975 41.0397306,7.11 41.4343434,6.9125 L52.4835017,6.9125 L53.2727273,6.9125 C53.4700337,6.9125 53.6673401,6.715 53.4700337,6.5175 C53.4700337,6.32 53.2727273,6.1225 53.0754209,6.1225 C52.8781145,6.1225 46.7616162,5.53 42.8154882,4.9375 C41.237037,4.74 39.4612795,4.74 37.8828283,4.9375 C36.1070707,5.3325 34.7259259,6.32 33.3447811,7.3075 C32.3582492,7.9 31.3717172,8.8875 30.1878788,9.085 C28.806734,9.2825 24.4659933,9.085 23.0848485,9.085 C16.9683502,8.8875 10.6545455,8.69 4.53804714,8.4925 C2.36767677,8.4925 0.591919192,9.2825 0.591919192,10.4675 C0.591919192,11.85 1.97306397,12.64 4.34074074,12.64 C6.51111111,12.64 8.68148148,12.4425 10.8518519,12.4425 C15.7845118,12.245 20.5198653,12.0475 25.4525253,11.85 C27.0309764,11.85 31.5690236,12.245 32.9501684,12.8375 C35.1205387,14.0225 37.0936027,15.9975 39.8558923,15.8 C45.183165,15.405 53.2727273,14.22 53.4700337,14.22 C53.4700337,13.6275 53.6673401,13.2325 53.6673401,13.2325"></path>
                    </g>
                </g>
                <g transform="translate(-0.000000, 33.575000)" id="Shape">
                    <g transform="translate(441.966330, 0.000000)">
                        <path d="M8.68148148,12.64 C10.6545455,10.8625 10.8518519,7.7025 8.87878788,5.7275 C7.1030303,3.7525 3.94612795,3.555 1.97306397,5.53 C2.80331314e-14,7.3075 -0.197306397,10.4675 1.77575758,12.4425 C3.74882155,14.22 6.70841751,14.4175 8.68148148,12.64"></path>
                        <path d="M39.2639731,15.6025 C40.8424242,14.22 41.8289562,12.0475 41.8289562,9.085 C42.0262626,6.32 42.8154882,4.5425 43.9993266,3.3575 C45.3804714,2.1725 47.3535354,1.7775 50.1158249,1.975 L50.3131313,0.79 C44.3939394,0.1975 41.0397306,2.9625 40.8424242,8.8875 C40.6451178,11.6525 39.8558923,13.43 38.6720539,14.615 C37.2909091,15.8 35.3178451,16.195 32.5555556,15.9975 L32.3582492,17.1825 C35.3178451,17.38 37.6855219,16.985 39.2639731,15.6025"></path>
                        <path d="M72.2141414,5.7275 C72.2141414,5.925 72.4114478,6.1225 72.6087542,6.1225 C72.8060606,6.1225 78.5279461,5.925 81.8821549,5.925 L84.447138,5.925 C84.8417508,5.925 84.8417508,7.3075 84.447138,7.3075 C84.447138,7.3075 78.1333333,7.505 73.5952862,7.505 L72.4114478,7.505 C72.2141414,7.505 72.016835,7.7025 72.2141414,7.9 C72.2141414,8.0975 72.4114478,8.295 72.6087542,8.295 L84.2498316,8.295 C84.8417508,8.295 84.8417508,9.6775 84.2498316,9.6775 C79.7117845,9.6775 72.6087542,9.875 72.4114478,9.875 C72.2141414,9.875 72.016835,10.0725 72.2141414,10.27 C72.2141414,10.4675 72.4114478,10.665 72.6087542,10.665 L73.5952862,10.665 C74.976431,10.665 82.4740741,10.665 84.447138,10.8625 C84.8417508,10.8625 84.8417508,11.85 84.447138,12.0475 L73.3979798,12.0475 L72.6087542,12.0475 C72.4114478,12.0475 72.2141414,12.245 72.4114478,12.4425 C72.4114478,12.64 72.6087542,12.8375 72.8060606,12.8375 C73.003367,12.8375 79.1198653,13.43 83.0659933,14.0225 C84.6444444,14.22 86.420202,14.22 87.9986532,14.0225 C89.7744108,13.6275 91.1555556,12.64 92.5367003,11.6525 C93.5232323,11.06 94.5097643,10.0725 95.6936027,9.875 C97.0747475,9.6775 101.415488,9.875 102.796633,9.875 C108.913131,10.0725 115.226936,10.27 121.343434,10.4675 C123.513805,10.4675 125.289562,9.6775 125.289562,8.4925 C125.289562,7.11 123.908418,6.32 121.540741,6.32 C119.37037,6.32 117.2,6.5175 115.02963,6.5175 C110.09697,6.715 105.361616,6.9125 100.428956,7.11 C98.8505051,7.11 94.3124579,6.715 92.9313131,6.1225 C90.7609428,4.9375 88.7878788,2.9625 86.0255892,3.16 C80.6983165,3.555 72.6087542,4.74 72.4114478,4.74 C72.2141414,5.3325 72.2141414,5.53 72.2141414,5.7275"></path>
                    </g>
                </g>
            </g>
        </g>
    </g>
</svg>