<?xml version="1.0" encoding="utf-8"?>
<!-- Generator: Adobe Illustrator 18.1.1, SVG Export Plug-In . SVG Version: 6.00 Build 0)  -->
<svg version="1.1" id="Layer_1" xmlns="http://www.w3.org/2000/svg" xmlns:xlink="http://www.w3.org/1999/xlink" x="0px" y="0px"
	 viewBox="0 0 30 30" enable-background="new 0 0 30 30" xml:space="preserve">
<g>
	<path fill="#005EC7" d="M15,29.1C7.2,29.1,0.9,22.8,0.9,15S7.2,0.9,15,0.9S29.1,7.2,29.1,15S22.8,29.1,15,29.1"/>
</g>
<g>
	<polygon fill="#FFFFFF" points="7.8,10.4 7.8,19.6 12.5,14.9 	"/>
	<path fill="#FFFFFF" d="M16.8,15.6l-1.4,1.3c0,0-0.1,0-0.1,0.1c0,0,0,0-0.1,0c-0.1,0-0.1,0-0.2,0s-0.1,0-0.2,0c0,0,0,0-0.1,0
		c0,0-0.1,0-0.1-0.1l-1.4-1.3l-4.7,4.7h13L16.8,15.6z"/>
	<polygon fill="#FFFFFF" points="22.2,19.6 22.2,10.4 17.5,14.9 	"/>
	<polygon fill="#FFFFFF" points="15,15.9 21.5,9.7 8.5,9.7 	"/>
</g>
</svg>
