<?xml version="1.0" encoding="utf-8"?>
<!-- Generator: Adobe Illustrator 18.1.1, SVG Export Plug-In . SVG Version: 6.00 Build 0)  -->
<svg version="1.1" id="Layer_1" xmlns="http://www.w3.org/2000/svg" xmlns:xlink="http://www.w3.org/1999/xlink" x="0px" y="0px"
	 viewBox="0 0 781.3 70" enable-background="new 0 0 781.3 70" xml:space="preserve">
<g>
	<defs>
		<rect id="SVGID_1_" x="8.1" y="0.1" width="758.5" height="69"/>
	</defs>
	<clipPath id="SVGID_2_">
		<use xlink:href="#SVGID_1_"  overflow="visible"/>
	</clipPath>
	<path clip-path="url(#SVGID_2_)" fill="#FDFFF3" d="M18.9,45.1h20.5V23.3c-7,6.8-13.6,5.7-20.5,0.6V45.1z M66.1,24.1H45.4v21.6
		c7-6.2,13.8-5.8,20.7-0.1V24.1z M77,69.1H8.1v-69H77V69.1z"/>
</g>
<polygon fill="#FDFFF3" points="102.1,61.8 112.9,6.8 130.5,46.6 148.6,6.8 158.3,61.8 150.4,61.8 145.5,30.9 130.3,64.2 
	115.6,30.9 110.1,61.8 "/>
<path fill="#FDFFF3" d="M199.5,42.1l-7.6-17.4L184,42.1H199.5z M202.6,49.4h-21.9L175,61.8h-8.3L192,7.5l24.4,54.3H208L202.6,49.4z"
	/>
<polygon fill="#FDFFF3" points="234,31.1 253.9,10.7 264.2,10.7 241.1,33.8 264.3,61.8 254,61.8 235.6,39.1 234,40.6 234,61.8 
	226.3,61.8 226.3,10.7 234,10.7 "/>
<polygon fill="#FDFFF3" points="302.9,17.9 282.4,17.9 282.4,30.2 302.3,30.2 302.3,37.5 282.4,37.5 282.4,54.6 302.9,54.6 
	302.9,61.8 274.7,61.8 274.7,10.7 302.9,10.7 "/>
<g>
	<defs>
		<rect id="SVGID_3_" x="3.7" y="0.7" width="769.5" height="70"/>
	</defs>
	<clipPath id="SVGID_4_">
		<use xlink:href="#SVGID_3_"  overflow="visible"/>
	</clipPath>
	<path clip-path="url(#SVGID_4_)" fill="#FDFFF3" d="M324.2,34.2h2.4c7.3,0,11-2.8,11-8.4c0-5.2-3.6-7.8-10.7-7.8h-2.7V34.2z
		 M333.8,40l15.8,21.8h-9.4l-14.6-20.9h-1.4v20.9h-7.7V10.7h9c6.8,0,11.6,1.3,14.6,3.8c3.3,2.8,5,6.6,5,11.2c0,3.6-1,6.7-3.1,9.3
		C339.9,37.6,337.2,39.3,333.8,40"/>
	<path clip-path="url(#SVGID_4_)" fill="#FDFFF3" d="M389.7,18.3l-6.3,3.7c-1.2-2-2.3-3.4-3.3-4c-1.1-0.7-2.5-1.1-4.3-1.1
		c-2.1,0-3.9,0.6-5.3,1.8c-1.4,1.2-2.1,2.7-2.1,4.5c0,2.5,1.9,4.5,5.6,6l5.1,2.1c4.1,1.7,7.2,3.7,9.1,6.1c1.9,2.4,2.9,5.4,2.9,8.9
		c0,4.7-1.6,8.6-4.7,11.7c-3.2,3.1-7.1,4.6-11.8,4.6c-4.4,0-8.1-1.3-11-4c-2.8-2.6-4.6-6.3-5.3-11.1l7.8-1.7c0.4,3,1,5.1,1.9,6.2
		c1.6,2.2,3.9,3.3,7,3.3c2.4,0,4.4-0.8,6-2.4c1.6-1.6,2.4-3.7,2.4-6.1c0-1-0.1-1.9-0.4-2.7c-0.3-0.8-0.7-1.6-1.3-2.3
		c-0.6-0.7-1.3-1.3-2.3-2c-0.9-0.6-2-1.2-3.3-1.7l-4.9-2.1c-7-3-10.5-7.3-10.5-13c0-3.8,1.5-7,4.4-9.6c2.9-2.6,6.6-3.9,11-3.9
		C381.8,9.7,386.4,12.5,389.7,18.3"/>
</g>
<path fill="#FDFFF3" d="M455.1,42.1l-7.6-17.4l-7.9,17.4H455.1z M458.2,49.4h-21.9l-5.7,12.4h-8.3l25.3-54.3L472,61.8h-8.4
	L458.2,49.4z"/>
<g>
	<defs>
		<rect id="SVGID_5_" x="3.7" y="0.7" width="769.5" height="70"/>
	</defs>
	<clipPath id="SVGID_6_">
		<use xlink:href="#SVGID_5_"  overflow="visible"/>
	</clipPath>
	<path clip-path="url(#SVGID_6_)" fill="#FDFFF3" d="M515.6,13.4v9.1c-4.5-3.7-9.1-5.6-13.8-5.6c-5.3,0-9.7,1.9-13.3,5.7
		c-3.6,3.8-5.4,8.3-5.4,13.8c0,5.4,1.8,9.9,5.4,13.6c3.6,3.7,8.1,5.5,13.3,5.5c2.7,0,5-0.4,6.9-1.3c1.1-0.4,2.2-1,3.3-1.8
		c1.1-0.8,2.3-1.7,3.6-2.7V59c-4.4,2.5-9.1,3.8-13.9,3.8c-7.3,0-13.5-2.5-18.7-7.7c-5.1-5.1-7.7-11.3-7.7-18.6
		c0-6.5,2.1-12.3,6.5-17.4c5.3-6.2,12.2-9.4,20.6-9.4C506.8,9.7,511.3,10.9,515.6,13.4"/>
</g>
<path fill="#FDFFF3" d="M555.2,42.1l-7.6-17.4l-7.9,17.4H555.2z M558.3,49.4h-21.9l-5.7,12.4h-8.3l25.3-54.3l24.4,54.3h-8.4
	L558.3,49.4z"/>
<g>
	<defs>
		<rect id="SVGID_7_" x="3.7" y="0.7" width="769.5" height="70"/>
	</defs>
	<clipPath id="SVGID_8_">
		<use xlink:href="#SVGID_7_"  overflow="visible"/>
	</clipPath>
	<path clip-path="url(#SVGID_8_)" fill="#FDFFF3" d="M588,54.6h3.5c3.5,0,6.3-0.4,8.6-1.1c2.3-0.8,4.4-2,6.2-3.7
		c3.8-3.5,5.7-8,5.7-13.5c0-5.6-1.9-10.2-5.6-13.6c-3.4-3.1-8.4-4.7-14.9-4.7H588V54.6z M580.3,61.8V10.7H591
		c5.1,0,9.2,0.5,12.2,1.5c3.2,1,6.1,2.7,8.7,5.1c5.3,4.8,7.9,11.1,7.9,19c0,7.9-2.7,14.2-8.2,19.1c-2.8,2.4-5.7,4.1-8.7,5.1
		c-2.8,1-6.8,1.4-12,1.4H580.3z"/>
</g>
<polygon fill="#FDFFF3" points="659.5,17.9 639,17.9 639,30.2 658.9,30.2 658.9,37.5 639,37.5 639,54.6 659.5,54.6 659.5,61.8 
	631.3,61.8 631.3,10.7 659.5,10.7 "/>
<polygon fill="#FDFFF3" points="669.6,61.8 680.4,6.8 697.9,46.6 716.1,6.8 725.8,61.8 717.9,61.8 712.9,30.9 697.8,64.2 
	683.1,30.9 677.6,61.8 "/>
<polygon fill="#FDFFF3" points="764.3,10.7 752.6,31.1 740.9,10.7 732,10.7 748.7,39.7 748.7,61.8 756.4,61.8 756.4,39.7 
	773.2,10.7 "/>
</svg>
