<?xml version="1.0" encoding="utf-8"?>
<!-- Generator: Adobe Illustrator 18.1.0, SVG Export Plug-In . SVG Version: 6.00 Build 0)  -->
<svg version="1.1" id="Layer_1" xmlns="http://www.w3.org/2000/svg" xmlns:xlink="http://www.w3.org/1999/xlink" x="0px" y="0px"
	 viewBox="0 0 560 400" enable-background="new 0 0 560 400" xml:space="preserve">
<text transform="matrix(1 0 0 1 380.6172 338.5635)" fill="#265EA9" font-family="'Jaapokki-Regular'" font-size="17.3751">Moo</text>
<text transform="matrix(1 0 0 1 413.3145 338.5635)" fill="#265EA9" font-family="'Jaapokki-Regular'" font-size="17.3751">r</text>
<text transform="matrix(1 0 0 1 419.9482 338.5635)" fill="#265EA9" font-family="'Jaapokki-Regular'" font-size="17.3751">ga</text>
<text transform="matrix(1 0 0 1 438.9033 338.5635)" fill="#265EA9" font-family="'Jaapokki-Regular'" font-size="17.3751">t</text>
<text transform="matrix(1 0 0 1 445.3799 338.5635)" fill="#265EA9" font-family="'Jaapokki-Regular'" font-size="17.3751">e</text>
<g>
	<g>
		<defs>
			<rect id="SVGID_1_" x="4.1" y="14.8" width="551.9" height="373.9"/>
		</defs>
		<clipPath id="SVGID_2_">
			<use xlink:href="#SVGID_1_"  overflow="visible"/>
		</clipPath>
		<g clip-path="url(#SVGID_2_)">
			<text transform="matrix(1 0 0 1 4.1045 204.6992)" fill="#265EA9" font-family="'Jaapokki-Regular'" font-size="17.3751">B</text>
			<text transform="matrix(1 0 0 1 13.7397 204.6992)" fill="#265EA9" font-family="'Jaapokki-Regular'" font-size="17.3751">a</text>
			<text transform="matrix(1 0 0 1 23.6909 204.6992)" fill="#265EA9" font-family="'Jaapokki-Regular'" font-size="17.3751">rbi</text>
			<text transform="matrix(1 0 0 1 44.6987 204.6992)" fill="#265EA9" font-family="'Jaapokki-Regular'" font-size="17.3751">c</text>
			<text transform="matrix(1 0 0 1 52.1226 204.6992)" fill="#265EA9" font-family="'Jaapokki-Regular'" font-size="17.3751">an</text>
		</g>
	</g>
	<g>
		<defs>
			<rect id="SVGID_3_" x="4.1" y="14.8" width="551.9" height="373.9"/>
		</defs>
		<clipPath id="SVGID_4_">
			<use xlink:href="#SVGID_3_"  overflow="visible"/>
		</clipPath>
		<path clip-path="url(#SVGID_4_)" fill="#265EA9" d="M376.1,117.9l1.1,0.2c0.3,0.5,0.8,0.8,1.3,0.9c0.9,0,1.7-0.6,1.7-1.6
			c0-0.9-0.6-1.7-1.6-1.9c-0.6,0-1.1,0.3-1.4,0.6l-1.1-0.2l0.2-2.4l-24-1.9l-0.2,2.4l1.1,0.2c0.3-0.3,0.9-0.6,1.4-0.6
			c0.9,0,1.6,0.9,1.6,1.7c0,0.9-0.9,1.6-1.7,1.6c-0.6,0-1.1-0.5-1.3-0.8l-1.1-0.2l-0.2,2.4l24,1.9L376.1,117.9z"/>
	</g>
	<g>
		<defs>
			<rect id="SVGID_5_" x="4.1" y="14.8" width="551.9" height="373.9"/>
		</defs>
		<clipPath id="SVGID_6_">
			<use xlink:href="#SVGID_5_"  overflow="visible"/>
		</clipPath>
		<path clip-path="url(#SVGID_6_)" fill="#265EA9" d="M454,174l0.2-1.1c0.5-0.2,0.9-0.6,0.9-1.3c0.2-0.9-0.5-1.7-1.4-1.9
			c-0.9-0.2-1.7,0.5-1.9,1.4c-0.2,0.6,0.2,1.1,0.5,1.4l-0.2,1.1l-2.4-0.3c-0.6,6.2-0.9,13.3-0.8,20.2l1.6,0.3l1.7,0.5l3.2,0.8
			c-0.3-7.9,0-15,0.9-20.7L454,174z"/>
	</g>
	<g>
		<defs>
			<rect id="SVGID_7_" x="4.1" y="14.8" width="551.9" height="373.9"/>
		</defs>
		<clipPath id="SVGID_8_">
			<use xlink:href="#SVGID_7_"  overflow="visible"/>
		</clipPath>
		<path clip-path="url(#SVGID_8_)" fill="#265EA9" d="M352.7,164.7l0.3-1.1c0.5-0.2,0.9-0.6,1.1-1.1c0.3-0.9-0.3-1.7-1.1-2.1
			c-0.9-0.3-1.9,0.3-2.1,1.1c-0.2,0.6,0,1.1,0.3,1.6l-0.3,1.1l-2.4-0.6l-6.2,23.2l2.4,0.6l1.7,0.5l2.4,0.6l6.2-23.2L352.7,164.7z"/>
	</g>
	<g>
		<defs>
			<rect id="SVGID_9_" x="4.1" y="14.8" width="551.9" height="373.9"/>
		</defs>
		<clipPath id="SVGID_10_">
			<use xlink:href="#SVGID_9_"  overflow="visible"/>
		</clipPath>
		<path clip-path="url(#SVGID_10_)" fill="#EE7364" d="M365.3,119.3l0.2-1.1c0.5-0.3,0.9-0.8,0.9-1.3c0.2-0.9-0.5-1.7-1.4-1.9
			c-0.9-0.2-1.7,0.5-1.9,1.4c0,0.6,0.2,1.1,0.6,1.4l-0.2,1.1l-2.4-0.3l-7.1,24.3l3.2-2.2l0.3-1.1c-0.3-0.3-0.5-0.9-0.3-1.6
			c0.3-0.9,1.1-1.4,2.1-1.3c0.9,0.2,1.4,1.1,1.3,2.1c-0.2,0.6-0.6,0.9-1.1,1.1l-0.3,1.1l1.9,2.4l7-24.2L365.3,119.3z"/>
	</g>
	<g>
		<defs>
			<rect id="SVGID_11_" x="4.1" y="14.8" width="551.9" height="373.9"/>
		</defs>
		<clipPath id="SVGID_12_">
			<use xlink:href="#SVGID_11_"  overflow="visible"/>
		</clipPath>
		<path clip-path="url(#SVGID_12_)" fill="#FFDF94" d="M358.9,141.4l0.3-1.1c0.5-0.2,0.9-0.6,1.1-1.1c0.3-0.9-0.3-1.7-1.1-2.1
			c-0.9-0.3-1.9,0.3-2.1,1.1c-0.2,0.6,0,1.1,0.3,1.6l-0.3,1.1l-2.4-0.6l-6.2,23.2l2.4,0.6l0.3-1.1c-0.3-0.3-0.5-0.9-0.3-1.6
			c0.3-0.9,1.1-1.4,2.1-1.3c0.9,0.2,1.4,1.1,1.3,2.1c-0.2,0.6-0.6,0.9-1.1,1.1l-0.3,1.1l2.4,0.6l6.2-23.2L358.9,141.4z"/>
	</g>
	<g>
		<defs>
			<rect id="SVGID_13_" x="4.1" y="14.8" width="551.9" height="373.9"/>
		</defs>
		<clipPath id="SVGID_14_">
			<use xlink:href="#SVGID_13_"  overflow="visible"/>
		</clipPath>
		<path clip-path="url(#SVGID_14_)" fill="#265EA9" d="M344.2,87.1l0.2-1.1c0.5-0.3,0.8-0.8,0.9-1.3c0.2-0.9-0.6-1.7-1.6-1.9
			c-0.9-0.2-1.7,0.6-1.9,1.6c0,0.6,0.3,1.1,0.6,1.4l-0.2,1.1l-2.4-0.2l-2.2,24l2.4,0.3l0.2-1.1c-0.3-0.3-0.6-0.9-0.6-1.4
			c0.2-0.9,0.9-1.6,1.7-1.6c0.9,0.2,1.6,0.9,1.6,1.9c0,0.6-0.5,1.1-0.9,1.3l-0.2,1.1l2.4,0.2l2.2-24L344.2,87.1z"/>
	</g>
	<g>
		<defs>
			<rect id="SVGID_15_" x="4.1" y="14.8" width="551.9" height="373.9"/>
		</defs>
		<clipPath id="SVGID_16_">
			<use xlink:href="#SVGID_15_"  overflow="visible"/>
		</clipPath>
		<path clip-path="url(#SVGID_16_)" fill="#EE7364" d="M348.4,39.1l0.2-1.1c0.5-0.3,0.8-0.8,0.9-1.3c0.2-0.9-0.6-1.7-1.6-1.9
			c-0.9-0.2-1.7,0.6-1.9,1.6c0,0.6,0.3,1.1,0.6,1.4l-0.2,1.1l-2.4-0.2l-2.5,27l2.7-2.8l0.2-1.1c-0.3-0.3-0.6-0.9-0.6-1.4
			c0.2-0.9,0.9-1.6,1.7-1.6c0.9,0.2,1.6,0.9,1.6,1.9c0,0.6-0.5,1.1-0.9,1.3l-0.2,1.1l2.2,2.1l2.4-25.7L348.4,39.1z"/>
	</g>
	<g>
		<defs>
			<rect id="SVGID_17_" x="4.1" y="14.8" width="551.9" height="373.9"/>
		</defs>
		<clipPath id="SVGID_18_">
			<use xlink:href="#SVGID_17_"  overflow="visible"/>
		</clipPath>
		<path clip-path="url(#SVGID_18_)" fill="#FBFCF2" d="M346.2,63.1l0.2-1.1c0.5-0.3,0.8-0.8,0.9-1.3c0.2-0.9-0.6-1.7-1.6-1.9
			c-0.9-0.2-1.7,0.6-1.9,1.6c0,0.6,0.3,1.1,0.6,1.4l-0.2,1.1l-2.4-0.2l-2.2,24l2.4,0.3l0.2-1.1c-0.3-0.3-0.6-0.9-0.6-1.4
			c0.2-0.9,0.9-1.6,1.7-1.6c0.9,0.2,1.6,0.9,1.6,1.9c0,0.6-0.5,1.1-0.9,1.3l-0.2,1.1l2.4,0.2l2.2-24L346.2,63.1z"/>
	</g>
	<g>
		<defs>
			<rect id="SVGID_19_" x="4.1" y="14.8" width="551.9" height="373.9"/>
		</defs>
		<clipPath id="SVGID_20_">
			<use xlink:href="#SVGID_19_"  overflow="visible"/>
		</clipPath>
		<path clip-path="url(#SVGID_20_)" fill="#FBFCF2" d="M355.1,113.6c-0.6,0-1.1,0.3-1.4,0.6l-1.1-0.2l0.2-2.4l-10.7-0.9v-1.1
			c0.5-0.3,0.8-0.8,0.9-1.4c0-0.9-0.6-1.7-1.6-1.7c-0.9,0-1.7,0.6-1.7,1.6c0,0.6,0.3,1.1,0.6,1.4v1.1l-11.5-0.9l-0.2,2.4l1.1,0.2
			c0.3-0.3,0.2,2.2-0.2,1.9l-1.1-0.2l-0.2,2.4l24,1.9l0.2-2.4l1.1,0.2c0.3,0.5,0.8,0.8,1.3,0.9c0.9,0,1.7-0.6,1.7-1.6
			C356.7,114.4,355.9,113.6,355.1,113.6"/>
	</g>
	<g>
		<defs>
			<rect id="SVGID_21_" x="4.1" y="14.8" width="551.9" height="373.9"/>
		</defs>
		<clipPath id="SVGID_22_">
			<use xlink:href="#SVGID_21_"  overflow="visible"/>
		</clipPath>
		<path clip-path="url(#SVGID_22_)" fill="#EE7364" d="M478.6,345.8c0.3-0.5,0.3-1.1,0-1.6l0.5-0.9l2.1,1.1c3.8-7,5.7-12,6.8-19.1
			c0.2-0.8,0.2-1.7,0.3-2.5l-6.8-0.9c-0.2,6.3-2.8,13.4-6.2,19.3l2.2,1.1l-0.5,0.9c-0.5,0-1.1,0.3-1.4,0.8c-0.5,0.8-0.2,1.7,0.6,2.2
			C477.2,346.9,478.1,346.6,478.6,345.8"/>
	</g>
	<g>
		<defs>
			<rect id="SVGID_23_" x="4.1" y="14.8" width="551.9" height="373.9"/>
		</defs>
		<clipPath id="SVGID_24_">
			<use xlink:href="#SVGID_23_"  overflow="visible"/>
		</clipPath>
		<path clip-path="url(#SVGID_24_)" fill="#265EA9" d="M454.8,384.4l-0.5,0.9c-0.5,0-1.1,0.3-1.4,0.8c-0.5,0.8-0.2,1.9,0.6,2.2
			c0.8,0.5,1.9,0.2,2.2-0.6c0.3-0.5,0.2-1.1,0-1.6l0.5-0.9l2.2,1.1l11.5-21.2l-2.1-1.1l-0.5,0.9c0.2,0.5-2.1-0.8-1.6-0.9l0.5-0.9
			l-2.1-1.1l-11.5,21.2L454.8,384.4z"/>
	</g>
	<g>
		<defs>
			<rect id="SVGID_25_" x="4.1" y="14.8" width="551.9" height="373.9"/>
		</defs>
		<clipPath id="SVGID_26_">
			<use xlink:href="#SVGID_25_"  overflow="visible"/>
		</clipPath>
		<path clip-path="url(#SVGID_26_)" fill="#FBFCF2" d="M466.1,363.4l-0.5,0.9c-0.5,0-1.1,0.3-1.4,0.8c-0.5,0.8-0.2,1.9,0.6,2.2
			c0.8,0.5,1.9,0.2,2.2-0.6c0.3-0.5,0.2-1.1,0-1.6l0.5-0.9l2.2,1.1l11.5-21.2l-2.1-1.1l-0.5,0.9c0.2,0.5,0.3,1.1,0,1.6
			c-0.5,0.8-1.4,1.1-2.2,0.6c-0.8-0.5-1.1-1.4-0.6-2.2c0.3-0.5,0.8-0.8,1.3-0.9l0.5-0.9l-2.1-1.1l-11.5,21.2L466.1,363.4z"/>
	</g>
	<g>
		<defs>
			<rect id="SVGID_27_" x="4.1" y="14.8" width="551.9" height="373.9"/>
		</defs>
		<clipPath id="SVGID_28_">
			<use xlink:href="#SVGID_27_"  overflow="visible"/>
		</clipPath>
		<path clip-path="url(#SVGID_28_)" fill="#FBFCF2" d="M307.4,109.7c-0.6,0-1.1,0.2-1.4,0.6l-1.1-0.2l0.2-2.4
			c-7.7-0.6-13.3-0.3-20.2,1.6c-0.8,0.2-1.6,0.5-2.4,0.8l1.9,6.5c5.8-2.4,13.4-2.8,20.2-2.2l0.2-2.4l1.1,0.2
			c0.3,0.5,0.8,0.8,1.3,0.9c0.9,0,1.7-0.6,1.7-1.4C309,110.5,308.2,109.7,307.4,109.7"/>
	</g>
	<g>
		<defs>
			<rect id="SVGID_29_" x="4.1" y="14.8" width="551.9" height="373.9"/>
		</defs>
		<clipPath id="SVGID_30_">
			<use xlink:href="#SVGID_29_"  overflow="visible"/>
		</clipPath>
		<path clip-path="url(#SVGID_30_)" fill="#EE7364" d="M173.1,44.4l0.6,2.4l0,0l1.1-0.3c0.2-0.5,0.6-0.9,1.1-1.1
			c0.9-0.3,1.9,0.3,2.1,1.1c0.3,0.9-0.3,1.9-1.1,2.1c-0.6,0.2-1.1,0-1.6-0.3l-1.1,0.3l0,0l0.6,2.2c-3.5,0.9-5.5,4.6-4.4,8.1
			l-6.5,1.9C162.1,53.8,166,46.3,173.1,44.4"/>
	</g>
	<g>
		<defs>
			<rect id="SVGID_31_" x="4.1" y="14.8" width="551.9" height="373.9"/>
		</defs>
		<clipPath id="SVGID_32_">
			<use xlink:href="#SVGID_31_"  overflow="visible"/>
		</clipPath>
		<path clip-path="url(#SVGID_32_)" fill="#265EA9" d="M166.3,60.1L166,59c-0.5-0.2-0.9-0.6-1.1-1.1c-0.3-0.9,0.2-1.9,1.1-2.1
			c0.9-0.3,1.9,0.2,2.1,1.1c0.2,0.6,0,1.1-0.3,1.6l0.3,1.1l2.4-0.6l7,23.1l-6.5,1.9l-7-23.1L166.3,60.1z"/>
	</g>
	<g>
		<defs>
			<rect id="SVGID_33_" x="4.1" y="14.8" width="551.9" height="373.9"/>
		</defs>
		<clipPath id="SVGID_34_">
			<use xlink:href="#SVGID_33_"  overflow="visible"/>
		</clipPath>
		<path clip-path="url(#SVGID_34_)" fill="#EE7364" d="M52.6,149c-3,0-5.5,2.5-5.5,5.5s2.5,5.5,5.5,5.5c3,0,5.5-2.5,5.5-5.5
			C58.1,151.4,55.6,149,52.6,149 M52.6,164.3c-5.4,0-9.8-4.4-9.8-9.8c0-5.4,4.4-9.8,9.8-9.8s9.8,4.4,9.8,9.8
			C62.4,159.9,58,164.3,52.6,164.3"/>
	</g>
</g>
<rect x="40.1" y="152.3" fill="#265EA9" width="25" height="4.4"/>
<g>
	<g>
		<defs>
			<rect id="SVGID_35_" x="4.1" y="14.8" width="551.9" height="373.9"/>
		</defs>
		<clipPath id="SVGID_36_">
			<use xlink:href="#SVGID_35_"  overflow="visible"/>
		</clipPath>
		<path clip-path="url(#SVGID_36_)" fill="#EE7364" d="M452.1,294c-3,0-5.5,2.5-5.5,5.5c0,3,2.5,5.5,5.5,5.5c3,0,5.5-2.5,5.5-5.5
			S455.1,294,452.1,294 M452.1,309.3c-5.4,0-9.8-4.4-9.8-9.8c0-5.4,4.4-9.8,9.8-9.8c5.4,0,9.8,4.4,9.8,9.8
			C461.9,304.9,457.4,309.3,452.1,309.3"/>
	</g>
</g>
<rect x="438.6" y="297.5" fill="#265EA9" width="25" height="4.4"/>
<g>
	<g>
		<defs>
			<rect id="SVGID_37_" x="4.1" y="14.8" width="551.9" height="373.9"/>
		</defs>
		<clipPath id="SVGID_38_">
			<use xlink:href="#SVGID_37_"  overflow="visible"/>
		</clipPath>
		<path clip-path="url(#SVGID_38_)" fill="#FBFCF2" d="M472.3,125.8l1.1,0.2c0.3,0.5,0.8,0.8,1.3,0.9c0.9,0,1.7-0.6,1.7-1.6
			s-0.6-1.7-1.6-1.9c-0.6,0-1.1,0.3-1.4,0.6l-1.1-0.2l0.2-2.4l-24-1.9l-0.2,2.4l1.1,0.2c0.3-0.3,0.9-0.6,1.4-0.6
			c0.9,0,1.6,0.9,1.6,1.7s-0.9,1.6-1.7,1.6c-0.6,0-1.1-0.5-1.3-0.8l-1.1-0.2l-0.2,2.4l24,1.9L472.3,125.8z"/>
	</g>
	<g>
		<defs>
			<rect id="SVGID_39_" x="4.1" y="14.8" width="551.9" height="373.9"/>
		</defs>
		<clipPath id="SVGID_40_">
			<use xlink:href="#SVGID_39_"  overflow="visible"/>
		</clipPath>
		<path clip-path="url(#SVGID_40_)" fill="#265EA9" d="M544.2,131.6l1.1,0.2c0.3,0.5,0.8,0.8,1.3,0.9c0.9,0,1.7-0.6,1.7-1.6
			c0-0.9-0.6-1.7-1.6-1.9c-0.6,0-1.1,0.3-1.4,0.6l-1.1-0.2l0.2-2.4l-26.9-2.2l2.8,2.7l1.1,0.2c0.3-0.3,0.9-0.6,1.4-0.6
			c0.9,0,1.6,0.9,1.6,1.7c0,0.8-0.9,1.6-1.7,1.6c-0.6,0-1.1-0.5-1.3-0.8l-1.1-0.2l-2.1,2.2L544,134L544.2,131.6z"/>
	</g>
	<g>
		<defs>
			<rect id="SVGID_41_" x="4.1" y="14.8" width="551.9" height="373.9"/>
		</defs>
		<clipPath id="SVGID_42_">
			<use xlink:href="#SVGID_41_"  overflow="visible"/>
		</clipPath>
		<path clip-path="url(#SVGID_42_)" fill="#EE7364" d="M424.1,121.8l1.1,0.2c0.3,0.5,0.8,0.8,1.3,0.9c0.9,0,1.7-0.6,1.7-1.6
			c0-0.9-0.6-1.7-1.6-1.9c-0.6,0-1.1,0.3-1.4,0.6l-1.1-0.2l0.2-2.4l-27-2.2l2.8,2.7l1.1,0.2c0.3-0.3-1.3,1.7-1.3,1.7l-1.4,2.4
			l25.3,2.1L424.1,121.8z"/>
	</g>
	<g>
		<defs>
			<rect id="SVGID_43_" x="4.1" y="14.8" width="551.9" height="373.9"/>
		</defs>
		<clipPath id="SVGID_44_">
			<use xlink:href="#SVGID_43_"  overflow="visible"/>
		</clipPath>
		<path clip-path="url(#SVGID_44_)" fill="#FBFCF2" d="M400.1,119.8l1.1,0.2c0.3,0.5,0.8,0.8,1.3,0.9c0.9,0,1.7-0.6,1.7-1.6
			s-0.6-1.7-1.6-1.9c-0.6,0-1.1,0.3-1.4,0.6l-1.1-0.2l0.2-2.4l-24-1.9l-0.2,2.4l1.1,0.2c0.3-0.3,0.9-0.6,1.4-0.6
			c0.9,0,1.6,0.9,1.6,1.7c0,0.9-0.9,1.6-1.7,1.6c-0.6,0-1.1-0.5-1.3-0.8l-1.1-0.2l-0.2,2.4l24,1.9L400.1,119.8z"/>
	</g>
	<g>
		<defs>
			<rect id="SVGID_45_" x="4.1" y="14.8" width="551.9" height="373.9"/>
		</defs>
		<clipPath id="SVGID_46_">
			<use xlink:href="#SVGID_45_"  overflow="visible"/>
		</clipPath>
		<path clip-path="url(#SVGID_46_)" fill="#EE7364" d="M448.3,123.7l1.1,0.2c0.3,0.5,0.8,0.8,1.3,0.9c0.9,0,1.7-0.6,1.7-1.6
			s-0.6-1.7-1.6-1.9c-0.6,0-1.1,0.3-1.4,0.6l-1.1-0.2l0.2-2.4l-24-1.9l-0.2,2.4l1.1,0.2c0.3-0.3,0.9-0.6,1.4-0.6
			c0.9,0,1.6,0.9,1.6,1.7c0,0.9-0.9,1.6-1.7,1.6c-0.6,0-1.1-0.5-1.3-0.8l-1.1-0.2l-0.2,2.4l24,1.9L448.3,123.7z"/>
	</g>
	<g>
		<defs>
			<rect id="SVGID_47_" x="4.1" y="14.8" width="551.9" height="373.9"/>
		</defs>
		<clipPath id="SVGID_48_">
			<use xlink:href="#SVGID_47_"  overflow="visible"/>
		</clipPath>
		<path clip-path="url(#SVGID_48_)" fill="#265EA9" d="M496.1,127.7l1.1,0.2c0.3,0.5,0.8,0.8,1.3,0.9c0.9,0,1.7-0.6,1.7-1.6
			c0-0.9-0.6-1.7-1.6-1.9c-0.6,0-1.1,0.3-1.4,0.6l-1.1-0.2l0.2-2.4l-24-1.9l-0.2,2.4l1.1,0.2c0.3-0.3,0.9-0.6,1.4-0.6
			c0.9,0,1.6,0.9,1.6,1.7c0,0.9-0.9,1.6-1.7,1.6c-0.6,0-1.1-0.5-1.3-0.8l-1.1-0.2l-0.2,2.4l24,1.9L496.1,127.7z"/>
	</g>
	<g>
		<defs>
			<rect id="SVGID_49_" x="4.1" y="14.8" width="551.9" height="373.9"/>
		</defs>
		<clipPath id="SVGID_50_">
			<use xlink:href="#SVGID_49_"  overflow="visible"/>
		</clipPath>
		<path clip-path="url(#SVGID_50_)" fill="#FBFCF2" d="M520.1,129.6l1.1,0.2c0.3,0.5,0.8,0.8,1.3,0.9c0.9,0,1.7-0.6,1.7-1.6
			c0-0.9-0.6-1.7-1.6-1.9c-0.6,0-1.1,0.3-1.4,0.6l-1.1-0.2l0.2-2.4l-24-1.9l-0.2,2.4l1.1,0.2c0.3-0.3,0.9-0.6,1.4-0.6
			c0.9,0,1.6,0.9,1.6,1.7c0,0.8-0.9,1.6-1.7,1.6c-0.6,0-1.1-0.5-1.3-0.8l-1.1-0.2l-0.2,2.4l24,1.9L520.1,129.6z"/>
	</g>
	<g>
		<defs>
			<rect id="SVGID_51_" x="4.1" y="14.8" width="551.9" height="373.9"/>
		</defs>
		<clipPath id="SVGID_52_">
			<use xlink:href="#SVGID_51_"  overflow="visible"/>
		</clipPath>
		<path clip-path="url(#SVGID_52_)" fill="#265EA9" d="M328.5,113.9l1.1,0.2c0.3,0.5,0.8,0.8,1.3,0.9c0.9,0,1.7-0.6,1.7-1.6
			c0-0.9-0.6-1.7-1.6-1.9c-0.6,0-1.1,0.3-1.4,0.6l-1.1-0.2l0.2-2.4l-24-1.9l-0.2,2.4l1.1,0.2c0.3-0.3,0.9-0.6,1.4-0.6
			c0.9,0,1.6,0.9,1.6,1.7c0,0.9-0.9,1.6-1.7,1.6c-0.6,0-1.1-0.5-1.3-0.8l-1.1-0.2l-0.2,2.4l24,1.9L328.5,113.9z"/>
	</g>
	<g>
		<defs>
			<rect id="SVGID_53_" x="4.1" y="14.8" width="551.9" height="373.9"/>
		</defs>
		<clipPath id="SVGID_54_">
			<use xlink:href="#SVGID_53_"  overflow="visible"/>
		</clipPath>
		<path clip-path="url(#SVGID_54_)" fill="#265EA9" d="M283.7,114.3l1.1-0.3c0.5,0.3,0.9,0.5,1.6,0.3c0.9-0.3,1.4-1.3,1.1-2.1
			c-0.3-0.9-1.3-1.4-2.1-1.1c-0.6,0.2-0.9,0.6-1.1,1.1l-1.1,0.3l-0.6-2.4l-25.9,7.7l3.6,1.4l1.1-0.3c0.2-0.5,0.6-0.9,1.1-1.1
			c0.9-0.3,1.9,0.2,2.1,1.1c0.2,0.9-0.3,1.9-1.1,2.1c-0.6,0.2-1.1,0-1.6-0.3l-1.1,0.3l-1.1,2.8l24.8-7.4L283.7,114.3z"/>
	</g>
	<g>
		<defs>
			<rect id="SVGID_55_" x="4.1" y="14.8" width="551.9" height="373.9"/>
		</defs>
		<clipPath id="SVGID_56_">
			<use xlink:href="#SVGID_55_"  overflow="visible"/>
		</clipPath>
		<path clip-path="url(#SVGID_56_)" fill="#265EA9" d="M168.2,148.5l1.1-0.3c0.5,0.3,0.9,0.5,1.6,0.3c0.9-0.3,1.4-1.3,1.1-2.1
			c-0.3-0.9-1.3-1.4-2.1-1.1c-0.6,0.2-0.9,0.6-1.1,1.1l-1.1,0.3l-0.6-2.4l-26.1,7.7l3.6,1.6l1.1-0.3c0.2-0.5-0.6,2.1-0.6,2.1
			l-0.5,2.7l24.2-7.3L168.2,148.5z"/>
	</g>
	<g>
		<defs>
			<rect id="SVGID_57_" x="4.1" y="14.8" width="551.9" height="373.9"/>
		</defs>
		<clipPath id="SVGID_58_">
			<use xlink:href="#SVGID_57_"  overflow="visible"/>
		</clipPath>
		<path clip-path="url(#SVGID_58_)" fill="#EE7364" d="M99,169.1l1.1-0.3c0.5,0.3,0.9,0.5,1.6,0.3c0.9-0.3,1.4-1.3,1.1-2.1
			c-0.3-0.9-1.3-1.4-2.1-1.1c-0.6,0.2-0.9,0.6-1.1,1.1l-1.1,0.3l-0.6-2.4l-23.1,6.8l0.6,2.4l1.1-0.3c0.2-0.5,0.9,2.1,0.5,1.7
			l-1.1,0.3l0.6,2.4l23.1-7L99,169.1z"/>
	</g>
	<g>
		<defs>
			<rect id="SVGID_59_" x="4.1" y="14.8" width="551.9" height="373.9"/>
		</defs>
		<clipPath id="SVGID_60_">
			<use xlink:href="#SVGID_59_"  overflow="visible"/>
		</clipPath>
		<path clip-path="url(#SVGID_60_)" fill="#265EA9" d="M122.1,162.3l1.1-0.3c0.5,0.3,0.9,0.5,1.6,0.3c0.9-0.3,1.4-1.3,1.1-2.1
			c-0.3-0.9-1.3-1.4-2.1-1.1c-0.6,0.2-0.9,0.6-1.1,1.1l-1.1,0.3l-0.6-2.4L97.9,165l0.6,2.4l1.1-0.3c0.2-0.5,0.6-0.9,1.1-1.1
			c0.9-0.3,1.9,0.2,2.1,1.1c0.3,0.9-0.3,1.9-1.1,2.1c-0.6,0.2-1.1,0-1.6-0.3l-1.1,0.3l0.6,2.4l23.1-7L122.1,162.3z"/>
	</g>
	<g>
		<defs>
			<rect id="SVGID_61_" x="4.1" y="14.8" width="551.9" height="373.9"/>
		</defs>
		<clipPath id="SVGID_62_">
			<use xlink:href="#SVGID_61_"  overflow="visible"/>
		</clipPath>
		<path clip-path="url(#SVGID_62_)" fill="#EE7364" d="M145,155.5l1.1-0.3c0.5,0.3,0.9,0.5,1.6,0.3c0.9-0.3,1.4-1.3,1.1-2.1
			c-0.3-0.9-1.3-1.4-2.1-1.1c-0.6,0.2-0.9,0.6-1.1,1.1l-1.1,0.3l-0.6-2.4l-23.1,6.8l0.6,2.4l1.1-0.3c0.2-0.5,0.6-0.9,1.1-1.1
			c0.9-0.3,1.9,0.2,2.1,1.1c0.3,0.9-0.3,1.9-1.1,2.1c-0.6,0.2-1.1,0-1.6-0.3l-1.1,0.3l0.6,2.4l23.1-7L145,155.5z"/>
	</g>
	<g>
		<defs>
			<rect id="SVGID_63_" x="4.1" y="14.8" width="551.9" height="373.9"/>
		</defs>
		<clipPath id="SVGID_64_">
			<use xlink:href="#SVGID_63_"  overflow="visible"/>
		</clipPath>
		<path clip-path="url(#SVGID_64_)" fill="#EE7364" d="M214.5,134.8l1.1-0.3c0.5,0.3,0.9,0.5,1.6,0.3c0.9-0.3,1.4-1.3,1.1-2.1
			c-0.3-0.9-1.3-1.4-2.1-1.1c-0.6,0.2-0.9,0.6-1.1,1.1l-1.1,0.3l-0.6-2.4l-23.1,6.8l0.6,2.4l1.1-0.3c0.2-0.5,0.6-0.9,1.1-1.1
			c0.9-0.3,1.9,0.2,2.1,1.1c0.3,0.9-0.3,1.9-1.1,2.1c-0.6,0.2-1.1,0-1.6-0.3l-1.1,0.3l0.6,2.4l23.1-7L214.5,134.8z"/>
	</g>
	<g>
		<defs>
			<rect id="SVGID_65_" x="4.1" y="14.8" width="551.9" height="373.9"/>
		</defs>
		<clipPath id="SVGID_66_">
			<use xlink:href="#SVGID_65_"  overflow="visible"/>
		</clipPath>
		<path clip-path="url(#SVGID_66_)" fill="#265EA9" d="M237.4,128l1.1-0.3c0.5,0.3,0.9,0.5,1.6,0.3c0.9-0.3,1.4-1.3,1.1-2.1
			c-0.3-0.9-1.3-1.4-2.1-1.1c-0.6,0.2-0.9,0.6-1.1,1.1l-1.1,0.3l-0.6-2.4l-23.1,6.8l0.6,2.4l1.1-0.3c0.2-0.5,0.6-0.9,1.1-1.1
			c0.9-0.3,1.9,0.2,2.1,1.1c0.2,0.9-0.3,1.9-1.1,2.1c-0.6,0.2-1.1,0-1.6-0.3l-1.1,0.3l0.6,2.4l23.1-7L237.4,128z"/>
	</g>
	<g>
		<defs>
			<rect id="SVGID_67_" x="4.1" y="14.8" width="551.9" height="373.9"/>
		</defs>
		<clipPath id="SVGID_68_">
			<use xlink:href="#SVGID_67_"  overflow="visible"/>
		</clipPath>
		<path clip-path="url(#SVGID_68_)" fill="#FBFCF2" d="M260.5,121.1l1.1-0.3c0.5,0.3,0.9,0.5,1.6,0.3c0.9-0.3,1.4-1.3,1.1-2.1
			c-0.3-0.9-1.3-1.4-2.1-1.1c-0.6,0.2-0.9,0.6-1.1,1.1l-1.1,0.3l-0.6-2.4l-23.1,6.8l0.6,2.4l1.1-0.3c0.2-0.5,0.6-0.9,1.1-1.1
			c0.9-0.3,1.9,0.2,2.1,1.1c0.2,0.9-0.3,1.9-1.1,2.1c-0.6,0.2-1.1,0-1.6-0.3l-1.1,0.3l0.6,2.4l23.1-7L260.5,121.1z"/>
	</g>
	<g>
		<defs>
			<rect id="SVGID_69_" x="4.1" y="14.8" width="551.9" height="373.9"/>
		</defs>
		<clipPath id="SVGID_70_">
			<use xlink:href="#SVGID_69_"  overflow="visible"/>
		</clipPath>
		<path clip-path="url(#SVGID_70_)" fill="#265EA9" d="M76.3,176l1.1-0.3c0.5,0.3,0.9,0.5,1.6,0.3c0.9-0.3,1.4-1.3,1.1-2.1
			c-0.3-0.9-1.3-1.4-2.1-1.1c-0.6,0.2-0.9,0.6-1.1,1.1l-1.1,0.3l-0.6-2.4l-23.1,6.8l0.6,2.4l1.1-0.3c0.2-0.5,0.6-0.9,1.1-1.1
			c0.9-0.3,1.9,0.2,2.1,1.1c0.3,0.9-0.3,1.9-1.1,2.1c-0.6,0.2-1.1,0-1.6-0.3l-1.1,0.3l0.6,2.4l23.1-7L76.3,176z"/>
	</g>
	<g>
		<defs>
			<rect id="SVGID_71_" x="4.1" y="14.8" width="551.9" height="373.9"/>
		</defs>
		<clipPath id="SVGID_72_">
			<use xlink:href="#SVGID_71_"  overflow="visible"/>
		</clipPath>
		<path clip-path="url(#SVGID_72_)" fill="#265EA9" d="M53.2,45.9l-0.3-1.1c0.3-0.5,0.5-0.9,0.3-1.6c-0.3-0.9-1.1-1.4-2.1-1.1
			s-1.4,1.1-1.1,2.1c0.2,0.6,0.6,0.9,1.1,1.1l0.3,1.1L49.1,47l7.4,26.2l1.6-3.6l-0.5-1.1c-0.5-0.2-0.9-0.6-1.1-1.1
			c-0.3-0.9,0.3-1.7,1.1-2.1c0.9-0.3,1.9,0.3,2.1,1.1c0.2,0.6,0,1.1-0.3,1.6l0.3,1.1l2.8,1.1l-7.1-25L53.2,45.9z"/>
	</g>
	<g>
		<defs>
			<rect id="SVGID_73_" x="4.1" y="14.8" width="551.9" height="373.9"/>
		</defs>
		<clipPath id="SVGID_74_">
			<use xlink:href="#SVGID_73_"  overflow="visible"/>
		</clipPath>
		<path clip-path="url(#SVGID_74_)" fill="#EE7364" d="M85.9,161.8l-0.3-1.1c0.3-0.5,0.5-0.9,0.3-1.6c-0.3-0.9-1.1-1.4-2.1-1.1
			c-0.9,0.3-1.4,1.1-1.1,2.1c0.2,0.6,0.6,0.9,1.1,1.1l0.3,1.1l-2.4,0.6l7.4,26.1l1.6-3.6l-0.3-1.1c-0.5-0.2,2.1,0.6,2.1,0.6l2.7,0.5
			l-7-24.3L85.9,161.8z"/>
	</g>
	<g>
		<defs>
			<rect id="SVGID_75_" x="4.1" y="14.8" width="551.9" height="373.9"/>
		</defs>
		<clipPath id="SVGID_76_">
			<use xlink:href="#SVGID_75_"  overflow="visible"/>
		</clipPath>
		<path clip-path="url(#SVGID_76_)" fill="#FBFCF2" d="M105.7,231.2l-0.3-1.1c0.3-0.5,0.5-0.9,0.3-1.6c-0.3-0.9-1.1-1.4-2.1-1.1
			c-0.9,0.3-1.4,1.1-1.1,2.1c0.2,0.6,0.6,0.9,1.1,1.1l0.3,1.1l-2.4,0.6l6.5,23.1l2.4-0.6l-0.3-1.1c-0.5-0.2,2.1-0.9,1.7-0.5l0.3,1.1
			l2.4-0.6l-6.6-23.2L105.7,231.2z"/>
	</g>
	<g>
		<defs>
			<rect id="SVGID_77_" x="4.1" y="14.8" width="551.9" height="373.9"/>
		</defs>
		<clipPath id="SVGID_78_">
			<use xlink:href="#SVGID_77_"  overflow="visible"/>
		</clipPath>
		<path clip-path="url(#SVGID_78_)" fill="#265EA9" d="M99,208.1l-0.3-1.1c0.3-0.5,0.5-0.9,0.3-1.6c-0.3-0.9-1.1-1.4-2.1-1.1
			c-0.9,0.3-1.4,1.1-1.1,2.1c0.2,0.6,0.6,0.9,1.1,1.1l0.3,1.1l-2.4,0.6l6.5,23.1l2.4-0.6l-0.3-1.1c-0.5-0.2-0.9-0.6-1.1-1.1
			c-0.3-0.9,0.3-1.7,1.1-2.1c0.9-0.3,1.9,0.3,2.1,1.1c0.2,0.6,0,1.1-0.3,1.6l0.3,1.1l2.4-0.6l-6.5-23.1L99,208.1z"/>
	</g>
	<g>
		<defs>
			<rect id="SVGID_79_" x="4.1" y="14.8" width="551.9" height="373.9"/>
		</defs>
		<clipPath id="SVGID_80_">
			<use xlink:href="#SVGID_79_"  overflow="visible"/>
		</clipPath>
		<path clip-path="url(#SVGID_80_)" fill="#FBFCF2" d="M92.6,185l-0.3-1.1c0.3-0.5,0.5-0.9,0.3-1.6c-0.3-0.9-1.1-1.4-2.1-1.1
			c-0.9,0.3-1.4,1.1-1.1,2.1c0.2,0.6,0.6,0.9,1.1,1.1l0.3,1.1l-2.4,0.6l6.5,23.1l2.4-0.6l-0.3-1.1c-0.5-0.2-0.9-0.6-1.1-1.1
			c-0.3-0.9,0.3-1.7,1.1-2.1c0.9-0.3,1.9,0.3,2.1,1.1c0.2,0.6,0,1.1-0.3,1.6l0.3,1.1l2.4-0.6l-6.6-23.2L92.6,185z"/>
	</g>
	<g>
		<defs>
			<rect id="SVGID_81_" x="4.1" y="14.8" width="551.9" height="373.9"/>
		</defs>
		<clipPath id="SVGID_82_">
			<use xlink:href="#SVGID_81_"  overflow="visible"/>
		</clipPath>
		<path clip-path="url(#SVGID_82_)" fill="#265EA9" d="M79.4,138.6l-0.3-1.1c0.3-0.5,0.5-0.9,0.3-1.6c-0.3-0.9-1.1-1.4-2.1-1.1
			c-0.9,0.3-1.4,1.1-1.1,2.1c0.2,0.6,0.6,0.9,1.1,1.1l0.3,1.1l-2.4,0.6l6.5,23.1l2.4-0.6l-0.3-1.1c-0.5-0.2-0.9-0.6-1.1-1.1
			c-0.3-0.9,0.3-1.7,1.1-2.1c0.9-0.3,1.9,0.3,2.1,1.1c0.2,0.6,0,1.1-0.3,1.6l0.3,1.1l2.4-0.6L81.8,138L79.4,138.6z"/>
	</g>
	<g>
		<defs>
			<rect id="SVGID_83_" x="4.1" y="14.8" width="551.9" height="373.9"/>
		</defs>
		<clipPath id="SVGID_84_">
			<use xlink:href="#SVGID_83_"  overflow="visible"/>
		</clipPath>
		<path clip-path="url(#SVGID_84_)" fill="#FBFCF2" d="M72.8,115.4l-0.3-1.1c0.3-0.5,0.5-0.9,0.3-1.6c-0.3-0.9-1.1-1.4-2.1-1.1
			s-1.4,1.1-1.1,2.1c0.2,0.6,0.6,0.9,1.1,1.1l0.3,1.1l-2.4,0.6l6.5,23.1l2.4-0.6l-0.2-0.9c-0.5-0.2-0.9-0.6-1.1-1.1
			c-0.3-0.9,0.3-1.7,1.1-2.1c0.9-0.3,1.9,0.3,2.1,1.1c0.2,0.6,0,1.1-0.3,1.6l0.3,1.1l2.4-0.6l-6.6-23.4L72.8,115.4z"/>
	</g>
	<g>
		<defs>
			<rect id="SVGID_85_" x="4.1" y="14.8" width="551.9" height="373.9"/>
		</defs>
		<clipPath id="SVGID_86_">
			<use xlink:href="#SVGID_85_"  overflow="visible"/>
		</clipPath>
		<path clip-path="url(#SVGID_86_)" fill="#EE7364" d="M66.3,92.3L66,91.2c0.3-0.5,0.5-0.9,0.3-1.6c-0.3-0.9-1.1-1.4-2.1-1.1
			s-1.4,1.1-1.1,2.1c0.2,0.6,0.6,0.9,1.1,1.1l0.3,1.1l-2.4,0.6l6.5,23.1l2.4-0.6l-0.3-1.1c-0.5-0.2-0.9-0.6-1.1-1.1
			c-0.3-0.9,0.3-1.7,1.1-2.1c0.8-0.3,1.9,0.3,2.1,1.1c0.2,0.6,0,1.1-0.3,1.6l0.3,1.1l2.4-0.6l-6.6-23.2L66.3,92.3z"/>
	</g>
	<g>
		<defs>
			<rect id="SVGID_87_" x="4.1" y="14.8" width="551.9" height="373.9"/>
		</defs>
		<clipPath id="SVGID_88_">
			<use xlink:href="#SVGID_87_"  overflow="visible"/>
		</clipPath>
		<path clip-path="url(#SVGID_88_)" fill="#FBFCF2" d="M59.9,69.1L59.5,68c0.3-0.5,0.5-0.9,0.3-1.6c-0.3-0.9-1.1-1.4-2.1-1.1
			s-1.4,1.1-1.1,2.1c0.2,0.6,0.6,0.9,1.1,1.1l0.3,1.1l-2.4,0.6l6.5,23.1l2.4-0.6l-0.3-1.1c-0.5-0.2-0.9-0.6-1.1-1.1
			c-0.3-0.9,0.3-1.7,1.1-2.1c0.9-0.3,1.9,0.3,2.1,1.1c0.2,0.6,0,1.1-0.3,1.6l0.3,1.1l2.4-0.6l-6.6-23.1L59.9,69.1z"/>
	</g>
	<g>
		<defs>
			<rect id="SVGID_89_" x="4.1" y="14.8" width="551.9" height="373.9"/>
		</defs>
		<clipPath id="SVGID_90_">
			<use xlink:href="#SVGID_89_"  overflow="visible"/>
		</clipPath>
		<path clip-path="url(#SVGID_90_)" fill="#EE7364" d="M112.1,254.1l-0.3-1.1c0.3-0.5,0.5-0.9,0.3-1.6c-0.3-0.9-1.1-1.4-2.1-1.1
			c-0.9,0.3-1.4,1.1-1.1,2.1c0.2,0.6,0.6,0.9,1.1,1.1l0.3,1.1l-2.4,0.6l6.5,23.1l2.4-0.6l-0.3-1.1c-0.5-0.2-0.9-0.6-1.1-1.1
			c-0.3-0.9,0.3-1.7,1.1-2.1c0.9-0.3,1.9,0.3,2.1,1.1c0.2,0.6,0,1.1-0.3,1.6l0.3,1.1l2.4-0.6l-6.6-23.2L112.1,254.1z"/>
	</g>
	<g>
		<defs>
			<rect id="SVGID_91_" x="4.1" y="14.8" width="551.9" height="373.9"/>
		</defs>
		<clipPath id="SVGID_92_">
			<use xlink:href="#SVGID_91_"  overflow="visible"/>
		</clipPath>
		<path clip-path="url(#SVGID_92_)" fill="#265EA9" d="M117.7,106.8l-1.1,0.3c-0.5-0.3-0.9-0.5-1.6-0.3c-0.9,0.3-1.4,1.3-1.1,2.1
			c0.3,0.9,1.3,1.4,2.1,1.1c0.6-0.2,0.9-0.6,1.1-1.1l1.1-0.3l0.6,2.4l23.1-7l-0.6-2.4l-1.1,0.3c-0.2,0.5-0.6,0.9-1.1,1.1
			c-0.9,0.3-1.9-0.2-2.1-1.1c-0.3-0.9,0.2-1.9,1.1-2.1c0.6-0.2,1.1,0,1.6,0.3l1.1-0.3l-0.6-2.4l-23.1,7L117.7,106.8z"/>
	</g>
	<g>
		<defs>
			<rect id="SVGID_93_" x="4.1" y="14.8" width="551.9" height="373.9"/>
		</defs>
		<clipPath id="SVGID_94_">
			<use xlink:href="#SVGID_93_"  overflow="visible"/>
		</clipPath>
		<path clip-path="url(#SVGID_94_)" fill="#EE7364" d="M139.9,97.7l0.6,2.2l-1.1,0.3c-0.5-0.3-0.9-0.5-1.6-0.3
			c-0.9,0.3-1.4,1.3-1.1,2.1c0.3,0.9,1.3,1.4,2.1,1.1c0.6-0.2,0.9-0.6,1.1-1.1l1.1-0.3l0.8,2.4c11.7-3.6,24.3,3,27.8,14.7l6.5-1.9
			C171.4,101.5,155.4,92.9,139.9,97.7"/>
	</g>
	<g>
		<defs>
			<rect id="SVGID_95_" x="4.1" y="14.8" width="551.9" height="373.9"/>
		</defs>
		<clipPath id="SVGID_96_">
			<use xlink:href="#SVGID_95_"  overflow="visible"/>
		</clipPath>
		<path clip-path="url(#SVGID_96_)" fill="#265EA9" d="M173.7,117.4l-0.3-1.1c0.3-0.5,0.5-0.9,0.3-1.6c-0.3-0.9-1.3-1.4-2.1-1.1
			c-0.9,0.3-1.4,1.3-1.1,2.1c0.2,0.6,0.6,0.9,1.1,1.1l0.3,1.1l-2.4,0.6l7,23.1l2.4-0.6l-0.3-1.1c-0.5-0.2-0.9-0.6-1.1-1.1
			c-0.3-0.9,0.2-1.9,1.1-2.1c0.9-0.3,1.9,0.2,2.1,1.1c0.2,0.6,0,1.1-0.3,1.6l0.3,1.1l2.4-0.6l-7-23.1L173.7,117.4z"/>
	</g>
	<g>
		<defs>
			<rect id="SVGID_97_" x="4.1" y="14.8" width="551.9" height="373.9"/>
		</defs>
		<clipPath id="SVGID_98_">
			<use xlink:href="#SVGID_97_"  overflow="visible"/>
		</clipPath>
		<path clip-path="url(#SVGID_98_)" fill="#FBFCF2" d="M177.2,82l-2.4,0.8l0,0l-0.3-1.1c0.3-0.5,0.5-0.9,0.3-1.6
			c-0.3-0.9-1.3-1.4-2.1-1.1c-0.9,0.3-1.4,1.3-1.1,2.1c0.2,0.6,0.6,0.9,1.1,1.1l0.3,1.1l0,0l-2.2,0.6c1.1,3.5-0.9,7.1-4.4,8.1
			c-3.5,1.1-7.1-0.9-8.1-4.4l-6.3,1.9c2.1,7,9.5,10.9,16.4,8.8C175.5,96.3,179.4,88.8,177.2,82"/>
	</g>
	<g>
		<defs>
			<rect id="SVGID_99_" x="4.1" y="14.8" width="551.9" height="373.9"/>
		</defs>
		<clipPath id="SVGID_100_">
			<use xlink:href="#SVGID_99_"  overflow="visible"/>
		</clipPath>
		<path clip-path="url(#SVGID_100_)" fill="#265EA9" d="M197.8,27.9l-0.3-1.1c0.3-0.5,0.5-0.9,0.3-1.6c-0.3-0.9-1.1-1.4-2.1-1.1
			s-1.4,1.1-1.1,2.1c0.2,0.6,0.6,0.9,1.1,1.1l0.3,1.1l-2.4,0.8l7.4,26.1l1.6-3.6l-0.3-1.1c-0.5-0.2-0.9-0.6-1.1-1.1
			c-0.3-0.9,0.3-1.7,1.1-2.1c0.9-0.3,1.9,0.3,2.1,1.1c0.2,0.6,0,1.1-0.3,1.6l0.3,1.1l2.8,1.1l-7.1-25L197.8,27.9z"/>
	</g>
	<g>
		<defs>
			<rect id="SVGID_101_" x="4.1" y="14.8" width="551.9" height="373.9"/>
		</defs>
		<clipPath id="SVGID_102_">
			<use xlink:href="#SVGID_101_"  overflow="visible"/>
		</clipPath>
		<path clip-path="url(#SVGID_102_)" fill="#265EA9" d="M224,120.6l-0.3-1.1c0.3-0.5,0.5-0.9,0.3-1.6c-0.3-0.9-1.1-1.4-2.1-1.1
			c-0.9,0.3-1.4,1.1-1.1,2.1c0.2,0.6,0.6,0.9,1.1,1.1l0.3,1.1l-2.4,0.6l3.6,13l6.5-1.9l-3.6-12.8L224,120.6z"/>
	</g>
	<g>
		<defs>
			<rect id="SVGID_103_" x="4.1" y="14.8" width="551.9" height="373.9"/>
		</defs>
		<clipPath id="SVGID_104_">
			<use xlink:href="#SVGID_103_"  overflow="visible"/>
		</clipPath>
		<path clip-path="url(#SVGID_104_)" fill="#FBFCF2" d="M217.5,97.4l-0.3-1.1c0.3-0.5,0.5-0.9,0.3-1.6c-0.3-0.9-1.1-1.4-2.1-1.1
			s-1.4,1.1-1.1,2.1c0.2,0.6,0.6,0.9,1.1,1.1l0.3,1.1l-2.4,0.6l6.5,23.1l2.4-0.6l-0.3-1.1c-0.5-0.2-0.9-0.6-1.1-1.1
			c-0.3-0.9,0.3-1.7,1.1-2.1c0.9-0.3,1.9,0.3,2.1,1.1c0.2,0.6,0,1.1-0.3,1.6l0.3,1.1l2.4-0.6l-6.6-23.2L217.5,97.4z"/>
	</g>
	<g>
		<defs>
			<rect id="SVGID_105_" x="4.1" y="14.8" width="551.9" height="373.9"/>
		</defs>
		<clipPath id="SVGID_106_">
			<use xlink:href="#SVGID_105_"  overflow="visible"/>
		</clipPath>
		<path clip-path="url(#SVGID_106_)" fill="#265EA9" d="M210.9,74.3l-0.3-1.1c0.3-0.5,0.5-0.9,0.3-1.6c-0.3-0.9-1.1-1.4-2.1-1.1
			c-0.9,0.3-1.4,1.1-1.1,2.1c0.2,0.6,0.6,0.9,1.1,1.1l0.3,1.1l-2.4,0.6l6.5,23.1l2.4-0.6l-0.3-1.1c-0.5-0.2-0.9-0.6-1.1-1.1
			c-0.3-0.9,0.3-1.7,1.1-2.1c0.9-0.3,1.9,0.3,2.1,1.1c0.2,0.6,0,1.1-0.3,1.6l0.3,1.1l2.4-0.6l-6.6-23.2L210.9,74.3z"/>
	</g>
	<g>
		<defs>
			<rect id="SVGID_107_" x="4.1" y="14.8" width="551.9" height="373.9"/>
		</defs>
		<clipPath id="SVGID_108_">
			<use xlink:href="#SVGID_107_"  overflow="visible"/>
		</clipPath>
		<path clip-path="url(#SVGID_108_)" fill="#EE7364" d="M204.4,51.1l-0.3-1.1c0.3-0.5,0.5-0.9,0.3-1.6c-0.3-0.9-1.1-1.4-2.1-1.1
			c-0.9,0.3-1.4,1.1-1.1,2.1c0.2,0.6,0.6,0.9,1.1,1.1l0.3,1.1l-2.4,0.6l6.5,23.1l2.4-0.6l-0.3-1.1c-0.5-0.2-0.9-0.6-1.1-1.1
			c-0.3-0.9,0.3-1.7,1.1-2.1c0.9-0.3,1.9,0.3,2.1,1.1c0.2,0.6,0,1.1-0.3,1.6l0.3,1.1l2.4-0.6l-6.5-23.2L204.4,51.1z"/>
	</g>
	<g>
		<defs>
			<rect id="SVGID_109_" x="4.1" y="14.8" width="551.9" height="373.9"/>
		</defs>
		<clipPath id="SVGID_110_">
			<use xlink:href="#SVGID_109_"  overflow="visible"/>
		</clipPath>
		<path clip-path="url(#SVGID_110_)" fill="#265EA9" d="M285.1,29.4l-0.2-1.1c0.3-0.3,0.6-0.9,0.6-1.4c-0.2-0.9-0.9-1.6-1.9-1.4
			s-1.6,0.9-1.4,1.9c0,0.6,0.5,1.1,0.9,1.3l0.2,1.1l-2.4,0.3l3.3,26.9l2.1-3.3l-0.2-1.1c-0.5-0.3-0.8-0.8-0.9-1.3
			c-0.2-0.9,0.5-1.7,1.4-1.9c0.9-0.2,1.7,0.5,1.9,1.4c0,0.6-0.2,1.1-0.6,1.4l0.2,1.1l2.7,1.6l-3.2-25.7L285.1,29.4z"/>
	</g>
	<g>
		<defs>
			<rect id="SVGID_111_" x="4.1" y="14.8" width="551.9" height="373.9"/>
		</defs>
		<clipPath id="SVGID_112_">
			<use xlink:href="#SVGID_111_"  overflow="visible"/>
		</clipPath>
		<path clip-path="url(#SVGID_112_)" fill="#FBFCF2" d="M293.6,101l-0.2-1.1c0.3-0.3,0.6-0.9,0.6-1.4c-0.2-0.9-0.9-1.6-1.9-1.4
			c-0.9,0.2-1.6,0.9-1.4,1.9c0,0.6,0.5,1.1,0.9,1.3l0.2,1.1l-2.4,0.3l2.8,23.9l2.4-0.3l1.7-0.2l2.4-0.3l-2.8-24L293.6,101z"/>
	</g>
	<g>
		<defs>
			<rect id="SVGID_113_" x="4.1" y="14.8" width="551.9" height="373.9"/>
		</defs>
		<clipPath id="SVGID_114_">
			<use xlink:href="#SVGID_113_"  overflow="visible"/>
		</clipPath>
		<path clip-path="url(#SVGID_114_)" fill="#EE7364" d="M290.8,77.3l-0.2-1.1c0.3-0.3,0.6-0.9,0.6-1.4c-0.2-0.9-0.9-1.6-1.9-1.4
			s-1.6,0.9-1.4,1.9c0,0.6,0.5,1.1,0.9,1.3l0.2,1.1l-2.4,0.3l2.8,23.9l2.4-0.3l-0.2-1.1c-0.5-0.3-0.8-0.8-0.9-1.3
			c-0.2-0.9,0.5-1.7,1.4-1.9c0.9-0.2,1.7,0.5,1.9,1.4c0,0.6-0.2,1.1-0.6,1.4l0.2,1.1l2.4-0.3L293.2,77L290.8,77.3z"/>
	</g>
	<g>
		<defs>
			<rect id="SVGID_115_" x="4.1" y="14.8" width="551.9" height="373.9"/>
		</defs>
		<clipPath id="SVGID_116_">
			<use xlink:href="#SVGID_115_"  overflow="visible"/>
		</clipPath>
		<path clip-path="url(#SVGID_116_)" fill="#FBFCF2" d="M287.9,53.5l-0.2-1.1c0.3-0.3,0.6-0.9,0.6-1.4c-0.2-0.9-0.9-1.6-1.9-1.4
			c-0.9,0.2-1.6,0.9-1.4,1.9c0,0.6,0.5,1.1,0.9,1.3l0.2,1.1l-2.4,0.3l2.8,23.9l2.4-0.3l-0.2-1.1c-0.5-0.3-0.8-0.8-0.9-1.3
			c-0.2-0.9,0.5-1.7,1.4-1.9c0.9-0.2,1.7,0.5,1.9,1.4c0,0.6-0.2,1.1-0.6,1.4l0.2,1.1l2.4-0.3l-2.8-24L287.9,53.5z"/>
	</g>
	<g>
		<defs>
			<rect id="SVGID_117_" x="4.1" y="14.8" width="551.9" height="373.9"/>
		</defs>
		<clipPath id="SVGID_118_">
			<use xlink:href="#SVGID_117_"  overflow="visible"/>
		</clipPath>
		<path clip-path="url(#SVGID_118_)" fill="#EE7364" d="M297.1,122.2c0,0.6-0.2,1.1-0.6,1.4l0.2,1.1l2.4-0.2
			c0.6,7.9,0.3,13.6-1.6,20.5c-0.2,0.8-0.5,1.6-0.8,2.4l-6.6-1.9c2.4-6,2.8-13.6,2.2-20.5l2.5-0.2v-1.1c-0.5-0.3-0.9-0.8-0.9-1.4
			c0-0.9,0.6-1.7,1.6-1.9C296.2,120.4,297.1,121.2,297.1,122.2"/>
	</g>
	<g>
		<defs>
			<rect id="SVGID_119_" x="4.1" y="14.8" width="551.9" height="373.9"/>
		</defs>
		<clipPath id="SVGID_120_">
			<use xlink:href="#SVGID_119_"  overflow="visible"/>
		</clipPath>
		<path clip-path="url(#SVGID_120_)" fill="#265EA9" d="M290,145.5l2.4,0.6l0.3-1.1c-0.3-0.5-0.5-0.9-0.3-1.6
			c0.3-0.9,1.3-1.4,2.2-1.1c0.9,0.3,1.4,1.3,1.1,2.1c-0.2,0.6-0.6,0.9-1.1,1.1l-0.3,1.1l2.4,0.6c-3.5,12,3.5,25,15.6,28.4l-1.9,6.6
			C294.6,178.1,285.4,161.7,290,145.5"/>
	</g>
	<g>
		<defs>
			<rect id="SVGID_121_" x="4.1" y="14.8" width="551.9" height="373.9"/>
		</defs>
		<clipPath id="SVGID_122_">
			<use xlink:href="#SVGID_121_"  overflow="visible"/>
		</clipPath>
		<path clip-path="url(#SVGID_122_)" fill="#EE7364" d="M311.5,178.4l-1.1-0.3c-0.2-0.5-0.6-0.9-1.1-1.1c-0.9-0.3-1.7,0.3-2.1,1.1
			c-0.3,0.9,0.3,1.9,1.1,2.1c0.6,0.2,1.1,0,1.6-0.3l1.1,0.3l-0.6,2.4l26.1,7.4l-2.2-3.2l-1.1-0.3c-0.5,0.3-0.9,0.5-1.6,0.3
			c-0.9-0.3-1.4-1.1-1.1-2.1c0.3-0.9,1.1-1.4,2.1-1.1c0.6,0.2,0.9,0.6,1.1,1.1l1.1,0.3l2.4-1.9l-25-7.1L311.5,178.4z"/>
	</g>
	<g>
		<defs>
			<rect id="SVGID_123_" x="4.1" y="14.8" width="551.9" height="373.9"/>
		</defs>
		<clipPath id="SVGID_124_">
			<use xlink:href="#SVGID_123_"  overflow="visible"/>
		</clipPath>
		<path clip-path="url(#SVGID_124_)" fill="#265EA9" d="M357.8,191.3l-1.1-0.3c-0.2-0.5-0.6-0.9-1.1-1.1c-0.9-0.3-1.7,0.3-2.1,1.1
			c-0.3,0.9,0.3,1.9,1.1,2.1c0.6,0.2,1.1,0,1.6-0.3l1.1,0.3l-0.6,2.4l23.5,6.8l0.8-2.4l-1.6-0.5c-0.5,0.3,2.1-1.1,2.1-1.1l0.8-2.5
			l-23.9-6.6L357.8,191.3z"/>
	</g>
	<g>
		<defs>
			<rect id="SVGID_125_" x="4.1" y="14.8" width="551.9" height="373.9"/>
		</defs>
		<clipPath id="SVGID_126_">
			<use xlink:href="#SVGID_125_"  overflow="visible"/>
		</clipPath>
		<path clip-path="url(#SVGID_126_)" fill="#FBFCF2" d="M334.7,184.9l-1.1-0.3c-0.2-0.5-0.6-0.9-1.1-1.1c-0.9-0.3-1.7,0.3-2.1,1.1
			c-0.3,0.9,0.3,1.9,1.1,2.1c0.6,0.2,1.1,0,1.6-0.3l1.1,0.3l-0.6,2.4l23.1,6.5l0.6-2.4l-1.1-0.3c-0.5,0.3-0.9,0.5-1.6,0.3
			c-0.9-0.3-1.4-1.1-1.1-2.1c0.3-0.9,1.1-1.4,2.1-1.1c0.6,0.2,0.9,0.6,1.1,1.1l1.1,0.3l0.6-2.4l-23.2-6.5L334.7,184.9z"/>
	</g>
	<g>
		<defs>
			<rect id="SVGID_127_" x="4.1" y="14.8" width="551.9" height="373.9"/>
		</defs>
		<clipPath id="SVGID_128_">
			<use xlink:href="#SVGID_127_"  overflow="visible"/>
		</clipPath>
		<path clip-path="url(#SVGID_128_)" fill="#FBFCF2" d="M388.6,189.6l0.3-1.1c0.5-0.2,0.9-0.5,1.1-1.1c0.3-0.9-0.2-1.9-1.1-2.1
			c-0.9-0.3-1.9,0.2-2.1,1.1c-0.2,0.6,0,1.1,0.3,1.6l-0.3,1.1l-2.4-0.8l-7.6,22.9l2.4,0.8l1.7,0.6l2.4,0.8l7.6-22.9L388.6,189.6z"/>
	</g>
	<g>
		<defs>
			<rect id="SVGID_129_" x="4.1" y="14.8" width="551.9" height="373.9"/>
		</defs>
		<clipPath id="SVGID_130_">
			<use xlink:href="#SVGID_129_"  overflow="visible"/>
		</clipPath>
		<path clip-path="url(#SVGID_130_)" fill="#265EA9" d="M396.1,166.7l0.3-1.1c0.5-0.2,0.9-0.5,1.1-1.1c0.3-0.9-0.2-1.9-1.1-2.1
			s-1.9,0.2-2.1,1.1c-0.2,0.6,0,1.1,0.3,1.6l-0.3,1.1l-2.4-0.8l-7.6,22.9l2.4,0.8l0.3-1.1c-0.3-0.5-0.5-0.9-0.3-1.6
			c0.3-0.9,1.3-1.4,2.1-1.1c0.9,0.3,1.4,1.3,1.1,2.1c-0.2,0.6-0.6,0.9-1.1,1.1l-0.3,1.1l2.4,0.8l7.6-22.9L396.1,166.7z"/>
	</g>
	<g>
		<defs>
			<rect id="SVGID_131_" x="4.1" y="14.8" width="551.9" height="373.9"/>
		</defs>
		<clipPath id="SVGID_132_">
			<use xlink:href="#SVGID_131_"  overflow="visible"/>
		</clipPath>
		<path clip-path="url(#SVGID_132_)" fill="#EE7364" d="M381.1,212.2l0.3-1.1c0.5-0.2,0.9-0.5,1.1-1.1c0.3-0.9-0.2-1.9-1.1-2.1
			c-0.9-0.3-1.9,0.2-2.1,1.1c-0.2,0.6,0,1.1,0.3,1.6l-0.3,1.1l-2.4-0.8l-8.5,25.7l3.3-2.1l0.3-1.1c-0.3-0.5-0.5-0.9-0.3-1.6
			c0.3-0.9,1.3-1.4,2.1-1.1c0.9,0.3,1.4,1.3,1.1,2.1c-0.2,0.6-0.6,0.9-1.1,1.1l-0.3,1.1l1.7,2.5l8.1-24.6L381.1,212.2z"/>
	</g>
	<g>
		<defs>
			<rect id="SVGID_133_" x="4.1" y="14.8" width="551.9" height="373.9"/>
		</defs>
		<clipPath id="SVGID_134_">
			<use xlink:href="#SVGID_133_"  overflow="visible"/>
		</clipPath>
		<path clip-path="url(#SVGID_134_)" fill="#FBFCF2" d="M358.7,280.8l0.3-1.1c0.5-0.2,0.9-0.5,1.1-1.1c0.3-0.9-0.2-1.9-1.1-2.1
			c-0.9-0.3-1.9,0.2-2.1,1.1c-0.2,0.6,0,1.1,0.3,1.6l-0.3,1.1l-2.4-0.8l-7.6,22.9l2.4,0.8l0.3-1.1c-0.3-0.5-0.5-0.9-0.3-1.6
			c0.3-0.9,1.3-1.4,2.1-1.1c0.8,0.3,1.4,1.3,1.1,2.1c-0.2,0.6-0.6,0.9-1.1,1.1l-0.3,1.1l2.4,0.8l7.6-22.9L358.7,280.8z"/>
	</g>
	<g>
		<defs>
			<rect id="SVGID_135_" x="4.1" y="14.8" width="551.9" height="373.9"/>
		</defs>
		<clipPath id="SVGID_136_">
			<use xlink:href="#SVGID_135_"  overflow="visible"/>
		</clipPath>
		<path clip-path="url(#SVGID_136_)" fill="#265EA9" d="M366.1,258l0.3-1.1c0.5-0.2,0.9-0.5,1.1-1.1c0.3-0.9-0.2-1.9-1.1-2.1
			c-0.9-0.3-1.9,0.2-2.1,1.1c-0.2,0.6,0,1.1,0.3,1.6l-0.3,1.1l-2.4-0.8l-7.6,22.9l2.4,0.8l0.3-1.1c-0.3-0.5-0.5-0.9-0.3-1.6
			c0.3-0.9,1.3-1.4,2.1-1.1c0.8,0.3,1.4,1.3,1.1,2.1c-0.2,0.6-0.6,0.9-1.1,1.1l-0.3,1.1l2.4,0.8l7.6-22.9L366.1,258z"/>
	</g>
	<g>
		<defs>
			<rect id="SVGID_137_" x="4.1" y="14.8" width="551.9" height="373.9"/>
		</defs>
		<clipPath id="SVGID_138_">
			<use xlink:href="#SVGID_137_"  overflow="visible"/>
		</clipPath>
		<path clip-path="url(#SVGID_138_)" fill="#FBFCF2" d="M373.6,235.1l0.3-1.1c0.5-0.2,0.9-0.5,1.1-1.1c0.3-0.9-0.2-1.9-1.1-2.1
			c-0.9-0.3-1.9,0.2-2.1,1.1c-0.2,0.6,0,1.1,0.3,1.6l-0.3,1.1l-2.4-0.8l-7.6,22.9l2.4,0.8l0.3-1.1c-0.3-0.5-0.5-0.9-0.3-1.6
			c0.3-0.9,1.3-1.4,2.1-1.1c0.8,0.3,1.4,1.3,1.1,2.1c-0.2,0.6-0.6,0.9-1.1,1.1L366,258l2.4,0.8l7.6-22.9L373.6,235.1z"/>
	</g>
	<g>
		<defs>
			<rect id="SVGID_139_" x="4.1" y="14.8" width="551.9" height="373.9"/>
		</defs>
		<clipPath id="SVGID_140_">
			<use xlink:href="#SVGID_139_"  overflow="visible"/>
		</clipPath>
		<path clip-path="url(#SVGID_140_)" fill="#EE7364" d="M395,177.9l-1.1-0.3c-0.2-0.5-0.5-0.9-1.1-1.1c-0.9-0.3-1.9,0.2-2.1,1.1
			c-0.3,0.9,0.2,1.9,1.1,2.1c0.6,0.2,1.1,0,1.6-0.3l1.1,0.3l-0.8,2.4l25.7,8.4l-2.1-3.3l-1.1-0.3c-0.5,0.3-0.9,0.5-1.6,0.3
			c-0.9-0.3-1.4-1.3-1.1-2.1c0.3-0.9,1.3-1.4,2.1-1.1c0.6,0.2,0.9,0.6,1.1,1.1l1.1,0.3l2.5-1.7l-24.6-8.1L395,177.9z"/>
	</g>
	<g>
		<defs>
			<rect id="SVGID_141_" x="4.1" y="14.8" width="551.9" height="373.9"/>
		</defs>
		<clipPath id="SVGID_142_">
			<use xlink:href="#SVGID_141_"  overflow="visible"/>
		</clipPath>
		<path clip-path="url(#SVGID_142_)" fill="#EE7364" d="M509.4,215.4l-1.1-0.3c-0.2-0.5-0.5-0.9-1.1-1.1c-0.9-0.3-1.9,0.2-2.1,1.1
			c-0.3,0.9,0.2,1.9,1.1,2.1c0.6,0.2,1.1,0,1.6-0.3l1.1,0.3l-0.8,2.4l25.7,8.4l-2.1-3.3l-1.1-0.3c-0.5,0.3,1.6-1.4,1.6-1.4l1.9-1.9
			l-24-7.9L509.4,215.4z"/>
	</g>
	<g>
		<defs>
			<rect id="SVGID_143_" x="4.1" y="14.8" width="551.9" height="373.9"/>
		</defs>
		<clipPath id="SVGID_144_">
			<use xlink:href="#SVGID_143_"  overflow="visible"/>
		</clipPath>
		<path clip-path="url(#SVGID_144_)" fill="#FBFCF2" d="M532.3,222.9l-1.1-0.3c-0.2-0.5-0.5-0.9-1.1-1.1c-0.9-0.3-1.9,0.2-2.1,1.1
			c-0.3,0.9,0.2,1.9,1.1,2.1c0.6,0.2,1.1,0,1.6-0.3l1.1,0.3L531,227l22.9,7.4l0.8-2.4l-1.1-0.3c-0.5,0.3-0.9,0.5-1.6,0.3
			c-0.9-0.3-1.4-1.3-1.1-2.1c0.3-0.9,1.3-1.4,2.1-1.1c0.6,0.2,0.9,0.6,1.1,1.1l1.1,0.3l0.8-2.4l-22.9-7.6L532.3,222.9z"/>
	</g>
	<g>
		<defs>
			<rect id="SVGID_145_" x="4.1" y="14.8" width="551.9" height="373.9"/>
		</defs>
		<clipPath id="SVGID_146_">
			<use xlink:href="#SVGID_145_"  overflow="visible"/>
		</clipPath>
		<path clip-path="url(#SVGID_146_)" fill="#FBFCF2" d="M486.5,207.8l-1.1-0.3c-0.2-0.5-0.5-0.9-1.1-1.1c-0.9-0.3-1.9,0.2-2.1,1.1
			c-0.3,0.9,0.2,1.9,1.1,2.1c0.6,0.2,1.1,0,1.6-0.3l1.1,0.3l-0.8,2.4l22.9,7.4l0.8-2.4l-1.1-0.3c-0.5,0.3-0.9,0.5-1.6,0.3
			c-0.9-0.3-1.4-1.3-1.1-2.1c0.3-0.9,1.3-1.4,2.1-1.1c0.6,0.2,0.9,0.6,1.1,1.1l1.1,0.3l0.8-2.4l-22.9-7.6L486.5,207.8z"/>
	</g>
	<g>
		<defs>
			<rect id="SVGID_147_" x="4.1" y="14.8" width="551.9" height="373.9"/>
		</defs>
		<clipPath id="SVGID_148_">
			<use xlink:href="#SVGID_147_"  overflow="visible"/>
		</clipPath>
		<path clip-path="url(#SVGID_148_)" fill="#FBFCF2" d="M417.9,185.3l-1.1-0.3c-0.2-0.5-0.5-0.9-1.1-1.1c-0.9-0.3-1.9,0.2-2.1,1.1
			c-0.3,0.9,0.2,1.9,1.1,2.1c0.6,0.2,1.1,0,1.6-0.3l1.1,0.3l-0.8,2.4l22.9,7.4l0.8-2.4l-1.1-0.3c-0.5,0.3-0.9,0.5-1.6,0.3
			c-0.9-0.3-1.4-1.3-1.1-2.1c0.3-0.9,1.3-1.4,2.1-1.1c0.6,0.2,0.9,0.6,1.1,1.1l1.1,0.3l0.8-2.4l-22.9-7.6L417.9,185.3z"/>
	</g>
	<g>
		<defs>
			<rect id="SVGID_149_" x="4.1" y="14.8" width="551.9" height="373.9"/>
		</defs>
		<clipPath id="SVGID_150_">
			<use xlink:href="#SVGID_149_"  overflow="visible"/>
		</clipPath>
		<path clip-path="url(#SVGID_150_)" fill="#EE7364" d="M492.5,250.3l-0.2,1.1c-0.5,0.3-0.9,0.8-0.9,1.3c-0.2,0.9,0.5,1.7,1.4,1.9
			c0.9,0.2,1.7-0.5,1.9-1.4c0-0.6-0.2-1.1-0.6-1.4l0.2-1.1l2.4,0.3l3.2-26.9l-2.8,2.7l-0.2,1.1c0.3,0.3-1.7-1.4-1.7-1.4l-2.2-1.4
			l-3,25.1L492.5,250.3z"/>
	</g>
	<g>
		<defs>
			<rect id="SVGID_151_" x="4.1" y="14.8" width="551.9" height="373.9"/>
		</defs>
		<clipPath id="SVGID_152_">
			<use xlink:href="#SVGID_151_"  overflow="visible"/>
		</clipPath>
		<path clip-path="url(#SVGID_152_)" fill="#FBFCF2" d="M501,178.7l-0.2,1.1c-0.5,0.3-0.9,0.8-0.9,1.3c-0.2,0.9,0.5,1.7,1.4,1.9
			c0.9,0.2,1.7-0.5,1.9-1.4c0-0.6-0.2-1.1-0.6-1.4l0.2-1.1l2.4,0.3l2.8-23.9l-2.4-0.3l-0.2,1.1c0.3,0.3-2.2,0-1.7-0.2l0.2-1.1
			l-2.4-0.3l-2.8,24H501z"/>
	</g>
	<g>
		<defs>
			<rect id="SVGID_153_" x="4.1" y="14.8" width="551.9" height="373.9"/>
		</defs>
		<clipPath id="SVGID_154_">
			<use xlink:href="#SVGID_153_"  overflow="visible"/>
		</clipPath>
		<path clip-path="url(#SVGID_154_)" fill="#265EA9" d="M498.2,202.6l-0.2,1.1c-0.5,0.3-0.9,0.8-0.9,1.3c-0.2,0.9,0.5,1.7,1.4,1.9
			c0.9,0.2,1.7-0.5,1.9-1.4c0-0.6-0.2-1.1-0.6-1.4l0.2-1.1l2.4,0.3l2.8-23.9l-2.4-0.3l-0.2,1.1c0.3,0.3,0.6,0.9,0.6,1.4
			c-0.2,0.9-0.9,1.6-1.9,1.4c-0.9-0.2-1.6-0.9-1.4-1.9c0-0.6,0.5-1.1,0.9-1.3l0.2-1.1l-2.4-0.3l-2.8,24L498.2,202.6z"/>
	</g>
	<g>
		<defs>
			<rect id="SVGID_155_" x="4.1" y="14.8" width="551.9" height="373.9"/>
		</defs>
		<clipPath id="SVGID_156_">
			<use xlink:href="#SVGID_155_"  overflow="visible"/>
		</clipPath>
		<path clip-path="url(#SVGID_156_)" fill="#FBFCF2" d="M495.3,226.4l-0.2,1.1c-0.5,0.3-0.9,0.8-0.9,1.3c-0.2,0.9,0.5,1.7,1.4,1.9
			c0.9,0.2,1.7-0.5,1.9-1.4c0-0.6-0.2-1.1-0.6-1.4l0.2-1.1l2.4,0.3l2.8-23.9l-2.2-0.5l-0.2,1.1c0.3,0.3,0.6,0.9,0.6,1.4
			c-0.2,0.9-0.9,1.6-1.9,1.4c-0.9-0.2-1.6-0.9-1.4-1.9c0-0.6,0.5-1.1,0.9-1.3l0.2-1.1l-2.4-0.3l-2.8,24L495.3,226.4z"/>
	</g>
	<g>
		<defs>
			<rect id="SVGID_157_" x="4.1" y="14.8" width="551.9" height="373.9"/>
		</defs>
		<clipPath id="SVGID_158_">
			<use xlink:href="#SVGID_157_"  overflow="visible"/>
		</clipPath>
		<path clip-path="url(#SVGID_158_)" fill="#265EA9" d="M489.7,274.3l-0.2,1.1c-0.5,0.3-0.9,0.8-0.9,1.3c-0.2,0.9,0.5,1.7,1.4,1.9
			c0.9,0.2,1.7-0.5,1.9-1.4c0-0.6-0.2-1.1-0.6-1.4l0.2-1.1l2.4,0.3l2.8-23.9l-2.4-0.3l-0.2,1.1c0.3,0.3,0.6,0.9,0.6,1.4
			c-0.2,0.9-0.9,1.6-1.9,1.4c-0.9-0.2-1.6-0.9-1.4-1.9c0-0.6,0.5-1.1,0.9-1.3l0.2-1.1l-2.4-0.3l-2.8,24L489.7,274.3z"/>
	</g>
	<g>
		<defs>
			<rect id="SVGID_159_" x="4.1" y="14.8" width="551.9" height="373.9"/>
		</defs>
		<clipPath id="SVGID_160_">
			<use xlink:href="#SVGID_159_"  overflow="visible"/>
		</clipPath>
		<path clip-path="url(#SVGID_160_)" fill="#EE7364" d="M486.8,298.3l-0.2,1.1c-0.5,0.3-0.9,0.8-0.9,1.3c-0.2,0.9,0.5,1.7,1.4,1.9
			c0.9,0.2,1.7-0.5,1.9-1.4c0-0.6-0.2-1.1-0.6-1.4l0.2-1.1l2.4,0.3l2.8-23.9l-2.4-0.3l-0.2,1.1c0.3,0.3,0.6,0.9,0.6,1.4
			c-0.2,0.9-0.9,1.6-1.9,1.4c-0.9-0.2-1.6-0.9-1.4-1.9c0-0.6,0.5-1.1,0.9-1.3l0.2-1.1l-2.4-0.3l-2.8,24L486.8,298.3z"/>
	</g>
	<g>
		<defs>
			<rect id="SVGID_161_" x="4.1" y="14.8" width="551.9" height="373.9"/>
		</defs>
		<clipPath id="SVGID_162_">
			<use xlink:href="#SVGID_161_"  overflow="visible"/>
		</clipPath>
		<path clip-path="url(#SVGID_162_)" fill="#265EA9" d="M484,322l-0.2,1.1c-0.5,0.3-0.9,0.8-0.9,1.3c-0.2,0.9,0.5,1.7,1.4,1.9
			c0.9,0.2,1.7-0.5,1.9-1.4c0-0.6-0.2-1.1-0.6-1.4l0.2-1.1l2.4,0.3l2.8-23.9l-2.4-0.3l-0.2,1.1c0.3,0.3,0.6,0.9,0.6,1.4
			c-0.2,0.9-0.9,1.6-1.9,1.4c-0.9-0.2-1.6-0.9-1.4-1.9c0-0.6,0.5-1.1,0.9-1.3l0.2-1.1l-2.4-0.3l-2.8,24L484,322z"/>
	</g>
	<g>
		<defs>
			<rect id="SVGID_163_" x="4.1" y="14.8" width="551.9" height="373.9"/>
		</defs>
		<clipPath id="SVGID_164_">
			<use xlink:href="#SVGID_163_"  overflow="visible"/>
		</clipPath>
		<path clip-path="url(#SVGID_164_)" fill="#265EA9" d="M503.9,155l-0.2,1.1c-0.5,0.3-0.9,0.8-0.9,1.3c-0.2,0.9,0.5,1.7,1.4,1.9
			c0.9,0.2,1.7-0.5,1.9-1.4c0-0.6-0.2-1.1-0.6-1.4l0.2-1.1l2.4,0.3l2.8-23.9l-2.4-0.3l-0.2,1.1c0.3,0.3,0.6,0.9,0.6,1.4
			c-0.2,0.9-0.9,1.6-1.9,1.4c-0.9-0.2-1.6-0.9-1.4-1.9c0-0.6,0.5-1.1,0.9-1.3l0.2-1.1l-2.4-0.3l-2.8,24L503.9,155z"/>
	</g>
	<g>
		<defs>
			<rect id="SVGID_165_" x="4.1" y="14.8" width="551.9" height="373.9"/>
		</defs>
		<clipPath id="SVGID_166_">
			<use xlink:href="#SVGID_165_"  overflow="visible"/>
		</clipPath>
		<path clip-path="url(#SVGID_166_)" fill="#EE7364" d="M515.6,86.6c0.2-0.6-0.2-1.1-0.5-1.4l0.2-1.1l2.4,0.3
			c1.1-7.7,1.1-13.3-0.3-20.2c-0.2-0.8-0.3-1.6-0.6-2.4l-6.6,1.6c2.1,6,2.1,13.6,1.1,20.2l2.4,0.3l-0.2,1.1
			c-0.5,0.2-0.9,0.6-0.9,1.3c-0.2,0.9,0.5,1.7,1.4,1.9C514.6,88,515.4,87.4,515.6,86.6"/>
	</g>
	<g>
		<defs>
			<rect id="SVGID_167_" x="4.1" y="14.8" width="551.9" height="373.9"/>
		</defs>
		<clipPath id="SVGID_168_">
			<use xlink:href="#SVGID_167_"  overflow="visible"/>
		</clipPath>
		<path clip-path="url(#SVGID_168_)" fill="#FBFCF2" d="M506.7,131.2l-0.2,1.1c-0.5,0.3-0.9,0.6-0.9,1.3c-0.2,0.9,0.5,1.7,1.4,1.9
			c0.9,0.2,1.7-0.5,1.9-1.4c0.2-0.6-0.2-1.1-0.5-1.4l0.2-1.1l2.4,0.3l3.3-23.9l-2.4-0.3l-0.2,1.1c0.3,0.3-2.2,0-1.7-0.3l0.2-1.1
			l-2.4-0.3l-3.3,23.9L506.7,131.2z"/>
	</g>
	<g>
		<defs>
			<rect id="SVGID_169_" x="4.1" y="14.8" width="551.9" height="373.9"/>
		</defs>
		<clipPath id="SVGID_170_">
			<use xlink:href="#SVGID_169_"  overflow="visible"/>
		</clipPath>
		<path clip-path="url(#SVGID_170_)" fill="#265EA9" d="M510,107.5l-0.2,1.1c-0.5,0.3-0.9,0.6-0.9,1.3c-0.2,0.9,0.5,1.7,1.4,1.9
			c0.9,0.2,1.7-0.5,1.9-1.4c0.2-0.6-0.2-1.1-0.5-1.4l0.2-1.1l2.4,0.3l3.3-23.9l-2.4-0.3l-0.2,1.1c0.3,0.3,0.6,0.9,0.6,1.4
			c-0.2,0.9-0.9,1.6-1.9,1.4c-0.9-0.2-1.6-0.9-1.4-1.9c0.2-0.6,0.5-1.1,0.9-1.3l0.2-1.1l-2.4-0.3l-3.3,23.9L510,107.5z"/>
	</g>
	<g>
		<defs>
			<rect id="SVGID_171_" x="4.1" y="14.8" width="551.9" height="373.9"/>
		</defs>
		<clipPath id="SVGID_172_">
			<use xlink:href="#SVGID_171_"  overflow="visible"/>
		</clipPath>
		<path clip-path="url(#SVGID_172_)" fill="#265EA9" d="M512.4,62.6l0.3,1.1c-0.3,0.3-0.6,0.9-0.5,1.6c0.2,0.9,1.1,1.4,2.1,1.3
			c0.9-0.2,1.4-1.1,1.3-2.1c-0.2-0.6-0.6-0.9-1.1-1.3l-0.3-1.1l2.4-0.6l-6.3-26.2l-1.7,3.5l0.3,1.1c0.5,0.2,0.9,0.6,1.1,1.3
			c0.2,0.9-0.3,1.7-1.3,2.1c-0.9,0.3-1.7-0.3-2.1-1.3c-0.2-0.6,0.2-1.1,0.5-1.6l-0.3-1.1l-2.8-1.3l6,25.3L512.4,62.6z"/>
	</g>
	<g>
		<defs>
			<rect id="SVGID_173_" x="4.1" y="14.8" width="551.9" height="373.9"/>
		</defs>
		<clipPath id="SVGID_174_">
			<use xlink:href="#SVGID_173_"  overflow="visible"/>
		</clipPath>
		<path clip-path="url(#SVGID_174_)" fill="#FBFCF2" d="M506.7,39.1l0.3,1.1c-0.3,0.3-0.6,0.9-0.5,1.6c0.2,0.9,1.1,1.4,2.1,1.3
			c0.9-0.2,1.4-1.1,1.3-2.1c-0.2-0.6-0.6-0.9-1.1-1.3l-0.3-1.1l2.4-0.6l-5.4-23.2l-2.4,0.5l0.2,1.1c0.5,0.2,0.9,0.6,1.1,1.3
			c0.2,0.9-0.3,1.7-1.3,2.1s-1.7-0.3-2.1-1.3c-0.2-0.6,0.2-1.1,0.5-1.6l-0.3-1.1l-2.4,0.5l5.5,23.5L506.7,39.1z"/>
	</g>
	<g>
		<defs>
			<rect id="SVGID_175_" x="4.1" y="14.8" width="551.9" height="373.9"/>
		</defs>
		<clipPath id="SVGID_176_">
			<use xlink:href="#SVGID_175_"  overflow="visible"/>
		</clipPath>
		<path clip-path="url(#SVGID_176_)" fill="#EE7364" d="M466,231l-0.3,1.1c0.3,0.5,0.5,0.9,0.3,1.6c-0.3,0.9-1.3,1.3-2.1,1.1
			c-0.9-0.3-1.4-1.3-1.1-2.2c0.2-0.6,0.6-0.9,1.1-1.1l0.3-1.1l-2.4-0.8l7.9-22.7l2.4,0.8l-0.3,1.1c-0.5,0.2-0.9,0.5-1.1,1.1
			c-0.3,0.9,0.2,1.9,1.1,2.1c0.9,0.3,1.9-0.2,2.2-1.1c0.2-0.6,0-1.1-0.3-1.6l0.3-1.1l2.4,0.8l-7.9,22.7L466,231z"/>
	</g>
	<g>
		<defs>
			<rect id="SVGID_177_" x="4.1" y="14.8" width="551.9" height="373.9"/>
		</defs>
		<clipPath id="SVGID_178_">
			<use xlink:href="#SVGID_177_"  overflow="visible"/>
		</clipPath>
		<path clip-path="url(#SVGID_178_)" fill="#265EA9" d="M450.3,276.5l-0.3,1.1c0.3,0.5,0.5,0.9,0.3,1.6c-0.3,0.9-1.3,1.4-2.1,1.1
			c-0.9-0.3-1.4-1.3-1.1-2.2c0.2-0.6,0.6-0.9,1.1-1.1l0.3-1.1l-2.4-0.8l8.8-25.6l1.3,3.6l-0.3,1.1c-0.5,0.2-0.9,0.5-1.1,1.1
			c-0.3,0.9,0.2,1.9,1.1,2.1c0.9,0.3,1.9-0.2,2.2-1.1c0.2-0.6,0-1.1-0.3-1.6l0.3-1.1l2.8-0.9l-8.4,24.5L450.3,276.5z"/>
	</g>
	<g>
		<defs>
			<rect id="SVGID_179_" x="4.1" y="14.8" width="551.9" height="373.9"/>
		</defs>
		<clipPath id="SVGID_180_">
			<use xlink:href="#SVGID_179_"  overflow="visible"/>
		</clipPath>
		<path clip-path="url(#SVGID_180_)" fill="#FBFCF2" d="M458.1,253.7l-0.3,1.1c0.3,0.5,0.5,0.9,0.3,1.6c-0.3,0.9-1.3,1.3-2.1,1.1
			c-0.9-0.3-1.4-1.3-1.1-2.2c0.2-0.6,0.6-0.9,1.1-1.1l0.3-1.1l-2.4-0.8l7.9-22.7l2.4,0.8l-0.3,1.1c-0.5,0.2-0.9,0.5-1.1,1.1
			c-0.3,0.9,0.2,1.9,1.1,2.1c0.9,0.3,1.9-0.2,2.1-1.1c0.2-0.6,0-1.1-0.3-1.6l0.3-1.1l2.4,0.8l-7.9,22.7L458.1,253.7z"/>
	</g>
	<g>
		<defs>
			<rect id="SVGID_181_" x="4.1" y="14.8" width="551.9" height="373.9"/>
		</defs>
		<clipPath id="SVGID_182_">
			<use xlink:href="#SVGID_181_"  overflow="visible"/>
		</clipPath>
		<path clip-path="url(#SVGID_182_)" fill="#265EA9" d="M381,153.8c0,9.3-16.9,29.2-16.9,29.2S347,163.2,347,153.8
			c0-9.3,7.6-16.9,16.9-16.9C373.4,136.9,381,144.4,381,153.8"/>
	</g>
	<g>
		<defs>
			<rect id="SVGID_183_" x="4.1" y="14.8" width="551.9" height="373.9"/>
		</defs>
		<clipPath id="SVGID_184_">
			<use xlink:href="#SVGID_183_"  overflow="visible"/>
		</clipPath>
		<path clip-path="url(#SVGID_184_)" fill="#FBFCF2" d="M195.1,139.7c-0.3-0.9-1.3-1.4-2.1-1.1c-0.6,0.2-0.9,0.6-1.1,1.1l-1.1,0.3
			l-0.6-2.4l-9.5,2.8l-0.3-0.9c0.3-0.3,0.5-0.9,0.3-1.6c-0.3-0.9-1.1-1.4-2.1-1.3c-0.9,0.2-1.4,1.1-1.3,2.1c0.2,0.6,0.6,0.9,1.1,1.1
			l0.3,0.9l-11.8,3.5l0.6,2.4l1.1-0.3c0.2-0.5,0.6-0.9,1.1-1.1c0.9-0.3,1.9,0.2,2.1,1.1c0.3,0.9-0.3,1.9-1.1,2.1
			c-0.6,0.2-1.1,0-1.6-0.3l-1.1,0.3l0.6,2.4l23.1-7l-0.6-2.4l1.1-0.3c0.5,0.3,0.9,0.5,1.6,0.3C194.9,141.4,195.4,140.5,195.1,139.7"
			/>
	</g>
	<g>
		<defs>
			<rect id="SVGID_185_" x="4.1" y="14.8" width="551.9" height="373.9"/>
		</defs>
		<clipPath id="SVGID_186_">
			<use xlink:href="#SVGID_185_"  overflow="visible"/>
		</clipPath>
		<path clip-path="url(#SVGID_186_)" fill="#FBFCF2" d="M349.6,186.6l-2.4-0.6l0.3-1.1c0.5-0.2,0.9-0.6,1.1-1.1
			c0.3-0.9-0.3-1.7-1.1-2.1c-0.9-0.3-1.9,0.3-2.1,1.1c-0.2,0.6,0,1.1,0.3,1.6l-0.3,1.1l-2.4-0.6"/>
	</g>
	<g>
		<defs>
			<rect id="SVGID_187_" x="4.1" y="14.8" width="551.9" height="373.9"/>
		</defs>
		<clipPath id="SVGID_188_">
			<use xlink:href="#SVGID_187_"  overflow="visible"/>
		</clipPath>
		<path clip-path="url(#SVGID_188_)" fill="#265EA9" d="M484.3,206.4c0.6,0.2,0.9,0.6,1.1,1.1l1.1,0.3l0.8-2.4l-22.9-7.6l-0.8,2.4
			l-1.1-0.3c-0.2-0.5-0.5-0.9-1.1-1.1c-0.9-0.3-1.9,0.2-2.1,1.1c-0.3,0.9,0.2,1.9,1.1,2.1c0.6,0.2,1.1,0,1.6-0.3l1.1,0.3l-0.8,2.4
			l9.8,3.2l0,0l-0.3,1.1c-0.5,0.2-0.9,0.5-1.3,1.1c-0.3,0.9,0.2,1.9,1.1,2.1c0.9,0.3,1.9-0.2,2.2-1.1c0.2-0.6,0-1.1-0.3-1.6l0.3-1.1
			l0,0l11.2,3.6l0.8-2.4l-1.1-0.3c-0.5,0.3-0.9,0.5-1.6,0.3c-0.9-0.3-1.4-1.3-1.1-2.1C482.4,206.5,483.3,206,484.3,206.4"/>
	</g>
	<g>
		<defs>
			<rect id="SVGID_189_" x="4.1" y="14.8" width="551.9" height="373.9"/>
		</defs>
		<clipPath id="SVGID_190_">
			<use xlink:href="#SVGID_189_"  overflow="visible"/>
		</clipPath>
		<path clip-path="url(#SVGID_190_)" fill="#EE7364" d="M461.5,198.9c0.6,0.2,0.9,0.6,1.1,1.1l1.1,0.3l0.8-2.4l-11.8-3.9l0.2-0.9
			c0.5-0.2,0.9-0.6,1.1-1.1c0.2-0.9-0.3-1.7-1.3-2.1c-0.9-0.2-1.7,0.3-2.1,1.3c-0.2,0.6,0,1.1,0.3,1.6l-0.2,0.8l-9.3-3l-0.8,2.4
			l-1.1-0.3c-0.2-0.5-0.5-0.9-1.1-1.1c-0.9-0.3-1.9,0.2-2.1,1.1c-0.3,0.9,0.2,1.9,1.1,2.1c0.6,0.2,1.1,0,1.6-0.3l1.1,0.3l-0.8,2.4
			l22.9,7.4l0.8-2.4l-1.1-0.3c-0.5,0.3-0.9,0.5-1.6,0.3c-0.9-0.3-1.4-1.3-1.1-2.1C459.6,199.1,460.6,198.6,461.5,198.9"/>
	</g>
	<g>
		<defs>
			<rect id="SVGID_191_" x="4.1" y="14.8" width="551.9" height="373.9"/>
		</defs>
		<clipPath id="SVGID_192_">
			<use xlink:href="#SVGID_191_"  overflow="visible"/>
		</clipPath>
		<path clip-path="url(#SVGID_192_)" fill="#265EA9" d="M461.4,127.2l0.2-1.1c0.5-0.3,0.8-0.8,0.9-1.3c0.2-0.9-0.6-1.7-1.6-1.9
			c-0.9-0.2-1.7,0.6-1.9,1.6c0,0.6,0.3,1.1,0.6,1.4l-0.2,1.1l-2.4-0.2l-4.3,25.6l2.8-2.5l0.2-1.1c-0.3-0.3-0.6-0.9-0.5-1.6
			c0.2-0.9,0.9-1.6,1.9-1.4c0.9,0.2,1.6,0.9,1.4,1.9c-0.2,0.6-0.5,1.1-0.9,1.3l-0.2,1.1l2.2,2.2l4.1-25L461.4,127.2z"/>
	</g>
	<g>
		<defs>
			<rect id="SVGID_193_" x="4.1" y="14.8" width="551.9" height="373.9"/>
		</defs>
		<clipPath id="SVGID_194_">
			<use xlink:href="#SVGID_193_"  overflow="visible"/>
		</clipPath>
		<path clip-path="url(#SVGID_194_)" fill="#FBFCF2" d="M457.6,150.3l0.2-1.1c0.5-0.2,0.9-0.6,0.9-1.3c0.2-0.9-0.5-1.7-1.4-1.9
			c-0.9-0.2-1.7,0.5-1.9,1.4c-0.2,0.6,0.2,1.1,0.5,1.4l-0.2,1.1l-2.4-0.3l-3.6,23.7l2.4,0.3l0.2-1.1c-0.3-0.3-0.6-0.9-0.5-1.6
			c0.2-0.9,0.9-1.6,1.9-1.4c0.9,0.2,1.6,0.9,1.4,1.9c-0.2,0.6-0.5,1.1-0.9,1.3l-0.2,1.1l2.4,0.3l3.6-23.9H457.6z"/>
	</g>
	<g>
		<defs>
			<rect id="SVGID_195_" x="4.1" y="14.8" width="551.9" height="373.9"/>
		</defs>
		<clipPath id="SVGID_196_">
			<use xlink:href="#SVGID_195_"  overflow="visible"/>
		</clipPath>
		<path clip-path="url(#SVGID_196_)" fill="#265EA9" d="M412.6,123.3l0.2-1.1c0.5-0.3,0.8-0.8,0.9-1.3c0.2-0.9-0.6-1.7-1.6-1.9
			c-0.9-0.2-1.7,0.6-1.9,1.6c0,0.6,0.2,1.1,0.6,1.4l-0.2,1.1l-2.4-0.2c-0.3,6.2-7.1,13.1-8.8,19.7l1.7,0.6l1.4,0.5l3.2,1.1
			c1.9-7.7,8.5-15.5,9.2-21.2L412.6,123.3z"/>
	</g>
	<g>
		<defs>
			<rect id="SVGID_197_" x="4.1" y="14.8" width="551.9" height="373.9"/>
		</defs>
		<clipPath id="SVGID_198_">
			<use xlink:href="#SVGID_197_"  overflow="visible"/>
		</clipPath>
		<path clip-path="url(#SVGID_198_)" fill="#FBFCF2" d="M403.6,144l0.3-1.1c0.5-0.2,0.9-0.5,1.1-1.1c0.3-0.9-0.2-1.9-1.1-2.1
			c-0.9-0.3-1.9,0.2-2.1,1.1c-0.2,0.6,0,1.1,0.3,1.6l-0.3,1.1l-2.4-0.8l-7.6,22.9l2.4,0.8l0.3-1.1c-0.3-0.5-0.5-0.9-0.3-1.6
			c0.3-0.9,1.3-1.4,2.1-1.1c0.9,0.3,1.4,1.3,1.1,2.1c-0.2,0.6-0.6,0.9-1.1,1.1l-0.3,1.1l2.4,0.8l7.6-22.9L403.6,144z"/>
	</g>
	<g>
		<defs>
			<rect id="SVGID_199_" x="4.1" y="14.8" width="551.9" height="373.9"/>
		</defs>
		<clipPath id="SVGID_200_">
			<use xlink:href="#SVGID_199_"  overflow="visible"/>
		</clipPath>
		<path clip-path="url(#SVGID_200_)" fill="#FBFCF2" d="M382.2,196.1l-0.8,2.4l-1.1-0.3c-0.2-0.5-0.5-0.9-1.1-1.3
			c-0.9-0.3-1.9,0.2-2.2,0.9c-0.3,0.9,0.2,1.9,0.9,2.2c0.6,0.2,1.1,0,1.6-0.2l1.1,0.3l-0.8,2.4"/>
	</g>
	<g>
		<defs>
			<rect id="SVGID_201_" x="4.1" y="14.8" width="551.9" height="373.9"/>
		</defs>
		<clipPath id="SVGID_202_">
			<use xlink:href="#SVGID_201_"  overflow="visible"/>
		</clipPath>
		<path clip-path="url(#SVGID_202_)" fill="#265EA9" d="M154.5,89l0.3,1.1c-0.3,0.5-0.5,0.9-0.3,1.6c0.3,0.9,1.3,1.4,2.1,1.1
			c0.9-0.3,1.4-1.3,1.1-2.1c-0.2-0.6-0.6-0.9-1.1-1.1l-0.3-1.1l2.4-0.8l-7.1-22.9l-2.4,0.8l0.3,1.1c0.5,0.2,0.9,0.5,1.1,1.1
			c0.3,0.9-0.2,1.9-1.1,2.1c-0.9,0.3-1.9-0.2-2.1-1.1c-0.2-0.6,0-1.1,0.3-1.6l-0.3-1.1l-2.4,0.6l7.3,23.1L154.5,89z"/>
	</g>
	<g>
		<defs>
			<rect id="SVGID_203_" x="4.1" y="14.8" width="551.9" height="373.9"/>
		</defs>
		<clipPath id="SVGID_204_">
			<use xlink:href="#SVGID_203_"  overflow="visible"/>
		</clipPath>
		<path clip-path="url(#SVGID_204_)" fill="#FBFCF2" d="M197,40l1.1-0.3c0.2-0.5,0.6-0.9,1.1-1.1c0.9-0.3,1.7,0.3,2.1,1.1
			c0.3,0.9-0.3,1.9-1.1,2.1c-0.6,0.2-1.1,0-1.6-0.3l-1.1,0.3l0.6,2.4L175,50.8l-0.6-2.4l1.1-0.3c0.5,0.3,0.9,0.5,1.6,0.3
			c0.9-0.3,1.4-1.1,1.1-2.1c-0.3-0.9-1.1-1.4-2.1-1.1c-0.6,0.2-0.9,0.6-1.1,1.1l-1.1,0.3l-0.6-2.4l23.2-6.6L197,40z"/>
	</g>
	<g>
		<defs>
			<rect id="SVGID_205_" x="4.1" y="14.8" width="551.9" height="373.9"/>
		</defs>
		<clipPath id="SVGID_206_">
			<use xlink:href="#SVGID_205_"  overflow="visible"/>
		</clipPath>
		<path clip-path="url(#SVGID_206_)" fill="#FFFFFF" d="M366.5,152.5c0,1.4-1.1,2.2-2.2,2.2h-1.6v-4.4h1.6
			C365.3,150.4,366.5,151.2,366.5,152.5 M362.7,163.1v-4.6h1.3h0.5h0.8c1.3,0,2.4,1.1,2.4,2.4c0,1.3-1.1,2.4-2.4,2.4h-2.5V163.1z
			 M369.3,155.3c0.5-0.8,0.6-1.6,0.6-2.5c0-3.2-2.5-5.7-5.7-5.7h-1.6H359v19.3h2.2h1.3h2.8c3.2,0,5.8-2.5,5.8-5.8
			c0-1.9-0.9-3.5-2.2-4.6C369.1,155.8,369.3,155.5,369.3,155.3L369.3,155.3"/>
	</g>
</g>
</svg>
