<?xml version="1.0" encoding="utf-8"?>
<!-- Generator: Adobe Illustrator 18.1.1, SVG Export Plug-In . SVG Version: 6.00 Build 0)  -->
<svg version="1.1" id="Layer_1" xmlns="http://www.w3.org/2000/svg" xmlns:xlink="http://www.w3.org/1999/xlink" x="0px" y="0px"
	 viewBox="0 0 354.4 241.7" enable-background="new 0 0 354.4 241.7" xml:space="preserve">
<text transform="matrix(1 0 0 1 244 205.0005)"><tspan x="0" y="0" fill="#005EC6" font-family="'Jaapokki-Regular'" font-size="11">Moo</tspan><tspan x="20.7" y="0" fill="#005EC6" font-family="'Jaapokki-Regular'" font-size="11">r</tspan><tspan x="24.9" y="0" fill="#005EC6" font-family="'Jaapokki-Regular'" font-size="11">ga</tspan><tspan x="36.9" y="0" fill="#005EC6" font-family="'Jaapokki-Regular'" font-size="11">t</tspan><tspan x="41" y="0" fill="#005EC6" font-family="'Jaapokki-Regular'" font-size="11">e</tspan></text>
<g>
	<defs>
		<rect id="SVGID_1_" x="5" width="349.4" height="236.7"/>
	</defs>
	<clipPath id="SVGID_2_">
		<use xlink:href="#SVGID_1_"  overflow="visible"/>
	</clipPath>
	<g clip-path="url(#SVGID_2_)">
		<text transform="matrix(1 0 0 1 5 120.2524)"><tspan x="0" y="0" fill="#005EC6" font-family="'Jaapokki-Regular'" font-size="11">B</tspan><tspan x="6.1" y="0" fill="#005EC6" font-family="'Jaapokki-Regular'" font-size="11">a</tspan><tspan x="12.4" y="0" fill="#005EC6" font-family="'Jaapokki-Regular'" font-size="11">rbi</tspan><tspan x="25.7" y="0" fill="#005EC6" font-family="'Jaapokki-Regular'" font-size="11">c</tspan><tspan x="30.4" y="0" fill="#005EC6" font-family="'Jaapokki-Regular'" font-size="11">an</tspan></text>
	</g>
	<path clip-path="url(#SVGID_2_)" fill="#005EC6" d="M240.5,65.3l0.7,0.1c0.2,0.3,0.5,0.5,0.8,0.6c0.6,0,1.1-0.4,1.1-1
		c0-0.6-0.4-1.1-1-1.2c-0.4,0-0.7,0.2-0.9,0.4l-0.7-0.1l0.1-1.5l-15.2-1.2l-0.1,1.5l0.7,0.1c0.2-0.2,0.6-0.4,0.9-0.4
		c0.6,0,1,0.6,1,1.1c0,0.6-0.6,1-1.1,1c-0.4,0-0.7-0.3-0.8-0.5l-0.7-0.1l-0.1,1.5l15.2,1.2L240.5,65.3z"/>
	<path clip-path="url(#SVGID_2_)" fill="#005EC6" d="M289.8,100.8l0.1-0.7c0.3-0.1,0.6-0.4,0.6-0.8c0.1-0.6-0.3-1.1-0.9-1.2
		c-0.6-0.1-1.1,0.3-1.2,0.9c-0.1,0.4,0.1,0.7,0.3,0.9l-0.1,0.7l-1.5-0.2c-0.4,3.9-0.6,8.4-0.5,12.8l1,0.2l1.1,0.3l2,0.5
		c-0.2-5,0-9.5,0.6-13.1L289.8,100.8z"/>
	<path clip-path="url(#SVGID_2_)" fill="#005EC6" d="M225.7,94.9l0.2-0.7c0.3-0.1,0.6-0.4,0.7-0.7c0.2-0.6-0.2-1.1-0.7-1.3
		c-0.6-0.2-1.2,0.2-1.3,0.7c-0.1,0.4,0,0.7,0.2,1l-0.2,0.7l-1.5-0.4l-3.9,14.7l1.5,0.4l1.1,0.3l1.5,0.4l3.9-14.7L225.7,94.9z"/>
	<path clip-path="url(#SVGID_2_)" fill="#FF7361" d="M233.7,66.2l0.1-0.7c0.3-0.2,0.6-0.5,0.6-0.8c0.1-0.6-0.3-1.1-0.9-1.2
		c-0.6-0.1-1.1,0.3-1.2,0.9c0,0.4,0.1,0.7,0.4,0.9l-0.1,0.7l-1.5-0.2l-4.5,15.4l2-1.4l0.2-0.7c-0.2-0.2-0.3-0.6-0.2-1
		c0.2-0.6,0.7-0.9,1.3-0.8s0.9,0.7,0.8,1.3c-0.1,0.4-0.4,0.6-0.7,0.7l-0.2,0.7l1.2,1.5l4.4-15.3L233.7,66.2z"/>
	<path clip-path="url(#SVGID_2_)" fill="#FFDF93" d="M229.6,80.2l0.2-0.7c0.3-0.1,0.6-0.4,0.7-0.7c0.2-0.6-0.2-1.1-0.7-1.3
		c-0.6-0.2-1.2,0.2-1.3,0.7c-0.1,0.4,0,0.7,0.2,1l-0.2,0.7l-1.5-0.4l-3.9,14.7l1.5,0.4l0.2-0.7c-0.2-0.2-0.3-0.6-0.2-1
		c0.2-0.6,0.7-0.9,1.3-0.8s0.9,0.7,0.8,1.3c-0.1,0.4-0.4,0.6-0.7,0.7l-0.2,0.7l1.5,0.4l3.9-14.7L229.6,80.2z"/>
	<path clip-path="url(#SVGID_2_)" fill="#005EC6" d="M220.3,45.8l0.1-0.7c0.3-0.2,0.5-0.5,0.6-0.8c0.1-0.6-0.4-1.1-1-1.2
		c-0.6-0.1-1.1,0.4-1.2,1c0,0.4,0.2,0.7,0.4,0.9l-0.1,0.7l-1.5-0.1l-1.4,15.2l1.5,0.2l0.1-0.7c-0.2-0.2-0.4-0.6-0.4-0.9
		c0.1-0.6,0.6-1,1.1-1c0.6,0.1,1,0.6,1,1.2c0,0.4-0.3,0.7-0.6,0.8l-0.1,0.7l1.5,0.1l1.4-15.2L220.3,45.8z"/>
	<path clip-path="url(#SVGID_2_)" fill="#FF7361" d="M223,15.4l0.1-0.7c0.3-0.2,0.5-0.5,0.6-0.8c0.1-0.6-0.4-1.1-1-1.2
		c-0.6-0.1-1.1,0.4-1.2,1c0,0.4,0.2,0.7,0.4,0.9l-0.1,0.7l-1.5-0.1l-1.6,17.1l1.7-1.8l0.1-0.7c-0.2-0.2-0.4-0.6-0.4-0.9
		c0.1-0.6,0.6-1,1.1-1c0.6,0.1,1,0.6,1,1.2c0,0.4-0.3,0.7-0.6,0.8l-0.1,0.7l1.4,1.3l1.5-16.3L223,15.4z"/>
	<path clip-path="url(#SVGID_2_)" fill="#FCFFF2" d="M221.6,30.6l0.1-0.7c0.3-0.2,0.5-0.5,0.6-0.8c0.1-0.6-0.4-1.1-1-1.2
		c-0.6-0.1-1.1,0.4-1.2,1c0,0.4,0.2,0.7,0.4,0.9l-0.1,0.7l-1.5-0.1l-1.4,15.2l1.5,0.2l0.1-0.7c-0.2-0.2-0.4-0.6-0.4-0.9
		c0.1-0.6,0.6-1,1.1-1c0.6,0.1,1,0.6,1,1.2c0,0.4-0.3,0.7-0.6,0.8l-0.1,0.7l1.5,0.1l1.4-15.2L221.6,30.6z"/>
	<path clip-path="url(#SVGID_2_)" fill="#FCFFF2" d="M227.2,62.6c-0.4,0-0.7,0.2-0.9,0.4l-0.7-0.1l0.1-1.5l-6.8-0.6l0-0.7
		c0.3-0.2,0.5-0.5,0.6-0.9c0-0.6-0.4-1.1-1-1.1s-1.1,0.4-1.1,1c0,0.4,0.2,0.7,0.4,0.9l0,0.7l-7.3-0.6l-0.1,1.5l0.7,0.1
		c0.2-0.2,0.1,1.4-0.1,1.2l-0.7-0.1l-0.1,1.5l15.2,1.2l0.1-1.5l0.7,0.1c0.2,0.3,0.5,0.5,0.8,0.6c0.6,0,1.1-0.4,1.1-1
		C228.2,63.1,227.7,62.6,227.2,62.6"/>
	<path clip-path="url(#SVGID_2_)" fill="#FF7361" d="M305.4,209.6c0.2-0.3,0.2-0.7,0-1l0.3-0.6l1.3,0.7c2.4-4.4,3.6-7.6,4.3-12.1
		c0.1-0.5,0.1-1.1,0.2-1.6l-4.3-0.6c-0.1,4-1.8,8.5-3.9,12.2l1.4,0.7l-0.3,0.6c-0.3,0-0.7,0.2-0.9,0.5c-0.3,0.5-0.1,1.1,0.4,1.4
		C304.5,210.3,305.1,210.1,305.4,209.6"/>
	<path clip-path="url(#SVGID_2_)" fill="#005EC6" d="M290.3,234l-0.3,0.6c-0.3,0-0.7,0.2-0.9,0.5c-0.3,0.5-0.1,1.2,0.4,1.4
		c0.5,0.3,1.2,0.1,1.4-0.4c0.2-0.3,0.1-0.7,0-1l0.3-0.6l1.4,0.7l7.3-13.4l-1.3-0.7l-0.3,0.6c0.1,0.3-1.3-0.5-1-0.6l0.3-0.6l-1.3-0.7
		l-7.3,13.4L290.3,234z"/>
	<path clip-path="url(#SVGID_2_)" fill="#FCFFF2" d="M297.5,220.7l-0.3,0.6c-0.3,0-0.7,0.2-0.9,0.5c-0.3,0.5-0.1,1.2,0.4,1.4
		c0.5,0.3,1.2,0.1,1.4-0.4c0.2-0.3,0.1-0.7,0-1l0.3-0.6l1.4,0.7l7.3-13.4l-1.3-0.7l-0.3,0.6c0.1,0.3,0.2,0.7,0,1
		c-0.3,0.5-0.9,0.7-1.4,0.4c-0.5-0.3-0.7-0.9-0.4-1.4c0.2-0.3,0.5-0.5,0.8-0.6l0.3-0.6l-1.3-0.7l-7.3,13.4L297.5,220.7z"/>
	<path clip-path="url(#SVGID_2_)" fill="#FCFFF2" d="M197,60.1c-0.4,0-0.7,0.1-0.9,0.4l-0.7-0.1l0.1-1.5c-4.9-0.4-8.4-0.2-12.8,1
		c-0.5,0.1-1,0.3-1.5,0.5l1.2,4.1c3.7-1.5,8.5-1.8,12.8-1.4l0.1-1.5l0.7,0.1c0.2,0.3,0.5,0.5,0.8,0.6c0.6,0,1.1-0.4,1.1-0.9
		C198,60.6,197.5,60.1,197,60.1"/>
	<path clip-path="url(#SVGID_2_)" fill="#FF7361" d="M112,18.8l0.4,1.5l0,0l0.7-0.2c0.1-0.3,0.4-0.6,0.7-0.7
		c0.6-0.2,1.2,0.2,1.3,0.7c0.2,0.6-0.2,1.2-0.7,1.3c-0.4,0.1-0.7,0-1-0.2l-0.7,0.2l0,0l0.4,1.4c-2.2,0.6-3.5,2.9-2.8,5.1l-4.1,1.2
		C105,24.7,107.5,20,112,18.8"/>
	<path clip-path="url(#SVGID_2_)" fill="#005EC6" d="M107.7,28.7l-0.2-0.7c-0.3-0.1-0.6-0.4-0.7-0.7c-0.2-0.6,0.1-1.2,0.7-1.3
		c0.6-0.2,1.2,0.1,1.3,0.7c0.1,0.4,0,0.7-0.2,1l0.2,0.7l1.5-0.4l4.4,14.6l-4.1,1.2l-4.4-14.6L107.7,28.7z"/>
	<path clip-path="url(#SVGID_2_)" fill="#FF7361" d="M35.7,85c-1.9,0-3.5,1.6-3.5,3.5c0,1.9,1.6,3.5,3.5,3.5s3.5-1.6,3.5-3.5
		C39.2,86.5,37.6,85,35.7,85 M35.7,94.7c-3.4,0-6.2-2.8-6.2-6.2c0-3.4,2.8-6.2,6.2-6.2s6.2,2.8,6.2,6.2
		C41.9,91.9,39.1,94.7,35.7,94.7"/>
</g>
<rect x="27.8" y="87.1" fill="#005EC6" width="15.8" height="2.8"/>
<g>
	<defs>
		<rect id="SVGID_3_" x="5" width="349.4" height="236.7"/>
	</defs>
	<clipPath id="SVGID_4_">
		<use xlink:href="#SVGID_3_"  overflow="visible"/>
	</clipPath>
	<path clip-path="url(#SVGID_4_)" fill="#FF7361" d="M288.6,176.8c-1.9,0-3.5,1.6-3.5,3.5c0,1.9,1.6,3.5,3.5,3.5
		c1.9,0,3.5-1.6,3.5-3.5C292.1,178.4,290.5,176.8,288.6,176.8 M288.6,186.5c-3.4,0-6.2-2.8-6.2-6.2s2.8-6.2,6.2-6.2
		c3.4,0,6.2,2.8,6.2,6.2S292,186.5,288.6,186.5"/>
</g>
<rect x="280.7" y="179" fill="#005EC6" width="15.8" height="2.8"/>
<g>
	<defs>
		<rect id="SVGID_5_" x="5" width="349.4" height="236.7"/>
	</defs>
	<clipPath id="SVGID_6_">
		<use xlink:href="#SVGID_5_"  overflow="visible"/>
	</clipPath>
	<path clip-path="url(#SVGID_6_)" fill="#FCFFF2" d="M301.4,70.3l0.7,0.1c0.2,0.3,0.5,0.5,0.8,0.6c0.6,0,1.1-0.4,1.1-1
		c0-0.6-0.4-1.1-1-1.2c-0.4,0-0.7,0.2-0.9,0.4l-0.7-0.1l0.1-1.5l-15.2-1.2l-0.1,1.5l0.7,0.1c0.2-0.2,0.6-0.4,0.9-0.4
		c0.6,0,1,0.6,1,1.1s-0.6,1-1.1,1c-0.4,0-0.7-0.3-0.8-0.5l-0.7-0.1l-0.1,1.5l15.2,1.2L301.4,70.3z"/>
	<path clip-path="url(#SVGID_6_)" fill="#005EC6" d="M346.9,74l0.7,0.1c0.2,0.3,0.5,0.5,0.8,0.6c0.6,0,1.1-0.4,1.1-1
		c0-0.6-0.4-1.1-1-1.2c-0.4,0-0.7,0.2-0.9,0.4l-0.7-0.1l0.1-1.5L330,69.9l1.8,1.7l0.7,0.1c0.2-0.2,0.6-0.4,0.9-0.4
		c0.6,0,1,0.6,1,1.1s-0.6,1-1.1,1c-0.4,0-0.7-0.3-0.8-0.5l-0.7-0.1l-1.3,1.4l16.3,1.3L346.9,74z"/>
	<path clip-path="url(#SVGID_6_)" fill="#FF7361" d="M270.9,67.8l0.7,0.1c0.2,0.3,0.5,0.5,0.8,0.6c0.6,0,1.1-0.4,1.1-1
		c0-0.6-0.4-1.1-1-1.2c-0.4,0-0.7,0.2-0.9,0.4l-0.7-0.1l0.1-1.5l-17.1-1.4l1.8,1.7l0.7,0.1c0.2-0.2-0.8,1.1-0.8,1.1l-0.9,1.5l16,1.3
		L270.9,67.8z"/>
	<path clip-path="url(#SVGID_6_)" fill="#FCFFF2" d="M255.7,66.5l0.7,0.1c0.2,0.3,0.5,0.5,0.8,0.6c0.6,0,1.1-0.4,1.1-1
		c0-0.6-0.4-1.1-1-1.2c-0.4,0-0.7,0.2-0.9,0.4l-0.7-0.1l0.1-1.5l-15.2-1.2l-0.1,1.5l0.7,0.1c0.2-0.2,0.6-0.4,0.9-0.4
		c0.6,0,1,0.6,1,1.1c0,0.6-0.6,1-1.1,1c-0.4,0-0.7-0.3-0.8-0.5l-0.7-0.1l-0.1,1.5l15.2,1.2L255.7,66.5z"/>
	<path clip-path="url(#SVGID_6_)" fill="#FF7361" d="M286.2,69l0.7,0.1c0.2,0.3,0.5,0.5,0.8,0.6c0.6,0,1.1-0.4,1.1-1
		c0-0.6-0.4-1.1-1-1.2c-0.4,0-0.7,0.2-0.9,0.4l-0.7-0.1l0.1-1.5l-15.2-1.2l-0.1,1.5l0.7,0.1c0.2-0.2,0.6-0.4,0.9-0.4
		c0.6,0,1,0.6,1,1.1c0,0.6-0.6,1-1.1,1c-0.4,0-0.7-0.3-0.8-0.5l-0.7-0.1l-0.1,1.5l15.2,1.2L286.2,69z"/>
	<path clip-path="url(#SVGID_6_)" fill="#005EC6" d="M316.5,71.5l0.7,0.1c0.2,0.3,0.5,0.5,0.8,0.6c0.6,0,1.1-0.4,1.1-1
		c0-0.6-0.4-1.1-1-1.2c-0.4,0-0.7,0.2-0.9,0.4l-0.7-0.1l0.1-1.5l-15.2-1.2l-0.1,1.5l0.7,0.1c0.2-0.2,0.6-0.4,0.9-0.4
		c0.6,0,1,0.6,1,1.1c0,0.6-0.6,1-1.1,1c-0.4,0-0.7-0.3-0.8-0.5l-0.7-0.1l-0.1,1.5l15.2,1.2L316.5,71.5z"/>
	<path clip-path="url(#SVGID_6_)" fill="#FCFFF2" d="M331.7,72.7l0.7,0.1c0.2,0.3,0.5,0.5,0.8,0.6c0.6,0,1.1-0.4,1.1-1
		c0-0.6-0.4-1.1-1-1.2c-0.4,0-0.7,0.2-0.9,0.4l-0.7-0.1l0.1-1.5l-15.2-1.2l-0.1,1.5l0.7,0.1c0.2-0.2,0.6-0.4,0.9-0.4
		c0.6,0,1,0.6,1,1.1s-0.6,1-1.1,1c-0.4,0-0.7-0.3-0.8-0.5l-0.7-0.1l-0.1,1.5l15.2,1.2L331.7,72.7z"/>
	<path clip-path="url(#SVGID_6_)" fill="#005EC6" d="M210.4,62.8l0.7,0.1c0.2,0.3,0.5,0.5,0.8,0.6c0.6,0,1.1-0.4,1.1-1
		c0-0.6-0.4-1.1-1-1.2c-0.4,0-0.7,0.2-0.9,0.4l-0.7-0.1l0.1-1.5l-15.2-1.2l-0.1,1.5l0.7,0.1c0.2-0.2,0.6-0.4,0.9-0.4
		c0.6,0,1,0.6,1,1.1c0,0.6-0.6,1-1.1,1c-0.4,0-0.7-0.3-0.8-0.5l-0.7-0.1l-0.1,1.5l15.2,1.2L210.4,62.8z"/>
	<path clip-path="url(#SVGID_6_)" fill="#005EC6" d="M182,63l0.7-0.2c0.3,0.2,0.6,0.3,1,0.2c0.6-0.2,0.9-0.8,0.7-1.3
		c-0.2-0.6-0.8-0.9-1.3-0.7c-0.4,0.1-0.6,0.4-0.7,0.7l-0.7,0.2l-0.4-1.5l-16.4,4.9l2.3,0.9l0.7-0.2c0.1-0.3,0.4-0.6,0.7-0.7
		c0.6-0.2,1.2,0.1,1.3,0.7s-0.2,1.2-0.7,1.3c-0.4,0.1-0.7,0-1-0.2l-0.7,0.2l-0.7,1.8l15.7-4.7L182,63z"/>
	<path clip-path="url(#SVGID_6_)" fill="#005EC6" d="M108.9,84.7l0.7-0.2c0.3,0.2,0.6,0.3,1,0.2c0.6-0.2,0.9-0.8,0.7-1.3
		c-0.2-0.6-0.8-0.9-1.3-0.7c-0.4,0.1-0.6,0.4-0.7,0.7l-0.7,0.2l-0.4-1.5L91.7,87L94,88l0.7-0.2c0.1-0.3-0.4,1.3-0.4,1.3L94,90.8
		l15.3-4.6L108.9,84.7z"/>
	<path clip-path="url(#SVGID_6_)" fill="#FF7361" d="M65.1,97.7l0.7-0.2c0.3,0.2,0.6,0.3,1,0.2c0.6-0.2,0.9-0.8,0.7-1.3
		c-0.2-0.6-0.8-0.9-1.3-0.7c-0.4,0.1-0.6,0.4-0.7,0.7l-0.7,0.2l-0.4-1.5l-14.6,4.3l0.4,1.5l0.7-0.2c0.1-0.3,0.6,1.3,0.3,1.1
		l-0.7,0.2l0.4,1.5l14.6-4.4L65.1,97.7z"/>
	<path clip-path="url(#SVGID_6_)" fill="#005EC6" d="M79.7,93.4l0.7-0.2c0.3,0.2,0.6,0.3,1,0.2c0.6-0.2,0.9-0.8,0.7-1.3
		c-0.2-0.6-0.8-0.9-1.3-0.7c-0.4,0.1-0.6,0.4-0.7,0.7l-0.7,0.2l-0.4-1.5l-14.6,4.3l0.4,1.5l0.7-0.2c0.1-0.3,0.4-0.6,0.7-0.7
		c0.6-0.2,1.2,0.1,1.3,0.7c0.2,0.6-0.2,1.2-0.7,1.3c-0.4,0.1-0.7,0-1-0.2l-0.7,0.2l0.4,1.5l14.6-4.4L79.7,93.4z"/>
	<path clip-path="url(#SVGID_6_)" fill="#FF7361" d="M94.2,89.1l0.7-0.2c0.3,0.2,0.6,0.3,1,0.2c0.6-0.2,0.9-0.8,0.7-1.3
		c-0.2-0.6-0.8-0.9-1.3-0.7c-0.4,0.1-0.6,0.4-0.7,0.7L93.9,88l-0.4-1.5l-14.6,4.3l0.4,1.5l0.7-0.2c0.1-0.3,0.4-0.6,0.7-0.7
		c0.6-0.2,1.2,0.1,1.3,0.7c0.2,0.6-0.2,1.2-0.7,1.3c-0.4,0.1-0.7,0-1-0.2l-0.7,0.2l0.4,1.5l14.6-4.4L94.2,89.1z"/>
	<path clip-path="url(#SVGID_6_)" fill="#FF7361" d="M138.2,76l0.7-0.2c0.3,0.2,0.6,0.3,1,0.2c0.6-0.2,0.9-0.8,0.7-1.3
		c-0.2-0.6-0.8-0.9-1.3-0.7c-0.4,0.1-0.6,0.4-0.7,0.7l-0.7,0.2l-0.4-1.5l-14.6,4.3l0.4,1.5l0.7-0.2c0.1-0.3,0.4-0.6,0.7-0.7
		c0.6-0.2,1.2,0.1,1.3,0.7c0.2,0.6-0.2,1.2-0.7,1.3c-0.4,0.1-0.7,0-1-0.2l-0.7,0.2l0.4,1.5l14.6-4.4L138.2,76z"/>
	<path clip-path="url(#SVGID_6_)" fill="#005EC6" d="M152.7,71.7l0.7-0.2c0.3,0.2,0.6,0.3,1,0.2c0.6-0.2,0.9-0.8,0.7-1.3
		c-0.2-0.6-0.8-0.9-1.3-0.7c-0.4,0.1-0.6,0.4-0.7,0.7l-0.7,0.2l-0.4-1.5l-14.6,4.3l0.4,1.5l0.7-0.2c0.1-0.3,0.4-0.6,0.7-0.7
		c0.6-0.2,1.2,0.1,1.3,0.7s-0.2,1.2-0.7,1.3c-0.4,0.1-0.7,0-1-0.2l-0.7,0.2l0.4,1.5l14.6-4.4L152.7,71.7z"/>
	<path clip-path="url(#SVGID_6_)" fill="#FCFFF2" d="M167.3,67.3l0.7-0.2c0.3,0.2,0.6,0.3,1,0.2c0.6-0.2,0.9-0.8,0.7-1.3
		c-0.2-0.6-0.8-0.9-1.3-0.7c-0.4,0.1-0.6,0.4-0.7,0.7l-0.7,0.2l-0.4-1.5l-14.6,4.3l0.4,1.5l0.7-0.2c0.1-0.3,0.4-0.6,0.7-0.7
		c0.6-0.2,1.2,0.1,1.3,0.7s-0.2,1.2-0.7,1.3c-0.4,0.1-0.7,0-1-0.2l-0.7,0.2l0.4,1.5l14.6-4.4L167.3,67.3z"/>
	<path clip-path="url(#SVGID_6_)" fill="#005EC6" d="M50.7,102.1l0.7-0.2c0.3,0.2,0.6,0.3,1,0.2c0.6-0.2,0.9-0.8,0.7-1.3
		c-0.2-0.6-0.8-0.9-1.3-0.7c-0.4,0.1-0.6,0.4-0.7,0.7l-0.7,0.2l-0.4-1.5l-14.6,4.3l0.4,1.5l0.7-0.2c0.1-0.3,0.4-0.6,0.7-0.7
		c0.6-0.2,1.2,0.1,1.3,0.7c0.2,0.6-0.2,1.2-0.7,1.3c-0.4,0.1-0.7,0-1-0.2l-0.7,0.2l0.4,1.5l14.6-4.4L50.7,102.1z"/>
	<path clip-path="url(#SVGID_6_)" fill="#005EC6" d="M36.1,19.7L35.9,19c0.2-0.3,0.3-0.6,0.2-1c-0.2-0.6-0.7-0.9-1.3-0.7
		c-0.6,0.2-0.9,0.7-0.7,1.3c0.1,0.4,0.4,0.6,0.7,0.7l0.2,0.7l-1.5,0.4L38.2,37l1-2.3L38.9,34c-0.3-0.1-0.6-0.4-0.7-0.7
		c-0.2-0.6,0.2-1.1,0.7-1.3c0.6-0.2,1.2,0.2,1.3,0.7c0.1,0.4,0,0.7-0.2,1l0.2,0.7l1.8,0.7l-4.5-15.8L36.1,19.7z"/>
	<path clip-path="url(#SVGID_6_)" fill="#FF7361" d="M56.8,93.1l-0.2-0.7c0.2-0.3,0.3-0.6,0.2-1c-0.2-0.6-0.7-0.9-1.3-0.7
		c-0.6,0.2-0.9,0.7-0.7,1.3c0.1,0.4,0.4,0.6,0.7,0.7l0.2,0.7l-1.5,0.4l4.7,16.5l1-2.3l-0.2-0.7c-0.3-0.1,1.3,0.4,1.3,0.4l1.7,0.3
		l-4.4-15.4L56.8,93.1z"/>
	<path clip-path="url(#SVGID_6_)" fill="#FCFFF2" d="M69.3,137l-0.2-0.7c0.2-0.3,0.3-0.6,0.2-1c-0.2-0.6-0.7-0.9-1.3-0.7
		c-0.6,0.2-0.9,0.7-0.7,1.3c0.1,0.4,0.4,0.6,0.7,0.7l0.2,0.7l-1.5,0.4l4.1,14.6l1.5-0.4l-0.2-0.7c-0.3-0.1,1.3-0.6,1.1-0.3l0.2,0.7
		l1.5-0.4l-4.2-14.7L69.3,137z"/>
	<path clip-path="url(#SVGID_6_)" fill="#005EC6" d="M65.1,122.4l-0.2-0.7c0.2-0.3,0.3-0.6,0.2-1c-0.2-0.6-0.7-0.9-1.3-0.7
		c-0.6,0.2-0.9,0.7-0.7,1.3c0.1,0.4,0.4,0.6,0.7,0.7l0.2,0.7l-1.5,0.4l4.1,14.6l1.5-0.4l-0.2-0.7c-0.3-0.1-0.6-0.4-0.7-0.7
		c-0.2-0.6,0.2-1.1,0.7-1.3c0.6-0.2,1.2,0.2,1.3,0.7c0.1,0.4,0,0.7-0.2,1l0.2,0.7l1.5-0.4L66.6,122L65.1,122.4z"/>
	<path clip-path="url(#SVGID_6_)" fill="#FCFFF2" d="M61,107.8l-0.2-0.7c0.2-0.3,0.3-0.6,0.2-1c-0.2-0.6-0.7-0.9-1.3-0.7
		c-0.6,0.2-0.9,0.7-0.7,1.3c0.1,0.4,0.4,0.6,0.7,0.7l0.2,0.7l-1.5,0.4l4.1,14.6l1.5-0.4l-0.2-0.7c-0.3-0.1-0.6-0.4-0.7-0.7
		c-0.2-0.6,0.2-1.1,0.7-1.3c0.6-0.2,1.2,0.2,1.3,0.7c0.1,0.4,0,0.7-0.2,1l0.2,0.7l1.5-0.4l-4.2-14.7L61,107.8z"/>
	<path clip-path="url(#SVGID_6_)" fill="#005EC6" d="M52.7,78.4l-0.2-0.7c0.2-0.3,0.3-0.6,0.2-1c-0.2-0.6-0.7-0.9-1.3-0.7
		c-0.6,0.2-0.9,0.7-0.7,1.3c0.1,0.4,0.4,0.6,0.7,0.7l0.2,0.7l-1.5,0.4l4.1,14.6l1.5-0.4l-0.2-0.7c-0.3-0.1-0.6-0.4-0.7-0.7
		c-0.2-0.6,0.2-1.1,0.7-1.3c0.6-0.2,1.2,0.2,1.3,0.7c0.1,0.4,0,0.7-0.2,1l0.2,0.7l1.5-0.4L54.2,78L52.7,78.4z"/>
	<path clip-path="url(#SVGID_6_)" fill="#FCFFF2" d="M48.5,63.7L48.3,63c0.2-0.3,0.3-0.6,0.2-1c-0.2-0.6-0.7-0.9-1.3-0.7
		c-0.6,0.2-0.9,0.7-0.7,1.3c0.1,0.4,0.4,0.6,0.7,0.7l0.2,0.7l-1.5,0.4l4.1,14.6l1.5-0.4L51.4,78c-0.3-0.1-0.6-0.4-0.7-0.7
		c-0.2-0.6,0.2-1.1,0.7-1.3c0.6-0.2,1.2,0.2,1.3,0.7c0.1,0.4,0,0.7-0.2,1l0.2,0.7l1.5-0.4L50,63.2L48.5,63.7z"/>
	<path clip-path="url(#SVGID_6_)" fill="#FF7361" d="M44.4,49.1l-0.2-0.7c0.2-0.3,0.3-0.6,0.2-1c-0.2-0.6-0.7-0.9-1.3-0.7
		c-0.6,0.2-0.9,0.7-0.7,1.3c0.1,0.4,0.4,0.6,0.7,0.7l0.2,0.7l-1.5,0.4l4.1,14.6l1.5-0.4l-0.2-0.7c-0.3-0.1-0.6-0.4-0.7-0.7
		c-0.2-0.6,0.2-1.1,0.7-1.3s1.2,0.2,1.3,0.7c0.1,0.4,0,0.7-0.2,1l0.2,0.7l1.5-0.4l-4.2-14.7L44.4,49.1z"/>
	<path clip-path="url(#SVGID_6_)" fill="#FCFFF2" d="M40.3,34.4l-0.2-0.7c0.2-0.3,0.3-0.6,0.2-1c-0.2-0.6-0.7-0.9-1.3-0.7
		c-0.6,0.2-0.9,0.7-0.7,1.3c0.1,0.4,0.4,0.6,0.7,0.7l0.2,0.7l-1.5,0.4l4.1,14.6l1.5-0.4l-0.2-0.7c-0.3-0.1-0.6-0.4-0.7-0.7
		c-0.2-0.6,0.2-1.1,0.7-1.3c0.6-0.2,1.2,0.2,1.3,0.7c0.1,0.4,0,0.7-0.2,1l0.2,0.7l1.5-0.4L41.7,34L40.3,34.4z"/>
	<path clip-path="url(#SVGID_6_)" fill="#FF7361" d="M73.4,151.5l-0.2-0.7c0.2-0.3,0.3-0.6,0.2-1c-0.2-0.6-0.7-0.9-1.3-0.7
		c-0.6,0.2-0.9,0.7-0.7,1.3c0.1,0.4,0.4,0.6,0.7,0.7l0.2,0.7l-1.5,0.4l4.1,14.6l1.5-0.4l-0.2-0.7c-0.3-0.1-0.6-0.4-0.7-0.7
		c-0.2-0.6,0.2-1.1,0.7-1.3c0.6-0.2,1.2,0.2,1.3,0.7c0.1,0.4,0,0.7-0.2,1l0.2,0.7l1.5-0.4l-4.2-14.7L73.4,151.5z"/>
	<path clip-path="url(#SVGID_6_)" fill="#005EC6" d="M76.9,58.3l-0.7,0.2c-0.3-0.2-0.6-0.3-1-0.2c-0.6,0.2-0.9,0.8-0.7,1.3
		c0.2,0.6,0.8,0.9,1.3,0.7c0.4-0.1,0.6-0.4,0.7-0.7l0.7-0.2l0.4,1.5l14.6-4.4L91.8,55l-0.7,0.2c-0.1,0.3-0.4,0.6-0.7,0.7
		c-0.6,0.2-1.2-0.1-1.3-0.7c-0.2-0.6,0.1-1.2,0.7-1.3c0.4-0.1,0.7,0,1,0.2l0.7-0.2l-0.4-1.5l-14.6,4.4L76.9,58.3z"/>
	<path clip-path="url(#SVGID_6_)" fill="#FF7361" d="M91,52.5l0.4,1.4l-0.7,0.2c-0.3-0.2-0.6-0.3-1-0.2c-0.6,0.2-0.9,0.8-0.7,1.3
		c0.2,0.6,0.8,0.9,1.3,0.7c0.4-0.1,0.6-0.4,0.7-0.7l0.7-0.2l0.5,1.5c7.4-2.3,15.4,1.9,17.6,9.3c0,0,4.1-1.2,4.1-1.2
		C110.9,54.9,100.8,49.5,91,52.5"/>
	<path clip-path="url(#SVGID_6_)" fill="#005EC6" d="M112.4,65l-0.2-0.7c0.2-0.3,0.3-0.6,0.2-1c-0.2-0.6-0.8-0.9-1.3-0.7
		c-0.6,0.2-0.9,0.8-0.7,1.3c0.1,0.4,0.4,0.6,0.7,0.7l0.2,0.7l-1.5,0.4l4.4,14.6l1.5-0.4l-0.2-0.7c-0.3-0.1-0.6-0.4-0.7-0.7
		c-0.2-0.6,0.1-1.2,0.7-1.3c0.6-0.2,1.2,0.1,1.3,0.7c0.1,0.4,0,0.7-0.2,1l0.2,0.7l1.5-0.4l-4.4-14.6L112.4,65z"/>
	<path clip-path="url(#SVGID_6_)" fill="#FCFFF2" d="M114.6,42.6l-1.5,0.5l0,0l-0.2-0.7c0.2-0.3,0.3-0.6,0.2-1
		c-0.2-0.6-0.8-0.9-1.3-0.7c-0.6,0.2-0.9,0.8-0.7,1.3c0.1,0.4,0.4,0.6,0.7,0.7l0.2,0.7l0,0l-1.4,0.4c0.7,2.2-0.6,4.5-2.8,5.1
		c-2.2,0.7-4.5-0.6-5.1-2.8l-4,1.2c1.3,4.4,6,6.9,10.4,5.6C113.5,51.6,116,46.9,114.6,42.6"/>
	<path clip-path="url(#SVGID_6_)" fill="#005EC6" d="M127.6,8.3l-0.2-0.7c0.2-0.3,0.3-0.6,0.2-1c-0.2-0.6-0.7-0.9-1.3-0.7
		c-0.6,0.2-0.9,0.7-0.7,1.3c0.1,0.4,0.4,0.6,0.7,0.7l0.2,0.7L125,9.1l4.7,16.5l1-2.3l-0.2-0.7c-0.3-0.1-0.6-0.4-0.7-0.7
		c-0.2-0.6,0.2-1.1,0.7-1.3c0.6-0.2,1.2,0.2,1.3,0.7c0.1,0.4,0,0.7-0.2,1l0.2,0.7l1.8,0.7l-4.5-15.8L127.6,8.3z"/>
	<path clip-path="url(#SVGID_6_)" fill="#005EC6" d="M144.2,67l-0.2-0.7c0.2-0.3,0.3-0.6,0.2-1c-0.2-0.6-0.7-0.9-1.3-0.7
		c-0.6,0.2-0.9,0.7-0.7,1.3c0.1,0.4,0.4,0.6,0.7,0.7l0.2,0.7l-1.5,0.4l2.3,8.2l4.1-1.2l-2.3-8.1L144.2,67z"/>
	<path clip-path="url(#SVGID_6_)" fill="#FCFFF2" d="M140.1,52.3l-0.2-0.7c0.2-0.3,0.3-0.6,0.2-1c-0.2-0.6-0.7-0.9-1.3-0.7
		c-0.6,0.2-0.9,0.7-0.7,1.3c0.1,0.4,0.4,0.6,0.7,0.7l0.2,0.7l-1.5,0.4l4.1,14.6l1.5-0.4l-0.2-0.7c-0.3-0.1-0.6-0.4-0.7-0.7
		c-0.2-0.6,0.2-1.1,0.7-1.3c0.6-0.2,1.2,0.2,1.3,0.7c0.1,0.4,0,0.7-0.2,1l0.2,0.7l1.5-0.4l-4.2-14.7L140.1,52.3z"/>
	<path clip-path="url(#SVGID_6_)" fill="#005EC6" d="M135.9,37.7l-0.2-0.7c0.2-0.3,0.3-0.6,0.2-1c-0.2-0.6-0.7-0.9-1.3-0.7
		c-0.6,0.2-0.9,0.7-0.7,1.3c0.1,0.4,0.4,0.6,0.7,0.7l0.2,0.7l-1.5,0.4l4.1,14.6l1.5-0.4l-0.2-0.7c-0.3-0.1-0.6-0.4-0.7-0.7
		c-0.2-0.6,0.2-1.1,0.7-1.3c0.6-0.2,1.2,0.2,1.3,0.7c0.1,0.4,0,0.7-0.2,1l0.2,0.7l1.5-0.4l-4.2-14.7L135.9,37.7z"/>
	<path clip-path="url(#SVGID_6_)" fill="#FF7361" d="M131.8,23l-0.2-0.7c0.2-0.3,0.3-0.6,0.2-1c-0.2-0.6-0.7-0.9-1.3-0.7
		c-0.6,0.2-0.9,0.7-0.7,1.3c0.1,0.4,0.4,0.6,0.7,0.7l0.2,0.7l-1.5,0.4l4.1,14.6l1.5-0.4l-0.2-0.7c-0.3-0.1-0.6-0.4-0.7-0.7
		c-0.2-0.6,0.2-1.1,0.7-1.3c0.6-0.2,1.2,0.2,1.3,0.7c0.1,0.4,0,0.7-0.2,1l0.2,0.7l1.5-0.4l-4.1-14.7L131.8,23z"/>
	<path clip-path="url(#SVGID_6_)" fill="#005EC6" d="M182.9,9.3l-0.1-0.7c0.2-0.2,0.4-0.6,0.4-0.9c-0.1-0.6-0.6-1-1.2-0.9
		c-0.6,0.1-1,0.6-0.9,1.2c0,0.4,0.3,0.7,0.6,0.8l0.1,0.7l-1.5,0.2l2.1,17l1.3-2.1l-0.1-0.7c-0.3-0.2-0.5-0.5-0.6-0.8
		c-0.1-0.6,0.3-1.1,0.9-1.2c0.6-0.1,1.1,0.3,1.2,0.9c0,0.4-0.1,0.7-0.4,0.9l0.1,0.7l1.7,1l-2-16.3L182.9,9.3z"/>
	<path clip-path="url(#SVGID_6_)" fill="#FCFFF2" d="M188.3,54.6l-0.1-0.7c0.2-0.2,0.4-0.6,0.4-0.9c-0.1-0.6-0.6-1-1.2-0.9
		c-0.6,0.1-1,0.6-0.9,1.2c0,0.4,0.3,0.7,0.6,0.8l0.1,0.7l-1.5,0.2l1.8,15.1l1.5-0.2l1.1-0.1l1.5-0.2l-1.8-15.2L188.3,54.6z"/>
	<path clip-path="url(#SVGID_6_)" fill="#FF7361" d="M186.5,39.6l-0.1-0.7c0.2-0.2,0.4-0.6,0.4-0.9c-0.1-0.6-0.6-1-1.2-0.9
		c-0.6,0.1-1,0.6-0.9,1.2c0,0.4,0.3,0.7,0.6,0.8l0.1,0.7l-1.5,0.2l1.8,15.1l1.5-0.2l-0.1-0.7c-0.3-0.2-0.5-0.5-0.6-0.8
		c-0.1-0.6,0.3-1.1,0.9-1.2c0.6-0.1,1.1,0.3,1.2,0.9c0,0.4-0.1,0.7-0.4,0.9l0.1,0.7l1.5-0.2L188,39.4L186.5,39.6z"/>
	<path clip-path="url(#SVGID_6_)" fill="#FCFFF2" d="M184.7,24.5l-0.1-0.7c0.2-0.2,0.4-0.6,0.4-0.9c-0.1-0.6-0.6-1-1.2-0.9
		c-0.6,0.1-1,0.6-0.9,1.2c0,0.4,0.3,0.7,0.6,0.8l0.1,0.7l-1.5,0.2l1.8,15.1l1.5-0.2l-0.1-0.7c-0.3-0.2-0.5-0.5-0.6-0.8
		c-0.1-0.6,0.3-1.1,0.9-1.2c0.6-0.1,1.1,0.3,1.2,0.9c0,0.4-0.1,0.7-0.4,0.9l0.1,0.7l1.5-0.2l-1.8-15.2L184.7,24.5z"/>
	<path clip-path="url(#SVGID_6_)" fill="#FF7361" d="M190.5,68c0,0.4-0.1,0.7-0.4,0.9l0.1,0.7l1.5-0.1c0.4,5,0.2,8.6-1,13
		c-0.1,0.5-0.3,1-0.5,1.5l-4.2-1.2c1.5-3.8,1.8-8.6,1.4-13l1.6-0.1L189,69c-0.3-0.2-0.6-0.5-0.6-0.9c0-0.6,0.4-1.1,1-1.2
		C189.9,66.9,190.5,67.4,190.5,68"/>
	<path clip-path="url(#SVGID_6_)" fill="#005EC6" d="M186,82.8l1.5,0.4l0.2-0.7c-0.2-0.3-0.3-0.6-0.2-1c0.2-0.6,0.8-0.9,1.4-0.7
		c0.6,0.2,0.9,0.8,0.7,1.3c-0.1,0.4-0.4,0.6-0.7,0.7l-0.2,0.7l1.5,0.4c-2.2,7.6,2.2,15.8,9.9,18c0,0-1.2,4.2-1.2,4.2
		C188.9,103.4,183.1,93,186,82.8"/>
	<path clip-path="url(#SVGID_6_)" fill="#FF7361" d="M199.6,103.6l-0.7-0.2c-0.1-0.3-0.4-0.6-0.7-0.7c-0.6-0.2-1.1,0.2-1.3,0.7
		c-0.2,0.6,0.2,1.2,0.7,1.3c0.4,0.1,0.7,0,1-0.2l0.7,0.2l-0.4,1.5l16.5,4.7l-1.4-2l-0.7-0.2c-0.3,0.2-0.6,0.3-1,0.2
		c-0.6-0.2-0.9-0.7-0.7-1.3c0.2-0.6,0.7-0.9,1.3-0.7c0.4,0.1,0.6,0.4,0.7,0.7l0.7,0.2l1.5-1.2l-15.8-4.5L199.6,103.6z"/>
	<path clip-path="url(#SVGID_6_)" fill="#005EC6" d="M228.9,111.8l-0.7-0.2c-0.1-0.3-0.4-0.6-0.7-0.7c-0.6-0.2-1.1,0.2-1.3,0.7
		c-0.2,0.6,0.2,1.2,0.7,1.3c0.4,0.1,0.7,0,1-0.2l0.7,0.2l-0.4,1.5l14.9,4.3l0.5-1.5l-1-0.3c-0.3,0.2,1.3-0.7,1.3-0.7l0.5-1.6
		l-15.1-4.2L228.9,111.8z"/>
	<path clip-path="url(#SVGID_6_)" fill="#FCFFF2" d="M214.3,107.7l-0.7-0.2c-0.1-0.3-0.4-0.6-0.7-0.7c-0.6-0.2-1.1,0.2-1.3,0.7
		c-0.2,0.6,0.2,1.2,0.7,1.3c0.4,0.1,0.7,0,1-0.2l0.7,0.2l-0.4,1.5l14.6,4.1l0.4-1.5l-0.7-0.2c-0.3,0.2-0.6,0.3-1,0.2
		c-0.6-0.2-0.9-0.7-0.7-1.3c0.2-0.6,0.7-0.9,1.3-0.7c0.4,0.1,0.6,0.4,0.7,0.7l0.7,0.2l0.4-1.5l-14.7-4.1L214.3,107.7z"/>
	<path clip-path="url(#SVGID_6_)" fill="#FCFFF2" d="M248.4,110.7l0.2-0.7c0.3-0.1,0.6-0.3,0.7-0.7c0.2-0.6-0.1-1.2-0.7-1.3
		c-0.6-0.2-1.2,0.1-1.3,0.7c-0.1,0.4,0,0.7,0.2,1l-0.2,0.7l-1.5-0.5l-4.8,14.5l1.5,0.5l1.1,0.4l1.5,0.5l4.8-14.5L248.4,110.7z"/>
	<path clip-path="url(#SVGID_6_)" fill="#005EC6" d="M253.2,96.2l0.2-0.7c0.3-0.1,0.6-0.3,0.7-0.7c0.2-0.6-0.1-1.2-0.7-1.3
		s-1.2,0.1-1.3,0.7c-0.1,0.4,0,0.7,0.2,1l-0.2,0.7l-1.5-0.5l-4.8,14.5l1.5,0.5l0.2-0.7c-0.2-0.3-0.3-0.6-0.2-1
		c0.2-0.6,0.8-0.9,1.3-0.7c0.6,0.2,0.9,0.8,0.7,1.3c-0.1,0.4-0.4,0.6-0.7,0.7l-0.2,0.7l1.5,0.5l4.8-14.5L253.2,96.2z"/>
	<path clip-path="url(#SVGID_6_)" fill="#FF7361" d="M243.7,125l0.2-0.7c0.3-0.1,0.6-0.3,0.7-0.7c0.2-0.6-0.1-1.2-0.7-1.3
		c-0.6-0.2-1.2,0.1-1.3,0.7c-0.1,0.4,0,0.7,0.2,1l-0.2,0.7l-1.5-0.5l-5.4,16.3l2.1-1.3l0.2-0.7c-0.2-0.3-0.3-0.6-0.2-1
		c0.2-0.6,0.8-0.9,1.3-0.7c0.6,0.2,0.9,0.8,0.7,1.3c-0.1,0.4-0.4,0.6-0.7,0.7l-0.2,0.7l1.1,1.6l5.1-15.6L243.7,125z"/>
	<path clip-path="url(#SVGID_6_)" fill="#FCFFF2" d="M229.5,168.4l0.2-0.7c0.3-0.1,0.6-0.3,0.7-0.7c0.2-0.6-0.1-1.2-0.7-1.3
		c-0.6-0.2-1.2,0.1-1.3,0.7c-0.1,0.4,0,0.7,0.2,1l-0.2,0.7l-1.5-0.5l-4.8,14.5l1.5,0.5l0.2-0.7c-0.2-0.3-0.3-0.6-0.2-1
		c0.2-0.6,0.8-0.9,1.3-0.7s0.9,0.8,0.7,1.3c-0.1,0.4-0.4,0.6-0.7,0.7l-0.2,0.7l1.5,0.5l4.8-14.5L229.5,168.4z"/>
	<path clip-path="url(#SVGID_6_)" fill="#005EC6" d="M234.2,154l0.2-0.7c0.3-0.1,0.6-0.3,0.7-0.7c0.2-0.6-0.1-1.2-0.7-1.3
		c-0.6-0.2-1.2,0.1-1.3,0.7c-0.1,0.4,0,0.7,0.2,1l-0.2,0.7l-1.5-0.5l-4.8,14.5l1.5,0.5l0.2-0.7c-0.2-0.3-0.3-0.6-0.2-1
		c0.2-0.6,0.8-0.9,1.3-0.7s0.9,0.8,0.7,1.3c-0.1,0.4-0.4,0.6-0.7,0.7l-0.2,0.7l1.5,0.5l4.8-14.5L234.2,154z"/>
	<path clip-path="url(#SVGID_6_)" fill="#FCFFF2" d="M238.9,139.5l0.2-0.7c0.3-0.1,0.6-0.3,0.7-0.7c0.2-0.6-0.1-1.2-0.7-1.3
		c-0.6-0.2-1.2,0.1-1.3,0.7c-0.1,0.4,0,0.7,0.2,1l-0.2,0.7l-1.5-0.5l-4.8,14.5l1.5,0.5l0.2-0.7c-0.2-0.3-0.3-0.6-0.2-1
		c0.2-0.6,0.8-0.9,1.3-0.7s0.9,0.8,0.7,1.3c-0.1,0.4-0.4,0.6-0.7,0.7l-0.2,0.7l1.5,0.5l4.8-14.5L238.9,139.5z"/>
	<path clip-path="url(#SVGID_6_)" fill="#FF7361" d="M252.5,103.3l-0.7-0.2c-0.1-0.3-0.3-0.6-0.7-0.7c-0.6-0.2-1.2,0.1-1.3,0.7
		c-0.2,0.6,0.1,1.2,0.7,1.3c0.4,0.1,0.7,0,1-0.2l0.7,0.2l-0.5,1.5l16.3,5.3l-1.3-2.1l-0.7-0.2c-0.3,0.2-0.6,0.3-1,0.2
		c-0.6-0.2-0.9-0.8-0.7-1.3c0.2-0.6,0.8-0.9,1.3-0.7c0.4,0.1,0.6,0.4,0.7,0.7l0.7,0.2l1.6-1.1l-15.6-5.1L252.5,103.3z"/>
	<path clip-path="url(#SVGID_6_)" fill="#FF7361" d="M324.9,127l-0.7-0.2c-0.1-0.3-0.3-0.6-0.7-0.7c-0.6-0.2-1.2,0.1-1.3,0.7
		c-0.2,0.6,0.1,1.2,0.7,1.3c0.4,0.1,0.7,0,1-0.2l0.7,0.2l-0.5,1.5l16.3,5.3l-1.3-2.1l-0.7-0.2c-0.3,0.2,1-0.9,1-0.9l1.2-1.2l-15.2-5
		L324.9,127z"/>
	<path clip-path="url(#SVGID_6_)" fill="#FCFFF2" d="M339.4,131.8l-0.7-0.2c-0.1-0.3-0.3-0.6-0.7-0.7c-0.6-0.2-1.2,0.1-1.3,0.7
		c-0.2,0.6,0.1,1.2,0.7,1.3c0.4,0.1,0.7,0,1-0.2l0.7,0.2l-0.5,1.5l14.5,4.7l0.5-1.5l-0.7-0.2c-0.3,0.2-0.6,0.3-1,0.2
		c-0.6-0.2-0.9-0.8-0.7-1.3c0.2-0.6,0.8-0.9,1.3-0.7c0.4,0.1,0.6,0.4,0.7,0.7l0.7,0.2l0.5-1.5l-14.5-4.8L339.4,131.8z"/>
	<path clip-path="url(#SVGID_6_)" fill="#FCFFF2" d="M310.4,122.2l-0.7-0.2c-0.1-0.3-0.3-0.6-0.7-0.7c-0.6-0.2-1.2,0.1-1.3,0.7
		c-0.2,0.6,0.1,1.2,0.7,1.3c0.4,0.1,0.7,0,1-0.2l0.7,0.2l-0.5,1.5l14.5,4.7l0.5-1.5l-0.7-0.2c-0.3,0.2-0.6,0.3-1,0.2
		c-0.6-0.2-0.9-0.8-0.7-1.3c0.2-0.6,0.8-0.9,1.3-0.7c0.4,0.1,0.6,0.4,0.7,0.7l0.7,0.2l0.5-1.5l-14.5-4.8L310.4,122.2z"/>
	<path clip-path="url(#SVGID_6_)" fill="#FCFFF2" d="M267,108l-0.7-0.2c-0.1-0.3-0.3-0.6-0.7-0.7c-0.6-0.2-1.2,0.1-1.3,0.7
		c-0.2,0.6,0.1,1.2,0.7,1.3c0.4,0.1,0.7,0,1-0.2l0.7,0.2l-0.5,1.5l14.5,4.7l0.5-1.5l-0.7-0.2c-0.3,0.2-0.6,0.3-1,0.2
		c-0.6-0.2-0.9-0.8-0.7-1.3c0.2-0.6,0.8-0.9,1.3-0.7c0.4,0.1,0.6,0.4,0.7,0.7l0.7,0.2l0.5-1.5l-14.5-4.8L267,108z"/>
	<path clip-path="url(#SVGID_6_)" fill="#FF7361" d="M314.2,149.1l-0.1,0.7c-0.3,0.2-0.6,0.5-0.6,0.8c-0.1,0.6,0.3,1.1,0.9,1.2
		c0.6,0.1,1.1-0.3,1.2-0.9c0-0.4-0.1-0.7-0.4-0.9l0.1-0.7l1.5,0.2l2-17l-1.8,1.7l-0.1,0.7c0.2,0.2-1.1-0.9-1.1-0.9l-1.4-0.9
		l-1.9,15.9L314.2,149.1z"/>
	<path clip-path="url(#SVGID_6_)" fill="#FCFFF2" d="M319.6,103.8l-0.1,0.7c-0.3,0.2-0.6,0.5-0.6,0.8c-0.1,0.6,0.3,1.1,0.9,1.2
		c0.6,0.1,1.1-0.3,1.2-0.9c0-0.4-0.1-0.7-0.4-0.9l0.1-0.7l1.5,0.2l1.8-15.1l-1.5-0.2l-0.1,0.7c0.2,0.2-1.4,0-1.1-0.1l0.1-0.7
		l-1.5-0.2l-1.8,15.2L319.6,103.8z"/>
	<path clip-path="url(#SVGID_6_)" fill="#005EC6" d="M317.8,118.9l-0.1,0.7c-0.3,0.2-0.6,0.5-0.6,0.8c-0.1,0.6,0.3,1.1,0.9,1.2
		c0.6,0.1,1.1-0.3,1.2-0.9c0-0.4-0.1-0.7-0.4-0.9l0.1-0.7l1.5,0.2l1.8-15.1l-1.5-0.2l-0.1,0.7c0.2,0.2,0.4,0.6,0.4,0.9
		c-0.1,0.6-0.6,1-1.2,0.9c-0.6-0.1-1-0.6-0.9-1.2c0-0.4,0.3-0.7,0.6-0.8l0.1-0.7l-1.5-0.2l-1.8,15.2L317.8,118.9z"/>
	<path clip-path="url(#SVGID_6_)" fill="#FCFFF2" d="M316,134l-0.1,0.7c-0.3,0.2-0.6,0.5-0.6,0.8c-0.1,0.6,0.3,1.1,0.9,1.2
		c0.6,0.1,1.1-0.3,1.2-0.9c0-0.4-0.1-0.7-0.4-0.9l0.1-0.7l1.5,0.2l1.8-15.1L319,119l-0.1,0.7c0.2,0.2,0.4,0.6,0.4,0.9
		c-0.1,0.6-0.6,1-1.2,0.9c-0.6-0.1-1-0.6-0.9-1.2c0-0.4,0.3-0.7,0.6-0.8l0.1-0.7l-1.5-0.2l-1.8,15.2L316,134z"/>
	<path clip-path="url(#SVGID_6_)" fill="#005EC6" d="M312.4,164.3l-0.1,0.7c-0.3,0.2-0.6,0.5-0.6,0.8c-0.1,0.6,0.3,1.1,0.9,1.2
		c0.6,0.1,1.1-0.3,1.2-0.9c0-0.4-0.1-0.7-0.4-0.9l0.1-0.7l1.5,0.2l1.8-15.1l-1.5-0.2l-0.1,0.7c0.2,0.2,0.4,0.6,0.4,0.9
		c-0.1,0.6-0.6,1-1.2,0.9c-0.6-0.1-1-0.6-0.9-1.2c0-0.4,0.3-0.7,0.6-0.8l0.1-0.7l-1.5-0.2l-1.8,15.2L312.4,164.3z"/>
	<path clip-path="url(#SVGID_6_)" fill="#FF7361" d="M310.6,179.5l-0.1,0.7c-0.3,0.2-0.6,0.5-0.6,0.8c-0.1,0.6,0.3,1.1,0.9,1.2
		c0.6,0.1,1.1-0.3,1.2-0.9c0-0.4-0.1-0.7-0.4-0.9l0.1-0.7l1.5,0.2l1.8-15.1l-1.5-0.2l-0.1,0.7c0.2,0.2,0.4,0.6,0.4,0.9
		c-0.1,0.6-0.6,1-1.2,0.9c-0.6-0.1-1-0.6-0.9-1.2c0-0.4,0.3-0.7,0.6-0.8l0.1-0.7l-1.5-0.2l-1.8,15.2L310.6,179.5z"/>
	<path clip-path="url(#SVGID_6_)" fill="#005EC6" d="M308.8,194.5l-0.1,0.7c-0.3,0.2-0.6,0.5-0.6,0.8c-0.1,0.6,0.3,1.1,0.9,1.2
		c0.6,0.1,1.1-0.3,1.2-0.9c0-0.4-0.1-0.7-0.4-0.9l0.1-0.7l1.5,0.2l1.8-15.1l-1.5-0.2l-0.1,0.7c0.2,0.2,0.4,0.6,0.4,0.9
		c-0.1,0.6-0.6,1-1.2,0.9c-0.6-0.1-1-0.6-0.9-1.2c0-0.4,0.3-0.7,0.6-0.8l0.1-0.7l-1.5-0.2l-1.8,15.2L308.8,194.5z"/>
	<path clip-path="url(#SVGID_6_)" fill="#005EC6" d="M321.4,88.8l-0.1,0.7c-0.3,0.2-0.6,0.5-0.6,0.8c-0.1,0.6,0.3,1.1,0.9,1.2
		c0.6,0.1,1.1-0.3,1.2-0.9c0-0.4-0.1-0.7-0.4-0.9l0.1-0.7l1.5,0.2l1.8-15.1l-1.5-0.2l-0.1,0.7c0.2,0.2,0.4,0.6,0.4,0.9
		c-0.1,0.6-0.6,1-1.2,0.9c-0.6-0.1-1-0.6-0.9-1.2c0-0.4,0.3-0.7,0.6-0.8l0.1-0.7l-1.5-0.2l-1.8,15.2L321.4,88.8z"/>
	<path clip-path="url(#SVGID_6_)" fill="#FF7361" d="M328.8,45.5c0.1-0.4-0.1-0.7-0.3-0.9l0.1-0.7l1.5,0.2c0.7-4.9,0.7-8.4-0.2-12.8
		c-0.1-0.5-0.2-1-0.4-1.5l-4.2,1c1.3,3.8,1.3,8.6,0.7,12.8l1.5,0.2l-0.1,0.7c-0.3,0.1-0.6,0.4-0.6,0.8c-0.1,0.6,0.3,1.1,0.9,1.2
		C328.2,46.4,328.7,46,328.8,45.5"/>
	<path clip-path="url(#SVGID_6_)" fill="#FCFFF2" d="M323.2,73.7l-0.1,0.7c-0.3,0.2-0.6,0.4-0.6,0.8c-0.1,0.6,0.3,1.1,0.9,1.2
		c0.6,0.1,1.1-0.3,1.2-0.9c0.1-0.4-0.1-0.7-0.3-0.9l0.1-0.7l1.5,0.2l2.1-15.1l-1.5-0.2l-0.1,0.7c0.2,0.2-1.4,0-1.1-0.2l0.1-0.7
		l-1.5-0.2l-2.1,15.1L323.2,73.7z"/>
	<path clip-path="url(#SVGID_6_)" fill="#005EC6" d="M325.3,58.7l-0.1,0.7c-0.3,0.2-0.6,0.4-0.6,0.8c-0.1,0.6,0.3,1.1,0.9,1.2
		c0.6,0.1,1.1-0.3,1.2-0.9c0.1-0.4-0.1-0.7-0.3-0.9l0.1-0.7l1.5,0.2l2.1-15.1l-1.5-0.2l-0.1,0.7c0.2,0.2,0.4,0.6,0.4,0.9
		c-0.1,0.6-0.6,1-1.2,0.9c-0.6-0.1-1-0.6-0.9-1.2c0.1-0.4,0.3-0.7,0.6-0.8l0.1-0.7l-1.5-0.2l-2.1,15.1L325.3,58.7z"/>
	<path clip-path="url(#SVGID_6_)" fill="#005EC6" d="M326.8,30.3l0.2,0.7c-0.2,0.2-0.4,0.6-0.3,1c0.1,0.6,0.7,0.9,1.3,0.8
		c0.6-0.1,0.9-0.7,0.8-1.3c-0.1-0.4-0.4-0.6-0.7-0.8l-0.2-0.7l1.5-0.4L325.4,13l-1.1,2.2l0.2,0.7c0.3,0.1,0.6,0.4,0.7,0.8
		c0.1,0.6-0.2,1.1-0.8,1.3s-1.1-0.2-1.3-0.8c-0.1-0.4,0.1-0.7,0.3-1l-0.2-0.7l-1.8-0.8l3.8,16L326.8,30.3z"/>
	<path clip-path="url(#SVGID_6_)" fill="#FCFFF2" d="M323.2,15.4l0.2,0.7c-0.2,0.2-0.4,0.6-0.3,1c0.1,0.6,0.7,0.9,1.3,0.8
		c0.6-0.1,0.9-0.7,0.8-1.3c-0.1-0.4-0.4-0.6-0.7-0.8l-0.2-0.7l1.5-0.4L322.4,0l-1.5,0.3L321,1c0.3,0.1,0.6,0.4,0.7,0.8
		c0.1,0.6-0.2,1.1-0.8,1.3s-1.1-0.2-1.3-0.8c-0.1-0.4,0.1-0.7,0.3-1l-0.2-0.7l-1.5,0.3l3.5,14.9L323.2,15.4z"/>
	<path clip-path="url(#SVGID_6_)" fill="#FF7361" d="M297.4,136.9l-0.2,0.7c0.2,0.3,0.3,0.6,0.2,1c-0.2,0.6-0.8,0.8-1.3,0.7
		c-0.6-0.2-0.9-0.8-0.7-1.4c0.1-0.4,0.4-0.6,0.7-0.7l0.2-0.7l-1.5-0.5l5-14.4l1.5,0.5l-0.2,0.7c-0.3,0.1-0.6,0.3-0.7,0.7
		c-0.2,0.6,0.1,1.2,0.7,1.3c0.6,0.2,1.2-0.1,1.4-0.7c0.1-0.4,0-0.7-0.2-1l0.2-0.7l1.5,0.5l-5,14.4L297.4,136.9z"/>
	<path clip-path="url(#SVGID_6_)" fill="#005EC6" d="M287.5,165.7l-0.2,0.7c0.2,0.3,0.3,0.6,0.2,1c-0.2,0.6-0.8,0.9-1.3,0.7
		c-0.6-0.2-0.9-0.8-0.7-1.4c0.1-0.4,0.4-0.6,0.7-0.7l0.2-0.7l-1.5-0.5l5.6-16.2l0.8,2.3l-0.2,0.7c-0.3,0.1-0.6,0.3-0.7,0.7
		c-0.2,0.6,0.1,1.2,0.7,1.3c0.6,0.2,1.2-0.1,1.4-0.7c0.1-0.4,0-0.7-0.2-1l0.2-0.7l1.8-0.6l-5.3,15.5L287.5,165.7z"/>
	<path clip-path="url(#SVGID_6_)" fill="#FCFFF2" d="M292.4,151.3l-0.2,0.7c0.2,0.3,0.3,0.6,0.2,1c-0.2,0.6-0.8,0.8-1.3,0.7
		c-0.6-0.2-0.9-0.8-0.7-1.4c0.1-0.4,0.4-0.6,0.7-0.7l0.2-0.7l-1.5-0.5l5-14.4l1.5,0.5l-0.2,0.7c-0.3,0.1-0.6,0.3-0.7,0.7
		c-0.2,0.6,0.1,1.2,0.7,1.3c0.6,0.2,1.2-0.1,1.3-0.7c0.1-0.4,0-0.7-0.2-1l0.2-0.7l1.5,0.5l-5,14.4L292.4,151.3z"/>
	<path clip-path="url(#SVGID_6_)" fill="#005EC6" d="M243.6,88c0,5.9-10.7,18.5-10.7,18.5S222.1,94,222.1,88
		c0-5.9,4.8-10.7,10.7-10.7C238.8,77.3,243.6,82.1,243.6,88"/>
	<path clip-path="url(#SVGID_6_)" fill="#FCFFF2" d="M125.9,79.1c-0.2-0.6-0.8-0.9-1.3-0.7c-0.4,0.1-0.6,0.4-0.7,0.7l-0.7,0.2
		l-0.4-1.5l-6,1.8l-0.2-0.6c0.2-0.2,0.3-0.6,0.2-1c-0.2-0.6-0.7-0.9-1.3-0.8s-0.9,0.7-0.8,1.3c0.1,0.4,0.4,0.6,0.7,0.7l0.2,0.6
		l-7.5,2.2l0.4,1.5l0.7-0.2c0.1-0.3,0.4-0.6,0.7-0.7c0.6-0.2,1.2,0.1,1.3,0.7c0.2,0.6-0.2,1.2-0.7,1.3c-0.4,0.1-0.7,0-1-0.2
		l-0.7,0.2l0.4,1.5l14.6-4.4l-0.4-1.5l0.7-0.2c0.3,0.2,0.6,0.3,1,0.2C125.8,80.2,126.1,79.6,125.9,79.1"/>
	<path clip-path="url(#SVGID_6_)" fill="#FCFFF2" d="M223.7,108.8l-1.5-0.4l0.2-0.7c0.3-0.1,0.6-0.4,0.7-0.7
		c0.2-0.6-0.2-1.1-0.7-1.3c-0.6-0.2-1.2,0.2-1.3,0.7c-0.1,0.4,0,0.7,0.2,1l-0.2,0.7l-1.5-0.4"/>
	<path clip-path="url(#SVGID_6_)" fill="#005EC6" d="M309,121.3c0.4,0.1,0.6,0.4,0.7,0.7l0.7,0.2l0.5-1.5l-14.5-4.8l-0.5,1.5
		l-0.7-0.2c-0.1-0.3-0.3-0.6-0.7-0.7c-0.6-0.2-1.2,0.1-1.3,0.7c-0.2,0.6,0.1,1.2,0.7,1.3c0.4,0.1,0.7,0,1-0.2l0.7,0.2l-0.5,1.5
		l6.2,2l0,0l-0.2,0.7c-0.3,0.1-0.6,0.3-0.8,0.7c-0.2,0.6,0.1,1.2,0.7,1.3c0.6,0.2,1.2-0.1,1.4-0.7c0.1-0.4,0-0.7-0.2-1l0.2-0.7l0,0
		l7.1,2.3l0.5-1.5l-0.7-0.2c-0.3,0.2-0.6,0.3-1,0.2c-0.6-0.2-0.9-0.8-0.7-1.3C307.8,121.4,308.4,121.1,309,121.3"/>
	<path clip-path="url(#SVGID_6_)" fill="#FF7361" d="M294.6,116.6c0.4,0.1,0.6,0.4,0.7,0.7l0.7,0.2l0.5-1.5l-7.5-2.5l0.1-0.6
		c0.3-0.1,0.6-0.4,0.7-0.7c0.1-0.6-0.2-1.1-0.8-1.3c-0.6-0.1-1.1,0.2-1.3,0.8c-0.1,0.4,0,0.7,0.2,1l-0.1,0.5l-5.9-1.9l-0.5,1.5
		l-0.7-0.2c-0.1-0.3-0.3-0.6-0.7-0.7c-0.6-0.2-1.2,0.1-1.3,0.7c-0.2,0.6,0.1,1.2,0.7,1.3c0.4,0.1,0.7,0,1-0.2l0.7,0.2l-0.5,1.5
		l14.5,4.7l0.5-1.5l-0.7-0.2c-0.3,0.2-0.6,0.3-1,0.2c-0.6-0.2-0.9-0.8-0.7-1.3C293.4,116.7,294,116.4,294.6,116.6"/>
	<path clip-path="url(#SVGID_6_)" fill="#005EC6" d="M294.5,71.2l0.1-0.7c0.3-0.2,0.5-0.5,0.6-0.8c0.1-0.6-0.4-1.1-1-1.2
		c-0.6-0.1-1.1,0.4-1.2,1c0,0.4,0.2,0.7,0.4,0.9l-0.1,0.7l-1.5-0.1l-2.7,16.2l1.8-1.6l0.1-0.7c-0.2-0.2-0.4-0.6-0.3-1
		c0.1-0.6,0.6-1,1.2-0.9c0.6,0.1,1,0.6,0.9,1.2c-0.1,0.4-0.3,0.7-0.6,0.8l-0.1,0.7l1.4,1.4l2.6-15.8L294.5,71.2z"/>
	<path clip-path="url(#SVGID_6_)" fill="#FCFFF2" d="M292.1,85.8l0.1-0.7c0.3-0.1,0.6-0.4,0.6-0.8c0.1-0.6-0.3-1.1-0.9-1.2
		c-0.6-0.1-1.1,0.3-1.2,0.9c-0.1,0.4,0.1,0.7,0.3,0.9l-0.1,0.7l-1.5-0.2l-2.3,15l1.5,0.2l0.1-0.7c-0.2-0.2-0.4-0.6-0.3-1
		c0.1-0.6,0.6-1,1.2-0.9c0.6,0.1,1,0.6,0.9,1.2c-0.1,0.4-0.3,0.7-0.6,0.8l-0.1,0.7l1.5,0.2l2.3-15.1L292.1,85.8z"/>
	<path clip-path="url(#SVGID_6_)" fill="#005EC6" d="M263.6,68.7l0.1-0.7c0.3-0.2,0.5-0.5,0.6-0.8c0.1-0.6-0.4-1.1-1-1.2
		c-0.6-0.1-1.1,0.4-1.2,1c0,0.4,0.1,0.7,0.4,0.9l-0.1,0.7l-1.5-0.1c-0.2,3.9-4.5,8.3-5.6,12.5l1.1,0.4l0.9,0.3l2,0.7
		c1.2-4.9,5.4-9.8,5.8-13.4L263.6,68.7z"/>
	<path clip-path="url(#SVGID_6_)" fill="#FCFFF2" d="M257.9,81.8l0.2-0.7c0.3-0.1,0.6-0.3,0.7-0.7c0.2-0.6-0.1-1.2-0.7-1.3
		c-0.6-0.2-1.2,0.1-1.3,0.7c-0.1,0.4,0,0.7,0.2,1l-0.2,0.7l-1.5-0.5l-4.8,14.5l1.5,0.5l0.2-0.7c-0.2-0.3-0.3-0.6-0.2-1
		c0.2-0.6,0.8-0.9,1.3-0.7c0.6,0.2,0.9,0.8,0.7,1.3c-0.1,0.4-0.4,0.6-0.7,0.7l-0.2,0.7l1.5,0.5l4.8-14.5L257.9,81.8z"/>
	<path clip-path="url(#SVGID_6_)" fill="#FCFFF2" d="M244.4,114.8l-0.5,1.5l-0.7-0.2c-0.1-0.3-0.3-0.6-0.7-0.8
		c-0.6-0.2-1.2,0.1-1.4,0.6c-0.2,0.6,0.1,1.2,0.6,1.4c0.4,0.1,0.7,0,1-0.1l0.7,0.2l-0.5,1.5"/>
	<path clip-path="url(#SVGID_6_)" fill="#005EC6" d="M100.2,47l0.2,0.7c-0.2,0.3-0.3,0.6-0.2,1c0.2,0.6,0.8,0.9,1.3,0.7
		c0.6-0.2,0.9-0.8,0.7-1.3c-0.1-0.4-0.4-0.6-0.7-0.7l-0.2-0.7l1.5-0.5l-4.5-14.5l-1.5,0.5l0.2,0.7c0.3,0.1,0.6,0.3,0.7,0.7
		c0.2,0.6-0.1,1.2-0.7,1.3c-0.6,0.2-1.2-0.1-1.3-0.7c-0.1-0.4,0-0.7,0.2-1l-0.2-0.7l-1.5,0.4l4.6,14.6L100.2,47z"/>
	<path clip-path="url(#SVGID_6_)" fill="#FCFFF2" d="M127.1,16l0.7-0.2c0.1-0.3,0.4-0.6,0.7-0.7c0.6-0.2,1.1,0.2,1.3,0.7
		c0.2,0.6-0.2,1.2-0.7,1.3c-0.4,0.1-0.7,0-1-0.2l-0.7,0.2l0.4,1.5l-14.6,4.2l-0.4-1.5l0.7-0.2c0.3,0.2,0.6,0.3,1,0.2
		c0.6-0.2,0.9-0.7,0.7-1.3c-0.2-0.6-0.7-0.9-1.3-0.7c-0.4,0.1-0.6,0.4-0.7,0.7l-0.7,0.2l-0.4-1.5l14.7-4.2L127.1,16z"/>
	<path clip-path="url(#SVGID_6_)" fill="#FFFFFF" d="M234.4,87.2c0,0.9-0.7,1.4-1.4,1.4h-1v-2.8h1C233.7,85.9,234.4,86.4,234.4,87.2
		 M232,93.9V91h0.8h0.3h0.5c0.8,0,1.5,0.7,1.5,1.5c0,0.8-0.7,1.5-1.5,1.5H232z M236.2,89c0.3-0.5,0.4-1,0.4-1.6c0-2-1.6-3.6-3.6-3.6
		H232h-2.3V96h1.4h0.8h1.8c2,0,3.7-1.6,3.7-3.7c0-1.2-0.6-2.2-1.4-2.9C236.1,89.3,236.2,89.1,236.2,89C236.2,89,236.2,89,236.2,89"
		/>
</g>
</svg>
