<?xml version="1.0" encoding="utf-8"?>
<!-- Generator: Adobe Illustrator 18.1.1, SVG Export Plug-In . SVG Version: 6.00 Build 0)  -->
<svg version="1.1" id="Layer_1" xmlns="http://www.w3.org/2000/svg" xmlns:xlink="http://www.w3.org/1999/xlink" x="0px" y="0px"
	 viewBox="0 0 560 400" enable-background="new 0 0 560 400" xml:space="preserve">
<g>
	<path fill="#005EC6" d="M392.4,337.2v-7.5l-3.5,3.2l-3.5-3.2v7.5H383V325h0.8l5.1,4.6l5.1-4.6h0.9v12.2H392.4z"/>
	<path fill="#005EC6" d="M404.8,333.5c0,2.2-1.8,4-4.2,4c-2.3,0-4.1-1.8-4.1-4c0-2.2,1.8-4,4.1-4C403,329.5,404.8,331.3,404.8,333.5
		z M402.6,333.5c0-0.5-0.2-1-0.6-1.4c-0.4-0.4-0.9-0.6-1.4-0.6c-0.5,0-1,0.2-1.4,0.6c-0.4,0.4-0.6,0.9-0.6,1.4
		c0,0.6,0.2,1.1,0.6,1.5c0.3,0.4,0.9,0.6,1.4,0.6c0.5,0,1-0.2,1.4-0.6C402.4,334.5,402.6,334,402.6,333.5z"/>
	<path fill="#005EC6" d="M414.2,333.5c0,2.2-1.8,4-4.2,4c-2.3,0-4.1-1.8-4.1-4c0-2.2,1.8-4,4.1-4
		C412.3,329.5,414.2,331.3,414.2,333.5z M412,333.5c0-0.5-0.2-1-0.6-1.4c-0.4-0.4-0.9-0.6-1.4-0.6c-0.5,0-1,0.2-1.4,0.6
		c-0.4,0.4-0.6,0.9-0.6,1.4c0,0.6,0.2,1.1,0.6,1.5c0.3,0.4,0.9,0.6,1.4,0.6c0.5,0,1-0.2,1.4-0.6C411.8,334.5,412,334,412,333.5z"/>
	<path fill="#005EC6" d="M417.4,330.6c0.6-0.7,1.6-1,2.5-1c0.4,0,0.9,0.1,1.3,0.2l-0.9,1.9c-1.3-0.6-2.6,0.2-2.8,1.4v4.1h-2.2v-7.5
		h1.7L417.4,330.6z"/>
	<path fill="#005EC6" d="M428.7,330.9c0.5,0.6,0.9,1.3,0.9,2.2c0,1.9-1.7,3.4-3.7,3.4c-0.3,0-0.5,0-0.8-0.1
		c-0.2,0.3-0.3,0.6-0.4,0.9c0.4-0.1,0.8-0.1,1.3-0.1c1.4,0,2.4,0.2,3.2,0.7c0.8,0.5,1.2,1.2,1.2,2.1c0,0.9-0.4,1.6-1.1,2.1
		c-0.7,0.5-1.8,0.7-3.2,0.7s-2.5-0.2-3.2-0.7c-0.7-0.5-1.1-1.2-1.1-2.1c0-0.3,0.1-0.7,0.2-1c0.3-1.2,1.2-2.5,1.7-3.3
		c-0.8-0.6-1.4-1.6-1.4-2.6c0-1.9,1.7-3.4,3.7-3.4c0.2,0,0.3,0,0.5,0l3.6-0.7v1.4L428.7,330.9z M428.2,340c0-0.5-0.9-0.8-2.2-0.8
		c-1.4,0-2.2,0.3-2.2,0.8c0,0.6,0.8,0.8,2.2,0.8C427.5,340.8,428.2,340.6,428.2,340z M424.3,333.1c0,0.9,0.8,1.4,1.6,1.4
		c0.9,0,1.6-0.7,1.6-1.4c0-0.8-0.7-1.4-1.6-1.4C425,331.6,424.3,332.3,424.3,333.1z"/>
	<path fill="#005EC6" d="M439.6,329.7v7.5h-1.8v-0.7c-0.7,0.6-1.6,0.9-2.6,0.9c-2.2,0-4-1.8-4-4c0-2.2,1.8-4,4-4
		c1,0,1.9,0.3,2.6,0.9l0.2-0.7H439.6z M437.4,333.5c0-0.5-0.2-1.1-0.6-1.4c-0.4-0.4-0.9-0.6-1.4-0.6c-0.5,0-1,0.2-1.4,0.6
		c-0.4,0.4-0.6,0.9-0.6,1.4c0,0.5,0.2,1,0.6,1.4c0.4,0.4,0.9,0.6,1.4,0.6c0.5,0,1-0.2,1.4-0.6C437.2,334.5,437.4,334,437.4,333.5z"
		/>
	<path fill="#005EC6" d="M446.5,329.7v2h-1.7v5.5h-2.2v-5.5H441v-2h1.6v-2.8h2.2v2.8H446.5z"/>
	<path fill="#005EC6" d="M454.4,336.1c-0.7,0.9-1.8,1.4-3,1.4c-2.2,0-4-1.8-4-4c0-2.2,1.8-4,4-4s4,1.8,4,4c0,0.2,0,0.5-0.1,0.7h-5.6
		c0.1,0.3,0.2,0.5,0.4,0.7c0.4,0.4,0.8,0.6,1.3,0.6c0.5,0,0.9-0.2,1.3-0.6L454.4,336.1z M453.3,332.8c-0.1-0.3-0.2-0.6-0.5-0.9
		c-0.3-0.4-0.8-0.6-1.3-0.6c-0.5,0-1,0.2-1.3,0.6c-0.2,0.2-0.4,0.5-0.5,0.9H453.3z"/>
</g>
<g>
	<defs>
		<rect id="SVGID_1_" x="3.3" y="12.5" width="553.5" height="375"/>
	</defs>
	<clipPath id="SVGID_2_">
		<use xlink:href="#SVGID_1_"  overflow="visible"/>
	</clipPath>
	<g clip-path="url(#SVGID_2_)">
		<path fill="#005EC6" d="M7.5,190.8c2,0,3.6,1.6,3.6,3.6c0,0.7-0.2,1.4-0.6,2c0.9,0.7,1.4,1.7,1.4,2.9c0,2.1-1.7,3.7-3.7,3.7h-4
			v-12.2H7.5z M7.4,195.6c0.7,0,1.4-0.6,1.4-1.4s-0.7-1.4-1.4-1.4H6.4v2.8H7.4z M8.2,200.9c0.8,0,1.5-0.6,1.5-1.5
			c0-0.8-0.7-1.5-1.5-1.5H6.4v2.9H8.2z"/>
		<path fill="#005EC6" d="M21.8,195.5v7.5H20v-0.7c-0.7,0.6-1.6,0.9-2.6,0.9c-2.2,0-4-1.8-4-4c0-2.2,1.8-4,4-4c1,0,1.9,0.3,2.6,0.9
			l0.2-0.7H21.8z M19.6,199.2c0-0.5-0.2-1.1-0.6-1.4c-0.4-0.4-0.9-0.6-1.4-0.6c-0.5,0-1,0.2-1.4,0.6c-0.4,0.4-0.6,0.9-0.6,1.4
			c0,0.5,0.2,1,0.6,1.4c0.4,0.4,0.9,0.6,1.4,0.6c0.5,0,1-0.2,1.4-0.6C19.4,200.3,19.6,199.8,19.6,199.2z"/>
		<path fill="#005EC6" d="M25.6,196.3c0.6-0.7,1.6-1,2.5-1c0.4,0,0.9,0.1,1.3,0.2l-0.9,1.9c-1.3-0.6-2.6,0.2-2.8,1.4v4.1h-2.2v-7.5
			h1.7L25.6,196.3z"/>
		<path fill="#005EC6" d="M32.9,196.4c0.7-0.7,1.7-1.1,2.8-1.1c2.2,0,4,1.8,4,4c0,2.2-1.8,4-4,4c-1.1,0-2.1-0.4-2.8-1.1v0.9h-2.2
			v-13h2.2V196.4z M37.4,199.2c0-0.5-0.2-1-0.6-1.4c-0.4-0.4-0.9-0.6-1.4-0.6s-1,0.2-1.4,0.6c-0.4,0.4-0.6,0.9-0.6,1.4
			c0,0.5,0.2,1.1,0.6,1.4c0.4,0.4,0.9,0.6,1.4,0.6s1-0.2,1.4-0.6C37.2,200.3,37.4,199.8,37.4,199.2z"/>
		<path fill="#005EC6" d="M41,193.2v-2.4h2.2v2.4H41z M41,203v-7.5h2.2v7.5H41z"/>
		<path fill="#005EC6" d="M50.3,197.8c-1.1-1.2-3.6-0.5-3.6,1.4c0,1.7,2.3,2.7,3.6,1.4l1,1.7c-0.7,0.5-1.6,0.8-2.5,0.8
			c-2.3,0-4.2-1.8-4.2-4c0-2.2,1.9-4,4.2-4c0.9,0,1.8,0.3,2.5,0.8L50.3,197.8z"/>
		<path fill="#005EC6" d="M60.4,195.5v7.5h-1.8v-0.7c-0.7,0.6-1.6,0.9-2.6,0.9c-2.2,0-4-1.8-4-4c0-2.2,1.8-4,4-4
			c1,0,1.9,0.3,2.6,0.9l0.2-0.7H60.4z M58.2,199.2c0-0.5-0.2-1.1-0.6-1.4c-0.4-0.4-0.9-0.6-1.4-0.6s-1,0.2-1.4,0.6
			c-0.4,0.4-0.6,0.9-0.6,1.4c0,0.5,0.2,1,0.6,1.4c0.4,0.4,0.9,0.6,1.4,0.6s1-0.2,1.4-0.6C58,200.3,58.2,199.8,58.2,199.2z"/>
		<path fill="#005EC6" d="M63.9,196.1c0.6-0.5,1.4-0.9,2.1-0.9c2,0,3.7,1.8,3.7,4v3.7h-2.1v-3.7c0-1.1-0.8-2-1.8-2c-1,0-1.8,1-1.8,2
			v3.7h-2.2v-7.5h1.8L63.9,196.1z"/>
	</g>
	<path clip-path="url(#SVGID_2_)" fill="#005EC6" d="M376.4,115.9l1.1,0.1c0.3,0.4,0.8,0.8,1.3,0.9c0.9,0.1,1.7-0.6,1.8-1.5
		c0.1-0.9-0.6-1.8-1.5-1.8c-0.6,0-1.1,0.3-1.5,0.6l-1.1-0.1l0.2-2.4l-24-2l-0.2,2.4l1.1,0.1c0.3-0.4,0.9-0.7,1.5-0.7
		c0.9,0.1,1.6,0.9,1.5,1.8c-0.1,0.9-0.9,1.6-1.8,1.5c-0.6,0-1.1-0.4-1.3-0.9l-1.1-0.1l-0.2,2.4l24.1,2L376.4,115.9z"/>
	<path clip-path="url(#SVGID_2_)" fill="#005EC6" d="M454.4,172.2l0.2-1.1c0.4-0.2,0.9-0.7,1-1.3c0.1-0.9-0.5-1.8-1.4-1.9
		c-0.9-0.1-1.8,0.5-1.9,1.4c-0.1,0.6,0.2,1.1,0.5,1.5l-0.2,1.1l-2.4-0.4c-0.7,6.2-1,13.3-0.7,20.2l1.6,0.3l1.8,0.5l3.1,0.8
		c-0.3-8,0-15.1,0.9-20.8L454.4,172.2z"/>
	<path clip-path="url(#SVGID_2_)" fill="#005EC6" d="M352.9,162.8l0.3-1.1c0.5-0.2,1-0.6,1.1-1.2c0.2-0.9-0.3-1.8-1.2-2.1
		c-0.9-0.2-1.8,0.3-2.1,1.2c-0.2,0.6,0,1.2,0.4,1.6l-0.3,1.1l-2.4-0.6l-6.2,23.3l2.4,0.6l1.8,0.5l2.4,0.6l6.2-23.4L352.9,162.8z"/>
	<path clip-path="url(#SVGID_2_)" fill="#FF7361" d="M365.6,117.4l0.1-1.1c0.4-0.3,0.9-0.7,0.9-1.3c0.1-0.9-0.5-1.8-1.5-1.9
		c-0.9-0.1-1.8,0.6-1.9,1.5c-0.1,0.6,0.2,1.1,0.6,1.5l-0.1,1.1l-2.4-0.3l-7.1,24.4l3.1-2.3l0.3-1.1c-0.3-0.4-0.5-1-0.4-1.6
		c0.2-0.9,1.2-1.4,2-1.2c0.9,0.2,1.4,1.2,1.2,2.1c-0.2,0.6-0.6,1-1.1,1.2l-0.3,1.1l1.9,2.4l7-24.2L365.6,117.4z"/>
	<path clip-path="url(#SVGID_2_)" fill="#FFDF93" d="M359.1,139.5l0.3-1.1c0.5-0.2,1-0.6,1.1-1.2c0.2-0.9-0.3-1.8-1.2-2.1
		c-0.9-0.2-1.8,0.3-2.1,1.2c-0.2,0.6,0,1.2,0.4,1.6l-0.3,1.1l-2.4-0.6l-6.2,23.3l2.4,0.6l0.3-1.1c-0.3-0.4-0.5-1-0.4-1.6
		c0.2-0.9,1.2-1.4,2-1.2c0.9,0.2,1.4,1.2,1.2,2.1c-0.2,0.6-0.6,1-1.1,1.2l-0.3,1.1l2.4,0.6l6.2-23.4L359.1,139.5z"/>
	<path clip-path="url(#SVGID_2_)" fill="#005EC6" d="M344.2,85l0.1-1.1c0.4-0.3,0.9-0.7,0.9-1.3c0.1-0.9-0.6-1.7-1.5-1.8
		c-0.9-0.1-1.8,0.6-1.8,1.5c-0.1,0.6,0.2,1.1,0.6,1.5l-0.1,1.1l-2.4-0.2l-2.2,24l2.4,0.2l0.1-1.1c-0.4-0.3-0.7-0.9-0.6-1.5
		c0.1-0.9,0.9-1.6,1.8-1.5c0.9,0.1,1.6,0.9,1.5,1.8c-0.1,0.6-0.4,1.1-0.9,1.3l-0.1,1.1l2.4,0.2l2.2-24.1L344.2,85z"/>
	<path clip-path="url(#SVGID_2_)" fill="#FF7361" d="M348.6,36.9l0.1-1.1c0.4-0.3,0.9-0.7,0.9-1.3c0.1-0.9-0.6-1.7-1.5-1.8
		c-0.9-0.1-1.8,0.6-1.8,1.5c-0.1,0.6,0.2,1.1,0.6,1.5l-0.1,1.1l-2.4-0.2l-2.5,27l2.7-2.8l0.1-1.1c-0.4-0.3-0.7-0.9-0.6-1.5
		c0.1-0.9,0.9-1.6,1.8-1.5c0.9,0.1,1.6,0.9,1.5,1.8c-0.1,0.6-0.4,1.1-0.9,1.3l-0.1,1.1l2.3,2l2.4-25.9L348.6,36.9z"/>
	<path clip-path="url(#SVGID_2_)" fill="#FCFFF2" d="M346.4,61l0.1-1.1c0.4-0.3,0.9-0.7,0.9-1.3c0.1-0.9-0.6-1.7-1.5-1.8
		c-0.9-0.1-1.8,0.6-1.8,1.5c-0.1,0.6,0.2,1.1,0.6,1.5l-0.1,1.1l-2.4-0.2l-2.2,24l2.4,0.2l0.1-1.1c-0.4-0.3-0.7-0.9-0.6-1.5
		c0.1-0.9,0.9-1.6,1.8-1.5c0.9,0.1,1.6,0.9,1.5,1.8c-0.1,0.6-0.4,1.1-0.9,1.3l-0.1,1.1l2.4,0.2l2.2-24.1L346.4,61z"/>
	<path clip-path="url(#SVGID_2_)" fill="#FCFFF2" d="M355.2,111.6c-0.6,0-1.1,0.3-1.5,0.6l-1.1-0.1l0.2-2.4l-10.7-0.9l0.1-1.1
		c0.4-0.3,0.8-0.8,0.9-1.4c0.1-0.9-0.6-1.7-1.6-1.8c-0.9-0.1-1.7,0.6-1.8,1.6c0,0.6,0.3,1.1,0.7,1.5l-0.1,1.1l-11.5-0.9l-0.2,2.4
		l1.1,0.1c0.3-0.4,0.1,2.3-0.1,1.8l-1.1-0.1l-0.2,2.4l24.1,2l0.2-2.4l1.1,0.1c0.3,0.4,0.8,0.8,1.3,0.9c0.9,0.1,1.7-0.6,1.8-1.5
		C356.8,112.5,356.1,111.7,355.2,111.6"/>
	<path clip-path="url(#SVGID_2_)" fill="#FF7361" d="M479.2,344.5c0.3-0.5,0.3-1.1,0-1.6l0.5-1l2.1,1.1c3.7-6.9,5.7-12.1,6.8-19.2
		c0.1-0.8,0.2-1.7,0.3-2.5l-6.7-0.9c-0.2,6.4-2.9,13.4-6.1,19.4l2.2,1.2l-0.5,1c-0.5,0-1.1,0.3-1.4,0.9c-0.4,0.8-0.2,1.8,0.6,2.2
		C477.7,345.6,478.7,345.3,479.2,344.5"/>
	<path clip-path="url(#SVGID_2_)" fill="#005EC6" d="M455.1,383.2l-0.5,1c-0.5,0.1-1.1,0.3-1.4,0.9c-0.4,0.8-0.2,1.8,0.7,2.3
		c0.8,0.4,1.8,0.1,2.3-0.7c0.3-0.5,0.2-1.1,0-1.6l0.5-1l2.1,1.2l11.5-21.2l-2.1-1.2l-0.5,1c0.2,0.5-2.1-0.8-1.6-0.9l0.5-1l-2.1-1.2
		L453,382L455.1,383.2z"/>
	<path clip-path="url(#SVGID_2_)" fill="#FCFFF2" d="M466.6,362.1l-0.5,1c-0.5,0.1-1.1,0.3-1.4,0.9c-0.4,0.8-0.2,1.8,0.7,2.3
		c0.8,0.4,1.8,0.1,2.3-0.7c0.3-0.5,0.2-1.1,0-1.6l0.5-1l2.1,1.2l11.5-21.2l-2.1-1.2l-0.5,1c0.2,0.5,0.3,1.1,0,1.6
		c-0.4,0.8-1.5,1.1-2.3,0.7c-0.8-0.4-1.1-1.5-0.7-2.3c0.3-0.5,0.8-0.8,1.3-0.9l0.5-1l-2.1-1.2L464.4,361L466.6,362.1z"/>
	<path clip-path="url(#SVGID_2_)" fill="#FCFFF2" d="M307.3,107.7c-0.6,0-1.1,0.2-1.5,0.6l-1.1-0.1l0.2-2.4
		c-7.8-0.6-13.4-0.4-20.3,1.6c-0.8,0.2-1.6,0.5-2.4,0.8l1.9,6.5c5.9-2.4,13.4-2.8,20.2-2.2l0.2-2.5l1.1,0.1c0.3,0.5,0.7,0.9,1.3,0.9
		c0.9,0.1,1.7-0.6,1.8-1.5C308.9,108.6,308.3,107.7,307.3,107.7"/>
	<path clip-path="url(#SVGID_2_)" fill="#FF7361" d="M172.7,42.2l0.7,2.4l0,0l1.1-0.3c0.2-0.5,0.6-1,1.1-1.2
		c0.9-0.3,1.8,0.2,2.1,1.2c0.3,0.9-0.3,1.9-1.2,2.1c-0.6,0.2-1.2,0-1.6-0.3l-1.1,0.3l0,0l0.7,2.3c-3.5,1-5.5,4.7-4.5,8.1l-6.4,1.9
		C161.6,51.6,165.7,44.3,172.7,42.2"/>
	<path clip-path="url(#SVGID_2_)" fill="#005EC6" d="M166,58l-0.3-1.1c-0.5-0.2-1-0.6-1.2-1.1c-0.3-0.9,0.2-1.8,1.1-2.1
		c0.9-0.3,1.8,0.2,2.1,1.1c0.2,0.6,0,1.2-0.3,1.6l0.3,1.1l2.3-0.7l6.9,23.1l-6.4,2l-6.9-23.2L166,58z"/>
	<path clip-path="url(#SVGID_2_)" fill="#FF7361" d="M51.9,147.1c-3,0-5.5,2.5-5.5,5.5c0,3,2.5,5.5,5.5,5.5c3,0,5.5-2.5,5.5-5.5
		C57.4,149.6,54.9,147.1,51.9,147.1 M51.9,162.5c-5.5,0-9.9-4.4-9.9-9.9c0-5.5,4.4-9.9,9.9-9.9s9.9,4.4,9.9,9.9
		C61.7,158.1,57.3,162.5,51.9,162.5"/>
</g>
<rect x="39.3" y="150.5" fill="#005EC6" width="25" height="4.4"/>
<g>
	<defs>
		<rect id="SVGID_3_" x="3.3" y="12.5" width="553.5" height="375"/>
	</defs>
	<clipPath id="SVGID_4_">
		<use xlink:href="#SVGID_3_"  overflow="visible"/>
	</clipPath>
	<path clip-path="url(#SVGID_4_)" fill="#FF7361" d="M452.5,292.6c-3,0-5.5,2.5-5.5,5.5c0,3,2.5,5.5,5.5,5.5c3,0,5.5-2.5,5.5-5.5
		C458,295.1,455.5,292.6,452.5,292.6 M452.5,308c-5.5,0-9.9-4.4-9.9-9.9s4.4-9.9,9.9-9.9c5.5,0,9.9,4.4,9.9,9.9S457.9,308,452.5,308
		"/>
</g>
<rect x="440" y="296" fill="#005EC6" width="25" height="4.4"/>
<g>
	<defs>
		<rect id="SVGID_5_" x="3.3" y="12.5" width="553.5" height="375"/>
	</defs>
	<clipPath id="SVGID_6_">
		<use xlink:href="#SVGID_5_"  overflow="visible"/>
	</clipPath>
	<path clip-path="url(#SVGID_6_)" fill="#FCFFF2" d="M472.8,123.8l1.1,0.1c0.3,0.4,0.8,0.8,1.3,0.9c0.9,0.1,1.7-0.6,1.8-1.5
		c0.1-0.9-0.6-1.8-1.5-1.8c-0.6,0-1.1,0.3-1.5,0.6l-1.1-0.1l0.2-2.4l-24-2l-0.2,2.4l1.1,0.1c0.3-0.4,0.9-0.7,1.5-0.7
		c0.9,0.1,1.6,0.9,1.5,1.8s-0.9,1.6-1.8,1.5c-0.6,0-1.1-0.4-1.3-0.9l-1.1-0.1l-0.2,2.4l24.1,2L472.8,123.8z"/>
	<path clip-path="url(#SVGID_6_)" fill="#005EC6" d="M544.9,129.7l1.1,0.1c0.3,0.4,0.8,0.8,1.3,0.9c0.9,0.1,1.7-0.6,1.8-1.5
		c0.1-0.9-0.6-1.8-1.5-1.8c-0.6,0-1.1,0.3-1.5,0.6l-1.1-0.1l0.2-2.4l-27.1-2.2l2.8,2.7l1.1,0.1c0.3-0.4,0.9-0.7,1.5-0.7
		c0.9,0.1,1.6,0.9,1.5,1.8c-0.1,0.9-0.9,1.6-1.8,1.5c-0.6,0-1.1-0.4-1.3-0.9l-1.1-0.1l-2,2.3l25.9,2.1L544.9,129.7z"/>
	<path clip-path="url(#SVGID_6_)" fill="#FF7361" d="M424.5,119.9l1.1,0.1c0.3,0.4,0.8,0.8,1.3,0.9c0.9,0.1,1.7-0.6,1.8-1.5
		c0.1-0.9-0.6-1.7-1.5-1.8c-0.6,0-1.1,0.3-1.5,0.6l-1.1-0.1l0.2-2.4l-27.1-2.2l2.8,2.7l1.1,0.1c0.3-0.4-1.3,1.7-1.3,1.7l-1.4,2.3
		l25.3,2.1L424.5,119.9z"/>
	<path clip-path="url(#SVGID_6_)" fill="#FCFFF2" d="M400.4,117.9l1.1,0.1c0.3,0.4,0.8,0.8,1.3,0.9c0.9,0.1,1.7-0.6,1.8-1.5
		c0.1-0.9-0.6-1.8-1.5-1.8c-0.6,0-1.1,0.3-1.5,0.6l-1.1-0.1l0.2-2.4l-24-2l-0.2,2.4l1.1,0.1c0.3-0.4,0.9-0.7,1.5-0.7
		c0.9,0.1,1.6,0.9,1.5,1.8c-0.1,0.9-0.9,1.6-1.8,1.5c-0.6,0-1.1-0.4-1.3-0.9l-1.1-0.1l-0.2,2.4l24.1,2L400.4,117.9z"/>
	<path clip-path="url(#SVGID_6_)" fill="#FF7361" d="M448.6,121.8l1.1,0.1c0.3,0.4,0.8,0.8,1.3,0.9c0.9,0.1,1.7-0.6,1.8-1.5
		c0.1-0.9-0.6-1.8-1.5-1.8c-0.6,0-1.1,0.3-1.5,0.6l-1.1-0.1l0.2-2.4l-24-2l-0.2,2.4l1.1,0.1c0.3-0.4,0.9-0.7,1.5-0.7
		c0.9,0.1,1.6,0.9,1.5,1.8c-0.1,0.9-0.9,1.6-1.8,1.5c-0.6,0-1.1-0.4-1.3-0.9l-1.1-0.1l-0.2,2.4l24.1,2L448.6,121.8z"/>
	<path clip-path="url(#SVGID_6_)" fill="#005EC6" d="M496.7,125.7l1.1,0.1c0.3,0.4,0.8,0.8,1.3,0.9c0.9,0.1,1.7-0.6,1.8-1.5
		c0.1-0.9-0.6-1.8-1.5-1.8c-0.6,0-1.1,0.3-1.5,0.6l-1.1-0.1l0.2-2.4l-24-2l-0.2,2.4l1.1,0.1c0.3-0.4,0.9-0.7,1.5-0.7
		c0.9,0.1,1.6,0.9,1.5,1.8c-0.1,0.9-0.9,1.6-1.8,1.5c-0.6,0-1.1-0.4-1.3-0.9l-1.1-0.1l-0.2,2.4l24.1,2L496.7,125.7z"/>
	<path clip-path="url(#SVGID_6_)" fill="#FCFFF2" d="M520.7,127.7l1.1,0.1c0.3,0.4,0.8,0.8,1.3,0.9c0.9,0.1,1.7-0.6,1.8-1.5
		c0.1-0.9-0.6-1.7-1.5-1.8c-0.6,0-1.1,0.3-1.5,0.6l-1.1-0.1l0.2-2.4l-24-2l-0.2,2.4l1.1,0.1c0.3-0.4,0.9-0.7,1.5-0.7
		c0.9,0.1,1.6,0.9,1.5,1.8c-0.1,0.9-0.9,1.6-1.8,1.5c-0.6,0-1.1-0.4-1.3-0.9l-1.1-0.1l-0.2,2.4l24.1,2L520.7,127.7z"/>
	<path clip-path="url(#SVGID_6_)" fill="#005EC6" d="M328.6,112l1.1,0.1c0.3,0.4,0.8,0.8,1.3,0.9c0.9,0.1,1.7-0.6,1.8-1.5
		c0.1-0.9-0.6-1.8-1.5-1.8c-0.6,0-1.1,0.3-1.5,0.6l-1.1-0.1l0.2-2.4l-24-2l-0.2,2.4l1.1,0.1c0.3-0.4,0.9-0.7,1.5-0.7
		c0.9,0.1,1.6,0.9,1.5,1.8c-0.1,0.9-0.9,1.6-1.8,1.5c-0.6,0-1.1-0.4-1.3-0.9l-1.1-0.1l-0.2,2.4l24.1,2L328.6,112z"/>
	<path clip-path="url(#SVGID_6_)" fill="#005EC6" d="M283.6,112.3l1.1-0.3c0.4,0.3,1,0.5,1.6,0.4c0.9-0.3,1.4-1.2,1.1-2.1
		c-0.3-0.9-1.2-1.4-2.1-1.1c-0.6,0.2-1,0.6-1.1,1.1l-1.1,0.3l-0.7-2.3l-26,7.7l3.6,1.5l1.1-0.3c0.2-0.5,0.6-1,1.1-1.1
		c0.9-0.3,1.8,0.2,2.1,1.1s-0.2,1.8-1.1,2.1c-0.6,0.2-1.2,0-1.6-0.3l-1.1,0.3l-1,2.9l24.9-7.4L283.6,112.3z"/>
	<path clip-path="url(#SVGID_6_)" fill="#005EC6" d="M167.8,146.7l1.1-0.3c0.4,0.3,1,0.5,1.6,0.4c0.9-0.3,1.4-1.2,1.1-2.1
		c-0.3-0.9-1.2-1.4-2.1-1.1c-0.6,0.2-1,0.6-1.1,1.1l-1.1,0.3l-0.7-2.3l-26,7.7l3.6,1.5l1.1-0.3c0.2-0.5-0.6,2.1-0.6,2.1l-0.5,2.7
		l24.3-7.2L167.8,146.7z"/>
	<path clip-path="url(#SVGID_6_)" fill="#FF7361" d="M98.5,167.3l1.1-0.3c0.4,0.3,1,0.5,1.6,0.4c0.9-0.3,1.4-1.2,1.1-2.1
		c-0.3-0.9-1.2-1.4-2.1-1.1c-0.6,0.2-1,0.6-1.1,1.1l-1.1,0.3l-0.7-2.3l-23.1,6.9l0.7,2.3l1.1-0.3c0.2-0.5,0.9,2.1,0.5,1.8l-1.1,0.3
		l0.7,2.3l23.2-6.9L98.5,167.3z"/>
	<path clip-path="url(#SVGID_6_)" fill="#005EC6" d="M121.5,160.5l1.1-0.3c0.4,0.3,1,0.5,1.6,0.4c0.9-0.3,1.4-1.2,1.1-2.1
		c-0.3-0.9-1.2-1.4-2.1-1.1c-0.6,0.2-1,0.6-1.1,1.1l-1.1,0.3l-0.7-2.3l-23.1,6.9l0.7,2.3l1.1-0.3c0.2-0.5,0.6-1,1.1-1.1
		c0.9-0.3,1.8,0.2,2.1,1.1c0.3,0.9-0.2,1.8-1.1,2.1c-0.6,0.2-1.2,0-1.6-0.3l-1.1,0.3l0.7,2.3l23.2-6.9L121.5,160.5z"/>
	<path clip-path="url(#SVGID_6_)" fill="#FF7361" d="M144.6,153.6l1.1-0.3c0.4,0.3,1,0.5,1.6,0.4c0.9-0.3,1.4-1.2,1.1-2.1
		c-0.3-0.9-1.2-1.4-2.1-1.1c-0.6,0.2-1,0.6-1.1,1.1l-1.1,0.3l-0.7-2.3l-23.1,6.9l0.7,2.3l1.1-0.3c0.2-0.5,0.6-1,1.1-1.1
		c0.9-0.3,1.8,0.2,2.1,1.1c0.3,0.9-0.2,1.8-1.1,2.1c-0.6,0.2-1.2,0-1.6-0.3l-1.1,0.3l0.7,2.3l23.2-6.9L144.6,153.6z"/>
	<path clip-path="url(#SVGID_6_)" fill="#FF7361" d="M214.2,132.9l1.1-0.3c0.4,0.3,1,0.5,1.6,0.4c0.9-0.3,1.4-1.2,1.1-2.1
		c-0.3-0.9-1.2-1.4-2.1-1.1c-0.6,0.2-1,0.6-1.1,1.1l-1.1,0.3l-0.7-2.3l-23.1,6.9l0.7,2.3l1.1-0.3c0.2-0.5,0.6-1,1.1-1.1
		c0.9-0.3,1.8,0.2,2.1,1.1c0.3,0.9-0.2,1.8-1.1,2.1c-0.6,0.2-1.2,0-1.6-0.3l-1.1,0.3l0.7,2.3l23.2-6.9L214.2,132.9z"/>
	<path clip-path="url(#SVGID_6_)" fill="#005EC6" d="M237.3,126l1.1-0.3c0.4,0.3,1,0.5,1.6,0.4c0.9-0.3,1.4-1.2,1.1-2.1
		c-0.3-0.9-1.2-1.4-2.1-1.1c-0.6,0.2-1,0.6-1.1,1.1l-1.1,0.3L236,122l-23.1,6.9l0.7,2.3l1.1-0.3c0.2-0.5,0.6-1,1.1-1.1
		c0.9-0.3,1.8,0.2,2.1,1.1s-0.2,1.8-1.1,2.1c-0.6,0.2-1.2,0-1.6-0.3l-1.1,0.3l0.7,2.3l23.2-6.9L237.3,126z"/>
	<path clip-path="url(#SVGID_6_)" fill="#FCFFF2" d="M260.4,119.2l1.1-0.3c0.4,0.3,1,0.5,1.6,0.4c0.9-0.3,1.4-1.2,1.1-2.1
		c-0.3-0.9-1.2-1.4-2.1-1.1c-0.6,0.2-1,0.6-1.1,1.1l-1.1,0.3l-0.7-2.3L236,122l0.7,2.3l1.1-0.3c0.2-0.5,0.6-1,1.1-1.1
		c0.9-0.3,1.8,0.2,2.1,1.1s-0.2,1.8-1.1,2.1c-0.6,0.2-1.2,0-1.6-0.3l-1.1,0.3l0.7,2.3l23.2-6.9L260.4,119.2z"/>
	<path clip-path="url(#SVGID_6_)" fill="#005EC6" d="M75.6,174.2l1.1-0.3c0.4,0.3,1,0.5,1.6,0.4c0.9-0.3,1.4-1.2,1.1-2.1
		c-0.3-0.9-1.2-1.4-2.1-1.1c-0.6,0.2-1,0.6-1.1,1.1l-1.1,0.3l-0.7-2.3l-23.1,6.9l0.7,2.3L53,179c0.2-0.5,0.6-1,1.1-1.1
		c0.9-0.3,1.8,0.2,2.1,1.1c0.3,0.9-0.2,1.8-1.1,2.1c-0.6,0.2-1.2,0-1.6-0.3l-1.1,0.3l0.7,2.3l23.2-6.9L75.6,174.2z"/>
	<path clip-path="url(#SVGID_6_)" fill="#005EC6" d="M52.5,43.8l-0.3-1.1c0.3-0.4,0.5-1,0.4-1.6c-0.3-0.9-1.2-1.4-2.1-1.2
		c-0.9,0.3-1.4,1.2-1.2,2.1c0.2,0.6,0.6,1,1.1,1.1l0.3,1.1l-2.3,0.7l7.4,26.1l1.5-3.6L57,66.4c-0.5-0.2-1-0.6-1.1-1.1
		c-0.3-0.9,0.3-1.8,1.2-2.1c0.9-0.3,1.8,0.3,2.1,1.2c0.2,0.6,0,1.2-0.3,1.6l0.3,1.1l2.8,1.1l-7.1-25L52.5,43.8z"/>
	<path clip-path="url(#SVGID_6_)" fill="#FF7361" d="M85.4,160l-0.3-1.1c0.3-0.4,0.5-1,0.4-1.6c-0.3-0.9-1.2-1.4-2.1-1.2
		c-0.9,0.3-1.4,1.2-1.2,2.1c0.2,0.6,0.6,1,1.1,1.1l0.3,1.1l-2.3,0.7l7.4,26.1l1.5-3.6l-0.3-1.1c-0.5-0.2,2.1,0.6,2.1,0.6l2.7,0.5
		l-6.9-24.4L85.4,160z"/>
	<path clip-path="url(#SVGID_6_)" fill="#FCFFF2" d="M105,229.6l-0.3-1.1c0.3-0.4,0.5-1,0.4-1.6c-0.3-0.9-1.2-1.4-2.1-1.2
		c-0.9,0.3-1.4,1.2-1.2,2.1c0.2,0.6,0.6,1,1.1,1.1l0.3,1.1l-2.3,0.7l6.6,23.2l2.4-0.6l-0.3-1.1c-0.5-0.2,2.1-0.9,1.8-0.5l0.3,1.1
		l2.4-0.6l-6.6-23.3L105,229.6z"/>
	<path clip-path="url(#SVGID_6_)" fill="#005EC6" d="M98.5,206.4l-0.3-1.1c0.3-0.4,0.5-1,0.4-1.6c-0.3-0.9-1.2-1.4-2.1-1.2
		c-0.9,0.3-1.4,1.2-1.2,2.1c0.2,0.6,0.6,1,1.1,1.1l0.3,1.1l-2.3,0.7l6.6,23.2l2.4-0.6l-0.3-1.1c-0.5-0.2-1-0.6-1.1-1.1
		c-0.3-0.9,0.3-1.8,1.2-2.1c0.9-0.3,1.8,0.3,2.1,1.2c0.2,0.6,0,1.2-0.3,1.6l0.3,1.1l2.4-0.6l-6.6-23.3L98.5,206.4z"/>
	<path clip-path="url(#SVGID_6_)" fill="#FCFFF2" d="M92,183.3l-0.3-1.1c0.3-0.4,0.5-1,0.4-1.6c-0.3-0.9-1.2-1.4-2.1-1.2
		c-0.9,0.3-1.4,1.2-1.2,2.1c0.2,0.6,0.6,1,1.1,1.1l0.3,1.1l-2.3,0.7l6.6,23.2l2.4-0.6l-0.3-1.1c-0.5-0.2-1-0.6-1.1-1.1
		c-0.3-0.9,0.3-1.8,1.2-2.1c0.9-0.3,1.8,0.3,2.1,1.2c0.2,0.6,0,1.2-0.3,1.6l0.3,1.1l2.4-0.6l-6.6-23.3L92,183.3z"/>
	<path clip-path="url(#SVGID_6_)" fill="#005EC6" d="M78.8,136.7l-0.3-1.1c0.3-0.4,0.5-1,0.4-1.6c-0.3-0.9-1.2-1.4-2.1-1.2
		c-0.9,0.3-1.4,1.2-1.2,2.1c0.2,0.6,0.6,1,1.1,1.2l0.3,1.1l-2.3,0.7l6.6,23.2l2.4-0.6l-0.3-1.1c-0.5-0.2-1-0.6-1.1-1.1
		c-0.3-0.9,0.3-1.8,1.2-2.1c0.9-0.3,1.8,0.3,2.1,1.2c0.2,0.6,0,1.2-0.3,1.6l0.3,1.1l2.4-0.6L81.1,136L78.8,136.7z"/>
	<path clip-path="url(#SVGID_6_)" fill="#FCFFF2" d="M72.2,113.4l-0.3-1.1c0.3-0.4,0.5-1,0.4-1.6c-0.3-0.9-1.2-1.4-2.1-1.2
		c-0.9,0.3-1.4,1.2-1.2,2.1c0.2,0.6,0.6,1,1.1,1.2l0.3,1.1l-2.3,0.7l6.6,23.2l2.4-0.6l-0.3-1.1c-0.5-0.2-1-0.6-1.1-1.1
		c-0.3-0.9,0.3-1.8,1.2-2.1c0.9-0.3,1.8,0.3,2.1,1.2c0.2,0.6,0,1.2-0.3,1.6l0.3,1.1l2.4-0.6l-6.6-23.3L72.2,113.4z"/>
	<path clip-path="url(#SVGID_6_)" fill="#FF7361" d="M65.7,90.2l-0.3-1.1c0.3-0.4,0.5-1,0.4-1.6c-0.3-0.9-1.2-1.4-2.1-1.2
		c-0.9,0.3-1.4,1.2-1.2,2.1c0.2,0.6,0.6,1,1.1,1.1l0.3,1.1l-2.3,0.7l6.6,23.2l2.4-0.6l-0.3-1.1c-0.5-0.2-1-0.6-1.1-1.1
		c-0.3-0.9,0.3-1.8,1.2-2.1c0.9-0.3,1.8,0.3,2.1,1.2c0.2,0.6,0,1.2-0.3,1.6l0.3,1.1l2.4-0.6L68,89.6L65.7,90.2z"/>
	<path clip-path="url(#SVGID_6_)" fill="#FCFFF2" d="M59.1,67.1L58.8,66c0.3-0.4,0.5-1,0.4-1.6c-0.3-0.9-1.2-1.4-2.1-1.2
		c-0.9,0.3-1.4,1.2-1.2,2.1c0.2,0.6,0.6,1,1.1,1.2l0.3,1.1L55,68.2l6.6,23.2l2.4-0.6l-0.3-1.1c-0.5-0.2-1-0.6-1.1-1.1
		c-0.3-0.9,0.3-1.8,1.2-2.1c0.9-0.3,1.8,0.3,2.1,1.2c0.2,0.6,0,1.2-0.3,1.6l0.3,1.1l2.4-0.6l-6.6-23.3L59.1,67.1z"/>
	<path clip-path="url(#SVGID_6_)" fill="#FF7361" d="M111.5,252.6l-0.3-1.1c0.3-0.4,0.5-1,0.4-1.6c-0.3-0.9-1.2-1.4-2.1-1.2
		c-0.9,0.3-1.4,1.2-1.2,2.1c0.2,0.6,0.6,1,1.1,1.2l0.3,1.1l-2.3,0.7l6.6,23.2l2.4-0.6l-0.3-1.1c-0.5-0.2-1-0.6-1.1-1.1
		c-0.3-0.9,0.3-1.8,1.2-2.1c0.9-0.3,1.8,0.3,2.1,1.2c0.2,0.6,0,1.2-0.3,1.6l0.3,1.1l2.4-0.6l-6.6-23.3L111.5,252.6z"/>
	<path clip-path="url(#SVGID_6_)" fill="#005EC6" d="M117.2,104.8l-1.1,0.3c-0.4-0.3-1-0.5-1.6-0.3c-0.9,0.3-1.4,1.2-1.1,2.1
		c0.3,0.9,1.2,1.4,2.1,1.1c0.6-0.2,1-0.6,1.1-1.1l1.1-0.3l0.7,2.3l23.1-7l-0.7-2.3l-1.1,0.3c-0.2,0.5-0.6,1-1.1,1.1
		c-0.9,0.3-1.8-0.2-2.1-1.1c-0.3-0.9,0.2-1.8,1.1-2.1c0.6-0.2,1.2,0,1.6,0.3l1.1-0.3l-0.7-2.3l-23.1,7L117.2,104.8z"/>
	<path clip-path="url(#SVGID_6_)" fill="#FF7361" d="M139.4,95.7l0.7,2.3l-1.1,0.3c-0.4-0.3-1-0.5-1.6-0.3c-0.9,0.3-1.4,1.2-1.1,2.1
		c0.3,0.9,1.2,1.3,2.1,1.1c0.6-0.2,1-0.6,1.1-1.2l1.1-0.3l0.7,2.4c11.7-3.6,24.3,3,27.9,14.7c0,0,6.4-1.9,6.4-2
		C171.1,99.5,155,90.9,139.4,95.7"/>
	<path clip-path="url(#SVGID_6_)" fill="#005EC6" d="M173.4,115.5l-0.3-1.1c0.3-0.4,0.5-1,0.3-1.6c-0.3-0.9-1.2-1.4-2.1-1.1
		c-0.9,0.3-1.4,1.2-1.1,2.1c0.2,0.6,0.6,1,1.1,1.1l0.3,1.1l-2.3,0.7l7,23.1l2.3-0.7l-0.3-1.1c-0.5-0.2-1-0.6-1.1-1.1
		c-0.3-0.9,0.2-1.8,1.1-2.1c0.9-0.3,1.8,0.2,2.1,1.1c0.2,0.6,0,1.2-0.3,1.6l0.3,1.1l2.3-0.7l-7-23.1L173.4,115.5z"/>
	<path clip-path="url(#SVGID_6_)" fill="#FCFFF2" d="M176.9,79.9l-2.4,0.7l0,0l-0.3-1.1c0.3-0.4,0.5-1,0.3-1.6
		c-0.3-0.9-1.2-1.4-2.1-1.1c-0.9,0.3-1.4,1.2-1.1,2.1c0.2,0.6,0.7,1,1.1,1.1l0.3,1.1l0,0l-2.2,0.7c1,3.5-0.9,7.1-4.4,8.1
		c-3.5,1-7.1-0.9-8.2-4.4l-6.4,1.9c2.1,7,9.5,10.9,16.4,8.8C175.1,94.2,179,86.9,176.9,79.9"/>
	<path clip-path="url(#SVGID_6_)" fill="#005EC6" d="M197.5,25.7l-0.3-1.1c0.3-0.4,0.5-1,0.4-1.6c-0.3-0.9-1.2-1.4-2.1-1.2
		c-0.9,0.3-1.4,1.2-1.2,2.1c0.2,0.6,0.6,1,1.1,1.2l0.3,1.1l-2.3,0.7l7.4,26.1l1.5-3.6l-0.3-1.1c-0.5-0.2-1-0.6-1.1-1.1
		c-0.3-0.9,0.3-1.8,1.2-2.1c0.9-0.3,1.8,0.3,2.1,1.2c0.2,0.6,0,1.2-0.3,1.6l0.3,1.1l2.8,1.1l-7.1-25L197.5,25.7z"/>
	<path clip-path="url(#SVGID_6_)" fill="#005EC6" d="M223.8,118.6l-0.3-1.1c0.3-0.4,0.5-1,0.4-1.6c-0.3-0.9-1.2-1.4-2.1-1.2
		c-0.9,0.3-1.4,1.2-1.2,2.1c0.2,0.6,0.6,1,1.1,1.1l0.3,1.1l-2.3,0.7l3.7,13l6.4-1.9l-3.6-12.9L223.8,118.6z"/>
	<path clip-path="url(#SVGID_6_)" fill="#FCFFF2" d="M217.2,95.3l-0.3-1.1c0.3-0.4,0.5-1,0.4-1.6c-0.3-0.9-1.2-1.4-2.1-1.2
		c-0.9,0.3-1.4,1.2-1.2,2.1c0.2,0.6,0.6,1,1.1,1.2l0.3,1.1l-2.3,0.7l6.6,23.2l2.4-0.6l-0.3-1.1c-0.5-0.2-1-0.6-1.1-1.1
		c-0.3-0.9,0.3-1.8,1.2-2.1c0.9-0.3,1.8,0.3,2.1,1.2c0.2,0.6,0,1.2-0.3,1.6l0.3,1.1l2.4-0.6l-6.6-23.3L217.2,95.3z"/>
	<path clip-path="url(#SVGID_6_)" fill="#005EC6" d="M210.7,72.2l-0.3-1.1c0.3-0.4,0.5-1,0.4-1.6c-0.3-0.9-1.2-1.4-2.1-1.2
		c-0.9,0.3-1.4,1.2-1.2,2.1c0.2,0.6,0.6,1,1.1,1.2l0.3,1.1l-2.3,0.7l6.6,23.2l2.4-0.6l-0.3-1.1c-0.5-0.2-1-0.6-1.1-1.1
		c-0.3-0.9,0.3-1.8,1.2-2.1c0.9-0.3,1.8,0.3,2.1,1.2c0.2,0.6,0,1.2-0.3,1.6l0.3,1.1l2.4-0.6L213,71.5L210.7,72.2z"/>
	<path clip-path="url(#SVGID_6_)" fill="#FF7361" d="M204.1,49l-0.3-1.1c0.3-0.4,0.5-1,0.4-1.6c-0.3-0.9-1.2-1.4-2.1-1.2
		c-0.9,0.3-1.4,1.2-1.2,2.1c0.2,0.6,0.6,1,1.1,1.2l0.3,1.1l-2.3,0.7l6.6,23.2l2.4-0.6l-0.3-1.1c-0.5-0.2-1-0.6-1.1-1.1
		c-0.3-0.9,0.3-1.8,1.2-2.1c0.9-0.3,1.8,0.3,2.1,1.2c0.2,0.6,0,1.2-0.3,1.6l0.3,1.1l2.4-0.6l-6.6-23.3L204.1,49z"/>
	<path clip-path="url(#SVGID_6_)" fill="#005EC6" d="M285,27.2l-0.1-1.1c0.4-0.3,0.7-0.9,0.6-1.5c-0.1-0.9-0.9-1.6-1.9-1.5
		c-0.9,0.1-1.6,0.9-1.5,1.9c0.1,0.6,0.5,1.1,0.9,1.3l0.1,1.1l-2.4,0.3l3.3,26.9l2.1-3.3l-0.1-1.1c-0.4-0.2-0.9-0.7-0.9-1.3
		c-0.1-0.9,0.5-1.8,1.5-1.9c0.9-0.1,1.8,0.5,1.9,1.5c0.1,0.6-0.2,1.1-0.6,1.5l0.1,1.1l2.6,1.5l-3.1-25.8L285,27.2z"/>
	<path clip-path="url(#SVGID_6_)" fill="#FCFFF2" d="M293.7,99.1l-0.1-1.1c0.4-0.3,0.7-0.9,0.6-1.5c-0.1-0.9-0.9-1.6-1.9-1.5
		c-0.9,0.1-1.6,0.9-1.5,1.9c0.1,0.6,0.5,1.1,0.9,1.3l0.1,1.1l-2.4,0.3l2.9,23.9l2.4-0.3l1.8-0.2l2.4-0.3l-2.9-24L293.7,99.1z"/>
	<path clip-path="url(#SVGID_6_)" fill="#FF7361" d="M290.8,75.2l-0.1-1.1c0.4-0.3,0.7-0.9,0.6-1.5c-0.1-0.9-0.9-1.6-1.9-1.5
		c-0.9,0.1-1.6,0.9-1.5,1.9c0.1,0.6,0.5,1.1,0.9,1.3l0.1,1.1l-2.4,0.3l2.9,23.9l2.4-0.3l-0.1-1.1c-0.4-0.2-0.9-0.7-0.9-1.3
		c-0.1-0.9,0.5-1.8,1.5-1.9c0.9-0.1,1.8,0.5,1.9,1.5c0.1,0.6-0.2,1.1-0.6,1.5l0.1,1.1l2.4-0.3l-2.9-24L290.8,75.2z"/>
	<path clip-path="url(#SVGID_6_)" fill="#FCFFF2" d="M287.9,51.3l-0.1-1.1c0.4-0.3,0.7-0.9,0.6-1.5c-0.1-0.9-0.9-1.6-1.9-1.5
		c-0.9,0.1-1.6,0.9-1.5,1.9c0.1,0.6,0.5,1.1,0.9,1.3l0.1,1.1l-2.4,0.3l2.9,23.9l2.4-0.3l-0.1-1.1c-0.4-0.2-0.9-0.7-0.9-1.3
		c-0.1-0.9,0.5-1.8,1.5-1.9c0.9-0.1,1.8,0.5,1.9,1.5c0.1,0.6-0.2,1.1-0.6,1.5l0.1,1.1l2.4-0.3l-2.9-24L287.9,51.3z"/>
	<path clip-path="url(#SVGID_6_)" fill="#FF7361" d="M297.1,120.2c0,0.6-0.2,1.1-0.6,1.5l0.1,1.2l2.4-0.2c0.6,8,0.4,13.6-1.6,20.6
		c-0.2,0.8-0.5,1.6-0.8,2.4l-6.6-1.9c2.4-6,2.8-13.7,2.3-20.5l2.5-0.2l-0.1-1.2c-0.5-0.3-0.9-0.8-0.9-1.4c-0.1-0.9,0.6-1.8,1.5-1.8
		C296.2,118.5,297,119.2,297.1,120.2"/>
	<path clip-path="url(#SVGID_6_)" fill="#005EC6" d="M290,143.7l2.4,0.7l0.3-1.1c-0.4-0.4-0.5-1-0.3-1.6c0.3-0.9,1.2-1.4,2.1-1.2
		c0.9,0.3,1.4,1.2,1.1,2.1c-0.2,0.6-0.7,1-1.2,1.2l-0.3,1.1l2.4,0.7c-3.5,12.1,3.5,25,15.7,28.5c0,0-1.9,6.7-1.9,6.6
		C294.5,176.2,285.3,159.9,290,143.7"/>
	<path clip-path="url(#SVGID_6_)" fill="#FF7361" d="M311.5,176.6l-1.1-0.3c-0.2-0.5-0.6-1-1.1-1.1c-0.9-0.3-1.8,0.3-2.1,1.2
		c-0.3,0.9,0.3,1.8,1.2,2.1c0.6,0.2,1.2,0,1.6-0.3l1.1,0.3l-0.7,2.4l26.1,7.4l-2.2-3.2l-1.1-0.3c-0.4,0.3-1,0.5-1.6,0.4
		c-0.9-0.3-1.4-1.2-1.2-2.1c0.3-0.9,1.2-1.4,2.1-1.2c0.6,0.2,1,0.6,1.1,1.1l1.1,0.3l2.4-1.9l-25-7.1L311.5,176.6z"/>
	<path clip-path="url(#SVGID_6_)" fill="#005EC6" d="M357.9,189.7l-1.1-0.3c-0.2-0.5-0.6-1-1.1-1.1c-0.9-0.3-1.8,0.3-2.1,1.2
		c-0.3,0.9,0.3,1.8,1.2,2.1c0.6,0.2,1.2,0,1.6-0.3l1.1,0.3l-0.7,2.4l23.7,6.8l0.8-2.5l-1.6-0.5c-0.4,0.3,2.1-1.1,2.1-1.1l0.8-2.6
		l-23.9-6.7L357.9,189.7z"/>
	<path clip-path="url(#SVGID_6_)" fill="#FCFFF2" d="M334.8,183.1l-1.1-0.3c-0.2-0.5-0.6-1-1.1-1.1c-0.9-0.3-1.8,0.3-2.1,1.2
		c-0.3,0.9,0.3,1.8,1.2,2.1c0.6,0.2,1.2,0,1.6-0.3l1.1,0.3l-0.7,2.4l23.2,6.5l0.7-2.3l-1.1-0.3c-0.4,0.3-1,0.5-1.6,0.4
		c-0.9-0.3-1.4-1.2-1.2-2.1c0.3-0.9,1.2-1.4,2.1-1.2c0.6,0.2,1,0.6,1.1,1.1l1.1,0.3l0.7-2.3l-23.3-6.6L334.8,183.1z"/>
	<path clip-path="url(#SVGID_6_)" fill="#FCFFF2" d="M388.9,187.8l0.4-1.1c0.5-0.2,1-0.5,1.2-1.1c0.3-0.9-0.2-1.8-1.1-2.1
		c-0.9-0.3-1.8,0.2-2.1,1.1c-0.2,0.6,0,1.2,0.3,1.6l-0.4,1.1l-2.3-0.8l-7.5,22.9l2.3,0.8l1.7,0.6l2.3,0.8l7.6-23L388.9,187.8z"/>
	<path clip-path="url(#SVGID_6_)" fill="#005EC6" d="M396.4,165l0.4-1.1c0.5-0.2,1-0.5,1.2-1.1c0.3-0.9-0.2-1.8-1.1-2.1
		c-0.9-0.3-1.8,0.2-2.1,1.1c-0.2,0.6,0,1.2,0.3,1.6l-0.4,1.1l-2.3-0.8l-7.5,22.9l2.3,0.8l0.4-1.1c-0.3-0.4-0.5-1-0.3-1.6
		c0.3-0.9,1.2-1.4,2.1-1.1c0.9,0.3,1.4,1.2,1.1,2.1c-0.2,0.6-0.7,0.9-1.2,1.1l-0.4,1.1l2.3,0.8l7.6-23L396.4,165z"/>
	<path clip-path="url(#SVGID_6_)" fill="#FF7361" d="M381.4,210.5l0.4-1.1c0.5-0.2,1-0.5,1.2-1.1c0.3-0.9-0.2-1.8-1.1-2.1
		c-0.9-0.3-1.8,0.2-2.1,1.1c-0.2,0.6,0,1.2,0.3,1.6l-0.4,1.1l-2.3-0.8l-8.5,25.8l3.3-2.1l0.4-1.1c-0.3-0.4-0.5-1-0.3-1.6
		c0.3-0.9,1.2-1.4,2.1-1.1c0.9,0.3,1.4,1.2,1.1,2.1c-0.2,0.6-0.7,0.9-1.2,1.1l-0.4,1.1l1.8,2.5l8.1-24.7L381.4,210.5z"/>
	<path clip-path="url(#SVGID_6_)" fill="#FCFFF2" d="M358.8,279.2l0.4-1.1c0.5-0.2,1-0.5,1.2-1.1c0.3-0.9-0.2-1.8-1.1-2.1
		c-0.9-0.3-1.8,0.2-2.1,1.1c-0.2,0.6,0,1.2,0.3,1.6l-0.4,1.1l-2.3-0.8l-7.5,22.9l2.3,0.8l0.4-1.1c-0.3-0.4-0.5-1-0.3-1.6
		c0.3-0.9,1.2-1.4,2.1-1.1c0.9,0.3,1.4,1.2,1.1,2.1c-0.2,0.6-0.7,0.9-1.2,1.1l-0.4,1.1l2.3,0.8l7.6-23L358.8,279.2z"/>
	<path clip-path="url(#SVGID_6_)" fill="#005EC6" d="M366.3,256.4l0.4-1.1c0.5-0.2,1-0.5,1.2-1.1c0.3-0.9-0.2-1.8-1.1-2.1
		c-0.9-0.3-1.8,0.2-2.1,1.1c-0.2,0.6,0,1.2,0.3,1.6l-0.4,1.1l-2.3-0.8l-7.5,22.9l2.3,0.8l0.4-1.1c-0.3-0.4-0.5-1-0.3-1.6
		c0.3-0.9,1.2-1.4,2.1-1.1c0.9,0.3,1.4,1.2,1.1,2.1c-0.2,0.6-0.7,0.9-1.2,1.1l-0.4,1.1l2.3,0.8l7.6-23L366.3,256.4z"/>
	<path clip-path="url(#SVGID_6_)" fill="#FCFFF2" d="M373.8,233.5l0.4-1.1c0.5-0.2,1-0.5,1.2-1.1c0.3-0.9-0.2-1.8-1.1-2.1
		c-0.9-0.3-1.8,0.2-2.1,1.1c-0.2,0.6,0,1.2,0.3,1.6l-0.4,1.1l-2.3-0.8l-7.5,22.9l2.3,0.8l0.4-1.1c-0.3-0.4-0.5-1-0.3-1.6
		c0.3-0.9,1.2-1.4,2.1-1.1c0.9,0.3,1.4,1.2,1.1,2.1c-0.2,0.6-0.7,0.9-1.2,1.1l-0.4,1.1l2.3,0.8l7.6-23L373.8,233.5z"/>
	<path clip-path="url(#SVGID_6_)" fill="#FF7361" d="M395.3,176.1l-1.1-0.4c-0.2-0.5-0.5-1-1.1-1.2c-0.9-0.3-1.8,0.2-2.1,1.1
		c-0.3,0.9,0.2,1.8,1.1,2.1c0.6,0.2,1.2,0,1.6-0.3l1.1,0.4l-0.8,2.3l25.8,8.4l-2.1-3.3l-1.1-0.4c-0.4,0.3-1,0.5-1.6,0.3
		c-0.9-0.3-1.4-1.2-1.1-2.1c0.3-0.9,1.2-1.4,2.1-1.1c0.6,0.2,0.9,0.7,1.1,1.2l1.1,0.4l2.5-1.8l-24.7-8.1L395.3,176.1z"/>
	<path clip-path="url(#SVGID_6_)" fill="#FF7361" d="M510,213.7l-1.1-0.4c-0.2-0.5-0.5-1-1.1-1.2c-0.9-0.3-1.8,0.2-2.1,1.1
		c-0.3,0.9,0.2,1.8,1.1,2.1c0.6,0.2,1.2,0,1.6-0.3l1.1,0.4l-0.8,2.3l25.8,8.4l-2.1-3.3l-1.1-0.4c-0.4,0.3,1.7-1.4,1.7-1.4l1.9-1.9
		l-24.1-7.9L510,213.7z"/>
	<path clip-path="url(#SVGID_6_)" fill="#FCFFF2" d="M533,221.2l-1.1-0.4c-0.2-0.5-0.5-1-1.1-1.2c-0.9-0.3-1.8,0.2-2.1,1.1
		c-0.3,0.9,0.2,1.8,1.1,2.1c0.6,0.2,1.2,0,1.6-0.3l1.1,0.4l-0.8,2.3l22.9,7.5l0.8-2.3l-1.1-0.4c-0.4,0.3-1,0.5-1.6,0.3
		c-0.9-0.3-1.4-1.2-1.1-2.1c0.3-0.9,1.2-1.4,2.1-1.1c0.6,0.2,0.9,0.7,1.1,1.2l1.1,0.4l0.8-2.3l-23-7.5L533,221.2z"/>
	<path clip-path="url(#SVGID_6_)" fill="#FCFFF2" d="M487,206.1l-1.1-0.4c-0.2-0.5-0.5-1-1.1-1.2c-0.9-0.3-1.8,0.2-2.1,1.1
		c-0.3,0.9,0.2,1.8,1.1,2.1c0.6,0.2,1.2,0,1.6-0.3l1.1,0.4l-0.8,2.3l22.9,7.5l0.8-2.3l-1.1-0.4c-0.4,0.3-1,0.5-1.6,0.3
		c-0.9-0.3-1.4-1.2-1.1-2.1c0.3-0.9,1.2-1.4,2.1-1.1c0.6,0.2,0.9,0.7,1.1,1.2l1.1,0.4l0.8-2.3l-23-7.5L487,206.1z"/>
	<path clip-path="url(#SVGID_6_)" fill="#FCFFF2" d="M418.3,183.6l-1.1-0.4c-0.2-0.5-0.5-1-1.1-1.2c-0.9-0.3-1.8,0.2-2.1,1.1
		c-0.3,0.9,0.2,1.8,1.1,2.1c0.6,0.2,1.2,0,1.6-0.3l1.1,0.4l-0.8,2.3l22.9,7.5l0.8-2.3l-1.1-0.4c-0.4,0.3-1,0.5-1.6,0.3
		c-0.9-0.3-1.4-1.2-1.1-2.1c0.3-0.9,1.2-1.4,2.1-1.1c0.6,0.2,0.9,0.7,1.1,1.2l1.1,0.4l0.8-2.3l-23-7.5L418.3,183.6z"/>
	<path clip-path="url(#SVGID_6_)" fill="#FF7361" d="M493.1,248.7l-0.1,1.1c-0.4,0.3-0.9,0.7-0.9,1.3c-0.1,0.9,0.5,1.8,1.5,1.9
		c0.9,0.1,1.8-0.5,1.9-1.5c0.1-0.6-0.2-1.1-0.6-1.5l0.1-1.1l2.4,0.3l3.2-27l-2.8,2.7l-0.1,1.1c0.4,0.3-1.7-1.3-1.7-1.3l-2.3-1.5
		l-3,25.2L493.1,248.7z"/>
	<path clip-path="url(#SVGID_6_)" fill="#FCFFF2" d="M501.6,176.9l-0.1,1.1c-0.4,0.2-0.9,0.7-0.9,1.3c-0.1,0.9,0.5,1.8,1.5,1.9
		c0.9,0.1,1.8-0.5,1.9-1.5c0.1-0.6-0.2-1.1-0.6-1.5l0.1-1.1l2.4,0.3l2.8-23.9l-2.4-0.3l-0.1,1.1c0.4,0.3-2.3,0-1.8-0.2l0.1-1.1
		l-2.4-0.3l-2.9,24L501.6,176.9z"/>
	<path clip-path="url(#SVGID_6_)" fill="#005EC6" d="M498.8,200.8l-0.1,1.1c-0.4,0.3-0.9,0.7-0.9,1.3c-0.1,0.9,0.5,1.8,1.5,1.9
		c0.9,0.1,1.8-0.5,1.9-1.5c0.1-0.6-0.2-1.1-0.6-1.5l0.1-1.1l2.4,0.3l2.8-23.9l-2.4-0.3l-0.1,1.1c0.4,0.3,0.7,0.9,0.6,1.5
		c-0.1,0.9-0.9,1.6-1.9,1.5c-0.9-0.1-1.6-0.9-1.5-1.9c0.1-0.6,0.5-1.1,0.9-1.3l0.1-1.1l-2.4-0.3l-2.9,24L498.8,200.8z"/>
	<path clip-path="url(#SVGID_6_)" fill="#FCFFF2" d="M496,224.7l-0.1,1.1c-0.4,0.2-0.9,0.7-0.9,1.3c-0.1,0.9,0.5,1.8,1.5,1.9
		c0.9,0.1,1.8-0.5,1.9-1.5c0.1-0.6-0.2-1.1-0.6-1.5l0.1-1.1l2.4,0.3l2.8-23.9l-2.4-0.3l-0.1,1.1c0.4,0.3,0.7,0.9,0.6,1.5
		c-0.1,0.9-0.9,1.6-1.9,1.5c-0.9-0.1-1.6-0.9-1.5-1.9c0.1-0.6,0.5-1.1,0.9-1.3l0.1-1.1l-2.4-0.3l-2.9,24L496,224.7z"/>
	<path clip-path="url(#SVGID_6_)" fill="#005EC6" d="M490.3,272.8l-0.1,1.1c-0.4,0.2-0.9,0.7-0.9,1.3c-0.1,0.9,0.5,1.8,1.5,1.9
		c0.9,0.1,1.8-0.5,1.9-1.5c0.1-0.6-0.2-1.1-0.6-1.5l0.1-1.1l2.4,0.3l2.8-23.9l-2.4-0.3l-0.1,1.1c0.4,0.3,0.7,0.9,0.6,1.5
		c-0.1,0.9-0.9,1.6-1.9,1.5c-0.9-0.1-1.6-0.9-1.5-1.9c0.1-0.6,0.5-1.1,0.9-1.3l0.1-1.1l-2.4-0.3l-2.9,24L490.3,272.8z"/>
	<path clip-path="url(#SVGID_6_)" fill="#FF7361" d="M487.4,296.8l-0.1,1.1c-0.4,0.3-0.9,0.7-0.9,1.3c-0.1,0.9,0.5,1.8,1.5,1.9
		c0.9,0.1,1.8-0.5,1.9-1.5c0.1-0.6-0.2-1.1-0.6-1.5l0.1-1.1l2.4,0.3l2.8-23.9l-2.4-0.3l-0.1,1.1c0.4,0.3,0.7,0.9,0.6,1.5
		c-0.1,0.9-0.9,1.6-1.9,1.5c-0.9-0.1-1.6-0.9-1.5-1.9c0.1-0.6,0.5-1.1,0.9-1.3l0.1-1.1l-2.4-0.3l-2.9,24L487.4,296.8z"/>
	<path clip-path="url(#SVGID_6_)" fill="#005EC6" d="M484.6,320.7l-0.1,1.1c-0.4,0.2-0.9,0.7-0.9,1.3c-0.1,0.9,0.5,1.8,1.5,1.9
		c0.9,0.1,1.8-0.5,1.9-1.5c0.1-0.6-0.2-1.1-0.6-1.5l0.1-1.1l2.4,0.3l2.8-23.9l-2.4-0.3l-0.1,1.1c0.4,0.3,0.7,0.9,0.6,1.5
		c-0.1,0.9-0.9,1.6-1.9,1.5c-0.9-0.1-1.6-0.9-1.5-1.9c0.1-0.6,0.5-1.1,0.9-1.3l0.1-1.1l-2.4-0.3l-2.9,24L484.6,320.7z"/>
	<path clip-path="url(#SVGID_6_)" fill="#005EC6" d="M504.5,153.2l-0.1,1.1c-0.4,0.2-0.9,0.7-0.9,1.3c-0.1,0.9,0.5,1.8,1.5,1.9
		c0.9,0.1,1.8-0.5,1.9-1.5c0.1-0.6-0.2-1.1-0.6-1.5l0.1-1.1l2.4,0.3l2.8-23.9l-2.4-0.3l-0.1,1.1c0.4,0.3,0.7,0.9,0.6,1.5
		c-0.1,0.9-0.9,1.6-1.9,1.5c-0.9-0.1-1.6-0.9-1.5-1.9c0.1-0.6,0.5-1.1,0.9-1.3l0.1-1.1l-2.4-0.3l-2.9,24L504.5,153.2z"/>
	<path clip-path="url(#SVGID_6_)" fill="#FF7361" d="M516.2,84.5c0.1-0.6-0.1-1.1-0.5-1.5l0.2-1.1l2.4,0.3
		c1.1-7.8,1.1-13.3-0.4-20.3c-0.2-0.8-0.4-1.6-0.6-2.4l-6.6,1.5c2,6.1,2,13.6,1.1,20.3l2.4,0.3l-0.2,1.1c-0.5,0.2-0.9,0.7-1,1.3
		c-0.1,0.9,0.5,1.8,1.4,1.9C515.2,86.1,516.1,85.4,516.2,84.5"/>
	<path clip-path="url(#SVGID_6_)" fill="#FCFFF2" d="M507.3,129.2l-0.2,1.1c-0.4,0.2-0.9,0.7-1,1.3c-0.1,0.9,0.5,1.8,1.4,1.9
		c0.9,0.1,1.8-0.5,1.9-1.4c0.1-0.6-0.2-1.1-0.5-1.5l0.2-1.1l2.4,0.3l3.3-23.9l-2.4-0.4l-0.2,1.1c0.4,0.4-2.3,0-1.8-0.3l0.2-1.1
		l-2.4-0.4l-3.3,23.9L507.3,129.2z"/>
	<path clip-path="url(#SVGID_6_)" fill="#005EC6" d="M510.6,105.5l-0.2,1.1c-0.4,0.2-0.9,0.7-1,1.3c-0.1,0.9,0.5,1.8,1.4,1.9
		c0.9,0.1,1.8-0.5,1.9-1.4c0.1-0.6-0.2-1.1-0.5-1.5l0.2-1.1l2.4,0.3l3.3-23.9l-2.4-0.4l-0.2,1.1c0.4,0.4,0.6,0.9,0.6,1.5
		c-0.1,0.9-1,1.6-1.9,1.4c-0.9-0.1-1.6-1-1.4-1.9c0.1-0.6,0.5-1,0.9-1.3l0.2-1.1l-2.4-0.4l-3.3,23.9L510.6,105.5z"/>
	<path clip-path="url(#SVGID_6_)" fill="#005EC6" d="M512.9,60.5l0.3,1.1c-0.3,0.4-0.6,1-0.4,1.5c0.2,0.9,1.1,1.5,2,1.2
		c0.9-0.2,1.5-1.1,1.3-2c-0.1-0.6-0.6-1-1.1-1.2l-0.3-1.1l2.4-0.6l-6.2-26.4l-1.7,3.5l0.3,1.1c0.5,0.2,0.9,0.6,1.1,1.2
		c0.2,0.9-0.3,1.8-1.2,2c-0.9,0.2-1.8-0.3-2-1.2c-0.1-0.6,0.1-1.2,0.4-1.5l-0.3-1.1l-2.8-1.2l6,25.3L512.9,60.5z"/>
	<path clip-path="url(#SVGID_6_)" fill="#FCFFF2" d="M507.4,37l0.3,1.1c-0.3,0.4-0.6,1-0.4,1.5c0.2,0.9,1.1,1.5,2,1.2
		c0.9-0.2,1.5-1.1,1.3-2c-0.1-0.6-0.6-1-1.1-1.2l-0.3-1.1l2.4-0.6L506,12.5l-2.4,0.5l0.3,1.1c0.5,0.2,0.9,0.6,1.1,1.2
		c0.2,0.9-0.3,1.8-1.2,2c-0.9,0.2-1.8-0.3-2-1.2c-0.1-0.6,0.1-1.2,0.4-1.5l-0.3-1.1l-2.4,0.5l5.6,23.5L507.4,37z"/>
	<path clip-path="url(#SVGID_6_)" fill="#FF7361" d="M466.4,229.4l-0.4,1.1c0.3,0.4,0.5,1,0.3,1.6c-0.3,0.9-1.2,1.3-2.1,1
		c-0.9-0.3-1.4-1.3-1.1-2.1c0.2-0.6,0.7-0.9,1.2-1.1l0.4-1.1l-2.3-0.8l7.9-22.8l2.3,0.8l-0.4,1.1c-0.5,0.2-1,0.5-1.2,1.1
		c-0.3,0.9,0.2,1.8,1,2.1c0.9,0.3,1.8-0.2,2.1-1c0.2-0.6,0-1.2-0.3-1.6l0.4-1.1l2.3,0.8l-7.9,22.9L466.4,229.4z"/>
	<path clip-path="url(#SVGID_6_)" fill="#005EC6" d="M450.7,275l-0.4,1.1c0.3,0.4,0.5,1,0.3,1.6c-0.3,0.9-1.2,1.3-2.1,1
		c-0.9-0.3-1.4-1.3-1.1-2.1c0.2-0.6,0.7-0.9,1.2-1.1l0.4-1.1l-2.3-0.8l8.8-25.7l1.3,3.7l-0.4,1.1c-0.5,0.2-1,0.5-1.2,1.1
		c-0.3,0.9,0.2,1.8,1,2.1c0.9,0.3,1.8-0.2,2.1-1c0.2-0.6,0-1.2-0.3-1.6l0.4-1.1l2.9-0.9l-8.5,24.5L450.7,275z"/>
	<path clip-path="url(#SVGID_6_)" fill="#FCFFF2" d="M458.6,252.1l-0.4,1.1c0.3,0.4,0.5,1,0.3,1.6c-0.3,0.9-1.2,1.3-2.1,1
		c-0.9-0.3-1.4-1.3-1.1-2.1c0.2-0.6,0.7-0.9,1.2-1.1l0.4-1.1l-2.3-0.8l7.9-22.8l2.3,0.8l-0.4,1.1c-0.5,0.2-1,0.5-1.2,1.1
		c-0.3,0.9,0.2,1.8,1,2.1c0.9,0.3,1.8-0.2,2.1-1c0.2-0.6,0-1.2-0.3-1.6l0.4-1.1l2.3,0.8l-7.9,22.9L458.6,252.1z"/>
	<path clip-path="url(#SVGID_6_)" fill="#005EC6" d="M381.2,152c0,9.4-17,29.3-17,29.3s-17-19.9-17-29.3c0-9.4,7.6-17,17-17
		C373.6,135,381.2,142.6,381.2,152"/>
	<path clip-path="url(#SVGID_6_)" fill="#FCFFF2" d="M194.8,137.8c-0.3-0.9-1.2-1.4-2.1-1.1c-0.6,0.2-1,0.6-1.1,1.1l-1.1,0.3
		l-0.7-2.3l-9.5,2.8l-0.3-1c0.3-0.4,0.5-1,0.4-1.6c-0.2-0.9-1.2-1.4-2.1-1.2c-0.9,0.2-1.4,1.2-1.2,2.1c0.2,0.6,0.6,1,1.1,1.2l0.3,1
		l-11.9,3.5l0.7,2.3l1.1-0.3c0.2-0.5,0.6-1,1.1-1.1c0.9-0.3,1.8,0.2,2.1,1.1c0.3,0.9-0.2,1.8-1.1,2.1c-0.6,0.2-1.2,0-1.6-0.3
		l-1.1,0.3l0.7,2.3l23.2-6.9l-0.7-2.3l1.1-0.3c0.4,0.3,1,0.5,1.6,0.3C194.6,139.6,195.1,138.6,194.8,137.8"/>
	<path clip-path="url(#SVGID_6_)" fill="#FCFFF2" d="M349.7,184.8l-2.4-0.6l0.3-1.1c0.5-0.2,1-0.6,1.1-1.2c0.2-0.9-0.3-1.8-1.2-2.1
		c-0.9-0.2-1.8,0.3-2.1,1.2c-0.2,0.6,0,1.2,0.4,1.6l-0.3,1.1l-2.4-0.6"/>
	<path clip-path="url(#SVGID_6_)" fill="#005EC6" d="M484.8,204.6c0.6,0.2,0.9,0.7,1.1,1.2l1.1,0.4l0.8-2.3l-23-7.5l-0.8,2.3
		l-1.1-0.4c-0.2-0.5-0.5-1-1.1-1.2c-0.9-0.3-1.8,0.2-2.1,1.1c-0.3,0.9,0.2,1.8,1.1,2.1c0.6,0.2,1.2,0,1.6-0.3l1.1,0.4l-0.8,2.3
		l9.9,3.2l0,0l-0.4,1.1c-0.5,0.2-1,0.5-1.2,1.1c-0.3,0.9,0.2,1.8,1.1,2.1c0.9,0.3,1.9-0.2,2.1-1.1c0.2-0.6,0-1.2-0.3-1.6l0.4-1.1
		l0,0l11.3,3.7l0.8-2.3l-1.1-0.4c-0.4,0.3-1,0.5-1.6,0.3c-0.9-0.3-1.4-1.2-1.1-2.1C482.9,204.8,483.9,204.3,484.8,204.6"/>
	<path clip-path="url(#SVGID_6_)" fill="#FF7361" d="M461.9,197.1c0.6,0.2,0.9,0.7,1.1,1.2l1.1,0.4l0.8-2.3l-11.9-3.9l0.2-0.9
		c0.5-0.2,1-0.6,1.1-1.2c0.2-0.9-0.3-1.8-1.2-2c-0.9-0.2-1.8,0.4-2,1.2c-0.1,0.6,0,1.1,0.4,1.5l-0.2,0.8l-9.3-3.1l-0.8,2.3l-1.1-0.4
		c-0.2-0.5-0.5-1-1.1-1.2c-0.9-0.3-1.8,0.2-2.1,1.1c-0.3,0.9,0.2,1.8,1.1,2.1c0.6,0.2,1.2,0,1.6-0.3l1.1,0.4l-0.8,2.3l22.9,7.5
		l0.8-2.3l-1.1-0.4c-0.4,0.3-1,0.5-1.6,0.3c-0.9-0.3-1.4-1.2-1.1-2.1C460.1,197.3,461.1,196.8,461.9,197.1"/>
	<path clip-path="url(#SVGID_6_)" fill="#005EC6" d="M461.9,125.3l0.1-1.1c0.4-0.3,0.9-0.7,0.9-1.3c0.1-0.9-0.6-1.7-1.5-1.8
		c-0.9-0.1-1.8,0.6-1.8,1.5c-0.1,0.6,0.2,1.1,0.6,1.5l-0.1,1.1l-2.4-0.2l-4.2,25.7l2.9-2.6l0.2-1.1c-0.4-0.4-0.6-0.9-0.5-1.5
		c0.1-0.9,1-1.5,1.9-1.4c0.9,0.1,1.5,1,1.4,1.9c-0.1,0.6-0.5,1-1,1.3l-0.2,1.1l2.1,2.2l4.1-25L461.9,125.3z"/>
	<path clip-path="url(#SVGID_6_)" fill="#FCFFF2" d="M458.1,148.4l0.2-1.1c0.4-0.2,0.9-0.7,1-1.3c0.1-0.9-0.5-1.8-1.4-1.9
		c-0.9-0.1-1.8,0.5-1.9,1.4c-0.1,0.6,0.2,1.1,0.5,1.5l-0.2,1.1l-2.4-0.4l-3.7,23.8l2.4,0.4l0.2-1.1c-0.4-0.4-0.6-0.9-0.5-1.5
		c0.1-0.9,1-1.5,1.9-1.4c0.9,0.1,1.5,1,1.4,1.9c-0.1,0.6-0.5,1-1,1.3l-0.2,1.1l2.4,0.4l3.7-23.9L458.1,148.4z"/>
	<path clip-path="url(#SVGID_6_)" fill="#005EC6" d="M413,121.3l0.1-1.1c0.4-0.3,0.9-0.7,0.9-1.3c0.1-0.9-0.6-1.7-1.5-1.8
		c-0.9-0.1-1.8,0.6-1.8,1.5c-0.1,0.6,0.2,1.1,0.6,1.5l-0.1,1.1l-2.4-0.2c-0.3,6.2-7.2,13.1-8.9,19.8l1.8,0.6l1.4,0.4l3.2,1.1
		c1.9-7.8,8.5-15.6,9.2-21.3L413,121.3z"/>
	<path clip-path="url(#SVGID_6_)" fill="#FCFFF2" d="M403.9,142.1l0.4-1.1c0.5-0.2,1-0.5,1.2-1.1c0.3-0.9-0.2-1.8-1.1-2.1
		c-0.9-0.3-1.8,0.2-2.1,1.1c-0.2,0.6,0,1.2,0.3,1.6l-0.4,1.1l-2.3-0.8l-7.5,22.9l2.3,0.8l0.4-1.1c-0.3-0.4-0.5-1-0.3-1.6
		c0.3-0.9,1.2-1.4,2.1-1.1c0.9,0.3,1.4,1.2,1.1,2.1c-0.2,0.6-0.7,0.9-1.2,1.1l-0.4,1.1l2.3,0.8l7.6-23L403.9,142.1z"/>
	<path clip-path="url(#SVGID_6_)" fill="#FCFFF2" d="M382.5,194.3l-0.8,2.3l-1.1-0.4c-0.1-0.5-0.5-1-1.1-1.2c-0.9-0.3-1.8,0.1-2.2,1
		c-0.3,0.9,0.1,1.9,1,2.2c0.6,0.2,1.2,0.1,1.6-0.2l1.1,0.4l-0.8,2.3"/>
	<path clip-path="url(#SVGID_6_)" fill="#005EC6" d="M154.1,86.9l0.3,1.1c-0.3,0.4-0.5,1-0.3,1.6c0.3,0.9,1.2,1.4,2.1,1.1
		c0.9-0.3,1.4-1.2,1.1-2.1c-0.2-0.6-0.7-1-1.1-1.1l-0.3-1.1l2.3-0.7l-7.2-23l-2.3,0.7l0.3,1.1c0.5,0.2,1,0.5,1.2,1.1
		c0.3,0.9-0.2,1.8-1.1,2.1c-0.9,0.3-1.8-0.2-2.1-1.1c-0.2-0.6,0-1.2,0.3-1.6l-0.3-1.1l-2.3,0.7l7.2,23.1L154.1,86.9z"/>
	<path clip-path="url(#SVGID_6_)" fill="#FCFFF2" d="M196.6,37.9l1.1-0.3c0.2-0.5,0.6-1,1.1-1.1c0.9-0.3,1.8,0.3,2.1,1.1
		c0.3,0.9-0.3,1.8-1.1,2.1c-0.6,0.2-1.2,0-1.6-0.3l-1.1,0.3l0.7,2.4l-23.2,6.6l-0.7-2.3L175,46c0.4,0.3,1,0.5,1.6,0.4
		c0.9-0.3,1.4-1.2,1.2-2.1c-0.3-0.9-1.2-1.4-2.1-1.2c-0.6,0.2-1,0.6-1.1,1.1l-1.1,0.3l-0.7-2.3l23.2-6.7L196.6,37.9z"/>
	<path clip-path="url(#SVGID_6_)" fill="#FFFFFF" d="M366.6,150.7c0,1.3-1.2,2.2-2.2,2.2h-1.5v-4.4h1.5
		C365.5,148.5,366.6,149.3,366.6,150.7 M362.9,161.3v-4.7h1.3h0.6h0.9c1.3,0,2.4,1.1,2.4,2.4c0,1.3-1.1,2.3-2.4,2.3H362.9z
		 M369.5,153.5c0.4-0.8,0.7-1.6,0.7-2.6c0-3.1-2.5-5.6-5.6-5.6h-1.7h-3.6v19.3h2.3h1.3h2.8c3.2,0,5.8-2.6,5.8-5.8
		c0-1.9-0.9-3.5-2.3-4.6C369.3,153.9,369.5,153.7,369.5,153.5C369.6,153.5,369.6,153.5,369.5,153.5"/>
</g>
</svg>
