<svg xmlns="http://www.w3.org/2000/svg" viewBox="0 0 385.1 258"><path fill="#005EC6" d="M259.3 76.4l.7.1c.2.3.5.5.9.6.6 0 1.1-.4 1.2-1 0-.6-.4-1.1-1-1.2-.4 0-.7.2-.9.4l-.7-.1.1-1.6-15.4-1.3-.1 1.6.7.1c.2-.2.6-.4.9-.4.6 0 1 .6 1 1.2s-.6 1-1.2 1c-.4 0-.7-.3-.9-.6l-.7-.1-.1 1.6 15.5 1.3v-1.6zm50.1 36.2l.1-.7c.3-.1.6-.4.6-.8.1-.6-.3-1.1-.9-1.2-.6-.1-1.1.3-1.2.9-.1.4.1.7.3 1l-.1.7-1.6-.2c-.4 4-.6 8.6-.5 13l1 .2 1.1.3 2 .5c-.2-5.1 0-9.7.6-13.3l-1.4-.4zm-65.2-6.1l.2-.7c.3-.1.6-.4.7-.7.2-.6-.2-1.2-.8-1.3-.6-.2-1.2.2-1.3.8-.1.4 0 .7.2 1l-.2.7-1.5-.4-4 15 1.5.4 1.1.3 1.5.4 4-15-1.4-.5z"/><path fill="#FF7361" d="M252.4 77.3l.1-.7c.3-.2.6-.5.6-.8.1-.6-.4-1.1-.9-1.2-.6-.1-1.1.4-1.2.9 0 .4.1.7.4 1l-.1.7-1.6-.2-4.6 15.7 2-1.5.2-.7c-.2-.3-.3-.6-.2-1 .2-.6.7-.9 1.3-.8.6.2.9.7.8 1.3-.1.4-.4.6-.7.7l-.2.7 1.2 1.5 4.5-15.6h-1.6z"/><path fill="#FFDF93" d="M248.2 91.6l.2-.7c.3-.1.6-.4.7-.7.2-.6-.2-1.2-.8-1.3-.6-.2-1.2.2-1.3.8-.1.4 0 .7.2 1l-.2.7-1.5-.4-4 15 1.5.4.2-.7c-.2-.3-.3-.6-.2-1 .2-.6.7-.9 1.3-.8.6.2.9.7.8 1.3-.1.4-.4.6-.7.7l-.2.7 1.5.4 4-15-1.5-.4z"/><path fill="#005EC6" d="M238.7 56.5l.1-.7c.3-.2.5-.5.6-.9.1-.6-.4-1.1-1-1.2-.6-.1-1.1.4-1.2 1 0 .4.2.7.4.9l-.1.7-1.6-.1-1.4 15.4 1.6.2.1-.7c-.2-.2-.4-.6-.4-.9.1-.6.6-1 1.2-1 .6.1 1 .6 1 1.2 0 .4-.3.7-.6.9l-.1.7 1.6.2 1.4-15.5-1.6-.2z"/><path fill="#FF7361" d="M241.5 25.6l.1-.7c.3-.2.5-.5.6-.9.1-.6-.4-1.1-1-1.2-.6-.1-1.1.4-1.2 1 0 .4.2.7.4.9l-.1.7-1.6-.1-1.6 17.4 1.7-1.8.1-.7c-.2-.2-.4-.6-.4-.9.1-.6.6-1 1.2-1 .6.1 1 .6 1 1.2 0 .4-.3.7-.6.9l-.1.7 1.5 1.3 1.5-16.6-1.5-.2z"/><path fill="#FFC640" d="M240.1 41.1l.1-.7c.3-.2.5-.5.6-.9.1-.6-.4-1.1-1-1.2-.6-.1-1.1.4-1.2 1 0 .4.2.7.4.9l-.1.7-1.6-.1-1.4 15.4 1.6.2.1-.7c-.2-.2-.4-.6-.4-.9.1-.6.6-1 1.2-1 .6.1 1 .6 1 1.2 0 .4-.3.7-.6.9l-.1.7 1.6.2 1.4-15.5-1.6-.2zm5.6 32.5c-.4 0-.7.2-.9.4h-.8l.1-1.6-6.9-.6v-.7c.3-.2.5-.5.6-.9 0-.6-.4-1.1-1-1.1s-1.1.4-1.2 1c0 .4.2.7.4.9v.7l-7.4-.6-.1 1.6.7.1c.2-.2.1 1.4-.1 1.2l-.7-.1-.1 1.6 15.5 1.3.1-1.6.7.1c.2.3.5.5.9.6.6 0 1.1-.4 1.2-1 0-.7-.4-1.2-1-1.3"/><path fill="#FF7361" d="M325.3 223.2c.2-.3.2-.7 0-1l.4-.6 1.3.7c2.4-4.4 3.7-7.8 4.4-12.3.1-.5.1-1.1.2-1.6l-4.3-.6c-.1 4.1-1.9 8.6-3.9 12.5l1.4.8-.4.6c-.3 0-.7.2-.9.5-.3.5-.1 1.2.4 1.4.5.3 1.2.1 1.4-.4"/><path fill="#005EC6" d="M309.9 248.1l-.4.6c-.3 0-.7.2-.9.6-.3.5-.1 1.2.4 1.5.5.3 1.2.1 1.5-.4.2-.3.1-.7 0-1l.4-.6 1.4.7 7.4-13.6-1.4-.8-.3.6c.1.3-1.4-.5-1-.6l.3-.6-1.4-.8-7.4 13.6 1.4.8z"/><path fill="#FFC640" d="M317.2 234.6l-.4.6c-.3 0-.7.2-.9.6-.3.5-.1 1.2.4 1.5.5.3 1.2.1 1.5-.4.2-.3.1-.7 0-1l.4-.6 1.4.7 7.4-13.6-1.4-.8-.3.6c.1.3.2.7 0 1-.3.5-.9.7-1.5.4s-.7-.9-.4-1.5c.2-.3.5-.5.9-.6l.4-.6-1.4-.8-7.4 13.6 1.3.9zM215 71.1c-.4 0-.7.1-.9.4l-.7-.1.1-1.5c-5-.4-8.6-.2-13 1-.5.1-1 .3-1.5.5l1.2 4.2c3.8-1.5 8.6-1.8 13-1.4l.1-1.6.7.1c.2.3.5.6.9.6.6 0 1.1-.4 1.2-1-.1-.6-.6-1.2-1.1-1.2"/><path fill="#FF7361" d="M128.4 29l.4 1.5.7-.2c.1-.3.4-.6.7-.7.6-.2 1.2.2 1.4.7.2.6-.2 1.2-.7 1.4-.4.1-.8 0-1-.2l-.7.2.4 1.4c-2.2.7-3.5 3-2.9 5.2l-4.1 1.2c-1.3-4.4 1.3-9.2 5.8-10.5"/><path fill="#005EC6" d="M124.1 39.2l-.2-.7c-.3-.1-.6-.4-.7-.7-.2-.6.1-1.2.7-1.3.6-.2 1.2.2 1.4.7.1.4 0 .7-.2 1l.2.7 1.5-.4 4.4 14.8-4.1 1.3-4.4-14.9 1.4-.5z"/><path fill="#FF7361" d="M50.8 96.4c-2 0-3.5 1.6-3.5 3.5s1.6 3.5 3.5 3.5 3.5-1.6 3.5-3.5-1.5-3.5-3.5-3.5m0 9.9c-3.5 0-6.4-2.9-6.4-6.4s2.9-6.4 6.4-6.4 6.4 2.9 6.4 6.4-2.9 6.4-6.4 6.4"/><path fill="#005EC6" d="M42.8 98.6h16.1v2.8H42.8z"/><path fill="#FF7361" d="M308.2 189.9c-2 0-3.5 1.6-3.5 3.5 0 2 1.6 3.5 3.5 3.5s3.5-1.6 3.5-3.5-1.5-3.5-3.5-3.5m0 9.9c-3.5 0-6.4-2.9-6.4-6.4 0-3.5 2.9-6.4 6.4-6.4s6.4 2.9 6.4 6.4c0 3.5-2.9 6.4-6.4 6.4"/><path fill="#005EC6" d="M300.2 192.1h16.1v2.8h-16.1z"/><path fill="#FFC640" d="M321.2 81.4l.7.1c.2.3.5.5.9.6.6 0 1.1-.4 1.2-1 0-.6-.4-1.1-1-1.2-.4 0-.7.2-.9.4l-.7-.1.1-1.6-15.5-1.2-.1 1.6.7.1c.2-.2.6-.4.9-.4.6 0 1 .6 1 1.2s-.6 1-1.2 1c-.4 0-.7-.3-.9-.6l-.7-.1-.1 1.6 15.5 1.3.1-1.7z"/><path fill="#005EC6" d="M367.6 85.2l.7.1c.2.3.5.5.9.6.6 0 1.1-.4 1.2-1 0-.6-.4-1.1-1-1.2-.4 0-.7.2-.9.4l-.7-.1.1-1.6-17.4-1.4 1.8 1.7.7.1c.2-.2.6-.4.9-.4.6 0 1 .6 1 1.2s-.6 1-1.2 1c-.4 0-.7-.3-.9-.6l-.7-.1-1.3 1.5 16.6 1.4.2-1.6z"/><path fill="#FF7361" d="M290.2 78.9l.8.1c.2.3.5.5.9.6.6 0 1.1-.4 1.2-1 0-.6-.4-1.1-1-1.2-.4 0-.7.2-.9.4l-.7-.1.1-1.6-17.4-1.4 1.8 1.7.7.1c.2-.2-.8 1.1-.8 1.1l-.9 1.5 16.2 1.3v-1.5z"/><path fill="#FFC640" d="M274.7 77.6l.7.1c.2.3.5.5.9.6.6 0 1.1-.4 1.2-1 0-.6-.4-1.1-1-1.2-.4 0-.7.2-.9.4l-.7-.1.1-1.6-15.4-1.3-.1 1.6.7.1c.2-.2.6-.4.9-.4.6 0 1 .6 1 1.2s-.6 1-1.2 1c-.4 0-.7-.3-.9-.6l-.7-.1-.1 1.6 15.5 1.3v-1.6z"/><path fill="#FF7361" d="M305.7 80.2l.7.1c.2.3.5.5.9.6.6 0 1.1-.4 1.2-1 0-.6-.4-1.1-1-1.2-.4 0-.7.2-.9.4l-.7-.1.1-1.6-15.4-1.3-.1 1.6.7.1c.2-.2.6-.4.9-.4.6 0 1 .6 1 1.2s-.6 1-1.2 1c-.4 0-.7-.3-.9-.6l-.7-.1-.1 1.6 15.5 1.3v-1.6z"/><path fill="#005EC6" d="M336.6 82.7l.7.1c.2.3.5.5.9.6.6 0 1.1-.4 1.2-1 0-.6-.4-1.1-1-1.2-.4 0-.7.2-.9.4l-.7-.1.1-1.6-15.4-1.3-.1 1.6.7.1c.2-.2.6-.5.9-.4.6 0 1 .6 1 1.2s-.6 1-1.2 1c-.4 0-.7-.3-.9-.6l-.7-.1-.2 1.6 15.5 1.3.1-1.6z"/><path fill="#FFC640" d="M352.1 84l.7.1c.2.3.5.5.9.6.6 0 1.1-.4 1.2-1 0-.6-.4-1.1-1-1.2-.4 0-.7.2-.9.4l-.7-.1.1-1.6-15.6-1.2-.1 1.6.7.1c.2-.2.6-.4.9-.4.6 0 1 .6 1 1.2s-.6 1-1.2 1c-.4 0-.7-.3-.9-.6l-.7-.1-.1 1.6 15.5 1.3.2-1.7z"/><path fill="#005EC6" d="M228.6 73.9l.7.1c.2.3.5.5.9.6.6 0 1.1-.4 1.2-1 0-.6-.4-1.1-1-1.2-.4 0-.7.2-.9.4l-.7-.1.1-1.6-15.4-1.3-.1 1.6.7.1c.2-.2.6-.4.9-.4.6 0 1 .6 1 1.2s-.6 1-1.2 1c-.4 0-.7-.3-.9-.6l-.7-.1-.1 1.6 15.5 1.3v-1.6zm-28.9.1l.7-.2c.3.2.6.3 1 .2.6-.2.9-.8.7-1.3-.2-.6-.8-.9-1.3-.7-.4.1-.6.4-.7.7l-.7.2-.5-1.5-16.7 5 2.3 1 .7-.2c.1-.3.4-.6.7-.7.6-.2 1.2.2 1.3.7.2.6-.2 1.2-.7 1.3-.4.1-.7 0-1-.2l-.7.2-.7 1.8 16-4.8-.4-1.5zm-74.4 22.2l.7-.2c.3.2.6.3 1 .2.6-.2.9-.8.7-1.3-.2-.6-.8-.9-1.3-.7-.4.1-.6.4-.7.7l-.7.1-.5-1.5-16.7 5 2.3 1 .7-.2c.1-.3-.4 1.3-.4 1.3l-.3 1.7 15.6-4.6-.4-1.5z"/><path fill="#FF7361" d="M80.8 109.4l.7-.2c.3.2.6.3 1 .2.6-.2.9-.8.7-1.3-.2-.6-.8-.9-1.3-.7-.4.1-.6.4-.7.7l-.7.2-.5-1.5-14.8 4.4.4 1.5.7-.2c.1-.3.6 1.3.3 1.1l-.7.2.4 1.5 14.9-4.4-.4-1.5z"/><path fill="#005EC6" d="M95.6 105l.7-.2c.3.2.6.3 1 .2.6-.2.9-.8.7-1.3-.2-.6-.8-.9-1.3-.7-.4.1-.6.4-.7.7l-.7.2-.5-1.5-14.8 4.4.4 1.5.7-.2c.1-.3.4-.6.7-.7.6-.2 1.2.2 1.3.7.2.6-.2 1.2-.7 1.3-.4.1-.7 0-1-.2l-.7.2.4 1.5 14.9-4.4-.4-1.5z"/><path fill="#FF7361" d="M110.4 100.6l.7-.2c.3.2.6.3 1 .2.6-.2.9-.8.7-1.3-.2-.6-.8-.9-1.3-.7-.4.1-.6.4-.7.7l-.7.2-.5-1.5-14.8 4.4.4 1.5.7-.2c.1-.3.4-.6.7-.7.6-.2 1.2.2 1.3.7.2.6-.2 1.2-.7 1.3-.4.1-.7 0-1-.2l-.7.2.4 1.5 14.9-4.4-.4-1.5zm44.7-13.3l.7-.2c.3.2.6.3 1 .2.6-.2.9-.8.7-1.3-.2-.6-.8-.9-1.3-.7-.4.1-.6.4-.7.7l-.7.2-.5-1.5-14.8 4.4.4 1.5.7-.2c.1-.3.4-.6.7-.7.6-.2 1.2.2 1.3.7.2.6-.2 1.2-.7 1.3-.4.1-.7 0-1-.2l-.7.2.4 1.5 14.9-4.4-.4-1.5z"/><path fill="#005EC6" d="M169.9 82.9l.7-.2c.3.2.6.3 1 .2.6-.2.9-.8.7-1.3-.2-.6-.8-.9-1.3-.7-.4.1-.6.4-.7.7l-.7.2-.5-1.5-14.8 4.4.4 1.5.7-.2c.1-.3.4-.6.7-.7.6-.2 1.2.2 1.3.7.2.6-.2 1.2-.7 1.3-.4.1-.7 0-1-.2l-.7.2.4 1.5 14.9-4.4-.4-1.5z"/><path fill="#FFC640" d="M184.8 78.5l.7-.2c.3.2.6.3 1 .2.6-.2.9-.8.7-1.3-.2-.6-.8-.9-1.3-.7-.4.1-.6.4-.7.7l-.7.2-.5-1.5-14.8 4.4.4 1.5.7-.2c.1-.3.4-.6.7-.7.6-.2 1.2.2 1.3.7.2.6-.2 1.2-.7 1.3-.4.1-.7 0-1-.2l-.7.2.4 1.5 14.9-4.4-.4-1.5z"/><path fill="#005EC6" d="M66.1 113.8l.7-.2c.3.2.6.3 1 .2.6-.2.9-.8.7-1.3-.2-.6-.8-.9-1.3-.7-.4.1-.6.4-.7.7l-.7.2-.5-1.5-14.8 4.4.4 1.5.7-.2c.1-.3.4-.6.7-.7.6-.2 1.2.2 1.3.7.2.6-.2 1.2-.7 1.3-.4.1-.7 0-1-.2l-.7.2.4 1.5 14.9-4.4-.4-1.5zM51.2 30l-.2-.7c.2-.3.3-.6.2-1-.2-.6-.8-.9-1.3-.7-.6.2-.9.8-.8 1.3.1.4.4.6.7.7l.2.7-1.5.4 4.7 16.8 1-2.3-.2-.7c-.3-.1-.6-.4-.7-.7-.2-.6.2-1.2.7-1.3.6-.2 1.2.2 1.3.7.1.4 0 .7-.2 1l.2.7 1.8.7-4.5-16.1-1.4.5z"/><path fill="#FF7361" d="M72.3 104.7l-.2-.7c.2-.3.3-.6.2-1-.2-.6-.8-.9-1.3-.7-.6.2-.9.8-.8 1.3.1.4.4.6.7.7l.2.7-1.5.4 4.7 16.8 1-2.3-.2-.7c-.3-.1 1.3.4 1.3.4l1.7.3-4.4-15.7-1.4.5z"/><path fill="#FFC640" d="M85 149.4l-.2-.7c.2-.3.3-.6.2-1-.2-.6-.8-.9-1.3-.7-.6.2-.9.8-.8 1.3.1.4.4.6.7.7l.2.7-1.5.4 4.2 14.9 1.5-.4-.2-.7c-.3-.1 1.3-.6 1.1-.3l.2.7 1.5-.4-4.1-14.9-1.5.4z"/><path fill="#005EC6" d="M80.8 134.5l-.2-.7c.2-.3.3-.6.2-1-.2-.6-.8-.9-1.3-.7-.6.2-.9.8-.8 1.3.1.4.4.6.7.7l.2.7-1.5.4 4.2 14.9 1.5-.4-.2-.7c-.3-.1-.6-.4-.7-.7-.2-.6.2-1.2.7-1.3.6-.2 1.2.2 1.3.7.1.4 0 .7-.2 1l.2.7 1.5-.4-4.2-14.9-1.4.4z"/><path fill="#FFC640" d="M76.6 119.6l-.2-.7c.2-.3.3-.6.2-1-.2-.6-.8-.9-1.3-.7-.6.2-.9.8-.8 1.3.1.4.4.6.7.7l.2.7-1.5.4 4.2 14.9 1.5-.4-.2-.7c-.3-.1-.6-.4-.7-.7-.2-.6.2-1.2.7-1.3.6-.2 1.2.2 1.3.7.1.4 0 .7-.2 1l.2.7 1.5-.4-4.2-14.9-1.4.4z"/><path fill="#005EC6" d="M68.1 89.7l-.2-.7c.2-.3.3-.6.2-1-.2-.6-.8-.9-1.3-.7-.6.2-.9.8-.8 1.3.1.4.4.6.7.7l.3.7-1.5.4 4.2 14.9 1.5-.4-.2-.7c-.3-.1-.6-.4-.7-.7-.2-.6.2-1.2.7-1.3.6-.2 1.2.2 1.3.7.1.4 0 .7-.2 1l.2.7 1.5-.4-4.2-14.9-1.5.4z"/><path fill="#FFC640" d="M63.9 74.7l-.2-.7c.2-.3.3-.6.2-1-.2-.6-.8-.9-1.3-.7-.6.2-.9.8-.8 1.3.1.4.4.6.7.7l.2.7-1.5.4 4.2 14.9L67 90l-.2-.7c-.3-.1-.6-.4-.7-.7-.2-.6.2-1.2.7-1.3.6-.2 1.2.2 1.3.7.1.4 0 .7-.2 1l.2.7 1.5-.4-4.2-14.9-1.5.3z"/><path fill="#FF7361" d="M59.7 59.9l-.2-.7c.2-.3.3-.6.2-1-.2-.6-.8-.9-1.3-.7-.6.2-.9.8-.8 1.3.1.4.4.6.7.7l.2.7-1.5.4 4.2 14.9 1.5-.4-.2-.7c-.3-.1-.6-.4-.7-.7-.2-.6.2-1.2.7-1.3.6-.2 1.2.2 1.3.7.1.4 0 .7-.2 1l.2.7 1.5-.4-4.2-14.9-1.4.4z"/><path fill="#FFC640" d="M55.5 45l-.2-.7c.2-.3.3-.6.2-1-.2-.6-.8-.9-1.3-.7-.6.2-.9.8-.8 1.3.1.4.4.6.7.7l.2.7-1.5.4L57 60.6l1.5-.4-.2-.7c-.3-.1-.6-.4-.7-.7-.2-.6.2-1.2.7-1.3.6-.2 1.2.2 1.3.7.1.4 0 .7-.2 1l.2.7 1.5-.4L57 44.6l-1.5.4z"/><path fill="#FF7361" d="M89.2 164.2l-.2-.7c.2-.3.3-.6.2-1-.2-.6-.8-.9-1.3-.7-.6.2-.9.8-.8 1.3.1.4.4.6.7.7l.2.7-1.5.4 4.2 14.9 1.5-.4-.2-.7c-.3-.1-.6-.4-.7-.7-.2-.6.2-1.2.7-1.3.6-.2 1.2.2 1.3.7.1.4 0 .7-.2 1l.2.7 1.5-.4-4.2-14.9-1.4.4z"/><path fill="#005EC6" d="M92.8 69.3l-.7.2c-.3-.2-.6-.3-1-.2-.6.2-.9.8-.7 1.3.2.6.8.9 1.3.7.4-.1.6-.4.7-.7l.7-.2.5 1.5 14.8-4.5-.4-1.5-.7.2c-.1.3-.4.6-.7.7-.6.2-1.2-.1-1.3-.7-.2-.6.1-1.2.7-1.3.4-.1.7 0 1 .2l.7-.2-.4-1.5-14.9 4.5.4 1.5z"/><path fill="#FF7361" d="M107.1 63.4l.4 1.5-.7.2c-.3-.2-.6-.3-1-.2-.6.2-.9.8-.7 1.4.2.6.8.9 1.3.7.4-.1.6-.4.7-.8l.7-.2.5 1.5c7.5-2.3 15.6 1.9 17.9 9.4l4.1-1.3c-2.9-9.8-13.2-15.3-23.2-12.2"/><path fill="#005EC6" d="M128.9 76.1l-.2-.7c.2-.3.3-.6.2-1-.2-.6-.8-.9-1.3-.7-.6.2-.9.8-.7 1.3.1.4.4.6.7.7l.2.7-1.5.5 4.5 14.8 1.5-.4-.2-.7c-.3-.1-.6-.4-.7-.7-.2-.6.1-1.2.7-1.3.6-.2 1.2.1 1.3.7.1.4 0 .7-.2 1l.2.7 1.5-.4-4.5-14.9-1.5.4z"/><path fill="#FFC640" d="M131.2 53.2l-1.5.5-.2-.7c.2-.3.3-.7.2-1-.2-.6-.8-.9-1.4-.7-.6.2-.9.8-.7 1.4.1.4.4.6.7.7l.2.7-1.4.4c.7 2.2-.6 4.6-2.8 5.2-2.2.7-4.6-.6-5.2-2.8l-4.1 1.2c1.3 4.5 6.1 7 10.6 5.7 4.4-1.3 6.9-6.1 5.6-10.6"/><path fill="#005EC6" d="M144.4 18.4l-.2-.7c.2-.3.3-.6.2-1-.2-.6-.8-.9-1.3-.7-.6.2-.9.8-.8 1.3.1.4.4.6.7.7l.2.7-1.5.4 4.7 16.8 1-2.3-.2-.7c-.3-.1-.6-.4-.7-.7-.2-.6.2-1.2.7-1.3.6-.2 1.2.2 1.3.7.1.4 0 .7-.2 1l.2.7 1.8.7-4.4-16-1.5.4zm16.9 59.7l-.2-.7c.2-.3.3-.6.2-1-.2-.6-.8-.9-1.3-.7-.6.2-.9.8-.8 1.3.1.4.4.6.7.7l.2.7-1.5.4 2.4 8.3 4.1-1.2-2.3-8.3-1.5.5z"/><path fill="#FFC640" d="M157 63.1l-.2-.7c.2-.3.3-.6.2-1-.2-.6-.8-.9-1.3-.7-.6.2-.9.8-.8 1.3.1.4.4.6.7.7l.2.7-1.5.4 4.2 14.9 1.5-.4-.2-.7c-.3-.1-.6-.4-.7-.7-.2-.6.2-1.2.7-1.3.6-.2 1.2.2 1.3.7.1.4 0 .7-.2 1l.2.7 1.5-.4-4.2-14.9-1.4.4z"/><path fill="#005EC6" d="M152.8 48.3l-.2-.7c.2-.3.3-.6.2-1-.2-.6-.8-.9-1.3-.7-.6.2-.9.8-.8 1.3.1.4.4.6.7.7l.2.7-1.5.4 4.2 14.9 1.5-.4-.2-.7c-.3-.1-.6-.4-.7-.7-.2-.6.2-1.2.7-1.3.6-.2 1.2.2 1.3.7.1.4 0 .7-.2 1l.2.7 1.5-.4-4.2-14.9-1.4.4z"/><path fill="#FF7361" d="M148.6 33.4l-.2-.7c.2-.3.3-.6.2-1-.2-.6-.8-.9-1.3-.7-.6.2-.9.8-.8 1.3.1.4.4.6.7.7l.2.7-1.5.4 4.2 14.9 1.5-.4-.2-.7c-.3-.1-.6-.4-.7-.7-.2-.6.2-1.2.7-1.3.6-.2 1.2.2 1.3.7.1.4 0 .7-.2 1l.2.7 1.5-.4-4.1-14.9-1.5.4z"/><path fill="#005EC6" d="M200.6 19.4l-.1-.7c.2-.2.4-.6.4-1-.1-.6-.6-1-1.2-.9-.6.1-1 .6-1 1.2 0 .4.3.7.6.8l.1.7-1.6.2 2.1 17.3 1.3-2.1-.1-.7c-.3-.2-.6-.5-.6-.8-.1-.6.3-1.1.9-1.2.6-.1 1.1.4 1.2.9 0 .4-.1.7-.4 1l.1.7 1.7 1-2-16.6-1.4.2z"/><path fill="#FFC640" d="M206.2 65.5l-.1-.7c.2-.2.4-.6.4-1-.1-.6-.6-1-1.2-.9-.6.1-1 .6-1 1.2 0 .4.3.7.6.8l.1.7-1.6.2 1.9 15.4 1.6-.2h1.1l1.6-.2-1.9-15.4-1.5.1z"/><path fill="#FF7361" d="M204.3 50.2l-.1-.7c.2-.2.4-.6.4-1-.1-.6-.6-1-1.2-.9-.6.1-1 .6-1 1.2 0 .4.3.7.6.8l.1.7-1.6.2 1.9 15.4 1.6-.2-.1-.7c-.3-.2-.6-.5-.6-.8-.1-.6.3-1.1.9-1.2.6-.1 1.1.4 1.2.9 0 .4-.1.7-.4 1l.1.7 1.6-.2-1.8-15.4-1.6.2z"/><path fill="#FFC640" d="M202.5 34.9l-.1-.7c.2-.2.4-.6.4-1-.1-.6-.6-1-1.2-.9-.6.1-1 .6-1 1.2 0 .4.3.7.6.8l.1.7-1.6.2 1.9 15.4 1.6-.2-.1-.7c-.3-.2-.6-.5-.6-.8-.1-.6.3-1.1.9-1.2.6-.1 1.1.4 1.2.9 0 .4-.1.7-.4 1l.1.7 1.6-.2-1.9-15.4-1.5.2z"/><path fill="#FF7361" d="M208.4 79.1c0 .4-.1.7-.4.9l.1.7 1.5-.1c.4 5.1.2 8.7-1 13.2-.1.5-.3 1.1-.5 1.6l-4.3-1.3c1.5-3.9 1.8-8.8 1.5-13.2l1.6-.1-.1-.7c-.3-.2-.6-.5-.6-.9 0-.6.4-1.1 1-1.2.6.1 1.1.5 1.2 1.1"/><path fill="#005EC6" d="M203.8 94.2l1.5.4.2-.7c-.2-.3-.3-.6-.2-1 .2-.6.8-.9 1.4-.8.6.2.9.8.7 1.4-.1.4-.4.6-.8.7l-.2.7 1.6.4c-2.2 7.8 2.3 16.1 10.1 18.3l-1.2 4.3c-10.2-2.8-16.1-13.3-13.1-23.7"/><path fill="#FF7361" d="M217.6 115.3l-.7-.2c-.1-.3-.4-.6-.7-.7-.6-.2-1.2.2-1.3.7s.2 1.2.7 1.3c.4.1.7 0 1-.2l.7.2-.4 1.5 16.8 4.7-1.4-2-.7-.2c-.3.2-.6.3-1 .2-.6-.2-.9-.8-.7-1.3.2-.6.8-.9 1.3-.7.4.1.6.4.7.7l.7.2 1.5-1.2-16.1-4.5-.4 1.5z"/><path fill="#005EC6" d="M247.5 123.8l-.7-.2c-.1-.3-.4-.6-.7-.7-.6-.2-1.2.2-1.3.7-.2.6.2 1.2.7 1.3.4.1.7 0 1-.2l.7.2-.4 1.5 15.2 4.4.5-1.6-1-.3c-.3.2 1.3-.7 1.3-.7l.5-1.7-15.3-4.3-.5 1.6z"/><path fill="#FFC640" d="M232.6 119.6l-.7-.2c-.1-.3-.4-.6-.7-.7-.6-.2-1.2.2-1.3.7-.2.6.2 1.2.7 1.3.4.1.7 0 1-.2l.7.2-.4 1.5 14.9 4.2.4-1.5-.7-.2c-.3.2-.6.3-1 .2-.6-.2-.9-.8-.7-1.3.2-.6.8-.9 1.3-.7.4.1.6.4.7.7l.7.2.4-1.5-14.9-4.2-.4 1.5zm34.7 3l.2-.7c.3-.1.6-.3.8-.7.2-.6-.1-1.2-.7-1.4-.6-.2-1.2.1-1.4.7-.1.4 0 .7.2 1l-.2.7-1.5-.5-4.8 14.7 1.5.5 1.1.4 1.5.5 4.9-14.8-1.6-.4z"/><path fill="#005EC6" d="M272.2 107.9l.2-.7c.3-.1.6-.3.8-.7.2-.6-.1-1.2-.7-1.4-.6-.2-1.2.1-1.4.7-.1.4 0 .7.2 1l-.2.7-1.5-.5-4.8 14.7 1.5.5.2-.7c-.2-.3-.3-.7-.2-1 .2-.6.8-.9 1.4-.7.6.2.9.8.7 1.4-.1.4-.4.6-.7.7l-.2.7 1.5.5 4.9-14.8-1.7-.4z"/><path fill="#FF7361" d="M262.5 137.2l.2-.7c.3-.1.6-.3.8-.7.2-.6-.1-1.2-.7-1.4-.6-.2-1.2.1-1.4.7-.1.4 0 .7.2 1l-.2.7-1.5-.5-5.5 16.6 2.1-1.4.2-.7c-.2-.3-.3-.7-.2-1 .2-.6.8-.9 1.4-.7.6.2.9.8.7 1.4-.1.4-.4.6-.7.7l-.2.7 1.1 1.6 5.2-15.8-1.5-.5z"/><path fill="#FFC640" d="M248 181.3l.2-.7c.3-.1.6-.3.8-.7.2-.6-.1-1.2-.7-1.4-.6-.2-1.2.1-1.4.7-.1.4 0 .7.2 1l-.2.7-1.5-.5-4.8 14.7 1.5.5.2-.7c-.2-.3-.3-.7-.2-1 .2-.6.8-.9 1.4-.7.6.2.9.8.7 1.4-.1.4-.4.6-.7.7l-.2.7 1.5.5 4.9-14.8-1.7-.4z"/><path fill="#005EC6" d="M252.8 166.6l.2-.7c.3-.1.6-.3.8-.7.2-.6-.1-1.2-.7-1.4-.6-.2-1.2.1-1.4.7-.1.4 0 .7.2 1l-.2.7-1.5-.5-4.8 14.7 1.5.5.2-.7c-.2-.3-.3-.7-.2-1 .2-.6.8-.9 1.4-.7.6.2.9.8.7 1.4-.1.4-.4.6-.7.7l-.2.7 1.5.5 4.9-14.8-1.7-.4z"/><path fill="#FFC640" d="M257.7 151.9l.2-.7c.3-.1.6-.3.8-.7.2-.6-.1-1.2-.7-1.4-.6-.2-1.2.1-1.4.7-.1.4 0 .7.2 1l-.2.7-1.5-.5-4.8 14.7 1.5.5.2-.7c-.2-.3-.3-.7-.2-1 .2-.6.8-.9 1.4-.7.6.2.9.8.7 1.4-.1.4-.4.6-.7.7l-.2.7 1.5.5 4.9-14.8-1.7-.4z"/><path fill="#FF7361" d="M271.4 115l-.7-.2c-.1-.3-.3-.6-.7-.8-.6-.2-1.2.1-1.4.7-.2.6.1 1.2.7 1.4.4.1.7 0 1-.2l.7.2-.5 1.5 16.6 5.4-1.4-2.1-.7-.2c-.3.2-.7.3-1 .2-.6-.2-.9-.8-.7-1.4.2-.6.8-.9 1.4-.7.4.1.6.4.7.7l.7.2 1.6-1.1-15.9-5.2-.4 1.6zm73.8 24.2l-.7-.2c-.1-.3-.3-.6-.7-.8-.6-.2-1.2.1-1.4.7-.2.6.1 1.2.7 1.4.4.1.7 0 1-.2l.7.2-.5 1.5 16.6 5.4-1.4-2.1-.7-.2c-.3.2 1.1-.9 1.1-.9l1.2-1.2-15.5-5.1-.4 1.5z"/><path fill="#FFC640" d="M359.9 144l-.7-.2c-.1-.3-.3-.6-.7-.8-.6-.2-1.2.1-1.4.7-.2.6.1 1.2.7 1.4.4.1.7 0 1-.2l.7.2-.5 1.5 14.7 4.8.5-1.5-.7-.2c-.3.2-.7.3-1 .2-.6-.2-.9-.8-.7-1.4.2-.6.8-.9 1.4-.7.4.1.6.4.7.7l.7.2.5-1.5-14.8-4.8-.4 1.6zm-29.5-9.7l-.7-.2c-.1-.3-.3-.6-.7-.8-.6-.2-1.2.1-1.4.7-.2.6.1 1.2.7 1.4.4.1.7 0 1-.2l.7.2-.5 1.5 14.7 4.8.5-1.5-.7-.2c-.3.2-.7.3-1 .2-.6-.2-.9-.8-.7-1.4.2-.6.8-.9 1.4-.7.4.1.6.4.7.7l.7.2.5-1.5-14.8-4.8-.4 1.6zm-44.2-14.4l-.7-.2c-.1-.3-.3-.6-.7-.8-.6-.2-1.2.1-1.4.7-.2.6.1 1.2.7 1.4.4.1.7 0 1-.2l.7.2-.5 1.5 14.7 4.8.5-1.5-.7-.2c-.3.2-.7.3-1 .2-.6-.2-.9-.8-.7-1.4.2-.6.8-.9 1.4-.7.4.1.6.4.7.7l.7.2.5-1.5-14.8-4.8-.4 1.6z"/><path fill="#FF7361" d="M334.3 161.7l-.1.7c-.3.2-.6.5-.6.8-.1.6.3 1.1.9 1.2.6.1 1.1-.4 1.2-.9 0-.4-.1-.7-.4-1l.1-.7 1.6.2 2.1-17.3-1.8 1.7-.1.7c.2.2-1.1-.9-1.1-.9l-1.5-1-1.9 16.2 1.6.3z"/><path fill="#FFC640" d="M339.8 115.6l-.1.7c-.3.2-.6.5-.6.8-.1.6.3 1.1.9 1.2.6.1 1.1-.4 1.2-.9 0-.4-.1-.7-.4-1l.1-.7 1.6.2 1.8-15.4-1.6-.2-.1.7c.2.2-1.5 0-1.2-.1l.1-.7-1.6-.2-1.8 15.4 1.7.2z"/><path fill="#005EC6" d="M338 130.9l-.1.7c-.3.2-.6.5-.6.8-.1.6.3 1.1.9 1.2.6.1 1.1-.4 1.2-.9 0-.4-.1-.7-.4-1l.1-.7 1.6.2 1.8-15.4-1.6-.2-.1.7c.2.2.4.6.4 1-.1.6-.6 1-1.2.9-.6-.1-1-.6-.9-1.2 0-.4.3-.7.6-.8l.1-.7-1.6-.2-1.8 15.4 1.6.2z"/><path fill="#FFC640" d="M336.1 146.3l-.1.7c-.3.2-.6.5-.6.8-.1.6.3 1.1.9 1.2.6.1 1.1-.4 1.2-.9 0-.4-.1-.7-.4-1l.1-.7 1.6.2 1.8-15.4-1.6-.2-.1.7c.2.2.4.6.4 1-.1.6-.6 1-1.2.9-.6-.1-1-.6-.9-1.2 0-.4.3-.7.6-.8l.1-.7-1.6-.2-1.8 15.4 1.6.2z"/><path fill="#005EC6" d="M332.5 177.2l-.1.7c-.3.2-.6.5-.6.8-.1.6.3 1.1.9 1.2.6.1 1.1-.4 1.2-.9 0-.4-.1-.7-.4-1l.1-.7 1.6.2 1.8-15.4-1.6-.2-.1.7c.2.2.4.6.4 1-.1.6-.6 1-1.2.9-.6-.1-1-.6-.9-1.2 0-.4.3-.7.6-.8l.1-.7-1.6-.2-1.8 15.4 1.6.2z"/><path fill="#FF7361" d="M330.6 192.6l-.1.7c-.3.2-.6.5-.6.8-.1.6.3 1.1.9 1.2.6.1 1.1-.4 1.2-.9 0-.4-.1-.7-.4-1l.1-.7 1.6.2 1.8-15.4-1.6-.2-.1.7c.2.2.4.6.4 1-.1.6-.6 1-1.2.9-.6-.1-1-.6-.9-1.2 0-.4.3-.7.6-.8l.1-.7-1.6-.2-1.8 15.4 1.6.2z"/><path fill="#005EC6" d="M328.8 207.9l-.1.7c-.3.2-.6.5-.6.8-.1.6.3 1.1.9 1.2.6.1 1.1-.4 1.2-.9 0-.4-.1-.7-.4-1l.1-.7 1.6.2 1.8-15.4-1.6-.2-.1.7c.2.2.4.6.4 1-.1.6-.6 1-1.2.9-.6-.1-1-.6-.9-1.2 0-.4.3-.7.6-.8l.1-.7-1.6-.2-1.8 15.4 1.6.2zm12.8-107.6l-.1.7c-.3.2-.6.5-.6.8-.1.6.3 1.1.9 1.2.6.1 1.1-.4 1.2-.9 0-.4-.1-.7-.4-1l.1-.7 1.6.2 1.8-15.4-1.6-.2-.1.7c.2.2.4.6.4 1-.1.6-.6 1-1.2.9-.6-.1-1-.6-.9-1.2 0-.4.3-.7.6-.8l.1-.7-1.6-.2-1.8 15.4 1.6.2z"/><path fill="#FF7361" d="M349.1 56.2c.1-.4-.1-.7-.3-1l.1-.7 1.5.2c.7-5 .7-8.6-.3-13.1-.1-.5-.3-1.1-.4-1.6l-4.3 1c1.3 3.9 1.3 8.7.7 13l1.6.2-.1.7c-.3.1-.6.4-.6.8-.1.6.3 1.1.9 1.2.6.3 1.1-.1 1.2-.7"/><path fill="#FFC640" d="M343.4 84.9l-.1.7c-.3.2-.6.5-.6.8-.1.6.3 1.1.9 1.2.6.1 1.1-.3 1.2-.9.1-.4-.1-.7-.4-1l.1-.7 1.6.2 2.1-15.3-1.6-.2-.1.7c.2.2-1.5 0-1.2-.2l.1-.7-1.6-.2-2.1 15.4 1.7.2z"/><path fill="#005EC6" d="M345.5 69.7l-.1.7c-.3.2-.6.5-.6.8-.1.6.3 1.1.9 1.2.6.1 1.1-.3 1.2-.9.1-.4-.1-.7-.4-1l.1-.7 1.6.2 2.1-15.3-1.6-.2-.1.7c.2.2.4.6.4 1-.1.6-.6 1-1.2.9-.6-.1-1-.6-.9-1.2.1-.4.3-.7.6-.8l.1-.7-1.6-.2-2 15.3 1.5.2zm1.5-28.9l.2.7c-.2.2-.4.6-.3 1 .1.6.7.9 1.3.8.6-.1.9-.7.8-1.3-.1-.4-.4-.6-.7-.8l-.2-.7 1.5-.4-4-17-1.1 2.2.2.7c.3.1.6.4.7.8.1.6-.2 1.2-.8 1.3-.6.1-1.2-.2-1.3-.8-.1-.4.1-.7.3-1l-.2-.7-1.8-.8 3.8 16.2 1.6-.2z"/><path fill="#FFC640" d="M343.5 25.7l.2.7c-.2.2-.4.6-.3 1 .1.6.7.9 1.3.8.6-.1.9-.7.8-1.3-.1-.4-.4-.6-.7-.8l-.2-.7 1.5-.4-3.6-15.1-1.5.4.2.7c.3.1.6.4.7.8.1.6-.2 1.2-.8 1.3-.6.1-1.2-.2-1.3-.8-.1-.4.1-.7.3-1l-.2-.7-1.5.4 3.6 15.1 1.5-.4z"/><path fill="#FF7361" d="M317.2 149.3l-.2.7c.2.3.3.7.2 1-.2.6-.8.9-1.4.7-.6-.2-.9-.8-.7-1.4.1-.4.4-.6.7-.7l.2-.7-1.5-.5 5-14.6 1.5.5-.2.7c-.3.1-.6.3-.8.7-.2.6.1 1.2.7 1.4.6.2 1.2-.1 1.4-.7.1-.4 0-.7-.2-1l.2-.7 1.5.5-5.1 14.7-1.3-.6z"/><path fill="#005EC6" d="M307.1 178.6l-.2.7c.2.3.3.7.2 1-.2.6-.8.9-1.4.7-.6-.2-.9-.8-.7-1.4.1-.4.4-.6.7-.7l.2-.7-1.5-.5 5.7-16.5.9 2.3-.2.7c-.3.1-.6.3-.8.7-.2.6.1 1.2.7 1.4.6.2 1.2-.1 1.4-.7.1-.4 0-.7-.2-1l.2-.7 1.9-.6-5.4 15.8-1.5-.5z"/><path fill="#FFC640" d="M312.1 163.9l-.2.7c.2.3.3.7.2 1-.2.6-.8.9-1.4.7-.6-.2-.9-.8-.7-1.4.1-.4.4-.6.7-.7l.2-.7-1.5-.5 5-14.6 1.5.5-.2.7c-.3.1-.6.3-.8.7-.2.6.1 1.2.7 1.4.6.2 1.2-.1 1.4-.7.1-.4 0-.7-.2-1l.2-.7 1.5.5-5.1 14.7-1.3-.6z"/><path fill="#005EC6" d="M262.4 99.5c0 6-10.9 18.8-10.9 18.8s-10.9-12.8-10.9-18.8 4.9-10.9 10.9-10.9 10.9 4.9 10.9 10.9"/><path fill="#FFC640" d="M142.7 90.4c-.2-.6-.8-.9-1.3-.7-.4.1-.6.4-.7.7l-.7.2-.5-1.5-6.1 1.8-.2-.6c.2-.3.3-.6.3-1-.2-.6-.7-.9-1.3-.8-.6.2-.9.8-.8 1.3.1.4.4.6.7.7l.2.7-7.6 2.3.3 1.5.7-.2c.1-.3.4-.6.7-.7.6-.2 1.2.2 1.3.7.2.6-.2 1.2-.7 1.3-.4.1-.7 0-1-.2l-.7.2.4 1.5 14.9-4.4-.5-1.5.7-.2c.3.2.6.3 1 .2.7-.1 1-.7.9-1.3m99.4 30.2l-1.5-.4.2-.7c.3-.1.6-.4.7-.7.2-.6-.2-1.2-.8-1.3-.6-.2-1.2.2-1.3.8-.1.4 0 .7.2 1l-.2.7-1.5-.4"/><path fill="#005EC6" d="M328.9 133.4c.4.1.6.4.7.7l.7.2.5-1.5L316 128l-.5 1.5-.7-.2c-.1-.3-.3-.6-.7-.8-.6-.2-1.2.1-1.4.7s.1 1.2.7 1.4c.4.1.7 0 1-.2l.7.2-.5 1.5 6.3 2.1-.2.7c-.3.1-.6.3-.8.7-.2.6.1 1.2.7 1.4.6.2 1.2-.1 1.4-.7.1-.4 0-.7-.2-1l.2-.7 7.2 2.4.5-1.5-.7-.2c-.3.2-.7.3-1 .2-.6-.2-.9-.8-.7-1.4.5-.6 1.1-.9 1.6-.7"/><path fill="#FF7361" d="M314.3 128.6c.4.1.6.4.7.7l.7.2.5-1.5-7.7-2.5.1-.6c.3-.1.6-.4.7-.8.1-.6-.2-1.1-.8-1.3-.6-.1-1.2.2-1.3.8-.1.4 0 .7.3 1l-.1.5-6-2-.5 1.5-.7-.2c-.1-.3-.3-.6-.7-.8-.6-.2-1.2.1-1.4.7-.2.6.1 1.2.7 1.4.4.1.7 0 1-.2l.7.2-.5 1.5 14.7 4.8.5-1.5-.7-.2c-.3.2-.7.3-1 .2-.6-.2-.9-.8-.7-1.4.3-.4.9-.7 1.5-.5"/><path fill="#005EC6" d="M314.2 82.4l.1-.7c.3-.2.5-.5.6-.9.1-.6-.4-1.1-1-1.2-.6-.1-1.1.4-1.2 1 0 .4.2.7.4.9l-.1.7-1.6-.1-2.7 16.5 1.8-1.7.1-.7c-.2-.2-.4-.6-.4-1 .1-.6.6-1 1.2-.9.6.1 1 .6.9 1.2-.1.4-.3.7-.6.8l-.1.7 1.4 1.4 2.6-16h-1.4z"/><path fill="#FFC640" d="M311.8 97.3l.1-.7c.3-.1.6-.4.6-.8.1-.6-.3-1.1-.9-1.2-.6-.1-1.1.3-1.2.9-.1.4.1.7.3 1l-.1.7-1.6-.2-2.4 15.3 1.5.3.1-.7c-.2-.2-.4-.6-.4-1 .1-.6.6-1 1.2-.9.6.1 1 .6.9 1.2-.1.4-.3.7-.6.8l-.1.7 1.5.2 2.4-15.3-1.3-.3z"/><path fill="#005EC6" d="M282.8 79.9l.1-.7c.3-.2.6-.5.6-.9.1-.6-.4-1.1-1-1.2-.6-.1-1.1.4-1.2 1 0 .4.2.7.4.9l-.1.7-1.6-.1c-.2 4-4.6 8.4-5.7 12.7l1.2.4.9.3 2 .7c1.2-5 5.5-10 5.9-13.7l-1.5-.1z"/><path fill="#FFC640" d="M277 93.2l.2-.7c.3-.1.6-.3.8-.7.2-.6-.1-1.2-.7-1.4-.6-.2-1.2.1-1.4.7-.1.4 0 .7.2 1l-.2.7-1.5-.5-4.8 14.7 1.5.5.2-.7c-.2-.3-.3-.7-.2-1 .2-.6.8-.9 1.4-.7.6.2.9.8.7 1.4-.1.4-.4.6-.7.7l-.2.7 1.5.5 4.9-14.8-1.7-.4zm-13.8 33.5l-.5 1.5-.7-.2c-.1-.3-.3-.7-.7-.8-.6-.2-1.2.1-1.4.6-.2.6.1 1.2.6 1.4.4.1.7 0 1-.1l.7.3-.5 1.5"/><path fill="#005EC6" d="M116.5 57.8l.2.7c-.2.3-.3.7-.2 1 .2.6.8.9 1.3.7.6-.2.9-.8.7-1.4-.1-.4-.4-.6-.7-.7l-.2-.7 1.5-.5-4.6-14.8-1.5.5.2.7c.3.1.6.4.7.7.2.6-.1 1.2-.7 1.4-.6.2-1.2-.1-1.4-.7-.1-.4 0-.7.2-1l-.2-.7-1.5.5 4.6 14.8 1.6-.5z"/><path fill="#FFC640" d="M143.8 26.3l.7-.2c.1-.3.4-.6.7-.7.6-.2 1.2.2 1.3.7.2.6-.2 1.2-.7 1.3-.4.1-.7 0-1-.2l-.7.2.4 1.5-14.9 4.3-.4-1.5.7-.2c.3.2.6.3 1 .2.6-.2.9-.8.7-1.3-.2-.6-.8-.9-1.3-.7-.4.1-.6.4-.7.7l-.7.2-.4-1.5 14.9-4.3.4 1.5z"/><path fill="#FFF" d="M253 98.7c0 .9-.7 1.4-1.4 1.4h-1v-2.8h1c.7 0 1.4.5 1.4 1.4m-2.4 6.8v-3h1.7c.8 0 1.6.7 1.6 1.5s-.7 1.5-1.5 1.5h-1.8zm4.3-5c.3-.5.4-1 .4-1.7 0-2-1.6-3.6-3.6-3.6h-3.4v12.4h4.1c2.1 0 3.7-1.7 3.7-3.7 0-1.2-.6-2.3-1.5-3 .2-.1.3-.2.3-.4"/><g fill="#FF7361"><path d="M22 120.4c1.4 0 2.5 1.1 2.5 2.5 0 .5-.2 1-.4 1.4.6.5 1 1.2 1 2 0 1.4-1.1 2.5-2.5 2.5h-2.8v-8.4H22zm-.1 3.4c.5 0 1-.4 1-1s-.5-.9-1-.9h-.7v1.9h.7zm.5 3.6c.6 0 1-.4 1-1s-.5-1-1-1h-1.2v2h1.2zm9.4-3.7v5.2h-1.3v-.5c-.5.4-1.1.6-1.8.6-1.5 0-2.7-1.2-2.7-2.7 0-1.5 1.2-2.7 2.7-2.7.7 0 1.3.2 1.8.6l.1-.5h1.2zm-1.5 2.5c0-.4-.1-.7-.4-1-.3-.3-.6-.4-.9-.4s-.7.1-1 .4c-.3.3-.4.6-.4 1s.1.7.4 1c.3.3.6.4 1 .4s.7-.1.9-.4c.2-.2.4-.6.4-1zm4.1-2c.4-.5 1.1-.7 1.8-.7.3 0 .6 0 .9.1l-.6 1.3c-.9-.4-1.8.1-1.9 1v2.9H33v-5.2h1.2l.2.6zm5 .1c.5-.5 1.2-.8 1.9-.8 1.5 0 2.7 1.2 2.7 2.7 0 1.5-1.2 2.7-2.7 2.7-.7 0-1.4-.3-1.9-.8v.6h-1.5v-8.9h1.5v4.5zm3.1 1.9c0-.4-.1-.7-.4-1-.3-.3-.6-.4-.9-.4-.4 0-.7.1-1 .4-.3.3-.4.6-.4 1s.1.7.4 1c.3.3.6.4 1 .4s.7-.1.9-.4c.3-.2.4-.6.4-1zm2.5-4.1v-1.7h1.5v1.7H45zm0 6.7v-5.2h1.5v5.2H45zm6.4-3.5c-.8-.9-2.5-.3-2.5 1 0 1.2 1.6 1.9 2.5 1l.7 1.2c-.5.3-1.1.5-1.7.5-1.6 0-2.9-1.2-2.9-2.7 0-1.5 1.3-2.7 2.9-2.7.6 0 1.2.2 1.7.6l-.7 1.1zm7-1.6v5.2h-1.3v-.5c-.5.4-1.1.6-1.8.6-1.5 0-2.7-1.2-2.7-2.7 0-1.5 1.2-2.7 2.7-2.7.7 0 1.3.2 1.8.6l.1-.5h1.2zm-1.5 2.5c0-.4-.1-.7-.4-1-.3-.3-.6-.4-.9-.4s-.7.1-1 .4c-.3.3-.4.6-.4 1s.1.7.4 1c.3.3.6.4 1 .4s.7-.1.9-.4c.2-.2.4-.6.4-1zm3.9-2.1c.4-.4.9-.6 1.5-.6 1.4 0 2.5 1.2 2.5 2.7v2.6h-1.5v-2.6c0-.7-.5-1.4-1.2-1.4s-1.2.7-1.2 1.4v2.6h-1.5v-5.2h1.2l.2.5z"/></g><g fill="#FF7361"><path d="M274 213.1V208l-2.4 2.2-2.4-2.2v5.1h-1.7v-8.4h.6l3.5 3.2 3.5-3.2h.6v8.4H274zm8.6-2.6c0 1.5-1.3 2.7-2.9 2.7-1.6 0-2.9-1.2-2.9-2.7 0-1.5 1.3-2.7 2.9-2.7 1.6 0 2.9 1.2 2.9 2.7zm-1.5 0c0-.4-.1-.7-.4-1-.3-.3-.6-.4-1-.4-.3 0-.7.1-.9.4-.3.3-.4.6-.4 1s.1.7.4 1c.2.3.6.4.9.4.4 0 .7-.1 1-.4.2-.2.4-.6.4-1zm7.9 0c0 1.5-1.3 2.7-2.9 2.7-1.6 0-2.9-1.2-2.9-2.7 0-1.5 1.3-2.7 2.9-2.7 1.6 0 2.9 1.2 2.9 2.7zm-1.5 0c0-.4-.1-.7-.4-1-.3-.3-.6-.4-1-.4-.3 0-.7.1-.9.4-.3.3-.4.6-.4 1s.1.7.4 1c.2.3.6.4.9.4.4 0 .7-.1 1-.4.3-.2.4-.6.4-1zm3.7-1.9c.4-.5 1.1-.7 1.8-.7.3 0 .6 0 .9.1l-.6 1.3c-.9-.4-1.8.1-1.9 1v2.9h-1.5V208h1.2l.1.6zm7.8.2c.4.4.6.9.6 1.5 0 1.3-1.1 2.3-2.6 2.3-.2 0-.4 0-.6-.1l-.3.6c.3 0 .6-.1.9-.1 1 0 1.7.2 2.2.5.5.3.8.9.8 1.5s-.3 1.1-.8 1.5c-.5.3-1.2.5-2.2.5-1 0-1.7-.2-2.2-.5-.5-.3-.8-.8-.8-1.5 0-.2 0-.5.1-.7.2-.8.8-1.7 1.2-2.3-.6-.4-.9-1.1-.9-1.8 0-1.3 1.1-2.3 2.5-2.3h.4l2.5-.5v1l-.8.4zm-.4 6.2c0-.4-.6-.6-1.5-.6s-1.5.2-1.5.6c0 .4.6.6 1.5.6 1.1 0 1.5-.2 1.5-.6zm-2.6-4.7c0 .6.5 1 1.1 1 .6 0 1.1-.5 1.1-1 0-.6-.5-1-1.1-1-.6 0-1.1.5-1.1 1zm10.5-2.3v5.2h-1.3v-.5c-.5.4-1.1.6-1.8.6-1.5 0-2.7-1.2-2.7-2.7 0-1.5 1.2-2.7 2.7-2.7.7 0 1.3.2 1.8.6l.1-.5h1.2zm-1.5 2.5c0-.4-.1-.7-.4-1-.3-.3-.6-.4-.9-.4s-.7.1-1 .4c-.3.3-.4.6-.4 1s.1.7.4 1c.3.3.6.4 1 .4s.7-.1.9-.4c.3-.2.4-.6.4-1zm6.3-2.5v1.4h-1.2v3.8h-1.5v-3.8h-1.1V208h1.1v-2h1.5v1.9h1.2zm5.4 4.3c-.5.6-1.2 1-2.1 1-1.5 0-2.7-1.2-2.7-2.7 0-1.5 1.2-2.7 2.7-2.7 1.5 0 2.7 1.2 2.7 2.7v.5h-3.9c.1.2.2.4.3.5.3.3.6.4.9.4.3 0 .6-.1.9-.4l1.2.7zm-.8-2.2l-.3-.6c-.2-.3-.6-.4-.9-.4-.3 0-.7.1-.9.4-.1.2-.3.4-.3.6h2.4z"/></g></svg>