<?xml version="1.0" encoding="utf-8"?>
<!-- Generator: Adobe Illustrator 18.1.1, SVG Export Plug-In . SVG Version: 6.00 Build 0)  -->
<svg version="1.1" id="Layer_1" xmlns="http://www.w3.org/2000/svg" xmlns:xlink="http://www.w3.org/1999/xlink" x="0px" y="0px"
	 viewBox="0 0 385.1 258" enable-background="new 0 0 385.1 258" xml:space="preserve">
<g>
	<path fill="#005EC6" d="M259.3,76.4l0.7,0.1c0.2,0.3,0.5,0.5,0.9,0.6c0.6,0,1.1-0.4,1.2-1c0-0.6-0.4-1.1-1-1.2
		c-0.4,0-0.7,0.2-0.9,0.4l-0.7-0.1l0.1-1.6l-15.4-1.3l-0.1,1.6l0.7,0.1c0.2-0.2,0.6-0.4,0.9-0.4c0.6,0,1,0.6,1,1.2
		c0,0.6-0.6,1-1.2,1c-0.4,0-0.7-0.3-0.9-0.6l-0.7-0.1l-0.1,1.6l15.5,1.3L259.3,76.4z"/>
	<path fill="#005EC6" d="M309.4,112.6l0.1-0.7c0.3-0.1,0.6-0.4,0.6-0.8c0.1-0.6-0.3-1.1-0.9-1.2c-0.6-0.1-1.1,0.3-1.2,0.9
		c-0.1,0.4,0.1,0.7,0.3,1l-0.1,0.7l-1.6-0.2c-0.4,4-0.6,8.6-0.5,13l1,0.2l1.1,0.3l2,0.5c-0.2-5.1,0-9.7,0.6-13.3L309.4,112.6z"/>
	<path fill="#005EC6" d="M244.2,106.5l0.2-0.7c0.3-0.1,0.6-0.4,0.7-0.7c0.2-0.6-0.2-1.2-0.8-1.3c-0.6-0.2-1.2,0.2-1.3,0.8
		c-0.1,0.4,0,0.7,0.2,1l-0.2,0.7l-1.5-0.4l-4,15l1.5,0.4l1.1,0.3l1.5,0.4l4-15L244.2,106.5z"/>
	<path fill="#FF7361" d="M252.4,77.3l0.1-0.7c0.3-0.2,0.6-0.5,0.6-0.8c0.1-0.6-0.4-1.1-0.9-1.2c-0.6-0.1-1.1,0.4-1.2,0.9
		c0,0.4,0.1,0.7,0.4,1l-0.1,0.7l-1.6-0.2l-4.6,15.7l2-1.5l0.2-0.7c-0.2-0.3-0.3-0.6-0.2-1c0.2-0.6,0.7-0.9,1.3-0.8
		c0.6,0.2,0.9,0.7,0.8,1.3c-0.1,0.4-0.4,0.6-0.7,0.7l-0.2,0.7l1.2,1.5l4.5-15.6L252.4,77.3z"/>
	<path fill="#FFDF93" d="M248.2,91.6l0.2-0.7c0.3-0.1,0.6-0.4,0.7-0.7c0.2-0.6-0.2-1.2-0.8-1.3c-0.6-0.2-1.2,0.2-1.3,0.8
		c-0.1,0.4,0,0.7,0.2,1l-0.2,0.7l-1.5-0.4l-4,15l1.5,0.4l0.2-0.7c-0.2-0.3-0.3-0.6-0.2-1c0.2-0.6,0.7-0.9,1.3-0.8
		c0.6,0.2,0.9,0.7,0.8,1.3c-0.1,0.4-0.4,0.6-0.7,0.7l-0.2,0.7l1.5,0.4l4-15L248.2,91.6z"/>
	<path fill="#005EC6" d="M238.7,56.5l0.1-0.7c0.3-0.2,0.5-0.5,0.6-0.9c0.1-0.6-0.4-1.1-1-1.2c-0.6-0.1-1.1,0.4-1.2,1
		c0,0.4,0.2,0.7,0.4,0.9l-0.1,0.7l-1.6-0.1l-1.4,15.4l1.6,0.2l0.1-0.7c-0.2-0.2-0.4-0.6-0.4-0.9c0.1-0.6,0.6-1,1.2-1
		c0.6,0.1,1,0.6,1,1.2c0,0.4-0.3,0.7-0.6,0.9l-0.1,0.7l1.6,0.2l1.4-15.5L238.7,56.5z"/>
	<path fill="#FF7361" d="M241.5,25.6l0.1-0.7c0.3-0.2,0.5-0.5,0.6-0.9c0.1-0.6-0.4-1.1-1-1.2c-0.6-0.1-1.1,0.4-1.2,1
		c0,0.4,0.2,0.7,0.4,0.9l-0.1,0.7l-1.6-0.1l-1.6,17.4l1.7-1.8l0.1-0.7c-0.2-0.2-0.4-0.6-0.4-0.9c0.1-0.6,0.6-1,1.2-1
		c0.6,0.1,1,0.6,1,1.2c0,0.4-0.3,0.7-0.6,0.9l-0.1,0.7l1.5,1.3l1.5-16.6L241.5,25.6z"/>
	<path fill="#FFC640" d="M240.1,41.1l0.1-0.7c0.3-0.2,0.5-0.5,0.6-0.9c0.1-0.6-0.4-1.1-1-1.2c-0.6-0.1-1.1,0.4-1.2,1
		c0,0.4,0.2,0.7,0.4,0.9l-0.1,0.7l-1.6-0.1l-1.4,15.4l1.6,0.2l0.1-0.7c-0.2-0.2-0.4-0.6-0.4-0.9c0.1-0.6,0.6-1,1.2-1
		c0.6,0.1,1,0.6,1,1.2c0,0.4-0.3,0.7-0.6,0.9l-0.1,0.7l1.6,0.2l1.4-15.5L240.1,41.1z"/>
	<path fill="#FFC640" d="M245.7,73.6c-0.4,0-0.7,0.2-0.9,0.4L244,74l0.1-1.6l-6.9-0.6l0-0.7c0.3-0.2,0.5-0.5,0.6-0.9
		c0-0.6-0.4-1.1-1-1.1c-0.6,0-1.1,0.4-1.2,1c0,0.4,0.2,0.7,0.4,0.9l0,0.7l-7.4-0.6l-0.1,1.6l0.7,0.1c0.2-0.2,0.1,1.4-0.1,1.2
		l-0.7-0.1l-0.1,1.6l15.5,1.3l0.1-1.6l0.7,0.1c0.2,0.3,0.5,0.5,0.9,0.6c0.6,0,1.1-0.4,1.2-1C246.7,74.2,246.3,73.7,245.7,73.6"/>
	<path fill="#FF7361" d="M325.3,223.2c0.2-0.3,0.2-0.7,0-1l0.4-0.6l1.3,0.7c2.4-4.4,3.7-7.8,4.4-12.3c0.1-0.5,0.1-1.1,0.2-1.6
		l-4.3-0.6c-0.1,4.1-1.9,8.6-3.9,12.5l1.4,0.8l-0.4,0.6c-0.3,0-0.7,0.2-0.9,0.5c-0.3,0.5-0.1,1.2,0.4,1.4
		C324.4,223.9,325.1,223.7,325.3,223.2"/>
	<path fill="#005EC6" d="M309.9,248.1l-0.4,0.6c-0.3,0-0.7,0.2-0.9,0.6c-0.3,0.5-0.1,1.2,0.4,1.5c0.5,0.3,1.2,0.1,1.5-0.4
		c0.2-0.3,0.1-0.7,0-1l0.4-0.6l1.4,0.7l7.4-13.6l-1.4-0.8l-0.3,0.6c0.1,0.3-1.4-0.5-1-0.6l0.3-0.6l-1.4-0.8l-7.4,13.6L309.9,248.1z"
		/>
	<path fill="#FFC640" d="M317.2,234.6l-0.4,0.6c-0.3,0-0.7,0.2-0.9,0.6c-0.3,0.5-0.1,1.2,0.4,1.5c0.5,0.3,1.2,0.1,1.5-0.4
		c0.2-0.3,0.1-0.7,0-1l0.4-0.6l1.4,0.7l7.4-13.6l-1.4-0.8l-0.3,0.6c0.1,0.3,0.2,0.7,0,1c-0.3,0.5-0.9,0.7-1.5,0.4s-0.7-0.9-0.4-1.5
		c0.2-0.3,0.5-0.5,0.9-0.6l0.4-0.6l-1.4-0.8l-7.4,13.6L317.2,234.6z"/>
	<path fill="#FFC640" d="M215,71.1c-0.4,0-0.7,0.1-0.9,0.4l-0.7-0.1l0.1-1.5c-5-0.4-8.6-0.2-13,1c-0.5,0.1-1,0.3-1.5,0.5l1.2,4.2
		c3.8-1.5,8.6-1.8,13-1.4l0.1-1.6l0.7,0.1c0.2,0.3,0.5,0.6,0.9,0.6c0.6,0,1.1-0.4,1.2-1C216,71.7,215.5,71.1,215,71.1"/>
	<path fill="#FF7361" d="M128.4,29l0.4,1.5l0,0l0.7-0.2c0.1-0.3,0.4-0.6,0.7-0.7c0.6-0.2,1.2,0.2,1.4,0.7c0.2,0.6-0.2,1.2-0.7,1.4
		c-0.4,0.1-0.8,0-1-0.2l-0.7,0.2l0,0l0.4,1.4c-2.2,0.7-3.5,3-2.9,5.2l-4.1,1.2C121.3,35.1,123.9,30.3,128.4,29"/>
	<path fill="#005EC6" d="M124.1,39.2l-0.2-0.7c-0.3-0.1-0.6-0.4-0.7-0.7c-0.2-0.6,0.1-1.2,0.7-1.3c0.6-0.2,1.2,0.2,1.4,0.7
		c0.1,0.4,0,0.7-0.2,1l0.2,0.7l1.5-0.4l4.4,14.8l-4.1,1.3l-4.4-14.9L124.1,39.2z"/>
	<path fill="#FF7361" d="M50.8,96.4c-2,0-3.5,1.6-3.5,3.5s1.6,3.5,3.5,3.5s3.5-1.6,3.5-3.5S52.8,96.4,50.8,96.4 M50.8,106.3
		c-3.5,0-6.4-2.9-6.4-6.4s2.9-6.4,6.4-6.4s6.4,2.9,6.4,6.4S54.3,106.3,50.8,106.3"/>
</g>
<rect x="42.8" y="98.6" fill="#005EC6" width="16.1" height="2.8"/>
<g>
	<path fill="#FF7361" d="M308.2,189.9c-2,0-3.5,1.6-3.5,3.5c0,2,1.6,3.5,3.5,3.5s3.5-1.6,3.5-3.5
		C311.7,191.5,310.2,189.9,308.2,189.9 M308.2,199.8c-3.5,0-6.4-2.9-6.4-6.4c0-3.5,2.9-6.4,6.4-6.4s6.4,2.9,6.4,6.4
		C314.6,196.9,311.7,199.8,308.2,199.8"/>
</g>
<rect x="300.2" y="192.1" fill="#005EC6" width="16.1" height="2.8"/>
<g>
	<path fill="#FFC640" d="M321.2,81.4l0.7,0.1c0.2,0.3,0.5,0.5,0.9,0.6c0.6,0,1.1-0.4,1.2-1c0-0.6-0.4-1.1-1-1.2
		c-0.4,0-0.7,0.2-0.9,0.4l-0.7-0.1l0.1-1.6L306,77.4l-0.1,1.6l0.7,0.1c0.2-0.2,0.6-0.4,0.9-0.4c0.6,0,1,0.6,1,1.2c0,0.6-0.6,1-1.2,1
		c-0.4,0-0.7-0.3-0.9-0.6l-0.7-0.1l-0.1,1.6l15.5,1.3L321.2,81.4z"/>
	<path fill="#005EC6" d="M367.6,85.2l0.7,0.1c0.2,0.3,0.5,0.5,0.9,0.6c0.6,0,1.1-0.4,1.2-1c0-0.6-0.4-1.1-1-1.2
		c-0.4,0-0.7,0.2-0.9,0.4l-0.7-0.1l0.1-1.6l-17.4-1.4l1.8,1.7l0.7,0.1c0.2-0.2,0.6-0.4,0.9-0.4c0.6,0,1,0.6,1,1.2c0,0.6-0.6,1-1.2,1
		c-0.4,0-0.7-0.3-0.9-0.6l-0.7-0.1l-1.3,1.5l16.6,1.4L367.6,85.2z"/>
	<path fill="#FF7361" d="M290.2,78.9L291,79c0.2,0.3,0.5,0.5,0.9,0.6c0.6,0,1.1-0.4,1.2-1c0-0.6-0.4-1.1-1-1.2
		c-0.4,0-0.7,0.2-0.9,0.4l-0.7-0.1l0.1-1.6l-17.4-1.4l1.8,1.7l0.7,0.1c0.2-0.2-0.8,1.1-0.8,1.1l-0.9,1.5l16.2,1.3L290.2,78.9z"/>
	<path fill="#FFC640" d="M274.7,77.6l0.7,0.1c0.2,0.3,0.5,0.5,0.9,0.6c0.6,0,1.1-0.4,1.2-1c0-0.6-0.4-1.1-1-1.2
		c-0.4,0-0.7,0.2-0.9,0.4l-0.7-0.1l0.1-1.6l-15.4-1.3l-0.1,1.6l0.7,0.1c0.2-0.2,0.6-0.4,0.9-0.4c0.6,0,1,0.6,1,1.2
		c0,0.6-0.6,1-1.2,1c-0.4,0-0.7-0.3-0.9-0.6l-0.7-0.1l-0.1,1.6l15.5,1.3L274.7,77.6z"/>
	<path fill="#FF7361" d="M305.7,80.2l0.7,0.1c0.2,0.3,0.5,0.5,0.9,0.6c0.6,0,1.1-0.4,1.2-1c0-0.6-0.4-1.1-1-1.2
		c-0.4,0-0.7,0.2-0.9,0.4l-0.7-0.1l0.1-1.6l-15.4-1.3l-0.1,1.6l0.7,0.1c0.2-0.2,0.6-0.4,0.9-0.4c0.6,0,1,0.6,1,1.2
		c0,0.6-0.6,1-1.2,1c-0.4,0-0.7-0.3-0.9-0.6l-0.7-0.1l-0.1,1.6l15.5,1.3L305.7,80.2z"/>
	<path fill="#005EC6" d="M336.6,82.7l0.7,0.1c0.2,0.3,0.5,0.5,0.9,0.6c0.6,0,1.1-0.4,1.2-1c0-0.6-0.4-1.1-1-1.2
		c-0.4,0-0.7,0.2-0.9,0.4l-0.7-0.1l0.1-1.6l-15.4-1.3l-0.1,1.6l0.7,0.1c0.2-0.2,0.6-0.5,0.9-0.4c0.6,0,1,0.6,1,1.2
		c0,0.6-0.6,1-1.2,1c-0.4,0-0.7-0.3-0.9-0.6l-0.7-0.1L321,83l15.5,1.3L336.6,82.7z"/>
	<path fill="#FFC640" d="M352.1,84l0.7,0.1c0.2,0.3,0.5,0.5,0.9,0.6c0.6,0,1.1-0.4,1.2-1c0-0.6-0.4-1.1-1-1.2
		c-0.4,0-0.7,0.2-0.9,0.4l-0.7-0.1l0.1-1.6L336.8,80l-0.1,1.6l0.7,0.1c0.2-0.2,0.6-0.4,0.9-0.4c0.6,0,1,0.6,1,1.2c0,0.6-0.6,1-1.2,1
		c-0.4,0-0.7-0.3-0.9-0.6l-0.7-0.1l-0.1,1.6l15.5,1.3L352.1,84z"/>
	<path fill="#005EC6" d="M228.6,73.9l0.7,0.1c0.2,0.3,0.5,0.5,0.9,0.6c0.6,0,1.1-0.4,1.2-1c0-0.6-0.4-1.1-1-1.2
		c-0.4,0-0.7,0.2-0.9,0.4l-0.7-0.1l0.1-1.6l-15.4-1.3l-0.1,1.6l0.7,0.1c0.2-0.2,0.6-0.4,0.9-0.4c0.6,0,1,0.6,1,1.2
		c0,0.6-0.6,1-1.2,1c-0.4,0-0.7-0.3-0.9-0.6l-0.7-0.1l-0.1,1.6l15.5,1.3L228.6,73.9z"/>
	<path fill="#005EC6" d="M199.7,74l0.7-0.2c0.3,0.2,0.6,0.3,1,0.2c0.6-0.2,0.9-0.8,0.7-1.3c-0.2-0.6-0.8-0.9-1.3-0.7
		c-0.4,0.1-0.6,0.4-0.7,0.7l-0.7,0.2l-0.5-1.5l-16.7,5l2.3,1l0.7-0.2c0.1-0.3,0.4-0.6,0.7-0.7c0.6-0.2,1.2,0.2,1.3,0.7
		c0.2,0.6-0.2,1.2-0.7,1.3c-0.4,0.1-0.7,0-1-0.2l-0.7,0.2l-0.7,1.8l16-4.8L199.7,74z"/>
	<path fill="#005EC6" d="M125.3,96.2L126,96c0.3,0.2,0.6,0.3,1,0.2c0.6-0.2,0.9-0.8,0.7-1.3c-0.2-0.6-0.8-0.9-1.3-0.7
		c-0.4,0.1-0.6,0.4-0.7,0.7L125,95l-0.5-1.5l-16.7,5l2.3,1l0.7-0.2c0.1-0.3-0.4,1.3-0.4,1.3l-0.3,1.7l15.6-4.6L125.3,96.2z"/>
	<path fill="#FF7361" d="M80.8,109.4l0.7-0.2c0.3,0.2,0.6,0.3,1,0.2c0.6-0.2,0.9-0.8,0.7-1.3c-0.2-0.6-0.8-0.9-1.3-0.7
		c-0.4,0.1-0.6,0.4-0.7,0.7l-0.7,0.2l-0.5-1.5l-14.8,4.4l0.4,1.5l0.7-0.2c0.1-0.3,0.6,1.3,0.3,1.1l-0.7,0.2l0.4,1.5l14.9-4.4
		L80.8,109.4z"/>
	<path fill="#005EC6" d="M95.6,105l0.7-0.2c0.3,0.2,0.6,0.3,1,0.2c0.6-0.2,0.9-0.8,0.7-1.3c-0.2-0.6-0.8-0.9-1.3-0.7
		c-0.4,0.1-0.6,0.4-0.7,0.7l-0.7,0.2l-0.5-1.5l-14.8,4.4l0.4,1.5l0.7-0.2c0.1-0.3,0.4-0.6,0.7-0.7c0.6-0.2,1.2,0.2,1.3,0.7
		c0.2,0.6-0.2,1.2-0.7,1.3c-0.4,0.1-0.7,0-1-0.2l-0.7,0.2l0.4,1.5l14.9-4.4L95.6,105z"/>
	<path fill="#FF7361" d="M110.4,100.6l0.7-0.2c0.3,0.2,0.6,0.3,1,0.2c0.6-0.2,0.9-0.8,0.7-1.3c-0.2-0.6-0.8-0.9-1.3-0.7
		c-0.4,0.1-0.6,0.4-0.7,0.7l-0.7,0.2l-0.5-1.5l-14.8,4.4l0.4,1.5l0.7-0.2c0.1-0.3,0.4-0.6,0.7-0.7c0.6-0.2,1.2,0.2,1.3,0.7
		c0.2,0.6-0.2,1.2-0.7,1.3c-0.4,0.1-0.7,0-1-0.2l-0.7,0.2l0.4,1.5l14.9-4.4L110.4,100.6z"/>
	<path fill="#FF7361" d="M155.1,87.3l0.7-0.2c0.3,0.2,0.6,0.3,1,0.2c0.6-0.2,0.9-0.8,0.7-1.3c-0.2-0.6-0.8-0.9-1.3-0.7
		c-0.4,0.1-0.6,0.4-0.7,0.7l-0.7,0.2l-0.5-1.5l-14.8,4.4l0.4,1.5l0.7-0.2c0.1-0.3,0.4-0.6,0.7-0.7c0.6-0.2,1.2,0.2,1.3,0.7
		c0.2,0.6-0.2,1.2-0.7,1.3c-0.4,0.1-0.7,0-1-0.2l-0.7,0.2l0.4,1.5l14.9-4.4L155.1,87.3z"/>
	<path fill="#005EC6" d="M169.9,82.9l0.7-0.2c0.3,0.2,0.6,0.3,1,0.2c0.6-0.2,0.9-0.8,0.7-1.3c-0.2-0.6-0.8-0.9-1.3-0.7
		c-0.4,0.1-0.6,0.4-0.7,0.7l-0.7,0.2l-0.5-1.5l-14.8,4.4l0.4,1.5l0.7-0.2c0.1-0.3,0.4-0.6,0.7-0.7c0.6-0.2,1.2,0.2,1.3,0.7
		c0.2,0.6-0.2,1.2-0.7,1.3c-0.4,0.1-0.7,0-1-0.2l-0.7,0.2l0.4,1.5l14.9-4.4L169.9,82.9z"/>
	<path fill="#FFC640" d="M184.8,78.5l0.7-0.2c0.3,0.2,0.6,0.3,1,0.2c0.6-0.2,0.9-0.8,0.7-1.3c-0.2-0.6-0.8-0.9-1.3-0.7
		c-0.4,0.1-0.6,0.4-0.7,0.7l-0.7,0.2l-0.5-1.5l-14.8,4.4l0.4,1.5l0.7-0.2c0.1-0.3,0.4-0.6,0.7-0.7c0.6-0.2,1.2,0.2,1.3,0.7
		c0.2,0.6-0.2,1.2-0.7,1.3c-0.4,0.1-0.7,0-1-0.2l-0.7,0.2l0.4,1.5l14.9-4.4L184.8,78.5z"/>
	<path fill="#005EC6" d="M66.1,113.8l0.7-0.2c0.3,0.2,0.6,0.3,1,0.2c0.6-0.2,0.9-0.8,0.7-1.3c-0.2-0.6-0.8-0.9-1.3-0.7
		c-0.4,0.1-0.6,0.4-0.7,0.7l-0.7,0.2l-0.5-1.5l-14.8,4.4l0.4,1.5l0.7-0.2c0.1-0.3,0.4-0.6,0.7-0.7c0.6-0.2,1.2,0.2,1.3,0.7
		c0.2,0.6-0.2,1.2-0.7,1.3c-0.4,0.1-0.7,0-1-0.2l-0.7,0.2l0.4,1.5l14.9-4.4L66.1,113.8z"/>
	<path fill="#005EC6" d="M51.2,30l-0.2-0.7c0.2-0.3,0.3-0.6,0.2-1c-0.2-0.6-0.8-0.9-1.3-0.7c-0.6,0.2-0.9,0.8-0.8,1.3
		c0.1,0.4,0.4,0.6,0.7,0.7l0.2,0.7l-1.5,0.4l4.7,16.8l1-2.3l-0.2-0.7c-0.3-0.1-0.6-0.4-0.7-0.7c-0.2-0.6,0.2-1.2,0.7-1.3
		c0.6-0.2,1.2,0.2,1.3,0.7c0.1,0.4,0,0.7-0.2,1l0.2,0.7l1.8,0.7l-4.5-16.1L51.2,30z"/>
	<path fill="#FF7361" d="M72.3,104.7l-0.2-0.7c0.2-0.3,0.3-0.6,0.2-1c-0.2-0.6-0.8-0.9-1.3-0.7c-0.6,0.2-0.9,0.8-0.8,1.3
		c0.1,0.4,0.4,0.6,0.7,0.7l0.2,0.7l-1.5,0.4l4.7,16.8l1-2.3l-0.2-0.7c-0.3-0.1,1.3,0.4,1.3,0.4l1.7,0.3l-4.4-15.7L72.3,104.7z"/>
	<path fill="#FFC640" d="M85,149.4l-0.2-0.7c0.2-0.3,0.3-0.6,0.2-1c-0.2-0.6-0.8-0.9-1.3-0.7c-0.6,0.2-0.9,0.8-0.8,1.3
		c0.1,0.4,0.4,0.6,0.7,0.7l0.2,0.7l-1.5,0.4l4.2,14.9l1.5-0.4l-0.2-0.7c-0.3-0.1,1.3-0.6,1.1-0.3l0.2,0.7l1.5-0.4L86.5,149L85,149.4
		z"/>
	<path fill="#005EC6" d="M80.8,134.5l-0.2-0.7c0.2-0.3,0.3-0.6,0.2-1c-0.2-0.6-0.8-0.9-1.3-0.7c-0.6,0.2-0.9,0.8-0.8,1.3
		c0.1,0.4,0.4,0.6,0.7,0.7l0.2,0.7l-1.5,0.4l4.2,14.9l1.5-0.4l-0.2-0.7c-0.3-0.1-0.6-0.4-0.7-0.7c-0.2-0.6,0.2-1.2,0.7-1.3
		c0.6-0.2,1.2,0.2,1.3,0.7c0.1,0.4,0,0.7-0.2,1l0.2,0.7l1.5-0.4l-4.2-14.9L80.8,134.5z"/>
	<path fill="#FFC640" d="M76.6,119.6l-0.2-0.7c0.2-0.3,0.3-0.6,0.2-1c-0.2-0.6-0.8-0.9-1.3-0.7c-0.6,0.2-0.9,0.8-0.8,1.3
		c0.1,0.4,0.4,0.6,0.7,0.7l0.2,0.7l-1.5,0.4l4.2,14.9l1.5-0.4l-0.2-0.7c-0.3-0.1-0.6-0.4-0.7-0.7c-0.2-0.6,0.2-1.2,0.7-1.3
		c0.6-0.2,1.2,0.2,1.3,0.7c0.1,0.4,0,0.7-0.2,1l0.2,0.7l1.5-0.4l-4.2-14.9L76.6,119.6z"/>
	<path fill="#005EC6" d="M68.1,89.7L67.9,89c0.2-0.3,0.3-0.6,0.2-1c-0.2-0.6-0.8-0.9-1.3-0.7c-0.6,0.2-0.9,0.8-0.8,1.3
		c0.1,0.4,0.4,0.6,0.7,0.7L67,90l-1.5,0.4l4.2,14.9l1.5-0.4l-0.2-0.7c-0.3-0.1-0.6-0.4-0.7-0.7c-0.2-0.6,0.2-1.2,0.7-1.3
		c0.6-0.2,1.2,0.2,1.3,0.7c0.1,0.4,0,0.7-0.2,1l0.2,0.7l1.5-0.4l-4.2-14.9L68.1,89.7z"/>
	<path fill="#FFC640" d="M63.9,74.7L63.7,74c0.2-0.3,0.3-0.6,0.2-1c-0.2-0.6-0.8-0.9-1.3-0.7c-0.6,0.2-0.9,0.8-0.8,1.3
		c0.1,0.4,0.4,0.6,0.7,0.7l0.2,0.7l-1.5,0.4l4.2,14.9L67,90l-0.2-0.7c-0.3-0.1-0.6-0.4-0.7-0.7c-0.2-0.6,0.2-1.2,0.7-1.3
		c0.6-0.2,1.2,0.2,1.3,0.7c0.1,0.4,0,0.7-0.2,1l0.2,0.7l1.5-0.4l-4.2-14.9L63.9,74.7z"/>
	<path fill="#FF7361" d="M59.7,59.9l-0.2-0.7c0.2-0.3,0.3-0.6,0.2-1c-0.2-0.6-0.8-0.9-1.3-0.7c-0.6,0.2-0.9,0.8-0.8,1.3
		c0.1,0.4,0.4,0.6,0.7,0.7l0.2,0.7L57,60.6l4.2,14.9l1.5-0.4l-0.2-0.7c-0.3-0.1-0.6-0.4-0.7-0.7c-0.2-0.6,0.2-1.2,0.7-1.3
		c0.6-0.2,1.2,0.2,1.3,0.7c0.1,0.4,0,0.7-0.2,1l0.2,0.7l1.5-0.4l-4.2-14.9L59.7,59.9z"/>
	<path fill="#FFC640" d="M55.5,45l-0.2-0.7c0.2-0.3,0.3-0.6,0.2-1c-0.2-0.6-0.8-0.9-1.3-0.7c-0.6,0.2-0.9,0.8-0.8,1.3
		c0.1,0.4,0.4,0.6,0.7,0.7l0.2,0.7l-1.5,0.4l4.2,14.9l1.5-0.4l-0.2-0.7c-0.3-0.1-0.6-0.4-0.7-0.7c-0.2-0.6,0.2-1.2,0.7-1.3
		c0.6-0.2,1.2,0.2,1.3,0.7c0.1,0.4,0,0.7-0.2,1l0.2,0.7l1.5-0.4L57,44.6L55.5,45z"/>
	<path fill="#FF7361" d="M89.2,164.2l-0.2-0.7c0.2-0.3,0.3-0.6,0.2-1c-0.2-0.6-0.8-0.9-1.3-0.7c-0.6,0.2-0.9,0.8-0.8,1.3
		c0.1,0.4,0.4,0.6,0.7,0.7l0.2,0.7l-1.5,0.4l4.2,14.9l1.5-0.4l-0.2-0.7c-0.3-0.1-0.6-0.4-0.7-0.7c-0.2-0.6,0.2-1.2,0.7-1.3
		c0.6-0.2,1.2,0.2,1.3,0.7c0.1,0.4,0,0.7-0.2,1l0.2,0.7l1.5-0.4l-4.2-14.9L89.2,164.2z"/>
	<path fill="#005EC6" d="M92.8,69.3l-0.7,0.2c-0.3-0.2-0.6-0.3-1-0.2c-0.6,0.2-0.9,0.8-0.7,1.3c0.2,0.6,0.8,0.9,1.3,0.7
		c0.4-0.1,0.6-0.4,0.7-0.7l0.7-0.2l0.5,1.5l14.8-4.5l-0.4-1.5l-0.7,0.2c-0.1,0.3-0.4,0.6-0.7,0.7c-0.6,0.2-1.2-0.1-1.3-0.7
		c-0.2-0.6,0.1-1.2,0.7-1.3c0.4-0.1,0.7,0,1,0.2l0.7-0.2l-0.4-1.5l-14.9,4.5L92.8,69.3z"/>
	<path fill="#FF7361" d="M107.1,63.4l0.4,1.5l-0.7,0.2c-0.3-0.2-0.6-0.3-1-0.2c-0.6,0.2-0.9,0.8-0.7,1.4c0.2,0.6,0.8,0.9,1.3,0.7
		c0.4-0.1,0.6-0.4,0.7-0.8l0.7-0.2l0.5,1.5c7.5-2.3,15.6,1.9,17.9,9.4c0,0,4.1-1.3,4.1-1.3C127.4,65.8,117.1,60.3,107.1,63.4"/>
	<path fill="#005EC6" d="M128.9,76.1l-0.2-0.7c0.2-0.3,0.3-0.6,0.2-1c-0.2-0.6-0.8-0.9-1.3-0.7c-0.6,0.2-0.9,0.8-0.7,1.3
		c0.1,0.4,0.4,0.6,0.7,0.7l0.2,0.7l-1.5,0.5l4.5,14.8l1.5-0.4l-0.2-0.7c-0.3-0.1-0.6-0.4-0.7-0.7c-0.2-0.6,0.1-1.2,0.7-1.3
		c0.6-0.2,1.2,0.1,1.3,0.7c0.1,0.4,0,0.7-0.2,1l0.2,0.7l1.5-0.4l-4.5-14.9L128.9,76.1z"/>
	<path fill="#FFC640" d="M131.2,53.2l-1.5,0.5l0,0l-0.2-0.7c0.2-0.3,0.3-0.7,0.2-1c-0.2-0.6-0.8-0.9-1.4-0.7
		c-0.6,0.2-0.9,0.8-0.7,1.4c0.1,0.4,0.4,0.6,0.7,0.7l0.2,0.7l0,0l-1.4,0.4c0.7,2.2-0.6,4.6-2.8,5.2c-2.2,0.7-4.6-0.6-5.2-2.8
		l-4.1,1.2c1.3,4.5,6.1,7,10.6,5.7C130,62.5,132.5,57.7,131.2,53.2"/>
	<path fill="#005EC6" d="M144.4,18.4l-0.2-0.7c0.2-0.3,0.3-0.6,0.2-1c-0.2-0.6-0.8-0.9-1.3-0.7c-0.6,0.2-0.9,0.8-0.8,1.3
		c0.1,0.4,0.4,0.6,0.7,0.7l0.2,0.7l-1.5,0.4l4.7,16.8l1-2.3l-0.2-0.7c-0.3-0.1-0.6-0.4-0.7-0.7c-0.2-0.6,0.2-1.2,0.7-1.3
		c0.6-0.2,1.2,0.2,1.3,0.7c0.1,0.4,0,0.7-0.2,1l0.2,0.7l1.8,0.7L145.9,18L144.4,18.4z"/>
	<path fill="#005EC6" d="M161.3,78.1l-0.2-0.7c0.2-0.3,0.3-0.6,0.2-1c-0.2-0.6-0.8-0.9-1.3-0.7c-0.6,0.2-0.9,0.8-0.8,1.3
		c0.1,0.4,0.4,0.6,0.7,0.7l0.2,0.7l-1.5,0.4l2.4,8.3l4.1-1.2l-2.3-8.3L161.3,78.1z"/>
	<path fill="#FFC640" d="M157,63.1l-0.2-0.7c0.2-0.3,0.3-0.6,0.2-1c-0.2-0.6-0.8-0.9-1.3-0.7c-0.6,0.2-0.9,0.8-0.8,1.3
		c0.1,0.4,0.4,0.6,0.7,0.7l0.2,0.7l-1.5,0.4l4.2,14.9l1.5-0.4l-0.2-0.7c-0.3-0.1-0.6-0.4-0.7-0.7c-0.2-0.6,0.2-1.2,0.7-1.3
		c0.6-0.2,1.2,0.2,1.3,0.7c0.1,0.4,0,0.7-0.2,1l0.2,0.7l1.5-0.4l-4.2-14.9L157,63.1z"/>
	<path fill="#005EC6" d="M152.8,48.3l-0.2-0.7c0.2-0.3,0.3-0.6,0.2-1c-0.2-0.6-0.8-0.9-1.3-0.7c-0.6,0.2-0.9,0.8-0.8,1.3
		c0.1,0.4,0.4,0.6,0.7,0.7l0.2,0.7l-1.5,0.4l4.2,14.9l1.5-0.4l-0.2-0.7c-0.3-0.1-0.6-0.4-0.7-0.7c-0.2-0.6,0.2-1.2,0.7-1.3
		c0.6-0.2,1.2,0.2,1.3,0.7c0.1,0.4,0,0.7-0.2,1l0.2,0.7l1.5-0.4l-4.2-14.9L152.8,48.3z"/>
	<path fill="#FF7361" d="M148.6,33.4l-0.2-0.7c0.2-0.3,0.3-0.6,0.2-1c-0.2-0.6-0.8-0.9-1.3-0.7c-0.6,0.2-0.9,0.8-0.8,1.3
		c0.1,0.4,0.4,0.6,0.7,0.7l0.2,0.7l-1.5,0.4l4.2,14.9l1.5-0.4l-0.2-0.7c-0.3-0.1-0.6-0.4-0.7-0.7c-0.2-0.6,0.2-1.2,0.7-1.3
		c0.6-0.2,1.2,0.2,1.3,0.7c0.1,0.4,0,0.7-0.2,1l0.2,0.7l1.5-0.4L150.1,33L148.6,33.4z"/>
	<path fill="#005EC6" d="M200.6,19.4l-0.1-0.7c0.2-0.2,0.4-0.6,0.4-1c-0.1-0.6-0.6-1-1.2-0.9c-0.6,0.1-1,0.6-1,1.2
		c0,0.4,0.3,0.7,0.6,0.8l0.1,0.7l-1.6,0.2l2.1,17.3l1.3-2.1l-0.1-0.7c-0.3-0.2-0.6-0.5-0.6-0.8c-0.1-0.6,0.3-1.1,0.9-1.2
		c0.6-0.1,1.1,0.4,1.2,0.9c0,0.4-0.1,0.7-0.4,1l0.1,0.7l1.7,1l-2-16.6L200.6,19.4z"/>
	<path fill="#FFC640" d="M206.2,65.5l-0.1-0.7c0.2-0.2,0.4-0.6,0.4-1c-0.1-0.6-0.6-1-1.2-0.9c-0.6,0.1-1,0.6-1,1.2
		c0,0.4,0.3,0.7,0.6,0.8l0.1,0.7l-1.6,0.2l1.9,15.4l1.6-0.2L208,81l1.6-0.2l-1.9-15.4L206.2,65.5z"/>
	<path fill="#FF7361" d="M204.3,50.2l-0.1-0.7c0.2-0.2,0.4-0.6,0.4-1c-0.1-0.6-0.6-1-1.2-0.9c-0.6,0.1-1,0.6-1,1.2
		c0,0.4,0.3,0.7,0.6,0.8l0.1,0.7l-1.6,0.2l1.9,15.4l1.6-0.2l-0.1-0.7c-0.3-0.2-0.6-0.5-0.6-0.8c-0.1-0.6,0.3-1.1,0.9-1.2
		c0.6-0.1,1.1,0.4,1.2,0.9c0,0.4-0.1,0.7-0.4,1l0.1,0.7l1.6-0.2L205.9,50L204.3,50.2z"/>
	<path fill="#FFC640" d="M202.5,34.9l-0.1-0.7c0.2-0.2,0.4-0.6,0.4-1c-0.1-0.6-0.6-1-1.2-0.9c-0.6,0.1-1,0.6-1,1.2
		c0,0.4,0.3,0.7,0.6,0.8l0.1,0.7l-1.6,0.2l1.9,15.4l1.6-0.2l-0.1-0.7c-0.3-0.2-0.6-0.5-0.6-0.8c-0.1-0.6,0.3-1.1,0.9-1.2
		c0.6-0.1,1.1,0.4,1.2,0.9c0,0.4-0.1,0.7-0.4,1l0.1,0.7l1.6-0.2L204,34.7L202.5,34.9z"/>
	<path fill="#FF7361" d="M208.4,79.1c0,0.4-0.1,0.7-0.4,0.9l0.1,0.7l1.5-0.1c0.4,5.1,0.2,8.7-1,13.2c-0.1,0.5-0.3,1.1-0.5,1.6
		l-4.3-1.3c1.5-3.9,1.8-8.8,1.5-13.2l1.6-0.1l-0.1-0.7c-0.3-0.2-0.6-0.5-0.6-0.9c0-0.6,0.4-1.1,1-1.2
		C207.8,78.1,208.3,78.5,208.4,79.1"/>
	<path fill="#005EC6" d="M203.8,94.2l1.5,0.4l0.2-0.7c-0.2-0.3-0.3-0.6-0.2-1c0.2-0.6,0.8-0.9,1.4-0.8c0.6,0.2,0.9,0.8,0.7,1.4
		c-0.1,0.4-0.4,0.6-0.8,0.7l-0.2,0.7l1.6,0.4c-2.2,7.8,2.3,16.1,10.1,18.3c0,0-1.2,4.3-1.2,4.3C206.7,115.1,200.8,104.6,203.8,94.2"
		/>
	<path fill="#FF7361" d="M217.6,115.3l-0.7-0.2c-0.1-0.3-0.4-0.6-0.7-0.7c-0.6-0.2-1.2,0.2-1.3,0.7s0.2,1.2,0.7,1.3
		c0.4,0.1,0.7,0,1-0.2l0.7,0.2l-0.4,1.5l16.8,4.7l-1.4-2l-0.7-0.2c-0.3,0.2-0.6,0.3-1,0.2c-0.6-0.2-0.9-0.8-0.7-1.3
		c0.2-0.6,0.8-0.9,1.3-0.7c0.4,0.1,0.6,0.4,0.7,0.7l0.7,0.2l1.5-1.2l-16.1-4.5L217.6,115.3z"/>
	<path fill="#005EC6" d="M247.5,123.8l-0.7-0.2c-0.1-0.3-0.4-0.6-0.7-0.7c-0.6-0.2-1.2,0.2-1.3,0.7c-0.2,0.6,0.2,1.2,0.7,1.3
		c0.4,0.1,0.7,0,1-0.2l0.7,0.2l-0.4,1.5l15.2,4.4l0.5-1.6l-1-0.3c-0.3,0.2,1.3-0.7,1.3-0.7l0.5-1.7l-15.3-4.3L247.5,123.8z"/>
	<path fill="#FFC640" d="M232.6,119.6l-0.7-0.2c-0.1-0.3-0.4-0.6-0.7-0.7c-0.6-0.2-1.2,0.2-1.3,0.7c-0.2,0.6,0.2,1.2,0.7,1.3
		c0.4,0.1,0.7,0,1-0.2l0.7,0.2l-0.4,1.5l14.9,4.2l0.4-1.5l-0.7-0.2c-0.3,0.2-0.6,0.3-1,0.2c-0.6-0.2-0.9-0.8-0.7-1.3
		c0.2-0.6,0.8-0.9,1.3-0.7c0.4,0.1,0.6,0.4,0.7,0.7l0.7,0.2l0.4-1.5l-14.9-4.2L232.6,119.6z"/>
	<path fill="#FFC640" d="M267.3,122.6l0.2-0.7c0.3-0.1,0.6-0.3,0.8-0.7c0.2-0.6-0.1-1.2-0.7-1.4c-0.6-0.2-1.2,0.1-1.4,0.7
		c-0.1,0.4,0,0.7,0.2,1l-0.2,0.7l-1.5-0.5l-4.8,14.7l1.5,0.5l1.1,0.4l1.5,0.5l4.9-14.8L267.3,122.6z"/>
	<path fill="#005EC6" d="M272.2,107.9l0.2-0.7c0.3-0.1,0.6-0.3,0.8-0.7c0.2-0.6-0.1-1.2-0.7-1.4c-0.6-0.2-1.2,0.1-1.4,0.7
		c-0.1,0.4,0,0.7,0.2,1l-0.2,0.7l-1.5-0.5l-4.8,14.7l1.5,0.5l0.2-0.7c-0.2-0.3-0.3-0.7-0.2-1c0.2-0.6,0.8-0.9,1.4-0.7
		c0.6,0.2,0.9,0.8,0.7,1.4c-0.1,0.4-0.4,0.6-0.7,0.7l-0.2,0.7l1.5,0.5l4.9-14.8L272.2,107.9z"/>
	<path fill="#FF7361" d="M262.5,137.2l0.2-0.7c0.3-0.1,0.6-0.3,0.8-0.7c0.2-0.6-0.1-1.2-0.7-1.4c-0.6-0.2-1.2,0.1-1.4,0.7
		c-0.1,0.4,0,0.7,0.2,1l-0.2,0.7l-1.5-0.5l-5.5,16.6l2.1-1.4l0.2-0.7c-0.2-0.3-0.3-0.7-0.2-1c0.2-0.6,0.8-0.9,1.4-0.7
		c0.6,0.2,0.9,0.8,0.7,1.4c-0.1,0.4-0.4,0.6-0.7,0.7l-0.2,0.7l1.1,1.6l5.2-15.8L262.5,137.2z"/>
	<path fill="#FFC640" d="M248,181.3l0.2-0.7c0.3-0.1,0.6-0.3,0.8-0.7c0.2-0.6-0.1-1.2-0.7-1.4c-0.6-0.2-1.2,0.1-1.4,0.7
		c-0.1,0.4,0,0.7,0.2,1l-0.2,0.7l-1.5-0.5l-4.8,14.7l1.5,0.5l0.2-0.7c-0.2-0.3-0.3-0.7-0.2-1c0.2-0.6,0.8-0.9,1.4-0.7
		c0.6,0.2,0.9,0.8,0.7,1.4c-0.1,0.4-0.4,0.6-0.7,0.7l-0.2,0.7l1.5,0.5l4.9-14.8L248,181.3z"/>
	<path fill="#005EC6" d="M252.8,166.6l0.2-0.7c0.3-0.1,0.6-0.3,0.8-0.7c0.2-0.6-0.1-1.2-0.7-1.4c-0.6-0.2-1.2,0.1-1.4,0.7
		c-0.1,0.4,0,0.7,0.2,1l-0.2,0.7l-1.5-0.5l-4.8,14.7l1.5,0.5l0.2-0.7c-0.2-0.3-0.3-0.7-0.2-1c0.2-0.6,0.8-0.9,1.4-0.7
		c0.6,0.2,0.9,0.8,0.7,1.4c-0.1,0.4-0.4,0.6-0.7,0.7l-0.2,0.7l1.5,0.5l4.9-14.8L252.8,166.6z"/>
	<path fill="#FFC640" d="M257.7,151.9l0.2-0.7c0.3-0.1,0.6-0.3,0.8-0.7c0.2-0.6-0.1-1.2-0.7-1.4c-0.6-0.2-1.2,0.1-1.4,0.7
		c-0.1,0.4,0,0.7,0.2,1l-0.2,0.7l-1.5-0.5l-4.8,14.7l1.5,0.5l0.2-0.7c-0.2-0.3-0.3-0.7-0.2-1c0.2-0.6,0.8-0.9,1.4-0.7
		c0.6,0.2,0.9,0.8,0.7,1.4c-0.1,0.4-0.4,0.6-0.7,0.7l-0.2,0.7l1.5,0.5l4.9-14.8L257.7,151.9z"/>
	<path fill="#FF7361" d="M271.4,115l-0.7-0.2c-0.1-0.3-0.3-0.6-0.7-0.8c-0.6-0.2-1.2,0.1-1.4,0.7c-0.2,0.6,0.1,1.2,0.7,1.4
		c0.4,0.1,0.7,0,1-0.2l0.7,0.2l-0.5,1.5l16.6,5.4l-1.4-2.1l-0.7-0.2c-0.3,0.2-0.7,0.3-1,0.2c-0.6-0.2-0.9-0.8-0.7-1.4
		c0.2-0.6,0.8-0.9,1.4-0.7c0.4,0.1,0.6,0.4,0.7,0.7l0.7,0.2l1.6-1.1l-15.9-5.2L271.4,115z"/>
	<path fill="#FF7361" d="M345.2,139.2l-0.7-0.2c-0.1-0.3-0.3-0.6-0.7-0.8c-0.6-0.2-1.2,0.1-1.4,0.7c-0.2,0.6,0.1,1.2,0.7,1.4
		c0.4,0.1,0.7,0,1-0.2l0.7,0.2l-0.5,1.5l16.6,5.4l-1.4-2.1l-0.7-0.2c-0.3,0.2,1.1-0.9,1.1-0.9l1.2-1.2l-15.5-5.1L345.2,139.2z"/>
	<path fill="#FFC640" d="M359.9,144l-0.7-0.2c-0.1-0.3-0.3-0.6-0.7-0.8c-0.6-0.2-1.2,0.1-1.4,0.7c-0.2,0.6,0.1,1.2,0.7,1.4
		c0.4,0.1,0.7,0,1-0.2l0.7,0.2l-0.5,1.5l14.7,4.8l0.5-1.5l-0.7-0.2c-0.3,0.2-0.7,0.3-1,0.2c-0.6-0.2-0.9-0.8-0.7-1.4
		c0.2-0.6,0.8-0.9,1.4-0.7c0.4,0.1,0.6,0.4,0.7,0.7l0.7,0.2l0.5-1.5l-14.8-4.8L359.9,144z"/>
	<path fill="#FFC640" d="M330.4,134.3l-0.7-0.2c-0.1-0.3-0.3-0.6-0.7-0.8c-0.6-0.2-1.2,0.1-1.4,0.7c-0.2,0.6,0.1,1.2,0.7,1.4
		c0.4,0.1,0.7,0,1-0.2l0.7,0.2l-0.5,1.5l14.7,4.8l0.5-1.5l-0.7-0.2c-0.3,0.2-0.7,0.3-1,0.2c-0.6-0.2-0.9-0.8-0.7-1.4
		c0.2-0.6,0.8-0.9,1.4-0.7c0.4,0.1,0.6,0.4,0.7,0.7l0.7,0.2l0.5-1.5l-14.8-4.8L330.4,134.3z"/>
	<path fill="#FFC640" d="M286.2,119.9l-0.7-0.2c-0.1-0.3-0.3-0.6-0.7-0.8c-0.6-0.2-1.2,0.1-1.4,0.7c-0.2,0.6,0.1,1.2,0.7,1.4
		c0.4,0.1,0.7,0,1-0.2l0.7,0.2l-0.5,1.5l14.7,4.8l0.5-1.5l-0.7-0.2c-0.3,0.2-0.7,0.3-1,0.2c-0.6-0.2-0.9-0.8-0.7-1.4
		c0.2-0.6,0.8-0.9,1.4-0.7c0.4,0.1,0.6,0.4,0.7,0.7l0.7,0.2l0.5-1.5l-14.8-4.8L286.2,119.9z"/>
	<path fill="#FF7361" d="M334.3,161.7l-0.1,0.7c-0.3,0.2-0.6,0.5-0.6,0.8c-0.1,0.6,0.3,1.1,0.9,1.2c0.6,0.1,1.1-0.4,1.2-0.9
		c0-0.4-0.1-0.7-0.4-1l0.1-0.7l1.6,0.2l2.1-17.3l-1.8,1.7l-0.1,0.7c0.2,0.2-1.1-0.9-1.1-0.9l-1.5-1l-1.9,16.2L334.3,161.7z"/>
	<path fill="#FFC640" d="M339.8,115.6l-0.1,0.7c-0.3,0.2-0.6,0.5-0.6,0.8c-0.1,0.6,0.3,1.1,0.9,1.2c0.6,0.1,1.1-0.4,1.2-0.9
		c0-0.4-0.1-0.7-0.4-1l0.1-0.7l1.6,0.2l1.8-15.4l-1.6-0.2l-0.1,0.7c0.2,0.2-1.5,0-1.2-0.1l0.1-0.7l-1.6-0.2l-1.8,15.4L339.8,115.6z"
		/>
	<path fill="#005EC6" d="M338,130.9l-0.1,0.7c-0.3,0.2-0.6,0.5-0.6,0.8c-0.1,0.6,0.3,1.1,0.9,1.2c0.6,0.1,1.1-0.4,1.2-0.9
		c0-0.4-0.1-0.7-0.4-1l0.1-0.7l1.6,0.2l1.8-15.4l-1.6-0.2l-0.1,0.7c0.2,0.2,0.4,0.6,0.4,1c-0.1,0.6-0.6,1-1.2,0.9
		c-0.6-0.1-1-0.6-0.9-1.2c0-0.4,0.3-0.7,0.6-0.8l0.1-0.7l-1.6-0.2l-1.8,15.4L338,130.9z"/>
	<path fill="#FFC640" d="M336.1,146.3l-0.1,0.7c-0.3,0.2-0.6,0.5-0.6,0.8c-0.1,0.6,0.3,1.1,0.9,1.2c0.6,0.1,1.1-0.4,1.2-0.9
		c0-0.4-0.1-0.7-0.4-1l0.1-0.7l1.6,0.2l1.8-15.4l-1.6-0.2l-0.1,0.7c0.2,0.2,0.4,0.6,0.4,1c-0.1,0.6-0.6,1-1.2,0.9
		c-0.6-0.1-1-0.6-0.9-1.2c0-0.4,0.3-0.7,0.6-0.8l0.1-0.7l-1.6-0.2l-1.8,15.4L336.1,146.3z"/>
	<path fill="#005EC6" d="M332.5,177.2l-0.1,0.7c-0.3,0.2-0.6,0.5-0.6,0.8c-0.1,0.6,0.3,1.1,0.9,1.2c0.6,0.1,1.1-0.4,1.2-0.9
		c0-0.4-0.1-0.7-0.4-1l0.1-0.7l1.6,0.2l1.8-15.4l-1.6-0.2l-0.1,0.7c0.2,0.2,0.4,0.6,0.4,1c-0.1,0.6-0.6,1-1.2,0.9
		c-0.6-0.1-1-0.6-0.9-1.2c0-0.4,0.3-0.7,0.6-0.8l0.1-0.7l-1.6-0.2l-1.8,15.4L332.5,177.2z"/>
	<path fill="#FF7361" d="M330.6,192.6l-0.1,0.7c-0.3,0.2-0.6,0.5-0.6,0.8c-0.1,0.6,0.3,1.1,0.9,1.2c0.6,0.1,1.1-0.4,1.2-0.9
		c0-0.4-0.1-0.7-0.4-1l0.1-0.7l1.6,0.2l1.8-15.4l-1.6-0.2l-0.1,0.7c0.2,0.2,0.4,0.6,0.4,1c-0.1,0.6-0.6,1-1.2,0.9
		c-0.6-0.1-1-0.6-0.9-1.2c0-0.4,0.3-0.7,0.6-0.8l0.1-0.7l-1.6-0.2l-1.8,15.4L330.6,192.6z"/>
	<path fill="#005EC6" d="M328.8,207.9l-0.1,0.7c-0.3,0.2-0.6,0.5-0.6,0.8c-0.1,0.6,0.3,1.1,0.9,1.2c0.6,0.1,1.1-0.4,1.2-0.9
		c0-0.4-0.1-0.7-0.4-1l0.1-0.7l1.6,0.2l1.8-15.4l-1.6-0.2l-0.1,0.7c0.2,0.2,0.4,0.6,0.4,1c-0.1,0.6-0.6,1-1.2,0.9
		c-0.6-0.1-1-0.6-0.9-1.2c0-0.4,0.3-0.7,0.6-0.8l0.1-0.7l-1.6-0.2l-1.8,15.4L328.8,207.9z"/>
	<path fill="#005EC6" d="M341.6,100.3l-0.1,0.7c-0.3,0.2-0.6,0.5-0.6,0.8c-0.1,0.6,0.3,1.1,0.9,1.2c0.6,0.1,1.1-0.4,1.2-0.9
		c0-0.4-0.1-0.7-0.4-1l0.1-0.7l1.6,0.2l1.8-15.4l-1.6-0.2l-0.1,0.7c0.2,0.2,0.4,0.6,0.4,1c-0.1,0.6-0.6,1-1.2,0.9
		c-0.6-0.1-1-0.6-0.9-1.2c0-0.4,0.3-0.7,0.6-0.8l0.1-0.7l-1.6-0.2l-1.8,15.4L341.6,100.3z"/>
	<path fill="#FF7361" d="M349.1,56.2c0.1-0.4-0.1-0.7-0.3-1l0.1-0.7l1.5,0.2c0.7-5,0.7-8.6-0.3-13.1c-0.1-0.5-0.3-1.1-0.4-1.6
		l-4.3,1c1.3,3.9,1.3,8.7,0.7,13l1.6,0.2l-0.1,0.7c-0.3,0.1-0.6,0.4-0.6,0.8c-0.1,0.6,0.3,1.1,0.9,1.2
		C348.5,57.2,349,56.8,349.1,56.2"/>
	<path fill="#FFC640" d="M343.4,84.9l-0.1,0.7c-0.3,0.2-0.6,0.5-0.6,0.8c-0.1,0.6,0.3,1.1,0.9,1.2c0.6,0.1,1.1-0.3,1.2-0.9
		c0.1-0.4-0.1-0.7-0.4-1l0.1-0.7l1.6,0.2l2.1-15.3l-1.6-0.2l-0.1,0.7c0.2,0.2-1.5,0-1.2-0.2l0.1-0.7l-1.6-0.2l-2.1,15.4L343.4,84.9z
		"/>
	<path fill="#005EC6" d="M345.5,69.7l-0.1,0.7c-0.3,0.2-0.6,0.5-0.6,0.8c-0.1,0.6,0.3,1.1,0.9,1.2c0.6,0.1,1.1-0.3,1.2-0.9
		c0.1-0.4-0.1-0.7-0.4-1l0.1-0.7l1.6,0.2l2.1-15.3l-1.6-0.2l-0.1,0.7c0.2,0.2,0.4,0.6,0.4,1c-0.1,0.6-0.6,1-1.2,0.9
		c-0.6-0.1-1-0.6-0.9-1.2c0.1-0.4,0.3-0.7,0.6-0.8l0.1-0.7l-1.6-0.2L344,69.5L345.5,69.7z"/>
	<path fill="#005EC6" d="M347,40.8l0.2,0.7c-0.2,0.2-0.4,0.6-0.3,1c0.1,0.6,0.7,0.9,1.3,0.8c0.6-0.1,0.9-0.7,0.8-1.3
		c-0.1-0.4-0.4-0.6-0.7-0.8l-0.2-0.7l1.5-0.4l-4-17l-1.1,2.2l0.2,0.7c0.3,0.1,0.6,0.4,0.7,0.8c0.1,0.6-0.2,1.2-0.8,1.3
		c-0.6,0.1-1.2-0.2-1.3-0.8c-0.1-0.4,0.1-0.7,0.3-1l-0.2-0.7l-1.8-0.8l3.8,16.2L347,40.8z"/>
	<path fill="#FFC640" d="M343.5,25.7l0.2,0.7c-0.2,0.2-0.4,0.6-0.3,1c0.1,0.6,0.7,0.9,1.3,0.8c0.6-0.1,0.9-0.7,0.8-1.3
		c-0.1-0.4-0.4-0.6-0.7-0.8l-0.2-0.7l1.5-0.4l-3.6-15.1l-1.5,0.4l0.2,0.7c0.3,0.1,0.6,0.4,0.7,0.8c0.1,0.6-0.2,1.2-0.8,1.3
		c-0.6,0.1-1.2-0.2-1.3-0.8c-0.1-0.4,0.1-0.7,0.3-1l-0.2-0.7l-1.5,0.4l3.6,15.1L343.5,25.7z"/>
	<path fill="#FF7361" d="M317.2,149.3l-0.2,0.7c0.2,0.3,0.3,0.7,0.2,1c-0.2,0.6-0.8,0.9-1.4,0.7c-0.6-0.2-0.9-0.8-0.7-1.4
		c0.1-0.4,0.4-0.6,0.7-0.7l0.2-0.7l-1.5-0.5l5-14.6l1.5,0.5l-0.2,0.7c-0.3,0.1-0.6,0.3-0.8,0.7c-0.2,0.6,0.1,1.2,0.7,1.4
		c0.6,0.2,1.2-0.1,1.4-0.7c0.1-0.4,0-0.7-0.2-1l0.2-0.7l1.5,0.5l-5.1,14.7L317.2,149.3z"/>
	<path fill="#005EC6" d="M307.1,178.6l-0.2,0.7c0.2,0.3,0.3,0.7,0.2,1c-0.2,0.6-0.8,0.9-1.4,0.7c-0.6-0.2-0.9-0.8-0.7-1.4
		c0.1-0.4,0.4-0.6,0.7-0.7l0.2-0.7l-1.5-0.5l5.7-16.5l0.9,2.3l-0.2,0.7c-0.3,0.1-0.6,0.3-0.8,0.7c-0.2,0.6,0.1,1.2,0.7,1.4
		c0.6,0.2,1.2-0.1,1.4-0.7c0.1-0.4,0-0.7-0.2-1l0.2-0.7l1.9-0.6l-5.4,15.8L307.1,178.6z"/>
	<path fill="#FFC640" d="M312.1,163.9l-0.2,0.7c0.2,0.3,0.3,0.7,0.2,1c-0.2,0.6-0.8,0.9-1.4,0.7c-0.6-0.2-0.9-0.8-0.7-1.4
		c0.1-0.4,0.4-0.6,0.7-0.7l0.2-0.7l-1.5-0.5l5-14.6l1.5,0.5l-0.2,0.7c-0.3,0.1-0.6,0.3-0.8,0.7c-0.2,0.6,0.1,1.2,0.7,1.4
		c0.6,0.2,1.2-0.1,1.4-0.7c0.1-0.4,0-0.7-0.2-1l0.2-0.7l1.5,0.5l-5.1,14.7L312.1,163.9z"/>
	<path fill="#005EC6" d="M262.4,99.5c0,6-10.9,18.8-10.9,18.8s-10.9-12.8-10.9-18.8c0-6,4.9-10.9,10.9-10.9
		C257.5,88.6,262.4,93.5,262.4,99.5"/>
	<path fill="#FFC640" d="M142.7,90.4c-0.2-0.6-0.8-0.9-1.3-0.7c-0.4,0.1-0.6,0.4-0.7,0.7l-0.7,0.2l-0.5-1.5l-6.1,1.8l-0.2-0.6
		c0.2-0.3,0.3-0.6,0.3-1c-0.2-0.6-0.7-0.9-1.3-0.8c-0.6,0.2-0.9,0.8-0.8,1.3c0.1,0.4,0.4,0.6,0.7,0.7l0.2,0.7l-7.6,2.3L125,95
		l0.7-0.2c0.1-0.3,0.4-0.6,0.7-0.7c0.6-0.2,1.2,0.2,1.3,0.7c0.2,0.6-0.2,1.2-0.7,1.3c-0.4,0.1-0.7,0-1-0.2l-0.7,0.2l0.4,1.5
		l14.9-4.4l-0.5-1.5l0.7-0.2c0.3,0.2,0.6,0.3,1,0.2C142.5,91.6,142.8,91,142.7,90.4"/>
	<path fill="#FFC640" d="M242.1,120.6l-1.5-0.4l0.2-0.7c0.3-0.1,0.6-0.4,0.7-0.7c0.2-0.6-0.2-1.2-0.8-1.3c-0.6-0.2-1.2,0.2-1.3,0.8
		c-0.1,0.4,0,0.7,0.2,1l-0.2,0.7l-1.5-0.4"/>
	<path fill="#005EC6" d="M328.9,133.4c0.4,0.1,0.6,0.4,0.7,0.7l0.7,0.2l0.5-1.5l-14.8-4.8l-0.5,1.5l-0.7-0.2
		c-0.1-0.3-0.3-0.6-0.7-0.8c-0.6-0.2-1.2,0.1-1.4,0.7s0.1,1.2,0.7,1.4c0.4,0.1,0.7,0,1-0.2l0.7,0.2l-0.5,1.5l6.3,2.1l0,0l-0.2,0.7
		c-0.3,0.1-0.6,0.3-0.8,0.7c-0.2,0.6,0.1,1.2,0.7,1.4c0.6,0.2,1.2-0.1,1.4-0.7c0.1-0.4,0-0.7-0.2-1l0.2-0.7l0,0l7.2,2.4l0.5-1.5
		l-0.7-0.2c-0.3,0.2-0.7,0.3-1,0.2c-0.6-0.2-0.9-0.8-0.7-1.4C327.8,133.5,328.4,133.2,328.9,133.4"/>
	<path fill="#FF7361" d="M314.3,128.6c0.4,0.1,0.6,0.4,0.7,0.7l0.7,0.2l0.5-1.5l-7.7-2.5l0.1-0.6c0.3-0.1,0.6-0.4,0.7-0.8
		c0.1-0.6-0.2-1.1-0.8-1.3c-0.6-0.1-1.2,0.2-1.3,0.8c-0.1,0.4,0,0.7,0.3,1l-0.1,0.5l-6-2l-0.5,1.5l-0.7-0.2
		c-0.1-0.3-0.3-0.6-0.7-0.8c-0.6-0.2-1.2,0.1-1.4,0.7c-0.2,0.6,0.1,1.2,0.7,1.4c0.4,0.1,0.7,0,1-0.2l0.7,0.2l-0.5,1.5l14.7,4.8
		l0.5-1.5l-0.7-0.2c-0.3,0.2-0.7,0.3-1,0.2c-0.6-0.2-0.9-0.8-0.7-1.4C313.1,128.7,313.7,128.4,314.3,128.6"/>
	<path fill="#005EC6" d="M314.2,82.4l0.1-0.7c0.3-0.2,0.5-0.5,0.6-0.9c0.1-0.6-0.4-1.1-1-1.2c-0.6-0.1-1.1,0.4-1.2,1
		c0,0.4,0.2,0.7,0.4,0.9l-0.1,0.7l-1.6-0.1l-2.7,16.5l1.8-1.7l0.1-0.7c-0.2-0.2-0.4-0.6-0.4-1c0.1-0.6,0.6-1,1.2-0.9
		c0.6,0.1,1,0.6,0.9,1.2c-0.1,0.4-0.3,0.7-0.6,0.8l-0.1,0.7l1.4,1.4l2.6-16L314.2,82.4z"/>
	<path fill="#FFC640" d="M311.8,97.3l0.1-0.7c0.3-0.1,0.6-0.4,0.6-0.8c0.1-0.6-0.3-1.1-0.9-1.2c-0.6-0.1-1.1,0.3-1.2,0.9
		c-0.1,0.4,0.1,0.7,0.3,1l-0.1,0.7l-1.6-0.2l-2.4,15.3l1.5,0.3l0.1-0.7c-0.2-0.2-0.4-0.6-0.4-1c0.1-0.6,0.6-1,1.2-0.9
		c0.6,0.1,1,0.6,0.9,1.2c-0.1,0.4-0.3,0.7-0.6,0.8l-0.1,0.7l1.5,0.2l2.4-15.3L311.8,97.3z"/>
	<path fill="#005EC6" d="M282.8,79.9l0.1-0.7c0.3-0.2,0.6-0.5,0.6-0.9c0.1-0.6-0.4-1.1-1-1.2c-0.6-0.1-1.1,0.4-1.2,1
		c0,0.4,0.2,0.7,0.4,0.9l-0.1,0.7l-1.6-0.1c-0.2,4-4.6,8.4-5.7,12.7l1.2,0.4l0.9,0.3l2,0.7c1.2-5,5.5-10,5.9-13.7L282.8,79.9z"/>
	<path fill="#FFC640" d="M277,93.2l0.2-0.7c0.3-0.1,0.6-0.3,0.8-0.7c0.2-0.6-0.1-1.2-0.7-1.4c-0.6-0.2-1.2,0.1-1.4,0.7
		c-0.1,0.4,0,0.7,0.2,1l-0.2,0.7l-1.5-0.5l-4.8,14.7l1.5,0.5l0.2-0.7c-0.2-0.3-0.3-0.7-0.2-1c0.2-0.6,0.8-0.9,1.4-0.7
		c0.6,0.2,0.9,0.8,0.7,1.4c-0.1,0.4-0.4,0.6-0.7,0.7l-0.2,0.7l1.5,0.5l4.9-14.8L277,93.2z"/>
	<path fill="#FFC640" d="M263.2,126.7l-0.5,1.5L262,128c-0.1-0.3-0.3-0.7-0.7-0.8c-0.6-0.2-1.2,0.1-1.4,0.6
		c-0.2,0.6,0.1,1.2,0.6,1.4c0.4,0.1,0.7,0,1-0.1l0.7,0.3l-0.5,1.5"/>
	<path fill="#005EC6" d="M116.5,57.8l0.2,0.7c-0.2,0.3-0.3,0.7-0.2,1c0.2,0.6,0.8,0.9,1.3,0.7c0.6-0.2,0.9-0.8,0.7-1.4
		c-0.1-0.4-0.4-0.6-0.7-0.7l-0.2-0.7l1.5-0.5l-4.6-14.8l-1.5,0.5l0.2,0.7c0.3,0.1,0.6,0.4,0.7,0.7c0.2,0.6-0.1,1.2-0.7,1.4
		c-0.6,0.2-1.2-0.1-1.4-0.7c-0.1-0.4,0-0.7,0.2-1l-0.2-0.7l-1.5,0.5l4.6,14.8L116.5,57.8z"/>
	<path fill="#FFC640" d="M143.8,26.3l0.7-0.2c0.1-0.3,0.4-0.6,0.7-0.7c0.6-0.2,1.2,0.2,1.3,0.7c0.2,0.6-0.2,1.2-0.7,1.3
		c-0.4,0.1-0.7,0-1-0.2l-0.7,0.2l0.4,1.5l-14.9,4.3l-0.4-1.5l0.7-0.2c0.3,0.2,0.6,0.3,1,0.2c0.6-0.2,0.9-0.8,0.7-1.3
		c-0.2-0.6-0.8-0.9-1.3-0.7c-0.4,0.1-0.6,0.4-0.7,0.7l-0.7,0.2l-0.4-1.5l14.9-4.3L143.8,26.3z"/>
	<path fill="#FFFFFF" d="M253,98.7c0,0.9-0.7,1.4-1.4,1.4h-1v-2.8h1C252.3,97.3,253,97.8,253,98.7 M250.6,105.5v-3h0.8
		c0.1,0,0.3,0,0.4,0h0.5c0.8,0,1.6,0.7,1.6,1.5c0,0.8-0.7,1.5-1.5,1.5H250.6z M254.9,100.5c0.3-0.5,0.4-1,0.4-1.7
		c0-2-1.6-3.6-3.6-3.6h-1.1h-2.3v12.4h1.5h0.8h1.8c2.1,0,3.7-1.7,3.7-3.7c0-1.2-0.6-2.3-1.5-3C254.8,100.8,254.9,100.7,254.9,100.5
		C254.9,100.5,254.9,100.5,254.9,100.5"/>
</g>
<g>
	<path fill="#FF7361" d="M22,120.4c1.4,0,2.5,1.1,2.5,2.5c0,0.5-0.2,1-0.4,1.4c0.6,0.5,1,1.2,1,2c0,1.4-1.1,2.5-2.5,2.5h-2.8v-8.4
		H22z M21.9,123.8c0.5,0,1-0.4,1-1c0-0.6-0.5-0.9-1-0.9h-0.7v1.9H21.9z M22.4,127.4c0.6,0,1-0.4,1-1c0-0.6-0.5-1-1-1h-1.2v2H22.4z"
		/>
	<path fill="#FF7361" d="M31.8,123.7v5.2h-1.3v-0.5c-0.5,0.4-1.1,0.6-1.8,0.6c-1.5,0-2.7-1.2-2.7-2.7c0-1.5,1.2-2.7,2.7-2.7
		c0.7,0,1.3,0.2,1.8,0.6l0.1-0.5H31.8z M30.3,126.2c0-0.4-0.1-0.7-0.4-1c-0.3-0.3-0.6-0.4-0.9-0.4s-0.7,0.1-1,0.4
		c-0.3,0.3-0.4,0.6-0.4,1c0,0.4,0.1,0.7,0.4,1c0.3,0.3,0.6,0.4,1,0.4s0.7-0.1,0.9-0.4C30.1,127,30.3,126.6,30.3,126.2z"/>
	<path fill="#FF7361" d="M34.4,124.2c0.4-0.5,1.1-0.7,1.8-0.7c0.3,0,0.6,0,0.9,0.1l-0.6,1.3c-0.9-0.4-1.8,0.1-1.9,1v2.9H33v-5.2h1.2
		L34.4,124.2z"/>
	<path fill="#FF7361" d="M39.4,124.3c0.5-0.5,1.2-0.8,1.9-0.8c1.5,0,2.7,1.2,2.7,2.7c0,1.5-1.2,2.7-2.7,2.7c-0.7,0-1.4-0.3-1.9-0.8
		v0.6h-1.5v-8.9h1.5V124.3z M42.5,126.2c0-0.4-0.1-0.7-0.4-1c-0.3-0.3-0.6-0.4-0.9-0.4c-0.4,0-0.7,0.1-1,0.4c-0.3,0.3-0.4,0.6-0.4,1
		c0,0.4,0.1,0.7,0.4,1c0.3,0.3,0.6,0.4,1,0.4c0.4,0,0.7-0.1,0.9-0.4C42.4,127,42.5,126.6,42.5,126.2z"/>
	<path fill="#FF7361" d="M45,122.1v-1.7h1.5v1.7H45z M45,128.8v-5.2h1.5v5.2H45z"/>
	<path fill="#FF7361" d="M51.4,125.3c-0.8-0.9-2.5-0.3-2.5,1c0,1.2,1.6,1.9,2.5,1l0.7,1.2c-0.5,0.3-1.1,0.5-1.7,0.5
		c-1.6,0-2.9-1.2-2.9-2.7c0-1.5,1.3-2.7,2.9-2.7c0.6,0,1.2,0.2,1.7,0.6L51.4,125.3z"/>
	<path fill="#FF7361" d="M58.4,123.7v5.2h-1.3v-0.5c-0.5,0.4-1.1,0.6-1.8,0.6c-1.5,0-2.7-1.2-2.7-2.7c0-1.5,1.2-2.7,2.7-2.7
		c0.7,0,1.3,0.2,1.8,0.6l0.1-0.5H58.4z M56.9,126.2c0-0.4-0.1-0.7-0.4-1c-0.3-0.3-0.6-0.4-0.9-0.4s-0.7,0.1-1,0.4
		c-0.3,0.3-0.4,0.6-0.4,1c0,0.4,0.1,0.7,0.4,1c0.3,0.3,0.6,0.4,1,0.4s0.7-0.1,0.9-0.4C56.7,127,56.9,126.6,56.9,126.2z"/>
	<path fill="#FF7361" d="M60.8,124.1c0.4-0.4,0.9-0.6,1.5-0.6c1.4,0,2.5,1.2,2.5,2.7v2.6h-1.5v-2.6c0-0.7-0.5-1.4-1.2-1.4
		s-1.2,0.7-1.2,1.4v2.6h-1.5v-5.2h1.2L60.8,124.1z"/>
</g>
<g>
	<path fill="#FF7361" d="M274,213.1V208l-2.4,2.2l-2.4-2.2v5.1h-1.7v-8.4h0.6l3.5,3.2l3.5-3.2h0.6v8.4H274z"/>
	<path fill="#FF7361" d="M282.6,210.5c0,1.5-1.3,2.7-2.9,2.7c-1.6,0-2.9-1.2-2.9-2.7c0-1.5,1.3-2.7,2.9-2.7
		C281.3,207.8,282.6,209,282.6,210.5z M281.1,210.5c0-0.4-0.1-0.7-0.4-1c-0.3-0.3-0.6-0.4-1-0.4c-0.3,0-0.7,0.1-0.9,0.4
		c-0.3,0.3-0.4,0.6-0.4,1c0,0.4,0.1,0.7,0.4,1c0.2,0.3,0.6,0.4,0.9,0.4c0.4,0,0.7-0.1,1-0.4C280.9,211.3,281.1,210.9,281.1,210.5z"
		/>
	<path fill="#FF7361" d="M289,210.5c0,1.5-1.3,2.7-2.9,2.7c-1.6,0-2.9-1.2-2.9-2.7c0-1.5,1.3-2.7,2.9-2.7
		C287.7,207.8,289,209,289,210.5z M287.5,210.5c0-0.4-0.1-0.7-0.4-1c-0.3-0.3-0.6-0.4-1-0.4c-0.3,0-0.7,0.1-0.9,0.4
		c-0.3,0.3-0.4,0.6-0.4,1c0,0.4,0.1,0.7,0.4,1c0.2,0.3,0.6,0.4,0.9,0.4c0.4,0,0.7-0.1,1-0.4C287.4,211.3,287.5,210.9,287.5,210.5z"
		/>
	<path fill="#FF7361" d="M291.2,208.6c0.4-0.5,1.1-0.7,1.8-0.7c0.3,0,0.6,0,0.9,0.1l-0.6,1.3c-0.9-0.4-1.8,0.1-1.9,1v2.9h-1.5V208
		h1.2L291.2,208.6z"/>
	<path fill="#FF7361" d="M299,208.8c0.4,0.4,0.6,0.9,0.6,1.5c0,1.3-1.1,2.3-2.6,2.3c-0.2,0-0.4,0-0.6-0.1c-0.1,0.2-0.2,0.4-0.3,0.6
		c0.3,0,0.6-0.1,0.9-0.1c1,0,1.7,0.2,2.2,0.5c0.5,0.3,0.8,0.9,0.8,1.5c0,0.6-0.3,1.1-0.8,1.5c-0.5,0.3-1.2,0.5-2.2,0.5
		c-1,0-1.7-0.2-2.2-0.5c-0.5-0.3-0.8-0.8-0.8-1.5c0-0.2,0-0.5,0.1-0.7c0.2-0.8,0.8-1.7,1.2-2.3c-0.6-0.4-0.9-1.1-0.9-1.8
		c0-1.3,1.1-2.3,2.5-2.3c0.1,0,0.2,0,0.4,0l2.5-0.5v1L299,208.8z M298.6,215c0-0.4-0.6-0.6-1.5-0.6c-0.9,0-1.5,0.2-1.5,0.6
		c0,0.4,0.6,0.6,1.5,0.6C298.2,215.6,298.6,215.4,298.6,215z M296,210.3c0,0.6,0.5,1,1.1,1c0.6,0,1.1-0.5,1.1-1c0-0.6-0.5-1-1.1-1
		C296.5,209.3,296,209.8,296,210.3z"/>
	<path fill="#FF7361" d="M306.5,208v5.2h-1.3v-0.5c-0.5,0.4-1.1,0.6-1.8,0.6c-1.5,0-2.7-1.2-2.7-2.7c0-1.5,1.2-2.7,2.7-2.7
		c0.7,0,1.3,0.2,1.8,0.6l0.1-0.5H306.5z M305,210.5c0-0.4-0.1-0.7-0.4-1c-0.3-0.3-0.6-0.4-0.9-0.4s-0.7,0.1-1,0.4
		c-0.3,0.3-0.4,0.6-0.4,1s0.1,0.7,0.4,1c0.3,0.3,0.6,0.4,1,0.4s0.7-0.1,0.9-0.4C304.9,211.3,305,210.9,305,210.5z"/>
	<path fill="#FF7361" d="M311.3,208v1.4h-1.2v3.8h-1.5v-3.8h-1.1V208h1.1V206h1.5v1.9H311.3z"/>
	<path fill="#FF7361" d="M316.7,212.3c-0.5,0.6-1.2,1-2.1,1c-1.5,0-2.7-1.2-2.7-2.7c0-1.5,1.2-2.7,2.7-2.7c1.5,0,2.7,1.2,2.7,2.7
		c0,0.2,0,0.3,0,0.5h-3.9c0.1,0.2,0.2,0.4,0.3,0.5c0.3,0.3,0.6,0.4,0.9,0.4c0.3,0,0.6-0.1,0.9-0.4L316.7,212.3z M315.9,210.1
		c-0.1-0.2-0.2-0.4-0.3-0.6c-0.2-0.3-0.6-0.4-0.9-0.4c-0.3,0-0.7,0.1-0.9,0.4c-0.1,0.2-0.3,0.4-0.3,0.6H315.9z"/>
</g>
</svg>
