<?xml version="1.0" encoding="utf-8"?>
<!-- Generator: Adobe Illustrator 18.1.1, SVG Export Plug-In . SVG Version: 6.00 Build 0)  -->
<svg version="1.1" id="Layer_1" xmlns="http://www.w3.org/2000/svg" xmlns:xlink="http://www.w3.org/1999/xlink" x="0px" y="0px"
	 viewBox="0 0 650 218.7" enable-background="new 0 0 650 218.7" xml:space="preserve">
<g>
	<path fill="#005EC7" d="M60.9,149.1c2-0.8,3.6-2.6,4.8-5.5c1-2.6,2.4-4.2,4.2-4.8c1.7-0.7,3.8-0.4,6.3,0.8l0.5-1
		c-5.6-2.7-9.7-1.1-12,4.6c-1,2.6-2.4,4.2-4.2,4.8c-1.7,0.7-3.8,0.4-6.3-0.8l-0.5,1C56.4,149.6,58.9,149.9,60.9,149.1"/>
	<path fill="#005EC7" d="M38.4,157.8c2-0.8,3.6-2.6,4.8-5.5c1-2.6,2.4-4.2,4.2-4.8c1.7-0.7,3.8-0.4,6.3,0.8l0.5-1
		c-5.6-2.7-9.7-1.1-12,4.6c-1,2.6-2.4,4.2-4.2,4.9c-1.7,0.7-3.8,0.4-6.3-0.8l-0.5,1C33.9,158.3,36.4,158.6,38.4,157.8"/>
	<path fill="#005EC7" d="M57.8,144.1c2-0.8,3.6-2.6,4.8-5.5c1-2.6,2.4-4.2,4.2-4.9c1.7-0.7,3.8-0.4,6.3,0.8l0.5-1
		c-5.6-2.7-9.7-1.1-12,4.6c-1,2.6-2.4,4.2-4.2,4.9c-1.7,0.7-3.8,0.4-6.3-0.8l-0.5,1C53.4,144.6,55.8,144.9,57.8,144.1"/>
	<path fill="#005EC7" d="M35.3,152.8c2-0.8,3.6-2.6,4.8-5.5c1-2.6,2.4-4.2,4.2-4.9c1.7-0.7,3.8-0.4,6.3,0.8l0.5-1
		c-5.6-2.7-9.7-1.1-12,4.6c-1,2.6-2.4,4.2-4.2,4.9c-1.7,0.7-3.8,0.4-6.3-0.8l-0.5,1C30.9,153.3,33.3,153.6,35.3,152.8"/>
	<path fill="#005EC7" d="M201.1,96.9c-0.6-2.1-2.3-3.8-5.1-5.2c-2.5-1.2-4-2.8-4.5-4.5c-0.5-1.8-0.1-3.9,1.3-6.2l-1-0.6
		c-3.1,5.3-1.9,9.6,3.6,12.4c2.5,1.2,4,2.8,4.5,4.5c0.5,1.8,0.1,3.9-1.3,6.2l1,0.6C201.2,101.4,201.7,99,201.1,96.9"/>
	<path fill="#005EC7" d="M207.8,120.1c-0.6-2.1-2.3-3.8-5.1-5.2c-2.5-1.2-4-2.8-4.5-4.5c-0.5-1.8-0.1-3.9,1.3-6.2l-1-0.6
		c-3.1,5.3-1.9,9.6,3.6,12.4c2.5,1.2,4,2.8,4.5,4.5c0.5,1.8,0.1,3.9-1.3,6.2l1,0.6C208,124.6,208.5,122.2,207.8,120.1"/>
	<path fill="#005EC7" d="M195.8,99.5c-0.6-2.1-2.3-3.8-5.1-5.2c-2.5-1.2-4-2.8-4.5-4.5c-0.5-1.8-0.1-3.9,1.3-6.2l-1-0.6
		c-3.1,5.3-1.9,9.6,3.6,12.4c2.5,1.2,4,2.8,4.5,4.5c0.5,1.8,0.1,3.9-1.3,6.2l1,0.6C195.9,104,196.4,101.6,195.8,99.5"/>
	<path fill="#005EC7" d="M202.6,122.7c-0.6-2.1-2.3-3.8-5.1-5.2c-2.5-1.2-4-2.8-4.5-4.5c-0.5-1.8-0.1-3.9,1.3-6.2l-1-0.6
		c-3.1,5.3-1.9,9.6,3.6,12.4c2.5,1.2,4,2.8,4.5,4.5c0.5,1.8,0.1,3.9-1.3,6.2l1,0.6C202.7,127.2,203.2,124.8,202.6,122.7"/>
	<path fill="#005EC7" d="M516.2,142.6c1.9,1,4.3,1.1,7.3,0.1c2.6-0.9,4.8-0.8,6.4,0c1.6,0.9,2.8,2.7,3.5,5.4l1.1-0.3
		c-1.5-6-5.4-8.1-11.3-6.2c-2.6,0.9-4.8,0.8-6.4,0c-1.6-0.9-2.8-2.7-3.5-5.4l-1.1,0.3C512.9,139.5,514.3,141.6,516.2,142.6"/>
	<path fill="#005EC7" d="M495,131c1.9,1,4.3,1.1,7.3,0.1c2.6-0.9,4.8-0.8,6.4,0c1.6,0.9,2.8,2.7,3.5,5.4l1.1-0.3
		c-1.6-6-5.4-8.1-11.3-6.2c-2.6,0.9-4.8,0.8-6.4,0c-1.6-0.9-2.8-2.7-3.5-5.4l-1.1,0.3C491.8,127.9,493.1,130,495,131"/>
	<path fill="#005EC7" d="M518,137c1.9,1,4.3,1.1,7.3,0.1c2.6-0.9,4.8-0.8,6.4,0c1.6,0.9,2.8,2.7,3.5,5.4l1.1-0.3
		c-1.5-6-5.4-8.1-11.3-6.2c-2.6,0.9-4.8,0.8-6.4,0c-1.6-0.9-2.8-2.7-3.5-5.4L514,131C514.8,134,516.1,136,518,137"/>
	<path fill="#005EC7" d="M496.9,125.4c1.9,1,4.3,1.1,7.3,0.1c2.6-0.9,4.8-0.8,6.4,0c1.6,0.9,2.8,2.7,3.5,5.4l1.1-0.3
		c-1.5-6-5.4-8.1-11.3-6.2c-2.6,0.9-4.8,0.8-6.4,0c-1.6-0.9-2.8-2.7-3.5-5.4l-1.1,0.3C493.6,122.4,495,124.4,496.9,125.4"/>
	<path fill="#FFC740" d="M-3.2,119.1h-1.4c-0.4-0.5-1-0.9-1.7-0.9c-1.1,0-2,0.9-2,2s0.9,2,2,2c0.7,0,1.3-0.4,1.7-0.9h1.4l0,2.9h29
		l0.1-8.1H-3.2L-3.2,119.1z"/>
	<path fill="#005EC7" d="M26,116.2l0,3l0,0l-1.4,0c-0.4-0.5-1-1-1.7-1c-1.1,0-2.1,0.9-2.1,2c0,1.1,0.9,2.1,2.1,2.1
		c0.7,0,1.4-0.4,1.7-0.9H26l0,0l0,2.8c4.4,0,7.8,4.1,7.8,8.5h8.1C41.8,123.9,34.8,116.2,26,116.2"/>
	<path fill="#FFC740" d="M33.8,132.5l3,0l0,0l0-1.4c-0.5-0.4-1-1-1-1.7c0-1.1,0.9-2.1,2-2.1c1.1,0,2.1,0.9,2.1,2
		c0,0.7-0.4,1.4-0.9,1.7l0,1.4l0,0l2.8,0c0,4.4,3.6,7.9,8,7.9l0.1,8.1C41.1,148.4,33.8,141.3,33.8,132.5"/>
	<path fill="#FF7361" d="M49.5,140.1l0,3l0,0l-1.4,0c-0.4-0.5-1-1-1.7-1c-1.1,0-2.1,0.9-2.1,2c0,1.1,0.9,2.1,2.1,2.1
		c0.7,0,1.4-0.4,1.7-0.9h1.4l0,0l0,2.8c4.4,0,7.8,4.1,7.8,8.5h8.1C65.4,147.9,58.4,140.1,49.5,140.1"/>
	<path fill="#005EC7" d="M57.3,156.4l3,0l0,0l0-1.4c-0.5-0.4-1-1-1-1.7c0-1.1,0.9-2.1,2-2.1c1.1,0,2.1,0.9,2.1,2
		c0,0.7-0.4,1.4-0.9,1.7l0,1.4l0,0l2.8,0c0,4.4,3.6,7.9,8,7.9l0.1,8.1C64.7,172.4,57.4,165.3,57.3,156.4"/>
	<path fill="#FF7361" d="M73.2,167.2h-1.4c-0.4-0.5-1-0.9-1.7-0.9c-1.1,0-2,0.9-2,2c0,1.1,0.9,2,2,2c0.7,0,1.3-0.4,1.7-0.9h1.4
		l0,2.9h29.1l0.1-8.1H73.2L73.2,167.2z"/>
	<path fill="#FFC740" d="M101.6,167.2h-1.4c-0.4-0.5-1-0.9-1.7-0.9c-1.1,0-2,0.9-2,2c0,1.1,0.9,2,2,2c0.7,0,1.3-0.4,1.7-0.9h1.4
		l0,2.9h29l0.1-8.1h-29.1L101.6,167.2z"/>
	<path fill="#005EC7" d="M130.8,167.2h-1.4c-0.4-0.5-1-0.9-1.7-0.9c-1.1,0-2,0.9-2,2c0,1.1,0.9,2,2,2c0.7,0,1.3-0.4,1.7-0.9h1.4
		l0,2.9h29l0.1-8.1h-29.1L130.8,167.2z"/>
	<path fill="#FFC740" d="M159.8,172.3v-2.9h-1.4c-0.4,0.5-1,0.9-1.7,0.9c-1.1,0-2-0.9-2-2c0-1.1,0.9-2,2-2c0.7,0,1.3,0.4,1.7,1h1.4
		v-3c14.8,0,27.1-12.1,27.1-26.9c0,0,0-0.1,0-0.1h8.1c0,0,0,0.1,0,0.1C195,156.7,179.5,172.3,159.8,172.3"/>
	<path fill="#FF7361" d="M186.9,137.9h2.9v1.4c-0.5,0.4-0.9,1-0.9,1.7c0,1.1,0.9,2,2,2c1.1,0,2-0.9,2-2c0-0.7-0.4-1.3-1-1.7v-1.4h3
		c0-14.8,12.1-27.1,26.9-27.1c0,0,0.1,0,0.1,0v-8.1c0,0-0.1,0-0.1,0C202.5,102.7,186.9,118.2,186.9,137.9"/>
	<path fill="#005EC7" d="M221.4,102.7v2.9H220c-0.4-0.5-1-0.9-1.7-0.9c-1.1,0-2,0.9-2,2c0,1.1,0.9,2,2,2c0.7,0,1.3-0.4,1.7-1h1.4v3
		c14.8,0,27.1,12.1,27.1,26.9c0,0,0,0.1,0,0.1h8.1c0,0,0-0.1,0-0.1C256.7,118.3,241.1,102.7,221.4,102.7"/>
	<path fill="#FFC740" d="M248.7,137.7l3,0l0,0l0-1.4c-0.5-0.4-1-1-1-1.7c0-1.1,0.9-2.1,2-2.1c1.1,0,2.1,0.9,2.1,2
		c0,0.7-0.4,1.4-0.9,1.7l0,1.4l0,0l2.8,0c0,4.4,3.6,7.9,8,7.9l0.1,8.1C256,153.7,248.8,146.6,248.7,137.7"/>
	<path fill="#005EC7" d="M264.4,153.6l0-3l0,0l-1.4,0c-0.4,0.5-1,1-1.7,1c-1.1,0-2.1-0.9-2.1-2c0-1.1,0.9-2.1,2.1-2.1
		c0.7,0,1.4,0.4,1.7,0.9l1.4,0l0,0l0-2.8c4.4,0,7.8-4.1,7.8-8.5h8.1C280.2,145.9,273.2,153.6,264.4,153.6"/>
	<path fill="#FFC740" d="M275.1,137.7v1.4c-0.5,0.4-0.9,1-0.9,1.7c0,1.1,0.9,2,2,2c1.1,0,2-0.9,2-2c0-0.7-0.4-1.3-0.9-1.7v-1.4
		l2.9,0v-29l-8.1-0.1v29.1L275.1,137.7z"/>
	<path fill="#005EC7" d="M272.3,108.8l3,0l0,0l0,1.4c-0.5,0.4-1,1-1,1.7c0,1.1,0.9,2.1,2,2.1c1.1,0,2.1-0.9,2.1-2.1
		c0-0.7-0.4-1.4-0.9-1.7v-1.4l0,0l2.8,0c0-4.4,4.1-7.8,8.5-7.8V93C280,92.9,272.3,99.9,272.3,108.8"/>
	<path fill="#FFC740" d="M288.7,95.7h-1.4c-0.4-0.5-1-0.9-1.7-0.9c-1.1,0-2,0.9-2,2s0.9,2,2,2c0.7,0,1.3-0.4,1.7-0.9h1.4l0,2.9h29
		l0.1-8.1h-29.1L288.7,95.7z"/>
	<path fill="#FF7361" d="M317.2,95.6h-1.4c-0.4-0.5-1-0.9-1.7-0.9c-1.1,0-2,0.9-2,2c0,1.1,0.9,2,2,2c0.7,0,1.3-0.4,1.7-0.9h1.4
		l0,2.9h29l0.1-8.1h-29.1L317.2,95.6z"/>
	<path fill="#005EC7" d="M346,92.7v2.9h-1.4c-0.4-0.5-1-0.9-1.7-0.9c-1.1,0-2,0.9-2,2c0,1.1,0.9,2,2,2c0.7,0,1.3-0.4,1.7-1h1.4v3
		c14.8,0,27.1,12.1,27.1,26.9c0,0,0,0.1,0,0.1h8.1c0,0,0-0.1,0-0.1C381.2,108.3,365.7,92.7,346,92.7"/>
	<path fill="#FFC740" d="M378.4,127v-1.4c0.5-0.4,0.9-1,0.9-1.7c0-1.1-0.9-2-2-2c-1.1,0-2,0.9-2,2c0,0.7,0.4,1.3,0.9,1.7v1.4l-2.9,0
		v29l8.1,0.1V127L378.4,127z"/>
	<path fill="#FF7361" d="M378.4,155.6v-1.4c0.5-0.4,0.9-1,0.9-1.7c0-1.1-0.9-2-2-2c-1.1,0-2,0.9-2,2c0,0.7,0.4,1.3,0.9,1.7v1.4
		l-2.9,0v29l8.1,0.1v-29.1L378.4,155.6z"/>
	<path fill="#FFC740" d="M373.2,184.5l3,0l0,0l0-1.4c-0.5-0.4-1-1-1-1.7c0-1.1,0.9-2.1,2-2.1c1.1,0,2.1,0.9,2.1,2
		c0,0.7-0.4,1.4-0.9,1.7l0,1.4l0,0l2.8,0c0,4.4,3.6,7.9,8,7.9l0.1,8.1C380.5,200.5,373.3,193.4,373.2,184.5"/>
	<path fill="#FF7361" d="M389.1,200.4l0-3l0,0l-1.4,0c-0.4,0.5-1,1-1.7,1c-1.1,0-2.1-0.9-2.1-2c0-1.1,0.9-2.1,2-2.1
		c0.7,0,1.4,0.4,1.7,0.9l1.4,0l0,0l0-2.8c4.4,0,7.9-3.6,7.9-8l8.1-0.1C405.1,193.1,397.9,200.3,389.1,200.4"/>
	<path fill="#005EC7" d="M402.1,185.3v1.4c0.5,0.4,0.9,1,0.9,1.7c0,1.1-0.9,2-2,2c-1.1,0-2-0.9-2-2c0-0.7,0.4-1.3,0.9-1.7v-1.4
		l-2.9,0v-29l8.1-0.1v29.1L402.1,185.3z"/>
	<path fill="#FFC740" d="M396.9,156.4l3,0l0,0l0,1.4c-0.5,0.4-1,1-1,1.7c0,1.1,0.9,2.1,2,2.1c1.1,0,2.1-0.9,2.1-2
		c0-0.7-0.4-1.4-0.9-1.7l0-1.4l0,0l2.8,0c0-4.4,3.6-7.9,8-7.9l0.1-8.1C404.3,140.4,397,147.6,396.9,156.4"/>
	<path fill="#FF7361" d="M412.8,140.5l0,3l0,0l-1.4,0c-0.4-0.5-1-1-1.7-1c-1.1,0-2.1,0.9-2.1,2c0,1.1,0.9,2.1,2,2.1
		c0.7,0,1.4-0.4,1.7-0.9l1.4,0l0,0l0,2.8c4.4,0,7.9,3.6,7.9,8l8.1,0.1C428.8,147.8,421.7,140.6,412.8,140.5"/>
	<path fill="#005EC7" d="M425.8,156.2v-1.4c0.5-0.4,0.9-1,0.9-1.7c0-1.1-0.9-2-2-2c-1.1,0-2,0.9-2,2c0,0.7,0.4,1.3,0.9,1.7v1.4
		l-2.9,0v29.1l8.1,0.1v-29.1L425.8,156.2z"/>
	<path fill="#FFC740" d="M420.6,185.1l3,0l0,0l0-1.4c-0.5-0.4-1-1-1-1.7c0-1.1,0.9-2.1,2-2.1c1.1,0,2.1,0.9,2.1,2
		c0,0.7-0.4,1.4-0.9,1.7l0,1.4l0,0l2.8,0c0,4.4,3.6,7.9,8,7.9l0.1,8.1C428,201.1,420.7,193.9,420.6,185.1"/>
	<path fill="#FF7361" d="M436.5,201l0-3l0,0l-1.4,0c-0.4,0.5-1,1-1.7,1c-1.1,0-2.1-0.9-2.1-2c0-1.1,0.9-2.1,2-2.1
		c0.7,0,1.4,0.4,1.7,0.9l1.4,0l0,0l0-2.8c4.4,0,7.9-3.6,7.9-8l8.1-0.1C452.5,193.6,445.3,200.9,436.5,201"/>
	<path fill="#FFC740" d="M447.3,186v1.4c-0.5,0.4-0.9,1-0.9,1.7c0,1.1,0.9,2,2,2c1.1,0,2-0.9,2-2c0-0.7-0.4-1.3-0.9-1.7V186l2.9,0
		v-29.1l-8.1-0.1V186L447.3,186z"/>
	<path fill="#005EC7" d="M444.4,156.8l3,0l0,0l0,1.4c-0.5,0.4-1,1-1,1.7c0,1.1,0.9,2.1,2,2.1c1.1,0,2.1-0.9,2.1-2.1
		c0-0.7-0.4-1.4-0.9-1.7v-1.4l0,0l2.8,0c0-4.4,4.1-7.8,8.5-7.8v-8.1C452.1,140.9,444.4,147.9,444.4,156.8"/>
	<path fill="#FFC740" d="M460.6,144.1h-1.4c-0.4-0.5-1-0.9-1.7-0.9c-1.1,0-2,0.9-2,2s0.9,2,2,2c0.7,0,1.3-0.4,1.7-0.9h1.4l0,2.9h29
		l0.1-8.1h-29.1L460.6,144.1z"/>
	<path fill="#FF7361" d="M489.1,149.6v-2.9h-1.4c-0.4,0.5-1,0.9-1.7,0.9c-1.1,0-2-0.9-2-2c0-1.1,0.9-2,2-2c0.7,0,1.3,0.4,1.7,1h1.4
		v-3c14.8,0,27.1-12.1,27.1-26.9c0,0,0-0.1,0-0.1h8.1c0,0,0,0.1,0,0.1C524.4,133.9,508.8,149.6,489.1,149.6"/>
	<path fill="#005EC7" d="M516.4,114.9l3,0l0,0l0,1.4c-0.5,0.4-1,1-1,1.7c0,1.1,0.9,2.1,2,2.1c1.1,0,2.1-0.9,2.1-2.1
		c0-0.7-0.4-1.4-0.9-1.7V115l0,0l2.8,0c0-4.4,3.6-7.9,8-7.9l0-8.1C523.6,98.9,516.4,106.1,516.4,114.9"/>
	<path fill="#FF7361" d="M532.4,107.2l0-3l0,0l-1.4,0c-0.4,0.5-1,1-1.7,1c-1.1,0-2.1-0.9-2.1-2c0-1.1,0.9-2.1,2-2.1
		c0.7,0,1.4,0.4,1.7,0.9l1.4,0l0,0l0-2.8c4.4,0,7.9-3.6,7.9-8l8.1-0.1C548.3,99.8,541.2,107.1,532.4,107.2"/>
	<path fill="#FFC740" d="M540.1,91.1l3,0l0,0l0,1.4c-0.5,0.4-1,1-1,1.7c0,1.1,0.9,2.1,2,2.1c1.1,0,2.1-0.9,2.1-2.1
		c0-0.7-0.4-1.4-0.9-1.7v-1.4l0,0l2.8,0c0-4.4,3.6-7.9,8-7.9l0-8.1C547.3,75.1,540.1,82.3,540.1,91.1"/>
	<path fill="#005EC7" d="M422.3,104.2c-2.8,0-5-2.3-5-5c0-2.8,2.3-5,5-5c2.8,0,5,2.3,5,5C427.4,101.9,425.1,104.2,422.3,104.2"/>
	<path fill="#005EC7" d="M288.8,116.3c-2.8,0-5-2.3-5-5c0-2.8,2.3-5,5-5c2.8,0,5,2.3,5,5C293.9,114.1,291.6,116.3,288.8,116.3"/>
	<path fill="#005EC7" d="M389.2,140.9c-2.8,0-5-2.3-5-5c0-2.8,2.3-5,5-5c2.8,0,5,2.3,5,5C394.2,138.7,392,140.9,389.2,140.9"/>
	<path fill="#005EC7" d="M564.9,194.2c-2.8,0-5-2.3-5-5s2.3-5,5-5c2.8,0,5,2.3,5,5S567.7,194.2,564.9,194.2"/>
	<path fill="#005EC7" d="M236.3,97c-2.8,0-5-2.3-5-5s2.3-5,5-5c2.8,0,5,2.3,5,5S239,97,236.3,97"/>
	<path fill="#005EC7" d="M221.4,126.1c-2.8,0-5-2.3-5-5c0-2.8,2.3-5,5-5c2.8,0,5,2.3,5,5C226.4,123.8,224.2,126.1,221.4,126.1"/>
	<path fill="#005EC7" d="M48.5,116c-2.8,0-5-2.3-5-5c0-2.8,2.3-5,5-5c2.8,0,5,2.3,5,5C53.5,113.7,51.3,116,48.5,116"/>
	<path fill="#005EC7" d="M242,163.2c-2.8,0-5-2.3-5-5s2.3-5,5-5c2.8,0,5,2.3,5,5S244.8,163.2,242,163.2"/>
</g>
<rect x="474.1" y="122.9" fill="#FF7361" width="3.7" height="10.4"/>
<polyline fill="#005EC7" points="471.3,130.8 475.9,112.8 480.7,130.8 "/>
<rect x="181.7" y="178.8" fill="#FF7361" width="3.7" height="10.4"/>
<polyline fill="#005EC7" points="178.9,186.7 183.5,168.7 188.2,186.7 "/>
<rect x="170" y="168.5" fill="#FF7361" width="3.7" height="10.4"/>
<polyline fill="#005EC7" points="167.3,176.5 171.9,158.4 176.6,176.5 "/>
<polyline fill="#005EC7" points="157.9,191.9 162.5,173.9 167.3,191.9 "/>
<rect x="361.7" y="168.5" fill="#FF7361" width="3.7" height="10.4"/>
<polyline fill="#005EC7" points="358.9,176.5 363.6,158.4 368.3,176.5 "/>
<rect x="547.6" y="114.3" fill="#FF7361" width="3.7" height="10.4"/>
<polyline fill="#005EC7" points="544.8,122.2 549.4,104.2 554.1,122.2 "/>
<rect x="472.3" y="163.8" fill="#FFC740" width="12.9" height="15.1"/>
<polygon fill="#FF7361" points="478.7,154.4 486.2,163.8 471.3,163.8 "/>
<g>
	<path fill="#005EC7" d="M478.7,162.4c-0.9,0-1.7-0.8-1.7-1.7c0-0.9,0.8-1.7,1.7-1.7c0.9,0,1.7,0.8,1.7,1.7
		C480.4,161.6,479.7,162.4,478.7,162.4"/>
</g>
<rect x="476.9" y="171.9" fill="#FF7361" width="3.6" height="7"/>
<rect x="288.2" y="71.8" fill="#FFC740" width="20.9" height="15.1"/>
<polygon fill="#FF7361" points="298.5,62.4 310.7,71.8 286.6,71.8 "/>
<rect x="302.5" y="74.3" fill="#005EC7" width="3.2" height="3.2"/>
<rect x="291.2" y="79.8" fill="#FF7361" width="3.6" height="7"/>
<rect x="108.8" y="180.1" fill="#FFC740" width="15.6" height="18.4"/>
<polygon fill="#FF7361" points="116.5,168.7 125.6,180.1 107.6,180.1 "/>
<rect x="118.8" y="182.5" fill="#005EC7" width="3.2" height="3.2"/>
<rect x="114.8" y="191.5" fill="#FF7361" width="3.6" height="7"/>
<rect x="114.8" y="182.5" fill="#005EC7" width="3.2" height="3.2"/>
<rect x="110.7" y="182.5" fill="#005EC7" width="3.2" height="3.2"/>
<rect x="145.3" y="140.2" fill="#FFC740" width="25.2" height="18.2"/>
<polygon fill="#FF7361" points="157.9,133.2 143.3,140.2 172.4,140.2 "/>
<rect x="150.4" y="143.7" fill="#005EC7" width="3.2" height="3.2"/>
<rect x="156.1" y="151.4" fill="#FF7361" width="3.6" height="7"/>
<rect x="162.6" y="133.3" fill="#FF7361" width="3.3" height="4.7"/>
<g>
	<path fill="#005EC7" d="M214.7,143c-0.6-2.1-2.3-3.8-5.1-5.2c-2.5-1.2-4-2.8-4.5-4.5c-0.5-1.8-0.1-3.9,1.3-6.2l-1-0.6
		c-3.1,5.3-1.9,9.6,3.6,12.4c2.5,1.2,4,2.8,4.5,4.5c0.5,1.8,0.1,3.9-1.3,6.2l1,0.6C214.8,147.4,215.3,145,214.7,143"/>
	<path fill="#005EC7" d="M221.5,166.1c-0.6-2.1-2.3-3.8-5.1-5.2c-2.5-1.2-4-2.8-4.5-4.5c-0.5-1.8-0.1-3.9,1.3-6.2l-1-0.6
		c-3.1,5.3-1.9,9.6,3.6,12.4c2.5,1.2,4,2.8,4.5,4.5c0.5,1.8,0.1,3.9-1.3,6.2l1,0.6C221.6,170.6,222.1,168.2,221.5,166.1"/>
	<path fill="#005EC7" d="M209.5,145.6c-0.6-2.1-2.3-3.8-5.1-5.2c-2.5-1.2-4-2.8-4.5-4.5c-0.5-1.8-0.1-3.9,1.3-6.2l-1-0.6
		c-3.1,5.3-1.9,9.6,3.6,12.4c2.5,1.2,4,2.8,4.5,4.5c0.5,1.8,0.1,3.9-1.3,6.2l1,0.6C209.6,150,210.1,147.6,209.5,145.6"/>
	<path fill="#005EC7" d="M216.2,168.7c-0.6-2.1-2.3-3.8-5.1-5.2c-2.5-1.2-4-2.8-4.5-4.5c-0.5-1.8-0.1-3.9,1.3-6.2l-1-0.6
		c-3.1,5.3-1.9,9.6,3.6,12.4c2.5,1.2,4,2.8,4.5,4.5c0.5,1.8,0.1,3.9-1.3,6.2l1,0.6C216.4,173.2,216.8,170.8,216.2,168.7"/>
	<path fill="#FF7361" d="M556.1,83.1l0-3l0,0l-1.4,0c-0.4,0.5-1,1-1.7,1c-1.1,0-2.1-0.9-2.1-2c0-1.1,0.9-2.1,2-2.1
		c0.7,0,1.4,0.4,1.7,0.9l1.4,0l0,0l0-2.8c4.4,0,7.9-3.6,7.9-8l8.1-0.1C572.1,75.8,565,83,556.1,83.1"/>
	<path fill="#005EC7" d="M564.1,67l3,0l0,0l0,1.4c-0.5,0.4-1,1-1,1.7c0,1.1,0.9,2.1,2,2.1c1.1,0,2.1-0.9,2.1-2.1
		c0-0.7-0.4-1.4-0.9-1.7V67l0,0l2.8,0c0-4.4,3.6-7.9,8-7.9l0-8.1C571.3,50.9,564.1,58.1,564.1,67"/>
	<path fill="#FF7361" d="M580,56h-1.3c-0.3,0.5-1,0.9-1.6,0.9c-1.1,0-2-0.9-2-1.9c0-1.1,0.9-2,2-2c0.7,0,1.3,0.4,1.6,0.9h1.3l0-2.9
		h28.1l0.1,7.8H580L580,56z"/>
	<path fill="#005EC7" d="M608.1,56h-1.3c-0.3,0.5-1,0.9-1.6,0.9c-1.1,0-2-0.9-2-1.9c0-1.1,0.9-2,2-2c0.7,0,1.3,0.4,1.6,0.9h1.3
		l0-2.9h28.1l0.1,7.8h-28.2L608.1,56z"/>
	<path fill="#FFC740" d="M634.5,56.1h-1.4c-0.4,0.5-1,0.9-1.7,0.9c-1.1,0-2-0.9-2-2c0-1.1,0.9-2,2-2c0.7,0,1.3,0.4,1.7,0.9h1.4
		l0-2.9h29l0.1,8.1h-29.1L634.5,56.1z"/>
</g>
<rect x="644.7" y="32.6" fill="#FF7361" width="3.7" height="10.4"/>
<polyline fill="#005EC7" points="641.9,40.6 646.5,22.6 651.2,40.6 "/>
<rect x="627.6" y="32.6" fill="#FF7361" width="3.7" height="10.4"/>
<polyline fill="#005EC7" points="624.8,40.6 629.4,22.6 634.1,40.6 "/>
<rect x="612" y="68.1" fill="#FFC740" width="15.6" height="18.4"/>
<polygon fill="#FF7361" points="619.7,56.7 628.7,68.1 610.7,68.1 "/>
<rect x="622" y="70.5" fill="#005EC7" width="3.2" height="3.2"/>
<rect x="617.9" y="79.5" fill="#FF7361" width="3.6" height="7"/>
<rect x="617.9" y="70.5" fill="#005EC7" width="3.2" height="3.2"/>
<rect x="613.9" y="70.5" fill="#005EC7" width="3.2" height="3.2"/>
<rect x="564.5" y="26.6" fill="#FFC740" width="25.2" height="18.2"/>
<polygon fill="#FF7361" points="577.1,19.6 562.6,26.6 591.7,26.6 "/>
<rect x="569.6" y="30.1" fill="#005EC7" width="3.2" height="3.2"/>
<rect x="575.3" y="37.8" fill="#FF7361" width="3.6" height="7"/>
<rect x="581.8" y="19.7" fill="#FF7361" width="3.3" height="4.7"/>
<g>
	<path fill="#005EC7" d="M641.9,71.3c-2.8,0-5-2.3-5-5c0-2.8,2.3-5,5-5c2.8,0,5,2.3,5,5C646.9,69,644.7,71.3,641.9,71.3"/>
</g>
<rect x="125.8" y="147.4" fill="#FF7361" width="2.8" height="11.1"/>
<g>
	<path fill="#FF7361" d="M127.6,153.5v-2.2c-1.5,0-2-0.4-2.3-0.7c-0.6-0.6-0.8-2-0.7-4.1l-2.2-0.1c-0.2,2.8,0.2,4.6,1.3,5.7
		C124.6,153,125.8,153.5,127.6,153.5"/>
	<path fill="#FFC740" d="M117.9,140.2c0,5.1,4.1,9.2,9.2,9.2c5.1,0,9.2-4.1,9.2-9.2s-4.1-9.2-9.2-9.2
		C122.1,131,117.9,135.1,117.9,140.2"/>
</g>
<rect x="344" y="122.1" fill="#FF7361" width="2.8" height="11.1"/>
<g>
	<path fill="#FF7361" d="M345,128.2V126c1.5,0,2-0.4,2.3-0.7c0.6-0.6,0.8-2,0.7-4.1l2.2-0.1c0.2,2.8-0.2,4.6-1.3,5.7
		C348,127.8,346.7,128.2,345,128.2"/>
	<path fill="#FFC740" d="M354.6,115c0,5.1-4.1,9.2-9.2,9.2c-5.1,0-9.2-4.1-9.2-9.2s4.1-9.2,9.2-9.2
		C350.5,105.7,354.6,109.9,354.6,115"/>
</g>
<rect x="592.6" y="76.3" fill="#FF7361" width="2.8" height="11.1"/>
<g>
	<path fill="#FF7361" d="M593.5,82.4v-2.2c1.5,0,2-0.4,2.3-0.7c0.6-0.6,0.8-2,0.7-4.1l2.2-0.1c0.2,2.8-0.2,4.6-1.3,5.7
		C596.5,82,595.3,82.4,593.5,82.4"/>
	<path fill="#FFC740" d="M603.2,69.2c0,5.1-4.1,9.2-9.2,9.2c-5.1,0-9.2-4.1-9.2-9.2s4.1-9.2,9.2-9.2C599,59.9,603.2,64.1,603.2,69.2
		"/>
</g>
<g>
	<path fill="#FF7361" d="M164.6,130.1c0.7-0.6,1-1.2,1-1.9c0-0.7-0.4-1.3-1-1.9c-0.4-0.4-0.7-0.7-0.7-1.1c0-0.3,0.2-0.7,0.7-1.1
		l-0.7-0.8c-0.7,0.6-1,1.2-1,1.9c0,0.7,0.4,1.3,1,1.9c0.4,0.4,0.7,0.7,0.7,1.1c0,0.3-0.2,0.7-0.7,1.1L164.6,130.1z"/>
	<path fill="#FF7361" d="M164.6,124.2c0.7-0.6,1-1.2,1-1.9c0-0.7-0.4-1.3-1-1.9c-0.4-0.4-0.7-0.7-0.7-1.1c0-0.3,0.2-0.7,0.7-1.1
		l-0.7-0.8c-0.7,0.6-1,1.2-1,1.9c0,0.7,0.4,1.3,1,1.9c0.4,0.4,0.7,0.7,0.7,1.1c0,0.3-0.2,0.7-0.7,1.1L164.6,124.2z"/>
</g>
</svg>
