<svg xmlns="http://www.w3.org/2000/svg" viewBox="0 0 650 218.7"><path fill="#005EC7" d="M60.9 149.1c2-.8 3.6-2.6 4.8-5.5 1-2.6 2.4-4.2 4.2-4.8 1.7-.7 3.8-.4 6.3.8l.5-1c-5.6-2.7-9.7-1.1-12 4.6-1 2.6-2.4 4.2-4.2 4.8-1.7.7-3.8.4-6.3-.8l-.5 1c2.7 1.4 5.2 1.7 7.2.9"/><path fill="#005EC7" d="M38.4 157.8c2-.8 3.6-2.6 4.8-5.5 1-2.6 2.4-4.2 4.2-4.8 1.7-.7 3.8-.4 6.3.8l.5-1c-5.6-2.7-9.7-1.1-12 4.6-1 2.6-2.4 4.2-4.2 4.9-1.7.7-3.8.4-6.3-.8l-.5 1c2.7 1.3 5.2 1.6 7.2.8m19.4-13.7c2-.8 3.6-2.6 4.8-5.5 1-2.6 2.4-4.2 4.2-4.9 1.7-.7 3.8-.4 6.3.8l.5-1c-5.6-2.7-9.7-1.1-12 4.6-1 2.6-2.4 4.2-4.2 4.9-1.7.7-3.8.4-6.3-.8l-.5 1c2.8 1.4 5.2 1.7 7.2.9"/><path fill="#005EC7" d="M35.3 152.8c2-.8 3.6-2.6 4.8-5.5 1-2.6 2.4-4.2 4.2-4.9 1.7-.7 3.8-.4 6.3.8l.5-1c-5.6-2.7-9.7-1.1-12 4.6-1 2.6-2.4 4.2-4.2 4.9-1.7.7-3.8.4-6.3-.8l-.5 1c2.8 1.4 5.2 1.7 7.2.9m165.8-55.9c-.6-2.1-2.3-3.8-5.1-5.2-2.5-1.2-4-2.8-4.5-4.5-.5-1.8-.1-3.9 1.3-6.2l-1-.6c-3.1 5.3-1.9 9.6 3.6 12.4 2.5 1.2 4 2.8 4.5 4.5.5 1.8.1 3.9-1.3 6.2l1 .6c1.6-2.7 2.1-5.1 1.5-7.2m6.7 23.2c-.6-2.1-2.3-3.8-5.1-5.2-2.5-1.2-4-2.8-4.5-4.5-.5-1.8-.1-3.9 1.3-6.2l-1-.6c-3.1 5.3-1.9 9.6 3.6 12.4 2.5 1.2 4 2.8 4.5 4.5.5 1.8.1 3.9-1.3 6.2l1 .6c1.7-2.7 2.2-5.1 1.5-7.2"/><path fill="#005EC7" d="M195.8 99.5c-.6-2.1-2.3-3.8-5.1-5.2-2.5-1.2-4-2.8-4.5-4.5-.5-1.8-.1-3.9 1.3-6.2l-1-.6c-3.1 5.3-1.9 9.6 3.6 12.4 2.5 1.2 4 2.8 4.5 4.5.5 1.8.1 3.9-1.3 6.2l1 .6c1.6-2.7 2.1-5.1 1.5-7.2m6.8 23.2c-.6-2.1-2.3-3.8-5.1-5.2-2.5-1.2-4-2.8-4.5-4.5-.5-1.8-.1-3.9 1.3-6.2l-1-.6c-3.1 5.3-1.9 9.6 3.6 12.4 2.5 1.2 4 2.8 4.5 4.5.5 1.8.1 3.9-1.3 6.2l1 .6c1.6-2.7 2.1-5.1 1.5-7.2m313.6 19.9c1.9 1 4.3 1.1 7.3.1 2.6-.9 4.8-.8 6.4 0 1.6.9 2.8 2.7 3.5 5.4l1.1-.3c-1.5-6-5.4-8.1-11.3-6.2-2.6.9-4.8.8-6.4 0-1.6-.9-2.8-2.7-3.5-5.4l-1.1.3c.7 3 2.1 5.1 4 6.1"/><path fill="#005EC7" d="M495 131c1.9 1 4.3 1.1 7.3.1 2.6-.9 4.8-.8 6.4 0 1.6.9 2.8 2.7 3.5 5.4l1.1-.3c-1.6-6-5.4-8.1-11.3-6.2-2.6.9-4.8.8-6.4 0-1.6-.9-2.8-2.7-3.5-5.4l-1.1.3c.8 3 2.1 5.1 4 6.1m23 6c1.9 1 4.3 1.1 7.3.1 2.6-.9 4.8-.8 6.4 0 1.6.9 2.8 2.7 3.5 5.4l1.1-.3c-1.5-6-5.4-8.1-11.3-6.2-2.6.9-4.8.8-6.4 0-1.6-.9-2.8-2.7-3.5-5.4l-1.1.4c.8 3 2.1 5 4 6"/><path fill="#005EC7" d="M496.9 125.4c1.9 1 4.3 1.1 7.3.1 2.6-.9 4.8-.8 6.4 0 1.6.9 2.8 2.7 3.5 5.4l1.1-.3c-1.5-6-5.4-8.1-11.3-6.2-2.6.9-4.8.8-6.4 0-1.6-.9-2.8-2.7-3.5-5.4l-1.1.3c.7 3.1 2.1 5.1 4 6.1"/><path fill="#FFC740" d="M-3.2 119.1h-1.4c-.4-.5-1-.9-1.7-.9-1.1 0-2 .9-2 2s.9 2 2 2c.7 0 1.3-.4 1.7-.9h1.4v2.9h29l.1-8.1H-3.2v3z"/><path fill="#005EC7" d="M26 116.2v3h-1.4c-.4-.5-1-1-1.7-1-1.1 0-2.1.9-2.1 2s.9 2.1 2.1 2.1c.7 0 1.4-.4 1.7-.9H26v2.8c4.4 0 7.8 4.1 7.8 8.5h8.1c-.1-8.8-7.1-16.5-15.9-16.5"/><path fill="#FFC740" d="M33.8 132.5h3v-1.4c-.5-.4-1-1-1-1.7 0-1.1.9-2.1 2-2.1s2.1.9 2.1 2c0 .7-.4 1.4-.9 1.7v1.4h2.8c0 4.4 3.6 7.9 8 7.9l.1 8.1c-8.8 0-16.1-7.1-16.1-15.9"/><path fill="#FF7361" d="M49.5 140.1v3h-1.4c-.4-.5-1-1-1.7-1-1.1 0-2.1.9-2.1 2s.9 2.1 2.1 2.1c.7 0 1.4-.4 1.7-.9h1.4v2.8c4.4 0 7.8 4.1 7.8 8.5h8.1c0-8.7-7-16.5-15.9-16.5"/><path fill="#005EC7" d="M57.3 156.4h3V155c-.5-.4-1-1-1-1.7 0-1.1.9-2.1 2-2.1s2.1.9 2.1 2c0 .7-.4 1.4-.9 1.7v1.4h2.8c0 4.4 3.6 7.9 8 7.9l.1 8.1c-8.7.1-16-7-16.1-15.9"/><path fill="#FF7361" d="M73.2 167.2h-1.4c-.4-.5-1-.9-1.7-.9-1.1 0-2 .9-2 2s.9 2 2 2c.7 0 1.3-.4 1.7-.9h1.4v2.9h29.1l.1-8.1H73.2v3z"/><path fill="#FFC740" d="M101.6 167.2h-1.4c-.4-.5-1-.9-1.7-.9-1.1 0-2 .9-2 2s.9 2 2 2c.7 0 1.3-.4 1.7-.9h1.4v2.9h29l.1-8.1h-29.1v3z"/><path fill="#005EC7" d="M130.8 167.2h-1.4c-.4-.5-1-.9-1.7-.9-1.1 0-2 .9-2 2s.9 2 2 2c.7 0 1.3-.4 1.7-.9h1.4v2.9h29l.1-8.1h-29.1v3z"/><path fill="#FFC740" d="M159.8 172.3v-2.9h-1.4c-.4.5-1 .9-1.7.9-1.1 0-2-.9-2-2s.9-2 2-2c.7 0 1.3.4 1.7 1h1.4v-3c14.8 0 27.1-12.1 27.1-26.9v-.1h8.1v.1c0 19.3-15.5 34.9-35.2 34.9"/><path fill="#FF7361" d="M186.9 137.9h2.9v1.4c-.5.4-.9 1-.9 1.7 0 1.1.9 2 2 2s2-.9 2-2c0-.7-.4-1.3-1-1.7v-1.4h3c0-14.8 12.1-27.1 26.9-27.1h.1v-8.1h-.1c-19.3 0-34.9 15.5-34.9 35.2"/><path fill="#005EC7" d="M221.4 102.7v2.9H220c-.4-.5-1-.9-1.7-.9-1.1 0-2 .9-2 2s.9 2 2 2c.7 0 1.3-.4 1.7-1h1.4v3c14.8 0 27.1 12.1 27.1 26.9v.1h8.1v-.1c.1-19.3-15.5-34.9-35.2-34.9"/><path fill="#FFC740" d="M248.7 137.7h3v-1.4c-.5-.4-1-1-1-1.7 0-1.1.9-2.1 2-2.1s2.1.9 2.1 2c0 .7-.4 1.4-.9 1.7v1.4h2.8c0 4.4 3.6 7.9 8 7.9l.1 8.1c-8.8.1-16-7-16.1-15.9"/><path fill="#005EC7" d="M264.4 153.6v-3H263c-.4.5-1 1-1.7 1-1.1 0-2.1-.9-2.1-2s.9-2.1 2.1-2.1c.7 0 1.4.4 1.7.9h1.4v-2.8c4.4 0 7.8-4.1 7.8-8.5h8.1c-.1 8.8-7.1 16.5-15.9 16.5"/><path fill="#FFC740" d="M275.1 137.7v1.4c-.5.4-.9 1-.9 1.7 0 1.1.9 2 2 2s2-.9 2-2c0-.7-.4-1.3-.9-1.7v-1.4h2.9v-29l-8.1-.1v29.1h3z"/><path fill="#005EC7" d="M272.3 108.8h3v1.4c-.5.4-1 1-1 1.7 0 1.1.9 2.1 2 2.1s2.1-.9 2.1-2.1c0-.7-.4-1.4-.9-1.7v-1.4h2.8c0-4.4 4.1-7.8 8.5-7.8v-8c-8.8-.1-16.5 6.9-16.5 15.8"/><path fill="#FFC740" d="M288.7 95.7h-1.4c-.4-.5-1-.9-1.7-.9-1.1 0-2 .9-2 2s.9 2 2 2c.7 0 1.3-.4 1.7-.9h1.4v2.9h29l.1-8.1h-29.1v3z"/><path fill="#FF7361" d="M317.2 95.6h-1.4c-.4-.5-1-.9-1.7-.9-1.1 0-2 .9-2 2s.9 2 2 2c.7 0 1.3-.4 1.7-.9h1.4v2.9h29l.1-8.1h-29.1v3z"/><path fill="#005EC7" d="M346 92.7v2.9h-1.4c-.4-.5-1-.9-1.7-.9-1.1 0-2 .9-2 2s.9 2 2 2c.7 0 1.3-.4 1.7-1h1.4v3c14.8 0 27.1 12.1 27.1 26.9v.1h8.1v-.1c0-19.3-15.5-34.9-35.2-34.9"/><path fill="#FFC740" d="M378.4 127v-1.4c.5-.4.9-1 .9-1.7 0-1.1-.9-2-2-2s-2 .9-2 2c0 .7.4 1.3.9 1.7v1.4h-2.9v29l8.1.1V127h-3z"/><path fill="#FF7361" d="M378.4 155.6v-1.4c.5-.4.9-1 .9-1.7 0-1.1-.9-2-2-2s-2 .9-2 2c0 .7.4 1.3.9 1.7v1.4h-2.9v29l8.1.1v-29.1h-3z"/><path fill="#FFC740" d="M373.2 184.5h3v-1.4c-.5-.4-1-1-1-1.7 0-1.1.9-2.1 2-2.1s2.1.9 2.1 2c0 .7-.4 1.4-.9 1.7v1.4h2.8c0 4.4 3.6 7.9 8 7.9l.1 8.1c-8.8.1-16-7-16.1-15.9"/><path fill="#FF7361" d="M389.1 200.4v-3h-1.4c-.4.5-1 1-1.7 1-1.1 0-2.1-.9-2.1-2s.9-2.1 2-2.1c.7 0 1.4.4 1.7.9h1.4v-2.8c4.4 0 7.9-3.6 7.9-8l8.1-.1c.1 8.8-7.1 16-15.9 16.1"/><path fill="#005EC7" d="M402.1 185.3v1.4c.5.4.9 1 .9 1.7 0 1.1-.9 2-2 2s-2-.9-2-2c0-.7.4-1.3.9-1.7v-1.4H397v-29l8.1-.1v29.1h-3z"/><path fill="#FFC740" d="M396.9 156.4h3v1.4c-.5.4-1 1-1 1.7 0 1.1.9 2.1 2 2.1s2.1-.9 2.1-2c0-.7-.4-1.4-.9-1.7v-1.4h2.8c0-4.4 3.6-7.9 8-7.9l.1-8.1c-8.7-.1-16 7.1-16.1 15.9"/><path fill="#FF7361" d="M412.8 140.5v3h-1.4c-.4-.5-1-1-1.7-1-1.1 0-2.1.9-2.1 2s.9 2.1 2 2.1c.7 0 1.4-.4 1.7-.9h1.4v2.8c4.4 0 7.9 3.6 7.9 8l8.1.1c.1-8.8-7-16-15.9-16.1"/><path fill="#005EC7" d="M425.8 156.2v-1.4c.5-.4.9-1 .9-1.7 0-1.1-.9-2-2-2s-2 .9-2 2c0 .7.4 1.3.9 1.7v1.4h-2.9v29.1l8.1.1v-29.1l-3-.1z"/><path fill="#FFC740" d="M420.6 185.1h3v-1.4c-.5-.4-1-1-1-1.7 0-1.1.9-2.1 2-2.1s2.1.9 2.1 2c0 .7-.4 1.4-.9 1.7v1.4h2.8c0 4.4 3.6 7.9 8 7.9l.1 8.1c-8.7.1-16-7.1-16.1-15.9"/><path fill="#FF7361" d="M436.5 201v-3h-1.4c-.4.5-1 1-1.7 1-1.1 0-2.1-.9-2.1-2s.9-2.1 2-2.1c.7 0 1.4.4 1.7.9h1.4V193c4.4 0 7.9-3.6 7.9-8l8.1-.1c.1 8.7-7.1 16-15.9 16.1"/><path fill="#FFC740" d="M447.3 186v1.4c-.5.4-.9 1-.9 1.7 0 1.1.9 2 2 2s2-.9 2-2c0-.7-.4-1.3-.9-1.7V186h2.9v-29.1l-8.1-.1V186h3z"/><path fill="#005EC7" d="M444.4 156.8h3v1.4c-.5.4-1 1-1 1.7 0 1.1.9 2.1 2 2.1s2.1-.9 2.1-2.1c0-.7-.4-1.4-.9-1.7v-1.4h2.8c0-4.4 4.1-7.8 8.5-7.8v-8.1c-8.8 0-16.5 7-16.5 15.9"/><path fill="#FFC740" d="M460.6 144.1h-1.4c-.4-.5-1-.9-1.7-.9-1.1 0-2 .9-2 2s.9 2 2 2c.7 0 1.3-.4 1.7-.9h1.4v2.9h29l.1-8.1h-29.1v3z"/><path fill="#FF7361" d="M489.1 149.6v-2.9h-1.4c-.4.5-1 .9-1.7.9-1.1 0-2-.9-2-2s.9-2 2-2c.7 0 1.3.4 1.7 1h1.4v-3c14.8 0 27.1-12.1 27.1-26.9v-.1h8.1v.1c.1 19.2-15.5 34.9-35.2 34.9"/><path fill="#005EC7" d="M516.4 114.9h3v1.4c-.5.4-1 1-1 1.7 0 1.1.9 2.1 2 2.1s2.1-.9 2.1-2.1c0-.7-.4-1.4-.9-1.7V115h2.8c0-4.4 3.6-7.9 8-7.9V99c-8.8-.1-16 7.1-16 15.9"/><path fill="#FF7361" d="M532.4 107.2v-3H531c-.4.5-1 1-1.7 1-1.1 0-2.1-.9-2.1-2s.9-2.1 2-2.1c.7 0 1.4.4 1.7.9h1.4v-2.8c4.4 0 7.9-3.6 7.9-8l8.1-.1c0 8.7-7.1 16-15.9 16.1"/><path fill="#FFC740" d="M540.1 91.1h3v1.4c-.5.4-1 1-1 1.7 0 1.1.9 2.1 2 2.1s2.1-.9 2.1-2.1c0-.7-.4-1.4-.9-1.7v-1.4h2.8c0-4.4 3.6-7.9 8-7.9v-8.1c-8.8 0-16 7.2-16 16"/><path fill="#005EC7" d="M422.3 104.2c-2.8 0-5-2.3-5-5 0-2.8 2.3-5 5-5 2.8 0 5 2.3 5 5 .1 2.7-2.2 5-5 5m-133.5 12.1c-2.8 0-5-2.3-5-5 0-2.8 2.3-5 5-5 2.8 0 5 2.3 5 5 .1 2.8-2.2 5-5 5m100.4 24.6c-2.8 0-5-2.3-5-5 0-2.8 2.3-5 5-5 2.8 0 5 2.3 5 5 0 2.8-2.2 5-5 5m175.7 53.3c-2.8 0-5-2.3-5-5s2.3-5 5-5c2.8 0 5 2.3 5 5s-2.2 5-5 5M236.3 97c-2.8 0-5-2.3-5-5s2.3-5 5-5c2.8 0 5 2.3 5 5s-2.3 5-5 5m-14.9 29.1c-2.8 0-5-2.3-5-5 0-2.8 2.3-5 5-5 2.8 0 5 2.3 5 5s-2.2 5-5 5M48.5 116c-2.8 0-5-2.3-5-5 0-2.8 2.3-5 5-5 2.8 0 5 2.3 5 5s-2.2 5-5 5M242 163.2c-2.8 0-5-2.3-5-5s2.3-5 5-5c2.8 0 5 2.3 5 5s-2.2 5-5 5"/><path fill="#FF7361" d="M474.1 122.9h3.7v10.4h-3.7z"/><path fill="#005EC7" d="M471.3 130.8l4.6-18 4.8 18"/><path fill="#FF7361" d="M181.7 178.8h3.7v10.4h-3.7z"/><path fill="#005EC7" d="M178.9 186.7l4.6-18 4.7 18"/><path fill="#FF7361" d="M170 168.5h3.7v10.4H170z"/><path fill="#005EC7" d="M167.3 176.5l4.6-18.1 4.7 18.1m-18.7 15.4l4.6-18 4.8 18"/><path fill="#FF7361" d="M361.7 168.5h3.7v10.4h-3.7z"/><path fill="#005EC7" d="M358.9 176.5l4.7-18.1 4.7 18.1"/><path fill="#FF7361" d="M547.6 114.3h3.7v10.4h-3.7z"/><path fill="#005EC7" d="M544.8 122.2l4.6-18 4.7 18"/><path fill="#FFC740" d="M472.3 163.8h12.9v15.1h-12.9z"/><path fill="#FF7361" d="M478.7 154.4l7.5 9.4h-14.9"/><path fill="#005EC7" d="M478.7 162.4c-.9 0-1.7-.8-1.7-1.7 0-.9.8-1.7 1.7-1.7.9 0 1.7.8 1.7 1.7 0 .9-.7 1.7-1.7 1.7"/><path fill="#FF7361" d="M476.9 171.9h3.6v7h-3.6z"/><path fill="#FFC740" d="M288.2 71.8h20.9v15.1h-20.9z"/><path fill="#FF7361" d="M298.5 62.4l12.2 9.4h-24.1"/><path fill="#005EC7" d="M302.5 74.3h3.2v3.2h-3.2z"/><path fill="#FF7361" d="M291.2 79.8h3.6v7h-3.6z"/><path fill="#FFC740" d="M108.8 180.1h15.6v18.4h-15.6z"/><path fill="#FF7361" d="M116.5 168.7l9.1 11.4h-18"/><path fill="#005EC7" d="M118.8 182.5h3.2v3.2h-3.2z"/><path fill="#FF7361" d="M114.8 191.5h3.6v7h-3.6z"/><path fill="#005EC7" d="M114.8 182.5h3.2v3.2h-3.2zm-4.1 0h3.2v3.2h-3.2z"/><path fill="#FFC740" d="M145.3 140.2h25.2v18.2h-25.2z"/><path fill="#FF7361" d="M157.9 133.2l-14.6 7h29.1"/><path fill="#005EC7" d="M150.4 143.7h3.2v3.2h-3.2z"/><path fill="#FF7361" d="M156.1 151.4h3.6v7h-3.6zm6.5-18.1h3.3v4.7h-3.3z"/><path fill="#005EC7" d="M214.7 143c-.6-2.1-2.3-3.8-5.1-5.2-2.5-1.2-4-2.8-4.5-4.5-.5-1.8-.1-3.9 1.3-6.2l-1-.6c-3.1 5.3-1.9 9.6 3.6 12.4 2.5 1.2 4 2.8 4.5 4.5.5 1.8.1 3.9-1.3 6.2l1 .6c1.6-2.8 2.1-5.2 1.5-7.2m6.8 23.1c-.6-2.1-2.3-3.8-5.1-5.2-2.5-1.2-4-2.8-4.5-4.5-.5-1.8-.1-3.9 1.3-6.2l-1-.6c-3.1 5.3-1.9 9.6 3.6 12.4 2.5 1.2 4 2.8 4.5 4.5.5 1.8.1 3.9-1.3 6.2l1 .6c1.6-2.7 2.1-5.1 1.5-7.2"/><path fill="#005EC7" d="M209.5 145.6c-.6-2.1-2.3-3.8-5.1-5.2-2.5-1.2-4-2.8-4.5-4.5-.5-1.8-.1-3.9 1.3-6.2l-1-.6c-3.1 5.3-1.9 9.6 3.6 12.4 2.5 1.2 4 2.8 4.5 4.5.5 1.8.1 3.9-1.3 6.2l1 .6c1.6-2.8 2.1-5.2 1.5-7.2m6.7 23.1c-.6-2.1-2.3-3.8-5.1-5.2-2.5-1.2-4-2.8-4.5-4.5-.5-1.8-.1-3.9 1.3-6.2l-1-.6c-3.1 5.3-1.9 9.6 3.6 12.4 2.5 1.2 4 2.8 4.5 4.5.5 1.8.1 3.9-1.3 6.2l1 .6c1.7-2.7 2.1-5.1 1.5-7.2"/><path fill="#FF7361" d="M556.1 83.1v-3h-1.4c-.4.5-1 1-1.7 1-1.1 0-2.1-.9-2.1-2s.9-2.1 2-2.1c.7 0 1.4.4 1.7.9h1.4v-2.8c4.4 0 7.9-3.6 7.9-8l8.1-.1c.1 8.8-7 16-15.9 16.1"/><path fill="#005EC7" d="M564.1 67h3v1.4c-.5.4-1 1-1 1.7 0 1.1.9 2.1 2 2.1s2.1-.9 2.1-2.1c0-.7-.4-1.4-.9-1.7V67h2.8c0-4.4 3.6-7.9 8-7.9V51c-8.8-.1-16 7.1-16 16"/><path fill="#FF7361" d="M580 56h-1.3c-.3.5-1 .9-1.6.9-1.1 0-2-.9-2-1.9 0-1.1.9-2 2-2 .7 0 1.3.4 1.6.9h1.3V51h28.1l.1 7.8H580V56z"/><path fill="#005EC7" d="M608.1 56h-1.3c-.3.5-1 .9-1.6.9-1.1 0-2-.9-2-1.9 0-1.1.9-2 2-2 .7 0 1.3.4 1.6.9h1.3V51h28.1l.1 7.8h-28.2V56z"/><path fill="#FFC740" d="M634.5 56.1h-1.4c-.4.5-1 .9-1.7.9-1.1 0-2-.9-2-2s.9-2 2-2c.7 0 1.3.4 1.7.9h1.4V51h29l.1 8.1h-29.1v-3z"/><path fill="#FF7361" d="M644.7 32.6h3.7V43h-3.7z"/><path fill="#005EC7" d="M641.9 40.6l4.6-18 4.7 18"/><path fill="#FF7361" d="M627.6 32.6h3.7V43h-3.7z"/><path fill="#005EC7" d="M624.8 40.6l4.6-18 4.7 18"/><path fill="#FFC740" d="M612 68.1h15.6v18.4H612z"/><path fill="#FF7361" d="M619.7 56.7l9 11.4h-18"/><path fill="#005EC7" d="M622 70.5h3.2v3.2H622z"/><path fill="#FF7361" d="M617.9 79.5h3.6v7h-3.6z"/><path fill="#005EC7" d="M617.9 70.5h3.2v3.2h-3.2zm-4 0h3.2v3.2h-3.2z"/><path fill="#FFC740" d="M564.5 26.6h25.2v18.2h-25.2z"/><path fill="#FF7361" d="M577.1 19.6l-14.5 7h29.1"/><path fill="#005EC7" d="M569.6 30.1h3.2v3.2h-3.2z"/><path fill="#FF7361" d="M575.3 37.8h3.6v7h-3.6zm6.5-18.1h3.3v4.7h-3.3z"/><path fill="#005EC7" d="M641.9 71.3c-2.8 0-5-2.3-5-5 0-2.8 2.3-5 5-5 2.8 0 5 2.3 5 5s-2.2 5-5 5"/><path fill="#FF7361" d="M125.8 147.4h2.8v11.1h-2.8z"/><g><path fill="#FF7361" d="M127.6 153.5v-2.2c-1.5 0-2-.4-2.3-.7-.6-.6-.8-2-.7-4.1l-2.2-.1c-.2 2.8.2 4.6 1.3 5.7.9.9 2.1 1.4 3.9 1.4"/><path fill="#FFC740" d="M117.9 140.2c0 5.1 4.1 9.2 9.2 9.2s9.2-4.1 9.2-9.2-4.1-9.2-9.2-9.2c-5 0-9.2 4.1-9.2 9.2"/></g><path fill="#FF7361" d="M344 122.1h2.8v11.1H344z"/><g><path fill="#FF7361" d="M345 128.2V126c1.5 0 2-.4 2.3-.7.6-.6.8-2 .7-4.1l2.2-.1c.2 2.8-.2 4.6-1.3 5.7-.9 1-2.2 1.4-3.9 1.4"/><path fill="#FFC740" d="M354.6 115c0 5.1-4.1 9.2-9.2 9.2s-9.2-4.1-9.2-9.2 4.1-9.2 9.2-9.2c5.1-.1 9.2 4.1 9.2 9.2"/></g><path fill="#FF7361" d="M592.6 76.3h2.8v11.1h-2.8z"/><g><path fill="#FF7361" d="M593.5 82.4v-2.2c1.5 0 2-.4 2.3-.7.6-.6.8-2 .7-4.1l2.2-.1c.2 2.8-.2 4.6-1.3 5.7-.9 1-2.1 1.4-3.9 1.4"/><path fill="#FFC740" d="M603.2 69.2c0 5.1-4.1 9.2-9.2 9.2s-9.2-4.1-9.2-9.2 4.1-9.2 9.2-9.2c5-.1 9.2 4.1 9.2 9.2"/></g><g fill="#FF7361"><path d="M164.6 130.1c.7-.6 1-1.2 1-1.9s-.4-1.3-1-1.9c-.4-.4-.7-.7-.7-1.1 0-.3.2-.7.7-1.1l-.7-.8c-.7.6-1 1.2-1 1.9s.4 1.3 1 1.9c.4.4.7.7.7 1.1 0 .3-.2.7-.7 1.1l.7.8z"/><path d="M164.6 124.2c.7-.6 1-1.2 1-1.9s-.4-1.3-1-1.9c-.4-.4-.7-.7-.7-1.1 0-.3.2-.7.7-1.1l-.7-.8c-.7.6-1 1.2-1 1.9s.4 1.3 1 1.9c.4.4.7.7.7 1.1 0 .3-.2.7-.7 1.1l.7.8z"/></g></svg>