<?xml version="1.0" encoding="utf-8"?>
<!-- Generator: Adobe Illustrator 18.1.1, SVG Export Plug-In . SVG Version: 6.00 Build 0)  -->
<svg version="1.1" id="Layer_1" xmlns="http://www.w3.org/2000/svg" xmlns:xlink="http://www.w3.org/1999/xlink" x="0px" y="0px"
	 viewBox="0 0 194.2 70" enable-background="new 0 0 194.2 70" xml:space="preserve">
<g>
	<defs>
		<rect id="SVGID_1_" x="2.5" y="4" width="189.2" height="62"/>
	</defs>
	<clipPath id="SVGID_2_">
		<use xlink:href="#SVGID_1_"  overflow="visible"/>
	</clipPath>
	<path clip-path="url(#SVGID_2_)" fill="#FDFFF3" d="M23.2,66c-6.5,0-12.4-2.9-16.4-8.1C4,54.2,2.5,49.9,2.5,45.3
		c0-1.4,0.2-2.9,0.5-4.1c0.8-4.6,4.1-12.1,10.2-22.4c4.5-7.6,8.1-13.4,8.3-13.4C21.8,4.8,22.2,4,23.2,4c1,0,1.4,0.8,1.9,1.4
		c0,0,3.8,5.7,8.3,13.4c6,10.3,9.4,17.8,10.2,22.4c0.3,1.3,0.5,2.7,0.5,4.1c0,4.6-1.4,8.9-4.3,12.6C35.6,63,29.6,66,23.2,66
		 M23.2,60.6c4.9,0,9.4-2.2,12.4-6c2.1-2.7,3.2-6,3.2-9.5c0-1.1-0.2-2.1-0.3-3.2c-0.6-3.5-3.3-9.5-7.9-17.6C27,18,24,13.5,24,13.5
		l-0.8-1.1l-0.6,1c0,0-3,4.6-6.5,10.7c-4.8,8.1-7.5,14.1-7.9,17.6c-0.2,1.1-0.3,2.1-0.3,3.2c0,3.5,1.1,6.7,3.2,9.5
		C13.8,58.4,18.3,60.6,23.2,60.6 M191.7,36.3c0-11.1-9.1-20.2-20.2-20.2c-11.1,0-20.2,9.1-20.2,20.2c0,11.1,9.1,20.2,20.2,20.2
		C182.7,56.5,191.7,47.4,191.7,36.3 M171.5,51.4c-8.3,0-15.1-6.7-15.1-15.1c0-8.3,6.7-15.1,15.1-15.1c8.3,0,15.1,6.7,15.1,15.1
		C186.6,44.7,179.8,51.4,171.5,51.4 M146.6,36.3c0-11.1-9.1-20.2-20.2-20.2s-20.2,9.1-20.2,20.2c0,11.1,9.1,20.2,20.2,20.2
		S146.6,47.4,146.6,36.3 M126.4,51.4c-8.3,0-15.1-6.7-15.1-15.1c0-8.3,6.7-15.1,15.1-15.1c8.3,0,15.1,6.7,15.1,15.1
		C141.5,44.7,134.6,51.4,126.4,51.4 M81.2,46.6l14.6-28.3c0.5-1.1,1.3-1.7,2.5-1.7c1.4,0,2.5,1,2.5,2.5v34.2c0,1.4-1,2.7-2.5,2.7
		c-1.7,0-2.7-1.3-2.7-2.7V29.4L84.1,51.7c-1,1.4-2.1,1.7-2.9,1.7c-0.6,0-1.9-0.2-2.9-1.7L66.8,29.4v23.8c0,1.4-1,2.7-2.7,2.7
		c-1.6,0-2.5-1.3-2.5-2.7v-34c0-1.7,1.1-2.5,2.5-2.5c1.3,0,1.9,0.6,2.5,1.7L81.2,46.6z"/>
</g>
</svg>
