<?xml version="1.0" encoding="utf-8"?>
<!-- Generator: Adobe Illustrator 18.1.1, SVG Export Plug-In . SVG Version: 6.00 Build 0)  -->
<svg version="1.1" id="Layer_1" xmlns="http://www.w3.org/2000/svg" xmlns:xlink="http://www.w3.org/1999/xlink" x="0px" y="0px"
	 viewBox="0 0 30 30" enable-background="new 0 0 30 30" xml:space="preserve">
<path fill="#FF7260" d="M29.5,15C29.5,15,29.5,15,29.5,15c0-0.2,0-0.4-0.1-0.6c0,0,0,0,0,0c-0.1-0.2-0.2-0.4-0.3-0.5L18.9,3.7
	c-0.6-0.6-1.6-0.6-2.2,0c-0.6,0.6-0.6,1.6,0,2.2l7.5,7.5H2.1c-0.9,0-1.6,0.7-1.6,1.6s0.7,1.6,1.6,1.6h22.1l-7.5,7.5
	c-0.6,0.6-0.6,1.6,0,2.2c0.3,0.3,0.7,0.5,1.1,0.5s0.8-0.2,1.1-0.5L29,16.1c0.1-0.1,0.3-0.3,0.3-0.5c0,0,0,0,0,0
	C29.5,15.4,29.5,15.2,29.5,15C29.5,15,29.5,15,29.5,15L29.5,15L29.5,15z"/>
</svg>
