<svg width="300" height="150" viewBox="0 0 300 150" xmlns="http://www.w3.org/2000/svg"><title>Shape</title><path d="M25.7 150c1.3-2 4-2.9 6.2-1.7.7.4 1.3.7 1.7 1.7H300V0H0v150h25.7zm268.2-72.8c2.6 0 4.6 2.1 4.6 4.6 0 2.6-2.1 4.6-4.6 4.6-2.6 0-4.6-2.1-4.6-4.6 0-2.5 2.1-4.6 4.6-4.6zm-45.3 32.9l1 .4c-1 2.3-1.1 4.3-.5 5.8.7 1.5 2.2 2.8 4.6 3.6 5.3 1.9 7 5.6 4.8 10.8l-1-.4c1-2.3 1.1-4.3.5-5.8-.7-1.5-2.2-2.8-4.6-3.6-2.7-.9-4.4-2.3-5.2-4.2-.9-1.7-.7-3.9.4-6.6zm-10-95.9c2.6 0 4.6 2.1 4.6 4.6 0 2.6-2.1 4.6-4.6 4.6-2.5 0-4.6-2.1-4.6-4.6 0-2.6 2-4.6 4.6-4.6zm-64.9 46.2c2.5.5 4.4.3 5.8-.7 1.4-1 2.3-2.7 2.6-5.2.4-2.8 1.4-4.8 3.1-5.9 1.6-1.1 3.9-1.4 6.6-.9l-.2 1c-2.5-.5-4.4-.3-5.8.7-1.4 1-2.3 2.7-2.6 5.2-.8 5.6-4.2 7.9-9.7 6.8l.2-1zm-41.5 60.1c2.6 0 4.6 2.1 4.6 4.6 0 2.6-2.1 4.6-4.6 4.6-2.6 0-4.6-2.1-4.6-4.6 0-2.5 2.1-4.6 4.6-4.6zM92.8 20.2c2.6 0 4.6 2.1 4.6 4.6 0 2.6-2.1 4.6-4.6 4.6-2.6 0-4.6-2.1-4.6-4.6-.1-2.5 2-4.6 4.6-4.6zM26 34.1l1 .4c-.9 2.4-1 4.3-.3 5.9.7 1.5 2.3 2.7 4.7 3.5 5.4 1.7 7.1 5.4 5.1 10.7l-1-.4c.9-2.4 1-4.3.3-5.9-.7-1.5-2.3-2.7-4.7-3.5-2.7-.9-4.5-2.2-5.4-4-.9-1.8-.8-4 .3-6.7z" fill="#FFF" fill-rule="evenodd"/></svg>