<?xml version="1.0" encoding="utf-8"?>
<!-- Generator: Adobe Illustrator 18.1.1, SVG Export Plug-In . SVG Version: 6.00 Build 0)  -->
<svg version="1.1" id="Layer_1" xmlns="http://www.w3.org/2000/svg" xmlns:xlink="http://www.w3.org/1999/xlink" x="0px" y="0px"
	 viewBox="-160 -222.6 400 406" enable-background="new -160 -222.6 400 406" xml:space="preserve">
<path fill="#FFFFFF" d="M-160-222.6v406h400v-406H-160z M-140.6-137.7c0-3.5,2.8-6.2,6.2-6.2s6.2,2.7,6.2,6.2s-2.8,6.2-6.2,6.2
	C-137.8-131.4-140.6-134.2-140.6-137.7z M-126.1,66c-3.5,0-6.2-2.7-6.2-6.2c0-3.5,2.8-6.2,6.2-6.2s6.2,2.7,6.2,6.2
	C-119.9,63.3-122.6,66-126.1,66z M-86.4,137.3c-3.2-1.2-5.9-1.4-8-0.4c-2.1,1-3.6,3.1-4.8,6.4c-1.1,3.6-3,6.1-5.4,7.2s-5.5,1-9-0.4
	l0.5-1.4c3.2,1.2,5.9,1.4,8,0.4c2.1-1,3.6-3.1,4.8-6.4c2.4-7.2,7.4-9.6,14.5-6.9L-86.4,137.3z M-76.6-49.5l-1.4-0.2
	c0.7-3.4,0.4-6-0.9-7.9c-1.4-1.9-3.8-3.1-7.1-3.6c-3.8-0.5-6.5-2-8-4.1c-1.5-2.2-1.9-5.2-1.1-9l1.4,0.2c-0.7,3.4-0.4,6,0.9,7.9
	c1.4,1.9,3.8,3.1,7.1,3.6C-78.2-61.5-75-57-76.6-49.5z M-48.9-206.3c-3.5,0-6.2-2.7-6.2-6.2s2.7-6.2,6.2-6.2c3.5,0,6.2,2.7,6.2,6.2
	S-45.5-206.3-48.9-206.3z M9.8,12.5c-3.5,0-6.2-2.7-6.2-6.2s2.7-6.2,6.2-6.2S16,2.8,16,6.3S13.3,12.5,9.8,12.5z M17-163.3
	c-3.1-1.4-5.9-1.5-7.9-0.6c-2.1,0.9-3.8,3-4.9,6.2c-1.2,3.6-3.1,6-5.6,7.1c-2.5,1.1-5.5,0.9-9-0.6l0.5-1.2c3.1,1.4,5.9,1.5,7.9,0.6
	c2.1-0.9,3.8-3,4.9-6.2c2.6-7.2,7.6-9.5,14.8-6.5L17-163.3z M51.9,148.3c-1.6,3-5.5,4.1-8.5,2.5c-3-1.6-4.1-5.5-2.5-8.5
	c1.6-3,5.5-4.1,8.5-2.5C52.4,141.5,53.5,145.2,51.9,148.3z M83-92.3c0-3.5,2.8-6.2,6.2-6.2s6.2,2.7,6.2,6.2c0,3.5-2.8,6.2-6.2,6.2
	C85.8-86,83-88.8,83-92.3z M115,43.4c-2.3-2.6-4.6-3.9-6.9-4c-2.3-0.1-4.8,1.1-7.1,3.5c-5.5,5.4-11,5.2-16-0.6l1-0.9
	c2.2,2.6,4.6,3.9,6.9,4c2.2,0.1,4.8-1.1,7.1-3.5c2.7-2.7,5.5-4,8.1-3.9c2.7,0.1,5.4,1.6,7.9,4.5L115,43.4z M126.5-194.8l-1.4-0.1
	c0.4-3.4-0.2-6-1.6-7.7c-1.5-1.7-4-2.7-7.4-2.9c-3.9-0.1-6.6-1.4-8.4-3.4c-1.7-2-2.4-5-2-8.9l1.4,0.1c-0.4,3.4,0.2,6,1.6,7.7
	c1.5,1.7,4,2.7,7.4,2.9C123.8-206.7,127.4-202.4,126.5-194.8z M175.1-76.8l-1-1c2.4-2.5,3.5-4.9,3.4-7.1c-0.1-2.2-1.5-4.6-4.1-6.7
	c-5.9-5-6.1-10.5-0.8-16l1,1c-2.4,2.5-3.5,4.9-3.4,7.1c0.1,2.2,1.5,4.6,4.1,6.7c2.9,2.5,4.5,5.1,4.6,7.7
	C179-82.3,177.8-79.5,175.1-76.8z M189.4,142.8c-0.3,2.6-1.9,5.2-5,7.6l-0.9-1.1c2.8-2.1,4.2-4.4,4.4-6.6c0.3-2.2-0.9-4.7-3.1-7.4
	c-5-5.7-4.5-11.2,1.5-16l0.9,1.1c-2.8,2.1-4.2,4.4-4.4,6.6c-0.3,2.2,0.9,4.7,3.1,7.4C188.5,137.3,189.6,140.1,189.4,142.8z
	 M198-181.6c-3.1-1.6-4.2-5.4-2.6-8.5s5.4-4.2,8.5-2.6c3.1,1.6,4.2,5.4,2.6,8.5C204.9-181.2,201.1-180,198-181.6z M212.8,25.4
	c-1.6,3.1-5.4,4.2-8.5,2.6c-3.1-1.6-4.2-5.4-2.6-8.5c1.6-3.1,5.4-4.2,8.5-2.6C213.3,18.5,214.4,22.3,212.8,25.4z"/>
</svg>
