<svg xmlns="http://www.w3.org/2000/svg" viewBox="0 0 363 177" width="363" height="177"><path fill="#FF7361" d="M99.8 73.2c0-1 .8-1.7 1.7-1.7s1.7.8 1.7 1.7c0 1-.8 1.7-1.7 1.7s-1.7-.7-1.7-1.7"/><path fill="#FFC640" d="M150.3 157.1c0-1 .8-1.7 1.7-1.7s1.7.8 1.7 1.7-.8 1.7-1.7 1.7-1.7-.8-1.7-1.7"/><path fill="#FF7361" d="M38.8 132.2c0-1 .8-1.7 1.7-1.7 1 0 1.7.8 1.7 1.7s-.8 1.7-1.7 1.7c-.9.1-1.7-.7-1.7-1.7"/><path fill="#FFC640" d="M215 32.1c0-1 .8-1.7 1.7-1.7s1.7.8 1.7 1.7c0 1-.8 1.7-1.7 1.7s-1.7-.7-1.7-1.7"/><path fill="#FF7361" d="M297.8 120.8c0-1 .8-1.7 1.7-1.7s1.7.8 1.7 1.7-.8 1.7-1.7 1.7-1.7-.7-1.7-1.7"/><path fill="#FFC640" d="M211.5 105.6c0-1 .8-1.7 1.7-1.7s1.7.8 1.7 1.7-.8 1.7-1.7 1.7-1.7-.7-1.7-1.7"/><path fill="#FFF" d="M322.1 78.8c0-1 .8-1.7 1.7-1.7s1.7.8 1.7 1.7c0 1-.8 1.7-1.7 1.7s-1.7-.7-1.7-1.7"/><path fill="#FFC640" d="M47.8 67.1l-6-3.4c-2.8 5.1-9.2 7.1-14.5 4.2l-3.4 6c8.5 4.8 19.1 1.8 23.9-6.8m-3.3-4.7c.5-.8 1.5-1.1 2.4-.7.8.5 1.1 1.5.7 2.4-.5.8-1.5 1.1-2.4.7-.9-.5-1.2-1.6-.7-2.4"/><path fill="#FFC640" d="M46.846 63.65l-1.26 2.273-1.662-.92 1.26-2.275z"/><path d="M217.7 149.7l5.1 4.7c4-4.3 10.7-4.6 15.1-.5l4.7-5.1c-7.2-6.7-18.2-6.3-24.9.9m2 5.3c-.7.7-1.7.7-2.4.1-.7-.7-.7-1.7-.1-2.4.7-.7 1.8-.7 2.4-.1.7.6.8 1.7.1 2.4" fill="#FF7361"/><path fill="#FF7361" d="M217.816 153.204l1.773-1.902 1.39 1.296-1.776 1.9zM167.9 37.5v-6.9c-5.8 0-10.7-4.6-10.7-10.7h-6.9c0 9.8 7.8 17.6 17.6 17.6m2.5-5.1c1 0 1.7.8 1.7 1.7s-.8 1.7-1.7 1.7c-1 0-1.7-.8-1.7-1.7s.8-1.7 1.7-1.7"/><path fill="#FF7361" d="M167.9 33.2h2.6v1.9h-2.6z"/><path fill="#FFF" d="M71.493 23.678l8.442-13 5.62 3.65-8.442 13zM72 29.1c-.8-.5-1-1.6-.5-2.4.5-.8 1.6-1 2.4-.5.8.5 1 1.6.5 2.4-.5.8-1.6 1-2.4.5"/><path fill="#FFF" d="M75.18 26.06l-1.416 2.18-1.593-1.035 1.418-2.18z"/><path fill="#FFC640" d="M320.47 28.664l1.62 6.502-15.04 3.747-1.62-6.5zm5.03 2.236c.2.9-.3 1.9-1.3 2.1-.9.2-1.9-.3-2.1-1.3-.2-.9.3-1.9 1.3-2.1.9-.2 1.9.4 2.1 1.3"/><path fill="#FFC640" d="M321.108 31.034l2.523-.63.46 1.844-2.522.63z"/><path fill="#FFF" d="M162.412 75.25l5.916 3.144-7.275 13.686-5.916-3.145zM167.4 73c.8.4 1.2 1.5.7 2.3-.4.8-1.5 1.2-2.3.7-.8-.4-1.2-1.5-.7-2.3.4-.9 1.4-1.2 2.3-.7"/><path fill="#FFF" d="M164.54 76.304l1.22-2.296 1.678.892-1.22 2.296z"/><path fill="#FF7361" d="M325.048 147.36l-2.832-6.072 14.048-6.55 2.832 6.07zM319.8 146.1c-.4-.9 0-1.9.8-2.3.9-.4 1.9 0 2.3.8.4.9 0 1.9-.8 2.3-.9.4-1.9.1-2.3-.8"/><path fill="#FF7361" d="M324.05 145.098l-2.356 1.098-.803-1.722 2.36-1.098zm-228.17-19.99l3.844-5.49 12.696 8.89-3.843 5.49zM94.3 119.9c.5-.8 1.6-1 2.4-.4.8.5 1 1.6.4 2.4-.5.8-1.6 1-2.4.4-.7-.6-.9-1.7-.4-2.4"/><path fill="#FF7361" d="M97.3 123.136l-2.13-1.49 1.09-1.557 2.13 1.49z"/><path d="M263.2 61.5l-6.9-.1c-.1 5.8-4.8 10.6-10.9 10.5l-.1 6.9c9.8.2 17.7-7.5 17.9-17.3m-5.1-2.6c0-1 .8-1.7 1.8-1.7s1.7.8 1.7 1.8-.8 1.7-1.8 1.7c-.9-.1-1.7-.9-1.7-1.8" fill="#FFF"/><path fill="#FFF" d="M260.75 58.883l-.047 2.6-1.9-.034.046-2.6z"/></svg>