<?xml version="1.0" encoding="utf-8"?>
<!-- Generator: Adobe Illustrator 18.1.1, SVG Export Plug-In . SVG Version: 6.00 Build 0)  -->
<svg version="1.1" id="Layer_1" xmlns="http://www.w3.org/2000/svg" xmlns:xlink="http://www.w3.org/1999/xlink" x="0px" y="0px"
	 viewBox="113.2 0 70 100" enable-background="new 113.2 0 70 100" xml:space="preserve">
<path fill="#FFFFFF" d="M110.2-5v110h76V-5H110.2z M167-1.6c0.7-0.6,1.8-0.4,2.4,0.3c0.6,0.7,0.4,1.8-0.3,2.4
	c-0.7,0.6-1.8,0.4-2.4-0.3S166.3-1,167-1.6z M159.4,34.7l0.2,0.3c-0.7,0.6-1.1,1.2-1.1,1.8c0,0.6,0.3,1.2,0.9,1.9
	c1.4,1.5,1.4,2.9-0.2,4.3l-0.2-0.3c0.7-0.6,1.1-1.2,1.1-1.8c0-0.6-0.3-1.2-0.9-1.9c-0.7-0.7-1.1-1.5-1-2.2S158.6,35.3,159.4,34.7z
	 M146.2,17c0.9,0,1.6-0.3,2-0.8c0.4-0.5,0.6-1.2,0.5-2.1c-0.2-2,0.8-3.1,2.8-3.2l0,0.4c-0.9,0-1.6,0.3-2,0.8s-0.6,1.2-0.5,2.1
	c0.1,1-0.1,1.8-0.5,2.4c-0.5,0.6-1.2,0.9-2.3,0.9V17z M113.4,11.7l0.4-0.1c0.3,0.9,0.7,1.4,1.3,1.7c0.5,0.3,1.3,0.2,2.1-0.1
	c0.9-0.4,1.7-0.4,2.4-0.1c0.7,0.3,1.2,0.9,1.5,1.9l-0.4,0.1c-0.3-0.9-0.7-1.4-1.3-1.7c-0.5-0.3-1.3-0.2-2.1,0.1
	C115.4,14.3,114.1,13.7,113.4,11.7z M122.4,97.2c-0.3-0.9-0.6-1.5-1.2-1.8s-1.3-0.3-2.1,0c-1,0.3-1.8,0.3-2.4,0
	c-0.7-0.3-1.1-1-1.4-2l0.4-0.1c0.3,0.9,0.7,1.5,1.2,1.8c0.6,0.3,1.3,0.3,2.1,0c1.9-0.7,3.2,0,3.8,2L122.4,97.2z M125.3,59
	c-0.8,0.6-1.6,0.8-2.3,0.7c-0.7-0.2-1.3-0.7-1.9-1.5l0.3-0.2c0.5,0.8,1,1.2,1.6,1.4c0.6,0.1,1.3-0.1,2-0.6c1.7-1.2,3.1-0.9,4.2,0.9
	l-0.3,0.2c-0.5-0.8-1-1.2-1.6-1.4C126.7,58.3,126,58.5,125.3,59z M129.4,80.8c-0.9,0-1.7-0.7-1.8-1.6c0-0.9,0.7-1.7,1.6-1.8
	c0.9,0,1.7,0.7,1.8,1.6C131,79.9,130.3,80.7,129.4,80.8z M130.9,33c-0.9,0-1.7-0.7-1.7-1.7s0.8-1.7,1.7-1.7c0.9,0,1.7,0.7,1.7,1.7
	S131.9,33,130.9,33z M136.2,3.1c-0.9,0-1.7-0.7-1.7-1.7s0.8-1.7,1.7-1.7c0.9,0,1.7,0.7,1.7,1.7S137.2,3.1,136.2,3.1z M151.4,90
	c-0.9-0.1-1.6,0.1-2.1,0.5c-0.5,0.4-0.7,1.1-0.8,2c-0.1,1-0.4,1.8-0.9,2.2c-0.5,0.5-1.3,0.7-2.3,0.6l0-0.4c0.9,0.1,1.6-0.1,2.1-0.5
	c0.5-0.4,0.7-1.1,0.8-2c0.1-2,1.2-3,3.2-2.8L151.4,90z M160.6,65.5c-0.8-0.5-1.5-0.6-2.1-0.4c-0.6,0.2-1.1,0.7-1.5,1.5
	c-0.5,0.9-1,1.5-1.7,1.7c-0.7,0.2-1.5,0-2.4-0.5l0.2-0.3c0.8,0.5,1.5,0.6,2.1,0.4c0.6-0.2,1.1-0.7,1.5-1.5c0.9-1.8,2.3-2.3,4.1-1.2
	L160.6,65.5z M171.5,102c-0.3-0.9-0.7-1.5-1.2-1.7c-0.6-0.3-1.3-0.2-2.1,0.1c-1,0.3-1.8,0.4-2.4,0c-0.6-0.3-1.1-1-1.4-1.9l0.4-0.1
	c0.3,0.9,0.7,1.5,1.2,1.7c0.6,0.3,1.3,0.2,2.1-0.1c1.9-0.7,3.2-0.1,3.8,1.9L171.5,102z M178.3,89.3c-0.7,0.6-1.8,0.4-2.4-0.3
	s-0.4-1.8,0.3-2.4s1.8-0.4,2.4,0.3C179.2,87.6,179.1,88.7,178.3,89.3z M179.5,31.7c0.7-0.6,1.8-0.5,2.4,0.2c0.6,0.7,0.5,1.8-0.2,2.4
	c-0.7,0.6-1.7,0.5-2.4-0.2C178.7,33.4,178.8,32.3,179.5,31.7z M182.3,66.6c-0.1,0.9-0.9,1.6-1.8,1.5s-1.6-0.9-1.5-1.8
	c0.1-0.9,0.9-1.6,1.8-1.5C181.8,64.9,182.4,65.7,182.3,66.6z M182.6,16c-0.5-0.8-1-1.3-1.6-1.4c-0.6-0.1-1.3,0.1-2,0.6
	c-0.8,0.6-1.6,0.8-2.3,0.6s-1.3-0.7-1.8-1.6l0.3-0.2c0.5,0.8,1,1.3,1.6,1.4c0.6,0.1,1.3-0.1,2-0.6c1.7-1.2,3.1-0.8,4.2,0.9L182.6,16
	z"/>
</svg>
