<?xml version="1.0" encoding="UTF-8" standalone="no"?>
<svg width="301px" height="455px" viewBox="0 0 301 455" version="1.1" xmlns="http://www.w3.org/2000/svg" xmlns:xlink="http://www.w3.org/1999/xlink" xmlns:sketch="http://www.bohemiancoding.com/sketch/ns">
    <!-- Generator: Sketch 3.3.3 (12072) - http://www.bohemiancoding.com/sketch -->
    <title>Shape</title>
    <desc>Created with Sketch.</desc>
    <defs></defs>
    <g id="Page-1" stroke="none" stroke-width="1" fill="none" fill-rule="evenodd" sketch:type="MSPage">
        <g id="circle-squiggle-pattern" sketch:type="MSLayerGroup" fill="#FFFFFF">
            <path d="M0.2,0 L0.2,455 L300.2,455 L300.2,0 L0.2,0 L0.2,0 Z M139.015789,442.236842 C136.252632,444.605263 131.910526,443.815789 129.542105,441.052632 C127.173684,438.289474 127.963158,433.947368 130.726316,431.578947 C133.489474,429.210526 137.831579,430 140.2,432.763158 C142.568421,435.526316 142.173684,439.868421 139.015789,442.236842 L139.015789,442.236842 Z M224.410526,13.4210526 C227.173684,11.0526316 231.515789,11.8421053 233.884211,14.6052632 C236.252632,17.3684211 235.463158,21.7105263 232.7,24.0789474 C229.936842,26.4473684 225.594737,25.6578947 223.226316,22.8947368 C220.857895,20.1315789 221.647368,15.7894737 224.410526,13.4210526 L224.410526,13.4210526 Z M194.410526,156.710526 L195.2,157.894737 C192.436842,160.263158 190.857895,162.631579 190.857895,165 C190.857895,167.368421 192.042105,169.736842 194.410526,172.5 C199.936842,178.421053 199.936842,183.947368 193.621053,189.473684 L192.831579,188.289474 C195.594737,185.921053 197.173684,183.552632 197.173684,181.184211 C197.173684,178.815789 195.989474,176.447368 193.621053,173.684211 C190.857895,170.921053 189.278947,167.763158 189.673684,165 C190.068421,162.236842 191.252632,159.078947 194.410526,156.710526 L194.410526,156.710526 Z M142.305263,86.8421053 C145.857895,86.8421053 148.621053,85.6578947 150.2,83.6842105 C151.778947,81.7105263 152.568421,78.9473684 152.173684,75.3947368 C151.384211,67.5 155.331579,63.1578947 163.226316,62.7631579 L163.226316,64.3421053 C159.673684,64.3421053 156.910526,65.5263158 155.331579,67.5 C153.752632,69.4736842 152.963158,72.2368421 153.357895,75.7894737 C153.752632,79.7368421 152.963158,82.8947368 151.384211,85.2631579 C149.410526,87.6315789 146.647368,88.8157895 142.305263,88.8157895 L142.305263,86.8421053 L142.305263,86.8421053 Z M12.8315789,65.9210526 L14.4105263,65.5263158 C15.5947368,69.0789474 17.1736842,71.0526316 19.5421053,72.2368421 C21.5157895,73.4210526 24.6736842,73.0263158 27.8315789,71.8421053 C31.3842105,70.2631579 34.5421053,70.2631579 37.3052632,71.4473684 C40.0684211,72.6315789 42.0421053,75 43.2263158,78.9473684 L41.6473684,79.3421053 C40.4631579,75.7894737 38.8842105,73.8157895 36.5157895,72.6315789 C34.5421053,71.4473684 31.3842105,71.8421053 28.2263158,73.0263158 C20.7263158,76.1842105 15.5947368,73.8157895 12.8315789,65.9210526 L12.8315789,65.9210526 Z M48.3578947,403.421053 C47.1736842,399.868421 45.9894737,397.5 43.6210526,396.315789 C41.2526316,395.131579 38.4894737,395.131579 35.3315789,396.315789 C31.3842105,397.5 28.2263158,397.5 25.8578947,396.315789 C23.0947368,395.131579 21.5157895,392.368421 20.3315789,388.421053 L21.9105263,388.026316 C23.0947368,391.578947 24.6736842,393.947368 26.6473684,395.131579 C29.0157895,396.315789 31.7789474,396.315789 34.9368421,395.131579 C42.4368421,392.368421 47.5684211,395.131579 49.9368421,403.026316 L48.3578947,403.421053 L48.3578947,403.421053 Z M59.8052632,252.631579 C56.6473684,255 53.4894737,255.789474 50.7263158,255.394737 C47.9631579,254.605263 45.5947368,252.631579 43.2263158,249.473684 L44.4105263,248.684211 C46.3842105,251.842105 48.3578947,253.421053 50.7263158,254.210526 C53.0947368,254.605263 55.8578947,253.815789 58.6210526,251.842105 C65.3315789,247.105263 70.8578947,248.289474 75.2,255.394737 L74.0157895,256.184211 C72.0421053,253.026316 70.0684211,251.447368 67.7,250.657895 C65.3315789,249.868421 62.5684211,250.657895 59.8052632,252.631579 L59.8052632,252.631579 Z M75.9894737,338.684211 C72.4368421,338.684211 69.2789474,335.921053 68.8842105,332.368421 C68.8842105,328.815789 71.6473684,325.657895 75.2,325.263158 C78.7526316,325.263158 81.9105263,328.026316 82.3052632,331.578947 C82.3052632,335.131579 79.5421053,338.289474 75.9894737,338.684211 L75.9894737,338.684211 Z M81.9105263,150 C78.3578947,150 75.2,147.236842 75.2,143.289474 C75.2,139.342105 78.3578947,136.578947 81.9105263,136.578947 C85.4631579,136.578947 88.6210526,139.342105 88.6210526,143.289474 C88.6210526,147.236842 85.8578947,150 81.9105263,150 L81.9105263,150 Z M102.831579,31.9736842 C99.2789474,31.9736842 96.1210526,29.2105263 96.1210526,25.2631579 C96.1210526,21.3157895 99.2789474,18.5526316 102.831579,18.5526316 C106.384211,18.5526316 109.542105,21.3157895 109.542105,25.2631579 C109.542105,29.2105263 106.778947,31.9736842 102.831579,31.9736842 L102.831579,31.9736842 Z M162.831579,375 C159.278947,374.605263 156.515789,375.394737 154.542105,376.973684 C152.568421,378.552632 151.778947,381.315789 151.384211,384.868421 C150.989474,388.815789 149.805263,391.973684 147.831579,393.552632 C145.857895,395.526316 142.7,396.315789 138.752632,395.921053 L138.752632,394.342105 C142.305263,394.736842 145.068421,393.947368 147.042105,392.368421 C149.015789,390.789474 149.805263,388.026316 150.2,384.473684 C150.594737,376.578947 154.936842,372.631579 162.831579,373.421053 L162.831579,375 L162.831579,375 Z M199.147368,278.289474 C195.989474,276.315789 193.226316,275.921053 190.857895,276.710526 C188.489474,277.5 186.515789,279.473684 184.936842,282.631579 C182.963158,286.184211 180.989474,288.552632 178.226316,289.342105 C175.463158,290.131579 172.305263,289.342105 168.752632,287.368421 L169.542105,286.184211 C172.7,288.157895 175.463158,288.552632 177.831579,287.763158 C180.2,286.973684 182.173684,285 183.752632,281.842105 C187.305263,274.736842 192.831579,272.763158 199.936842,277.105263 L199.147368,278.289474 L199.147368,278.289474 Z M242.173684,422.368421 C240.989474,418.815789 239.410526,416.447368 237.436842,415.657895 C235.068421,414.473684 232.305263,414.868421 229.147368,416.052632 C225.2,417.236842 222.042105,417.631579 219.673684,416.052632 C217.305263,414.868421 215.331579,412.105263 214.147368,408.552632 L215.726316,408.157895 C216.910526,411.710526 218.489474,414.078947 220.463158,414.868421 C222.831579,416.052632 225.594737,415.657895 228.752632,414.473684 C236.252632,411.710526 241.384211,414.078947 243.752632,421.973684 L242.173684,422.368421 L242.173684,422.368421 Z M269.015789,372.236842 C266.252632,374.605263 261.910526,373.815789 259.542105,371.052632 C257.173684,368.289474 257.963158,363.947368 260.726316,361.578947 C263.489474,359.210526 267.831579,360 270.2,362.763158 C272.568421,365.526316 272.173684,369.868421 269.015789,372.236842 L269.015789,372.236842 Z M273.752632,144.868421 C276.515789,142.5 280.857895,142.894737 283.226316,145.657895 C285.594737,148.421053 285.2,152.763158 282.436842,155.131579 C279.673684,157.5 275.726316,157.105263 272.963158,154.342105 C270.594737,151.578947 270.989474,147.236842 273.752632,144.868421 L273.752632,144.868421 Z M284.805263,282.631579 C284.410526,286.184211 281.252632,288.947368 277.7,288.552632 C274.147368,288.157895 271.384211,285 271.778947,281.447368 C272.173684,277.894737 275.331579,275.131579 278.884211,275.526316 C282.831579,275.921053 285.2,279.078947 284.805263,282.631579 L284.805263,282.631579 Z M285.989474,82.8947368 C284.015789,79.7368421 282.042105,77.7631579 279.673684,77.3684211 C277.305263,76.9736842 274.542105,77.7631579 271.778947,79.7368421 C268.621053,82.1052632 265.463158,82.8947368 262.7,82.1052632 C259.936842,81.3157895 257.568421,79.3421053 255.594737,75.7894737 L256.778947,75 C258.752632,78.1578947 260.726316,80.1315789 263.094737,80.5263158 C265.463158,80.9210526 268.226316,80.1315789 270.989474,78.1578947 C277.7,73.4210526 283.226316,75 287.568421,81.7105263 L285.989474,82.8947368 L285.989474,82.8947368 Z" id="Shape" sketch:type="MSShapeGroup"></path>
        </g>
    </g>
</svg>