<?xml version="1.0" encoding="UTF-8" standalone="no"?>
<svg width="320px" height="325px" viewBox="0 0 320 325" version="1.1" xmlns="http://www.w3.org/2000/svg" xmlns:xlink="http://www.w3.org/1999/xlink" xmlns:sketch="http://www.bohemiancoding.com/sketch/ns">
    <!-- Generator: Sketch 3.3.3 (12072) - http://www.bohemiancoding.com/sketch -->
    <title>speaker-coming-soon-top</title>
    <desc>Created with Sketch.</desc>
    <defs></defs>
    <g id="Page-1" stroke="none" stroke-width="1" fill="none" fill-rule="evenodd" sketch:type="MSPage">
        <g id="speaker-coming-soon-top" sketch:type="MSLayerGroup" fill="#FFFFFF">
            <path d="M0,0 L0,325 L320,325 L320,0 L0,0 L0,0 Z M15.5,67.9 C15.5,65.1 17.7,62.9 20.5,62.9 C23.3,62.9 25.5,65.1 25.5,67.9 C25.5,70.7 23.3,72.9 20.5,72.9 C17.8,73 15.5,70.7 15.5,67.9 L15.5,67.9 Z M27.1,231 C24.3,231 22.1,228.8 22.1,226 C22.1,223.2 24.3,221 27.1,221 C29.9,221 32.1,223.2 32.1,226 C32.1,228.8 29.9,231 27.1,231 L27.1,231 Z M58.9,288.1 C56.3,287.1 54.2,287 52.5,287.8 C50.8,288.6 49.6,290.3 48.7,292.9 C47.8,295.8 46.3,297.8 44.4,298.7 C42.5,299.6 40,299.5 37.2,298.4 L37.6,297.3 C40.2,298.3 42.3,298.4 44,297.6 C45.7,296.8 46.9,295.1 47.8,292.5 C49.7,286.7 53.7,284.8 59.4,287 L58.9,288.1 L58.9,288.1 Z M66.7,138.5 L65.6,138.3 C66.2,135.6 65.9,133.5 64.9,132 C63.8,130.5 61.9,129.5 59.2,129.1 C56.2,128.7 54,127.5 52.8,125.8 C51.6,124 51.3,121.6 51.9,118.6 L53,118.8 C52.4,121.5 52.7,123.6 53.7,125.1 C54.8,126.6 56.7,127.6 59.4,128 C65.4,128.9 68,132.5 66.7,138.5 L66.7,138.5 Z M88.9,13 C86.1,13 83.9,10.8 83.9,8 C83.9,5.2 86.1,3 88.9,3 C91.7,3 93.9,5.2 93.9,8 C93.9,10.8 91.6,13 88.9,13 L88.9,13 Z M135.8,188.2 C133,188.2 130.8,186 130.8,183.2 C130.8,180.4 133,178.2 135.8,178.2 C138.6,178.2 140.8,180.4 140.8,183.2 C140.8,186 138.6,188.2 135.8,188.2 L135.8,188.2 Z M141.6,47.4 C139.1,46.3 136.9,46.2 135.3,46.9 C133.6,47.6 132.3,49.3 131.4,51.9 C130.4,54.8 128.9,56.7 126.9,57.6 C124.9,58.5 122.5,58.3 119.7,57.1 L120.1,56.1 C122.6,57.2 124.8,57.3 126.4,56.6 C128.1,55.9 129.4,54.2 130.3,51.6 C132.4,45.8 136.4,44 142.1,46.4 L141.6,47.4 L141.6,47.4 Z M169.5,296.9 C168.2,299.3 165.1,300.2 162.7,298.9 C160.3,297.6 159.4,294.5 160.7,292.1 C162,289.7 165.1,288.8 167.5,290.1 C169.9,291.4 170.8,294.4 169.5,296.9 L169.5,296.9 Z M194.4,104.3 C194.4,101.5 196.6,99.3 199.4,99.3 C202.2,99.3 204.4,101.5 204.4,104.3 C204.4,107.1 202.2,109.3 199.4,109.3 C196.6,109.3 194.4,107.1 194.4,104.3 L194.4,104.3 Z M220,212.9 C218.2,210.8 216.3,209.8 214.5,209.7 C212.7,209.6 210.7,210.6 208.8,212.5 C204.4,216.8 200,216.7 196,212 L196.8,211.3 C198.6,213.4 200.5,214.4 202.3,214.5 C204.1,214.6 206.1,213.6 208,211.7 C210.2,209.5 212.4,208.5 214.5,208.6 C216.7,208.7 218.8,209.9 220.8,212.2 L220,212.9 L220,212.9 Z M229.2,22.2 L228.1,22.1 C228.4,19.4 227.9,17.3 226.8,15.9 C225.6,14.5 223.6,13.7 220.9,13.6 C217.8,13.5 215.6,12.5 214.2,10.9 C212.8,9.3 212.3,6.9 212.6,3.8 L213.7,3.9 C213.4,6.6 213.9,8.7 215,10.1 C216.2,11.5 218.2,12.3 220.9,12.4 C227,12.7 229.9,16.1 229.2,22.2 L229.2,22.2 Z M268.1,116.7 L267.3,115.9 C269.2,113.9 270.1,112 270,110.2 C269.9,108.4 268.8,106.5 266.7,104.8 C262,100.8 261.8,96.4 266.1,92 L266.9,92.8 C265,94.8 264.1,96.7 264.2,98.5 C264.3,100.3 265.4,102.2 267.5,103.9 C269.8,105.9 271.1,108 271.2,110.1 C271.2,112.3 270.2,114.5 268.1,116.7 L268.1,116.7 Z M279.5,292.5 C279.3,294.6 278,296.7 275.5,298.6 L274.8,297.7 C277,296 278.2,294.2 278.3,292.4 C278.5,290.6 277.6,288.6 275.8,286.5 C271.8,281.9 272.2,277.5 277,273.7 L277.7,274.6 C275.5,276.3 274.3,278.1 274.2,279.9 C274,281.7 274.9,283.7 276.7,285.8 C278.8,288.1 279.7,290.3 279.5,292.5 L279.5,292.5 Z M286.4,32.8 C283.9,31.5 283,28.5 284.3,26 C285.6,23.5 288.6,22.6 291.1,23.9 C293.6,25.2 294.5,28.2 293.2,30.7 C291.9,33.1 288.9,34.1 286.4,32.8 L286.4,32.8 Z M298.2,198.5 C296.9,201 293.9,201.9 291.4,200.6 C288.9,199.3 288,196.3 289.3,193.8 C290.6,191.3 293.6,190.4 296.1,191.7 C298.6,193 299.5,196 298.2,198.5 L298.2,198.5 Z" id="Shape" sketch:type="MSShapeGroup"></path>
        </g>
    </g>
</svg>