<svg xmlns="http://www.w3.org/2000/svg" viewBox="-480.7 -456.3 400 406"><path fill="#FFF" d="M-480.7-456.3v406h400v-406h-400zm19.4 84.9c0-3.5 2.8-6.2 6.2-6.2s6.2 2.7 6.2 6.2-2.8 6.2-6.2 6.2c-3.4.1-6.2-2.7-6.2-6.2zm14.5 203.7c-3.5 0-6.2-2.7-6.2-6.2s2.8-6.2 6.2-6.2 6.2 2.7 6.2 6.2-2.7 6.2-6.2 6.2zm39.7 71.3c-3.2-1.2-5.9-1.4-8-.4-2.1 1-3.6 3.1-4.8 6.4-1.1 3.6-3 6.1-5.4 7.2s-5.5 1-9-.4l.5-1.4c3.2 1.2 5.9 1.4 8 .4s3.6-3.1 4.8-6.4c2.4-7.2 7.4-9.6 14.5-6.9l-.6 1.5zm9.8-186.8l-1.4-.2c.7-3.4.4-6-.9-7.9-1.4-1.9-3.8-3.1-7.1-3.6-3.8-.5-6.5-2-8-4.1-1.5-2.2-1.9-5.2-1.1-9l1.4.2c-.7 3.4-.4 6 .9 7.9 1.4 1.9 3.8 3.1 7.1 3.6 7.5 1.1 10.7 5.6 9.1 13.1zm27.7-156.8c-3.5 0-6.2-2.7-6.2-6.2s2.7-6.2 6.2-6.2 6.2 2.7 6.2 6.2-2.8 6.2-6.2 6.2zm58.7 218.8c-3.5 0-6.2-2.7-6.2-6.2s2.7-6.2 6.2-6.2 6.2 2.7 6.2 6.2-2.7 6.2-6.2 6.2zm7.2-175.8c-3.1-1.4-5.9-1.5-7.9-.6-2.1.9-3.8 3-4.9 6.2-1.2 3.6-3.1 6-5.6 7.1s-5.5.9-9-.6l.5-1.2c3.1 1.4 5.9 1.5 7.9.6 2.1-.9 3.8-3 4.9-6.2 2.6-7.2 7.6-9.5 14.8-6.5l-.7 1.2zm34.9 311.6c-1.6 3-5.5 4.1-8.5 2.5s-4.1-5.5-2.5-8.5 5.5-4.1 8.5-2.5c3 1.7 4.1 5.4 2.5 8.5zm31.1-240.6c0-3.5 2.8-6.2 6.2-6.2s6.2 2.7 6.2 6.2-2.8 6.2-6.2 6.2c-3.4.1-6.2-2.7-6.2-6.2zm32 135.7c-2.3-2.6-4.6-3.9-6.9-4-2.3-.1-4.8 1.1-7.1 3.5-5.5 5.4-11 5.2-16-.6l1-.9c2.2 2.6 4.6 3.9 6.9 4 2.2.1 4.8-1.1 7.1-3.5 2.7-2.7 5.5-4 8.1-3.9 2.7.1 5.4 1.6 7.9 4.5l-1 .9zm11.5-238.2l-1.4-.1c.4-3.4-.2-6-1.6-7.7-1.5-1.7-4-2.7-7.4-2.9-3.9-.1-6.6-1.4-8.4-3.4-1.7-2-2.4-5-2-8.9l1.4.1c-.4 3.4.2 6 1.6 7.7 1.5 1.7 4 2.7 7.4 2.9 7.7.4 11.3 4.7 10.4 12.3zm48.6 118l-1-1c2.4-2.5 3.5-4.9 3.4-7.1-.1-2.2-1.5-4.6-4.1-6.7-5.9-5-6.1-10.5-.8-16l1 1c-2.4 2.5-3.5 4.9-3.4 7.1.1 2.2 1.5 4.6 4.1 6.7 2.9 2.5 4.5 5.1 4.6 7.7.1 2.8-1.1 5.6-3.8 8.3zm14.3 219.6c-.3 2.6-1.9 5.2-5 7.6l-.9-1.1c2.8-2.1 4.2-4.4 4.4-6.6.3-2.2-.9-4.7-3.1-7.4-5-5.7-4.5-11.2 1.5-16l.9 1.1c-2.8 2.1-4.2 4.4-4.4 6.6-.3 2.2.9 4.7 3.1 7.4 2.6 2.9 3.7 5.7 3.5 8.4zm8.6-324.4c-3.1-1.6-4.2-5.4-2.6-8.5s5.4-4.2 8.5-2.6 4.2 5.4 2.6 8.5c-1.6 3-5.4 4.2-8.5 2.6zm14.8 207c-1.6 3.1-5.4 4.2-8.5 2.6-3.1-1.6-4.2-5.4-2.6-8.5 1.6-3.1 5.4-4.2 8.5-2.6 3.1 1.6 4.2 5.4 2.6 8.5z"/></svg>