<?xml version="1.0" encoding="utf-8"?>
<!-- Generator: Adobe Illustrator 18.1.1, SVG Export Plug-In . SVG Version: 6.00 Build 0)  -->
<svg version="1.1" id="Layer_1" xmlns="http://www.w3.org/2000/svg" xmlns:xlink="http://www.w3.org/1999/xlink" x="0px" y="0px"
	 viewBox="0 0 363 177" enable-background="new 0 0 363 177" width="363" height="177" xml:space="preserve">
<g>
	<path fill="#FF7361" d="M99.8,73.2c0-1,0.8-1.7,1.7-1.7s1.7,0.8,1.7,1.7c0,1-0.8,1.7-1.7,1.7S99.8,74.2,99.8,73.2"/>
	<path fill="#FFC640" d="M150.3,157.1c0-1,0.8-1.7,1.7-1.7s1.7,0.8,1.7,1.7s-0.8,1.7-1.7,1.7S150.3,158,150.3,157.1"/>
	<path fill="#FF7361" d="M38.8,132.2c0-1,0.8-1.7,1.7-1.7c1,0,1.7,0.8,1.7,1.7s-0.8,1.7-1.7,1.7C39.6,134,38.8,133.2,38.8,132.2"/>
	<path fill="#FFC640" d="M215,32.1c0-1,0.8-1.7,1.7-1.7s1.7,0.8,1.7,1.7c0,1-0.8,1.7-1.7,1.7S215,33.1,215,32.1"/>
	<path fill="#FF7361" d="M297.8,120.8c0-1,0.8-1.7,1.7-1.7s1.7,0.8,1.7,1.7s-0.8,1.7-1.7,1.7S297.8,121.8,297.8,120.8"/>
	<path fill="#FFC640" d="M211.5,105.6c0-1,0.8-1.7,1.7-1.7s1.7,0.8,1.7,1.7s-0.8,1.7-1.7,1.7S211.5,106.6,211.5,105.6"/>
	<path fill="#FFFFFF" d="M322.1,78.8c0-1,0.8-1.7,1.7-1.7s1.7,0.8,1.7,1.7c0,1-0.8,1.7-1.7,1.7S322.1,79.8,322.1,78.8"/>
	<path fill="#FFC640" d="M47.8,67.1l-6-3.4c-2.8,5.1-9.2,7.1-14.5,4.2l-3.4,6C32.4,78.7,43,75.7,47.8,67.1"/>
	<path fill="#FFC640" d="M44.5,62.4c0.5-0.8,1.5-1.1,2.4-0.7c0.8,0.5,1.1,1.5,0.7,2.4c-0.5,0.8-1.5,1.1-2.4,0.7
		C44.3,64.3,44,63.2,44.5,62.4"/>
</g>
<rect x="44.1" y="63.4" transform="matrix(-0.4849 0.8746 -0.8746 -0.4849 123.6798 55.822)" fill="#FFC640" width="2.6" height="1.9"/>
<g>
	<path fill="#FF7361" d="M217.7,149.7l5.1,4.7c4-4.3,10.7-4.6,15.1-0.5l4.7-5.1C235.4,142.1,224.4,142.5,217.7,149.7"/>
	<path fill="#FF7361" d="M219.7,155c-0.7,0.7-1.7,0.7-2.4,0.1c-0.7-0.7-0.7-1.7-0.1-2.4c0.7-0.7,1.8-0.7,2.4-0.1
		C220.3,153.2,220.4,154.3,219.7,155"/>
</g>
<rect x="218.1" y="152" transform="matrix(0.682 -0.7313 0.7313 0.682 -42.0859 209.0361)" fill="#FF7361" width="2.6" height="1.9"/>
<g>
	<path fill="#FF7361" d="M167.9,37.5v-6.9c-5.8,0-10.7-4.6-10.7-10.7h-6.9C150.3,29.7,158.1,37.5,167.9,37.5"/>
	<path fill="#FF7361" d="M170.4,32.4c1,0,1.7,0.8,1.7,1.7s-0.8,1.7-1.7,1.7c-1,0-1.7-0.8-1.7-1.7S169.5,32.4,170.4,32.4"/>
</g>
<rect x="167.9" y="33.2" fill="#FF7361" width="2.6" height="1.9"/>
<rect x="70.8" y="15.6" transform="matrix(0.5446 -0.8387 0.8387 0.5446 19.8519 74.5624)" fill="#FFFFFF" width="15.5" height="6.7"/>
<g>
	<path fill="#FFFFFF" d="M72,29.1c-0.8-0.5-1-1.6-0.5-2.4c0.5-0.8,1.6-1,2.4-0.5c0.8,0.5,1,1.6,0.5,2.4C73.9,29.4,72.8,29.6,72,29.1
		"/>
</g>
<rect x="72.4" y="25.6" transform="matrix(-0.5447 0.8386 -0.8386 -0.5447 136.0846 -20.7106)" fill="#FFFFFF" width="2.6" height="1.9"/>
<rect x="310.4" y="26.1" transform="matrix(0.2418 0.9703 -0.9703 0.2418 270.7391 -278.8276)" fill="#FFC640" width="6.7" height="15.5"/>
<g>
	<path fill="#FFC640" d="M325.5,30.9c0.2,0.9-0.3,1.9-1.3,2.1c-0.9,0.2-1.9-0.3-2.1-1.3c-0.2-0.9,0.3-1.9,1.3-2.1
		C324.3,29.4,325.3,30,325.5,30.9"/>
</g>
<rect x="321.3" y="30.7" transform="matrix(0.9703 -0.2419 0.2419 0.9703 1.9241 78.9678)" fill="#FFC640" width="2.6" height="1.9"/>
<rect x="158.4" y="75.9" transform="matrix(0.883 0.4694 -0.4694 0.883 58.1725 -66.1239)" fill="#FFFFFF" width="6.7" height="15.5"/>
<g>
	<path fill="#FFFFFF" d="M167.4,73c0.8,0.4,1.2,1.5,0.7,2.3c-0.4,0.8-1.5,1.2-2.3,0.7c-0.8-0.4-1.2-1.5-0.7-2.3
		C165.5,72.8,166.5,72.5,167.4,73"/>
</g>
<rect x="164.7" y="74.7" transform="matrix(0.4694 -0.883 0.883 0.4694 21.2696 186.6701)" fill="#FFFFFF" width="2.6" height="1.9"/>
<rect x="327.3" y="133.2" transform="matrix(-0.4227 -0.9063 0.9063 -0.4227 342.679 500.2962)" fill="#FF7361" width="6.7" height="15.5"/>
<g>
	<path fill="#FF7361" d="M319.8,146.1c-0.4-0.9,0-1.9,0.8-2.3c0.9-0.4,1.9,0,2.3,0.8c0.4,0.9,0,1.9-0.8,2.3
		C321.2,147.3,320.2,147,319.8,146.1"/>
</g>
<rect x="321.2" y="143.9" transform="matrix(-0.9064 0.4225 -0.4225 -0.9064 675.9841 139.8219)" fill="#FF7361" width="2.6" height="1.9"/>
<rect x="100.8" y="119" transform="matrix(0.5736 -0.8191 0.8191 0.5736 -59.4113 139.4136)" fill="#FF7361" width="6.7" height="15.5"/>
<g>
	<path fill="#FF7361" d="M94.3,119.9c0.5-0.8,1.6-1,2.4-0.4c0.8,0.5,1,1.6,0.4,2.4c-0.5,0.8-1.6,1-2.4,0.4
		C94,121.7,93.8,120.6,94.3,119.9"/>
</g>
<rect x="95.5" y="120.6" transform="matrix(-0.8192 -0.5735 0.5735 -0.8192 106.3699 276.7012)" fill="#FF7361" width="2.6" height="1.9"/>
<g>
	<path fill="#FFFFFF" d="M263.2,61.5l-6.9-0.1c-0.1,5.8-4.8,10.6-10.9,10.5l-0.1,6.9C255.1,79,263,71.3,263.2,61.5"/>
	<path fill="#FFFFFF" d="M258.1,58.9c0-1,0.8-1.7,1.8-1.7c1,0,1.7,0.8,1.7,1.8c0,1-0.8,1.7-1.8,1.7
		C258.9,60.6,258.1,59.8,258.1,58.9"/>
</g>
<rect x="258.5" y="59.3" transform="matrix(-1.747238e-02 0.9998 -0.9998 -1.747238e-02 324.5536 -198.5294)" fill="#FFFFFF" width="2.6" height="1.9"/>
</svg>
