<svg xmlns="http://www.w3.org/2000/svg" viewBox="0 0 618.1 418"><path fill="#005EC7" d="M127.8 131.4l1.9 11.9 16.4-2.7 7.5 47.4 11.8-1.9-7.5-47.3 16.4-2.6-1.9-11.8M207.3 105.4l-2.8 59.7 11.9.6 1.2-25 22.1 1.1-1.2 24.9 12 .6 2.8-59.7-11.9-.6-1.1 22.9-22.1-1.1 1.1-22.9M310.7 161.2l-7.4-12.7-5.6 13.9 13-1.2zm6.6 11.4l-24.7 2.2-4.6 11.6-13.4 1.2 25.2-62.3 3.5-.3 33.4 57.2-13.2 1.2-6.2-10.8zM404.9 169.2l-27.8-39.8-5.5 34.5-11.8-1.8 9.4-59.2 3.7.6 27.4 38.3 5.3-33.1 11.8 1.9-9.4 59.1M472.4 126.2l-17.1 19.6-.4-19.3-12 .3 1.3 59.7 11.9-.2-.4-22.6 4.5-4.8 15.8 27 14.3-.3-22.2-36 20.4-23.8M264.4 252.2L249 292l2.3 21.8-11.9 1.3-2.3-21.9-23.4-35.6 13.2-1.4 14.6 21.1 9.8-23.7M419.3 290c-1.8 12.7-13.5 21.5-26.1 19.7-12.7-1.8-21.5-13.5-19.8-26.1l5.3-37.5 11.8 1.7-5.3 37.4c-.4 3 .4 5.9 2.2 8.3 1.8 2.4 4.5 3.9 7.4 4.3 3 .4 5.8-.3 8.2-2.1 2.4-1.8 3.9-4.4 4.4-7.3h-.1l5.3-37.5 11.8 1.7-5.1 37.4zM298.6 263.3c-1.1 10.3 6.4 19.5 16.6 20.6 10.3 1.1 19.5-6.4 20.6-16.6 1.1-10.3-6.4-19.5-16.6-20.6-10.3-1.2-19.5 6.3-20.6 16.6m49.4 5.2c-1.8 17-17.1 29.4-34.1 27.6-17-1.8-29.4-17.1-27.6-34.1 1.8-17 17.1-29.4 34.1-27.6 17 1.8 29.4 17.1 27.6 34.1"/><path fill="#005EC6" d="M495.4 275.5c-.8-7.2 4.1-13.4 8.5-18.5 2.7-3.1 5.4-6.2 7.9-9.4 2.7-3.4 5.2-7 7.6-10.7 4.7-7.4 8.3-15.3 11.1-23.7 1.3-4.1 2.6-8.3 4.1-12.3 1.5-3.9 3.5-7.7 5.7-11.3 4.1-6.9 9-13.5 11.1-21.4.3-.9.5-1.9.7-2.9.1-.7-.9-.8-1.1-.1-1.5 8.1-6.3 15-10.5 21.9-2.2 3.5-4.2 7-5.9 10.8-1.7 4-3 8.2-4.4 12.3-1.3 4.2-2.7 8.3-4.5 12.3-1.8 4-3.8 8-6.1 11.7-4.5 7.4-9.8 14.2-15.5 20.7-4.4 5.1-9.4 10.9-9.8 18 0 .8 0 1.7.1 2.5 0 1 1 .8 1 .1"/><path fill="#FFC640" d="M597.3 151c10.7-15.2 7.7-35.7-6.7-45.8-14.4-10-34.6-5.9-45.3 9.4-10.5 15-7.8 35.1 6.1 45.3-1.1 1.6-2.4 3-3.8 4.3-.2.2-.3.6-.1.8 1 1 2.2 1.8 3.4 2.5l.3.3c.1.1.2.1.3.1.5.2 1.2.5 1.8.6.2.1.5.1.7-.1.4-.1.7-.4.9-.9.3-.7.2-1.7.2-2.4 0-.9.1-1.8.2-2.6 14 7.3 32.1 2.6 42-11.5"/><path fill="#FF7361" d="M86.5 110.2l-8.4 4c-.7.3-1.5 0-1.9-.7l-5.1-10.7c-.3-.7 0-1.5.7-1.9l8.4-4c.7-.3 1.5 0 1.9.7l5.1 10.7c.3.7 0 1.6-.7 1.9"/><path fill="#005EC6" d="M87.9 108.9l-.4.2-11.5 5.5c-.3.1-.4.5-.3.7.1.3.5.4.7.3l.4-.2 11.5-5.5c.3-.1.4-.5.3-.7-.1-.3-.4-.4-.7-.3M75.6 113.7l.4-.2 11.5-5.5c.3-.1.4-.5.3-.7-.1-.3-.5-.4-.7-.3l-.4.2-11.5 5.5c-.3.1-.4.5-.3.7.1.3.4.4.7.3M74.7 111.7l.4-.2 11.5-5.5c.3-.1.4-.5.3-.7-.1-.3-.5-.4-.7-.3l-.4.2-11.5 5.5c-.3.1-.4.5-.3.7s.4.4.7.3"/><path fill="#FF7361" d="M102.8 87.3l-52.2 24.8c-.7.3-1.5 0-1.9-.7L32 76.2c-.3-.7 0-1.5.7-1.9l52.2-24.8c.7-.3 1.5 0 1.9.7l16.8 35.3c.2.7-.1 1.5-.8 1.8M46.3 35.8c-5.1 2.5-7.3 8.6-4.9 13.8l7.8 16.3L67.8 57 60 40.7c-2.4-5.1-8.6-7.3-13.7-4.9"/><path fill="#FFC640" d="M55.8 55.7c-1.1.5-2.8.2-3.9-1.7-.1-.1-.6-.4-1-.8-2-1.5-4-3.1-4.5-4.1-1.3-2.7-.1-6 2.7-7.3 2.8-1.3 6.1-.2 7.4 2.6.5 1 .4 3.5.3 6v1.3c.9 1.9.1 3.4-1 4"/><path fill="#005EC6" d="M57.6 54.5l-3.9 1.9c-.1 0-.1 0-.2-.1l-.3-.6c0-.1 0-.1.1-.2l3.9-1.9c.1 0 .1 0 .2.1l.3.6c0 .1-.1.2-.1.2"/><path fill="#005EC6" d="M53.7 55.7s-.1.1 0 .1v.1s.1.1.1 0l3.4-1.6s.1-.1 0-.1v-.1s-.1-.1-.1 0l-3.4 1.6zm3.8-.8l-3.4 1.6c-.4.2-.8 0-1-.4V56c-.2-.4 0-.8.4-1l3.4-1.6c.4-.2.8 0 1 .4v.1c.1.4-.1.9-.4 1"/><path fill="#005EC6" d="M58 55.3l-3.9 1.9c-.1 0-.1 0-.2-.1l-.3-.6c0-.1 0-.1.1-.2l3.9-1.9c.1 0 .1 0 .2.1l.3.6c0 .1-.1.2-.1.2"/><path fill="#005EC6" d="M54.1 56.5s-.1.1 0 .1v.1s.1.1.1 0l3.4-1.6s.1-.1 0-.1v-.1s-.1-.1-.1 0l-3.4 1.6zm3.8-.7l-3.4 1.6c-.4.2-.8 0-1-.4v-.1c-.2-.4 0-.8.4-1l3.4-1.6c.4-.2.8 0 1 .4v.1c.1.3-.1.8-.4 1"/><path fill="#FFF" d="M81 75l-1.9-1.3 2.3.2c-.1.3-.2.7-.4 1.1m-3.6-.5l-.2 2.3c-.4-.1-.8-.2-1.1-.4l1.3-1.9zm-2.7-3l1.9 1.3-2.3-.2c.1-.4.2-.8.4-1.1m3.6.5l.2-2.2c.4.1.8.2 1.1.4L78.3 72zm.4.6l1.5-2.2c.3.3.6.6.9 1l-2.4 1.2zm.8.4l1.7-.8c.1.3.2.7.2 1l-1.9-.2zm-.5 1.4l1.6 1.1c-.2.3-.5.5-.8.7l-.8-1.8zm-.9-.2l1.1 2.4c-.4.2-.9.3-1.3.3l.2-2.7zm-1.5.2L75.5 76c-.3-.2-.5-.5-.7-.8l1.8-.8zm.3-.9l-2.4 1.1c-.2-.4-.3-.9-.3-1.3l2.7.2zm.4-1.1l-2.2-1.5c.3-.3.6-.6 1.1-.8l1.1 2.3zm.4-.8l-.8-1.8c.3-.1.7-.1 1-.2l-.2 2zM75.8 69c-2.4 1.1-3.4 4-2.2 6.3 1.1 2.4 4 3.4 6.3 2.2 2.4-1.1 3.4-4 2.2-6.3-1.1-2.4-3.9-3.4-6.3-2.2"/><path fill="#FF7361" d="M80.7 72c.7 1.5.1 3.4-1.5 4.1-1.5.7-3.4.1-4.1-1.5-.7-1.5-.1-3.4 1.5-4.1 1.5-.7 3.3 0 4.1 1.5"/><path fill="#005EC6" d="M58.4 56.2l-3.9 1.9c-.1 0-.1 0-.2-.1l-.3-.6c0-.1 0-.1.1-.2l3.9-1.9c.1 0 .1 0 .2.1l.3.6c0 .1-.1.2-.1.2"/><path fill="#005EC6" d="M54.5 57.4s-.1.1 0 .1v.1s.1.1.1 0L58 56s.1-.1 0-.1v-.1s-.1-.1-.1 0l-3.4 1.6zm3.8-.8l-3.4 1.6c-.4.2-.8 0-1-.4v-.1c-.2-.4 0-.8.4-1l3.4-1.6c.4-.2.8 0 1 .4v.1c.1.4-.1.9-.4 1"/><path fill="#005EC6" d="M57.8 57.5l-1.8.9c-.1 0-.1 0-.2-.1l-.3-.6c0-.1 0-.1.1-.2l1.8-.9c.1 0 .1 0 .2.1l.3.6c-.1.1-.1.2-.1.2"/><path fill="#005EC6" d="M55.9 57.7s-.1.1 0 .1v.1s.1.1.1 0l1.3-.6s.1-.1 0-.1v-.1s-.1-.1-.1 0l-1.3.6zm1.7.3l-1.3.6c-.4.2-.8 0-1-.4v-.1c-.2-.4 0-.8.4-1l1.3-.6c.4-.2.8 0 1 .4v.1c.2.3 0 .8-.4 1M70.3 56.4l-23.2 11c-.2.1-.4 0-.4-.2l-.8-1.7c-.1-.2 0-.4.2-.4l23.2-11c.2-.1.4 0 .4.2l.8 1.7c0 .1 0 .3-.2.4M79.4 72.6c.4.8 0 1.8-.8 2.2-.8.4-1.8 0-2.2-.8-.4-.8 0-1.8.8-2.2.8-.4 1.8 0 2.2.8"/><path fill="#FF7361" d="M96.6 71.1L90.3 58c4-1.9 8-.2 9.7 3.4 1.8 3.6.6 7.8-3.4 9.7"/><path fill="#005EC6" d="M35.7 84L42 97.1c-4 1.9-8 .2-9.7-3.4-1.8-3.6-.6-7.8 3.4-9.7M70.9 103.8l.4-.2 11.5-5.5c.3-.1.4-.5.3-.7-.1-.3-.5-.4-.7-.3l-.4.2-11.5 5.5c-.3.1-.4.5-.3.7.1.3.4.5.7.3M73.7 109.7l.4-.2 11.5-5.5c.3-.1.4-.5.3-.7-.1-.3-.5-.4-.7-.3l-.4.2-11.5 5.5c-.3.1-.4.5-.3.7.1.3.4.5.7.3M71.8 105.8l.4-.2 11.5-5.5c.3-.1.4-.5.3-.7-.1-.3-.5-.4-.7-.3l-.4.2-11.5 5.5c-.3.1-.4.5-.3.7.1.3.5.4.7.3M72.8 107.8l.4-.2 11.5-5.5c.3-.1.4-.5.3-.7-.1-.3-.5-.4-.7-.3l-.4.2-11.5 5.5c-.3.1-.4.5-.3.7.1.3.4.4.7.3"/><path fill="#FFF" d="M42.3 100c-.5.2-1 0-1.3-.4l-7.5-15.8c-.2-.5 0-1 .4-1.3.5-.2 1 0 1.3.4l7.5 15.8c.3.5.1 1.1-.4 1.3"/><path fill="#005EC6" d="M98.3 72.4c-.5.2-1 0-1.3-.4l-7.5-15.8c-.2-.5 0-1 .4-1.3.5-.2 1 0 1.3.4l7.5 15.8c.3.5.1 1.1-.4 1.3"/><path fill="#FFF" d="M55 90.9c1 2.1.1 4.6-2 5.6s-4.6.1-5.6-2-.1-4.6 2-5.6c2.1-.9 4.6 0 5.6 2M91.7 73.4c1 2.1.1 4.6-2 5.6s-4.6.1-5.6-2-.1-4.6 2-5.6c2.1-.9 4.6-.1 5.6 2M63.6 90.1l13.1-6.3c1.9 4 .2 8-3.4 9.7-3.6 1.8-7.8.6-9.7-3.4"/><path fill="#005EC6" d="M65.1 90.6c.8 1.2 1.8 2 3.1 2.4 1.5.5 3.2.4 4.7-.4 1.6-.7 2.7-2 3.3-3.4.5-1.2.5-2.6.1-3.9l-11.2 5.3zm8.7 3.9c-2 1-4.3 1.1-6.3.5-2.1-.7-3.8-2.3-4.8-4.4-.3-.5 0-1.1.5-1.4l13.1-6.3c.5-.2 1.1 0 1.4.5 1 2.2 1.2 4.5.4 6.5-.7 2-2.3 3.7-4.3 4.6"/><path fill="#FFF" d="M61.5 80.8c-1.9-3.9-5.4-4.6-8.7-3.1-3.2 1.5-4.9 4.8-3.1 8.7l11.8-5.6z"/><path fill="#005EC6" d="M61.6 81l-12.5 6-.4-.8c-1.7-3.6-.3-7.6 3.3-9.3 3.6-1.7 7.5-.3 9.3 3.3l.3.8z"/><path fill="#FFC640" d="M58.2 82.7c.7 1.5.1 3.4-1.5 4.1-1.5.7-3.4.1-4.1-1.5-.7-1.5-.1-3.4 1.5-4.1 1.5-.7 3.3 0 4.1 1.5"/><path fill="#005EC6" d="M56.9 83.3c.4.8 0 1.8-.8 2.2-.8.4-1.8 0-2.2-.8-.4-.8 0-1.8.8-2.2.8-.4 1.8 0 2.2.8M71.9 87.8c.3.6 0 1.2-.5 1.5-.6.3-1.2 0-1.5-.5-.3-.6 0-1.2.5-1.5.5-.3 1.2 0 1.5.5"/><path fill="#005EC6" d="M70.8 88.2s-.1.1 0 .1c0 0 .1.1.1 0 0 0 .1-.1 0-.1h-.1m1 2.1c-1.1.5-2.4.1-2.9-1s-.1-2.4 1-2.9 2.4-.1 2.9 1 .1 2.4-1 2.9"/><g><path fill="#FFC640" d="M152.5 319.4c-.7.4-1.7-.3-2.1-.7-.2-.2-.4-.4-.5-.6.7-.4 1.4-.5 2.2 0 .4.1 1.1.9.4 1.3m-4.1 4.1c.3.1 1.2.2 1.3.6.1.2 0 .5-.2.6-.3.3-.8.1-1.1-.1-.4-.3-.6-.8-.7-1.3.3.1.5.1.7.2m3.5-13.6c.5 0 2.1.3 1.7 1.1-.5 1-2.1-.4-2.6-.7 0 0-.1-.1-.2-.1.3-.1.7-.3 1.1-.3m-3.1-8.1c.9-.2 1.7.4.8 1.2-.7.6-1.7.7-2.6.6.1-.3.3-.5.4-.8.4-.5.8-.9 1.4-1m-4.4-4.8c.7.2.9 1 .9 1.7-.1.8-.8 1.4-1.6 1.5-.6.1-1 0-1.5-.2-.1-.2-.1-.4-.1-.6-.1-1.2 1-2.9 2.3-2.4m9.4 20.3c-1.1-1.4-3.1-1.5-4.6-.8-.2-.8-.3-1.7-.3-2.5.1-.9.3-1.8.7-2.6.9.7 1.9 1.5 3.1 1.5 1.1 0 2.2-.6 2.4-1.7.2-1.2-.7-2.3-1.8-2.7-1-.4-2.3-.3-3.2.3-.2.1-.4.3-.6.4-1.3-1.1-2.5-2.5-2.7-4.1 1.7.2 3.5-.1 4.5-1.7.6-1 .4-2.2-.6-2.9-.9-.6-2-.5-3-.1-1.1.5-1.9 1.5-2.3 2.7-.1 0-.2-.1-.3-.1-.6-.3-1.2-.7-1.7-1.1 1.4-.1 2.7-.8 3.2-2.2.7-2-.7-4.6-3.1-4.3-1.5.2-2.7 1.4-3.1 2.9-1.1-2.3-1.3-5.5-3.7-6.9-1.5-.9-3.4-.7-4.9.2-1.8 1.1-2.8 3.2-3.6 5.1-.4 1 1.1 1.5 1.5.6.9-2.1 2.8-5.8 5.7-4.7 1.7.6 2.2 2.7 2.7 4.2.6 1.6 1.2 3.5 2.7 4.5.8 1.7 2.5 2.9 4.2 3.6h.1v.6c.2 2.1 1.6 3.7 3.1 5.1-1 1.5-1.2 3.4-1 5.1.1.7.3 1.4.5 2.1-.8.9-1.3 2.2-1.6 3.5-.1 0-.3-.1-.4-.1l-4.6-1.6c-1-.3-1.6 1.2-.6 1.5 1.8.6 3.6 1.2 5.5 1.8 0 .5.1 1 .2 1.4.3 1.1 1.2 2 2.3 2.3 1.1.2 2.2-.4 2.6-1.4.4-1 0-2-1-2.5-.8-.4-1.6-.7-2.5-.9.2-.8.4-1.5.7-2 .1-.1.1-.3.2-.4.6.8 1.4 1.5 2.5 1.8 1 .3 2.2.2 2.8-.7.9-1.2.6-2.4 0-3.2"/><path fill="#FF7361" d="M98.1 293.1c-.5-.2-.7-.7-.5-1.2l9.3-24.1c.2-.5.7-.7 1.2-.5.5.2.7.7.5 1.2l-9.3 24.1c-.2.5-.7.7-1.2.5"/><path fill="#FF7361" d="M111.1 269.5c-.7 1.9-2.8 2.8-4.7 2.1-1.9-.7-2.8-2.8-2.1-4.7.7-1.9 2.8-2.8 4.7-2.1 1.9.7 2.8 2.8 2.1 4.7"/><path fill="#FFF" d="M131 332.1l-64.7-24.9c-1-.4-1.5-1.5-1.1-2.5l8.5-22.1c.4-1 1.5-1.5 2.5-1.1l64.7 24.9c1 .4 1.5 1.5 1.1 2.5l-8.5 22.1c-.4 1-1.5 1.5-2.5 1.1"/><path fill="#005EC6" d="M87.1 288.9c-.5-.2-.7-.7-.5-1.2l9.3-24.1c.2-.5.7-.7 1.2-.5.5.2.7.7.5 1.2l-9.3 24.1c-.2.4-.8.6-1.2.5"/><path fill="#FFF" d="M100.1 265.3c-.7 1.9-2.8 2.8-4.7 2.1-1.9-.7-2.8-2.8-2.1-4.7.7-1.9 2.8-2.8 4.7-2.1 1.8.7 2.8 2.8 2.1 4.7"/><path fill="#FF7361" d="M72.4 283.8l-2.7 7.1c-2.1-.8-2.9-2.9-2.2-4.9.8-1.9 2.8-3 4.9-2.2"/><path fill="#005EC6" d="M69.2 292.2c-.3-.1-.5-.5-.4-.9l3.1-8.2c.1-.3.5-.5.9-.4.3.1.5.5.4.9l-3.1 8.2c-.2.4-.6.6-.9.4"/><path fill="#FFF" d="M68.4 294.4l-2.7 7.1c-2.1-.8-2.9-2.9-2.2-4.9.7-1.9 2.7-3 4.9-2.2"/><path fill="#FF7361" d="M65.1 302.8c-.3-.1-.5-.5-.4-.9l3.1-8.2c.1-.3.5-.5.9-.4.3.1.5.5.4.9l-3.1 8.2c-.2.4-.6.5-.9.4M135.3 330.7c-.8-.3-1.2-1.2-.9-2l6.5-16.8c.3-.8 1.2-1.2 2-.9.8.3 1.2 1.2.9 2l-6.5 16.8c-.3.9-1.2 1.3-2 .9"/><path fill="#005EC6" d="M131.3 301.9l-7.1-2.7c.8-2.1 2.9-2.9 4.9-2.2 2 .7 3 2.7 2.2 4.9"/><path fill="#FF7361" d="M122.9 298.6c.1-.3.5-.5.9-.4l8.2 3.1c.3.1.5.5.4.9-.1.3-.5.5-.9.4l-8.2-3.1c-.4-.2-.5-.6-.4-.9"/><path fill="#005EC6" d="M122.7 300.6c-6.3-2.4-22.9-8.8-29.1-11.2-9.2-3.5-19.5 1-23 10.2s1 19.5 10.2 23c6.3 2.4 13.1 1 17.9-3 .9 6.2 5 11.8 11.3 14.2 9.2 3.5 19.5-1 23-10.2s-1.1-19.5-10.3-23"/><path fill="#FFC640" d="M69.8 310.4c-.4-.2-.8-.5-1-.9-.4-.9 0-2 .9-2.5l32.5-15.2c.9-.4 2 0 2.5.9.4.9 0 2-.9 2.5l-32.5 15.2c-.5.2-1.1.2-1.5 0M74 316.7c-.4-.2-.8-.5-1-.9-.4-.9 0-2 .9-2.5l38-17.8c.9-.4 2 0 2.5.9.4.9 0 2-.9 2.5l-38 17.8c-.5.2-1 .2-1.5 0M78.8 321l44.4-20.7c1.7-.8 7.1 4.3 5.4 5.1l-42.3 19.8c-.9.3-9.2-3.4-7.5-4.2"/><path fill="#FF7361" d="M99.2 318.1c.6.2.9.7 1 1.3.8 5.9 4.7 10.8 10.2 12.9 8.3 3.2 17.7-1 21-9.3 3.2-8.3-1-17.7-9.3-21L93 290.9c-8.3-3.2-17.7 1-21 9.3-3.2 8.3 1 17.7 9.3 21 5.5 2.1 11.7 1.1 16.3-2.7.4-.5 1-.6 1.6-.4m10.1 17.3c-5.8-2.2-10.1-7.1-11.7-12.9-5.2 3.3-11.6 3.9-17.4 1.7-10-3.9-15-15.1-11.2-25.1 3.9-10 15.1-15 25.1-11.2l29.1 11.2c10 3.9 15 15.1 11.2 25.1-3.8 10-15.1 15-25.1 11.2M104.6 251.4c-.1-.1-.2-.3-.2-.5-.1-.5.3-.9.8-1 6-.7 11.2 1.3 15.5 5.7.3.4.3.9 0 1.3-.4.3-.9.3-1.3 0-3.9-4.1-8.5-5.8-14-5.2-.4 0-.7-.1-.8-.3M106.1 256.2c-.1-.1-.2-.3-.2-.4-.1-.5.2-.9.7-1 4-.7 7.3.6 9.8 3.7.3.4.2.9-.1 1.3-.4.3-.9.3-1.3-.1-2.1-2.6-4.8-3.6-8.2-3-.2-.1-.5-.3-.7-.5M107.6 261c-.1-.1-.1-.2-.2-.3-.1-.5.1-1 .6-1.1 1.1-.3 2.8-.3 4.3 1.6.3.4.2 1-.1 1.3-.4.3-1 .2-1.3-.1-.9-1.2-1.8-1.1-2.4-.9-.4-.1-.7-.2-.9-.5"/></g><g><path fill="#FF7361" d="M337.9 34.8c1.9 2.7 2.6 6 3.3 9.2.7 3.4 1.6 6.7 2.9 9.9 1.3 3.2 3.1 6.1 5 9 1.9 2.7 3.9 5.5 4.9 8.8.8 2.9.6 6.2-.8 8.9-1.3 2.6-3.7 4.3-6.5 5-2.8.7-5.7.5-8.4-.5-3.3-1.1-6.1-3.4-8.4-5.9-5.1-5.5-8.2-12.5-13.4-18-.6-.7-1.3-1.3-2-2-.4-.4-1 .3-.6.6 5.9 5.2 9.1 12.5 14.1 18.4 2.3 2.8 5.1 5.4 8.5 7 2.6 1.2 5.6 1.8 8.5 1.5 2.9-.3 5.6-1.5 7.5-3.7 2-2.3 3-5.5 2.9-8.5-.1-3.4-1.6-6.4-3.4-9.2-1.9-3-4-5.8-5.7-8.9-1.6-3.2-2.9-6.6-3.7-10.2-.8-3.3-1.2-6.6-2.7-9.7-.4-.8-.8-1.5-1.2-2.2-.3-.5-1.1 0-.8.5"/><path fill="#FF7361" d="M338.7 34.2c-3.2 12.7-11.2 21.6-25.1 26L296 18.1l42.7 16.1z"/><path fill="#005EC6" d="M319.8 57.7L296 18.1l42.7 16.1c-2.7 10.6-8.8 18.6-18.9 23.5"/><path fill="#FF7361" d="M328 52.3l-32-34.2 42.7 16.1c-1.9 7.3-5.4 13.4-10.7 18.1"/><path fill="#005EC6" d="M296 18.1l42.7 16.1c-1 3.9-2.4 7.5-4.4 10.7"/><path fill="#FF7361" d="M296 18.1l42.7 16.1c-.3 1.2-.6 2.3-1 3.5"/></g><g><path fill="#FF7361" d="M321.6 393l5.3-40c.1-1.1 1.1-1.8 2.2-1.7l70.6 9.4c1.1.1 1.8 1.1 1.7 2.2l-5.3 40c-.1 1.1-1.1 1.8-2.2 1.7l-70.6-9.4c-1.1-.1-1.9-1.1-1.7-2.2"/><path fill="#005EC6" d="M358.9 393.2l4.1-30.8c.1-1.1 1.1-1.8 2.2-1.7l29.9 4c1.1.1 1.8 1.1 1.7 2.2l-4.1 30.8c-.1 1.1-1.1 1.8-2.2 1.7l-29.9-4c-1.1-.1-1.9-1.1-1.7-2.2"/><path fill="#FFF" d="M345.9 392.5l4.4-32.8c.1-.5.5-.9 1-.8l3.4.5c.5.1.9.5.8 1l-4.4 32.8c-.1.5-.5.9-1 .8l-3.4-.5c-.5 0-.9-.5-.8-1"/><path fill="#FF7361" d="M347.6 391.2l3.9-29.6c.1-.5.6-.9 1.2-.8.6.1 1 .6.9 1.1l-3.9 29.6c-.1.5-.6.9-1.2.8-.6-.1-1-.5-.9-1.1"/><path fill="#FF7361" d="M351.5 369.6c-1.7-.2-3-1.8-2.7-3.6.2-1.7 1.8-3 3.6-2.7 1.7.2 3 1.8 2.7 3.6-.3 1.7-1.9 3-3.6 2.7"/><path fill="#FFF" d="M337.2 391.4l4.4-32.8c.1-.5.5-.9 1-.8l3.4.5c.5.1.9.5.8 1l-4.4 32.8c-.1.5-.5.9-1 .8l-3.4-.5c-.5 0-.8-.5-.8-1"/><path fill="#FFC640" d="M338.9 390.1l3.9-29.6c.1-.5.6-.9 1.2-.8.6.1 1 .6.9 1.1l-3.9 29.6c-.1.5-.6.9-1.2.8-.5-.1-1-.6-.9-1.1"/><path fill="#FFC640" d="M341 382.3c-1.7-.2-3-1.8-2.7-3.6.2-1.7 1.8-3 3.6-2.7 1.7.2 3 1.8 2.7 3.6-.2 1.7-1.8 2.9-3.6 2.7M333.6 363c-1.7-.2-3-1.8-2.7-3.6.2-1.7 1.8-3 3.6-2.7 1.7.2 3 1.8 2.7 3.6-.3 1.7-1.9 2.9-3.6 2.7"/><path fill="#FFF" d="M332.3 372.4c-1.7-.2-3-1.8-2.7-3.6.2-1.7 1.8-3 3.6-2.7 1.7.2 3 1.8 2.7 3.6-.2 1.7-1.8 2.9-3.6 2.7"/><path fill="#FFC640" d="M385.2 372.5l.7-5.2c.1-1.1 1.1-1.8 2.2-1.7l5.2.7c1.1.1 1.8 1.1 1.7 2.2l-.7 5.2c-.1 1.1-1.1 1.8-2.2 1.7l-5.2-.7c-1-.2-1.8-1.2-1.7-2.2"/><path fill="#FFF" d="M374.7 371.1l.7-5.2c.1-1.1 1.1-1.8 2.2-1.7l5.2.7c1.1.1 1.8 1.1 1.7 2.2l-.7 5.2c-.1 1.1-1.1 1.8-2.2 1.7l-5.2-.7c-1.1-.2-1.8-1.2-1.7-2.2M364.2 369.7l.7-5.2c.1-1.1 1.1-1.8 2.2-1.7l5.2.7c1.1.1 1.8 1.1 1.7 2.2l-.7 5.2c-.1 1.1-1.1 1.8-2.2 1.7l-5.2-.7c-1.1-.2-1.8-1.2-1.7-2.2"/><path fill="#FFC640" d="M383.8 383.2l.7-5.2c.1-1.1 1.1-1.8 2.2-1.7l5.2.7c1.1.1 1.8 1.1 1.7 2.2l-.7 5.2c-.1 1.1-1.1 1.8-2.2 1.7l-5.2-.7c-1.1-.2-1.9-1.1-1.7-2.2M373.2 381.8l.7-5.2c.1-1.1 1.1-1.8 2.2-1.7l5.2.7c1.1.1 1.8 1.1 1.7 2.2l-.7 5.2c-.1 1.1-1.1 1.8-2.2 1.7l-5.2-.7c-1.1-.2-1.8-1.1-1.7-2.2M362.7 380.4l.7-5.2c.1-1.1 1.1-1.8 2.2-1.7l5.2.7c1.1.1 1.8 1.1 1.7 2.2l-.7 5.2c-.1 1.1-1.1 1.8-2.2 1.7l-5.2-.7c-1.1-.2-1.8-1.1-1.7-2.2M382.3 394.1l.7-5.2c.1-1.1 1.1-1.8 2.2-1.7l5.2.7c1.1.1 1.8 1.1 1.7 2.2l-.7 5.2c-.1 1.1-1.1 1.8-2.2 1.7l-5.2-.7c-1.1-.2-1.8-1.2-1.7-2.2"/><path fill="#FFF" d="M371.8 392.7l.7-5.2c.1-1.1 1.1-1.8 2.2-1.7l5.2.7c1.1.1 1.8 1.1 1.7 2.2l-.7 5.2c-.1 1.1-1.1 1.8-2.2 1.7l-5.2-.7c-1.1-.2-1.9-1.2-1.7-2.2"/><path fill="#FFC640" d="M361.3 391.3l.7-5.2c.1-1.1 1.1-1.8 2.2-1.7l5.2.7c1.1.1 1.8 1.1 1.7 2.2l-.7 5.2c-.1 1.1-1.1 1.8-2.2 1.7l-5.2-.7c-1.1-.2-1.9-1.2-1.7-2.2"/><path fill="#005EC6" d="M369.1 354.4l-10-1.3c.4-3.1 2.9-4.7 5.7-4.4 2.7.4 4.7 2.7 4.3 5.7"/><path fill="#FFF" d="M350.6 353.2c.1-.7.8-1.2 1.5-1.1l24.1 3.2c.7.1 1.2.8 1.1 1.5-.1.7-.8 1.2-1.5 1.1l-24.1-3.2c-.7-.1-1.2-.8-1.1-1.5"/><path fill="#005EC6" d="M361.5 333.9c-.1-.2-.2-.3-.2-.6 0-.5.4-1 .9-1 6.7-.3 12.3 2.2 16.7 7.4.4.4.3 1-.1 1.4-.4.4-1 .3-1.4-.1-4-4.8-8.9-7-15.1-6.7-.3 0-.6-.2-.8-.4M362.9 339.3c-.1-.1-.2-.3-.2-.5-.1-.5.3-1 .9-1.1 4.5-.5 8.1 1.1 10.6 4.7.3.4.2 1.1-.2 1.4-.4.3-1.1.2-1.4-.2-2.1-3-5-4.3-8.8-3.9-.3 0-.7-.1-.9-.4M364.2 344.7c-.1-.1-.1-.2-.2-.4-.1-.5.2-1.1.7-1.2 1.3-.3 3.1-.2 4.6 2 .3.4.2 1.1-.2 1.4-.4.3-1.1.2-1.4-.2-1-1.4-1.9-1.4-2.6-1.2-.3.1-.7-.1-.9-.4"/></g><g fill="#FF7361"><path d="M70.7 181.6c1.2-.9 2.9-.6 3.7.6.9 1.2.6 2.9-.6 3.7-1.2.9-2.9.6-3.7-.6-.9-1.2-.6-2.9.6-3.7M72.1 190.3l-6.1-8.7c-7.3 5.2-17.5 3.7-22.8-3.9l-8.7 6.1c8.6 12.4 25.4 15.2 37.6 6.5"/><path d="M73.1 184.945l-3.262 2.316-1.68-2.363 3.262-2.316z"/></g><g fill="#005EC7"><path d="M486.4 49.3c-.1 1.5-1.4 2.6-2.8 2.5s-2.6-1.4-2.5-2.8c.1-1.5 1.4-2.6 2.8-2.5s2.6 1.3 2.5 2.8M478.8 44.8l10.6.7c.6-8.9 8.3-15.8 17.5-15.2l.7-10.6c-15-1-27.8 10.1-28.8 25.1"/><path d="M482.305 48.978l.283-3.99 2.893.205-.282 3.99z"/></g><g fill="#005EC7"><path d="M537.9 395.1c1.3.7 1.8 2.3 1.2 3.6s-2.3 1.8-3.6 1.2c-1.3-.7-1.8-2.3-1.2-3.6s2.3-1.8 3.6-1.2M530.9 400.4l4.7-9.5c-8-4-11.5-13.7-7.3-22l-9.5-4.7c-6.7 13.4-1.3 29.5 12.1 36.2"/><path d="M536.11 398.776l-3.58-1.787 1.297-2.596 3.578 1.788z"/></g><path fill="#FF7361" d="M177.8 70.4c3.1 0 5.7-2.5 5.7-5.7 0-3.1-2.5-5.7-5.7-5.7s-5.7 2.5-5.7 5.7c0 3.1 2.5 5.7 5.7 5.7"/><path fill="#FFC640" d="M221.3 35c3.1 0 5.7-2.5 5.7-5.7 0-3.1-2.5-5.7-5.7-5.7-3.1 0-5.7 2.5-5.7 5.7s2.6 5.7 5.7 5.7"/><path fill="#FF7361" d="M212.2 352.3c3.1 0 5.7-2.5 5.7-5.7 0-3.1-2.5-5.7-5.7-5.7s-5.7 2.5-5.7 5.7 2.5 5.7 5.7 5.7M482.9 311.8c3.1 0 5.7-2.5 5.7-5.7 0-3.1-2.5-5.7-5.7-5.7-3.1 0-5.7 2.5-5.7 5.7 0 3.1 2.6 5.7 5.7 5.7"/><path fill="#FFC640" d="M403.2 201c3.1 0 5.7-2.5 5.7-5.7 0-3.1-2.5-5.7-5.7-5.7-3.1 0-5.7 2.5-5.7 5.7s2.6 5.7 5.7 5.7"/><path fill="#FF7361" d="M240.5 230.1c3.1 0 5.7-2.5 5.7-5.7 0-3.1-2.5-5.7-5.7-5.7-3.1 0-5.7 2.5-5.7 5.7s2.6 5.7 5.7 5.7"/><path fill="#FFC640" d="M78.2 389.1c3.1 0 5.7-2.5 5.7-5.7 0-3.1-2.5-5.7-5.7-5.7s-5.7 2.5-5.7 5.7c0 3.1 2.6 5.7 5.7 5.7M523.2 88.4c3.1 0 5.7-2.5 5.7-5.7 0-3.1-2.5-5.7-5.7-5.7s-5.7 2.5-5.7 5.7 2.6 5.7 5.7 5.7"/><g><path fill="#005EC7" d="M155.4 248.1c2.2-.6 4.2-2.5 5.7-5.4 1.4-2.6 3-4.3 5-4.8 1.9-.5 4.2 0 6.7 1.5l.6-1c-5.7-3.4-10.3-2.1-13.4 3.8-1.4 2.6-3 4.3-5 4.8-1.9.5-4.2 0-6.7-1.5l-.6 1c2.9 1.7 5.5 2.2 7.7 1.6"/></g><g><path fill="#005EC7" d="M136.1 52.1c-.7-2.2-2.6-4.1-5.6-5.5-2.7-1.3-4.4-2.9-5-4.8-.6-1.9-.2-4.2 1.3-6.8l-1.1-.6c-3.2 5.8-1.8 10.4 4.2 13.3 2.7 1.3 4.4 2.9 5 4.8s.2 4.2-1.3 6.8l1.1.6c1.6-3 2.1-5.6 1.4-7.8"/></g><g><path fill="#005EC7" d="M407.5 68.9c2.1-1 3.7-3.2 4.6-6.3.9-2.8 2.2-4.7 4-5.6 1.8-.9 4.1-.8 6.9.3l.4-1.1c-6.2-2.4-10.5-.3-12.5 6.1-.9 2.8-2.2 4.7-4 5.6-1.8.9-4.1.8-6.9-.3l-.4 1.1c3.2 1.1 5.8 1.2 7.9.2"/></g><g><path fill="#005EC7" d="M254.2 382.3c.6-2.3.1-4.8-1.7-7.7-1.6-2.5-2.1-4.8-1.5-6.7.5-1.9 2.1-3.6 4.8-5l-.6-1.1c-5.9 3.1-7.1 7.7-3.7 13.4 1.6 2.5 2.1 4.8 1.5 6.7s-2.1 3.6-4.8 5l.6 1.1c3-1.5 4.8-3.4 5.4-5.7"/></g><g><path fill="#005EC7" d="M588.2 284.9c-2.4 1.1-4.2 3.5-5.4 7.1-1.1 3.2-2.7 5.3-4.7 6.3-2.1.9-4.7.8-7.8-.5l-.5 1.3c7 2.8 12 .5 14.4-6.6 1.1-3.2 2.7-5.3 4.7-6.3 2.1-.9 4.7-.8 7.8.5l.5-1.3c-3.6-1.4-6.6-1.6-9-.5"/></g></svg>