<svg xmlns="http://www.w3.org/2000/svg" viewBox="0 0 1184.8 540.6"><path fill="#005EC7" d="M408 180.3l1.9 11.8 16.4-2.6 7.5 47.3 11.8-1.9-7.5-47.3 16.4-2.6-1.9-11.8M487.6 154.2l-2.9 59.7 12 .6 1.2-24.9 22.1 1-1.2 24.9 11.9.6 2.9-59.7-12-.6-1.1 22.9-22.1-1.1 1.1-22.9M590.9 210l-7.4-12.7-5.6 13.9 13-1.2zm6.6 11.4l-24.7 2.2-4.6 11.6-13.4 1.2L580 174l3.5-.3 33.4 57.2-13.2 1.2-6.2-10.7zM685.1 218l-27.8-39.7-5.4 34.5-11.8-1.9 9.3-59.1 3.7.5 27.4 38.3 5.3-33.1 11.8 1.9-9.4 59.1M752.6 175l-17.1 19.6-.4-19.3-12 .3 1.3 59.8 12-.3-.5-22.6 4.5-4.8 15.9 27 14.2-.3-22.2-35.9 20.4-23.9M544.7 301l-15.4 39.8 2.2 21.8-11.8 1.3-2.3-21.9-23.5-35.6 13.2-1.4 14.6 21.1 9.8-23.7M699.5 338.8c-1.8 12.7-13.5 21.5-26.1 19.7-12.7-1.8-21.5-13.5-19.8-26.1l5.3-37.5 11.8 1.7-5.3 37.4c-.4 3 .4 5.9 2.2 8.3 1.8 2.4 4.5 3.9 7.4 4.3 3 .4 5.8-.3 8.2-2.1 2.4-1.8 3.9-4.4 4.4-7.3h-.1l5.3-37.5 11.8 1.7-5.1 37.4zM578.8 312.1c-1.1 10.3 6.4 19.5 16.6 20.6 10.3 1.1 19.5-6.4 20.6-16.6 1.1-10.3-6.4-19.5-16.6-20.6-10.3-1.1-19.5 6.3-20.6 16.6m49.5 5.2c-1.8 17-17.1 29.4-34.1 27.6-17-1.8-29.4-17.1-27.6-34.1 1.8-17 17.1-29.4 34.1-27.6 17 1.8 29.3 17.1 27.6 34.1"/><path fill="#FFC640" d="M518.2 53.7c-.1.6-1.1.9-1.6 1h-.7c.1-.6.4-1.2 1.1-1.5.4-.1 1.3-.1 1.2.5m.6 4.9c.2-.1.8-.7 1.1-.6.2 0 .3.2.3.4 0 .4-.3.6-.7.7-.4.1-.8 0-1.2-.2.2-.1.4-.2.5-.3m-7.3-9.4c.2-.4 1.3-1.2 1.6-.5.4.8-1.3 1.2-1.8 1.4h-.2c.1-.3.2-.6.4-.9m-7-2.2c.3-.7 1.1-.9 1.2.1.1.8-.4 1.5-.9 2-.1-.2-.2-.4-.3-.7-.2-.5-.2-1 0-1.4m-5.5.5c.5-.3 1.2-.1 1.6.3.5.5.5 1.2.2 1.8-.2.4-.5.7-.9.9-.2-.1-.3-.1-.5-.2-.9-.6-1.5-2.2-.4-2.8m18.4 4.3c-1.5 0-2.6 1.3-2.9 2.7-.7-.3-1.3-.7-1.8-1.1-.5-.5-1.1-1.1-1.4-1.8 1-.2 2-.5 2.7-1.3.6-.7.7-1.8.1-2.5-.7-.8-1.9-.7-2.8-.2-.8.5-1.3 1.4-1.5 2.3 0 .2-.1.4-.1.6-1.4.3-3 .3-4.1-.3 1-1 1.8-2.4 1.2-3.9-.4-.9-1.3-1.4-2.2-1.1-.8.3-1.4 1.1-1.6 1.9-.2 1 0 2 .6 2.9-.1 0-.2.1-.2.1-.5.2-1.1.5-1.7.6.7-1 .9-2.2.2-3.3-1-1.6-3.5-1.9-4.5-.2-.7 1.1-.4 2.5.3 3.5-2.1-.4-4.4-2-6.6-1.1-1.4.5-2.2 1.9-2.4 3.4-.2 1.8.7 3.5 1.5 5.1.4.8 1.6.1 1.2-.7-.9-1.7-2.4-4.9-.2-6.3 1.3-.8 3 0 4.2.4 1.4.5 3 1 4.4.5 1.5.3 3.3-.2 4.6-.9h.1c.1.1.3.2.4.3 1.5 1 3.3.9 5 .5.5 1.4 1.6 2.6 2.9 3.3.5.3 1.1.6 1.7.7.2 1 .8 2 1.5 2.9-.1.1-.2.1-.3.2-1.2.8-2.3 1.5-3.5 2.3-.7.5 0 1.7.7 1.2 1.4-.9 2.7-1.8 4.1-2.7.3.3.7.5 1.1.6.9.3 2 .3 2.7-.4.7-.6.9-1.6.4-2.5-.5-.8-1.4-1-2.2-.7-.7.3-1.3.7-1.9 1.2-.4-.5-.8-1.1-1-1.5-.1-.1-.1-.2-.1-.3.9 0 1.7-.2 2.5-.7.7-.5 1.3-1.4 1-2.3-.2-1-1.2-1.5-2.1-1.4"/><path fill="#005EC6" d="M472.3 76.4c-.4.2-.8.1-1-.3L460 57.4c-.2-.4-.1-.8.3-1 .4-.2.8-.1 1 .3l11.3 18.7c.2.3.1.8-.3 1"/><path fill="#005EC6" d="M463.3 55.4c.9 1.4.4 3.3-1 4.2s-3.3.4-4.2-1c-.9-1.4-.4-3.3 1-4.2 1.4-.9 3.3-.4 4.2 1"/><path fill="#FF7361" d="M515.5 74.7L465.1 105c-.8.5-1.8.2-2.3-.6l-10.3-17.2c-.5-.8-.2-1.8.6-2.3l50.4-30.3c.8-.5 1.8-.2 2.3.6L516 72.4c.5.8.3 1.8-.5 2.3"/><path fill="#FFF" d="M463.7 81.5c-.4.2-.8.1-1-.3l-11.3-18.7c-.2-.4-.1-.8.3-1s.8-.1 1 .3L464 80.5c.2.3.1.8-.3 1"/><path fill="#FF7361" d="M454.7 60.6c.9 1.4.4 3.3-1 4.2-1.4.9-3.3.4-4.2-1-.9-1.4-.4-3.3 1-4.2 1.4-1 3.3-.5 4.2 1"/><path fill="#FFF" d="M452.7 88.7l3.3 5.5c-1.6 1-3.5.4-4.4-1.1-.9-1.5-.5-3.4 1.1-4.4"/><path fill="#005EC6" d="M456.6 95.2c-.3.2-.6.1-.8-.2l-3.8-6.4c-.2-.3-.1-.6.2-.8.3-.2.6-.1.8.2l3.8 6.4c.2.3.1.7-.2.8M457.7 96.9l3.3 5.5c-1.6 1-3.5.4-4.4-1.1-.9-1.5-.6-3.4 1.1-4.4"/><path fill="#FFF" d="M461.6 103.5c-.3.2-.6.1-.8-.2l-3.8-6.4c-.2-.3-.1-.6.2-.8.3-.2.6-.1.8.2l3.8 6.4c.2.3.1.6-.2.8M516.8 71.1c-.6.4-1.5.2-1.8-.5l-7.9-13.1c-.4-.6-.2-1.5.5-1.8.6-.4 1.5-.2 1.8.5l7.9 13.1c.4.6.1 1.4-.5 1.8"/><path fill="#FF7361" d="M495.4 58.8l-5.5 3.3c-1-1.6-.4-3.5 1.1-4.4 1.5-1 3.4-.6 4.4 1.1"/><path fill="#FFF" d="M488.9 62.7c-.2-.3-.1-.6.2-.8l6.4-3.8c.3-.2.6-.1.8.2.2.3.1.6-.2.8l-6.4 3.8c-.3.1-.7 0-.8-.2"/><path fill="#005EC6" d="M490.1 63.8c-4.9 2.9-17.8 10.7-22.7 13.6-7.1 4.3-9.5 13.6-5.2 20.7s13.6 9.5 20.7 5.2c4.9-2.9 7.5-8.2 7.3-13.5 4.6 2.7 10.5 2.8 15.4-.1 7.1-4.3 9.5-13.6 5.2-20.7-4.3-7.2-13.6-9.5-20.7-5.2"/><path fill="#FFC640" d="M469.1 104.3c-.3.2-.8.3-1.2.2-.9-.2-1.4-1-1.2-1.9l6.8-29.7c.2-.9 1-1.4 1.9-1.2.9.2 1.4 1 1.2 1.9l-6.8 29.7c0 .5-.3.8-.7 1M475.5 104.8c-.3.2-.8.3-1.2.2-.9-.2-1.4-1-1.2-1.9l7.9-34.6c.2-.9 1-1.4 1.9-1.2.9.2 1.4 1 1.2 1.9l-7.9 34.6c0 .4-.3.7-.7 1M480.9 103.7l9.3-40.4c.4-1.6 6.5-2.5 6.2-1l-8.8 38.6c-.3.8-7.1 4.4-6.7 2.8"/><path fill="#FFF" d="M489.6 88.7c.4-.3 1-.3 1.4 0 4.3 2.5 9.7 2.5 14-.1 6.5-3.9 8.6-12.4 4.7-18.8-3.9-6.5-12.4-8.6-18.8-4.7l-22.7 13.6c-6.5 3.9-8.6 12.4-4.7 18.8 3.9 6.5 12.4 8.6 18.8 4.7 4.3-2.6 6.8-7.3 6.7-12.3-.1-.5.1-1 .6-1.2m16.7 2.2c-4.5 2.7-10 3.1-14.8 1.1-.5 5.1-3.4 9.8-7.9 12.5-7.8 4.7-17.9 2.2-22.6-5.6-4.7-7.8-2.2-17.9 5.6-22.6l22.7-13.6c7.8-4.7 17.9-2.2 22.6 5.6 4.8 7.8 2.2 17.9-5.6 22.6"/><path fill="#005EC6" d="M447.8 50.3c-.1 0-.3 0-.4-.1-.4-.2-.5-.7-.2-1 2.7-4.4 6.7-6.8 11.9-7.4.4 0 .8.3.8.7 0 .4-.3.8-.7.8-4.8.5-8.3 2.6-10.8 6.6-.2.3-.4.4-.6.4M451.8 51.8c-.1 0-.3 0-.4-.1-.4-.2-.5-.7-.3-1 1.7-3.1 4.2-4.6 7.6-4.7.4 0 .8.3.8.7 0 .4-.3.8-.7.8-2.8 0-4.9 1.3-6.3 3.9-.2.3-.4.4-.7.4M455.8 53.4c-.1 0-.2 0-.3-.1-.4-.2-.6-.6-.4-1 .4-.9 1.3-2.1 3.3-2.1.4 0 .8.3.8.8 0 .4-.3.8-.8.8-1.3 0-1.7.6-1.9 1.1-.2.3-.4.4-.7.5"/><path fill="#FF7361" d="M251.9 93.5c3.6 3.5 5.4 8.7 4.8 13.7-.6 5.1-3.7 9.7-8.1 12.4-4.8 2.9-10.7 2.8-15.8 1-5.7-2-10.4-6-14.6-10.4-2.1-2.2-4-4.7-6.3-6.7-2.2-2-4.8-3.4-7.8-4.1-5.3-1.1-11.1-.3-16.2 1.4-5 1.7-9.4 4.6-13.2 8.3-3.9 3.7-7.1 8.1-10.8 12-3.6 3.9-7.7 7.3-12.8 9.1-5 1.7-10.3 2-15.5 1.8-10.1-.3-20.5-2.3-30.3 1.1-4.4 1.5-8.4 4.3-11 8.2-2.5 3.7-3.7 8.1-3.6 12.5 0 4.4 1.4 8.8 4.1 12.3 2.7 3.5 6.7 6.3 8.4 10.5 1 2.4.7 4.9-.4 7.2-1.3 2.7-3.4 4.9-4.5 7.7-1.8 4.5-1.1 9.7 1.3 13.9 2.7 4.7 7.7 7.7 13 8.7 5.3 1 10.4-.7 15.7-1.1 2.5-.2 4.9 0 7.2 1.2.8.4 1.3-.8.6-1.2-4.6-2.4-9.8-1.1-14.6-.3-2.7.4-5.4.6-8.2.2-2.8-.5-5.6-1.5-7.9-3.2-4.2-3-6.9-8.1-6.6-13.3.1-2.7 1.1-5.1 2.6-7.4 1.6-2.5 3.5-4.9 3.9-7.9.7-4.5-2.3-8.2-5.2-11.3-1.5-1.7-3.2-3.3-4.5-5.2-1.3-1.8-2.2-3.9-2.8-6.1-1.1-4.4-.7-9.1 1-13.3 1.8-4.4 5.2-7.8 9.5-9.9 9.3-4.5 20.1-2.8 30.1-2.3 5.2.3 10.4.3 15.5-.9s9.5-3.8 13.3-7.4c3.9-3.6 7.1-7.9 10.7-11.8 3.6-4 7.7-7.5 12.6-9.8 5-2.3 10.6-3.4 16.1-3 3.2.3 6.2 1.3 8.7 3.3 2.4 1.9 4.3 4.4 6.4 6.6 4.1 4.4 8.6 8.5 14.2 10.9 4.8 2.1 10.4 2.8 15.4 1.1 4.7-1.6 8.6-5.3 10.7-9.8 2-4.5 1.9-9.7 0-14.2-.9-2.1-2.2-4.1-3.9-5.7-.9-.4-1.8.6-1.2 1.2M142.8 221.1c5.2 2.5 7.5 8.8 5 14-2.5 5.2-8.8 7.5-14 5-5.2-2.5-7.5-8.8-5-14 2.5-5.3 8.8-7.5 14-5"/><path fill="#FF7361" d="M154.5 196.5c5.2 2.5 7.5 8.8 5 14-2.5 5.2-8.8 7.5-14 5-5.2-2.5-7.5-8.8-5-14 2.4-5.2 8.7-7.5 14-5"/><path fill="#FF7361" d="M153.5 209.4l-10.3 21.7c-.4.8-1.3 1.1-2.1.8l-10.6-5.1c-.8-.4-1.1-1.3-.8-2.1L140 203c.4-.8 1.3-1.1 2.1-.8l10.6 5.1c.8.4 1.1 1.4.8 2.1"/><path fill="#005EC6" d="M143.2 232.9c-.3.6-1 .9-1.6.6l-7.6-3.6c-.6-.3-.9-1-.6-1.6.3-.6 1-.9 1.6-.6l7.6 3.6c.6.3.9 1 .6 1.6"/><path fill="#005EC6" d="M136 235.5c-.6-.3-.9-1-.6-1.6l3.6-7.6c.3-.6 1-.9 1.6-.6.6.3.9 1 .6 1.6l-3.6 7.6c-.3.6-1 .9-1.6.6"/><path fill="#FFC640" d="M146.8 201.6c.9.4 1.3 1.6.9 2.5-.4.9-1.6 1.3-2.5.9-.9-.4-1.3-1.6-.9-2.5.5-.9 1.6-1.3 2.5-.9M149 207.9c.9.4 1.3 1.6.9 2.5-.4.9-1.6 1.3-2.5.9-.9-.4-1.3-1.6-.9-2.5.5-.9 1.6-1.3 2.5-.9"/><path fill="#FFF" d="M152.5 199.6c.9.4 1.3 1.6.9 2.5-.4.9-1.6 1.3-2.5.9s-1.3-1.6-.9-2.5c.4-.9 1.5-1.3 2.5-.9M154.7 205.9c.9.4 1.3 1.6.9 2.5-.4.9-1.6 1.3-2.5.9-.9-.4-1.3-1.6-.9-2.5.4-.9 1.5-1.3 2.5-.9M134.6 228.3c-.2.1-.3.2-.4.3-.1.2-.1.3 0 .5s.2.3.3.4l.1.1c.2.1.3.1.5 0s.3-.2.4-.3c.1-.2.1-.3 0-.5s-.2-.3-.3-.4l-.1-.1h-.5M139.3 226.6c-.4.8.8 1.3 1.2.6.4-.8-.8-1.4-1.2-.6M141.7 232c-.4.8.8 1.3 1.2.6.3-.8-.9-1.4-1.2-.6M136 234c-.4.8.8 1.3 1.2.6.3-.8-.9-1.3-1.2-.6M144.1 217.2l-1 2.1c-.4.8.8 1.3 1.2.6l1-2.1c.4-.8-.8-1.3-1.2-.6M142.2 216.4l-.9 1.9c-.4.9.8 1.5 1.2.6l.9-1.9c.4-.9-.8-1.5-1.2-.6"/><path fill="#005EC6" d="M251.4 83.6c-1.9-5.5.9-11.5 6.4-13.4 5.5-1.9 11.5.9 13.4 6.4 1.9 5.5-.9 11.5-6.4 13.4-5.5 1.9-11.5-1-13.4-6.4M225.7 92.7c-1.9-5.5.9-11.5 6.4-13.4 5.5-1.9 11.5.9 13.4 6.4 1.9 5.5-.9 11.5-6.4 13.4-5.4 1.9-11.4-.9-13.4-6.4"/><path fill="#005EC6" d="M235.6 84.2l22.6-8.1c.8-.3 1.7.1 2 1l4 11.1c.3.8-.1 1.7-1 2l-22.6 8.1c-.8.3-1.7-.1-2-1l-4-11.1c-.3-.8.2-1.7 1-2"/><path fill="#FF7361" d="M259.4 74.9c.6-.2 1.3.1 1.5.7l2.8 8c.2.6-.1 1.3-.7 1.5-.6.2-1.3-.1-1.5-.7l-2.8-8c-.2-.6.1-1.3.7-1.5"/><path fill="#FF7361" d="M266.4 78.2c.2.6-.1 1.3-.7 1.5l-8 2.8c-.6.2-1.3-.1-1.5-.7-.2-.6.1-1.3.7-1.5l8-2.8c.6-.2 1.3.1 1.5.7"/><path fill="#FFC640" d="M234.8 94.5c-.3-1 .2-2.1 1.1-2.4 1-.3 2.1.2 2.4 1.1.3 1-.2 2.1-1.1 2.4-1 .4-2.1-.2-2.4-1.1M237.7 88.4c-.3-1 .2-2.1 1.1-2.4 1-.3 2.1.2 2.4 1.1.3 1-.2 2.1-1.1 2.4-1 .4-2.1-.1-2.4-1.1"/><path fill="#FF7361" d="M229.3 91.9c-.3-1 .2-2.1 1.1-2.4 1-.3 2.1.2 2.4 1.1.3 1-.2 2.1-1.1 2.4-.9.4-2-.1-2.4-1.1M232.2 85.9c-.3-1 .2-2.1 1.1-2.4 1-.3 2.1.2 2.4 1.1.3 1-.2 2.1-1.1 2.4-1 .4-2-.1-2.4-1.1"/><path fill="#FFF" d="M262.3 84.3c.1.1.4.1.5 0 .2-.1.3-.2.4-.3.1-.2.1-.3 0-.5l-.1-.2c-.1-.2-.2-.3-.3-.4-.1-.1-.4-.1-.5 0-.2.1-.3.2-.4.3-.1.2-.1.3 0 .5l.1.2c0 .2.1.3.3.4M257.7 82.1c.8-.3.4-1.5-.4-1.2s-.4 1.5.4 1.2M259.9 76.6c.8-.3.4-1.5-.4-1.2-.9.3-.4 1.5.4 1.2M265.3 79.2c.8-.3.4-1.5-.4-1.2-.8.3-.4 1.5.4 1.2M247.7 85.3l2.2-.8c.8-.3.4-1.5-.4-1.2l-2.2.8c-.9.3-.4 1.5.4 1.2M248.5 87.3l2-.7c.9-.3.5-1.6-.4-1.2l-2 .7c-1 .3-.5 1.5.4 1.2"/><g><path fill="#005EC6" d="M260.4 224.8l14.6-27.4c.4-.7 1.3-1 2-.6l48.3 25.7c.7.4 1 1.3.6 2l-14.6 27.4c-.4.7-1.3 1-2 .6L261 226.8c-.8-.3-1-1.3-.6-2"/><path fill="#FF7361" d="M287.1 235l11.2-21.1c.4-.7 1.3-1 2-.6l20.4 10.9c.7.4 1 1.3.6 2l-11.2 21.1c-.4.7-1.3 1-2 .6L287.7 237c-.7-.4-1-1.3-.6-2"/><path fill="#FFF" d="M278 231l11.9-22.4c.2-.3.6-.5 1-.3l2.3 1.2c.3.2.5.6.3 1l-11.9 22.4c-.2.3-.6.5-1 .3l-2.3-1.2c-.4-.2-.5-.7-.3-1"/><path fill="#FF7361" d="M279.5 230.5l10.8-20.2c.2-.4.7-.5 1.1-.3.4.2.6.7.4 1L281 231.2c-.2.4-.7.5-1.1.3-.4-.2-.6-.7-.4-1"/><path fill="#FF7361" d="M288.2 216c-1.2-.6-1.6-2.1-1-3.3.6-1.2 2.1-1.6 3.3-1 1.2.6 1.6 2.1 1 3.3-.7 1.2-2.2 1.6-3.3 1"/><path fill="#FFF" d="M272.1 227.8l11.9-22.4c.2-.3.6-.5 1-.3l2.3 1.2c.3.2.5.6.3 1l-11.9 22.4c-.2.3-.6.5-1 .3l-2.3-1.2c-.4-.2-.5-.6-.3-1"/><path fill="#FFC640" d="M273.6 227.3l10.8-20.2c.2-.4.7-.5 1.1-.3.4.2.6.7.4 1L275.1 228c-.2.4-.7.5-1.1.3-.4-.1-.6-.6-.4-1"/><path fill="#FFC640" d="M277.2 222.3c-1.2-.6-1.6-2.1-1-3.3.6-1.2 2.1-1.6 3.3-1 1.2.6 1.6 2.1 1 3.3-.6 1.2-2.1 1.6-3.3 1"/><path fill="#FF7361" d="M277 206.4c-1.2-.6-1.6-2.1-1-3.3.6-1.2 2.1-1.6 3.3-1 1.2.6 1.6 2.1 1 3.3-.6 1.2-2.1 1.7-3.3 1"/><path fill="#FFF" d="M273.6 212.8c-1.2-.6-1.6-2.1-1-3.3.6-1.2 2.1-1.6 3.3-1 1.2.6 1.6 2.1 1 3.3-.6 1.2-2.1 1.7-3.3 1"/><path fill="#FFC640" d="M311.7 227.1l1.9-3.5c.4-.7 1.3-1 2-.6l3.5 1.9c.7.4 1 1.3.6 2l-1.9 3.5c-.4.7-1.3 1-2 .6l-3.5-1.9c-.8-.4-1-1.3-.6-2"/><path fill="#FFF" d="M304.5 223.3l1.9-3.5c.4-.7 1.3-1 2-.6l3.5 1.9c.7.4 1 1.3.6 2l-1.9 3.5c-.4.7-1.3 1-2 .6l-3.5-1.9c-.7-.4-1-1.3-.6-2M297.3 219.4l1.9-3.5c.4-.7 1.3-1 2-.6l3.5 1.9c.7.4 1 1.3.6 2l-1.9 3.5c-.4.7-1.3 1-2 .6l-3.5-1.9c-.7-.3-1-1.2-.6-2"/><path fill="#FFC640" d="M307.7 234.4l1.9-3.5c.4-.7 1.3-1 2-.6l3.5 1.9c.7.4 1 1.3.6 2l-1.9 3.5c-.4.7-1.3 1-2 .6l-3.5-1.9c-.7-.4-1-1.3-.6-2M300.5 230.6l1.9-3.5c.4-.7 1.3-1 2-.6l3.5 1.9c.7.4 1 1.3.6 2l-1.9 3.5c-.4.7-1.3 1-2 .6l-3.5-1.9c-.7-.4-1-1.3-.6-2M293.3 226.7l1.9-3.5c.4-.7 1.3-1 2-.6l3.5 1.9c.7.4 1 1.3.6 2l-1.9 3.5c-.4.7-1.3 1-2 .6l-3.5-1.9c-.7-.3-1-1.2-.6-2M303.8 241.8l1.9-3.5c.4-.7 1.3-1 2-.6l3.5 1.9c.7.4 1 1.3.6 2l-1.9 3.5c-.4.7-1.3 1-2 .6l-3.5-1.9c-.7-.3-1-1.2-.6-2"/><path fill="#FFF" d="M296.6 238l1.9-3.5c.4-.7 1.3-1 2-.6l3.5 1.9c.7.4 1 1.3.6 2l-1.9 3.5c-.4.7-1.3 1-2 .6l-3.5-1.9c-.7-.4-1-1.3-.6-2"/><path fill="#FFC640" d="M289.4 234.2l1.9-3.5c.4-.7 1.3-1 2-.6l3.5 1.9c.7.4 1 1.3.6 2l-1.9 3.5c-.4.7-1.3 1-2 .6l-3.5-1.9c-.7-.4-1-1.3-.6-2"/><path fill="#FF7361" d="M304.9 209.8l-6.9-3.7c1.1-2.1 3.4-2.6 5.3-1.6s2.7 3.2 1.6 5.3"/><path fill="#FFF" d="M291.9 203.9c.3-.5.9-.7 1.4-.4l16.5 8.8c.5.3.7.9.4 1.4-.3.5-.9.7-1.4.4l-16.5-8.8c-.5-.3-.7-.9-.4-1.4"/><path fill="#FF7361" d="M305 193v-.5c.1-.4.6-.6 1-.5 4.9 1.6 8.3 4.8 10 9.8.1.4-.1.8-.5 1-.4.1-.8-.1-1-.5-1.6-4.5-4.6-7.4-9-8.8-.3-.1-.5-.3-.5-.5M304.5 197.3v-.4c.1-.4.5-.7.9-.5 3.4.9 5.5 3 6.4 6.2.1.4-.1.8-.5.9-.4.1-.8-.1-.9-.5-.7-2.7-2.4-4.4-5.3-5.1-.3-.2-.5-.4-.6-.6M304 201.5v-.3c.1-.4.4-.7.9-.6 1 .1 2.3.7 2.8 2.7.1.4-.1.8-.5.9-.4.1-.8-.1-.9-.5-.3-1.2-1-1.5-1.5-1.6-.5-.1-.8-.3-.8-.6"/></g><path fill="#005EC6" d="M816.2 66.3c-.1-.1-.2-.1-.3-.2.1.1.2.2.3.2 0 .1 0 0 0 0"/><g><path fill="#FF7361" d="M752.8 107.5l-6.7-4.4c-.6-.4-.7-1.1-.4-1.7l5.6-8.6c.4-.6 1.1-.7 1.7-.4l6.7 4.4c.6.4.7 1.1.4 1.7l-5.6 8.6c-.4.6-1.2.8-1.7.4"/><path fill="#005EC6" d="M754.3 108l-.3-.2-9.2-6c-.2-.1-.5-.1-.7.2-.1.2-.1.5.1.7l.3.2 9.2 6c.2.1.5.1.7-.2.2-.3.2-.6-.1-.7M745.3 101.1l.3.2 9.2 6c.2.1.5.1.7-.2.1-.2.1-.5-.1-.7l-.3-.2-9.2-5.9c-.2-.1-.5-.1-.7.2-.2.1-.1.4.1.6M746.3 99.5l.3.2 9.2 6c.2.1.5.1.7-.2.1-.2.1-.5-.1-.7l-.3-.2-9.2-6c-.2-.1-.5-.1-.7.2-.2.2-.1.5.1.7"/><path fill="#FF7361" d="M776.9 109.2l-41.7-27.1c-.6-.4-.7-1.1-.4-1.7l18.3-28.2c.4-.6 1.1-.7 1.7-.4l41.7 27.1c.6.4.7 1.1.4 1.7l-18.3 28.2c-.4.6-1.2.7-1.7.4M789.2 44.6c-4.1-2.7-9.6-1.5-12.3 2.6l-8.5 13 14.9 9.7 8.5-13c2.7-4.2 1.5-9.7-2.6-12.3"/><path fill="#FFC640" d="M778.9 60.5c-.9-.6-1.4-2-.5-3.6 0-.1.1-.6.1-1.1.2-2.2.5-4.4 1-5.2 1.4-2.2 4.4-2.8 6.6-1.3 2.2 1.4 2.9 4.4 1.4 6.6-.5.8-2.4 1.9-4.3 3-.4.2-.9.5-1 .6-.9 1.4-2.4 1.5-3.3 1"/><path fill="#005EC6" d="M780.6 61.2l-3.1-2s-.1-.1 0-.1l.3-.5s.1-.1.1 0l3.1 2s.1.1 0 .1l-.3.5s-.1.1-.1 0"/><path fill="#005EC6" d="M778 58.9h-.1v.2l2.7 1.7h.1v-.1-.1l-2.7-1.7zm2.2 2.4l-2.7-1.7c-.3-.2-.4-.6-.2-.9v-.1c.2-.3.6-.4.9-.2l2.7 1.7c.3.2.4.6.2.9v.1c-.2.3-.6.4-.9.2"/><path fill="#005EC6" d="M780.1 61.9l-3.1-2s-.1-.1 0-.1l.3-.5s.1-.1.1 0l3.1 2s.1.1 0 .1l-.3.5h-.1"/><path fill="#005EC6" d="M777.5 59.6h-.1v.2l2.7 1.7h.1v-.1-.1l-2.7-1.7zm2.3 2.4l-2.7-1.7c-.3-.2-.4-.6-.2-.9v-.1c.2-.3.6-.4.9-.2l2.7 1.7c.3.2.4.6.2.9v.1c-.2.3-.6.4-.9.2"/><path fill="#FFF" d="M776.1 87.6l.1-2 .9 1.8c-.3.1-.6.2-1 .2m-1.2-2.8l-1.8.9c-.1-.3-.2-.7-.2-1l2 .1zm.9-3.4l-.1 2-.9-1.8c.4-.1.7-.1 1-.2m1.3 2.9l1.7-.9c.1.3.2.6.2 1l-1.9-.1zm-.3.6l2.2.1c-.1.4-.2.8-.4 1.1l-1.8-1.2zm.1.8l1.4.9-.6.6-.8-1.5zm-1.3.2l-.1 1.7c-.3 0-.6-.1-.8-.2l.9-1.5zm-.2-.7l-1.2 1.9c-.3-.2-.6-.5-.8-.9l2-1zm-.8-1l-1.7-.1c0-.3.1-.6.3-.8l1.4.9zm.8-.2l-1.9-1.2c.2-.3.5-.6.9-.8l1 2zm.9-.3l.1-2.3c.4.1.7.2 1.1.4l-1.2 1.9zm.8-.1l.9-1.4c.2.2.4.4.6.7l-1.5.7zm1.1-2.5c-1.9-1.2-4.4-.7-5.6 1.2-1.2 1.9-.7 4.4 1.2 5.6 1.9 1.2 4.4.7 5.6-1.2 1.2-1.8.7-4.4-1.2-5.6"/><path fill="#FF7361" d="M778.1 86c-.8 1.2-2.4 1.6-3.7.8-1.2-.8-1.6-2.4-.8-3.7s2.4-1.6 3.7-.8c1.3.9 1.6 2.5.8 3.7"/><path fill="#005EC6" d="M779.7 62.6l-3.1-2s-.1-.1 0-.1l.3-.5s.1-.1.1 0l3.1 2s.1.1 0 .1l-.3.5h-.1"/><path fill="#005EC6" d="M777.1 60.3h-.1v.2l2.7 1.7h.1v-.1-.1l-2.7-1.7zm2.2 2.4l-2.7-1.7c-.3-.2-.4-.6-.2-.9V60c.2-.3.6-.4.9-.2l2.7 1.7c.3.2.4.6.2.9v.1c-.2.3-.6.4-.9.2"/><path fill="#005EC6" d="M778.4 62.7l-1.5-1s-.1-.1 0-.1l.3-.5s.1-.1.1 0l1.5 1s.1.1 0 .1l-.3.5s0 .1-.1 0"/><path fill="#005EC6" d="M777.5 61.5h-.1v.2l1 .7h.1v-.1-.1l-1-.7zm.6 1.3l-1-.7c-.3-.2-.4-.6-.2-.9v-.1c.2-.3.6-.4.9-.2l1 .7c.3.2.4.6.2.9v.1c-.2.3-.6.4-.9.2M784.9 71.4l-18.5-12c-.1-.1-.2-.3-.1-.4l.9-1.3c.1-.1.3-.2.4-.1l18.5 12c.1.1.2.3.1.4l-.9 1.4c-.1.1-.2.1-.4 0M777.1 85.4c-.4.7-1.3.8-2 .4s-.8-1.3-.4-2 1.3-.8 2-.4.8 1.3.4 2"/><path fill="#FF7361" d="M786 97.3l6.8-10.5c3.2 2.1 3.7 5.8 1.8 8.7-1.8 2.9-5.4 3.9-8.6 1.8"/><path fill="#005EC6" d="M749.1 58.5L742.3 69c-3.2-2.1-3.7-5.8-1.8-8.7 1.8-2.9 5.4-3.9 8.6-1.8M750.4 93.2l.3.2 9.2 6c.2.1.5.1.7-.2.1-.2.1-.5-.1-.7l-.3-.2-9.2-6c-.2-.1-.5-.1-.7.2-.2.2-.1.5.1.7M747.3 97.9l.3.2 9.2 6c.2.1.5.1.7-.2.1-.2.1-.5-.1-.7l-.3-.2-9.2-6c-.2-.1-.5-.1-.7.2-.1.3-.1.6.1.7M749.4 94.8l.3.2 9.2 6c.2.1.5.1.7-.2.1-.2.1-.5-.1-.7l-.3-.2L750 94c-.2-.1-.5-.1-.7.2-.2.1-.2.4.1.6M748.4 96.3l.3.2 9.2 6c.2.1.5.1.7-.2.1-.2.1-.5-.1-.7l-.3-.2-9.2-5.9c-.2-.1-.5-.1-.7.2-.2.2-.2.5.1.6"/><path fill="#FFF" d="M740.3 70.5c-.4-.2-.5-.8-.2-1.1l8.2-12.6c.2-.4.8-.5 1.1-.2.4.2.5.8.2 1.1l-8.2 12.6c-.2.3-.7.4-1.1.2"/><path fill="#005EC6" d="M785.8 99.2c-.4-.2-.5-.8-.2-1.1l8.2-12.6c.2-.4.8-.5 1.1-.2.4.2.5.8.2 1.1L786.9 99c-.3.3-.8.4-1.1.2"/><path fill="#FFF" d="M752.7 75.7c-1.1 1.7-3.3 2.1-5 1.1-1.7-1.1-2.1-3.3-1.1-5 1.1-1.7 3.3-2.1 5-1.1 1.7 1.1 2.2 3.3 1.1 5M782.1 94.8c-1.1 1.7-3.3 2.1-5 1.1-1.7-1.1-2.1-3.3-1.1-5 1.1-1.7 3.3-2.1 5-1.1 1.7 1.1 2.1 3.3 1.1 5M757.2 81.7l10.5 6.8c-2.1 3.2-5.8 3.7-8.7 1.8-2.9-1.8-3.9-5.4-1.8-8.6"/><path fill="#005EC6" d="M757.5 83c-.5 1.1-.6 2.2-.4 3.3.3 1.3 1.2 2.5 2.4 3.3 1.2.8 2.7 1.1 4 .9 1.1-.2 2.1-.8 2.9-1.7l-8.9-5.8zm1 8.1c-1.6-1.1-2.8-2.6-3.2-4.4-.4-1.8 0-3.8 1.1-5.5.3-.4.8-.5 1.2-.3l10.5 6.8c.4.3.5.8.3 1.2-1.1 1.7-2.8 2.9-4.6 3.2-1.8.5-3.7.1-5.3-1"/><path fill="#FFF" d="M763.1 76c2-3.1.9-6-1.6-7.7-2.6-1.7-5.7-1.5-7.7 1.6l9.3 6.1z"/><path fill="#005EC6" d="M763 76.1l-10-6.5.4-.6c1.9-2.9 5.4-3.7 8.3-1.8 2.9 1.9 3.6 5.4 1.7 8.3l-.4.6z"/><path fill="#FFC640" d="M760.2 74.4c-.8 1.2-2.4 1.6-3.7.8-1.2-.8-1.6-2.4-.8-3.7s2.4-1.6 3.7-.8c1.2.8 1.6 2.4.8 3.7"/><path fill="#005EC6" d="M759.1 73.7c-.4.7-1.3.8-2 .4s-.9-1.3-.4-2c.4-.7 1.3-.8 2-.4s.9 1.3.4 2M762.6 86.7c-.3.5-.9.6-1.4.3-.5-.3-.6-.9-.3-1.4.3-.5.9-.6 1.4-.3.4.3.6.9.3 1.4"/><path fill="#005EC6" d="M761.8 86.1h-.1v.1h.1v-.1m-1.1 1.6c-.9-.6-1.1-1.7-.6-2.6.6-.9 1.7-1.1 2.6-.6.9.6 1.1 1.7.6 2.6-.6.9-1.7 1.2-2.6.6"/></g><g><path fill="#FF7361" d="M413.2 323.4c1.6 2.3 2.2 5 2.7 7.7.6 2.8 1.3 5.6 2.4 8.3 1.1 2.7 2.6 5.1 4.2 7.5 1.6 2.3 3.3 4.6 4.1 7.3.7 2.4.5 5.2-.7 7.4-1.1 2.1-3.1 3.6-5.4 4.2-2.3.6-4.8.4-7-.4-2.7-1-5.1-2.8-7-4.9-4.3-4.6-6.9-10.5-11.2-15.1-.5-.6-1.1-1.1-1.7-1.6-.4-.3-.9.2-.5.5 4.9 4.3 7.6 10.5 11.8 15.4 2 2.3 4.3 4.5 7.1 5.8 2.2 1 4.7 1.5 7.2 1.3 2.4-.3 4.7-1.3 6.3-3.1 1.7-1.9 2.5-4.6 2.4-7.1-.1-2.8-1.4-5.4-2.9-7.7-1.6-2.5-3.4-4.8-4.7-7.5-1.4-2.7-2.4-5.6-3.1-8.5-.6-2.7-1-5.6-2.2-8.1-.3-.6-.6-1.2-1-1.8-.4-.3-1.1 0-.8.4"/><path fill="#FF7361" d="M413.8 322.9c-2.6 10.6-9.4 18.1-21 21.8l-14.7-35.2 35.7 13.4z"/><path fill="#005EC6" d="M398 342.6l-19.9-33.2 35.7 13.5c-2.2 9-7.3 15.7-15.8 19.7"/><path fill="#FF7361" d="M404.9 338.1l-26.8-28.7 35.7 13.5c-1.5 6.2-4.5 11.3-8.9 15.2"/><path fill="#005EC6" d="M378.1 309.5l35.7 13.5c-.8 3.3-2 6.3-3.7 9"/><path fill="#FF7361" d="M378.1 309.5l35.7 13.5c-.2 1-.5 2-.9 2.9"/></g><g><path fill="#FFC640" d="M1058.4 78.5c-1.9 2-4.5 3.2-7 4.3-2.6 1.2-5.2 2.5-7.6 4.1-2.4 1.7-4.5 3.6-6.5 5.7-1.9 2-3.8 4.2-6.3 5.5-2.2 1.2-4.9 1.6-7.4.9-2.3-.7-4.2-2.3-5.3-4.4-1.1-2.1-1.4-4.6-1.1-7 .4-2.9 1.7-5.6 3.4-7.9 3.6-5.1 8.8-8.9 12.4-14.1.4-.6.9-1.3 1.3-2 .2-.4-.4-.8-.6-.4-3.2 5.7-8.7 9.7-12.7 14.8-1.9 2.4-3.5 5.1-4.2 8.1-.6 2.4-.5 4.9.3 7.3.8 2.3 2.2 4.3 4.3 5.5 2.3 1.3 5 1.5 7.5.9 2.7-.7 5-2.5 6.9-4.4 2.1-2.1 4-4.3 6.3-6.2 2.4-1.9 4.9-3.5 7.7-4.8 2.5-1.2 5.2-2.2 7.5-3.9.6-.4 1.1-.9 1.6-1.4.4-.4-.1-1-.5-.6"/><path fill="#FF7361" d="M1059 79c-10.9-.4-19.6-5.4-25.7-16l31.4-21.7L1059 79z"/><path fill="#FFF" d="M1036.5 67.6l28.3-26.4L1059 79c-9.1-.3-16.7-3.9-22.5-11.4"/><path fill="#FF7361" d="M1042.3 73.4l22.5-32.2L1059 79c-6.3-.3-11.9-2-16.7-5.6"/><path fill="#FFF" d="M1064.8 41.2L1059 79c-3.4-.1-6.6-.7-9.5-1.7"/><path fill="#FF7361" d="M1064.8 41.2L1059 79c-1 0-2-.1-3-.2"/></g><g><path fill="#005EC6" d="M846.5 378.2c-.6-5.5 3.1-10.3 6.5-14.2 2.1-2.4 4.2-4.8 6.1-7.3 2.1-2.6 4-5.4 5.8-8.2 3.6-5.7 6.4-11.8 8.5-18.3 1-3.2 2-6.4 3.2-9.5 1.2-3 2.7-5.9 4.4-8.7 3.2-5.3 6.9-10.4 8.6-16.5.2-.7.4-1.5.5-2.2.1-.5-.7-.6-.8-.1-1.2 6.2-4.8 11.6-8.1 16.9-1.7 2.7-3.3 5.4-4.5 8.3-1.3 3.1-2.3 6.3-3.4 9.5-1 3.2-2.1 6.4-3.5 9.5-1.4 3.1-3 6.1-4.7 9.1-3.5 5.7-7.6 10.9-12 15.9-3.4 3.9-7.3 8.4-7.6 13.9 0 .6 0 1.3.1 1.9.1.7.9.5.9 0"/><path fill="#FFC640" d="M925.1 282.2c8.2-11.7 5.9-27.5-5.2-35.3-11.1-7.8-26.7-4.5-34.9 7.2-8.1 11.6-6 27.1 4.7 35-.8 1.2-1.8 2.3-3 3.3-.2.1-.2.4-.1.6.8.8 1.7 1.4 2.6 1.9l.3.2c.1.1.2.1.3.1.4.2.9.4 1.4.5.2.1.4.1.5 0 .3-.1.5-.3.7-.7.2-.6.1-1.3.2-1.9 0-.7.1-1.4.1-2 10.8 5.6 24.8 2 32.4-8.9"/></g><g><path fill="#FF7361" d="M1019.3 243.8l-24.1-19.5c-.6-.5-.7-1.5-.2-2.1l34.4-42.5c.5-.6 1.5-.7 2.1-.2l24.1 19.5c.6.5.7 1.5.2 2.1l-34.4 42.5c-.5.6-1.4.7-2.1.2"/><path fill="#005EC6" d="M1034.4 219.4l-18.5-15c-.6-.5-.7-1.5-.2-2.1l14.6-18c.5-.6 1.5-.7 2.1-.2l18.5 15c.6.5.7 1.5.2 2.1l-14.6 18c-.5.6-1.5.7-2.1.2"/><path fill="#FFF" d="M1028.7 227.6l-19.8-16c-.3-.2-.4-.7-.1-1l1.7-2.1c.2-.3.7-.4 1-.1l19.8 16c.3.2.4.7.1 1l-1.7 2.1c-.2.3-.7.4-1 .1"/><path fill="#FF7361" d="M1028.5 226l-17.8-14.4c-.3-.3-.4-.8-.1-1.1s.8-.4 1.1-.2l17.8 14.4c.3.3.3.8.1 1.1-.2.4-.7.5-1.1.2"/><path fill="#FF7361" d="M1016 214.8c-.9 1.1-2.4 1.2-3.4.4-1.1-.9-1.2-2.4-.4-3.4.9-1.1 2.4-1.2 3.4-.4 1.1.8 1.2 2.3.4 3.4"/><path fill="#FFF" d="M1024.5 232.8l-19.8-16c-.3-.2-.4-.7-.1-1l1.7-2.1c.2-.3.7-.4 1-.1l19.8 16c.3.2.4.7.1 1l-1.7 2.1c-.2.3-.7.4-1 .1"/><path fill="#FFC640" d="M1024.3 231.2l-17.8-14.4c-.3-.3-.4-.7-.1-1.1.3-.3.8-.4 1.1-.2l17.8 14.4c.3.3.3.8.1 1.1-.3.4-.8.5-1.1.2"/><path fill="#FFC640" d="M1020.1 226.7c-.9 1.1-2.4 1.2-3.4.4-1.1-.9-1.2-2.4-.4-3.4.9-1.1 2.4-1.2 3.4-.4 1.1.8 1.2 2.4.4 3.4M1004.5 223.9c-.9 1.1-2.4 1.2-3.4.4-1.1-.9-1.2-2.4-.4-3.4.9-1.1 2.4-1.2 3.4-.4 1 .8 1.2 2.3.4 3.4"/><path fill="#FFF" d="M1010.1 228.4c-.9 1.1-2.4 1.2-3.4.4-1.1-.9-1.2-2.4-.4-3.4.9-1.1 2.4-1.2 3.4-.4 1.1.9 1.2 2.4.4 3.4"/><path fill="#FFC640" d="M1031.3 193.8l-3.1-2.5c-.6-.5-.7-1.5-.2-2.1l2.5-3.1c.5-.6 1.5-.7 2.1-.2l3.1 2.5c.6.5.7 1.5.2 2.1l-2.5 3.1c-.5.7-1.4.8-2.1.2"/><path fill="#FFF" d="M1026.2 200.2l-3.1-2.5c-.6-.5-.7-1.5-.2-2.1l2.5-3.1c.5-.6 1.5-.7 2.1-.2l3.1 2.5c.6.5.7 1.5.2 2.1l-2.5 3.1c-.5.6-1.4.7-2.1.2M1021.1 206.5l-3.1-2.5c-.6-.5-.7-1.5-.2-2.1l2.5-3.1c.5-.6 1.5-.7 2.1-.2l3.1 2.5c.6.5.7 1.5.2 2.1l-2.5 3.1c-.5.6-1.5.7-2.1.2"/><path fill="#FFC640" d="M1037.8 199.1l-3.1-2.5c-.6-.5-.7-1.5-.2-2.1l2.5-3.1c.5-.6 1.5-.7 2.1-.2l3.1 2.5c.6.5.7 1.5.2 2.1l-2.5 3.1c-.5.6-1.5.7-2.1.2M1032.6 205.4l-3.1-2.5c-.6-.5-.7-1.5-.2-2.1l2.5-3.1c.5-.6 1.5-.7 2.1-.2l3.1 2.5c.6.5.7 1.5.2 2.1l-2.5 3.1c-.5.7-1.4.8-2.1.2M1027.5 211.8l-3.1-2.5c-.6-.5-.7-1.5-.2-2.1l2.5-3.1c.5-.6 1.5-.7 2.1-.2l3.1 2.5c.6.5.7 1.5.2 2.1l-2.5 3.1c-.5.6-1.4.7-2.1.2M1044.3 204.4l-3.1-2.5c-.6-.5-.7-1.5-.2-2.1l2.5-3.1c.5-.6 1.5-.7 2.1-.2l3.1 2.5c.6.5.7 1.5.2 2.1l-2.5 3.1c-.5.6-1.4.7-2.1.2"/><path fill="#FFF" d="M1039.2 210.7l-3.1-2.5c-.6-.5-.7-1.5-.2-2.1l2.5-3.1c.5-.6 1.5-.7 2.1-.2l3.1 2.5c.6.5.7 1.5.2 2.1l-2.5 3.1c-.5.7-1.5.7-2.1.2"/><path fill="#FFC640" d="M1034.1 217.1l-3.1-2.5c-.6-.5-.7-1.5-.2-2.1l2.5-3.1c.5-.6 1.5-.7 2.1-.2l3.1 2.5c.6.5.7 1.5.2 2.1l-2.5 3.1c-.6.6-1.5.7-2.1.2"/><path fill="#005EC6" d="M1013.1 197.2l-4.9 6c-1.8-1.5-1.9-3.8-.6-5.5 1.3-1.6 3.6-2 5.5-.5"/><path fill="#FFF" d="M1004.9 208.8c-.4-.4-.5-1-.1-1.4l11.8-14.5c.4-.4 1-.5 1.4-.2.4.4.5 1 .1 1.4l-11.8 14.5c-.4.5-1 .6-1.4.2"/><path fill="#005EC6" d="M996.6 193.9c-.1 0-.3 0-.4-.1-.4-.2-.5-.7-.3-1 2.5-4.5 6.3-7.2 11.5-8 .4-.1.8.2.9.6.1.4-.2.8-.6.9-4.7.7-8.1 3.1-10.4 7.2-.3.2-.5.4-.7.4M1000.7 195.2c-.1 0-.3 0-.4-.1-.4-.2-.5-.6-.4-1 1.5-3.1 3.9-4.8 7.3-5.1.4 0 .8.3.8.7 0 .4-.3.8-.7.8-2.8.2-4.8 1.6-6.1 4.2 0 .3-.2.5-.5.5M1004.7 196.5h-.3c-.4-.1-.6-.6-.5-1 .3-1 1.1-2.1 3.2-2.2.4 0 .8.3.8.7 0 .4-.3.8-.7.8-1.3.1-1.6.7-1.8 1.2-.1.3-.4.5-.7.5"/></g><g><path fill="#FFF" d="M238.3 480.4l-6.6 4.5c-.5.4-1.3.2-1.7-.3l-5.7-8.5c-.4-.5-.2-1.3.3-1.7l6.6-4.5c.5-.4 1.3-.2 1.7.3l5.7 8.5c.4.6.2 1.3-.3 1.7"/><path fill="#FFC640" d="M249.2 458.9L208 486.7c-.5.4-1.3.2-1.7-.3l-18.8-27.9c-.4-.5-.2-1.3.3-1.7L229 429c.5-.4 1.3-.2 1.7.3l18.8 27.9c.4.6.3 1.3-.3 1.7"/><path fill="#005EC6" d="M194.6 422.3c-4.1 2.7-5.1 8.3-2.4 12.3l8.7 12.9 14.7-9.9-8.7-12.9c-2.8-4.1-8.3-5.2-12.3-2.4"/><path fill="#FFC640" d="M205.2 437.9c-.9.6-2.4.5-3.5-1-.1-.1-.5-.3-.9-.5-1.9-1-3.8-2.1-4.4-2.9-1.5-2.2-.9-5.1 1.3-6.6s5.1-.9 6.6 1.2c.5.8.8 2.9 1.1 5.1.1.5.1 1 .1 1.1 1 1.7.6 3-.3 3.6"/><path fill="#005EC6" d="M206.5 436.7l-3.1 2.1h-.1l-.3-.5v-.1l3.1-2.1h.1l.3.5c.1 0 .1.1 0 .1"/><path fill="#005EC6" d="M203.4 438.2v.2h.1l2.6-1.8v-.2h-.1l-2.6 1.8zm3.1-1.1l-2.6 1.8c-.3.2-.7.1-.9-.2v-.1c-.2-.3-.1-.7.2-.9l2.6-1.8c.3-.2.7-.1.9.2v.1c.2.3.1.7-.2.9"/><path fill="#005EC6" d="M207 437.4l-3.1 2.1h-.1l-.3-.5v-.1l3.1-2.1h.1l.3.5v.1"/><path fill="#005EC6" d="M203.8 438.9v.2h.1l2.6-1.8v-.2h-.1l-2.6 1.8zm3.1-1.1l-2.6 1.8c-.3.2-.7.1-.9-.2v-.1c-.2-.3-.1-.7.2-.9l2.6-1.8c.3-.2.7-.1.9.2v.1c.2.2.1.7-.2.9"/><path fill="#005EC6" d="M207.4 438l-3.1 2.1h-.1l-.3-.5v-.1l3.1-2.1h.1l.3.5c.1 0 .1.1 0 .1"/><path fill="#005EC6" d="M204.3 439.5v.2h.1l2.6-1.8v-.2h-.1l-2.6 1.8zm3.1-1.1l-2.6 1.8c-.3.2-.7.1-.9-.2v-.1c-.2-.3-.1-.7.2-.9l2.6-1.8c.3-.2.7-.1.9.2v.1c.2.3.1.7-.2.9"/><path fill="#005EC6" d="M207.1 439.3l-1.5 1h-.1l-.3-.5v-.1l1.5-1h.1l.3.5v.1"/><path fill="#005EC6" d="M205.5 439.7v.2h.1l1-.7v-.2h-.1l-1 .7zm1.5 0l-1 .7c-.3.2-.7.1-.9-.2v-.1c-.2-.3-.1-.7.2-.9l1-.7c.3-.2.7-.1.9.2v.1c.2.2.1.6-.2.9"/><path fill="#FF7361" d="M217.6 436.7L199.3 449c-.1.1-.3.1-.4-.1l-.9-1.3c-.1-.1-.1-.3.1-.4l18.3-12.4c.1-.1.3-.1.4.1l.9 1.3c.1.2 0 .4-.1.5"/><path fill="#FFF" d="M214.6 458.9c-2.1-3.2-6.3-3.9-9.5-1.8-3.1 2.1-4 6.3-1.8 9.5l11.3-7.7z"/><path fill="#005EC6" d="M203.5 465.9l10.4-7c-2.1-2.7-5.6-3.2-8.4-1.3-2.9 1.9-3.7 5.3-2 8.3m11.7-6.7l-12 8.1-.3-.4c-2.3-3.5-1.6-7.8 1.9-10.2 3.5-2.3 7.8-1.4 10.1 2l.3.5z"/><path fill="#FF7361" d="M210.6 460.6c.8 1.2.5 2.9-.7 3.7-1.2.8-2.9.5-3.7-.7-.8-1.2-.5-2.9.7-3.7 1.3-.8 2.9-.5 3.7.7"/><path fill="#005EC6" d="M209.6 461.3c.4.7.3 1.5-.4 2-.7.4-1.5.3-2-.4-.4-.7-.3-1.5.4-2 .7-.4 1.6-.2 2 .4M202.77 466.324l-.047-.088 1.584-.856.047.088z"/><path fill="#005EC6" d="M204.6 465.7c-.1 0-.1 0 0 0l-1.6.8c-.1.1-.5-.4-.5-.5 0-.1.1-.1.1-.2l1.6-.8h.2c.1 0 .1.1.2.1l.1.1c0 .3 0 .4-.1.5M202.24 464.992l-.026-.096 1.73-.496.028.096z"/><path fill="#005EC6" d="M204.2 464.8c-.1 0-.1 0 0 0l-1.8.5h-.2c-.1 0-.1-.1-.1-.2v-.1c0-.2 0-.3.2-.4l1.7-.5c.2 0 .3 0 .4.2V464.6c-.2.1-.2.1-.2.2M201.98 463.68l-.01-.1 1.794-.15.008.1z"/><path fill="#005EC6" d="M203.9 463.7h-.1l-1.8.3c-.1 0-.2 0-.2-.1-.1-.1-.1-.1-.1-.2v-.1c0-.2.1-.3.3-.3l1.8-.2c.2 0 .3.1.3.3v.1s0 .1-.2.2c.1 0 .1 0 0 0M203.806 462.434l-1.79-.187.01-.1 1.79.188z"/><path fill="#005EC6" d="M203.9 462.7c-.1 0-.1.1-.2.1l-1.8-.2c-.1 0-.2 0-.2-.1s-.1-.1-.1-.2v-.1c0-.2.2-.3.3-.3l1.8.2c.2 0 .3.2.3.3v.1c.1.1 0 .1-.1.2.1 0 0 0 0 0M204.04 461.41l-1.722-.528.03-.096 1.72.53z"/><path fill="#005EC6" d="M204.1 461.7c-.1.1-.2.1-.3 0l-1.7-.5c-.1 0-.1-.1-.2-.1V460.8c.1-.2.2-.2.4-.2l1.7.5c.2.1.2.2.2.4v.1s0 .1-.1.1M204.42 460.46l-1.587-.85.047-.088 1.586.85z"/><path fill="#005EC6" d="M204.5 460.7c0 .1 0 .1 0 0-.2.1-.2.1-.3 0l-1.6-.8c-.1 0-.1-.1-.1-.2v-.2l.1-.1c.1-.1.3-.2.4-.1l1.6.8c.1.1.2.3.1.4l-.1.1c0 .1 0 .1-.1.1M204.924 459.59l-1.388-1.146.064-.077 1.387 1.147z"/><path fill="#005EC6" d="M205.1 459.9h-.1c-.1 0-.2 0-.2-.1l-1.4-1.1c-.1-.1-.1-.1-.1-.2s0-.2.1-.2l.1-.1c.1-.1.3-.1.4 0l1.4 1.1c.1.1.1.3 0 .4l-.2.2c0-.1 0 0 0 0M205.672 458.913l-1.138-1.395.078-.063 1.138 1.394z"/><path fill="#005EC6" d="M205.8 459.1c-.1.1-.3.1-.4-.1l-1.1-1.4c0-.1-.1-.1-.1-.2s0-.2.1-.2l.1-.1c.1-.1.3-.1.4 0l1.1 1.4c.1.1.1.1.1.2s0 .2-.1.2l-.1.2M206.49 458.34l-.85-1.586.088-.047.85 1.587z"/><path fill="#005EC6" d="M206.8 458.5l-.1.1c-.1.1-.3 0-.4-.1l-.8-1.6v-.2c0-.1.1-.1.1-.2l.1-.1c.1-.1.3 0 .4.1l.8 1.6v.2c0 .1-.1.2-.1.2M207.44 457.836l-.527-1.72.095-.03.527 1.72z"/><path fill="#005EC6" d="M207.7 458.1l-.2.1h-.2c-.1 0-.1-.1-.1-.2l-.5-1.7v-.2c0-.1.1-.1.2-.1h.1c.2 0 .3 0 .4.2l.5 1.7-.2.2M208.434 457.73l-.178-1.79.1-.01.178 1.79z"/><path fill="#005EC6" d="M208.8 457.9h-.2c-.1 0-.2 0-.2-.1-.1-.1-.1-.1-.1-.2l-.2-1.8c0-.1 0-.2.1-.2.1-.1.1-.1.2-.1h.1c.2 0 .3.1.3.3l.2 1.8c-.1.2-.2.3-.2.3M209.588 457.66l-.1-.01.174-1.792.1.01z"/><path fill="#005EC6" d="M209.8 457.9c-.1 0-.1.1-.2.1h-.1c-.2 0-.3-.2-.3-.3l.2-1.8c0-.2.2-.3.3-.3h.1c.1 0 .2 0 .2.1.1.1.1.1.1.2l-.2 1.8c0 .1 0 .2-.1.2M210.617 457.896l-.096-.028.5-1.73.095.028z"/><path fill="#005EC6" d="M210.8 458.1c-.1.1-.2.1-.3 0h-.1c-.2 0-.2-.2-.2-.4l.5-1.7c0-.2.2-.2.4-.2h.1c.1 0 .1.1.2.1v.2l-.5 1.7c0 .2 0 .3-.1.3M211.557 458.264l-.088-.047.856-1.584.088.048z"/><path fill="#005EC6" d="M211.8 458.5c-.1.1-.2.1-.3 0l-.1-.1c-.1 0-.1-.1-.1-.2v-.2l.8-1.6c.1-.1.3-.2.4-.1l.1.1c.1 0 .1.1.1.2v.2l-.8 1.6-.1.1M212.424 458.883l-.078-.063 1.125-1.405.08.063z"/><path fill="#005EC6" d="M212.6 459.1s-.1 0-.1.1c-.1 0-.2 0-.2-.1l-.1-.1c-.1-.1-.1-.3 0-.4l1.1-1.4c0-.1.7.3.6.5l-1.3 1.4c.1 0 0 0 0 0M213.15 459.527l-.065-.077 1.396-1.137.064.077z"/><path fill="#005EC6" d="M213.3 459.8c-.1 0-.1.1-.2.1s-.2 0-.2-.1l-.1-.1c-.1-.1-.1-.3 0-.4l1.4-1.1c.1-.1.5.5.5.6l-1.4 1c.1 0 0 0 0 0"/><path fill="#FFC640" d="M232.4 446.9c-2.1-3.2-6.3-3.9-9.5-1.8-3.1 2.1-4 6.3-1.8 9.5l11.3-7.7z"/><path fill="#FFF" d="M221.3 453.9l10.4-7c-2.1-2.7-5.6-3.2-8.4-1.3-2.9 1.9-3.7 5.4-2 8.3m11.7-6.7l-12 8.1-.3-.4c-2.3-3.5-1.6-7.8 1.9-10.2 3.5-2.3 7.8-1.4 10.1 2l.3.5z"/><path fill="#FF7361" d="M228.4 448.6c.8 1.2.5 2.9-.7 3.7-1.2.8-2.9.5-3.7-.7-.8-1.2-.5-2.9.7-3.7 1.3-.8 2.9-.5 3.7.7"/><path fill="#005EC6" d="M227.4 449.3c.4.7.3 1.5-.4 2-.7.4-1.5.3-2-.4-.4-.7-.3-1.5.4-2 .7-.4 1.6-.2 2 .4M241.9 445.8l-7-10.4c3.2-2.1 6.8-1.2 8.7 1.7 1.9 2.9 1.4 6.6-1.7 8.7"/><path fill="#FF7361" d="M191.7 464.6l7 10.4c-3.2 2.1-6.8 1.2-8.7-1.7-1.9-2.9-1.5-6.6 1.7-8.7"/><path fill="#005EC6" d="M239.3 479.1l-.3.2-9.1 6.2c-.2.1-.3.4-.1.7.2.2.4.3.7.1l.3-.2 9.1-6.2c.2-.1.3-.4.1-.7-.2-.2-.5-.2-.7-.1M224.1 477l.3-.2 9.1-6.2c.2-.1.3-.4.1-.7-.2-.2-.4-.3-.7-.1l-.3.2-9.1 6.2c-.2.1-.3.4-.1.7.2.2.5.2.7.1M229.4 484.7l.3-.2 9.1-6.2c.2-.1.3-.4.1-.7-.2-.2-.4-.3-.7-.1l-.3.2-9.1 6.2c-.2.1-.3.4-.1.7.2.2.5.3.7.1M228.4 483.2l.3-.2 9.1-6.2c.2-.1.3-.4.1-.7-.2-.2-.4-.3-.7-.1l-.3.2-9.1 6.2c-.2.1-.3.4-.1.7.1.2.4.2.7.1M227.3 481.6l.3-.2 9.1-6.2c.2-.1.3-.4.1-.7-.2-.2-.4-.3-.7-.1l-.3.2-9.1 6.2c-.2.1-.3.4-.1.7.2.2.5.3.7.1M225.2 478.5l.3-.2 9.1-6.2c.2-.1.3-.4.1-.7-.2-.2-.4-.3-.7-.1l-.3.2-9.1 6.2c-.2.1-.3.4-.1.7.2.2.5.3.7.1M226.3 480.1l.3-.2 9.1-6.2c.2-.1.3-.4.1-.7-.2-.2-.4-.3-.7-.1l-.3.2-9.1 6.2c-.2.1-.3.4-.1.7.1.2.4.2.7.1M199.3 477.4c-.4.3-.9.2-1.1-.2l-8.4-12.5c-.3-.4-.2-.9.2-1.1.4-.3.9-.2 1.1.2l8.4 12.5c.3.3.2.8-.2 1.1"/><path fill="#FF7361" d="M243.5 446.8c-.4.3-.9.2-1.1-.2l-8.4-12.5c-.2-.4-.2-.9.2-1.1.4-.3.9-.2 1.1.2l8.4 12.5c.3.3.2.8-.2 1.1M209 468.1c1.1 1.7.7 3.9-1 5s-3.9.7-5-1-.7-3.9 1-5c1.6-1.1 3.8-.7 5 1M238 448.5c1.1 1.7.7 3.9-1 5s-3.9.7-5-1-.7-3.9 1-5 3.9-.7 5 1"/><path fill="#FFF" d="M231.5 463.9l-12.2 8.2c-.5.4-1.3.2-1.7-.3l-1.4-2.1c-.4-.5-.2-1.3.3-1.7l12.2-8.2c.5-.4 1.3-.2 1.7.3l1.4 2.1c.4.6.2 1.4-.3 1.7"/><path fill="#FF7361" d="M217.1 468.9c-.1 0-.1.1 0 .2l1.4 2.1c0 .1.1.1.2 0l12.2-8.2c.1 0 .1-.1 0-.2l-1.4-2.1c0-.1-.1-.1-.2 0l-12.2 8.2zm15-4.1l-12.2 8.2c-1 .7-2.4.4-3.1-.6l-1.4-2.1c-.7-1-.4-2.4.6-3.1l12.2-8.2c1-.7 2.4-.4 3.1.6l1.4 2.1c.7 1 .4 2.4-.6 3.1"/><path fill="#FF7361" d="M217.456 467.43l1.74-1.174 2.406 3.564-1.74 1.175zM226.493 461.947l1.74-1.174 2.406 3.564-1.742 1.175zM220.348 465.452l1.74-1.175 2.406 3.564-1.74 1.176zM223.276 463.557l1.742-1.173 2.403 3.565-1.74 1.173z"/></g><g><path fill="#FFC640" d="M762.7 477.4c-.6.2-1.3-.5-1.7-.9-.1-.2-.3-.4-.4-.6.6-.2 1.3-.2 1.9.3.3.2.8 1 .2 1.2m-4 2.9c.2.1 1 .4 1 .6.1.2-.1.4-.2.5-.3.2-.7 0-.9-.2-.3-.3-.4-.7-.4-1.2.2.1.4.2.5.3m4.7-10.9c.4 0 1.7.5 1.2 1.2-.5.8-1.7-.6-2.1-.9l-.1-.1c.3-.2.6-.3 1-.2m-1.5-7.2c.7 0 1.3.6.5 1.1-.7.4-1.5.4-2.2.2.1-.2.3-.4.5-.6.3-.5.7-.7 1.2-.7m-3.1-4.6c.5.3.7 1 .5 1.5-.2.7-.8 1.1-1.5 1.1-.5 0-.9-.1-1.2-.4v-.6c0-.9 1.2-2.2 2.2-1.6m5.2 18.2c-.8-1.3-2.4-1.7-3.7-1.2-.1-.7-.1-1.5.1-2.1.2-.7.5-1.5 1-2.1.7.7 1.4 1.5 2.4 1.7.9.2 1.9-.2 2.3-1.1.3-1-.3-2-1.2-2.5-.8-.5-1.9-.5-2.7-.2l-.6.3c-.9-1.1-1.8-2.5-1.7-3.8 1.4.4 3 .4 4-.8.6-.8.6-1.8-.1-2.5-.6-.6-1.6-.7-2.5-.5-1 .3-1.8 1-2.2 1.9-.1-.1-.2-.1-.2-.2-.4-.3-.9-.7-1.3-1.2 1.2.1 2.4-.3 3-1.4.9-1.6 0-4-2-4-1.3 0-2.4.9-2.9 2-.7-2.1-.4-4.8-2.2-6.3-1.2-1-2.8-1-4.1-.4-1.7.7-2.7 2.3-3.7 3.8-.5.7.7 1.4 1.2.7 1.1-1.6 3.1-4.5 5.4-3.2 1.3.7 1.5 2.6 1.7 3.9.2 1.5.6 3.1 1.7 4.1.5 1.5 1.7 2.8 3 3.5h.1c0 .2-.1.4-.1.5-.1 1.7.9 3.3 2 4.6-1 1.1-1.5 2.7-1.5 4.1 0 .6 0 1.2.2 1.8-.8.7-1.4 1.7-1.8 2.7-.1-.1-.2-.1-.3-.2l-3.7-1.9c-.8-.4-1.5.8-.7 1.2 1.4.8 2.9 1.5 4.3 2.3-.1.4-.1.8 0 1.2.1 1 .7 1.9 1.7 2.2.9.3 1.9 0 2.3-.8.5-.8.2-1.7-.5-2.2-.6-.4-1.3-.8-1.9-1.1.2-.6.6-1.2.8-1.6.1-.1.1-.2.2-.3.4.8 1 1.4 1.8 1.8.8.4 1.8.4 2.5-.2.4-.7.3-1.8-.1-2.5"/><path fill="#FF7361" d="M720.6 448.3c-.4-.2-.5-.7-.3-1l10.9-18.9c.2-.4.7-.5 1-.3.4.2.5.7.3 1L721.6 448c-.2.3-.6.5-1 .3"/><path fill="#FF7361" d="M734.6 430.2c-.8 1.5-2.7 2-4.2 1.1-1.5-.8-2-2.7-1.1-4.2.8-1.5 2.7-2 4.2-1.1 1.4.9 1.9 2.7 1.1 4.2"/><path fill="#FFF" d="M743 485.2l-50.9-29.4c-.8-.5-1.1-1.5-.6-2.3l10-17.4c.5-.8 1.5-1.1 2.3-.6l50.9 29.4c.8.5 1.1 1.5.6 2.3l-10 17.4c-.5.8-1.5 1.1-2.3.6"/><path fill="#005EC6" d="M711.9 443.3c-.4-.2-.5-.7-.3-1l10.9-18.9c.2-.4.7-.5 1-.3.4.2.5.7.3 1L713 443c-.2.3-.7.5-1.1.3"/><path fill="#FFF" d="M725.9 425.2c-.8 1.5-2.7 2-4.2 1.1-1.5-.8-2-2.7-1.1-4.2.8-1.5 2.7-2 4.2-1.1 1.4.9 1.9 2.7 1.1 4.2"/><path fill="#FF7361" d="M700.3 437.1l-3.2 5.6c-1.7-1-2.1-2.8-1.2-4.4.9-1.5 2.8-2.1 4.4-1.2"/><path fill="#005EC6" d="M696.5 443.7c-.3-.2-.4-.5-.2-.8l3.7-6.4c.2-.3.5-.4.8-.2.3.2.4.5.2.8l-3.7 6.4c-.2.3-.5.4-.8.2"/><path fill="#FFF" d="M695.5 445.5l-3.2 5.6c-1.7-1-2.1-2.8-1.2-4.4.9-1.6 2.8-2.2 4.4-1.2"/><path fill="#FF7361" d="M691.7 452c-.3-.2-.4-.5-.2-.8l3.7-6.4c.2-.3.5-.4.8-.2.3.2.4.5.2.8l-3.7 6.4c-.2.3-.5.4-.8.2M746.8 484.6c-.6-.4-.9-1.2-.5-1.8l7.6-13.2c.4-.6 1.2-.9 1.8-.5.6.4.9 1.2.5 1.8l-7.6 13.2c-.3.7-1.2.9-1.8.5"/><path fill="#005EC6" d="M747.2 459.9l-5.6-3.2c1-1.7 2.8-2.1 4.4-1.2 1.6.9 2.2 2.8 1.2 4.4"/><path fill="#FF7361" d="M740.6 456.1c.2-.3.5-.4.8-.2l6.4 3.7c.3.2.4.5.2.8-.2.3-.5.4-.8.2l-6.4-3.7c-.2-.2-.3-.5-.2-.8"/><path fill="#005EC6" d="M740.2 457.7c-4.9-2.8-18-10.4-22.9-13.2-7.2-4.2-16.5-1.7-20.6 5.5-4.2 7.2-1.7 16.5 5.5 20.6 4.9 2.8 10.8 2.6 15.4-.2-.1 5.3 2.6 10.5 7.5 13.4 7.2 4.2 16.5 1.7 20.6-5.5 4.2-7.2 1.7-16.4-5.5-20.6"/><path fill="#FFC640" d="M694.6 459c-.3-.2-.6-.5-.7-.9-.2-.8.2-1.7 1.1-2l29.2-8.5c.8-.2 1.7.2 2 1.1.2.8-.2 1.7-1.1 2l-29.2 8.5c-.5.1-.9 0-1.3-.2M697.3 464.8c-.3-.2-.6-.5-.7-.9-.2-.8.2-1.7 1.1-2l34.1-9.9c.8-.2 1.7.2 2 1.1.2.8-.2 1.7-1.1 2l-34.1 9.9c-.5.1-.9.1-1.3-.2M700.8 469l39.9-11.5c1.5-.4 5.4 4.5 3.8 4.9l-38 11c-.8.3-7.2-3.9-5.7-4.4"/><path fill="#FF7361" d="M718.2 469.3c.4.2.7.7.7 1.2-.1 5 2.5 9.7 6.9 12.2 6.6 3.8 15 1.5 18.8-5 3.8-6.6 1.5-15-5-18.8l-22.9-13.2c-6.6-3.8-15-1.5-18.8 5-3.8 6.6-1.5 15 5 18.8 4.3 2.5 9.7 2.4 14-.1.4-.3.9-.3 1.3-.1m6.2 15.8c-4.5-2.6-7.5-7.2-8.1-12.4-4.7 2.1-10.2 1.8-14.8-.9-7.9-4.5-10.6-14.6-6-22.5 4.5-7.9 14.6-10.6 22.5-6l22.9 13.2c7.9 4.5 10.6 14.6 6 22.5-4.5 7.9-14.6 10.6-22.5 6.1M731.5 414.2c-.1-.1-.1-.3-.1-.4 0-.4.4-.7.8-.7 5.1.2 9.2 2.5 12.2 6.8.2.3.2.8-.2 1.1-.3.2-.8.2-1.1-.2-2.7-3.9-6.3-6-11-6.2-.3-.1-.5-.2-.6-.4M732.1 418.4c-.1-.1-.1-.2-.1-.4 0-.4.3-.8.8-.8 3.5 0 6.1 1.4 7.8 4.4.2.4.1.8-.3 1-.4.2-.8.1-1-.3-1.4-2.4-3.5-3.6-6.4-3.6-.4.1-.6 0-.8-.3M732.7 422.7c-.1-.1-.1-.2-.1-.3-.1-.4.2-.8.7-.8 1-.1 2.4.1 3.4 1.9.2.4.1.8-.3 1-.4.2-.8.1-1-.3-.6-1.1-1.3-1.2-1.9-1.1-.3-.1-.6-.2-.8-.4"/></g><g><path fill="#FF7361" d="M1035.3 385.2c1.2 0 2.2 1 2.2 2.2 0 1.2-1 2.2-2.2 2.2-1.2 0-2.2-1-2.2-2.2 0-1.2 1-2.2 2.2-2.2m.1 30.4c15.6 0 28.2-12.7 28.1-28.3 0-15.6-12.7-28.2-28.3-28.1-15.6 0-28.2 12.7-28.1 28.3.1 15.5 12.7 28.1 28.3 28.1"/><path fill="#005EC7" d="M1035.3 385.2c1.2 0 2.2 1 2.2 2.2 0 1.2-1 2.2-2.2 2.2-1.2 0-2.2-1-2.2-2.2 0-1.2 1-2.2 2.2-2.2m.1 12.6c5.8 0 10.4-4.7 10.4-10.5s-4.7-10.4-10.5-10.4-10.4 4.7-10.4 10.5c0 5.7 4.7 10.4 10.5 10.4"/><path fill="#FFF" d="M1052.9 370.2c2.1 2.2 3.7 4.7 4.9 7.4 1.3 3 1.9 6.2 2 9.5 0 3.3-.6 6.5-1.9 9.5-1.1 2.6-2.6 5-4.5 7l.6.6c.2.3.5.6.7.8 2.1-2.3 3.8-4.9 5-7.8 1.4-3.3 2.1-6.7 2-10.3 0-3.6-.7-7-2.1-10.3-1.3-3.1-3.2-5.8-5.5-8.2-.4.7-.8 1.3-1.2 1.8M1011 397.5c1.3 3.1 3.2 6 5.7 8.4l.2.2c.4-.5.7-1 1.1-1.5-2.3-2.2-4-4.9-5.3-7.8-1.3-3-1.9-6.2-2-9.5 0-3.3.6-6.5 1.9-9.5 1.1-2.7 2.8-5.2 4.8-7.4-.4-.5-.8-1-1.2-1.4-2.3 2.3-4 5.1-5.3 8.1-1.4 3.3-2.1 6.7-2 10.3.1 3.4.8 6.9 2.1 10.1"/><path fill="#FFF" d="M1050.9 372.8c3.6 3.9 5.6 8.9 5.6 14.3 0 5.3-1.9 10.3-5.4 14.2l.6.6.7.7c1.8-1.9 3.2-4.2 4.2-6.6 1.2-2.8 1.8-5.9 1.8-9s-.6-6.1-1.8-9c-1.1-2.5-2.6-4.8-4.5-6.8-.4.6-.8 1.1-1.2 1.6M1019.7 372.9c-.4-.5-.8-1-1.3-1.4-1.9 2-3.4 4.3-4.4 6.8-1.2 2.8-1.8 5.9-1.8 9 0 3.1.6 6.1 1.8 9 1.2 2.7 2.8 5.2 4.9 7.3.4-.5.8-1 1.3-1.4-3.9-4-6.1-9.2-6.1-14.8 0-5.5 2-10.6 5.6-14.5"/><path fill="#FFF" d="M1049.3 375c-.2.3-.4.5-.6.8 2.7 3.2 4.2 7.1 4.2 11.4 0 4.3-1.5 8.3-4.3 11.5.4.5.9.9 1.3 1.4 3.2-3.6 4.9-8.1 4.9-12.9 0-4.8-1.8-9.3-4.9-12.9-.3.2-.5.4-.6.7M1022.1 375.6l-1.2-1.5c-3.2 3.6-5 8.2-5 13.1 0 5.1 2 9.9 5.6 13.5.2-.2.4-.4.6-.7.2-.3.5-.5.7-.8-3.2-3.3-4.9-7.6-4.9-12.1-.1-4.2 1.4-8.2 4.2-11.5"/><path fill="#FFF" d="M1046.4 378.9c1.7 2.3 2.8 5.2 2.8 8.3 0 3.3-1.1 6.3-3 8.7.1.1.1.2.2.3.3.4.7.8 1 1.2 2.4-2.9 3.7-6.4 3.7-10.2 0-3.7-1.3-7.1-3.5-9.9-.4.5-.8 1-1.2 1.6M1024.5 378.5c-.4-.5-.9-.9-1.3-1.4-2.4 2.9-3.7 6.4-3.7 10.2 0 4.1 1.6 7.9 4.4 10.9.4-.5.9-.9 1.3-1.4-2.3-2.5-3.8-5.8-3.8-9.5 0-3.4 1.2-6.4 3.1-8.8"/><path fill="#005EC7" d="M1035.3 396.3c4.9 0 8.9-4 8.9-9 0-4.9-4-8.9-8.9-8.9s-8.9 4-8.9 8.9c0 5 4 9 8.9 9m0-19.8c6 0 10.9 4.8 10.9 10.8 0 6-4.8 10.9-10.8 10.9-6 0-10.9-4.8-10.9-10.8 0-6 4.8-10.9 10.8-10.9"/></g><path fill="#FFC640" d="M293.1 327.3c3.1 0 5.7-2.5 5.7-5.7 0-3.1-2.5-5.7-5.7-5.7s-5.7 2.5-5.7 5.7c0 3.1 2.6 5.7 5.7 5.7"/><path fill="#FF7361" d="M122.8 408.8c3.1 0 5.7-2.5 5.7-5.7 0-3.1-2.5-5.7-5.7-5.7-3.1 0-5.7 2.5-5.7 5.7 0 3.1 2.5 5.7 5.7 5.7"/><path fill="#FFC640" d="M5.7 264.3c3.1 0 5.7-2.5 5.7-5.7 0-3.1-2.5-5.7-5.7-5.7S0 255.5 0 258.7c0 3.1 2.5 5.6 5.7 5.6M322.7 31.6c3.1 0 5.7-2.5 5.7-5.7 0-3.1-2.5-5.7-5.7-5.7-3.1 0-5.7 2.5-5.7 5.7 0 3.1 2.5 5.7 5.7 5.7"/><path fill="#FF7361" d="M610.4 125c3.1 0 5.7-2.5 5.7-5.7 0-3.1-2.5-5.7-5.7-5.7s-5.7 2.5-5.7 5.7c0 3.1 2.5 5.7 5.7 5.7"/><path fill="#FFC640" d="M602.1 491.1c3.1 0 5.7-2.5 5.7-5.7 0-3.1-2.5-5.7-5.7-5.7s-5.7 2.5-5.7 5.7 2.5 5.7 5.7 5.7M882.1 187c3.1 0 5.7-2.5 5.7-5.7 0-3.1-2.5-5.7-5.7-5.7-3.1 0-5.7 2.5-5.7 5.7.1 3.2 2.6 5.7 5.7 5.7"/><path fill="#FF7361" d="M711.6 274.9c3.1 0 5.7-2.5 5.7-5.7 0-3.1-2.5-5.7-5.7-5.7s-5.7 2.5-5.7 5.7c0 3.1 2.5 5.7 5.7 5.7"/><path fill="#FFC640" d="M1157.7 365.7c3.1 0 5.7-2.5 5.7-5.7 0-3.1-2.5-5.7-5.7-5.7-3.1 0-5.7 2.5-5.7 5.7s2.5 5.7 5.7 5.7"/><path fill="#FF7361" d="M1131.4 60.3c3.1 0 5.7-2.5 5.7-5.7 0-3.1-2.5-5.7-5.7-5.7s-5.7 2.5-5.7 5.7c.1 3.2 2.6 5.7 5.7 5.7M862.2 532.9c3.1 0 5.7-2.5 5.7-5.7 0-3.1-2.5-5.7-5.7-5.7s-5.7 2.5-5.7 5.7c0 3.1 2.6 5.7 5.7 5.7"/><g><path fill="#005EC7" d="M379.5 126.5c1.2-2.1 1.3-4.9.2-8.3-.9-3-.9-5.4.1-7.3 1-1.8 3.1-3.1 6.1-3.9l-.3-1.2c-6.8 1.7-9.3 6.1-7.1 12.8.9 3 .9 5.4-.1 7.3s-3.1 3.1-6.1 3.9l.3 1.2c3.4-.9 5.7-2.4 6.9-4.5"/></g><g><path fill="#005EC7" d="M877.9 71.5c-.1 2.5 1.1 5 3.5 7.5 2.2 2.2 3.2 4.5 3.2 6.5-.1 2.1-1.3 4.2-3.7 6.2l.8 1c5.3-4.6 5.5-9.6.7-14.6-2.2-2.3-3.2-4.5-3.2-6.5.1-2.1 1.3-4.2 3.7-6.2l-.8-1c-2.7 2.2-4.1 4.7-4.2 7.1"/></g><g><path fill="#005EC7" d="M71 497.2c1.5-2 1.9-4.7 1.4-8.2-.5-3.1-.1-5.5 1.1-7.2 1.3-1.7 3.5-2.7 6.6-3l-.1-1.3c-7 .7-10 4.8-8.8 11.7.5 3.1.1 5.5-1.1 7.2s-3.5 2.7-6.6 3l.1 1.3c3.4-.3 5.9-1.5 7.4-3.5"/></g><g><path fill="#005EC7" d="M508.5 416.4c-1.1 2.2-1.1 5 0 8.3 1 3 1 5.4.1 7.3-1 1.9-3 3.2-6 4.1l.3 1.2c6.8-1.9 9.1-6.3 6.8-13-1-3-1-5.4-.1-7.3 1-1.9 3-3.2 6-4.1l-.3-1.2c-3.3 1-5.6 2.6-6.8 4.7"/></g><g><path fill="#005EC7" d="M922.2 420.8c-.7-2.3-2.7-4.3-5.9-5.8-2.8-1.4-4.6-3.1-5.2-5-.6-2-.2-4.4 1.3-7.1l-1.1-.6c-3.4 6.1-1.9 10.9 4.5 14 2.8 1.4 4.6 3 5.2 5 .6 2 .2 4.4-1.3 7.1l1.1.6c1.7-3.2 2.2-5.9 1.4-8.2"/></g><g><path fill="#005EC7" d="M72.3 57.6c2.3.7 5.1.2 8.1-1.5 2.7-1.5 5.1-2 7.1-1.4 2 .6 3.7 2.4 5.1 5.2l1.2-.6c-3.1-6.3-7.9-7.8-14-4.4-2.7 1.5-5.1 2-7.1 1.4-2-.6-3.7-2.4-5.1-5.2l-1.2.6c1.5 3.2 3.5 5.2 5.9 5.9"/></g><g><path fill="#005EC7" d="M1165.8 195c2.4-.6 4.4-2.5 6.1-5.6 1.5-2.8 3.2-4.5 5.3-5 2-.6 4.4 0 7.1 1.6l.7-1.1c-6-3.7-10.8-2.3-14.1 3.9-1.5 2.8-3.2 4.5-5.3 5-2 .6-4.4 0-7.1-1.6l-.7 1.1c2.9 1.7 5.6 2.3 8 1.7"/></g><g fill="#FF7361"><path d="M397.9 516.1c1.4.4 2.2 1.9 1.8 3.3s-1.9 2.2-3.3 1.8c-1.4-.4-2.2-1.9-1.8-3.3.4-1.4 1.9-2.2 3.3-1.8M391.9 522.6l2.9-10.2c-8.6-2.5-13.8-11.4-11.2-20.3l-10.2-2.9c-4.1 14.4 4.1 29.2 18.5 33.4"/><path d="M396.767 519.988l-3.844-1.104.8-2.787 3.844 1.103z"/></g><g fill="#005EC7"><path d="M1122 504.4c1.3-.6 2.9-.1 3.5 1.3.6 1.3.1 2.9-1.3 3.5-1.3.6-2.9.1-3.5-1.3s-.1-2.9 1.3-3.5M1121.8 513.2l-4.6-9.6c-8.1 3.8-17.9.6-21.8-7.7l-9.6 4.6c6.5 13.5 22.5 19.2 36 12.7"/><path d="M1123.74 508.015l-3.612 1.72-1.248-2.618 3.612-1.72z"/></g><g fill="#005EC7"><path d="M648.1 4.1c-.8-1.2-.4-2.9.8-3.7s2.9-.4 3.7.8c.8 1.2.4 2.9-.8 3.7-1.3.8-2.9.4-3.7-.8M656.9 3.2l-9 5.6c4.7 7.6 2.7 17.7-5.2 22.6l5.6 9c12.8-7.9 16.5-24.5 8.6-37.2"/><path d="M651.538 1.904l2.124 3.39-2.457 1.54-2.124-3.39z"/></g><g fill="#005EC7"><path d="M166.1 324c-.1 1.5-1.4 2.6-2.8 2.5-1.5-.1-2.6-1.4-2.5-2.8.1-1.5 1.4-2.6 2.8-2.5 1.5.1 2.6 1.3 2.5 2.8M158.5 319.5l10.6.7c.6-8.9 8.3-15.8 17.5-15.2l.7-10.6c-15-1-27.8 10.1-28.8 25.1"/><path d="M161.973 323.68l.283-3.99 2.893.205-.284 3.99z"/></g><path fill="#FFC640" d="M756.6 306.7c3.1 0 5.7-2.5 5.7-5.7 0-3.1-2.5-5.7-5.7-5.7s-5.7 2.5-5.7 5.7 2.5 5.7 5.7 5.7M461.9 258.7c3.1 0 5.7-2.5 5.7-5.7 0-3.1-2.5-5.7-5.7-5.7s-5.7 2.5-5.7 5.7c0 3.1 2.5 5.7 5.7 5.7"/><path fill="#FF7361" d="M296.4 403.1c3.1 0 5.7-2.5 5.7-5.7 0-3.1-2.5-5.7-5.7-5.7s-5.7 2.5-5.7 5.7 2.6 5.7 5.7 5.7"/></svg>