<?xml version="1.0" encoding="utf-8"?>
<!-- Generator: Adobe Illustrator 18.1.0, SVG Export Plug-In . SVG Version: 6.00 Build 0)  -->
<svg version="1.1" id="Layer_1" xmlns="http://www.w3.org/2000/svg" xmlns:xlink="http://www.w3.org/1999/xlink" x="0px" y="0px"
	 viewBox="0 0 2560 400" enable-background="new 0 0 2560 400" xml:space="preserve">
<g id="Layer_1_1_">
	<g>
		<path fill="#285EA9" d="M2255,274.9c-0.7-2.9,0.1-6.1,2.4-9.7c2.1-3.2,2.8-6,2.2-8.5c-0.6-2.5-2.6-4.6-5.9-6.5l0.8-1.4
			c7.4,4.2,8.8,10.1,4.2,17.2c-2.1,3.2-2.8,6-2.2,8.5c0.6,2.5,2.6,4.6,5.9,6.5l-0.8,1.4C2257.8,280.2,2255.6,277.8,2255,274.9"/>
		<path fill="#285EA9" d="M2262.9,307c-0.7-2.9,0.1-6.1,2.4-9.7c2.1-3.2,2.8-6,2.2-8.5c-0.6-2.5-2.6-4.6-5.9-6.5l0.8-1.4
			c7.4,4.2,8.8,10.1,4.2,17.2c-2.1,3.2-2.8,6-2.2,8.5c0.6,2.5,2.6,4.6,5.9,6.5l-0.8,1.4C2265.8,312.5,2263.6,309.9,2262.9,307"/>
		<path fill="#285EA9" d="M2263,274.3c-0.7-2.9,0.1-6.1,2.4-9.7c2.1-3.2,2.8-6,2.2-8.5c-0.6-2.5-2.6-4.6-5.9-6.5l0.8-1.4
			c7.4,4.2,8.8,10.1,4.2,17.2c-2.1,3.2-2.8,6-2.2,8.5c0.6,2.5,2.6,4.6,5.9,6.5l-0.8,1.4C2265.9,279.8,2263.6,277.3,2263,274.3"/>
		<path fill="#285EA9" d="M2271,306.5c-0.7-2.9,0.1-6.1,2.4-9.7c2.1-3.2,2.8-6,2.2-8.5c-0.6-2.5-2.6-4.6-5.9-6.5l0.8-1.4
			c7.4,4.2,8.8,10.1,4.2,17.2c-2.1,3.2-2.8,6-2.2,8.5s2.6,4.6,5.9,6.5l-0.8,1.4C2273.9,311.9,2271.7,309.4,2271,306.5"/>
	</g>
	<g>
		<path fill="#285EA9" d="M358.6,343.9c-1-2.8-0.5-6.1,1.4-9.9c1.7-3.4,2.2-6.3,1.3-8.7c-0.9-2.4-3.1-4.3-6.5-5.8l0.6-1.4
			c7.7,3.4,9.8,9.1,5.9,16.6c-1.7,3.4-2.2,6.3-1.3,8.7c0.9,2.4,3.1,4.3,6.5,5.8l-0.6,1.4C362.1,348.9,359.6,346.7,358.6,343.9"/>
		<path fill="#285EA9" d="M369.8,375c-1-2.8-0.5-6.1,1.4-9.9c1.7-3.4,2.2-6.3,1.3-8.7c-0.9-2.4-3.1-4.3-6.5-5.8l0.6-1.4
			c7.7,3.4,9.8,9.1,5.9,16.6c-1.7,3.4-2.2,6.3-1.3,8.7c0.9,2.4,3.1,4.3,6.5,5.8l-0.6,1.4C373.2,380.2,370.8,377.9,369.8,375"/>
		<path fill="#285EA9" d="M366.5,342.5c-1-2.8-0.5-6.1,1.4-9.9c1.7-3.4,2.2-6.3,1.3-8.7c-0.9-2.4-3.1-4.3-6.5-5.8l0.6-1.4
			c7.7,3.4,9.8,9.1,5.9,16.6c-1.7,3.4-2.2,6.3-1.3,8.7c0.9,2.4,3.1,4.3,6.5,5.8l-0.6,1.4C370.1,347.7,367.6,345.4,366.5,342.5"/>
		<path fill="#285EA9" d="M377.7,373.7c-1-2.8-0.5-6.1,1.4-9.9c1.7-3.4,2.2-6.3,1.3-8.7c-0.9-2.4-3.1-4.3-6.5-5.8l0.6-1.4
			c7.7,3.4,9.8,9.1,5.9,16.6c-1.7,3.4-2.2,6.3-1.3,8.7c0.9,2.4,3.1,4.3,6.5,5.8l-0.6,1.4C381.2,378.8,378.8,376.5,377.7,373.7"/>
	</g>
	<g>
		<path fill="#285EA9" d="M336.9,281.8c-1-2.8-0.5-6.1,1.4-9.9c1.7-3.4,2.2-6.3,1.3-8.7c-0.9-2.4-3.1-4.3-6.5-5.8l0.6-1.4
			c7.7,3.4,9.8,9.1,5.9,16.6c-1.7,3.4-2.2,6.3-1.3,8.7c0.9,2.4,3.1,4.3,6.5,5.8l-0.6,1.4C340.3,286.9,337.8,284.6,336.9,281.8"/>
		<path fill="#285EA9" d="M348,313c-1-2.8-0.5-6.1,1.4-9.9c1.7-3.4,2.2-6.3,1.3-8.7c-0.9-2.4-3.1-4.3-6.5-5.8l0.6-1.4
			c7.7,3.4,9.8,9.1,5.9,16.6c-1.7,3.4-2.2,6.3-1.3,8.7c0.9,2.4,3.1,4.3,6.5,5.8l-0.6,1.4C351.5,318,349,315.7,348,313"/>
		<path fill="#285EA9" d="M344.9,280.4c-1-2.8-0.5-6.1,1.4-9.9c1.7-3.4,2.2-6.3,1.3-8.7c-0.9-2.4-3.1-4.3-6.5-5.8l0.6-1.4
			c7.7,3.4,9.8,9.1,5.9,16.6c-1.7,3.4-2.2,6.3-1.3,8.7c0.9,2.4,3.1,4.3,6.5,5.8l-0.6,1.4C348.3,285.5,345.8,283.2,344.9,280.4"/>
		<path fill="#285EA9" d="M356,311.7c-1-2.8-0.5-6.1,1.4-9.9c1.7-3.4,2.2-6.3,1.3-8.7c-0.9-2.4-3.1-4.3-6.5-5.8l0.6-1.4
			c7.7,3.4,9.8,9.1,5.9,16.6c-1.7,3.4-2.2,6.3-1.3,8.7c0.9,2.4,3.1,4.3,6.5,5.8l-0.6,1.4C359.5,316.7,357,314.4,356,311.7"/>
	</g>
	<g>
		<path fill="#285EA9" d="M1915.9,203.9c-2.9-0.8-5.3-3-7.4-6.7c-1.8-3.4-4-5.3-6.4-5.9s-5.3,0.1-8.5,2.1l-0.8-1.3
			c7.1-4.5,13-3,17.1,4.4c1.8,3.4,4,5.3,6.4,5.9c2.5,0.6,5.3-0.1,8.5-2.1l0.8,1.3C1922,203.8,1918.7,204.5,1915.9,203.9"/>
		<path fill="#285EA9" d="M1947.9,212.2c-2.9-0.8-5.3-3-7.4-6.7c-1.8-3.4-4-5.3-6.4-5.9c-2.5-0.6-5.3,0.1-8.5,2.1l-0.8-1.3
			c7.1-4.5,13-3,17.1,4.4c1.8,3.4,4,5.3,6.4,5.9c2.5,0.6,5.3-0.1,8.5-2.1l0.8,1.3C1954,212.2,1950.8,212.9,1947.9,212.2"/>
		<path fill="#285EA9" d="M1919.2,196.5c-2.9-0.8-5.3-3-7.4-6.7c-1.8-3.4-4-5.3-6.4-5.9c-2.5-0.6-5.3,0.1-8.5,2.1l-0.8-1.3
			c7.1-4.5,13-3,17.1,4.4c1.8,3.4,4,5.3,6.4,5.9c2.5,0.6,5.3-0.1,8.5-2.1l0.8,1.3C1925.4,196.4,1922.1,197.2,1919.2,196.5"/>
		<path fill="#285EA9" d="M1951.2,204.8c-2.9-0.8-5.3-3-7.4-6.7c-1.8-3.4-4-5.3-6.4-5.9c-2.5-0.6-5.3,0.1-8.5,2.1l-0.8-1.3
			c7.1-4.5,13-3,17.1,4.4c1.8,3.4,4,5.3,6.4,5.9c2.5,0.6,5.3-0.1,8.5-2.1l0.8,1.3C1957.4,204.8,1954.1,205.6,1951.2,204.8"/>
	</g>
	<g>
		<path fill="#285EA9" d="M639.1,112.6c-3,0-5.9-1.7-8.8-4.7c-2.6-2.8-5.1-4.2-7.6-4.2c-2.6,0-5.1,1.3-7.8,4.1l-1.1-1.1
			c5.8-6.1,12-6,17.7,0.2c2.6,2.8,5.1,4.2,7.6,4.2c2.6,0,5.1-1.3,7.8-4.1l1.1,1.1C645,111.1,642,112.6,639.1,112.6"/>
		<path fill="#285EA9" d="M672.2,113c-3,0-5.9-1.7-8.8-4.7c-2.6-2.8-5.1-4.2-7.6-4.2c-2.6,0-5.1,1.3-7.8,4.1l-1.1-1.1
			c5.8-6.1,12-6,17.7,0.2c2.6,2.8,5.1,4.2,7.6,4.2c2.6,0,5.1-1.3,7.8-4.1l1.1,1.1C678.1,111.5,675.1,113,672.2,113"/>
		<path fill="#285EA9" d="M640.6,104.7c-3,0-5.9-1.7-8.8-4.7c-2.6-2.8-5.1-4.2-7.6-4.2c-2.5,0-5.1,1.3-7.8,4.1l-1.1-1.1
			c5.8-6.1,12-6,17.7,0.2c2.6,2.8,5.1,4.2,7.6,4.2c2.6,0,5.1-1.3,7.8-4.1l1.1,1.1C646.6,103.2,643.5,104.7,640.6,104.7"/>
		<path fill="#285EA9" d="M673.7,105.1c-3,0-5.9-1.7-8.8-4.7c-2.6-2.8-5.1-4.2-7.6-4.2c-2.6,0-5.1,1.3-7.8,4.1l-1.1-1.1
			c5.8-6.1,12-6,17.7,0.2c2.6,2.8,5.1,4.2,7.6,4.2c2.6,0,5.1-1.3,7.8-4.1l1.1,1.1C679.7,103.6,676.6,105.1,673.7,105.1"/>
	</g>
	<g>
		<path fill="#285EA9" d="M507.3,110.2c-3,0-5.9-1.7-8.8-4.7c-2.6-2.8-5.1-4.2-7.6-4.2c-2.6,0-5.1,1.3-7.8,4.1l-1.1-1.1
			c5.8-6.1,12-6,17.7,0.2c2.6,2.8,5.1,4.2,7.6,4.2c2.6,0,5.1-1.3,7.8-4.1l1.1,1.1C513.3,108.7,510.3,110.3,507.3,110.2"/>
		<path fill="#285EA9" d="M540.4,110.7c-3,0-5.9-1.7-8.8-4.7c-2.6-2.8-5.1-4.2-7.6-4.2c-2.6,0-5.1,1.3-7.8,4.1l-1.1-1.1
			c5.8-6.1,12-6,17.7,0.2c2.6,2.8,5.1,4.2,7.6,4.2c2.6,0,5.1-1.3,7.8-4.1l1.1,1.1C546.4,109.2,543.4,110.7,540.4,110.7"/>
		<path fill="#285EA9" d="M508.8,102.3c-3,0-5.9-1.7-8.8-4.7c-2.6-2.8-5.1-4.2-7.6-4.2c-2.5,0-5.1,1.3-7.8,4.1l-1.1-1.1
			c5.8-6.1,12-6,17.7,0.2c2.6,2.8,5.1,4.2,7.6,4.2c2.6,0,5.1-1.3,7.8-4.1l1.1,1.1C514.8,100.8,511.8,102.4,508.8,102.3"/>
		<path fill="#285EA9" d="M541.9,102.7c-3,0-5.9-1.7-8.8-4.7c-2.6-2.8-5.1-4.2-7.6-4.2c-2.6,0-5.1,1.3-7.8,4.1l-1.1-1.1
			c5.8-6.1,12-6,17.7,0.2c2.6,2.8,5.1,4.2,7.6,4.2c2.6,0,5.1-1.3,7.8-4.1l1.1,1.1C547.9,101.3,544.9,102.7,541.9,102.7"/>
	</g>
	<path fill="#285EA9" d="M2560.4,138.7h1.9c0.5-0.7,1.4-1.3,2.4-1.3c1.6,0,2.8,1.2,2.8,2.8c0,1.6-1.3,2.8-2.8,2.8
		c-1,0-1.9-0.6-2.4-1.3h-1.9v4.1h-39.8l-0.1-11.1h39.9L2560.4,138.7z"/>
	<path fill="#FDC642" d="M2522.2,141.8h1.9c0.5,0.7,1.4,1.3,2.4,1.3c1.6,0,2.8-1.2,2.8-2.8c0-1.6-1.3-2.8-2.8-2.8
		c-1,0-1.9,0.6-2.4,1.3h-1.9v-4.1h-39.8l-0.1,11.1h39.9L2522.2,141.8z"/>
	<path fill="#285EA9" d="M2482.4,138.7h1.9c0.5-0.7,1.4-1.3,2.4-1.3c1.6,0,2.8,1.2,2.8,2.8c0,1.6-1.3,2.8-2.8,2.8
		c-1,0-1.9-0.6-2.4-1.3h-1.9v4.1h-39.8l-0.1-11.1h39.9L2482.4,138.7z"/>
	<path fill="#FDC642" d="M2442.4,141.8h1.9c0.5,0.7,1.4,1.3,2.4,1.3c1.6,0,2.8-1.2,2.8-2.8c0-1.6-1.3-2.8-2.8-2.8
		c-1,0-1.9,0.6-2.4,1.3h-1.9v-4.1h-39.8l-0.1,11.1h39.9L2442.4,141.8z"/>
	<path fill="#EE7364" d="M2402.7,138.7h1.9c0.5-0.7,1.4-1.3,2.4-1.3c1.6,0,2.8,1.2,2.8,2.8c0,1.6-1.3,2.8-2.8,2.8
		c-1,0-1.9-0.6-2.4-1.3h-1.9v4.1h-39.8l-0.1-11.1h39.9L2402.7,138.7z"/>
	<g>
		<path fill="#FDC642" d="M2363.3,134.8v4.2l0,0h1.9c0.5-0.7,1.4-1.3,2.4-1.4c1.6,0,2.9,1.2,2.9,2.8c0,1.6-1.3,2.9-2.8,2.9
			c-1,0-1.9-0.6-2.4-1.3h-2l0,0v3.9c-6,0.1-10.9,5-10.8,11l-11.1,0.2C2341.3,144.9,2351.1,134.9,2363.3,134.8"/>
		<path fill="#285EA9" d="M2341.4,157h4.2l0,0v-1.9c-0.7-0.5-1.3-1.4-1.4-2.4c0-1.6,1.2-2.9,2.8-2.9c1.6,0,2.9,1.3,2.9,2.8
			c0,1-0.6,1.9-1.3,2.4v2l0,0h3.9c0.1,6,5,10.9,11,10.8l0.1,11.1C2351.5,178.8,2341.5,169.2,2341.4,157"/>
		<path fill="#FDC642" d="M2363.2,167.7v4.2l0,0h-1.9c-0.5-0.7-1.4-1.3-2.4-1.4c-1.6,0-2.9,1.2-2.9,2.8c0,1.6,1.3,2.9,2.8,2.9
			c1,0,1.9-0.6,2.4-1.3h2l0,0v3.9c6,0.1,10.9,5,10.8,11l11.1,0.1C2385,177.8,2375.2,167.8,2363.2,167.7"/>
		<path fill="#EE7364" d="M2384.9,189.9h-4.2l0,0V188c0.7-0.5,1.3-1.4,1.4-2.4c0-1.6-1.2-2.9-2.8-2.9s-2.9,1.3-2.9,2.8
			c0,1,0.6,1.9,1.3,2.4v2l0,0h-3.9c-0.1,6-5,10.9-11,10.8l-0.1,11.1C2374.8,211.9,2384.8,202.1,2384.9,189.9"/>
		<path fill="#FDC642" d="M2363.2,207.9h1.9c0.5,0.7,1.4,1.3,2.4,1.3c1.6,0,2.8-1.2,2.8-2.8s-1.3-2.8-2.8-2.8c-1,0-1.9,0.6-2.4,1.3
			h-1.9v-4.1h-39.8l-0.1,11.1h39.9L2363.2,207.9z"/>
		<path fill="#285EA9" d="M2323.3,200.8v4h1.9c0.5-0.8,1.4-1.2,2.4-1.2c1.6,0,2.8,1.3,2.8,2.8c0,1.6-1.3,2.7-2.8,2.7
			c-1,0-1.9-0.6-2.4-1.3h-1.9v4.1c-20.3,0-37.2,16.5-37.2,36.9l0.1,0.1h-11.2l-0.1-0.1C2275.1,222.3,2296.4,200.8,2323.3,200.8"/>
	</g>
	<g>
		<path fill="#EE7364" d="M2286.2,248.5h-4v-1.9c0.8-0.5,1.2-1.4,1.2-2.4c0-1.6-1.3-2.8-2.8-2.8c-1.6,0-2.7,1.3-2.7,2.8
			c0,1,0.6,1.9,1.3,2.4v1.9h-4.1c0,20.3-16.5,37.2-36.9,37.2l-0.1-0.1v11.2l0.1,0.1C2264.6,296.8,2286.2,275.5,2286.2,248.5"/>
		<path fill="#285EA9" d="M2238.2,292.8h1.9c0.5,0.7,1.4,1.3,2.4,1.3c1.6,0,2.8-1.2,2.8-2.8c0-1.6-1.3-2.8-2.8-2.8
			c-1,0-1.9,0.6-2.4,1.3h-1.9v-4.1h-39.8l-0.1,11.1h39.9L2238.2,292.8z"/>
		<path fill="#FDC642" d="M2198.7,292.8h1.9c0.5,0.7,1.4,1.3,2.4,1.3c1.6,0,2.8-1.2,2.8-2.8c0-1.6-1.3-2.8-2.8-2.8
			c-1,0-1.9,0.6-2.4,1.3h-1.9v-4.1h-39.8l-0.1,11.1h39.9L2198.7,292.8z"/>
		<path fill="#285EA9" d="M2158.7,296.9v-4.2l0,0h1.9c0.5,0.7,1.4,1.3,2.4,1.3c1.6,0,2.9-1.3,2.9-2.8c0-1.6-1.3-2.9-2.9-2.9
			c-1,0-1.9,0.6-2.4,1.3h-2l0,0v-3.9c-6,0-10.7-5.6-10.7-11.7h-11.1C2136.9,286.3,2146.5,296.9,2158.7,296.9"/>
		<path fill="#FDC642" d="M2148,274.4h-4.2l0,0v1.9c0.7,0.5,1.3,1.4,1.4,2.4c0,1.6-1.2,2.9-2.8,2.9c-1.6,0-2.9-1.3-2.9-2.8
			c0-1,0.6-1.9,1.3-2.4v-2l0,0h-3.9c-0.1-6-5-10.9-11-10.8l-0.1-11.1C2137.9,252.6,2147.9,262.4,2148,274.4"/>
		<path fill="#EE7364" d="M2126.4,263.9v-4.2l0,0h1.9c0.5,0.7,1.4,1.3,2.4,1.3c1.6,0,2.9-1.3,2.9-2.8c0-1.6-1.3-2.9-2.9-2.9
			c-1,0-1.9,0.6-2.4,1.3h-2l0,0v-3.9c-6,0-10.7-5.6-10.7-11.7h-11.1C2104.6,253.4,2114.2,263.9,2126.4,263.9"/>
		<path fill="#285EA9" d="M2115.7,241.6h-4.2l0,0v1.9c0.7,0.5,1.3,1.4,1.4,2.4c0,1.6-1.2,2.9-2.8,2.9c-1.6,0-2.9-1.3-2.9-2.8
			c0-1,0.6-1.9,1.3-2.4v-2l0,0h-3.9c-0.1-6-5-10.9-11-10.8l-0.1-11.1C2105.6,219.7,2115.6,229.4,2115.7,241.6"/>
		<path fill="#EE7364" d="M2093.7,226.4h1.9c0.5,0.7,1.4,1.3,2.4,1.3c1.6,0,2.8-1.2,2.8-2.8c0-1.6-1.3-2.8-2.8-2.8
			c-1,0-1.9,0.6-2.4,1.3h-1.9v-4.1h-39.8l-0.1,11.1h39.9L2093.7,226.4z"/>
		<path fill="#285EA9" d="M2054.2,230.4v-4h1.9c0.5,0.8,1.4,1.2,2.4,1.2c1.6,0,2.8-1.3,2.8-2.8c0-1.6-1.3-2.7-2.8-2.7
			c-1,0-1.9,0.6-2.4,1.3h-1.9v-4.1c-20.3,0-37.2-16.5-37.2-36.9l0.1-0.1H2006l-0.1,0.1C2005.9,209,2027.1,230.4,2054.2,230.4"/>
	</g>
	<path fill="#FDC642" d="M2017,182.7h-4v1.9c0.8,0.5,1.2,1.4,1.2,2.4c0,1.6-1.3,2.8-2.8,2.8c-1.6,0-2.7-1.3-2.7-2.8
		c0-1,0.6-1.9,1.3-2.4v-1.9h-4.1c0-20.3-16.5-37.2-36.9-37.2l-0.1,0.1v-11.2l0.1-0.1C1995.4,134.4,2017,155.7,2017,182.7"/>
	<path fill="#285EA9" d="M1969.5,134.4v4h1.9c0.5-0.8,1.4-1.2,2.4-1.2c1.6,0,2.8,1.3,2.8,2.8c0,1.6-1.3,2.7-2.8,2.7
		c-1,0-1.9-0.6-2.4-1.3h-1.9v4.1c-20.3,0-37.2,16.5-37.2,36.9l0.1,0.1h-11.2l-0.1-0.1C1921.2,155.9,1942.5,134.4,1969.5,134.4"/>
	<path fill="#EE7364" d="M1925.3,181.6v-1.9c-0.7-0.5-1.3-1.4-1.3-2.4c0-1.6,1.2-2.8,2.8-2.8s2.8,1.3,2.8,2.8c0,1-0.6,1.9-1.3,2.4
		v1.9h4.1v39.8l-11.1,0.1v-39.9H1925.3z"/>
	<path fill="#285EA9" d="M1921,221.3h4.2l0,0v-1.9c-0.7-0.5-1.3-1.4-1.4-2.4c0-1.6,1.2-2.9,2.8-2.9c1.6,0,2.9,1.3,2.9,2.8
		c0,1-0.6,1.9-1.3,2.4v2l0,0h3.9c0.1,6,5,10.9,11,10.8l0.1,11.1C1931.1,243.3,1921.1,233.5,1921,221.3"/>
	<path fill="#FDC642" d="M1942.9,231.9v4.2l0,0h-1.9c-0.5-0.7-1.4-1.3-2.4-1.3c-1.6,0-2.9,1.3-2.9,2.8c0,1.6,1.3,2.9,2.9,2.9
		c1,0,1.9-0.6,2.4-1.3h2l0,0v3.9c6,0,10.9,4.9,10.9,10.9h11.1C1965,241.8,1955.1,231.9,1942.9,231.9"/>
	<path fill="#EE7364" d="M1953.6,253.9h4.2l0,0V252c-0.7-0.5-1.3-1.4-1.4-2.4c0-1.6,1.2-2.9,2.8-2.9s2.9,1.3,2.9,2.8
		c0,1-0.6,1.9-1.3,2.4v2l0,0h3.9c0.1,6,5,10.9,11,10.8l0.1,11.1C1963.7,275.8,1953.7,266,1953.6,253.9"/>
	<path fill="#285EA9" d="M1975.8,264.8v4.2l0,0h-1.9c-0.5-0.7-1.4-1.3-2.4-1.3c-1.6,0-2.9,1.3-2.9,2.8c0,1.6,1.3,2.9,2.9,2.9
		c1,0,1.9-0.6,2.4-1.3h2l0,0v3.9c6,0,10.9,4.9,10.9,10.9h11.1C1997.8,274.7,1987.9,264.8,1975.8,264.8"/>
	<path fill="#EE7364" d="M1997.8,285.8h-4.2l0,0v-1.9c0.7-0.5,1.3-1.4,1.4-2.4c0-1.6-1.2-2.9-2.8-2.9c-1.6,0-2.9,1.3-2.9,2.8
		c0,1,0.6,1.9,1.3,2.4v2l0,0h-3.9c-0.1,6-5,10.9-11,10.8l-0.1,11.1C1987.7,307.7,1997.7,297.9,1997.8,285.8"/>
	<path fill="#FDC642" d="M1976.3,300.7h1.9c0.5-0.7,1.4-1.3,2.4-1.3c1.6,0,2.8,1.2,2.8,2.8c0,1.6-1.3,2.8-2.8,2.8
		c-1,0-1.9-0.6-2.4-1.3h-1.9v4.1h-39.8l-0.1-11.1h39.9V300.7z"/>
	<path fill="#EE7364" d="M1937.3,300.7h1.9c0.5-0.7,1.4-1.3,2.4-1.3c1.6,0,2.8,1.2,2.8,2.8c0,1.6-1.3,2.8-2.8,2.8
		c-1,0-1.9-0.6-2.4-1.3h-1.9v4.1h-39.8l-0.1-11.1h39.9V300.7z"/>
	<path fill="#285EA9" d="M1897.4,300.7h1.9c0.5-0.7,1.4-1.3,2.4-1.3c1.6,0,2.8,1.2,2.8,2.8c0,1.6-1.3,2.8-2.8,2.8
		c-1,0-1.9-0.6-2.4-1.3h-1.9v4.1h-39.8l-0.1-11.1h39.9V300.7z"/>
	<path fill="#EE7364" d="M1858.5,307.9v-4.2l0,0h1.9c0.5,0.7,1.4,1.3,2.4,1.4c1.6,0,2.9-1.2,2.9-2.8c0-1.6-1.3-2.9-2.8-2.9
		c-1,0-1.9,0.6-2.4,1.3h-2l0,0V297c-6-0.1-10.9-5-10.8-11l-11.1-0.1C1836.7,297.8,1846.4,307.8,1858.5,307.9"/>
	<path fill="#285EA9" d="M1843.8,286.2v1.9c0.7,0.5,1.3,1.4,1.3,2.4c0,1.6-1.2,2.8-2.8,2.8s-2.8-1.3-2.8-2.8c0-1,0.6-1.9,1.3-2.4
		v-1.9h-4.1v-39.8l11.1-0.1v39.9H1843.8z"/>
	<path fill="#FDC642" d="M1840.8,247.8v1.9c-0.7,0.5-1.3,1.4-1.3,2.4c0,1.6,1.2,2.8,2.8,2.8c1.6,0,2.8-1.3,2.8-2.8
		c0-1-0.6-1.9-1.3-2.4v-1.9h4.1V208l-11.1-0.1v39.9H1840.8z"/>
	<path fill="#EE7364" d="M1847.9,208.1h-4.2l0,0v1.9c0.7,0.5,1.3,1.4,1.4,2.4c0,1.6-1.2,2.9-2.8,2.9c-1.6,0-2.9-1.3-2.9-2.8
		c0-1,0.6-1.9,1.3-2.4v-2l0,0h-3.9c-0.1-6-5-10.9-11-10.8l-0.1-11.1C1837.8,186.3,1847.8,196,1847.9,208.1"/>
	<path fill="#285EA9" d="M1826.1,186.4v4.2l0,0h1.9c0.5-0.7,1.4-1.3,2.4-1.4c1.6,0,2.9,1.2,2.9,2.8c0,1.6-1.3,2.9-2.8,2.9
		c-1,0-1.9-0.6-2.4-1.3h-2l0,0v3.9c-6,0.1-10.9,5-10.8,11l-11.1,0.1C1804.2,196.4,1814,186.5,1826.1,186.4"/>
	<path fill="#FDC642" d="M1808.2,207v-1.9c-0.7-0.5-1.3-1.4-1.3-2.4c0-1.6,1.2-2.8,2.8-2.8s2.8,1.3,2.8,2.8c0,1-0.6,1.9-1.3,2.4v1.9
		h4.1v39.8l-11.1,0.1V207H1808.2z"/>
	<path fill="#EE7364" d="M1815.4,246.7h-4.2l0,0v-1.9c0.7-0.5,1.3-1.4,1.4-2.4c0-1.6-1.2-2.9-2.8-2.9s-2.9,1.3-2.9,2.8
		c0,1,0.6,1.9,1.3,2.4v2l0,0h-3.9c-0.1,6-5,10.9-11,10.8l-0.1,11.1C1805.3,268.6,1815.3,258.8,1815.4,246.7"/>
	<path fill="#FDC642" d="M1793.5,268.5v-4.2l0,0h1.9c0.5,0.7,1.4,1.3,2.4,1.4c1.6,0,2.9-1.2,2.9-2.8s-1.3-2.9-2.8-2.9
		c-1,0-1.9,0.6-2.4,1.3h-2l0,0v-3.9c-6-0.1-10.9-5-10.8-11l-11.1-0.1C1771.7,258.4,1781.5,268.4,1793.5,268.5"/>
	<path fill="#285EA9" d="M1775.8,247v1.9c-0.7,0.5-1.3,1.4-1.3,2.4c0,1.6,1.2,2.8,2.8,2.8c1.6,0,2.8-1.3,2.8-2.8
		c0-1-0.6-1.9-1.3-2.4V247h4.1v-39.8l-11.1-0.1V247H1775.8z"/>
	<path fill="#FDC642" d="M1782.8,207.4h-4.2l0,0v1.9c0.7,0.5,1.3,1.4,1.4,2.4c0,1.6-1.2,2.9-2.8,2.9c-1.6,0-2.9-1.3-2.9-2.8
		c0-1,0.6-1.9,1.3-2.4v-2l0,0h-3.9c-0.1-6-5-10.9-11-10.8l-0.1-11.1C1772.8,185.5,1782.7,195.3,1782.8,207.4"/>
	<path fill="#EE7364" d="M1761.1,185.6v4.2l0,0h1.9c0.5-0.7,1.4-1.3,2.4-1.4c1.6,0,2.9,1.2,2.9,2.8c0,1.6-1.3,2.9-2.8,2.9
		c-1,0-1.9-0.6-2.4-1.3h-2l0,0v3.9c-6,0.1-10.9,5-10.8,11l-11.1,0.1C1739.2,195.6,1748.9,185.7,1761.1,185.6"/>
	<path fill="#FDC642" d="M1746.3,206.1v-1.9c0.7-0.5,1.3-1.4,1.3-2.4c0-1.6-1.2-2.8-2.8-2.8c-1.6,0-2.8,1.3-2.8,2.8
		c0,1,0.6,1.9,1.3,2.4v1.9h-4.1V246l11.1,0.1v-39.9H1746.3z"/>
	<path fill="#EE7364" d="M1750.2,246.3h-4.2l0,0v-1.9c0.7-0.5,1.3-1.4,1.3-2.4c0-1.6-1.3-2.9-2.8-2.9c-1.6,0-2.9,1.3-2.9,2.9
		c0,1,0.6,1.9,1.3,2.4v2l0,0h-3.9c0,6-5.6,10.7-11.7,10.7v11.1C1739.6,267.9,1750.1,258.3,1750.2,246.3"/>
	<path fill="#285EA9" d="M1727.4,267.9v-4.2l0,0h1.9c0.5,0.7,1.4,1.3,2.4,1.4c1.6,0,2.9-1.2,2.9-2.8s-1.3-2.9-2.8-2.9
		c-1,0-1.9,0.6-2.4,1.3h-2l0,0v-3.9c-6-0.1-10.9-5-10.8-11l-11.1-0.1C1705.6,257.8,1715.3,267.8,1727.4,267.9"/>
	<path fill="#EE7364" d="M1709.7,246.4v1.9c-0.7,0.5-1.3,1.4-1.3,2.4c0,1.6,1.2,2.8,2.8,2.8c1.6,0,2.8-1.3,2.8-2.8
		c0-1-0.6-1.9-1.3-2.4v-1.9h4.1v-39.8l-11.1-0.1v39.9H1709.7z"/>
	<path fill="#FDC642" d="M1716.7,206.8h-4.2l0,0v1.9c0.7,0.5,1.3,1.4,1.4,2.4c0,1.6-1.2,2.9-2.8,2.9c-1.6,0-2.9-1.3-2.9-2.8
		c0-1,0.6-1.9,1.3-2.4v-2l0,0h-3.9c-0.1-6-5-10.9-11-10.8l-0.1-11.1C1706.6,184.9,1716.6,194.7,1716.7,206.8"/>
	<g>
		<path fill="#285EA9" d="M1568,230.2c-2.8-1.1-4.9-3.6-6.6-7.5c-1.4-3.5-3.4-5.7-5.7-6.6c-2.4-0.9-5.2-0.5-8.7,1.1l-0.7-1.4
			c7.6-3.7,13.3-1.5,16.5,6.4c1.4,3.5,3.4,5.7,5.7,6.6c2.4,0.9,5.2,0.5,8.7-1.1l0.7,1.4C1574.1,230.9,1570.8,231.3,1568,230.2"/>
		<path fill="#285EA9" d="M1598.9,242.2c-2.8-1.1-4.9-3.6-6.6-7.5c-1.4-3.5-3.4-5.7-5.7-6.6c-2.4-0.9-5.2-0.5-8.7,1.1l-0.7-1.4
			c7.6-3.7,13.3-1.5,16.5,6.4c1.4,3.5,3.4,5.7,5.7,6.6c2.4,0.9,5.2,0.5,8.7-1.1l0.7,1.4C1605,242.8,1601.7,243.2,1598.9,242.2"/>
		<path fill="#285EA9" d="M1572.2,223.3c-2.8-1.1-4.9-3.6-6.6-7.5c-1.4-3.5-3.4-5.7-5.7-6.6c-2.4-0.9-5.2-0.5-8.7,1.1l-0.7-1.4
			c7.6-3.7,13.3-1.5,16.5,6.4c1.4,3.5,3.4,5.7,5.7,6.6c2.4,0.9,5.2,0.5,8.7-1.1l0.7,1.4C1578.4,224,1575,224.4,1572.2,223.3"/>
		<path fill="#285EA9" d="M1603.1,235.3c-2.8-1.1-4.9-3.6-6.6-7.5c-1.4-3.5-3.4-5.7-5.7-6.6c-2.4-0.9-5.2-0.5-8.7,1.1l-0.7-1.4
			c7.6-3.7,13.3-1.5,16.5,6.4c1.4,3.5,3.4,5.7,5.7,6.6c2.4,0.9,5.2,0.5,8.7-1.1l0.7,1.4C1609.2,236,1605.8,236.4,1603.1,235.3"/>
		<path fill="#285EA9" d="M1375.7,158.6c0.8-2.9,3.2-5.2,6.9-7.2c3.4-1.7,5.4-3.9,6.1-6.2c0.7-2.4,0.1-5.3-1.8-8.6l1.4-0.8
			c4.2,7.3,2.6,13.1-4.9,17c-3.4,1.7-5.4,3.9-6.1,6.2c-0.7,2.5-0.1,5.3,1.8,8.6l-1.4,0.8C1375.5,164.7,1374.9,161.5,1375.7,158.6"/>
		<path fill="#285EA9" d="M1366.4,190.4c0.8-2.9,3.2-5.2,6.9-7.2c3.4-1.7,5.4-3.9,6.1-6.2c0.7-2.5,0.1-5.3-1.8-8.6l1.4-0.8
			c4.2,7.3,2.6,13.1-4.9,17c-3.4,1.7-5.4,3.9-6.1,6.2c-0.7,2.5-0.1,5.3,1.8,8.6l-1.4,0.8C1366.2,196.5,1365.6,193.2,1366.4,190.4"/>
		<path fill="#285EA9" d="M1382.9,162.1c0.8-2.9,3.2-5.2,6.9-7.2c3.4-1.7,5.4-3.9,6.1-6.2c0.7-2.4,0.1-5.3-1.8-8.6l1.4-0.8
			c4.2,7.3,2.6,13.1-4.9,17c-3.4,1.7-5.4,3.9-6.1,6.2c-0.7,2.5-0.1,5.3,1.8,8.6l-1.4,0.8C1382.7,168.3,1382.1,165,1382.9,162.1"/>
		<path fill="#285EA9" d="M1373.6,194c0.8-2.9,3.2-5.2,6.9-7.2c3.4-1.7,5.4-3.9,6.1-6.2s0.1-5.3-1.8-8.6l1.4-0.8
			c4.2,7.3,2.6,13.1-4.9,17c-3.4,1.7-5.4,3.9-6.1,6.2c-0.7,2.5-0.1,5.3,1.8,8.6l-1.4,0.8C1373.4,200.1,1372.8,196.8,1373.6,194"/>
		<path fill="#285EA9" d="M943.4,221.2c-2.6,1.4-5.9,1.5-10,0.2c-3.6-1.2-6.5-1.2-8.8,0.1c-2.2,1.2-3.9,3.7-4.7,7.3l-1.5-0.4
			c2.2-8.2,7.5-11.1,15.5-8.5c3.6,1.2,6.5,1.2,8.8-0.1c2.2-1.2,3.9-3.7,4.7-7.3l1.5,0.4C947.8,217,945.9,219.8,943.4,221.2"/>
		<path fill="#285EA9" d="M972.3,205.3c-2.6,1.4-5.9,1.5-10,0.2c-3.6-1.2-6.5-1.2-8.8,0.1c-2.2,1.2-3.9,3.7-4.7,7.3l-1.5-0.4
			c2.2-8.2,7.5-11.1,15.5-8.5c3.6,1.2,6.5,1.2,8.8-0.1c2.2-1.2,3.9-3.7,4.7-7.3l1.5,0.4C976.9,201.1,975,204,972.3,205.3"/>
		<path fill="#285EA9" d="M940.8,213.6c-2.6,1.4-5.9,1.5-10,0.2c-3.6-1.2-6.5-1.2-8.8,0.1c-2.2,1.2-3.9,3.7-4.7,7.3l-1.5-0.4
			c2.2-8.2,7.5-11.1,15.5-8.5c3.6,1.2,6.5,1.2,8.8-0.1c2.2-1.2,3.9-3.7,4.7-7.3l1.5,0.4C945.3,209.4,943.4,212.2,940.8,213.6"/>
		<path fill="#285EA9" d="M969.9,197.7c-2.6,1.4-5.9,1.5-10,0.2c-3.6-1.2-6.5-1.2-8.8,0.1c-2.2,1.2-3.9,3.7-4.7,7.3l-1.5-0.4
			c2.2-8.2,7.5-11.1,15.5-8.5c3.6,1.2,6.5,1.2,8.8-0.1c2.2-1.2,3.9-3.7,4.7-7.3l1.5,0.4C974.3,193.5,972.4,196.2,969.9,197.7"/>
		<path fill="#285EA9" d="M1695.5,188.9h1.9c0.5-0.7,1.4-1.3,2.4-1.3c1.6,0,2.8,1.2,2.8,2.8s-1.3,2.8-2.8,2.8c-1,0-1.9-0.6-2.4-1.3
			h-1.9v4.1h-39.9l-0.1-11.1h39.9L1695.5,188.9z"/>
		<path fill="#FDC642" d="M1655.9,188.9h1.9c0.5-0.7,1.4-1.3,2.4-1.3c1.6,0,2.8,1.2,2.8,2.8s-1.3,2.8-2.8,2.8c-1,0-1.9-0.6-2.4-1.3
			h-1.9v4.1H1616l-0.1-11.1h39.9L1655.9,188.9z"/>
		<path fill="#285EA9" d="M1615.9,185v4.2l0,0h1.9c0.5-0.7,1.4-1.3,2.4-1.3c1.6,0,2.9,1.3,2.9,2.8c0,1.6-1.3,2.9-2.9,2.9
			c-1,0-1.9-0.6-2.4-1.3h-2l0,0v3.9c-6,0-10.7,5.6-10.7,11.7h-11.1C1594.2,195.6,1603.8,185,1615.9,185"/>
		<path fill="#FDC642" d="M1605.2,207.3h-4.2l0,0v-1.9c0.7-0.5,1.3-1.4,1.4-2.4c0-1.6-1.2-2.9-2.8-2.9c-1.6,0-2.9,1.3-2.9,2.8
			c0,1,0.6,1.9,1.3,2.4v2l0,0h-3.9c-0.1,6-5,10.9-11,10.8l-0.1,11.1C1595.2,229.3,1605.1,219.5,1605.2,207.3"/>
		<path fill="#EE7364" d="M1583.6,217.9v4.2l0,0h1.9c0.5-0.7,1.4-1.3,2.4-1.3c1.6,0,2.9,1.3,2.9,2.8c0,1.6-1.3,2.9-2.9,2.9
			c-1,0-1.9-0.6-2.4-1.3h-2l0,0v3.9c-6,0-10.7,5.6-10.7,11.7h-11.1C1561.9,228.5,1571.4,217.9,1583.6,217.9"/>
		<path fill="#285EA9" d="M1572.9,240.2h-4.2l0,0v-1.9c0.7-0.5,1.3-1.4,1.4-2.4c0-1.6-1.2-2.9-2.8-2.9s-2.9,1.3-2.9,2.8
			c0,1,0.6,1.9,1.3,2.4v2l0,0h-3.9c-0.1,6-5,10.9-11,10.8l-0.1,11.1C1562.8,262.2,1572.8,252.4,1572.9,240.2"/>
		<path fill="#EE7364" d="M1551.1,254.9h1.9c0.5-0.7,1.4-1.3,2.4-1.3c1.6,0,2.8,1.2,2.8,2.8c0,1.6-1.3,2.8-2.8,2.8
			c-1,0-1.9-0.6-2.4-1.3h-1.9v4.1h-39.8l-0.1-11.1h39.9V254.9z"/>
		<path fill="#FDC642" d="M1512.1,254.9h1.9c0.5-0.7,1.4-1.3,2.4-1.3c1.6,0,2.8,1.2,2.8,2.8c0,1.6-1.3,2.8-2.8,2.8
			c-1,0-1.9-0.6-2.4-1.3h-1.9v4.1h-39.8l-0.1-11.1h39.9V254.9z"/>
		<path fill="#285EA9" d="M1472.1,254.9h1.9c0.5-0.7,1.4-1.3,2.4-1.3c1.6,0,2.8,1.2,2.8,2.8c0,1.6-1.3,2.8-2.8,2.8
			c-1,0-1.9-0.6-2.4-1.3h-1.9v4.1h-39.9l-0.1-11.1h39.9L1472.1,254.9z"/>
		<path fill="#FDC642" d="M1432.3,262.1v-4h1.9c0.5,0.8,1.4,1.2,2.4,1.2c1.6,0,2.8-1.3,2.8-2.8c0-1.6-1.3-2.8-2.8-2.8
			c-1,0-1.9,0.6-2.4,1.3h-1.9V251c-20.3,0-37.2-16.5-37.2-36.9l0.1-0.1h-11.2l-0.1,0.1C1384,240.5,1405.3,262.1,1432.3,262.1"/>
		<path fill="#EE7364" d="M1395.1,214.8h-4v1.9c0.8,0.5,1.2,1.4,1.2,2.4c0,1.6-1.3,2.8-2.8,2.8c-1.6,0-2.8-1.3-2.8-2.8
			c0-1,0.6-1.9,1.3-2.4v-1.9h-4.1c0-20.3-16.5-37.2-36.9-37.2l-0.1,0.1v-11.2l0.1-0.1C1373.7,166.5,1395.1,187.7,1395.1,214.8"/>
		<path fill="#285EA9" d="M1347.7,166.5v4h1.9c0.5-0.8,1.4-1.2,2.4-1.2c1.6,0,2.8,1.3,2.8,2.8c0,1.6-1.3,2.8-2.8,2.8
			c-1,0-1.9-0.6-2.4-1.3h-1.9v4.1c-20.3,0-37.2,16.5-37.2,36.9l0.1,0.1h-11.2l-0.1-0.1C1299.4,187.9,1320.7,166.5,1347.7,166.5"/>
		<path fill="#FDC642" d="M1310.3,214.5h-4.2l0,0v-1.9c0.7-0.5,1.3-1.4,1.4-2.4c0-1.6-1.2-2.9-2.8-2.9s-2.9,1.3-2.9,2.8
			c0,1,0.6,1.9,1.3,2.4v2l0,0h-3.9c-0.1,6-5,10.9-11,10.8l-0.1,11.1C1300.3,236.5,1310.2,226.7,1310.3,214.5"/>
		<path fill="#285EA9" d="M1288.8,236.4v-4.2l0,0h1.9c0.5,0.7,1.4,1.3,2.4,1.3c1.6,0,2.9-1.3,2.9-2.8c0-1.6-1.3-2.9-2.9-2.9
			c-1,0-1.9,0.6-2.4,1.3h-2l0,0v-3.9c-6,0-10.7-5.6-10.7-11.7h-11.1C1267,225.8,1276.6,236.4,1288.8,236.4"/>
		<path fill="#FDC642" d="M1274.2,214.5v1.9c0.7,0.5,1.3,1.4,1.3,2.4c0,1.6-1.2,2.8-2.8,2.8c-1.6,0-2.8-1.3-2.8-2.8
			c0-1,0.6-1.9,1.3-2.4v-1.9h-4.1v-39.8l11.1-0.1v39.9H1274.2z"/>
		<path fill="#285EA9" d="M1277.9,174.8h-4.2l0,0v1.9c0.7,0.5,1.3,1.4,1.3,2.4c0,1.6-1.3,2.9-2.8,2.9c-1.6,0-2.9-1.3-2.9-2.9
			c0-1,0.6-1.9,1.3-2.4v-2l0,0h-3.9c0-6-5.6-10.7-11.7-10.7V153C1267.3,153.2,1277.9,162.7,1277.9,174.8"/>
		<path fill="#FDC642" d="M1255.5,156.8h1.9c0.5-0.7,1.4-1.3,2.4-1.3c1.6,0,2.8,1.2,2.8,2.8c0,1.6-1.3,2.8-2.8,2.8
			c-1,0-1.9-0.6-2.4-1.3h-1.9v4.1h-39.8l-0.1-11.1h39.9V156.8z"/>
		<path fill="#EE7364" d="M1216.3,156.8h1.9c0.5-0.7,1.4-1.3,2.4-1.3c1.6,0,2.8,1.2,2.8,2.8c0,1.6-1.3,2.8-2.8,2.8
			c-1,0-1.9-0.6-2.4-1.3h-1.9v4.1h-39.8l-0.1-11.1h39.9V156.8z"/>
		<path fill="#285EA9" d="M1176.8,152.8v4h1.9c0.5-0.8,1.4-1.2,2.4-1.2c1.6,0,2.8,1.3,2.8,2.8c0,1.6-1.3,2.8-2.8,2.8
			c-1,0-1.9-0.6-2.4-1.3h-1.9v4.1c-20.3,0-37.2,16.5-37.2,36.9l0.1,0.1h-11.2l-0.1-0.1C1128.5,174.2,1149.7,152.8,1176.8,152.8"/>
		<path fill="#FDC642" d="M1132.4,199.9V198c-0.7-0.5-1.3-1.4-1.3-2.4c0-1.6,1.2-2.8,2.8-2.8c1.6,0,2.8,1.3,2.8,2.8
			c0,1-0.6,1.9-1.3,2.4v1.9h4.1v39.8l-11.1,0.1v-39.9H1132.4z"/>
		<path fill="#EE7364" d="M1132.3,239v-1.9c-0.7-0.5-1.3-1.4-1.3-2.4c0-1.6,1.2-2.8,2.8-2.8c1.6,0,2.8,1.3,2.8,2.8
			c0,1-0.6,1.9-1.3,2.4v1.9h4.1v39.8l-11.1,0.1V239H1132.3z"/>
		<path fill="#FDC642" d="M1139.6,278.8h-4.2l0,0v-1.9c0.7-0.5,1.3-1.4,1.4-2.4c0-1.6-1.2-2.9-2.8-2.9s-2.9,1.3-2.9,2.8
			c0,1,0.6,1.9,1.3,2.4v2l0,0h-3.9c-0.1,6-5,10.9-11,10.8l-0.1,11.1C1129.5,300.7,1139.4,290.9,1139.6,278.8"/>
		<path fill="#EE7364" d="M1117.7,300.6v-4.2l0,0h1.9c0.5,0.7,1.4,1.3,2.4,1.4c1.6,0,2.9-1.2,2.9-2.8c0-1.6-1.3-2.9-2.8-2.9
			c-1,0-1.9,0.6-2.4,1.3h-2l0,0v-3.9c-6-0.1-10.9-5-10.8-11l-11.1-0.1C1095.8,290.5,1105.6,300.5,1117.7,300.6"/>
		<path fill="#285EA9" d="M1099.9,279.9v1.9c-0.7,0.5-1.3,1.4-1.3,2.4c0,1.6,1.2,2.8,2.8,2.8c1.6,0,2.8-1.3,2.8-2.8
			c0-1-0.6-1.9-1.3-2.4v-1.9h4.1v-39.9l-11.1-0.1v39.9L1099.9,279.9z"/>
		<path fill="#FDC642" d="M1106.9,240.2h-4.2l0,0v1.9c0.7,0.5,1.3,1.4,1.4,2.4c0,1.6-1.2,2.9-2.8,2.9s-2.9-1.3-2.9-2.8
			c0-1,0.6-1.9,1.3-2.4v-2l0,0h-3.9c-0.1-6-5-10.9-11-10.8l-0.1-11.1C1096.9,218.3,1106.8,228.1,1106.9,240.2"/>
		<path fill="#EE7364" d="M1085.2,218.4v4.2l0,0h1.9c0.5-0.7,1.4-1.3,2.4-1.4c1.6,0,2.9,1.2,2.9,2.8c0,1.6-1.3,2.9-2.8,2.9
			c-1,0-1.9-0.6-2.4-1.3h-2l0,0v3.9c-6,0.1-10.9,5-10.8,11l-11.1,0.1C1063.3,228.5,1073,218.5,1085.2,218.4"/>
	</g>
	<g>
		<path fill="#285EA9" d="M1067.4,239.8v-1.9c-0.7-0.5-1.3-1.4-1.3-2.4c0-1.6,1.2-2.8,2.8-2.8c1.6,0,2.8,1.3,2.8,2.8
			c0,1-0.6,1.9-1.3,2.4v1.9h4.1v39.8l-11.1,0.1v-39.9H1067.4z"/>
		<path fill="#FDC642" d="M1074.4,279.6h-4.2l0,0v-1.9c0.7-0.5,1.3-1.4,1.4-2.4c0-1.6-1.2-2.9-2.8-2.9c-1.6,0-2.9,1.3-2.9,2.8
			c0,1,0.6,1.9,1.3,2.4v2l0,0h-3.9c-0.1,6-5,10.9-11,10.8l-0.1,11.1C1064.3,301.4,1074.3,291.7,1074.4,279.6"/>
	</g>
	<g>
		<path fill="#EE7364" d="M1052.7,301.4v-4.2l0,0h1.9c0.5,0.7,1.4,1.3,2.4,1.4c1.6,0,2.9-1.2,2.9-2.8s-1.3-2.9-2.8-2.9
			c-1,0-1.9,0.6-2.4,1.3h-2l0,0v-3.9c-6-0.1-10.9-5-10.8-11l-11.1-0.1C1030.7,291.3,1040.5,301.2,1052.7,301.4"/>
		<path fill="#FDC642" d="M1037.9,280.7v1.9c0.7,0.5,1.3,1.4,1.3,2.4c0,1.6-1.2,2.8-2.8,2.8c-1.6,0-2.8-1.3-2.8-2.8
			c0-1,0.6-1.9,1.3-2.4v-1.9h-4.1v-39.8l11.1-0.1v39.9H1037.9z"/>
		<path fill="#285EA9" d="M1041.8,240.7h-4.2l0,0v1.9c0.7,0.5,1.3,1.4,1.3,2.4c0,1.6-1.3,2.9-2.8,2.9c-1.6,0-2.9-1.3-2.9-2.9
			c0-1,0.6-1.9,1.3-2.4v-2l0,0h-3.9c0-6-5.6-10.7-11.7-10.7v-11.1C1031.1,219,1041.8,228.6,1041.8,240.7"/>
		<path fill="#FDC642" d="M1019.6,223.3h1.9c0.5-0.7,1.4-1.3,2.4-1.3c1.6,0,2.8,1.2,2.8,2.8s-1.3,2.8-2.8,2.8c-1,0-1.9-0.6-2.4-1.3
			h-1.9v4.1h-39.8l-0.1-11.1h39.9L1019.6,223.3z"/>
		<path fill="#EE7364" d="M980.4,230.8v-4h1.9c0.5,0.8,1.4,1.2,2.4,1.2c1.6,0,2.8-1.3,2.8-2.8c0-1.6-1.3-2.8-2.8-2.8
			c-1,0-1.9,0.6-2.4,1.3h-1.9v-4.1c-20.3,0-37.2-16.5-37.2-36.9l0.1-0.1h-11.3l-0.1,0.1C932.1,209.3,953.4,230.8,980.4,230.8"/>
		<path fill="#285EA9" d="M943.1,183.3h-4.2l0,0v1.9c0.7,0.5,1.3,1.4,1.3,2.4c0,1.6-1.3,2.9-2.8,2.9c-1.6,0-2.9-1.3-2.9-2.9
			c0-1,0.6-1.9,1.3-2.4v-2l0,0H932c0-6-4.9-10.9-10.9-10.9v-11.1C933.2,161.3,943.1,171.1,943.1,183.3"/>
		<path fill="#EE7364" d="M921.1,172.6v-4.2l0,0h1.9c0.5,0.7,1.4,1.3,2.4,1.4c1.6,0,2.9-1.2,2.9-2.8c0-1.6-1.3-2.9-2.8-2.9
			c-1,0-1.9,0.6-2.4,1.3h-2l0,0v-3.9c-6-0.1-10.9-5-10.8-11l-11.1-0.1C899.2,162.5,909,172.5,921.1,172.6"/>
		<path fill="#FDC642" d="M910.6,150.7h-4.2l0,0v1.9c0.7,0.5,1.3,1.4,1.3,2.4c0,1.6-1.3,2.9-2.8,2.9c-1.6,0-2.9-1.3-2.9-2.9
			c0-1,0.6-1.9,1.3-2.4v-2l0,0h-3.9c0-6-4.9-10.9-10.9-10.9v-11.1C900.7,128.6,910.6,138.5,910.6,150.7"/>
		<path fill="#285EA9" d="M1072.1,168.5c3.9,0,6.9-3.1,6.9-6.9s-3.1-6.9-6.9-6.9s-6.9,3.1-6.9,6.9S1068.3,168.5,1072.1,168.5"/>
		<path fill="#285EA9" d="M1255.3,185.2c3.9,0,6.9-3.1,6.9-6.9c0-3.9-3.1-6.9-6.9-6.9c-3.9,0-6.9,3.1-6.9,6.9
			C1248.4,182.1,1251.4,185.2,1255.3,185.2"/>
		<path fill="#285EA9" d="M1117.5,218.9c3.9,0,6.9-3.1,6.9-6.9s-3.1-6.9-6.9-6.9s-6.9,3.1-6.9,6.9S1113.8,218.9,1117.5,218.9"/>
		<path fill="#285EA9" d="M876.4,292c3.9,0,6.9-3.1,6.9-6.9c0-3.9-3.1-6.9-6.9-6.9c-3.9,0-6.9,3.1-6.9,6.9
			C869.5,288.9,872.6,292,876.4,292"/>
		<path fill="#285EA9" d="M1327.4,158.6c3.9,0,6.9-3.1,6.9-6.9s-3.1-6.9-6.9-6.9c-3.9,0-6.9,3.1-6.9,6.9S1323.6,158.6,1327.4,158.6"
			/>
		<path fill="#285EA9" d="M1347.8,198.6c3.9,0,6.9-3.1,6.9-6.9c0-3.9-3.1-6.9-6.9-6.9c-3.9,0-6.9,3.1-6.9,6.9
			C1340.9,195.6,1343.9,198.6,1347.8,198.6"/>
		<path fill="#285EA9" d="M1585.1,184.8c3.9,0,6.9-3.1,6.9-6.9s-3.1-6.9-6.9-6.9c-3.9,0-6.9,3.1-6.9,6.9S1581.2,184.8,1585.1,184.8"
			/>
		<path fill="#285EA9" d="M1319.5,249.5c3.9,0,6.9-3.1,6.9-6.9s-3.1-6.9-6.9-6.9s-6.9,3.1-6.9,6.9S1315.7,249.5,1319.5,249.5"/>
	</g>
	<rect x="996" y="194.2" fill="#EE7364" width="5" height="14.2"/>
	<polyline fill="#285EA9" points="1004.8,205 998.5,180.3 992,205 	"/>
	<rect x="1397.2" y="270.9" fill="#EE7364" width="5" height="14.2"/>
	<polyline fill="#285EA9" points="1406.1,281.7 1399.8,257 1393.3,281.7 	"/>
	<rect x="1413.2" y="256.8" fill="#EE7364" width="5" height="14.2"/>
	<polyline fill="#285EA9" points="1422.1,267.7 1415.7,243 1409.3,267.7 	"/>
	<rect x="1426.1" y="278" fill="#EE7364" width="5" height="14.2"/>
	<polyline fill="#285EA9" points="1435,288.8 1428.5,264.1 1422.1,288.8 	"/>
	<rect x="1618.6" y="161.4" fill="#EE7364" width="5" height="14.2"/>
	<polyline fill="#285EA9" points="1627.5,172.2 1621.2,147.5 1614.6,172.2 	"/>
	<g>
		<rect x="1150.1" y="256.8" fill="#EE7364" width="5" height="14.2"/>
		<polyline fill="#285EA9" points="1159,267.7 1152.7,243 1146.2,267.7 		"/>
	</g>
	<rect x="895.1" y="182.3" fill="#EE7364" width="5" height="14.2"/>
	<polyline fill="#285EA9" points="904,193.2 897.7,168.5 891.2,193.2 	"/>
	<g>
		<rect x="985.9" y="250.3" fill="#FDC642" width="17.6" height="20.8"/>
		<polygon fill="#EE7364" points="994.8,237.5 984.5,250.3 1004.8,250.3 		"/>
		<g>
			<path fill="#285EA9" d="M994.7,248.4c1.3,0,2.3-1,2.3-2.3c0-1.3-1-2.3-2.3-2.3s-2.3,1-2.3,2.3
				C992.4,247.3,993.5,248.4,994.7,248.4"/>
		</g>
		<rect x="992.2" y="261.4" fill="#EE7364" width="4.9" height="9.7"/>
	</g>
	<g>
		<rect x="1227.5" y="124" fill="#FDC642" width="28.7" height="20.8"/>
		<polygon fill="#EE7364" points="1242,111.1 1225.2,124 1258.3,124 		"/>
		<rect x="1232.2" y="127.6" fill="#285EA9" width="4.3" height="4.3"/>
		<rect x="1247" y="135.2" fill="#EE7364" width="4.9" height="9.7"/>
	</g>
	<g>
		<rect x="1480.9" y="272.7" fill="#FDC642" width="21.3" height="25.3"/>
		<polygon fill="#EE7364" points="1491.7,257 1479.2,272.7 1503.9,272.7 		"/>
		<rect x="1484.2" y="276" fill="#285EA9" width="4.3" height="4.3"/>
		<rect x="1489.1" y="288.4" fill="#EE7364" width="4.9" height="9.7"/>
		<rect x="1489.7" y="276" fill="#285EA9" width="4.3" height="4.3"/>
		<rect x="1495.2" y="276" fill="#285EA9" width="4.3" height="4.3"/>
	</g>
	<g>
		<rect x="1417.7" y="218" fill="#FDC642" width="34.6" height="25"/>
		<polygon fill="#EE7364" points="1435,208.4 1454.9,218 1415,218 		"/>
		<rect x="1440.9" y="222.7" fill="#285EA9" width="4.3" height="4.3"/>
		<rect x="1432.5" y="233.3" fill="#EE7364" width="4.9" height="9.7"/>
		<rect x="1423.9" y="208.5" fill="#EE7364" width="4.5" height="6.5"/>
	</g>
	<g>
		<path fill="#285EA9" d="M1357,221.7c0.8-2.9,3.2-5.2,6.9-7.2c3.4-1.7,5.4-3.9,6.1-6.2c0.7-2.4,0.1-5.3-1.8-8.6l1.4-0.8
			c4.2,7.3,2.6,13.1-4.9,17c-3.4,1.7-5.4,3.9-6.1,6.2c-0.7,2.5-0.1,5.3,1.8,8.6l-1.4,0.8C1356.8,227.9,1356.1,224.6,1357,221.7"/>
		<path fill="#285EA9" d="M1347.7,253.5c0.8-2.9,3.2-5.2,6.9-7.2c3.4-1.7,5.4-3.9,6.1-6.2s0.1-5.3-1.8-8.6l1.4-0.8
			c4.2,7.3,2.6,13.1-4.9,17c-3.4,1.7-5.4,3.9-6.1,6.2c-0.7,2.5-0.1,5.3,1.8,8.6l-1.4,0.8C1347.5,259.7,1346.8,256.3,1347.7,253.5"/>
		<path fill="#285EA9" d="M1364.2,225.3c0.8-2.9,3.2-5.2,6.9-7.2c3.4-1.7,5.4-3.9,6.1-6.2c0.7-2.5,0.1-5.3-1.8-8.6l1.4-0.8
			c4.2,7.3,2.6,13.1-4.9,17c-3.4,1.7-5.4,3.9-6.1,6.2c-0.7,2.5-0.1,5.3,1.8,8.6l-1.4,0.8C1364,231.4,1363.3,228.2,1364.2,225.3"/>
		<path fill="#285EA9" d="M1354.9,257.1c0.8-2.9,3.2-5.2,6.9-7.2c3.4-1.7,5.4-3.9,6.1-6.2c0.7-2.5,0.1-5.3-1.8-8.6l1.4-0.8
			c4.2,7.3,2.6,13.1-4.9,17c-3.4,1.7-5.4,3.9-6.1,6.2c-0.7,2.5-0.1,5.3,1.8,8.6l-1.4,0.8C1354.7,263.2,1354,260,1354.9,257.1"/>
		<path fill="#EE7364" d="M888.5,139.6v-4.2l0,0h1.9c0.5,0.7,1.4,1.3,2.4,1.4c1.6,0,2.9-1.2,2.9-2.8c0-1.6-1.3-2.9-2.8-2.9
			c-1,0-1.9,0.6-2.4,1.3h-2l0,0v-3.9c-6-0.1-10.9-5-10.8-11l-11.1-0.1C866.6,129.5,876.4,139.5,888.5,139.6"/>
		<path fill="#285EA9" d="M877.6,117.5h-4.2l0,0v1.9c0.7,0.5,1.3,1.4,1.3,2.4c0,1.6-1.3,2.9-2.8,2.9c-1.6,0-2.9-1.3-2.9-2.9
			c0-1,0.6-1.9,1.3-2.4v-2l0,0h-3.9c0-6-4.9-10.9-10.9-10.9V95.4C867.7,95.4,877.6,105.3,877.6,117.5"/>
	</g>
	<path fill="#EE7364" d="M855.7,102.4h1.9c0.5,0.7,1.3,1.3,2.3,1.3c1.5,0,2.7-1.2,2.7-2.7c0-1.5-1.2-2.7-2.7-2.7
		c-1,0-1.8,0.6-2.3,1.2h-1.9v-4h-38.6l-0.1,10.8h38.7L855.7,102.4z"/>
	<path fill="#285EA9" d="M817.2,102.4h1.9c0.5,0.7,1.3,1.3,2.3,1.3c1.5,0,2.7-1.2,2.7-2.7c0-1.5-1.2-2.7-2.7-2.7
		c-1,0-1.8,0.6-2.3,1.2h-1.9v-4h-38.6l-0.1,10.8h38.7L817.2,102.4z"/>
	<path fill="#FDC642" d="M780.9,102.6h1.9c0.5,0.7,1.4,1.3,2.4,1.3c1.6,0,2.8-1.2,2.8-2.8s-1.3-2.8-2.8-2.8c-1,0-1.9,0.6-2.4,1.3
		h-1.9v-4.1h-39.8l-0.1,11.1h39.9V102.6z"/>
	<path fill="#EE7364" d="M741.8,95.9v4.2l0,0h1.9c0.5-0.7,1.4-1.3,2.4-1.4c1.6,0,2.9,1.2,2.9,2.8s-1.3,2.9-2.8,2.9
		c-1,0-1.9-0.6-2.4-1.3h-2l0,0v3.9c-6,0.1-10.9,5-10.8,11l-11.1,0.1C719.8,106,729.6,96,741.8,95.9"/>
	<path fill="#285EA9" d="M724,117.3v-1.9c-0.7-0.5-1.3-1.4-1.3-2.4c0-1.6,1.2-2.8,2.8-2.8c1.6,0,2.8,1.3,2.8,2.8
		c0,1-0.6,1.9-1.3,2.4v1.9h4.1v39.8l-11.1,0.1v-39.9H724z"/>
	<path fill="#EE7364" d="M731.1,155.5h-4.2l0,0v-1.9c0.7-0.5,1.3-1.4,1.4-2.4c0-1.6-1.2-2.9-2.8-2.9s-2.9,1.3-2.9,2.8
		c0,1,0.6,1.9,1.3,2.4v2l0,0h-3.9c-0.1,6-5,10.9-11,10.8l-0.1,11.1C721,177.4,731,167.6,731.1,155.5"/>
	<path fill="#FDC642" d="M708.8,177.3v-4.2l0,0h1.9c0.5,0.7,1.4,1.3,2.4,1.4c1.6,0,2.9-1.2,2.9-2.8c0-1.6-1.3-2.9-2.8-2.9
		c-1,0-1.9,0.6-2.4,1.3h-2l0,0v-3.9c-6-0.1-10.9-5-10.8-11l-11.1-0.1C686.9,167.2,696.7,177.2,708.8,177.3"/>
	<path fill="#285EA9" d="M698.3,155.6h-4.2l0,0v1.9c0.7,0.5,1.3,1.4,1.4,2.4c0,1.6-1.2,2.9-2.8,2.9s-2.9-1.3-2.9-2.8
		c0-1,0.6-1.9,1.3-2.4v-2l0,0h-3.9c-0.1-6-5-10.9-11-10.8l-0.1-11.1C688.2,133.7,698.2,143.5,698.3,155.6"/>
	<path fill="#FDC642" d="M676,133.8v4.2l0,0h1.9c0.5-0.7,1.4-1.3,2.4-1.4c1.6,0,2.9,1.2,2.9,2.8c0,1.6-1.3,2.9-2.8,2.9
		c-1,0-1.9-0.6-2.4-1.3h-2l0,0v3.9c-6,0.1-10.9,5-10.8,11l-11.1,0.1C654.1,143.9,663.9,133.9,676,133.8"/>
	<path fill="#EE7364" d="M665.4,155.5h-4.2l0,0v-1.9c0.7-0.5,1.3-1.4,1.4-2.4c0-1.6-1.2-2.9-2.8-2.9s-2.9,1.3-2.9,2.8
		c0,1,0.6,1.9,1.3,2.4v2l0,0h-3.9c-0.1,6-5,10.9-11,10.8l-0.1,11.1C655.3,177.4,665.3,167.6,665.4,155.5"/>
	<path fill="#FDC642" d="M643,177.3v-4.2l0,0h1.9c0.5,0.7,1.4,1.3,2.4,1.4c1.6,0,2.9-1.2,2.9-2.8c0-1.6-1.3-2.9-2.8-2.9
		c-1,0-1.9,0.6-2.4,1.3h-2l0,0v-3.9c-6-0.1-10.9-5-10.8-11l-11.1-0.1C621.2,167.2,631,177.2,643,177.3"/>
	<path fill="#285EA9" d="M628,155.1v1.9c0.7,0.5,1.3,1.3,1.3,2.3c0,1.5-1.2,2.7-2.7,2.7c-1.5,0-2.7-1.2-2.7-2.7c0-1,0.6-1.8,1.2-2.3
		v-1.9h-4v-38.6l10.8-0.1v38.7H628z"/>
	<path fill="#FDC642" d="M628,117v1.9c0.7,0.5,1.3,1.3,1.3,2.3c0,1.5-1.2,2.7-2.7,2.7c-1.5,0-2.7-1.2-2.7-2.7c0-1,0.6-1.8,1.2-2.3
		V117h-4V78.3l10.8-0.1V117L628,117z"/>
	<path fill="#285EA9" d="M631.9,78.7h-4l0,0v1.9c0.7,0.5,1.3,1.3,1.3,2.3c0,1.5-1.2,2.8-2.8,2.8c-1.5,0-2.8-1.2-2.8-2.8
		c0-1,0.6-1.8,1.2-2.3v-1.9l0,0h-3.8c0-5.8-4.7-10.6-10.6-10.6V57.4C622.3,57.4,631.9,67,631.9,78.7"/>
	<path fill="#EE7364" d="M611.4,61.4h1.9c0.5-0.7,1.4-1.3,2.4-1.3c1.6,0,2.8,1.2,2.8,2.8c0,1.6-1.3,2.8-2.8,2.8
		c-1,0-1.9-0.6-2.4-1.3h-1.9v4.1h-39.8l-0.1-11.1h39.9L611.4,61.4z"/>
	<path fill="#FDC642" d="M572.7,64.4h1.9c0.5,0.7,1.4,1.3,2.4,1.3c1.6,0,2.8-1.2,2.8-2.8c0-1.6-1.3-2.8-2.8-2.8
		c-1,0-1.9,0.6-2.4,1.3h-1.9v-4.1h-39.8l-0.1,10.8l39.9,0.3L572.7,64.4z"/>
	<path fill="#EE7364" d="M533.3,57.4v4l0,0h1.9c0.5-0.7,1.3-1.3,2.3-1.3c1.5,0,2.8,1.2,2.8,2.7s-1.2,2.8-2.7,2.8
		c-1,0-1.8-0.5-2.3-1.2h-1.9l0,0v3.8c-5.8,0.1-10.5,4.8-10.5,10.7l-10.8,0.1C512.1,67.2,521.6,57.5,533.3,57.4"/>
	<path fill="#FDC642" d="M516,78.2v-1.9c-0.7-0.5-1.3-1.3-1.3-2.3c0-1.5,1.2-2.7,2.7-2.7s2.7,1.2,2.7,2.7c0,1-0.6,1.8-1.2,2.3v1.9h4
		v38.6l-10.8,0.1V78.2L516,78.2z"/>
	<path fill="#EE7364" d="M516,114.8v-1.9c-0.7-0.5-1.3-1.3-1.3-2.3c0-1.5,1.2-2.7,2.7-2.7s2.7,1.2,2.7,2.7c0,1-0.6,1.8-1.2,2.3v1.9
		h4v38.6l-10.8,0.1v-38.7L516,114.8z"/>
	<path fill="#285EA9" d="M519,151.9V150c0.7-0.5,1.3-1.4,1.3-2.4c0-1.6-1.2-2.8-2.8-2.8c-1.6,0-2.8,1.3-2.8,2.8c0,1,0.6,1.9,1.3,2.4
		v1.9H512v39.8l11.1,0.1v-39.9H519z"/>
	<path fill="#FDC642" d="M523.1,191.5h-4.2l0,0v-1.9c0.7-0.5,1.3-1.4,1.4-2.4c0-1.6-1.2-2.9-2.8-2.9c-1.6,0-2.9,1.3-2.9,2.8
		c0,1,0.6,1.9,1.3,2.4v2l0,0h-3.9c-0.1,6-5,10.9-11,10.8l-0.1,11.1C513,213.4,523,203.7,523.1,191.5"/>
	<path fill="#285EA9" d="M501,206.2h1.9c0.5-0.7,1.4-1.3,2.4-1.3c1.6,0,2.8,1.2,2.8,2.8c0,1.6-1.3,2.8-2.8,2.8c-1,0-1.9-0.6-2.4-1.3
		H501v4.1h-39.8l-0.1-11.1H501V206.2z"/>
	<path fill="#FDC642" d="M462.7,209.3h1.9c0.5,0.7,1.4,1.3,2.4,1.3c1.6,0,2.8-1.2,2.8-2.8c0-1.6-1.3-2.8-2.8-2.8
		c-1,0-1.9,0.6-2.4,1.3h-1.9v-4.1h-39.8l-0.1,11.1h39.9V209.3z"/>
	<path fill="#EE7364" d="M424.5,202.3v4.2l0,0h1.9c0.5-0.7,1.4-1.3,2.4-1.4c1.6,0,2.9,1.2,2.9,2.8c0,1.6-1.3,2.9-2.8,2.9
		c-1,0-1.9-0.6-2.4-1.3h-2l0,0v3.9c-6,0.1-10.9,5-10.8,11l-11.1,0.1C402.6,212.4,412.4,202.4,424.5,202.3"/>
	<path fill="#FDC642" d="M409.8,223.5v-1.9c0.7-0.5,1.3-1.4,1.3-2.4c0-1.6-1.2-2.8-2.8-2.8s-2.8,1.3-2.8,2.8c0,1,0.6,1.9,1.3,2.4
		v1.9h-4.1v39.8l11.1,0.1v-39.9H409.8z"/>
	<path fill="#285EA9" d="M409.8,263.5v-1.9c0.7-0.5,1.3-1.4,1.3-2.4c0-1.6-1.2-2.8-2.8-2.8s-2.8,1.3-2.8,2.8c0,1,0.6,1.9,1.3,2.4
		v1.9h-4.1v39.8l11.1,0.1v-39.9H409.8z"/>
	<path fill="#FDC642" d="M413.8,303h-4.2l0,0v-1.9c0.7-0.5,1.3-1.4,1.3-2.4c0-1.6-1.3-2.9-2.8-2.9c-1.6,0-2.9,1.3-2.9,2.9
		c0,1,0.6,1.9,1.3,2.4v2l0,0h-3.9c0,6-4.9,10.9-10.9,10.9V325C404,325,413.8,315.1,413.8,303"/>
	<path fill="#EE7364" d="M392.4,317.9h1.9c0.5-0.7,1.4-1.3,2.4-1.3c1.6,0,2.8,1.2,2.8,2.8c0,1.6-1.3,2.8-2.8,2.8
		c-1,0-1.9-0.6-2.4-1.3h-1.9v4.1h-39.8l-0.1-11.1h39.9V317.9z"/>
	<path fill="#FDC642" d="M353.7,321h1.9c0.5,0.7,1.4,1.3,2.4,1.3c1.6,0,2.8-1.2,2.8-2.8c0-1.6-1.3-2.8-2.8-2.8c-1,0-1.9,0.6-2.4,1.3
		h-1.9v-4.1h-39.8l-0.1,11.1h39.9V321z"/>
	<path fill="#EE7364" d="M314.2,325v-4.2l0,0h1.9c0.5,0.7,1.4,1.3,2.4,1.4c1.6,0,2.9-1.2,2.9-2.8s-1.3-2.9-2.8-2.9
		c-1,0-1.9,0.6-2.4,1.3h-2l0,0V314c-6-0.1-10.9-6.4-10.8-12.5l-11.1,1.3C292.4,314.9,302.1,324.9,314.2,325"/>
	<path fill="#285EA9" d="M296.5,302.7v1.9c-0.7,0.5-1.3,1.4-1.3,2.4c0,1.6,1.2,2.8,2.8,2.8s2.8-1.3,2.8-2.8c0-1-0.6-1.9-1.3-2.4
		v-1.9h4.1v-39.8l-11.1-0.1v39.9H296.5z"/>
	<path fill="#EE7364" d="M296.4,263.5v1.9c-0.7,0.5-1.3,1.4-1.3,2.4c0,1.6,1.2,2.8,2.8,2.8c1.6,0,2.8-1.3,2.8-2.8
		c0-1-0.6-1.9-1.3-2.4v-1.9h4.1v-39.8l-11.1-0.1v39.9H296.4z"/>
	<path fill="#FDC642" d="M303.5,223.8h-4.2l0,0v1.9c0.7,0.5,1.3,1.4,1.4,2.4c0,1.6-1.2,2.9-2.8,2.9c-1.6,0-2.9-1.3-2.9-2.8
		c0-1,0.6-1.9,1.3-2.4v-2l0,0h-3.9c-0.1-6-5-10.9-11-10.8l-0.1-11.1C293.5,201.9,303.4,211.7,303.5,223.8"/>
	<path fill="#285EA9" d="M281.8,202v4.2l0,0h1.9c0.5-0.7,1.4-1.3,2.4-1.4c1.6,0,2.9,1.2,2.9,2.8c0,1.6-1.3,2.9-2.8,2.9
		c-1,0-1.9-0.6-2.4-1.3h-2l0,0v3.9c-6,0.1-10.9,5-10.8,11L260,224C259.9,212.1,269.6,202.2,281.8,202"/>
	<path fill="#EE7364" d="M264,223.3v-1.9c-0.7-0.5-1.3-1.4-1.3-2.4c0-1.6,1.2-2.8,2.8-2.8c1.6,0,2.8,1.3,2.8,2.8
		c0,1-0.6,1.9-1.3,2.4v1.9h4.1v39.8l-11.1,0.1v-39.9H264z"/>
	<path fill="#FDC642" d="M271.1,262.5H267l0,0v-1.9c0.7-0.5,1.3-1.4,1.4-2.4c0-1.6-1.2-2.9-2.8-2.9c-1.6,0-2.9,1.3-2.9,2.8
		c0,1,0.6,1.9,1.3,2.4v2l0,0h-3.9c-0.1,6-5,10.9-11,10.8l-0.1,11.1C261.1,284.4,270.9,274.6,271.1,262.5"/>
	<path fill="#285EA9" d="M249.2,284.2v-4.2l0,0h1.9c0.5,0.7,1.4,1.3,2.4,1.4c1.6,0,2.9-1.2,2.9-2.8c0-1.6-1.3-2.9-2.8-2.9
		c-1,0-1.9,0.6-2.4,1.3h-2l0,0v-3.9c-6-0.1-10.9-5-10.8-11l-11.1-0.1C227.4,274.1,237,284.1,249.2,284.2"/>
	<path fill="#EE7364" d="M234.5,263.5v1.9c0.7,0.5,1.3,1.4,1.3,2.4c0,1.6-1.2,2.8-2.8,2.8c-1.6,0-2.8-1.3-2.8-2.8
		c0-1,0.6-1.9,1.3-2.4v-1.9h-4.1v-39.8l11.1-0.1v39.9H234.5z"/>
	<path fill="#FDC642" d="M238.5,224.5h-4.2l0,0v1.9c0.7,0.5,1.3,1.4,1.4,2.4c0,1.6-1.2,2.9-2.8,2.9c-1.6,0-2.9-1.3-2.9-2.8
		c0-1,0.6-1.9,1.3-2.4v-2l0,0h-3.9c-0.1-6-5-10.9-11-10.8l-0.1-11.1C228.4,202.6,238.4,212.4,238.5,224.5"/>
	<path fill="#EE7364" d="M216.6,206.7h1.9c0.5-0.7,1.4-1.3,2.4-1.3c1.6,0,2.8,1.2,2.8,2.8c0,1.6-1.3,2.8-2.8,2.8
		c-1,0-1.9-0.6-2.4-1.3h-1.9v4.1h-39.8l-0.1-11.1h39.9V206.7z"/>
	<path fill="#FDC642" d="M177,209.8h1.9c0.5,0.7,1.4,1.3,2.4,1.3c1.6,0,2.8-1.2,2.8-2.8c0-1.6-1.3-2.8-2.8-2.8c-1,0-1.9,0.6-2.4,1.3
		H177v-4.1h-39.8l-0.1,11.1H177V209.8z"/>
	<path fill="#285EA9" d="M137.5,209.8h1.9c0.5,0.7,1.4,1.3,2.4,1.3c1.6,0,2.8-1.2,2.8-2.8c0-1.6-1.3-2.8-2.8-2.8
		c-1,0-1.9,0.6-2.4,1.3h-1.9v-4.1H97.7l-0.1,11.1h39.9V209.8z"/>
	<path fill="#FDC642" d="M98,213.7v-4.2l0,0h1.9c0.5,0.7,1.4,1.3,2.4,1.4c1.6,0,2.9-1.2,2.9-2.8c0-1.6-1.3-2.9-2.8-2.9
		c-1,0-1.9,0.6-2.4,1.3h-2l0,0v-3.9c-6-0.1-10.9-5-10.8-11l-11.1-0.1C76,203.8,85.8,213.6,98,213.7"/>
	<path fill="#EE7364" d="M83.3,191.7v1.9c0.7,0.5,1.3,1.4,1.3,2.4c0,1.6-1.2,2.8-2.8,2.8c-1.6,0-2.8-1.3-2.8-2.8
		c0-1,0.6-1.9,1.3-2.4v-1.9h-4.1v-39.8l11.1-0.1v39.9H83.3z"/>
	<path fill="#FDC642" d="M87.3,152.1h-4.2l0,0v1.9c0.7,0.5,1.3,1.4,1.4,2.4c0,1.6-1.2,2.9-2.8,2.9c-1.6,0-2.9-1.3-2.9-2.8
		c0-1,0.6-1.9,1.3-2.4v-2l0,0h-3.9c-0.1-6-5-10.9-11-10.8l-0.1-11.1C77.2,130.2,87.2,140,87.3,152.1"/>
	<path fill="#285EA9" d="M65.1,130.3v4.2l0,0h1.9c0.5-0.7,1.4-1.3,2.4-1.4c1.6,0,2.9,1.2,2.9,2.8c0,1.6-1.3,2.9-2.8,2.9
		c-1,0-1.9-0.6-2.4-1.3h-2l0,0v3.9c-6,0.1-10.9,5-10.8,11l-11.1,0.1C43.1,140.4,52.9,130.4,65.1,130.3"/>
	<path fill="#EE7364" d="M47.3,151.9V150c-0.7-0.5-1.3-1.4-1.3-2.4c0-1.6,1.2-2.8,2.8-2.8c1.6,0,2.8,1.3,2.8,2.8
		c0,1-0.6,1.9-1.3,2.4v1.9h4.1v39.8l-11.1,0.1v-39.9H47.3z"/>
	<path fill="#FDC642" d="M54.3,191.1h-4.2l0,0v-1.9c0.7-0.5,1.3-1.4,1.4-2.4c0-1.6-1.2-2.9-2.8-2.9c-1.6,0-2.9,1.3-2.9,2.8
		c0,1,0.6,1.9,1.3,2.4v2l0,0h-3.9c-0.1,6-5,10.9-11,10.8l-0.1,11.1C44.2,212.9,54.2,203.2,54.3,191.1"/>
	<path fill="#EE7364" d="M33.4,206.7h1.9c0.5-0.7,1.4-1.3,2.4-1.3c1.6,0,2.8,1.2,2.8,2.8c0,1.6-1.3,2.8-2.8,2.8
		c-1,0-1.9-0.6-2.4-1.3h-1.9v4.1H-6.4l-0.1-11.1h39.9L33.4,206.7z"/>
	<g>
		<rect x="738.5" y="70.3" fill="#EE7364" width="5" height="14.2"/>
		<polyline fill="#285EA9" points="747.4,81.2 741.1,56.5 734.5,81.2 		"/>
	</g>
	<g>
		<rect x="762" y="70.3" fill="#EE7364" width="5" height="14.2"/>
		<polyline fill="#285EA9" points="770.9,81.2 764.5,56.5 758.1,81.2 		"/>
	</g>
	<g>
		<rect x="785.4" y="70.3" fill="#EE7364" width="5" height="14.2"/>
		<polyline fill="#285EA9" points="794.3,81.2 788,56.5 781.5,81.2 		"/>
	</g>
	<g>
		<rect x="537.8" y="71.3" fill="#EE7364" width="5" height="14.2"/>
		<polyline fill="#285EA9" points="546.7,82.2 540.3,57.5 533.8,82.2 		"/>
	</g>
	<g>
		<rect x="520.4" y="213.5" fill="#EE7364" width="5" height="14.2"/>
		<polyline fill="#285EA9" points="529.3,224.4 523,199.7 516.4,224.4 		"/>
	</g>
	<g>
		<rect x="482.1" y="182.1" fill="#EE7364" width="5" height="14.2"/>
		<polyline fill="#285EA9" points="491,193 484.6,168.3 478.2,193 		"/>
	</g>
	<g>
		<rect x="475.7" y="230.8" fill="#EE7364" width="5" height="14.2"/>
		<polyline fill="#285EA9" points="484.6,241.7 478.2,217 471.8,241.7 		"/>
	</g>
	<g>
		<rect x="197.7" y="180.4" fill="#EE7364" width="5" height="14.2"/>
		<polyline fill="#285EA9" points="206.6,191.3 200.2,166.6 193.7,191.3 		"/>
	</g>
	<g>
		<rect x="213.8" y="217" fill="#EE7364" width="5" height="14.2"/>
		<polyline fill="#285EA9" points="222.7,227.9 216.4,203.2 209.9,227.9 		"/>
	</g>
	<g>
		<rect x="1774.8" y="272.4" fill="#EE7364" width="5" height="14.2"/>
		<polyline fill="#285EA9" points="1783.7,283.3 1777.4,258.6 1770.9,283.3 		"/>
	</g>
	<g>
		<rect x="1908.4" y="242.9" fill="#EE7364" width="5" height="14.2"/>
		<polyline fill="#285EA9" points="1917.2,253.8 1910.9,229.1 1904.4,253.8 		"/>
	</g>
	<g>
		<rect x="1888.5" y="256.8" fill="#EE7364" width="5" height="14.2"/>
		<polyline fill="#285EA9" points="1897.4,267.7 1891.1,243 1884.5,267.7 		"/>
	</g>
	<g>
		<rect x="1905.9" y="269.5" fill="#EE7364" width="5" height="14.2"/>
		<polyline fill="#285EA9" points="1914.8,280.3 1908.5,255.6 1901.9,280.3 		"/>
	</g>
	<g>
		<rect x="1924.3" y="257.2" fill="#EE7364" width="5" height="14.2"/>
		<polyline fill="#285EA9" points="1933.2,268.1 1926.8,243.4 1920.3,268.1 		"/>
	</g>
	<g>
		<rect x="1895.8" y="228.9" fill="#EE7364" width="5" height="14.2"/>
		<polyline fill="#285EA9" points="1904.7,239.7 1898.4,215 1891.8,239.7 		"/>
	</g>
	<g>
		<rect x="2051.3" y="193.4" fill="#EE7364" width="5" height="14.2"/>
		<polyline fill="#285EA9" points="2060.2,204.2 2053.8,179.5 2047.3,204.2 		"/>
	</g>
	<g>
		<rect x="2074.8" y="193.4" fill="#EE7364" width="5" height="14.2"/>
		<polyline fill="#285EA9" points="2083.7,204.2 2077.3,179.5 2070.8,204.2 		"/>
	</g>
	<g>
		<rect x="2121.4" y="281.4" fill="#EE7364" width="5" height="14.2"/>
		<polyline fill="#285EA9" points="2130.3,292.3 2123.9,267.6 2117.5,292.3 		"/>
	</g>
	<g>
		<rect x="2314.2" y="179.3" fill="#EE7364" width="5" height="14.2"/>
		<polyline fill="#285EA9" points="2323.1,190.2 2316.8,165.5 2310.3,190.2 		"/>
	</g>
	<g>
		<rect x="2429.9" y="149.6" fill="#EE7364" width="5" height="14.2"/>
		<polyline fill="#285EA9" points="2438.8,160.5 2432.5,135.8 2425.9,160.5 		"/>
	</g>
	<g>
		<rect x="2407.1" y="149.6" fill="#EE7364" width="5" height="14.2"/>
		<polyline fill="#285EA9" points="2416,160.5 2409.7,135.8 2403.2,160.5 		"/>
	</g>
	<g>
		<rect x="2420" y="167.5" fill="#EE7364" width="5" height="14.2"/>
		<polyline fill="#285EA9" points="2428.9,178.4 2422.6,153.6 2416,178.4 		"/>
	</g>
	<g>
		<rect x="581.7" y="31.7" fill="#FDC642" width="28.7" height="20.8"/>
		<polygon fill="#EE7364" points="596.1,18.8 579.4,31.7 612.5,31.7 		"/>
		<rect x="586.2" y="35.1" fill="#285EA9" width="4.3" height="4.3"/>
		<rect x="601.1" y="42.8" fill="#EE7364" width="4.9" height="9.7"/>
	</g>
	<g>
		<rect x="431.9" y="292.9" fill="#FDC642" width="28.7" height="20.8"/>
		<polygon fill="#EE7364" points="446.4,280.1 429.7,292.9 462.8,292.9 		"/>
		<rect x="436.5" y="296.4" fill="#285EA9" width="4.3" height="4.3"/>
		<rect x="451.4" y="304" fill="#EE7364" width="4.9" height="9.7"/>
	</g>
	<g>
		<rect x="1983.5" y="106.3" fill="#FDC642" width="28.7" height="20.8"/>
		<polygon fill="#EE7364" points="1997.9,93.5 1981.2,106.3 2014.3,106.3 		"/>
		<rect x="1988" y="109.8" fill="#285EA9" width="4.3" height="4.3"/>
		<rect x="2002.9" y="117.4" fill="#EE7364" width="4.9" height="9.7"/>
	</g>
	<g>
		<rect x="2451.5" y="182.4" fill="#FDC642" width="28.7" height="20.8"/>
		<polygon fill="#EE7364" points="2466.1,169.6 2449.4,182.4 2482.5,182.4 		"/>
		<rect x="2456.2" y="185.9" fill="#285EA9" width="4.3" height="4.3"/>
		<rect x="2471.1" y="193.5" fill="#EE7364" width="4.9" height="9.7"/>
	</g>
	<g>
		<rect x="564.7" y="31.7" fill="#FDC642" width="17.6" height="20.8"/>
		<polygon fill="#EE7364" points="573.6,18.8 563.3,31.7 583.6,31.7 		"/>
		<g>
			<path fill="#285EA9" d="M573.5,29.7c1.3,0,2.3-1,2.3-2.3c0-1.3-1-2.3-2.3-2.3s-2.3,1-2.3,2.3C571.2,28.7,572.2,29.7,573.5,29.7"
				/>
		</g>
		<rect x="571" y="42.8" fill="#EE7364" width="4.9" height="9.7"/>
	</g>
	<g>
		<rect x="161.9" y="171.2" fill="#FDC642" width="17.6" height="20.8"/>
		<polygon fill="#EE7364" points="170.9,158.4 160.6,171.2 181,171.2 		"/>
		<g>
			<path fill="#285EA9" d="M170.8,169.3c1.3,0,2.3-1,2.3-2.3c0-1.3-1-2.3-2.3-2.3s-2.3,1-2.3,2.3
				C168.4,168.3,169.5,169.3,170.8,169.3"/>
		</g>
		<rect x="168.3" y="182.3" fill="#EE7364" width="4.9" height="9.7"/>
	</g>
	<g>
		<rect x="2128.2" y="224.7" fill="#FDC642" width="17.6" height="20.8"/>
		<polygon fill="#EE7364" points="2137,211.9 2126.8,224.7 2147.1,224.7 		"/>
		<g>
			<path fill="#285EA9" d="M2136.9,222.7c1.3,0,2.3-1,2.3-2.3c0-1.3-1-2.3-2.3-2.3s-2.3,1-2.3,2.3
				C2134.7,221.7,2135.7,222.7,2136.9,222.7"/>
		</g>
		<rect x="2134.5" y="235.8" fill="#EE7364" width="4.9" height="9.7"/>
	</g>
	<g>
		<rect x="2515.9" y="102.4" fill="#FDC642" width="17.6" height="20.8"/>
		<polygon fill="#EE7364" points="2524.8,89.5 2514.5,102.4 2534.8,102.4 		"/>
		<g>
			<path fill="#285EA9" d="M2524.7,100.4c1.3,0,2.3-1,2.3-2.3s-1-2.3-2.3-2.3c-1.3,0-2.3,1-2.3,2.3
				C2522.4,99.4,2523.4,100.4,2524.7,100.4"/>
		</g>
		<rect x="2522.2" y="113.4" fill="#EE7364" width="4.9" height="9.7"/>
	</g>
	<g>
		<rect x="2022.9" y="135.5" fill="#FDC642" width="21.3" height="25.3"/>
		<polygon fill="#EE7364" points="2033.7,119.8 2021.2,135.5 2045.9,135.5 		"/>
		<rect x="2026.2" y="138.8" fill="#285EA9" width="4.3" height="4.3"/>
		<rect x="2031.1" y="151.1" fill="#EE7364" width="4.9" height="9.7"/>
		<rect x="2031.7" y="138.8" fill="#285EA9" width="4.3" height="4.3"/>
		<rect x="2037.2" y="138.8" fill="#285EA9" width="4.3" height="4.3"/>
	</g>
	<g>
		<rect x="790.6" y="119" fill="#FDC642" width="21.3" height="25.3"/>
		<polygon fill="#EE7364" points="801.4,103.3 788.9,119 813.6,119 		"/>
		<rect x="793.8" y="122.3" fill="#285EA9" width="4.3" height="4.3"/>
		<rect x="798.8" y="134.6" fill="#EE7364" width="4.9" height="9.7"/>
		<rect x="799.4" y="122.3" fill="#285EA9" width="4.3" height="4.3"/>
		<rect x="804.9" y="122.3" fill="#285EA9" width="4.3" height="4.3"/>
	</g>
	<g>
		<rect x="449.9" y="174.1" fill="#FDC642" width="21.3" height="25.3"/>
		<polygon fill="#EE7364" points="460.7,158.5 448.2,174.1 472.9,174.1 		"/>
		<rect x="453.2" y="177.5" fill="#285EA9" width="4.3" height="4.3"/>
		<rect x="458.1" y="189.7" fill="#EE7364" width="4.9" height="9.7"/>
		<rect x="458.7" y="177.5" fill="#285EA9" width="4.3" height="4.3"/>
		<rect x="464.2" y="177.5" fill="#285EA9" width="4.3" height="4.3"/>
	</g>
	<g>
		<rect x="842.5" y="62" fill="#FDC642" width="34.6" height="25"/>
		<polygon fill="#EE7364" points="859.7,52.5 879.6,62 839.7,62 		"/>
		<rect x="865.6" y="66.9" fill="#285EA9" width="4.3" height="4.3"/>
		<rect x="857.2" y="77.4" fill="#EE7364" width="4.9" height="9.7"/>
		<rect x="848.7" y="52.6" fill="#EE7364" width="4.5" height="6.5"/>
	</g>
	<g>
		<rect x="2034" y="87.8" fill="#FDC642" width="34.6" height="25"/>
		<polygon fill="#EE7364" points="2051.3,78.2 2071.2,87.8 2031.3,87.8 		"/>
		<rect x="2057.2" y="92.6" fill="#285EA9" width="4.3" height="4.3"/>
		<rect x="2048.8" y="103.1" fill="#EE7364" width="4.9" height="9.7"/>
		<rect x="2040.3" y="78.3" fill="#EE7364" width="4.5" height="6.5"/>
	</g>
	<g>
		<rect x="2297.1" y="239.2" fill="#FDC642" width="34.6" height="25"/>
		<polygon fill="#EE7364" points="2314.2,229.7 2334.2,239.2 2294.3,239.2 		"/>
		<rect x="2320.2" y="244.1" fill="#285EA9" width="4.3" height="4.3"/>
		<rect x="2311.8" y="254.7" fill="#EE7364" width="4.9" height="9.7"/>
		<rect x="2303.3" y="229.8" fill="#EE7364" width="4.5" height="6.5"/>
	</g>
	<g>
		<rect x="103.7" y="223.9" fill="#FDC642" width="34.6" height="25"/>
		<polygon fill="#EE7364" points="121,214.3 141,223.9 101,223.9 		"/>
		<rect x="126.9" y="228.8" fill="#285EA9" width="4.3" height="4.3"/>
		<rect x="118.5" y="239.3" fill="#EE7364" width="4.9" height="9.7"/>
		<rect x="110" y="214.4" fill="#EE7364" width="4.5" height="6.5"/>
	</g>
	<g>
		<path fill="#285EA9" d="M572.9,111.7c-3,0-5.9-1.7-8.8-4.7c-2.6-2.8-5.1-4.2-7.6-4.2c-2.6,0-5.1,1.3-7.8,4.1l-1.1-1.1
			c5.8-6.1,12-6,17.7,0.2c2.6,2.8,5.1,4.2,7.6,4.2c2.6,0,5.1-1.3,7.8-4.1l1.1,1.1C578.9,110.3,575.8,111.7,572.9,111.7"/>
		<path fill="#285EA9" d="M606,112.1c-3,0-5.9-1.7-8.8-4.7c-2.6-2.8-5.1-4.2-7.6-4.2c-2.6,0-5.1,1.3-7.8,4.1l-1.1-1.1
			c5.8-6.1,12-6,17.7,0.2c2.6,2.8,5.1,4.2,7.6,4.2c2.6,0,5.1-1.3,7.8-4.1l1.1,1.1C612,110.7,608.9,112.2,606,112.1"/>
		<path fill="#285EA9" d="M574.4,103.8c-3,0-5.9-1.7-8.8-4.7c-2.6-2.8-5.1-4.2-7.6-4.2s-5.1,1.3-7.8,4.1l-1.1-1.1
			c5.8-6.1,12-6,17.7,0.2c2.6,2.8,5.1,4.2,7.6,4.2c2.6,0,5.1-1.3,7.8-4.1l1.1,1.1C580.4,102.4,577.4,103.8,574.4,103.8"/>
		<path fill="#285EA9" d="M607.6,104.2c-3,0-5.9-1.7-8.8-4.7c-2.6-2.8-5.1-4.2-7.6-4.2c-2.6,0-5.1,1.3-7.8,4.1l-1.1-1.1
			c5.8-6.1,12-6,17.7,0.2c2.6,2.8,5.1,4.2,7.6,4.2c2.6,0,5.1-1.3,7.8-4.1l1.1,1.1C613.5,102.7,610.5,104.3,607.6,104.2"/>
	</g>
	<path fill="#285EA9" d="M687.2,38.6c3.9,0,6.9-3.1,6.9-6.9c0-3.9-3.1-6.9-6.9-6.9c-3.9,0-6.9,3.1-6.9,6.9
		C680.3,35.4,683.4,38.6,687.2,38.6"/>
	<path fill="#285EA9" d="M770.9,123.4c3.9,0,6.9-3.1,6.9-6.9c0-3.9-3.1-6.9-6.9-6.9c-3.9,0-6.9,3.1-6.9,6.9
		C764,120.3,767.1,123.4,770.9,123.4"/>
	<path fill="#285EA9" d="M542.8,187.5c3.9,0,6.9-3.1,6.9-6.9c0-3.9-3.1-6.9-6.9-6.9c-3.9,0-6.9,3.1-6.9,6.9
		C535.9,184.5,539.1,187.5,542.8,187.5"/>
	<path fill="#285EA9" d="M575.8,218.7c3.9,0,6.9-3.1,6.9-6.9c0-3.9-3.1-6.9-6.9-6.9c-3.9,0-6.9,3.1-6.9,6.9
		C568.9,215.5,572,218.7,575.8,218.7"/>
	<path fill="#285EA9" d="M341,175.4c3.9,0,6.9-3.1,6.9-6.9s-3.1-6.9-6.9-6.9s-6.9,3.1-6.9,6.9S337.2,175.4,341,175.4"/>
	<path fill="#285EA9" d="M334.1,354.8c3.9,0,6.9-3.1,6.9-6.9c0-3.9-3.1-6.9-6.9-6.9s-6.9,3.1-6.9,6.9
		C327.2,351.7,330.2,354.8,334.1,354.8"/>
	<path fill="#285EA9" d="M200.2,124.5c3.9,0,6.9-3.1,6.9-6.9c0-3.9-3.1-6.9-6.9-6.9s-6.9,3.1-6.9,6.9
		C193.3,121.4,196.3,124.5,200.2,124.5"/>
	<path fill="#285EA9" d="M184.1,240c3.9,0,6.9-3.1,6.9-6.9c0-3.9-3.1-6.9-6.9-6.9c-3.9,0-6.9,3.1-6.9,6.9
		C177.1,237,180.2,240,184.1,240"/>
	<path fill="#285EA9" d="M72.2,255.8c3.9,0,6.9-3.1,6.9-6.9S76,242,72.2,242c-3.9,0-6.9,3.1-6.9,6.9S68.4,255.8,72.2,255.8"/>
	<path fill="#285EA9" d="M160.6,274.6c3.9,0,6.9-3.1,6.9-6.9c0-3.9-3.1-6.9-6.9-6.9s-6.9,3.1-6.9,6.9
		C153.7,271.6,156.8,274.6,160.6,274.6"/>
	<path fill="#285EA9" d="M1597.8,309.1c3.9,0,6.9-3.1,6.9-6.9s-3.1-6.9-6.9-6.9c-3.9,0-6.9,3.1-6.9,6.9S1594,309.1,1597.8,309.1"/>
	<path fill="#285EA9" d="M1727.5,152.8c3.9,0,6.9-3.1,6.9-6.9s-3.1-6.9-6.9-6.9s-6.9,3.1-6.9,6.9S1723.6,152.8,1727.5,152.8"/>
	<path fill="#285EA9" d="M1705.7,171.2c3.9,0,6.9-3.1,6.9-6.9c0-3.9-3.1-6.9-6.9-6.9c-3.9,0-6.9,3.1-6.9,6.9
		C1698.7,168.1,1701.8,171.2,1705.7,171.2"/>
	<path fill="#285EA9" d="M1804.3,168.9c3.9,0,6.9-3.1,6.9-6.9c0-3.9-3.1-6.9-6.9-6.9s-6.9,3.1-6.9,6.9
		C1797.4,165.8,1800.4,168.9,1804.3,168.9"/>
	<path fill="#285EA9" d="M1734.4,358.6c3.9,0,6.9-3.1,6.9-6.9s-3.1-6.9-6.9-6.9s-6.9,3.1-6.9,6.9
		C1727.5,355.5,1730.6,358.6,1734.4,358.6"/>
	<path fill="#285EA9" d="M1865.8,286.6c3.9,0,6.9-3.1,6.9-6.9c0-3.9-3.1-6.9-6.9-6.9s-6.9,3.1-6.9,6.9
		C1858.8,283.4,1861.9,286.6,1865.8,286.6"/>
	<path fill="#285EA9" d="M2104.7,205c3.9,0,6.9-3.1,6.9-6.9c0-3.9-3.1-6.9-6.9-6.9s-6.9,3.1-6.9,6.9
		C2097.8,202,2100.9,205,2104.7,205"/>
	<path fill="#285EA9" d="M2068.6,134.5c3.9,0,6.9-3.1,6.9-6.9s-3.1-6.9-6.9-6.9s-6.9,3.1-6.9,6.9S2064.7,134.5,2068.6,134.5"/>
	<path fill="#285EA9" d="M2294.3,289.2c3.9,0,6.9-3.1,6.9-6.9s-3.1-6.9-6.9-6.9s-6.9,3.1-6.9,6.9S2290.5,289.2,2294.3,289.2"/>
	<path fill="#285EA9" d="M2489.4,85.2c3.9,0,6.9-3.1,6.9-6.9c0-3.9-3.1-6.9-6.9-6.9s-6.9,3.1-6.9,6.9
		C2482.5,82.1,2485.5,85.2,2489.4,85.2"/>
	<path fill="#285EA9" d="M2362.7,107.2c3.9,0,6.9-3.1,6.9-6.9c0-3.9-3.1-6.9-6.9-6.9s-6.9,3.1-6.9,6.9
		C2355.8,104.1,2358.9,107.2,2362.7,107.2"/>
	<g>
		<g>
			<rect x="1475.2" y="227.8" fill="#EE7364" width="3.8" height="15.2"/>
		</g>
		<g>
			<path fill="#EE7364" d="M1476.5,236.2v-3c2.1,0,2.8-0.5,3.2-0.9c0.8-0.9,1.1-2.7,1-5.6l3-0.2c0.2,3.9-0.3,6.2-1.8,7.8
				C1480.6,235.6,1478.9,236.2,1476.5,236.2z"/>
		</g>
		<g>
			<circle fill="#FDC642" cx="1477.1" cy="218" r="12.7"/>
		</g>
	</g>
	<g>
		<g>
			<rect x="1175.7" y="193.1" fill="#EE7364" width="3.8" height="15.2"/>
		</g>
		<g>
			<path fill="#EE7364" d="M1178.3,201.5v-3c-2.1,0-2.8-0.5-3.2-0.9c-0.8-0.9-1.1-2.7-1-5.6l-3-0.2c-0.2,3.9,0.3,6.2,1.8,7.8
				C1174.1,200.9,1175.8,201.5,1178.3,201.5z"/>
		</g>
		<g>
			<circle fill="#FDC642" cx="1177.6" cy="183.3" r="12.7"/>
		</g>
	</g>
	<g>
		<g>
			<rect x="834.8" y="130.3" fill="#EE7364" width="3.8" height="15.2"/>
		</g>
		<g>
			<path fill="#EE7364" d="M837.2,138.6v-3c-2.1,0-2.8-0.5-3.2-0.9c-0.8-0.9-1.1-2.7-1-5.6l-3-0.2c-0.2,3.9,0.3,6.2,1.8,7.8
				C833.2,138.1,834.9,138.6,837.2,138.6z"/>
		</g>
		<g>
			<circle fill="#FDC642" cx="836.6" cy="120.5" r="12.7"/>
		</g>
	</g>
	<g>
		<g>
			<rect x="564.4" y="172.1" fill="#EE7364" width="3.8" height="15.2"/>
		</g>
		<g>
			<path fill="#EE7364" d="M565.5,180.5v-3c2.1,0,2.8-0.5,3.2-0.9c0.8-0.9,1.1-2.7,1-5.6l3-0.2c0.2,3.9-0.3,6.2-1.8,7.8
				C569.7,179.9,568,180.5,565.5,180.5z"/>
		</g>
		<g>
			<circle fill="#FDC642" cx="566.2" cy="162.3" r="12.7"/>
		</g>
	</g>
	<g>
		<g>
			<rect x="247" y="202" fill="#EE7364" width="3.8" height="15.2"/>
		</g>
		<g>
			<path fill="#EE7364" d="M249.5,210.4v-3c-2.1,0-2.8-0.5-3.2-0.9c-0.8-0.9-1.1-2.7-1-5.6l-3-0.2c-0.2,3.9,0.3,6.2,1.8,7.8
				C245.3,209.8,247,210.4,249.5,210.4z"/>
		</g>
		<g>
			<circle fill="#FDC642" cx="248.9" cy="192.2" r="12.7"/>
		</g>
	</g>
	<g>
		<g>
			<rect x="1662.5" y="221.5" fill="#EE7364" width="3.8" height="15.2"/>
		</g>
		<g>
			<path fill="#EE7364" d="M1664.9,229.9v-3c-2.1,0-2.8-0.5-3.2-0.9c-0.8-0.9-1.1-2.7-1-5.6l-3-0.2c-0.2,3.9,0.3,6.2,1.8,7.8
				C1660.8,229.4,1662.5,229.9,1664.9,229.9z"/>
		</g>
		<g>
			<circle fill="#FDC642" cx="1664.3" cy="211.8" r="12.7"/>
		</g>
	</g>
	<g>
		<g>
			<rect x="1912.9" y="142.6" fill="#EE7364" width="3.8" height="15.2"/>
		</g>
		<g>
			<path fill="#EE7364" d="M1914.2,150.9v-3c2.1,0,2.8-0.5,3.2-0.9c0.8-0.9,1.1-2.7,1-5.6l3-0.2c0.2,3.9-0.3,6.2-1.8,7.8
				C1918.3,150.3,1916.6,150.9,1914.2,150.9z"/>
		</g>
		<g>
			<circle fill="#FDC642" cx="1914.8" cy="132.7" r="12.7"/>
		</g>
	</g>
	<g>
		<g>
			<rect x="2350.6" y="249.1" fill="#EE7364" width="3.8" height="15.2"/>
		</g>
		<g>
			<path fill="#EE7364" d="M2353.2,257.4v-3c-2.1,0-2.8-0.5-3.2-0.9c-0.8-0.9-1.1-2.7-1-5.6l-3-0.2c-0.2,3.9,0.3,6.2,1.8,7.8
				C2349,256.8,2350.7,257.4,2353.2,257.4z"/>
		</g>
		<g>
			<circle fill="#FDC642" cx="2352.5" cy="239.2" r="12.7"/>
		</g>
	</g>
	<g>
		<g>
			<rect x="2384.6" y="106.8" fill="#EE7364" width="3.8" height="15.2"/>
		</g>
		<g>
			<path fill="#EE7364" d="M2387.1,115.2v-3c-2.1,0-2.8-0.5-3.2-0.9c-0.8-0.9-1.1-2.7-1-5.6l-3-0.2c-0.2,3.9,0.3,6.2,1.8,7.8
				C2382.9,114.6,2384.6,115.2,2387.1,115.2z"/>
		</g>
		<g>
			<circle fill="#FDC642" cx="2386.5" cy="97" r="12.7"/>
		</g>
	</g>
	<g>
		<g>
			<path fill="#EE7364" d="M1425.8,204.1c-1-0.8-1.5-1.7-1.5-2.6s0.5-1.8,1.5-2.6c0.6-0.5,0.9-1,0.9-1.5s-0.3-0.9-0.9-1.5l1-1.1
				c1,0.8,1.5,1.7,1.5,2.6s-0.5,1.8-1.5,2.6c-0.6,0.5-0.9,1-0.9,1.5s0.3,0.9,0.9,1.5L1425.8,204.1z"/>
		</g>
		<g>
			<path fill="#EE7364" d="M1425.8,196c-1-0.8-1.5-1.7-1.5-2.6c0-0.9,0.5-1.8,1.5-2.6c0.6-0.5,0.9-1,0.9-1.5c0-0.4-0.3-0.9-0.9-1.5
				l1-1.1c1,0.8,1.5,1.7,1.5,2.6s-0.5,1.8-1.5,2.6c-0.6,0.5-0.9,1-0.9,1.5c0,0.5,0.3,0.9,0.9,1.5L1425.8,196z"/>
		</g>
	</g>
</g>
<g id="Layer_2">
</g>
</svg>
