<?xml version="1.0" encoding="utf-8"?>
<!-- Generator: Adobe Illustrator 18.1.1, SVG Export Plug-In . SVG Version: 6.00 Build 0)  -->
<svg version="1.1" xmlns="http://www.w3.org/2000/svg" xmlns:xlink="http://www.w3.org/1999/xlink" x="0px" y="0px"
	 viewBox="0 0 2560 600" enable-background="new 0 0 2560 600" xml:space="preserve">
<g id="Layer_1">
	<g>
		<path fill="#005EC7" d="M2267.5,377.4c-0.7-2.9,0.1-6.2,2.4-9.8c2.1-3.2,2.8-6.1,2.2-8.6c-0.6-2.5-2.6-4.7-6-6.6l0.8-1.4
			c7.5,4.2,8.9,10.2,4.3,17.4c-2.1,3.2-2.8,6.1-2.2,8.6c0.6,2.5,2.6,4.7,6,6.6l-0.8,1.4C2270.4,382.8,2268.2,380.3,2267.5,377.4"/>
		<path fill="#005EC7" d="M2275.5,409.9c-0.7-2.9,0.1-6.2,2.4-9.8c2.1-3.2,2.8-6.1,2.2-8.6c-0.6-2.5-2.6-4.7-6-6.6l0.8-1.4
			c7.5,4.2,8.9,10.2,4.3,17.4c-2.1,3.2-2.8,6.1-2.2,8.6c0.6,2.5,2.6,4.7,6,6.6l-0.8,1.4C2278.5,415.4,2276.3,412.8,2275.5,409.9"/>
		<path fill="#005EC7" d="M2275.6,376.8c-0.7-2.9,0.1-6.2,2.4-9.8c2.1-3.2,2.8-6.1,2.2-8.6c-0.6-2.5-2.6-4.7-6-6.6l0.8-1.4
			c7.5,4.2,8.9,10.2,4.3,17.4c-2.1,3.2-2.8,6.1-2.2,8.6c0.6,2.5,2.6,4.7,6,6.6l-0.8,1.4C2278.6,382.3,2276.3,379.8,2275.6,376.8"/>
		<path fill="#005EC7" d="M2283.7,409.4c-0.7-2.9,0.1-6.2,2.4-9.8c2.1-3.2,2.8-6.1,2.2-8.6c-0.6-2.5-2.6-4.7-6-6.6l0.8-1.4
			c7.5,4.2,8.9,10.2,4.3,17.4c-2.1,3.2-2.8,6.1-2.2,8.6c0.6,2.5,2.6,4.7,6,6.6l-0.8,1.4C2286.7,414.8,2284.4,412.3,2283.7,409.4"/>
	</g>
	<g>
		<path fill="#005EC7" d="M348.7,447.2c-1-2.8-0.5-6.2,1.4-10c1.7-3.4,2.2-6.4,1.3-8.8c-0.9-2.4-3.1-4.4-6.6-5.9l0.6-1.4
			c7.8,3.4,9.9,9.2,6,16.8c-1.7,3.4-2.2,6.4-1.3,8.8c0.9,2.4,3.1,4.4,6.6,5.9l-0.6,1.4C352.2,452.3,349.7,450,348.7,447.2"/>
		<path fill="#005EC7" d="M360,478.7c-1-2.8-0.5-6.2,1.4-10c1.7-3.4,2.2-6.4,1.3-8.8c-0.9-2.4-3.1-4.4-6.6-5.9l0.6-1.4
			c7.8,3.4,9.9,9.2,6,16.8c-1.7,3.4-2.2,6.4-1.3,8.8c0.9,2.4,3.1,4.4,6.6,5.9l-0.6,1.4C363.5,483.9,361,481.6,360,478.7"/>
		<path fill="#005EC7" d="M356.7,445.8c-1-2.8-0.5-6.2,1.4-10c1.7-3.4,2.2-6.4,1.3-8.8s-3.1-4.4-6.6-5.9l0.6-1.4
			c7.8,3.4,9.9,9.2,6,16.8c-1.7,3.4-2.2,6.4-1.3,8.8c0.9,2.4,3.1,4.4,6.6,5.9l-0.6,1.4C360.3,451,357.8,448.7,356.7,445.8"/>
		<path fill="#005EC7" d="M368,477.4c-1-2.8-0.5-6.2,1.4-10c1.7-3.4,2.2-6.4,1.3-8.8c-0.9-2.4-3.1-4.4-6.6-5.9l0.6-1.4
			c7.8,3.4,9.9,9.2,6,16.8c-1.7,3.4-2.2,6.4-1.3,8.8c0.9,2.4,3.1,4.4,6.6,5.9l-0.6,1.4C371.6,482.5,369.1,480.2,368,477.4"/>
	</g>
	<g>
		<path fill="#005EC7" d="M326.7,384.4c-1-2.8-0.5-6.2,1.4-10c1.7-3.4,2.2-6.4,1.3-8.8c-0.9-2.4-3.1-4.4-6.6-5.9l0.6-1.4
			c7.8,3.4,9.9,9.2,6,16.8c-1.7,3.4-2.2,6.4-1.3,8.8c0.9,2.4,3.1,4.4,6.6,5.9l-0.6,1.4C330.2,389.5,327.7,387.2,326.7,384.4"/>
		<path fill="#005EC7" d="M338,415.9c-1-2.8-0.5-6.2,1.4-10c1.7-3.4,2.2-6.4,1.3-8.8c-0.9-2.4-3.1-4.4-6.6-5.9l0.6-1.4
			c7.8,3.4,9.9,9.2,6,16.8c-1.7,3.4-2.2,6.4-1.3,8.8c0.9,2.4,3.1,4.4,6.6,5.9l-0.6,1.4C341.5,421,339,418.7,338,415.9"/>
		<path fill="#005EC7" d="M334.8,383c-1-2.8-0.5-6.2,1.4-10c1.7-3.4,2.2-6.4,1.3-8.8c-0.9-2.4-3.1-4.4-6.6-5.9l0.6-1.4
			c7.8,3.4,9.9,9.2,6,16.8c-1.7,3.4-2.2,6.4-1.3,8.8c0.9,2.4,3.1,4.4,6.6,5.9l-0.6,1.4C338.3,388.1,335.8,385.8,334.8,383"/>
		<path fill="#005EC7" d="M346.1,414.6c-1-2.8-0.5-6.2,1.4-10c1.7-3.4,2.2-6.4,1.3-8.8c-0.9-2.4-3.1-4.4-6.6-5.9l0.6-1.4
			c7.8,3.4,9.9,9.2,6,16.8c-1.7,3.4-2.2,6.4-1.3,8.8c0.9,2.4,3.1,4.4,6.6,5.9l-0.6,1.4C349.6,419.7,347.1,417.4,346.1,414.6"/>
	</g>
	<g>
		<path fill="#005EC7" d="M1924.4,305.5c-2.9-0.8-5.4-3-7.5-6.8c-1.8-3.4-4-5.4-6.5-6c-2.5-0.6-5.4,0.1-8.6,2.1l-0.8-1.3
			c7.2-4.6,13.2-3,17.3,4.5c1.8,3.4,4,5.4,6.5,6c2.5,0.6,5.4-0.1,8.6-2.1l0.8,1.3C1930.6,305.4,1927.3,306.2,1924.4,305.5"/>
		<path fill="#005EC7" d="M1956.8,313.9c-2.9-0.8-5.4-3-7.5-6.8c-1.8-3.4-4-5.4-6.5-6c-2.5-0.6-5.4,0.1-8.6,2.1l-0.8-1.3
			c7.2-4.6,13.2-3,17.3,4.5c1.8,3.4,4,5.4,6.5,6c2.5,0.6,5.4-0.1,8.6-2.1l0.8,1.3C1963,313.9,1959.7,314.7,1956.8,313.9"/>
		<path fill="#005EC7" d="M1927.8,298.1c-2.9-0.8-5.4-3-7.5-6.8c-1.8-3.4-4-5.4-6.5-6c-2.5-0.6-5.4,0.1-8.6,2.1l-0.8-1.3
			c7.2-4.6,13.2-3,17.3,4.5c1.8,3.4,4,5.4,6.5,6c2.5,0.6,5.4-0.1,8.6-2.1l0.8,1.3C1934,298,1930.7,298.8,1927.8,298.1"/>
		<path fill="#005EC7" d="M1960.2,306.5c-2.9-0.8-5.4-3-7.5-6.8c-1.8-3.4-4-5.4-6.5-6c-2.5-0.6-5.4,0.1-8.6,2.1l-0.8-1.3
			c7.2-4.6,13.2-3,17.3,4.5c1.8,3.4,4,5.4,6.5,6c2.5,0.6,5.4-0.1,8.6-2.1l0.8,1.3C1966.4,306.5,1963.1,307.3,1960.2,306.5"/>
	</g>
	<g>
		<path fill="#005EC7" d="M632.5,213.2c-3,0-6-1.7-8.9-4.8c-2.6-2.8-5.2-4.3-7.7-4.3c-2.6,0-5.2,1.3-7.9,4.1l-1.1-1.1
			c5.9-6.2,12.1-6.1,17.9,0.2c2.6,2.8,5.2,4.3,7.7,4.3c2.6,0,5.2-1.3,7.9-4.1l1.1,1.1C638.5,211.7,635.5,213.2,632.5,213.2"/>
		<path fill="#005EC7" d="M666,213.6c-3,0-6-1.7-8.9-4.8c-2.6-2.8-5.2-4.3-7.7-4.3c-2.6,0-5.2,1.3-7.9,4.1l-1.1-1.1
			c5.9-6.2,12.1-6.1,17.9,0.2c2.6,2.8,5.2,4.3,7.7,4.3c2.6,0,5.2-1.3,7.9-4.1l1.1,1.1C672,212.1,669,213.6,666,213.6"/>
		<path fill="#005EC7" d="M634,205.2c-3,0-6-1.7-8.9-4.8c-2.6-2.8-5.2-4.3-7.7-4.3s-5.2,1.3-7.9,4.1l-1.1-1.1
			c5.9-6.2,12.1-6.1,17.9,0.2c2.6,2.8,5.2,4.3,7.7,4.3c2.6,0,5.2-1.3,7.9-4.1l1.1,1.1C640.1,203.7,637,205.2,634,205.2"/>
		<path fill="#005EC7" d="M667.5,205.6c-3,0-6-1.7-8.9-4.8c-2.6-2.8-5.2-4.3-7.7-4.3c-2.6,0-5.2,1.3-7.9,4.1l-1.1-1.1
			c5.9-6.2,12.1-6.1,17.9,0.2c2.6,2.8,5.2,4.3,7.7,4.3c2.6,0,5.2-1.3,7.9-4.1l1.1,1.1C673.6,204.1,670.5,205.6,667.5,205.6"/>
	</g>
	<g>
		<path fill="#005EC7" d="M499.2,210.7c-3,0-6-1.7-8.9-4.8c-2.6-2.8-5.2-4.3-7.7-4.3c-2.6,0-5.2,1.3-7.9,4.1l-1.1-1.1
			c5.9-6.2,12.1-6.1,17.9,0.2c2.6,2.8,5.2,4.3,7.7,4.3c2.6,0,5.2-1.3,7.9-4.1l1.1,1.1C505.2,209.2,502.2,210.8,499.2,210.7"/>
		<path fill="#005EC7" d="M532.7,211.2c-3,0-6-1.7-8.9-4.8c-2.6-2.8-5.2-4.3-7.7-4.3c-2.6,0-5.2,1.3-7.9,4.1l-1.1-1.1
			c5.9-6.2,12.1-6.1,17.9,0.2c2.6,2.8,5.2,4.3,7.7,4.3c2.6,0,5.2-1.3,7.9-4.1l1.1,1.1C538.7,209.7,535.7,211.2,532.7,211.2"/>
		<path fill="#005EC7" d="M500.7,202.7c-3,0-6-1.7-8.9-4.8c-2.6-2.8-5.2-4.3-7.7-4.3s-5.2,1.3-7.9,4.1l-1.1-1.1
			c5.9-6.2,12.1-6.1,17.9,0.2c2.6,2.8,5.2,4.3,7.7,4.3c2.6,0,5.2-1.3,7.9-4.1l1.1,1.1C506.8,201.2,503.7,202.8,500.7,202.7"/>
		<path fill="#005EC7" d="M534.2,203.2c-3,0-6-1.7-8.9-4.8c-2.6-2.8-5.2-4.3-7.7-4.3c-2.6,0-5.2,1.3-7.9,4.1l-1.1-1.1
			c5.9-6.2,12.1-6.1,17.9,0.2c2.6,2.8,5.2,4.3,7.7,4.3c2.6,0,5.2-1.3,7.9-4.1l1.1,1.1C540.2,201.7,537.2,203.2,534.2,203.2"/>
	</g>
	<path fill="#005EC7" d="M2576.6,239.6h1.9c0.5-0.7,1.4-1.3,2.4-1.3c1.6,0,2.8,1.2,2.8,2.8c0,1.6-1.3,2.8-2.8,2.8
		c-1,0-1.9-0.6-2.4-1.3h-1.9l0,4.1h-40.3l-0.1-11.2h40.4L2576.6,239.6z"/>
	<path fill="#FFC740" d="M2537.9,242.7h1.9c0.5,0.7,1.4,1.3,2.4,1.3c1.6,0,2.8-1.2,2.8-2.8c0-1.6-1.3-2.8-2.8-2.8
		c-1,0-1.9,0.6-2.4,1.3h-1.9l0-4.1h-40.3l-0.1,11.2h40.4L2537.9,242.7z"/>
	<path fill="#005EC7" d="M2497.6,239.6h1.9c0.5-0.7,1.4-1.3,2.4-1.3c1.6,0,2.8,1.2,2.8,2.8c0,1.6-1.3,2.8-2.8,2.8
		c-1,0-1.9-0.6-2.4-1.3h-1.9l0,4.1h-40.3l-0.1-11.2h40.4L2497.6,239.6z"/>
	<path fill="#FFC740" d="M2457.2,242.7h1.9c0.5,0.7,1.4,1.3,2.4,1.3c1.6,0,2.8-1.2,2.8-2.8s-1.3-2.8-2.8-2.8c-1,0-1.9,0.6-2.4,1.3
		h-1.9l0-4.1h-40.3l-0.1,11.2h40.4L2457.2,242.7z"/>
	<path fill="#FF7361" d="M2417,239.6h1.9c0.5-0.7,1.4-1.3,2.4-1.3c1.6,0,2.8,1.2,2.8,2.8c0,1.6-1.3,2.8-2.8,2.8
		c-1,0-1.9-0.6-2.4-1.3h-1.9l0,4.1h-40.3l-0.1-11.2h40.4L2417,239.6z"/>
	<g>
		<path fill="#FFC740" d="M2377.1,235.6l0,4.2l0,0l1.9,0c0.5-0.7,1.4-1.3,2.4-1.4c1.6,0,2.9,1.2,2.9,2.8c0,1.6-1.3,2.9-2.8,2.9
			c-1,0-1.9-0.6-2.4-1.3l-2,0l0,0l0,3.9c-6.1,0.1-11,5.1-10.9,11.1L2355,258C2354.9,245.8,2364.8,235.7,2377.1,235.6"/>
		<path fill="#005EC7" d="M2355,258.1l4.2,0l0,0l0-1.9c-0.7-0.5-1.3-1.4-1.4-2.4c0-1.6,1.2-2.9,2.8-2.9c1.6,0,2.9,1.3,2.9,2.8
			c0,1-0.6,1.9-1.3,2.4l0,2l0,0l3.9,0c0.1,6.1,5.1,11,11.1,10.9l0.1,11.2C2365.2,280.2,2355.1,270.4,2355,258.1"/>
		<path fill="#FFC740" d="M2377,268.9l0,4.2l0,0l-1.9,0c-0.5-0.7-1.4-1.3-2.4-1.4c-1.6,0-2.9,1.2-2.9,2.8c0,1.6,1.3,2.9,2.8,2.9
			c1,0,1.9-0.6,2.4-1.3l2,0l0,0l0,3.9c6.1,0.1,11,5.1,10.9,11.1l11.2,0.1C2399.1,279.1,2389.2,269,2377,268.9"/>
		<path fill="#FF7361" d="M2399,291.4l-4.2,0l0,0l0-1.9c0.7-0.5,1.3-1.4,1.4-2.4c0-1.6-1.2-2.9-2.8-2.9c-1.6,0-2.9,1.3-2.9,2.8
			c0,1,0.6,1.9,1.3,2.4l0,2l0,0l-3.9,0c-0.1,6.1-5.1,11-11.1,10.9l-0.1,11.2C2388.8,313.6,2398.9,303.7,2399,291.4"/>
		<path fill="#FFC740" d="M2377,309.6h1.9c0.5,0.7,1.4,1.3,2.4,1.3c1.6,0,2.8-1.2,2.8-2.8s-1.3-2.8-2.8-2.8c-1,0-1.9,0.6-2.4,1.3
			h-1.9l0-4.1h-40.3l-0.1,11.2h40.4L2377,309.6z"/>
		<path fill="#005EC7" d="M2336.7,302.4v4h1.9c0.5-0.8,1.4-1.2,2.4-1.2c1.6,0,2.8,1.3,2.8,2.8c0,1.6-1.3,2.7-2.8,2.7
			c-1,0-1.9-0.6-2.4-1.3h-1.9v4.1c-20.5,0-37.6,16.7-37.6,37.3c0,0,0.1,0.1,0.1,0.1h-11.3c0,0-0.1-0.1-0.1-0.1
			C2287.9,324.2,2309.4,302.4,2336.7,302.4"/>
	</g>
	<g>
		<path fill="#FF7361" d="M2299.1,350.7h-4v-1.9c0.8-0.5,1.2-1.4,1.2-2.4c0-1.6-1.3-2.8-2.8-2.8c-1.6,0-2.7,1.3-2.7,2.8
			c0,1,0.6,1.9,1.3,2.4v1.9h-4.1c0,20.5-16.7,37.6-37.3,37.6c0,0-0.1-0.1-0.1-0.1v11.3c0,0,0.1,0.1,0.1,0.1
			C2277.3,399.5,2299.1,378,2299.1,350.7"/>
		<path fill="#005EC7" d="M2250.5,395.5h1.9c0.5,0.7,1.4,1.3,2.4,1.3c1.6,0,2.8-1.2,2.8-2.8s-1.3-2.8-2.8-2.8c-1,0-1.9,0.6-2.4,1.3
			h-1.9l0-4.1h-40.3l-0.1,11.2h40.4L2250.5,395.5z"/>
		<path fill="#FFC740" d="M2210.6,395.5h1.9c0.5,0.7,1.4,1.3,2.4,1.3c1.6,0,2.8-1.2,2.8-2.8s-1.3-2.8-2.8-2.8c-1,0-1.9,0.6-2.4,1.3
			h-1.9l0-4.1h-40.3l-0.1,11.2h40.4L2210.6,395.5z"/>
		<path fill="#005EC7" d="M2170.1,399.6l0-4.2l0,0l1.9,0c0.5,0.7,1.4,1.3,2.4,1.3c1.6,0,2.9-1.3,2.9-2.8c0-1.6-1.3-2.9-2.9-2.9
			c-1,0-1.9,0.6-2.4,1.3l-2,0l0,0l0-3.9c-6.1,0-10.8-5.7-10.8-11.8h-11.2C2148.1,388.9,2157.8,399.6,2170.1,399.6"/>
		<path fill="#FFC740" d="M2159.3,376.9l-4.2,0l0,0l0,1.9c0.7,0.5,1.3,1.4,1.4,2.4c0,1.6-1.2,2.9-2.8,2.9c-1.6,0-2.9-1.3-2.9-2.8
			c0-1,0.6-1.9,1.3-2.4l0-2l0,0l-3.9,0c-0.1-6.1-5.1-11-11.1-10.9l-0.1-11.2C2149.1,354.8,2159.2,364.7,2159.3,376.9"/>
		<path fill="#FF7361" d="M2137.4,366.3l0-4.2l0,0l1.9,0c0.5,0.7,1.4,1.3,2.4,1.3c1.6,0,2.9-1.3,2.9-2.8c0-1.6-1.3-2.9-2.9-2.9
			c-1,0-1.9,0.6-2.4,1.3l-2,0l0,0l0-3.9c-6.1,0-10.8-5.7-10.8-11.8h-11.2C2115.4,355.6,2125.1,366.3,2137.4,366.3"/>
		<path fill="#005EC7" d="M2126.6,343.7l-4.2,0l0,0l0,1.9c0.7,0.5,1.3,1.4,1.4,2.4c0,1.6-1.2,2.9-2.8,2.9c-1.6,0-2.9-1.3-2.9-2.8
			c0-1,0.6-1.9,1.3-2.4l0-2l0,0l-3.9,0c-0.1-6.1-5.1-11-11.1-10.9l-0.1-11.2C2116.4,321.5,2126.5,331.4,2126.6,343.7"/>
		<path fill="#FF7361" d="M2104.3,328.3h1.9c0.5,0.7,1.4,1.3,2.4,1.3c1.6,0,2.8-1.2,2.8-2.8s-1.3-2.8-2.8-2.8c-1,0-1.9,0.6-2.4,1.3
			h-1.9l0-4.1H2064l-0.1,11.2h40.4L2104.3,328.3z"/>
		<path fill="#005EC7" d="M2064.4,332.4v-4h1.9c0.5,0.8,1.4,1.2,2.4,1.2c1.6,0,2.8-1.3,2.8-2.8c0-1.6-1.3-2.7-2.8-2.7
			c-1,0-1.9,0.6-2.4,1.3h-1.9v-4.1c-20.5,0-37.6-16.7-37.6-37.3c0,0,0.1-0.1,0.1-0.1h-11.3c0,0-0.1,0.1-0.1,0.1
			C2015.5,310.7,2037,332.4,2064.4,332.4"/>
	</g>
	<path fill="#FFC740" d="M2026.7,284.1h-4v1.9c0.8,0.5,1.2,1.4,1.2,2.4c0,1.6-1.3,2.8-2.8,2.8c-1.6,0-2.7-1.3-2.7-2.8
		c0-1,0.6-1.9,1.3-2.4v-1.9h-4.1c0-20.5-16.7-37.6-37.3-37.6c0,0-0.1,0.1-0.1,0.1v-11.3c0,0,0.1-0.1,0.1-0.1
		C2004.9,235.2,2026.7,256.8,2026.7,284.1"/>
	<path fill="#005EC7" d="M1978.7,235.2v4h1.9c0.5-0.8,1.4-1.2,2.4-1.2c1.6,0,2.8,1.3,2.8,2.8c0,1.6-1.3,2.7-2.8,2.7
		c-1,0-1.9-0.6-2.4-1.3h-1.9v4.1c-20.5,0-37.6,16.7-37.6,37.3c0,0,0.1,0.1,0.1,0.1h-11.3c0,0-0.1-0.1-0.1-0.1
		C1929.8,257,1951.3,235.2,1978.7,235.2"/>
	<path fill="#FF7361" d="M1933.9,283v-1.9c-0.7-0.5-1.3-1.4-1.3-2.4c0-1.6,1.2-2.8,2.8-2.8c1.6,0,2.8,1.3,2.8,2.8
		c0,1-0.6,1.9-1.3,2.4v1.9l4.1,0v40.3l-11.2,0.1V283L1933.9,283z"/>
	<path fill="#005EC7" d="M1929.6,323.2l4.2,0l0,0l0-1.9c-0.7-0.5-1.3-1.4-1.4-2.4c0-1.6,1.2-2.9,2.8-2.9c1.6,0,2.9,1.3,2.9,2.8
		c0,1-0.6,1.9-1.3,2.4l0,2l0,0l3.9,0c0.1,6.1,5.1,11,11.1,10.9l0.1,11.2C1939.8,345.4,1929.7,335.5,1929.6,323.2"/>
	<path fill="#FFC740" d="M1951.8,333.9l0,4.2l0,0l-1.9,0c-0.5-0.7-1.4-1.3-2.4-1.3c-1.6,0-2.9,1.3-2.9,2.8c0,1.6,1.3,2.9,2.9,2.9
		c1,0,1.9-0.6,2.4-1.3l2,0l0,0l0,3.9c6.1,0,11,5,11,11l11.2,0C1974.1,343.9,1964.1,333.9,1951.8,333.9"/>
	<path fill="#FF7361" d="M1962.6,356.1l4.2,0l0,0l0-1.9c-0.7-0.5-1.3-1.4-1.4-2.4c0-1.6,1.2-2.9,2.8-2.9c1.6,0,2.9,1.3,2.9,2.8
		c0,1-0.6,1.9-1.3,2.4l0,2l0,0l3.9,0c0.1,6.1,5.1,11,11.1,10.9l0.1,11.2C1972.8,378.3,1962.7,368.4,1962.6,356.1"/>
	<path fill="#005EC7" d="M1985,367.2l0,4.2l0,0l-1.9,0c-0.5-0.7-1.4-1.3-2.4-1.3c-1.6,0-2.9,1.3-2.9,2.8c0,1.6,1.3,2.9,2.9,2.9
		c1,0,1.9-0.6,2.4-1.3l2,0l0,0l0,3.9c6.1,0,11,5,11,11l11.2,0C2007.3,377.2,1997.3,367.2,1985,367.2"/>
	<path fill="#FF7361" d="M2007.3,388.4l-4.2,0l0,0l0-1.9c0.7-0.5,1.3-1.4,1.4-2.4c0-1.6-1.2-2.9-2.8-2.9c-1.6,0-2.9,1.3-2.9,2.8
		c0,1,0.6,1.9,1.3,2.4l0,2l0,0l-3.9,0c-0.1,6.1-5.1,11-11.1,10.9l-0.1,11.2C1997.1,410.6,2007.2,400.7,2007.3,388.4"/>
	<path fill="#FFC740" d="M1985.5,403.5h1.9c0.5-0.7,1.4-1.3,2.4-1.3c1.6,0,2.8,1.2,2.8,2.8s-1.3,2.8-2.8,2.8c-1,0-1.9-0.6-2.4-1.3
		h-1.9l0,4.1h-40.3l-0.1-11.2h40.4L1985.5,403.5z"/>
	<path fill="#FF7361" d="M1946.1,403.5h1.9c0.5-0.7,1.4-1.3,2.4-1.3c1.6,0,2.8,1.2,2.8,2.8s-1.3,2.8-2.8,2.8c-1,0-1.9-0.6-2.4-1.3
		h-1.9l0,4.1h-40.3l-0.1-11.2h40.4L1946.1,403.5z"/>
	<path fill="#005EC7" d="M1905.7,403.5h1.9c0.5-0.7,1.4-1.3,2.4-1.3c1.6,0,2.8,1.2,2.8,2.8s-1.3,2.8-2.8,2.8c-1,0-1.9-0.6-2.4-1.3
		h-1.9l0,4.1h-40.3l-0.1-11.2h40.4L1905.7,403.5z"/>
	<path fill="#FF7361" d="M1866.4,410.8l0-4.2l0,0l1.9,0c0.5,0.7,1.4,1.3,2.4,1.4c1.6,0,2.9-1.2,2.9-2.8c0-1.6-1.3-2.9-2.8-2.9
		c-1,0-1.9,0.6-2.4,1.3l-2,0l0,0l0-3.9c-6.1-0.1-11-5.1-10.9-11.1l-11.2-0.1C1844.3,400.6,1854.1,410.7,1866.4,410.8"/>
	<path fill="#005EC7" d="M1851.5,388.8v1.9c0.7,0.5,1.3,1.4,1.3,2.4c0,1.6-1.2,2.8-2.8,2.8s-2.8-1.3-2.8-2.8c0-1,0.6-1.9,1.3-2.4
		v-1.9l-4.1,0v-40.3l11.2-0.1v40.4L1851.5,388.8z"/>
	<path fill="#FFC740" d="M1848.4,350v1.9c-0.7,0.5-1.3,1.4-1.3,2.4c0,1.6,1.2,2.8,2.8,2.8s2.8-1.3,2.8-2.8c0-1-0.6-1.9-1.3-2.4V350
		l4.1,0v-40.3l-11.2-0.1V350L1848.4,350z"/>
	<path fill="#FF7361" d="M1855.6,309.8l-4.2,0l0,0l0,1.9c0.7,0.5,1.3,1.4,1.4,2.4c0,1.6-1.2,2.9-2.8,2.9c-1.6,0-2.9-1.3-2.9-2.8
		c0-1,0.6-1.9,1.3-2.4l0-2l0,0l-3.9,0c-0.1-6.1-5.1-11-11.1-10.9l-0.1-11.2C1845.4,287.7,1855.5,297.6,1855.6,309.8"/>
	<path fill="#005EC7" d="M1833.6,287.8l0,4.2l0,0l1.9,0c0.5-0.7,1.4-1.3,2.4-1.4c1.6,0,2.9,1.2,2.9,2.8c0,1.6-1.3,2.9-2.8,2.9
		c-1,0-1.9-0.6-2.4-1.3l-2,0l0,0l0,3.9c-6.1,0.1-11,5.1-10.9,11.1l-11.2,0.1C1811.4,298,1821.3,287.9,1833.6,287.8"/>
	<path fill="#FFC740" d="M1815.5,308.7v-1.9c-0.7-0.5-1.3-1.4-1.3-2.4c0-1.6,1.2-2.8,2.8-2.8c1.6,0,2.8,1.3,2.8,2.8
		c0,1-0.6,1.9-1.3,2.4v1.9l4.1,0v40.3l-11.2,0.1v-40.4L1815.5,308.7z"/>
	<path fill="#FF7361" d="M1822.7,348.9l-4.2,0l0,0l0-1.9c0.7-0.5,1.3-1.4,1.4-2.4c0-1.6-1.2-2.9-2.8-2.9c-1.6,0-2.9,1.3-2.9,2.8
		c0,1,0.6,1.9,1.3,2.4l0,2l0,0l-3.9,0c-0.1,6.1-5.1,11-11.1,10.9l-0.1,11.2C1812.5,371,1822.6,361.1,1822.7,348.9"/>
	<path fill="#FFC740" d="M1800.6,370.9l0-4.2l0,0l1.9,0c0.5,0.7,1.4,1.3,2.4,1.4c1.6,0,2.9-1.2,2.9-2.8c0-1.6-1.3-2.9-2.8-2.9
		c-1,0-1.9,0.6-2.4,1.3l-2,0l0,0l0-3.9c-6.1-0.1-11-5.1-10.9-11.1l-11.2-0.1C1778.5,360.7,1788.4,370.8,1800.6,370.9"/>
	<path fill="#005EC7" d="M1782.7,349.2v1.9c-0.7,0.5-1.3,1.4-1.3,2.4c0,1.6,1.2,2.8,2.8,2.8s2.8-1.3,2.8-2.8c0-1-0.6-1.9-1.3-2.4
		v-1.9l4.1,0v-40.3l-11.2-0.1v40.4L1782.7,349.2z"/>
	<path fill="#FFC740" d="M1789.8,309.1l-4.2,0l0,0l0,1.9c0.7,0.5,1.3,1.4,1.4,2.4c0,1.6-1.2,2.9-2.8,2.9c-1.6,0-2.9-1.3-2.9-2.8
		c0-1,0.6-1.9,1.3-2.4l0-2l0,0l-3.9,0c-0.1-6.1-5.1-11-11.1-10.9l-0.1-11.2C1779.6,286.9,1789.7,296.8,1789.8,309.1"/>
	<path fill="#FF7361" d="M1767.8,287l0,4.2l0,0l1.9,0c0.5-0.7,1.4-1.3,2.4-1.4c1.6,0,2.9,1.2,2.9,2.8c0,1.6-1.3,2.9-2.8,2.9
		c-1,0-1.9-0.6-2.4-1.3l-2,0l0,0l0,3.9c-6.1,0.1-11,5.1-10.9,11.1l-11.2,0.1C1745.6,297.2,1755.5,287.1,1767.8,287"/>
	<path fill="#FFC740" d="M1752.8,307.8v-1.9c0.7-0.5,1.3-1.4,1.3-2.4c0-1.6-1.2-2.8-2.8-2.8c-1.6,0-2.8,1.3-2.8,2.8
		c0,1,0.6,1.9,1.3,2.4v1.9l-4.1,0v40.3l11.2,0.1v-40.4L1752.8,307.8z"/>
	<path fill="#FF7361" d="M1756.8,348.4l-4.2,0l0,0l0-1.9c0.7-0.5,1.3-1.4,1.3-2.4c0-1.6-1.3-2.9-2.8-2.9c-1.6,0-2.9,1.3-2.9,2.9
		c0,1,0.6,1.9,1.3,2.4l0,2l0,0l-3.9,0c0,6.1-5.7,10.8-11.8,10.8v11.2C1746,370.3,1756.7,360.6,1756.8,348.4"/>
	<path fill="#005EC7" d="M1733.7,370.3l0-4.2l0,0l1.9,0c0.5,0.7,1.4,1.3,2.4,1.4c1.6,0,2.9-1.2,2.9-2.8c0-1.6-1.3-2.9-2.8-2.9
		c-1,0-1.9,0.6-2.4,1.3l-2,0l0,0l0-3.9c-6.1-0.1-11-5.1-10.9-11.1l-11.2-0.1C1711.6,360.1,1721.5,370.2,1733.7,370.3"/>
	<path fill="#FF7361" d="M1715.8,348.6v1.9c-0.7,0.5-1.3,1.4-1.3,2.4c0,1.6,1.2,2.8,2.8,2.8c1.6,0,2.8-1.3,2.8-2.8
		c0-1-0.6-1.9-1.3-2.4v-1.9l4.1,0v-40.3l-11.2-0.1v40.4L1715.8,348.6z"/>
	<path fill="#FFC740" d="M1722.9,308.5l-4.2,0l0,0l0,1.9c0.7,0.5,1.3,1.4,1.4,2.4c0,1.6-1.2,2.9-2.8,2.9c-1.6,0-2.9-1.3-2.9-2.8
		c0-1,0.6-1.9,1.3-2.4l0-2l0,0l-3.9,0c-0.1-6.1-5.1-11-11.1-10.9l-0.1-11.2C1712.7,286.3,1722.8,296.2,1722.9,308.5"/>
	<g>
		<path fill="#005EC7" d="M1572.4,332.2c-2.8-1.1-5-3.6-6.7-7.6c-1.4-3.5-3.4-5.8-5.8-6.7c-2.4-0.9-5.3-0.5-8.8,1.1l-0.7-1.4
			c7.7-3.7,13.5-1.5,16.7,6.5c1.4,3.5,3.4,5.8,5.8,6.7c2.4,0.9,5.3,0.5,8.8-1.1l0.7,1.4C1578.6,332.9,1575.3,333.3,1572.4,332.2"/>
		<path fill="#005EC7" d="M1603.7,344.3c-2.8-1.1-5-3.6-6.7-7.6c-1.4-3.5-3.4-5.8-5.8-6.7c-2.4-0.9-5.3-0.5-8.8,1.1l-0.7-1.4
			c7.7-3.7,13.5-1.5,16.7,6.5c1.4,3.5,3.4,5.8,5.8,6.7c2.4,0.9,5.3,0.5,8.8-1.1l0.7,1.4C1609.9,344.9,1606.5,345.3,1603.7,344.3"/>
		<path fill="#005EC7" d="M1576.7,325.2c-2.8-1.1-5-3.6-6.7-7.6c-1.4-3.5-3.4-5.8-5.8-6.7c-2.4-0.9-5.3-0.5-8.8,1.1l-0.7-1.4
			c7.7-3.7,13.5-1.5,16.7,6.5c1.4,3.5,3.4,5.8,5.8,6.7c2.4,0.9,5.3,0.5,8.8-1.1l0.7,1.4C1582.9,325.9,1579.5,326.3,1576.7,325.2"/>
		<path fill="#005EC7" d="M1607.9,337.3c-2.8-1.1-5-3.6-6.7-7.6c-1.4-3.5-3.4-5.8-5.8-6.7c-2.4-0.9-5.3-0.5-8.8,1.1l-0.7-1.4
			c7.7-3.7,13.5-1.5,16.7,6.5c1.4,3.5,3.4,5.8,5.8,6.7c2.4,0.9,5.3,0.5,8.8-1.1l0.7,1.4C1614.1,338,1610.7,338.4,1607.9,337.3"/>
		<path fill="#005EC7" d="M1377.8,259.7c0.8-2.9,3.2-5.3,7-7.3c3.4-1.7,5.5-3.9,6.2-6.3c0.7-2.4,0.1-5.4-1.8-8.7l1.4-0.8
			c4.3,7.4,2.6,13.3-5,17.2c-3.4,1.7-5.5,3.9-6.2,6.3c-0.7,2.5-0.1,5.4,1.8,8.7l-1.4,0.8C1377.6,265.9,1377,262.6,1377.8,259.7"/>
		<path fill="#005EC7" d="M1368.4,291.9c0.8-2.9,3.2-5.3,7-7.3c3.4-1.7,5.5-3.9,6.2-6.3c0.7-2.5,0.1-5.4-1.8-8.7l1.4-0.8
			c4.3,7.4,2.6,13.3-5,17.2c-3.4,1.7-5.5,3.9-6.2,6.3c-0.7,2.5-0.1,5.4,1.8,8.7l-1.4,0.8C1368.2,298.1,1367.6,294.7,1368.4,291.9"/>
		<path fill="#005EC7" d="M1385.1,263.3c0.8-2.9,3.2-5.3,7-7.3c3.4-1.7,5.5-3.9,6.2-6.3c0.7-2.4,0.1-5.4-1.8-8.7l1.4-0.8
			c4.3,7.4,2.6,13.3-5,17.2c-3.4,1.7-5.5,3.9-6.2,6.3c-0.7,2.5-0.1,5.4,1.8,8.7l-1.4,0.8C1384.9,269.5,1384.3,266.2,1385.1,263.3"/>
		<path fill="#005EC7" d="M1375.7,295.5c0.8-2.9,3.2-5.3,7-7.3c3.4-1.7,5.5-3.9,6.2-6.3c0.7-2.4,0.1-5.4-1.8-8.7l1.4-0.8
			c4.3,7.4,2.6,13.3-5,17.2c-3.4,1.7-5.5,3.9-6.2,6.3c-0.7,2.5-0.1,5.4,1.8,8.7l-1.4,0.8C1375.5,301.7,1374.9,298.4,1375.7,295.5"/>
		<path fill="#005EC7" d="M940.4,323.1c-2.6,1.4-6,1.5-10.1,0.2c-3.6-1.2-6.6-1.2-8.9,0.1c-2.2,1.2-3.9,3.7-4.8,7.4l-1.5-0.4
			c2.2-8.3,7.6-11.2,15.7-8.6c3.6,1.2,6.6,1.2,8.9-0.1c2.2-1.2,3.9-3.7,4.8-7.4l1.5,0.4C944.9,318.8,943,321.6,940.4,323.1"/>
		<path fill="#005EC7" d="M969.7,307c-2.6,1.4-6,1.5-10.1,0.2c-3.6-1.2-6.6-1.2-8.9,0.1c-2.2,1.2-3.9,3.7-4.8,7.4l-1.5-0.4
			c2.2-8.3,7.6-11.2,15.7-8.6c3.6,1.2,6.6,1.2,8.9-0.1c2.2-1.2,3.9-3.7,4.8-7.4l1.5,0.4C974.3,302.7,972.4,305.6,969.7,307"/>
		<path fill="#005EC7" d="M937.8,315.4c-2.6,1.4-6,1.5-10.1,0.2c-3.6-1.2-6.6-1.2-8.9,0.1c-2.2,1.2-3.9,3.7-4.8,7.4l-1.5-0.4
			c2.2-8.3,7.6-11.2,15.7-8.6c3.6,1.2,6.6,1.2,8.9-0.1c2.2-1.2,3.9-3.7,4.8-7.4l1.5,0.4C942.3,311.1,940.4,313.9,937.8,315.4"/>
		<path fill="#005EC7" d="M967.2,299.3c-2.6,1.4-6,1.5-10.1,0.2c-3.6-1.2-6.6-1.2-8.9,0.1c-2.2,1.2-3.9,3.7-4.8,7.4l-1.5-0.4
			c2.2-8.3,7.6-11.2,15.7-8.6c3.6,1.2,6.6,1.2,8.9-0.1c2.2-1.2,3.9-3.7,4.8-7.4l1.5,0.4C971.7,295,969.8,297.8,967.2,299.3"/>
		<path fill="#005EC7" d="M1701.4,290.4h1.9c0.5-0.7,1.4-1.3,2.4-1.3c1.6,0,2.8,1.2,2.8,2.8s-1.3,2.8-2.8,2.8c-1,0-1.9-0.6-2.4-1.3
			h-1.9l0,4.1H1661l-0.1-11.2h40.4L1701.4,290.4z"/>
		<path fill="#FFC740" d="M1661.4,290.4h1.9c0.5-0.7,1.4-1.3,2.4-1.3c1.6,0,2.8,1.2,2.8,2.8s-1.3,2.8-2.8,2.8c-1,0-1.9-0.6-2.4-1.3
			h-1.9l0,4.1H1621l-0.1-11.2h40.4L1661.4,290.4z"/>
		<path fill="#005EC7" d="M1620.9,286.4l0,4.2l0,0l1.9,0c0.5-0.7,1.4-1.3,2.4-1.3c1.6,0,2.9,1.3,2.9,2.8c0,1.6-1.3,2.9-2.9,2.9
			c-1,0-1.9-0.6-2.4-1.3l-2,0l0,0l0,3.9c-6.1,0-10.8,5.7-10.8,11.8h-11.2C1598.9,297.1,1608.6,286.4,1620.9,286.4"/>
		<path fill="#FFC740" d="M1610.1,309l-4.2,0l0,0l0-1.9c0.7-0.5,1.3-1.4,1.4-2.4c0-1.6-1.2-2.9-2.8-2.9c-1.6,0-2.9,1.3-2.9,2.8
			c0,1,0.6,1.9,1.3,2.4l0,2l0,0l-3.9,0c-0.1,6.1-5.1,11-11.1,10.9l-0.1,11.2C1599.9,331.2,1610,321.3,1610.1,309"/>
		<path fill="#FF7361" d="M1588.2,319.7l0,4.2l0,0l1.9,0c0.5-0.7,1.4-1.3,2.4-1.3c1.6,0,2.9,1.3,2.9,2.8c0,1.6-1.3,2.9-2.9,2.9
			c-1,0-1.9-0.6-2.4-1.3l-2,0l0,0l0,3.9c-6.1,0-10.8,5.7-10.8,11.8h-11.2C1566.2,330.4,1575.9,319.7,1588.2,319.7"/>
		<path fill="#005EC7" d="M1577.4,342.3l-4.2,0l0,0l0-1.9c0.7-0.5,1.3-1.4,1.4-2.4c0-1.6-1.2-2.9-2.8-2.9c-1.6,0-2.9,1.3-2.9,2.8
			c0,1,0.6,1.9,1.3,2.4l0,2l0,0l-3.9,0c-0.1,6.1-5.1,11-11.1,10.9l-0.1,11.2C1567.2,364.5,1577.3,354.6,1577.4,342.3"/>
		<path fill="#FF7361" d="M1555.3,357.2h1.9c0.5-0.7,1.4-1.3,2.4-1.3c1.6,0,2.8,1.2,2.8,2.8s-1.3,2.8-2.8,2.8c-1,0-1.9-0.6-2.4-1.3
			h-1.9l0,4.1H1515l-0.1-11.2h40.4L1555.3,357.2z"/>
		<path fill="#FFC740" d="M1515.9,357.2h1.9c0.5-0.7,1.4-1.3,2.4-1.3c1.6,0,2.8,1.2,2.8,2.8s-1.3,2.8-2.8,2.8c-1,0-1.9-0.6-2.4-1.3
			h-1.9l0,4.1h-40.3l-0.1-11.2h40.4L1515.9,357.2z"/>
		<path fill="#005EC7" d="M1475.4,357.2h1.9c0.5-0.7,1.4-1.3,2.4-1.3c1.6,0,2.8,1.2,2.8,2.8s-1.3,2.8-2.8,2.8c-1,0-1.9-0.6-2.4-1.3
			h-1.9l0,4.1H1435l-0.1-11.2h40.4L1475.4,357.2z"/>
		<path fill="#FFC740" d="M1435.1,364.4v-4h1.9c0.5,0.8,1.4,1.2,2.4,1.2c1.6,0,2.8-1.3,2.8-2.8c0-1.6-1.3-2.8-2.8-2.8
			c-1,0-1.9,0.6-2.4,1.3h-1.9v-4.1c-20.5,0-37.6-16.7-37.6-37.3c0,0,0.1-0.1,0.1-0.1h-11.3c0,0-0.1,0.1-0.1,0.1
			C1386.2,342.6,1407.8,364.4,1435.1,364.4"/>
		<path fill="#FF7361" d="M1397.5,316.6h-4v1.9c0.8,0.5,1.2,1.4,1.2,2.4c0,1.6-1.3,2.8-2.8,2.8c-1.6,0-2.8-1.3-2.8-2.8
			c0-1,0.6-1.9,1.3-2.4v-1.9h-4.1c0-20.5-16.7-37.6-37.3-37.6c0,0-0.1,0.1-0.1,0.1v-11.3c0,0,0.1-0.1,0.1-0.1
			C1375.8,267.7,1397.5,289.2,1397.5,316.6"/>
		<path fill="#005EC7" d="M1349.5,267.7v4h1.9c0.5-0.8,1.4-1.2,2.4-1.2c1.6,0,2.8,1.3,2.8,2.8c0,1.6-1.3,2.8-2.8,2.8
			c-1,0-1.9-0.6-2.4-1.3h-1.9v4.1c-20.5,0-37.6,16.7-37.6,37.3c0,0,0.1,0.1,0.1,0.1h-11.3c0,0-0.1-0.1-0.1-0.1
			C1300.6,289.4,1322.2,267.7,1349.5,267.7"/>
		<path fill="#FFC740" d="M1311.7,316.3l-4.2,0l0,0l0-1.9c0.7-0.5,1.3-1.4,1.4-2.4c0-1.6-1.2-2.9-2.8-2.9c-1.6,0-2.9,1.3-2.9,2.8
			c0,1,0.6,1.9,1.3,2.4l0,2l0,0l-3.9,0c-0.1,6.1-5.1,11-11.1,10.9l-0.1,11.2C1301.5,338.5,1311.6,328.6,1311.7,316.3"/>
		<path fill="#005EC7" d="M1289.9,338.4l0-4.2l0,0l1.9,0c0.5,0.7,1.4,1.3,2.4,1.3c1.6,0,2.9-1.3,2.9-2.8c0-1.6-1.3-2.9-2.9-2.9
			c-1,0-1.9,0.6-2.4,1.3l-2,0l0,0l0-3.9c-6.1,0-10.8-5.7-10.8-11.8h-11.2C1267.9,327.7,1277.6,338.4,1289.9,338.4"/>
		<path fill="#FFC740" d="M1275.1,316.3v1.9c0.7,0.5,1.3,1.4,1.3,2.4c0,1.6-1.2,2.8-2.8,2.8c-1.6,0-2.8-1.3-2.8-2.8
			c0-1,0.6-1.9,1.3-2.4v-1.9l-4.1,0V276l11.2-0.1v40.4L1275.1,316.3z"/>
		<path fill="#005EC7" d="M1278.9,276.1l-4.2,0l0,0l0,1.9c0.7,0.5,1.3,1.4,1.3,2.4c0,1.6-1.3,2.9-2.8,2.9c-1.6,0-2.9-1.3-2.9-2.9
			c0-1,0.6-1.9,1.3-2.4l0-2l0,0l-3.9,0c0-6.1-5.7-10.8-11.8-10.8v-11.2C1268.2,254.2,1278.9,263.9,1278.9,276.1"/>
		<path fill="#FFC740" d="M1256.2,257.9h1.9c0.5-0.7,1.4-1.3,2.4-1.3c1.6,0,2.8,1.2,2.8,2.8s-1.3,2.8-2.8,2.8c-1,0-1.9-0.6-2.4-1.3
			h-1.9l0,4.1h-40.3l-0.1-11.2h40.4L1256.2,257.9z"/>
		<path fill="#FF7361" d="M1216.6,257.9h1.9c0.5-0.7,1.4-1.3,2.4-1.3c1.6,0,2.8,1.2,2.8,2.8s-1.3,2.8-2.8,2.8c-1,0-1.9-0.6-2.4-1.3
			h-1.9l0,4.1h-40.3l-0.1-11.2h40.4L1216.6,257.9z"/>
		<path fill="#005EC7" d="M1176.6,253.8v4h1.9c0.5-0.8,1.4-1.2,2.4-1.2c1.6,0,2.8,1.3,2.8,2.8c0,1.6-1.3,2.8-2.8,2.8
			c-1,0-1.9-0.6-2.4-1.3h-1.9v4.1c-20.5,0-37.6,16.7-37.6,37.3c0,0,0.1,0.1,0.1,0.1h-11.3c0,0-0.1-0.1-0.1-0.1
			C1127.7,275.5,1149.2,253.8,1176.6,253.8"/>
		<path fill="#FFC740" d="M1131.7,301.5v-1.9c-0.7-0.5-1.3-1.4-1.3-2.4c0-1.6,1.2-2.8,2.8-2.8c1.6,0,2.8,1.3,2.8,2.8
			c0,1-0.6,1.9-1.3,2.4v1.9l4.1,0v40.3l-11.2,0.1v-40.4L1131.7,301.5z"/>
		<path fill="#FF7361" d="M1131.6,341.1v-1.9c-0.7-0.5-1.3-1.4-1.3-2.4c0-1.6,1.2-2.8,2.8-2.8s2.8,1.3,2.8,2.8c0,1-0.6,1.9-1.3,2.4
			v1.9l4.1,0v40.3l-11.2,0.1v-40.4L1131.6,341.1z"/>
		<path fill="#FFC740" d="M1138.9,381.3l-4.2,0l0,0l0-1.9c0.7-0.5,1.3-1.4,1.4-2.4c0-1.6-1.2-2.9-2.8-2.9c-1.6,0-2.9,1.3-2.9,2.8
			c0,1,0.6,1.9,1.3,2.4l0,2l0,0l-3.9,0c-0.1,6.1-5.1,11-11.1,10.9l-0.1,11.2C1128.7,403.5,1138.7,393.6,1138.9,381.3"/>
		<path fill="#FF7361" d="M1116.8,403.4l0-4.2l0,0l1.9,0c0.5,0.7,1.4,1.3,2.4,1.4c1.6,0,2.9-1.2,2.9-2.8c0-1.6-1.3-2.9-2.8-2.9
			c-1,0-1.9,0.6-2.4,1.3l-2,0l0,0l0-3.9c-6.1-0.1-11-5.1-10.9-11.1l-11.2-0.1C1094.6,393.2,1104.5,403.3,1116.8,403.4"/>
		<path fill="#005EC7" d="M1098.8,382.4v1.9c-0.7,0.5-1.3,1.4-1.3,2.4c0,1.6,1.2,2.8,2.8,2.8s2.8-1.3,2.8-2.8c0-1-0.6-1.9-1.3-2.4
			v-1.9l4.1,0V342l-11.2-0.1v40.4L1098.8,382.4z"/>
		<path fill="#FFC740" d="M1105.9,342.3l-4.2,0l0,0l0,1.9c0.7,0.5,1.3,1.4,1.4,2.4c0,1.6-1.2,2.9-2.8,2.9c-1.6,0-2.9-1.3-2.9-2.8
			c0-1,0.6-1.9,1.3-2.4l0-2l0,0l-3.9,0c-0.1-6.1-5.1-11-11.1-10.9l-0.1-11.2C1095.7,320.1,1105.8,330,1105.9,342.3"/>
		<path fill="#FF7361" d="M1083.9,320.2l0,4.2l0,0l1.9,0c0.5-0.7,1.4-1.3,2.4-1.4c1.6,0,2.9,1.2,2.9,2.8c0,1.6-1.3,2.9-2.8,2.9
			c-1,0-1.9-0.6-2.4-1.3l-2,0l0,0l0,3.9c-6.1,0.1-11,5.1-10.9,11.1l-11.2,0.1C1061.7,330.4,1071.6,320.3,1083.9,320.2"/>
	</g>
	<g>
		<path fill="#005EC7" d="M1065.9,341.9V340c-0.7-0.5-1.3-1.4-1.3-2.4c0-1.6,1.2-2.8,2.8-2.8s2.8,1.3,2.8,2.8c0,1-0.6,1.9-1.3,2.4
			v1.9l4.1,0v40.3l-11.2,0.1v-40.4L1065.9,341.9z"/>
		<path fill="#FFC740" d="M1073,382.1l-4.2,0l0,0l0-1.9c0.7-0.5,1.3-1.4,1.4-2.4c0-1.6-1.2-2.9-2.8-2.9c-1.6,0-2.9,1.3-2.9,2.8
			c0,1,0.6,1.9,1.3,2.4l0,2l0,0l-3.9,0c-0.1,6.1-5.1,11-11.1,10.9l-0.1,11.2C1062.8,404.2,1072.9,394.4,1073,382.1"/>
	</g>
	<g>
		<path fill="#FF7361" d="M1051,404.2l0-4.2l0,0l1.9,0c0.5,0.7,1.4,1.3,2.4,1.4c1.6,0,2.9-1.2,2.9-2.8c0-1.6-1.3-2.9-2.8-2.9
			c-1,0-1.9,0.6-2.4,1.3l-2,0l0,0l0-3.9c-6.1-0.1-11-5.1-10.9-11.1l-11.2-0.1C1028.8,394,1038.7,404,1051,404.2"/>
		<path fill="#FFC740" d="M1036,383.3v1.9c0.7,0.5,1.3,1.4,1.3,2.4c0,1.6-1.2,2.8-2.8,2.8s-2.8-1.3-2.8-2.8c0-1,0.6-1.9,1.3-2.4
			v-1.9l-4.1,0v-40.3l11.2-0.1v40.4L1036,383.3z"/>
		<path fill="#005EC7" d="M1040,342.8l-4.2,0l0,0l0,1.9c0.7,0.5,1.3,1.4,1.3,2.4c0,1.6-1.3,2.9-2.8,2.9c-1.6,0-2.9-1.3-2.9-2.9
			c0-1,0.6-1.9,1.3-2.4l0-2l0,0l-3.9,0c0-6.1-5.7-10.8-11.8-10.8v-11.2C1029.2,320.8,1040,330.5,1040,342.8"/>
		<path fill="#FFC740" d="M1017.5,325.2h1.9c0.5-0.7,1.4-1.3,2.4-1.3c1.6,0,2.8,1.2,2.8,2.8s-1.3,2.8-2.8,2.8c-1,0-1.9-0.6-2.4-1.3
			h-1.9l0,4.1h-40.3l-0.1-11.2h40.4L1017.5,325.2z"/>
		<path fill="#FF7361" d="M977.9,332.8v-4h1.9c0.5,0.8,1.4,1.2,2.4,1.2c1.6,0,2.8-1.3,2.8-2.8c0-1.6-1.3-2.8-2.8-2.8
			c-1,0-1.9,0.6-2.4,1.3h-1.9v-4.1c-20.5,0-37.6-16.7-37.6-37.3c0,0,0.1-0.1,0.1-0.1H929c0,0-0.1,0.1-0.1,0.1
			C929,311,950.5,332.8,977.9,332.8"/>
		<path fill="#005EC7" d="M940.1,284.7l-4.2,0l0,0l0,1.9c0.7,0.5,1.3,1.4,1.3,2.4c0,1.6-1.3,2.9-2.8,2.9c-1.6,0-2.9-1.3-2.9-2.9
			c0-1,0.6-1.9,1.3-2.4l0-2l0,0l-3.9,0c0-6.1-5-11-11-11l0-11.2C930.1,262.4,940.1,272.4,940.1,284.7"/>
		<path fill="#FF7361" d="M917.9,273.9l0-4.2l0,0l1.9,0c0.5,0.7,1.4,1.3,2.4,1.4c1.6,0,2.9-1.2,2.9-2.8c0-1.6-1.3-2.9-2.8-2.9
			c-1,0-1.9,0.6-2.4,1.3l-2,0l0,0l0-3.9c-6.1-0.1-11-5.1-10.9-11.1l-11.2-0.1C895.7,263.7,905.6,273.8,917.9,273.9"/>
		<path fill="#FFC740" d="M907.2,251.7l-4.2,0l0,0l0,1.9c0.7,0.5,1.3,1.4,1.3,2.4c0,1.6-1.3,2.9-2.8,2.9c-1.6,0-2.9-1.3-2.9-2.9
			c0-1,0.6-1.9,1.3-2.4l0-2l0,0l-3.9,0c0-6.1-5-11-11-11l0-11.2C897.2,229.4,907.2,239.4,907.2,251.7"/>
		<path fill="#005EC7" d="M1070.6,269.7c3.9,0,7-3.1,7-7s-3.1-7-7-7s-7,3.1-7,7S1066.8,269.7,1070.6,269.7"/>
		<path fill="#005EC7" d="M1256,286.6c3.9,0,7-3.1,7-7s-3.1-7-7-7c-3.9,0-7,3.1-7,7S1252.1,286.6,1256,286.6"/>
		<path fill="#005EC7" d="M1116.6,320.7c3.9,0,7-3.1,7-7s-3.1-7-7-7s-7,3.1-7,7S1112.8,320.7,1116.6,320.7"/>
		<path fill="#005EC7" d="M872.6,394.7c3.9,0,7-3.1,7-7s-3.1-7-7-7c-3.9,0-7,3.1-7,7S868.8,394.7,872.6,394.7"/>
		<path fill="#005EC7" d="M1329,259.7c3.9,0,7-3.1,7-7s-3.1-7-7-7c-3.9,0-7,3.1-7,7S1325.1,259.7,1329,259.7"/>
		<path fill="#005EC7" d="M1349.6,300.2c3.9,0,7-3.1,7-7s-3.1-7-7-7c-3.9,0-7,3.1-7,7S1345.7,300.2,1349.6,300.2"/>
		<path fill="#005EC7" d="M1589.7,286.2c3.9,0,7-3.1,7-7s-3.1-7-7-7c-3.9,0-7,3.1-7,7S1585.8,286.2,1589.7,286.2"/>
		<path fill="#005EC7" d="M1321,351.7c3.9,0,7-3.1,7-7s-3.1-7-7-7c-3.9,0-7,3.1-7,7S1317.1,351.7,1321,351.7"/>
	</g>
	<rect x="993.6" y="295.7" fill="#FF7361" width="5.1" height="14.4"/>
	<polyline fill="#005EC7" points="1002.6,306.7 996.2,281.7 989.6,306.7 	"/>
	<rect x="1399.6" y="373.3" fill="#FF7361" width="5.1" height="14.4"/>
	<polyline fill="#005EC7" points="1408.6,384.3 1402.2,359.3 1395.6,384.3 	"/>
	<rect x="1415.8" y="359.1" fill="#FF7361" width="5.1" height="14.4"/>
	<polyline fill="#005EC7" points="1424.8,370.1 1418.3,345.1 1411.8,370.1 	"/>
	<rect x="1428.8" y="380.5" fill="#FF7361" width="5.1" height="14.4"/>
	<polyline fill="#005EC7" points="1437.8,391.5 1431.3,366.5 1424.8,391.5 	"/>
	<rect x="1623.6" y="262.5" fill="#FF7361" width="5.1" height="14.4"/>
	<polyline fill="#005EC7" points="1632.6,273.5 1626.2,248.5 1619.6,273.5 	"/>
	<g>
		<rect x="1149.6" y="359.1" fill="#FF7361" width="5.1" height="14.4"/>
		<polyline fill="#005EC7" points="1158.6,370.1 1152.2,345.1 1145.6,370.1 		"/>
	</g>
	<rect x="891.6" y="283.7" fill="#FF7361" width="5.1" height="14.4"/>
	<polyline fill="#005EC7" points="900.6,294.7 894.2,269.7 887.6,294.7 	"/>
	<g>
		<rect x="983.4" y="352.5" fill="#FFC740" width="17.8" height="21"/>
		<polygon fill="#FF7361" points="992.4,339.5 982,352.5 1002.6,352.5 		"/>
		<g>
			<path fill="#005EC7" d="M992.3,350.6c1.3,0,2.3-1,2.3-2.3c0-1.3-1-2.3-2.3-2.3c-1.3,0-2.3,1-2.3,2.3
				C990,349.5,991.1,350.6,992.3,350.6"/>
		</g>
		<rect x="989.8" y="363.7" fill="#FF7361" width="5" height="9.8"/>
	</g>
	<g>
		<rect x="1227.9" y="224.7" fill="#FFC740" width="29" height="21"/>
		<polygon fill="#FF7361" points="1242.6,211.7 1225.6,224.7 1259.1,224.7 		"/>
		<rect x="1232.6" y="228.3" fill="#005EC7" width="4.4" height="4.4"/>
		<rect x="1247.6" y="236" fill="#FF7361" width="5" height="9.8"/>
	</g>
	<g>
		<rect x="1484.3" y="375.2" fill="#FFC740" width="21.6" height="25.6"/>
		<polygon fill="#FF7361" points="1495.2,359.3 1482.6,375.2 1507.6,375.2 		"/>
		<rect x="1487.6" y="378.5" fill="#005EC7" width="4.4" height="4.4"/>
		<rect x="1492.6" y="391" fill="#FF7361" width="5" height="9.8"/>
		<rect x="1493.2" y="378.5" fill="#005EC7" width="4.4" height="4.4"/>
		<rect x="1498.8" y="378.5" fill="#005EC7" width="4.4" height="4.4"/>
	</g>
	<g>
		<rect x="1420.3" y="319.8" fill="#FFC740" width="35" height="25.3"/>
		<polygon fill="#FF7361" points="1437.8,310.1 1458,319.8 1417.6,319.8 		"/>
		<rect x="1443.8" y="324.6" fill="#005EC7" width="4.4" height="4.4"/>
		<rect x="1435.3" y="335.3" fill="#FF7361" width="5" height="9.8"/>
		<rect x="1426.6" y="310.2" fill="#FF7361" width="4.6" height="6.6"/>
	</g>
	<g>
		<path fill="#005EC7" d="M1358.9,323.6c0.8-2.9,3.2-5.3,7-7.3c3.4-1.7,5.5-3.9,6.2-6.3c0.7-2.4,0.1-5.4-1.8-8.7l1.4-0.8
			c4.3,7.4,2.6,13.3-5,17.2c-3.4,1.7-5.5,3.9-6.2,6.3c-0.7,2.5-0.1,5.4,1.8,8.7l-1.4,0.8C1358.7,329.8,1358,326.5,1358.9,323.6"/>
		<path fill="#005EC7" d="M1349.5,355.7c0.8-2.9,3.2-5.3,7-7.3c3.4-1.7,5.5-3.9,6.2-6.3c0.7-2.4,0.1-5.4-1.8-8.7l1.4-0.8
			c4.3,7.4,2.6,13.3-5,17.2c-3.4,1.7-5.5,3.9-6.2,6.3c-0.7,2.5-0.1,5.4,1.8,8.7l-1.4,0.8C1349.3,362,1348.6,358.6,1349.5,355.7"/>
		<path fill="#005EC7" d="M1366.2,327.2c0.8-2.9,3.2-5.3,7-7.3c3.4-1.7,5.5-3.9,6.2-6.3c0.7-2.5,0.1-5.4-1.8-8.7l1.4-0.8
			c4.3,7.4,2.6,13.3-5,17.2c-3.4,1.7-5.5,3.9-6.2,6.3c-0.7,2.5-0.1,5.4,1.8,8.7l-1.4,0.8C1366,333.4,1365.3,330.1,1366.2,327.2"/>
		<path fill="#005EC7" d="M1356.8,359.4c0.8-2.9,3.2-5.3,7-7.3c3.4-1.7,5.5-3.9,6.2-6.3c0.7-2.5,0.1-5.4-1.8-8.7l1.4-0.8
			c4.3,7.4,2.6,13.3-5,17.2c-3.4,1.7-5.5,3.9-6.2,6.3c-0.7,2.5-0.1,5.4,1.8,8.7l-1.4,0.8C1356.6,365.6,1355.9,362.3,1356.8,359.4"/>
		<path fill="#FF7361" d="M884.9,240.5l0-4.2l0,0l1.9,0c0.5,0.7,1.4,1.3,2.4,1.4c1.6,0,2.9-1.2,2.9-2.8c0-1.6-1.3-2.9-2.8-2.9
			c-1,0-1.9,0.6-2.4,1.3l-2,0l0,0l0-3.9c-6.1-0.1-11-5.1-10.9-11.1l-11.2-0.1C862.7,230.3,872.6,240.4,884.9,240.5"/>
		<path fill="#005EC7" d="M873.8,218.1l-4.2,0l0,0l0,1.9c0.7,0.5,1.3,1.4,1.3,2.4c0,1.6-1.3,2.9-2.8,2.9c-1.6,0-2.9-1.3-2.9-2.9
			c0-1,0.6-1.9,1.3-2.4l0-2l0,0l-3.9,0c0-6.1-5-11-11-11l0-11.2C863.8,195.8,873.8,205.8,873.8,218.1"/>
	</g>
	<path fill="#FF7361" d="M851.7,202.8h1.9c0.5,0.7,1.3,1.3,2.3,1.3c1.5,0,2.7-1.2,2.7-2.7c0-1.5-1.2-2.7-2.7-2.7
		c-1,0-1.8,0.6-2.3,1.2h-1.9l0-4h-39.1l-0.1,10.9h39.2L851.7,202.8z"/>
	<path fill="#005EC7" d="M812.7,202.8h1.9c0.5,0.7,1.3,1.3,2.3,1.3c1.5,0,2.7-1.2,2.7-2.7c0-1.5-1.2-2.7-2.7-2.7
		c-1,0-1.8,0.6-2.3,1.2h-1.9l0-4h-39.1l-0.1,10.9h39.2L812.7,202.8z"/>
	<path fill="#FFC740" d="M776,203h1.9c0.5,0.7,1.4,1.3,2.4,1.3c1.6,0,2.8-1.2,2.8-2.8c0-1.6-1.3-2.8-2.8-2.8c-1,0-1.9,0.6-2.4,1.3
		H776l0-4.1h-40.3l-0.1,11.2H776L776,203z"/>
	<path fill="#FF7361" d="M736.4,196.3l0,4.2l0,0l1.9,0c0.5-0.7,1.4-1.3,2.4-1.4c1.6,0,2.9,1.2,2.9,2.8c0,1.6-1.3,2.9-2.8,2.9
		c-1,0-1.9-0.6-2.4-1.3l-2,0l0,0l0,3.9c-6.1,0.1-11,5.1-10.9,11.1l-11.2,0.1C714.2,206.5,724.1,196.4,736.4,196.3"/>
	<path fill="#005EC7" d="M718.4,217.9V216c-0.7-0.5-1.3-1.4-1.3-2.4c0-1.6,1.2-2.8,2.8-2.8c1.6,0,2.8,1.3,2.8,2.8
		c0,1-0.6,1.9-1.3,2.4v1.9l4.1,0v40.3l-11.2,0.1v-40.4L718.4,217.9z"/>
	<path fill="#FF7361" d="M725.6,256.6l-4.2,0l0,0l0-1.9c0.7-0.5,1.3-1.4,1.4-2.4c0-1.6-1.2-2.9-2.8-2.9c-1.6,0-2.9,1.3-2.9,2.8
		c0,1,0.6,1.9,1.3,2.4l0,2l0,0l-3.9,0c-0.1,6.1-5.1,11-11.1,10.9l-0.1,11.2C715.4,278.7,725.5,268.8,725.6,256.6"/>
	<path fill="#FFC740" d="M703,278.6l0-4.2l0,0l1.9,0c0.5,0.7,1.4,1.3,2.4,1.4c1.6,0,2.9-1.2,2.9-2.8c0-1.6-1.3-2.9-2.8-2.9
		c-1,0-1.9,0.6-2.4,1.3l-2,0l0,0l0-3.9c-6.1-0.1-11-5.1-10.9-11.1l-11.2-0.1C680.9,268.4,690.8,278.5,703,278.6"/>
	<path fill="#005EC7" d="M692.4,256.7l-4.2,0l0,0l0,1.9c0.7,0.5,1.3,1.4,1.4,2.4c0,1.6-1.2,2.9-2.8,2.9c-1.6,0-2.9-1.3-2.9-2.8
		c0-1,0.6-1.9,1.3-2.4l0-2l0,0l-3.9,0c-0.1-6.1-5.1-11-11.1-10.9l-0.1-11.2C682.2,234.5,692.3,244.4,692.4,256.7"/>
	<path fill="#FFC740" d="M669.9,234.6l0,4.2l0,0l1.9,0c0.5-0.7,1.4-1.3,2.4-1.4c1.6,0,2.9,1.2,2.9,2.8c0,1.6-1.3,2.9-2.8,2.9
		c-1,0-1.9-0.6-2.4-1.3l-2,0l0,0l0,3.9c-6.1,0.1-11,5.1-10.9,11.1l-11.2,0.1C647.7,244.8,657.6,234.7,669.9,234.6"/>
	<path fill="#FF7361" d="M659.1,256.6l-4.2,0l0,0l0-1.9c0.7-0.5,1.3-1.4,1.4-2.4c0-1.6-1.2-2.9-2.8-2.9c-1.6,0-2.9,1.3-2.9,2.8
		c0,1,0.6,1.9,1.3,2.4l0,2l0,0l-3.9,0c-0.1,6.1-5.1,11-11.1,10.9l-0.1,11.2C648.9,278.7,659,268.8,659.1,256.6"/>
	<path fill="#FFC740" d="M636.5,278.6l0-4.2l0,0l1.9,0c0.5,0.7,1.4,1.3,2.4,1.4c1.6,0,2.9-1.2,2.9-2.8c0-1.6-1.3-2.9-2.8-2.9
		c-1,0-1.9,0.6-2.4,1.3l-2,0l0,0l0-3.9c-6.1-0.1-11-5.1-10.9-11.1l-11.2-0.1C614.4,268.4,624.3,278.5,636.5,278.6"/>
	<path fill="#005EC7" d="M621.3,256.2v1.9c0.7,0.5,1.3,1.3,1.3,2.3c0,1.5-1.2,2.7-2.7,2.7s-2.7-1.2-2.7-2.7c0-1,0.6-1.8,1.2-2.3
		v-1.9l-4,0v-39.1l10.9-0.1v39.2L621.3,256.2z"/>
	<path fill="#FFC740" d="M621.3,217.6v1.9c0.7,0.5,1.3,1.3,1.3,2.3c0,1.5-1.2,2.7-2.7,2.7s-2.7-1.2-2.7-2.7c0-1,0.6-1.8,1.2-2.3
		v-1.9l-4,0v-39.1l10.9-0.1v39.2L621.3,217.6z"/>
	<path fill="#005EC7" d="M625.2,178.9l-4,0l0,0l0,1.9c0.7,0.5,1.3,1.3,1.3,2.3c0,1.5-1.2,2.8-2.8,2.8c-1.5,0-2.8-1.2-2.8-2.8
		c0-1,0.6-1.8,1.2-2.3l0-1.9l0,0l-3.8,0c0-5.9-4.8-10.7-10.7-10.7l0-10.9C615.5,157.3,625.2,167,625.2,178.9"/>
	<path fill="#FF7361" d="M604.5,161.4h1.9c0.5-0.7,1.4-1.3,2.4-1.3c1.6,0,2.8,1.2,2.8,2.8c0,1.6-1.3,2.8-2.8,2.8
		c-1,0-1.9-0.6-2.4-1.3h-1.9l0,4.1h-40.3l-0.1-11.2h40.4L604.5,161.4z"/>
	<path fill="#FFC740" d="M565.3,164.4h1.9c0.5,0.7,1.4,1.3,2.4,1.3c1.6,0,2.8-1.2,2.8-2.8s-1.3-2.8-2.8-2.8c-1,0-1.9,0.6-2.4,1.3
		h-1.9l0-4.1H525l-0.1,10.9l40.4,0.3L565.3,164.4z"/>
	<path fill="#FF7361" d="M525.5,157.3l0,4l0,0l1.9,0c0.5-0.7,1.3-1.3,2.3-1.3c1.5,0,2.8,1.2,2.8,2.7c0,1.5-1.2,2.8-2.7,2.8
		c-1,0-1.8-0.5-2.3-1.2l-1.9,0l0,0l0,3.8c-5.9,0.1-10.6,4.9-10.6,10.8l-10.9,0.1C504,167.2,513.6,157.4,525.5,157.3"/>
	<path fill="#FFC740" d="M508,178.4v-1.9c-0.7-0.5-1.3-1.3-1.3-2.3c0-1.5,1.2-2.7,2.7-2.7c1.5,0,2.7,1.2,2.7,2.7
		c0,1-0.6,1.8-1.2,2.3v1.9l4,0v39.1l-10.9,0.1v-39.2L508,178.4z"/>
	<path fill="#FF7361" d="M508,215.4v-1.9c-0.7-0.5-1.3-1.3-1.3-2.3c0-1.5,1.2-2.7,2.7-2.7c1.5,0,2.7,1.2,2.7,2.7
		c0,1-0.6,1.8-1.2,2.3v1.9l4,0v39.1l-10.9,0.1v-39.2L508,215.4z"/>
	<path fill="#005EC7" d="M511,252.9V251c0.7-0.5,1.3-1.4,1.3-2.4c0-1.6-1.2-2.8-2.8-2.8c-1.6,0-2.8,1.3-2.8,2.8c0,1,0.6,1.9,1.3,2.4
		v1.9l-4.1,0v40.3l11.2,0.1v-40.4L511,252.9z"/>
	<path fill="#FFC740" d="M515.1,293l-4.2,0l0,0l0-1.9c0.7-0.5,1.3-1.4,1.4-2.4c0-1.6-1.2-2.9-2.8-2.9c-1.6,0-2.9,1.3-2.9,2.8
		c0,1,0.6,1.9,1.3,2.4l0,2l0,0l-3.9,0c-0.1,6.1-5.1,11-11.1,10.9l-0.1,11.2C504.9,315.2,515,305.3,515.1,293"/>
	<path fill="#005EC7" d="M492.8,307.9h1.9c0.5-0.7,1.4-1.3,2.4-1.3c1.6,0,2.8,1.2,2.8,2.8c0,1.6-1.3,2.8-2.8,2.8
		c-1,0-1.9-0.6-2.4-1.3h-1.9l0,4.1h-40.3l-0.1-11.2h40.4L492.8,307.9z"/>
	<path fill="#FFC740" d="M454,311h1.9c0.5,0.7,1.4,1.3,2.4,1.3c1.6,0,2.8-1.2,2.8-2.8s-1.3-2.8-2.8-2.8c-1,0-1.9,0.6-2.4,1.3H454
		l0-4.1h-40.3l-0.1,11.2h40.4L454,311z"/>
	<path fill="#FF7361" d="M415.4,303.9l0,4.2l0,0l1.9,0c0.5-0.7,1.4-1.3,2.4-1.4c1.6,0,2.9,1.2,2.9,2.8c0,1.6-1.3,2.9-2.8,2.9
		c-1,0-1.9-0.6-2.4-1.3l-2,0l0,0l0,3.9c-6.1,0.1-11,5.1-10.9,11.1l-11.2,0.1C393.2,314.1,403.1,304,415.4,303.9"/>
	<path fill="#FFC740" d="M400.5,325.4v-1.9c0.7-0.5,1.3-1.4,1.3-2.4c0-1.6-1.2-2.8-2.8-2.8s-2.8,1.3-2.8,2.8c0,1,0.6,1.9,1.3,2.4
		v1.9l-4.1,0v40.3l11.2,0.1v-40.4L400.5,325.4z"/>
	<path fill="#005EC7" d="M400.5,365.9V364c0.7-0.5,1.3-1.4,1.3-2.4c0-1.6-1.2-2.8-2.8-2.8s-2.8,1.3-2.8,2.8c0,1,0.6,1.9,1.3,2.4v1.9
		l-4.1,0v40.3l11.2,0.1v-40.4L400.5,365.9z"/>
	<path fill="#FFC740" d="M404.6,405.8l-4.2,0l0,0l0-1.9c0.7-0.5,1.3-1.4,1.3-2.4c0-1.6-1.3-2.9-2.8-2.9c-1.6,0-2.9,1.3-2.9,2.9
		c0,1,0.6,1.9,1.3,2.4l0,2l0,0l-3.9,0c0,6.1-5,11-11,11l0,11.2C394.6,428.1,404.6,418.1,404.6,405.8"/>
	<path fill="#FF7361" d="M382.9,420.9h1.9c0.5-0.7,1.4-1.3,2.4-1.3c1.6,0,2.8,1.2,2.8,2.8s-1.3,2.8-2.8,2.8c-1,0-1.9-0.6-2.4-1.3
		h-1.9l0,4.1h-40.3l-0.1-11.2h40.4L382.9,420.9z"/>
	<path fill="#FFC740" d="M343.7,424h1.9c0.5,0.7,1.4,1.3,2.4,1.3c1.6,0,2.8-1.2,2.8-2.8s-1.3-2.8-2.8-2.8c-1,0-1.9,0.6-2.4,1.3h-1.9
		l0-4.1h-40.3l-0.1,11.2h40.4L343.7,424z"/>
	<path fill="#FF7361" d="M303.8,428.1l0-4.2l0,0l1.9,0c0.5,0.7,1.4,1.3,2.4,1.4c1.6,0,2.9-1.2,2.9-2.8c0-1.6-1.3-2.9-2.8-2.9
		c-1,0-1.9,0.6-2.4,1.3l-2,0l0,0l0-3.9c-6.1-0.1-11-6.5-10.9-12.6l-11.2,1.3C281.7,417.9,291.5,428,303.8,428.1"/>
	<path fill="#005EC7" d="M285.9,405.5v1.9c-0.7,0.5-1.3,1.4-1.3,2.4c0,1.6,1.2,2.8,2.8,2.8c1.6,0,2.8-1.3,2.8-2.8
		c0-1-0.6-1.9-1.3-2.4v-1.9l4.1,0v-40.3l-11.2-0.1v40.4L285.9,405.5z"/>
	<path fill="#FF7361" d="M285.8,365.9v1.9c-0.7,0.5-1.3,1.4-1.3,2.4c0,1.6,1.2,2.8,2.8,2.8c1.6,0,2.8-1.3,2.8-2.8
		c0-1-0.6-1.9-1.3-2.4v-1.9l4.1,0v-40.3l-11.2-0.1v40.4L285.8,365.9z"/>
	<path fill="#FFC740" d="M293,325.7l-4.2,0l0,0l0,1.9c0.7,0.5,1.3,1.4,1.4,2.4c0,1.6-1.2,2.9-2.8,2.9c-1.6,0-2.9-1.3-2.9-2.8
		c0-1,0.6-1.9,1.3-2.4l0-2l0,0l-3.9,0c-0.1-6.1-5.1-11-11.1-10.9l-0.1-11.2C282.8,303.5,292.9,313.4,293,325.7"/>
	<path fill="#005EC7" d="M271,303.6l0,4.2l0,0l1.9,0c0.5-0.7,1.4-1.3,2.4-1.4c1.6,0,2.9,1.2,2.9,2.8c0,1.6-1.3,2.9-2.8,2.9
		c-1,0-1.9-0.6-2.4-1.3l-2,0l0,0l0,3.9c-6.1,0.1-11,5.1-10.9,11.1l-11.2,0.1C248.8,313.8,258.7,303.8,271,303.6"/>
	<path fill="#FF7361" d="M253,325.2v-1.9c-0.7-0.5-1.3-1.4-1.3-2.4c0-1.6,1.2-2.8,2.8-2.8c1.6,0,2.8,1.3,2.8,2.8
		c0,1-0.6,1.9-1.3,2.4v1.9l4.1,0v40.3l-11.2,0.1v-40.4L253,325.2z"/>
	<path fill="#FFC740" d="M260.2,364.8l-4.2,0l0,0l0-1.9c0.7-0.5,1.3-1.4,1.4-2.4c0-1.6-1.2-2.9-2.8-2.9c-1.6,0-2.9,1.3-2.9,2.8
		c0,1,0.6,1.9,1.3,2.4l0,2l0,0l-3.9,0c-0.1,6.1-5.1,11-11.1,10.9l-0.1,11.2C250,387,260,377.1,260.2,364.8"/>
	<path fill="#005EC7" d="M238,386.8l0-4.2l0,0l1.9,0c0.5,0.7,1.4,1.3,2.4,1.4c1.6,0,2.9-1.2,2.9-2.8c0-1.6-1.3-2.9-2.8-2.9
		c-1,0-1.9,0.6-2.4,1.3l-2,0l0,0l0-3.9c-6.1-0.1-11-5.1-10.9-11.1l-11.2-0.1C215.9,376.6,225.7,386.7,238,386.8"/>
	<path fill="#FF7361" d="M223.1,365.9v1.9c0.7,0.5,1.3,1.4,1.3,2.4c0,1.6-1.2,2.8-2.8,2.8s-2.8-1.3-2.8-2.8c0-1,0.6-1.9,1.3-2.4
		v-1.9l-4.1,0v-40.3l11.2-0.1v40.4L223.1,365.9z"/>
	<path fill="#FFC740" d="M227.2,326.4l-4.2,0l0,0l0,1.9c0.7,0.5,1.3,1.4,1.4,2.4c0,1.6-1.2,2.9-2.8,2.9c-1.6,0-2.9-1.3-2.9-2.8
		c0-1,0.6-1.9,1.3-2.4l0-2l0,0l-3.9,0c-0.1-6.1-5.1-11-11.1-10.9l-0.1-11.2C217,304.2,227.1,314.1,227.2,326.4"/>
	<path fill="#FF7361" d="M205,308.4h1.9c0.5-0.7,1.4-1.3,2.4-1.3c1.6,0,2.8,1.2,2.8,2.8s-1.3,2.8-2.8,2.8c-1,0-1.9-0.6-2.4-1.3H205
		l0,4.1h-40.3l-0.1-11.2H205L205,308.4z"/>
	<path fill="#FFC740" d="M165,311.5h1.9c0.5,0.7,1.4,1.3,2.4,1.3c1.6,0,2.8-1.2,2.8-2.8s-1.3-2.8-2.8-2.8c-1,0-1.9,0.6-2.4,1.3H165
		l0-4.1h-40.3l-0.1,11.2H165L165,311.5z"/>
	<path fill="#005EC7" d="M125,311.5h1.9c0.5,0.7,1.4,1.3,2.4,1.3c1.6,0,2.8-1.2,2.8-2.8s-1.3-2.8-2.8-2.8c-1,0-1.9,0.6-2.4,1.3H125
		l0-4.1H84.7l-0.1,11.2H125L125,311.5z"/>
	<path fill="#FFC740" d="M85,315.5l0-4.2l0,0l1.9,0c0.5,0.7,1.4,1.3,2.4,1.4c1.6,0,2.9-1.2,2.9-2.8c0-1.6-1.3-2.9-2.8-2.9
		c-1,0-1.9,0.6-2.4,1.3l-2,0l0,0l0-3.9c-6.1-0.1-11-5.1-10.9-11.1l-11.2-0.1C62.8,305.4,72.7,315.4,85,315.5"/>
	<path fill="#FF7361" d="M70.1,293.2v1.9c0.7,0.5,1.3,1.4,1.3,2.4c0,1.6-1.2,2.8-2.8,2.8c-1.6,0-2.8-1.3-2.8-2.8
		c0-1,0.6-1.9,1.3-2.4v-1.9l-4.1,0v-40.3l11.2-0.1v40.4L70.1,293.2z"/>
	<path fill="#FFC740" d="M74.2,253.1l-4.2,0l0,0l0,1.9c0.7,0.5,1.3,1.4,1.4,2.4c0,1.6-1.2,2.9-2.8,2.9c-1.6,0-2.9-1.3-2.9-2.8
		c0-1,0.6-1.9,1.3-2.4l0-2l0,0l-3.9,0c-0.1-6.1-5.1-11-11.1-10.9l-0.1-11.2C64,231,74.1,240.9,74.2,253.1"/>
	<path fill="#005EC7" d="M51.7,231.1l0,4.2l0,0l1.9,0c0.5-0.7,1.4-1.3,2.4-1.4c1.6,0,2.9,1.2,2.9,2.8c0,1.6-1.3,2.9-2.8,2.9
		c-1,0-1.9-0.6-2.4-1.3l-2,0l0,0l0,3.9c-6.1,0.1-11,5.1-10.9,11.1l-11.2,0.1C29.5,241.3,39.4,231.2,51.7,231.1"/>
	<path fill="#FF7361" d="M33.7,252.9V251c-0.7-0.5-1.3-1.4-1.3-2.4c0-1.6,1.2-2.8,2.8-2.8c1.6,0,2.8,1.3,2.8,2.8
		c0,1-0.6,1.9-1.3,2.4v1.9l4.1,0v40.3l-11.2,0.1v-40.4L33.7,252.9z"/>
	<path fill="#FFC740" d="M40.8,292.6l-4.2,0l0,0l0-1.9c0.7-0.5,1.3-1.4,1.4-2.4c0-1.6-1.2-2.9-2.8-2.9c-1.6,0-2.9,1.3-2.9,2.8
		c0,1,0.6,1.9,1.3,2.4l0,2l0,0l-3.9,0c-0.1,6.1-5.1,11-11.1,10.9l-0.1,11.2C30.6,314.7,40.7,304.8,40.8,292.6"/>
	<path fill="#FF7361" d="M19.7,308.4h1.9c0.5-0.7,1.4-1.3,2.4-1.3c1.6,0,2.8,1.2,2.8,2.8c0,1.6-1.3,2.8-2.8,2.8
		c-1,0-1.9-0.6-2.4-1.3h-1.9l0,4.1h-40.3l-0.1-11.2h40.4L19.7,308.4z"/>
	<g>
		<rect x="733.1" y="170.4" fill="#FF7361" width="5.1" height="14.4"/>
		<polyline fill="#005EC7" points="742.1,181.4 735.7,156.4 729.1,181.4 		"/>
	</g>
	<g>
		<rect x="756.9" y="170.4" fill="#FF7361" width="5.1" height="14.4"/>
		<polyline fill="#005EC7" points="765.9,181.4 759.4,156.4 752.9,181.4 		"/>
	</g>
	<g>
		<rect x="780.6" y="170.4" fill="#FF7361" width="5.1" height="14.4"/>
		<polyline fill="#005EC7" points="789.6,181.4 783.2,156.4 776.6,181.4 		"/>
	</g>
	<g>
		<rect x="530" y="171.4" fill="#FF7361" width="5.1" height="14.4"/>
		<polyline fill="#005EC7" points="539,182.4 532.6,157.4 526,182.4 		"/>
	</g>
	<g>
		<rect x="512.4" y="315.3" fill="#FF7361" width="5.1" height="14.4"/>
		<polyline fill="#005EC7" points="521.4,326.3 515,301.3 508.4,326.3 		"/>
	</g>
	<g>
		<rect x="473.7" y="283.5" fill="#FF7361" width="5.1" height="14.4"/>
		<polyline fill="#005EC7" points="482.7,294.5 476.2,269.5 469.7,294.5 		"/>
	</g>
	<g>
		<rect x="467.2" y="332.8" fill="#FF7361" width="5.1" height="14.4"/>
		<polyline fill="#005EC7" points="476.2,343.8 469.7,318.8 463.2,343.8 		"/>
	</g>
	<g>
		<rect x="185.9" y="281.8" fill="#FF7361" width="5.1" height="14.4"/>
		<polyline fill="#005EC7" points="194.9,292.8 188.4,267.8 181.9,292.8 		"/>
	</g>
	<g>
		<rect x="202.2" y="318.8" fill="#FF7361" width="5.1" height="14.4"/>
		<polyline fill="#005EC7" points="211.2,329.8 204.8,304.8 198.2,329.8 		"/>
	</g>
	<g>
		<rect x="1781.7" y="374.9" fill="#FF7361" width="5.1" height="14.4"/>
		<polyline fill="#005EC7" points="1790.7,385.9 1784.3,360.9 1777.7,385.9 		"/>
	</g>
	<g>
		<rect x="1916.8" y="345" fill="#FF7361" width="5.1" height="14.4"/>
		<polyline fill="#005EC7" points="1925.8,356 1919.4,331 1912.8,356 		"/>
	</g>
	<g>
		<rect x="1896.7" y="359.1" fill="#FF7361" width="5.1" height="14.4"/>
		<polyline fill="#005EC7" points="1905.7,370.1 1899.3,345.1 1892.7,370.1 		"/>
	</g>
	<g>
		<rect x="1914.3" y="371.9" fill="#FF7361" width="5.1" height="14.4"/>
		<polyline fill="#005EC7" points="1923.3,382.9 1916.9,357.9 1910.3,382.9 		"/>
	</g>
	<g>
		<rect x="1932.9" y="359.5" fill="#FF7361" width="5.1" height="14.4"/>
		<polyline fill="#005EC7" points="1941.9,370.5 1935.5,345.5 1928.9,370.5 		"/>
	</g>
	<g>
		<rect x="1904.1" y="330.8" fill="#FF7361" width="5.1" height="14.4"/>
		<polyline fill="#005EC7" points="1913.1,341.8 1906.7,316.8 1900.1,341.8 		"/>
	</g>
	<g>
		<rect x="2061.4" y="294.9" fill="#FF7361" width="5.1" height="14.4"/>
		<polyline fill="#005EC7" points="2070.4,305.9 2064,280.9 2057.4,305.9 		"/>
	</g>
	<g>
		<rect x="2085.2" y="294.9" fill="#FF7361" width="5.1" height="14.4"/>
		<polyline fill="#005EC7" points="2094.2,305.9 2087.7,280.9 2081.2,305.9 		"/>
	</g>
	<g>
		<rect x="2132.4" y="384" fill="#FF7361" width="5.1" height="14.4"/>
		<polyline fill="#005EC7" points="2141.4,395 2134.9,370 2128.4,395 		"/>
	</g>
	<g>
		<rect x="2327.5" y="280.7" fill="#FF7361" width="5.1" height="14.4"/>
		<polyline fill="#005EC7" points="2336.5,291.7 2330.1,266.7 2323.5,291.7 		"/>
	</g>
	<g>
		<rect x="2444.5" y="250.6" fill="#FF7361" width="5.1" height="14.4"/>
		<polyline fill="#005EC7" points="2453.5,261.6 2447.1,236.6 2440.5,261.6 		"/>
	</g>
	<g>
		<rect x="2421.5" y="250.6" fill="#FF7361" width="5.1" height="14.4"/>
		<polyline fill="#005EC7" points="2430.5,261.6 2424.1,236.6 2417.5,261.6 		"/>
	</g>
	<g>
		<rect x="2434.5" y="268.7" fill="#FF7361" width="5.1" height="14.4"/>
		<polyline fill="#005EC7" points="2443.5,279.7 2437.1,254.7 2430.5,279.7 		"/>
	</g>
	<g>
		<rect x="574.4" y="131.3" fill="#FFC740" width="29" height="21"/>
		<polygon fill="#FF7361" points="589,118.3 572.1,131.3 605.6,131.3 		"/>
		<rect x="579" y="134.8" fill="#005EC7" width="4.4" height="4.4"/>
		<rect x="594.1" y="142.5" fill="#FF7361" width="5" height="9.8"/>
	</g>
	<g>
		<rect x="422.9" y="395.6" fill="#FFC740" width="29" height="21"/>
		<polygon fill="#FF7361" points="437.5,382.6 420.6,395.6 454.1,395.6 		"/>
		<rect x="427.5" y="399.1" fill="#005EC7" width="4.4" height="4.4"/>
		<rect x="442.6" y="406.8" fill="#FF7361" width="5" height="9.8"/>
	</g>
	<g>
		<rect x="1992.8" y="206.8" fill="#FFC740" width="29" height="21"/>
		<polygon fill="#FF7361" points="2007.4,193.8 1990.5,206.8 2024,206.8 		"/>
		<rect x="1997.4" y="210.3" fill="#005EC7" width="4.4" height="4.4"/>
		<rect x="2012.5" y="218" fill="#FF7361" width="5" height="9.8"/>
	</g>
	<g>
		<rect x="2466.4" y="283.8" fill="#FFC740" width="29" height="21"/>
		<polygon fill="#FF7361" points="2481.1,270.8 2464.2,283.8 2497.7,283.8 		"/>
		<rect x="2471.1" y="287.3" fill="#005EC7" width="4.4" height="4.4"/>
		<rect x="2486.2" y="295" fill="#FF7361" width="5" height="9.8"/>
	</g>
	<g>
		<rect x="557.2" y="131.3" fill="#FFC740" width="17.8" height="21"/>
		<polygon fill="#FF7361" points="566.2,118.3 555.8,131.3 576.4,131.3 		"/>
		<g>
			<path fill="#005EC7" d="M566.1,129.3c1.3,0,2.3-1,2.3-2.3c0-1.3-1-2.3-2.3-2.3s-2.3,1-2.3,2.3
				C563.8,128.3,564.8,129.3,566.1,129.3"/>
		</g>
		<rect x="563.6" y="142.5" fill="#FF7361" width="5" height="9.8"/>
	</g>
	<g>
		<rect x="149.7" y="272.5" fill="#FFC740" width="17.8" height="21"/>
		<polygon fill="#FF7361" points="158.8,259.5 148.4,272.5 169,272.5 		"/>
		<g>
			<path fill="#005EC7" d="M158.7,270.5c1.3,0,2.3-1,2.3-2.3c0-1.3-1-2.3-2.3-2.3c-1.3,0-2.3,1-2.3,2.3
				C156.3,269.5,157.4,270.5,158.7,270.5"/>
		</g>
		<rect x="156.2" y="283.7" fill="#FF7361" width="5" height="9.8"/>
	</g>
	<g>
		<rect x="2139.2" y="326.6" fill="#FFC740" width="17.8" height="21"/>
		<polygon fill="#FF7361" points="2148.2,313.6 2137.8,326.6 2158.4,326.6 		"/>
		<g>
			<path fill="#005EC7" d="M2148.1,324.6c1.3,0,2.3-1,2.3-2.3c0-1.3-1-2.3-2.3-2.3c-1.3,0-2.3,1-2.3,2.3
				C2145.8,323.6,2146.8,324.6,2148.1,324.6"/>
		</g>
		<rect x="2145.6" y="337.8" fill="#FF7361" width="5" height="9.8"/>
	</g>
	<g>
		<rect x="2531.5" y="202.8" fill="#FFC740" width="17.8" height="21"/>
		<polygon fill="#FF7361" points="2540.5,189.8 2530.1,202.8 2550.7,202.8 		"/>
		<g>
			<path fill="#005EC7" d="M2540.4,200.8c1.3,0,2.3-1,2.3-2.3c0-1.3-1-2.3-2.3-2.3c-1.3,0-2.3,1-2.3,2.3
				C2538.1,199.8,2539.1,200.8,2540.4,200.8"/>
		</g>
		<rect x="2537.9" y="214" fill="#FF7361" width="5" height="9.8"/>
	</g>
	<g>
		<rect x="2032.7" y="236.3" fill="#FFC740" width="21.6" height="25.6"/>
		<polygon fill="#FF7361" points="2043.6,220.5 2031,236.3 2056,236.3 		"/>
		<rect x="2036" y="239.7" fill="#005EC7" width="4.4" height="4.4"/>
		<rect x="2041" y="252.1" fill="#FF7361" width="5" height="9.8"/>
		<rect x="2041.6" y="239.7" fill="#005EC7" width="4.4" height="4.4"/>
		<rect x="2047.2" y="239.7" fill="#005EC7" width="4.4" height="4.4"/>
	</g>
	<g>
		<rect x="785.8" y="219.6" fill="#FFC740" width="21.6" height="25.6"/>
		<polygon fill="#FF7361" points="796.7,203.8 784.1,219.6 809.1,219.6 		"/>
		<rect x="789.1" y="223" fill="#005EC7" width="4.4" height="4.4"/>
		<rect x="794.1" y="235.4" fill="#FF7361" width="5" height="9.8"/>
		<rect x="794.7" y="223" fill="#005EC7" width="4.4" height="4.4"/>
		<rect x="800.3" y="223" fill="#005EC7" width="4.4" height="4.4"/>
	</g>
	<g>
		<rect x="441.1" y="275.4" fill="#FFC740" width="21.6" height="25.6"/>
		<polygon fill="#FF7361" points="452,259.6 439.4,275.4 464.4,275.4 		"/>
		<rect x="444.4" y="278.8" fill="#005EC7" width="4.4" height="4.4"/>
		<rect x="449.4" y="291.2" fill="#FF7361" width="5" height="9.8"/>
		<rect x="450" y="278.8" fill="#005EC7" width="4.4" height="4.4"/>
		<rect x="455.6" y="278.8" fill="#005EC7" width="4.4" height="4.4"/>
	</g>
	<g>
		<rect x="838.3" y="162" fill="#FFC740" width="35" height="25.3"/>
		<polygon fill="#FF7361" points="855.7,152.4 875.9,162 835.5,162 		"/>
		<rect x="861.7" y="166.9" fill="#005EC7" width="4.4" height="4.4"/>
		<rect x="853.2" y="177.6" fill="#FF7361" width="5" height="9.8"/>
		<rect x="844.6" y="152.5" fill="#FF7361" width="4.6" height="6.6"/>
	</g>
	<g>
		<rect x="2043.9" y="188.1" fill="#FFC740" width="35" height="25.3"/>
		<polygon fill="#FF7361" points="2061.4,178.4 2081.6,188.1 2041.2,188.1 		"/>
		<rect x="2067.4" y="192.9" fill="#005EC7" width="4.4" height="4.4"/>
		<rect x="2058.9" y="203.6" fill="#FF7361" width="5" height="9.8"/>
		<rect x="2050.3" y="178.5" fill="#FF7361" width="4.6" height="6.6"/>
	</g>
	<g>
		<rect x="2310.1" y="341.3" fill="#FFC740" width="35" height="25.3"/>
		<polygon fill="#FF7361" points="2327.5,331.7 2347.7,341.3 2307.3,341.3 		"/>
		<rect x="2333.5" y="346.2" fill="#005EC7" width="4.4" height="4.4"/>
		<rect x="2325" y="356.9" fill="#FF7361" width="5" height="9.8"/>
		<rect x="2316.4" y="331.8" fill="#FF7361" width="4.6" height="6.6"/>
	</g>
	<g>
		<rect x="90.8" y="325.8" fill="#FFC740" width="35" height="25.3"/>
		<polygon fill="#FF7361" points="108.3,316.1 128.5,325.8 88.1,325.8 		"/>
		<rect x="114.3" y="330.7" fill="#005EC7" width="4.4" height="4.4"/>
		<rect x="105.8" y="341.4" fill="#FF7361" width="5" height="9.8"/>
		<rect x="97.2" y="316.2" fill="#FF7361" width="4.6" height="6.6"/>
	</g>
	<g>
		<path fill="#005EC7" d="M565.5,212.3c-3,0-6-1.7-8.9-4.8c-2.6-2.8-5.2-4.3-7.7-4.3c-2.6,0-5.2,1.3-7.9,4.1l-1.1-1.1
			c5.9-6.2,12.1-6.1,17.9,0.2c2.6,2.8,5.2,4.3,7.7,4.3c2.6,0,5.2-1.3,7.9-4.1l1.1,1.1C571.6,210.8,568.5,212.3,565.5,212.3"/>
		<path fill="#005EC7" d="M599,212.7c-3,0-6-1.7-8.9-4.8c-2.6-2.8-5.2-4.3-7.7-4.3c-2.6,0-5.2,1.3-7.9,4.1l-1.1-1.1
			c5.9-6.2,12.1-6.1,17.9,0.2c2.6,2.8,5.2,4.3,7.7,4.3c2.6,0,5.2-1.3,7.9-4.1l1.1,1.1C605.1,211.2,602,212.8,599,212.7"/>
		<path fill="#005EC7" d="M567.1,204.3c-3,0-6-1.7-8.9-4.8c-2.6-2.8-5.2-4.3-7.7-4.3s-5.2,1.3-7.9,4.1l-1.1-1.1
			c5.9-6.2,12.1-6.1,17.9,0.2c2.6,2.8,5.2,4.3,7.7,4.3c2.6,0,5.2-1.3,7.9-4.1l1.1,1.1C573.1,202.8,570.1,204.3,567.1,204.3"/>
		<path fill="#005EC7" d="M600.6,204.7c-3,0-6-1.7-8.9-4.8c-2.6-2.8-5.2-4.3-7.7-4.3c-2.6,0-5.2,1.3-7.9,4.1l-1.1-1.1
			c5.9-6.2,12.1-6.1,17.9,0.2c2.6,2.8,5.2,4.3,7.7,4.3c2.6,0,5.2-1.3,7.9-4.1l1.1,1.1C606.6,203.2,603.6,204.8,600.6,204.7"/>
	</g>
	<path fill="#005EC7" d="M681.2,138.3c3.9,0,7-3.1,7-7c0-3.9-3.1-7-7-7c-3.9,0-7,3.1-7,7C674.2,135.1,677.3,138.3,681.2,138.3"/>
	<path fill="#005EC7" d="M765.9,224.1c3.9,0,7-3.1,7-7c0-3.9-3.1-7-7-7c-3.9,0-7,3.1-7,7C758.9,221,762,224.1,765.9,224.1"/>
	<path fill="#005EC7" d="M535.1,289c3.9,0,7-3.1,7-7c0-3.9-3.1-7-7-7s-7,3.1-7,7C528.1,285.9,531.3,289,535.1,289"/>
	<path fill="#005EC7" d="M568.5,320.5c3.9,0,7-3.1,7-7c0-3.9-3.1-7-7-7c-3.9,0-7,3.1-7,7C561.5,317.3,564.6,320.5,568.5,320.5"/>
	<path fill="#005EC7" d="M330.9,276.7c3.9,0,7-3.1,7-7c0-3.9-3.1-7-7-7c-3.9,0-7,3.1-7,7C323.9,273.6,327,276.7,330.9,276.7"/>
	<path fill="#005EC7" d="M323.9,458.2c3.9,0,7-3.1,7-7c0-3.9-3.1-7-7-7c-3.9,0-7,3.1-7,7C316.9,455.1,320,458.2,323.9,458.2"/>
	<path fill="#005EC7" d="M188.4,225.2c3.9,0,7-3.1,7-7c0-3.9-3.1-7-7-7c-3.9,0-7,3.1-7,7C181.4,222.1,184.5,225.2,188.4,225.2"/>
	<path fill="#005EC7" d="M172.1,342.1c3.9,0,7-3.1,7-7c0-3.9-3.1-7-7-7c-3.9,0-7,3.1-7,7C165.1,339,168.2,342.1,172.1,342.1"/>
	<path fill="#005EC7" d="M58.9,358.1c3.9,0,7-3.1,7-7c0-3.9-3.1-7-7-7c-3.9,0-7,3.1-7,7C51.9,355,55.1,358.1,58.9,358.1"/>
	<path fill="#005EC7" d="M148.4,377.1c3.9,0,7-3.1,7-7c0-3.9-3.1-7-7-7c-3.9,0-7,3.1-7,7C141.4,374,144.5,377.1,148.4,377.1"/>
	<path fill="#005EC7" d="M1602.6,412c3.9,0,7-3.1,7-7s-3.1-7-7-7c-3.9,0-7,3.1-7,7S1598.7,412,1602.6,412"/>
	<path fill="#005EC7" d="M1733.8,253.8c3.9,0,7-3.1,7-7c0-3.9-3.1-7-7-7c-3.9,0-7,3.1-7,7C1726.8,250.7,1729.9,253.8,1733.8,253.8"
		/>
	<path fill="#005EC7" d="M1711.7,272.5c3.9,0,7-3.1,7-7c0-3.9-3.1-7-7-7s-7,3.1-7,7C1704.7,269.3,1707.8,272.5,1711.7,272.5"/>
	<path fill="#005EC7" d="M1811.5,270.1c3.9,0,7-3.1,7-7s-3.1-7-7-7c-3.9,0-7,3.1-7,7S1807.6,270.1,1811.5,270.1"/>
	<path fill="#005EC7" d="M1740.8,462.1c3.9,0,7-3.1,7-7c0-3.9-3.1-7-7-7c-3.9,0-7,3.1-7,7C1733.8,458.9,1736.9,462.1,1740.8,462.1"
		/>
	<path fill="#005EC7" d="M1873.7,389.2c3.9,0,7-3.1,7-7c0-3.9-3.1-7-7-7c-3.9,0-7,3.1-7,7C1866.7,386,1869.8,389.2,1873.7,389.2"/>
	<path fill="#005EC7" d="M2115.5,306.7c3.9,0,7-3.1,7-7s-3.1-7-7-7c-3.9,0-7,3.1-7,7S2111.6,306.7,2115.5,306.7"/>
	<path fill="#005EC7" d="M2078.9,235.3c3.9,0,7-3.1,7-7c0-3.9-3.1-7-7-7s-7,3.1-7,7C2071.9,232.2,2075,235.3,2078.9,235.3"/>
	<path fill="#005EC7" d="M2307.3,391.9c3.9,0,7-3.1,7-7s-3.1-7-7-7s-7,3.1-7,7S2303.5,391.9,2307.3,391.9"/>
	<path fill="#005EC7" d="M2504.7,185.4c3.9,0,7-3.1,7-7c0-3.9-3.1-7-7-7c-3.9,0-7,3.1-7,7C2497.7,182.3,2500.8,185.4,2504.7,185.4"
		/>
	<path fill="#005EC7" d="M2376.5,207.7c3.9,0,7-3.1,7-7c0-3.9-3.1-7-7-7c-3.9,0-7,3.1-7,7C2369.5,204.6,2372.7,207.7,2376.5,207.7"
		/>
	<g>
		<g>
			<rect x="1478.5" y="329.7" fill="#FF7361" width="3.8" height="15.4"/>
		</g>
		<g>
			<path fill="#FF7361" d="M1479.8,338.2v-3c2.1,0,2.8-0.5,3.2-0.9c0.8-0.9,1.1-2.7,1-5.7l3-0.2c0.2,3.9-0.3,6.3-1.8,7.9
				C1484,337.6,1482.3,338.2,1479.8,338.2z"/>
		</g>
		<g>
			<circle fill="#FFC740" cx="1480.4" cy="319.8" r="12.8"/>
		</g>
	</g>
	<g>
		<g>
			<rect x="1175.5" y="294.6" fill="#FF7361" width="3.8" height="15.4"/>
		</g>
		<g>
			<path fill="#FF7361" d="M1178.1,303.1v-3c-2.1,0-2.8-0.5-3.2-0.9c-0.8-0.9-1.1-2.7-1-5.7l-3-0.2c-0.2,3.9,0.3,6.3,1.8,7.9
				C1173.9,302.5,1175.6,303.1,1178.1,303.1z"/>
		</g>
		<g>
			<circle fill="#FFC740" cx="1177.4" cy="284.7" r="12.8"/>
		</g>
	</g>
	<g>
		<g>
			<rect x="830.5" y="231.1" fill="#FF7361" width="3.8" height="15.4"/>
		</g>
		<g>
			<path fill="#FF7361" d="M833,239.5v-3c-2.1,0-2.8-0.5-3.2-0.9c-0.8-0.9-1.1-2.7-1-5.7l-3-0.2c-0.2,3.9,0.3,6.3,1.8,7.9
				C828.9,239,830.6,239.5,833,239.5z"/>
		</g>
		<g>
			<circle fill="#FFC740" cx="832.4" cy="221.2" r="12.8"/>
		</g>
	</g>
	<g>
		<g>
			<rect x="556.9" y="273.4" fill="#FF7361" width="3.8" height="15.4"/>
		</g>
		<g>
			<path fill="#FF7361" d="M558.1,281.9v-3c2.1,0,2.8-0.5,3.2-0.9c0.8-0.9,1.1-2.7,1-5.7l3-0.2c0.2,3.9-0.3,6.3-1.8,7.9
				C562.3,281.3,560.6,281.9,558.1,281.9z"/>
		</g>
		<g>
			<circle fill="#FFC740" cx="558.8" cy="263.5" r="12.8"/>
		</g>
	</g>
	<g>
		<g>
			<rect x="235.8" y="303.6" fill="#FF7361" width="3.8" height="15.4"/>
		</g>
		<g>
			<path fill="#FF7361" d="M238.3,312.1v-3c-2.1,0-2.8-0.5-3.2-0.9c-0.8-0.9-1.1-2.7-1-5.7l-3-0.2c-0.2,3.9,0.3,6.3,1.8,7.9
				C234.1,311.5,235.8,312.1,238.3,312.1z"/>
		</g>
		<g>
			<circle fill="#FFC740" cx="237.7" cy="293.7" r="12.8"/>
		</g>
	</g>
	<g>
		<g>
			<rect x="1668" y="323.4" fill="#FF7361" width="3.8" height="15.4"/>
		</g>
		<g>
			<path fill="#FF7361" d="M1670.5,331.9v-3c-2.1,0-2.8-0.5-3.2-0.9c-0.8-0.9-1.1-2.7-1-5.7l-3-0.2c-0.2,3.9,0.3,6.3,1.8,7.9
				C1666.3,331.3,1668,331.9,1670.5,331.9z"/>
		</g>
		<g>
			<circle fill="#FFC740" cx="1669.9" cy="313.5" r="12.8"/>
		</g>
	</g>
	<g>
		<g>
			<rect x="1921.4" y="243.5" fill="#FF7361" width="3.8" height="15.4"/>
		</g>
		<g>
			<path fill="#FF7361" d="M1922.7,251.9v-3c2.1,0,2.8-0.5,3.2-0.9c0.8-0.9,1.1-2.7,1-5.7l3-0.2c0.2,3.9-0.3,6.3-1.8,7.9
				C1926.9,251.3,1925.1,251.9,1922.7,251.9z"/>
		</g>
		<g>
			<circle fill="#FFC740" cx="1923.3" cy="233.5" r="12.8"/>
		</g>
	</g>
	<g>
		<g>
			<rect x="2364.3" y="351.3" fill="#FF7361" width="3.8" height="15.4"/>
		</g>
		<g>
			<path fill="#FF7361" d="M2366.9,359.7v-3c-2.1,0-2.8-0.5-3.2-0.9c-0.8-0.9-1.1-2.7-1-5.7l-3-0.2c-0.2,3.9,0.3,6.3,1.8,7.9
				C2362.7,359.1,2364.4,359.7,2366.9,359.7z"/>
		</g>
		<g>
			<circle fill="#FFC740" cx="2366.2" cy="341.3" r="12.8"/>
		</g>
	</g>
	<g>
		<g>
			<rect x="2398.7" y="207.3" fill="#FF7361" width="3.8" height="15.4"/>
		</g>
		<g>
			<path fill="#FF7361" d="M2401.2,215.8v-3c-2.1,0-2.8-0.5-3.2-0.9c-0.8-0.9-1.1-2.7-1-5.7l-3-0.2c-0.2,3.9,0.3,6.3,1.8,7.9
				C2397,215.2,2398.7,215.8,2401.2,215.8z"/>
		</g>
		<g>
			<circle fill="#FFC740" cx="2400.6" cy="197.4" r="12.8"/>
		</g>
	</g>
	<g>
		<g>
			<path fill="#FF7361" d="M1428.5,305.7c-1-0.8-1.5-1.7-1.5-2.6s0.5-1.8,1.5-2.6c0.6-0.5,0.9-1,0.9-1.5s-0.3-0.9-0.9-1.5l1-1.1
				c1,0.8,1.5,1.7,1.5,2.6s-0.5,1.8-1.5,2.6c-0.6,0.5-0.9,1-0.9,1.5s0.3,0.9,0.9,1.5L1428.5,305.7z"/>
		</g>
		<g>
			<path fill="#FF7361" d="M1428.5,297.6c-1-0.8-1.5-1.7-1.5-2.6s0.5-1.8,1.5-2.6c0.6-0.5,0.9-1,0.9-1.5c0-0.4-0.3-0.9-0.9-1.5
				l1-1.1c1,0.8,1.5,1.7,1.5,2.6c0,0.9-0.5,1.8-1.5,2.6c-0.6,0.5-0.9,1-0.9,1.5s0.3,0.9,0.9,1.5L1428.5,297.6z"/>
		</g>
	</g>
</g>
<g id="Layer_2">
</g>
</svg>
