<?xml version="1.0" encoding="utf-8"?>
<!-- Generator: Adobe Illustrator 18.1.1, SVG Export Plug-In . SVG Version: 6.00 Build 0)  -->
<svg version="1.1" id="Layer_1" xmlns="http://www.w3.org/2000/svg" xmlns:xlink="http://www.w3.org/1999/xlink" x="0px" y="0px"
	 viewBox="0 0 70 70" enable-background="new 0 0 70 70" xml:space="preserve">
<g>
	<defs>
		<rect id="SVGID_1_" x="17.7" y="0.9" width="34.6" height="68.2"/>
	</defs>
	<clipPath id="SVGID_2_">
		<use xlink:href="#SVGID_1_"  overflow="visible"/>
	</clipPath>
	<path clip-path="url(#SVGID_2_)" fill="#FF7361" d="M48.7,64.4L45,62.9l-0.7,1.8c0.5,0.7,0.6,1.7,0.2,2.6c-0.6,1.4-2.2,2.1-3.7,1.5
		c-1.4-0.6-2.1-2.2-1.5-3.6c0.4-0.9,1.2-1.5,2.1-1.7l0.7-1.8l-3.8-1.5c7.7-19-1.4-41.2-20.5-48.9c0,0-0.1,0-0.1,0l4.2-10.5
		c0,0,0.1,0,0.1,0C46.8,10.9,58.9,39.1,48.7,64.4"/>
</g>
</svg>
