<?xml version="1.0" encoding="utf-8"?>
<!-- Generator: Adobe Illustrator 18.1.1, SVG Export Plug-In . SVG Version: 6.00 Build 0)  -->
<svg version="1.1" id="Layer_1" xmlns="http://www.w3.org/2000/svg" xmlns:xlink="http://www.w3.org/1999/xlink" x="0px" y="0px"
	 viewBox="0 0 278.8 360.5" enable-background="new 0 0 278.8 360.5" xml:space="preserve">
<g>
	<defs>
		<rect id="SVGID_1_" x="3.5" y="1" width="275.3" height="358.3"/>
	</defs>
	<clipPath id="SVGID_2_">
		<use xlink:href="#SVGID_1_"  overflow="visible"/>
	</clipPath>
	<path clip-path="url(#SVGID_2_)" fill="#005EC7" d="M229.1,53.4c2.2,0,4.3,1.2,6.4,3.5c1.9,2,3.7,3.1,5.6,3.1c1.8,0,3.7-1,5.6-2.9
		l0.8,0.8c-4.3,4.4-8.7,4.4-12.8-0.2c-1.9-2-3.7-3.1-5.6-3.1c-1.8,0-3.7,1-5.6,2.9l-0.8-0.8C224.8,54.5,227,53.4,229.1,53.4"/>
	<path clip-path="url(#SVGID_2_)" fill="#005EC7" d="M205.1,53.1c2.2,0,4.3,1.2,6.4,3.5c1.9,2,3.7,3.1,5.6,3.1c1.8,0,3.7-1,5.6-2.9
		l0.8,0.8c-4.3,4.4-8.7,4.4-12.8-0.2c-1.9-2-3.7-3.1-5.6-3.1c-1.8,0-3.7,1-5.6,2.9l-0.8-0.8C200.8,54.2,202.9,53.1,205.1,53.1"/>
	<path clip-path="url(#SVGID_2_)" fill="#005EC7" d="M228,59.1c2.2,0,4.3,1.2,6.4,3.5c1.9,2,3.7,3.1,5.6,3.1c1.8,0,3.7-1,5.6-2.9
		l0.8,0.8c-4.3,4.4-8.7,4.4-12.8-0.2c-1.9-2-3.7-3.1-5.6-3.1c-1.8,0-3.7,1-5.6,2.9l-0.8-0.8C223.7,60.2,225.9,59.1,228,59.1"/>
	<path clip-path="url(#SVGID_2_)" fill="#005EC7" d="M204,58.8c2.2,0,4.3,1.2,6.4,3.5c1.9,2,3.7,3.1,5.6,3.1c1.8,0,3.7-1,5.6-2.9
		l0.8,0.8c-4.3,4.4-8.7,4.4-12.8-0.2c-1.9-2-3.7-3.1-5.6-3.1c-1.8,0-3.7,1-5.6,2.9l-0.8-0.8C199.7,59.9,201.8,58.8,204,58.8"/>
	<path clip-path="url(#SVGID_2_)" fill="#FF7361" d="M215,53.7l0,3l0,0l-1.4,0c-0.4-0.5-1-1-1.7-1c-1.1,0-2.1,0.9-2.1,2
		c0,1.1,0.9,2.1,2,2.1c0.7,0,1.4-0.4,1.7-0.9l1.4,0l0,0l0,2.8c4.4,0,7.9,3.6,7.8,8l8.1,0.1C230.9,61,223.8,53.8,215,53.7"/>
	<path clip-path="url(#SVGID_2_)" fill="#FFC740" d="M222.6,69.8l3,0l0,0l0-1.4c-0.5-0.4-1-1-1-1.7c0-1.1,0.9-2.1,2-2.1
		c1.1,0,2.1,0.9,2.1,2.1c0,0.7-0.4,1.4-0.9,1.7l0,1.4l0,0l2.8,0c0,4.4,3.6,7.9,7.9,7.9l0,8.1C229.8,85.8,222.6,78.6,222.6,69.8"/>
	<path clip-path="url(#SVGID_2_)" fill="#005EC7" d="M238.8,78.4l0,3l0,0l-1.4,0c-0.4-0.5-1-1-1.7-1c-1.1,0-2.1,0.9-2.1,2
		c0,1.1,0.9,2.1,2.1,2.1c0.7,0,1.4-0.4,1.7-0.9l1.4,0l0,0l0,2.8c4.4,0,7.9,3.6,7.9,7.9l8.1,0C254.8,85.5,247.6,78.4,238.8,78.4"/>
	<path clip-path="url(#SVGID_2_)" fill="#FFC740" d="M254.4,94.3l-3,0l0,0l0-1.4c0.5-0.4,1-1,1-1.7c0-1.1-0.9-2.1-2-2.1
		c-1.1,0-2.1,0.9-2.1,2c0,0.7,0.4,1.4,0.9,1.7l0,1.4l0,0l-2.8,0c0,4.4-3.6,7.9-8,7.8l-0.1,8.1C247.1,110.2,254.3,103.1,254.4,94.3"
		/>
	<path clip-path="url(#SVGID_2_)" fill="#FF7361" d="M238.3,102.1l0,3l0,0l1.4,0c0.4-0.5,1-1,1.7-1c1.1,0,2.1,0.9,2.1,2
		c0,1.1-0.9,2.1-2,2.1c-0.7,0-1.4-0.4-1.7-0.9l-1.4,0l0,0l0,2.8c-4.4,0-7.9,3.6-7.8,8l-8.1,0.1C222.4,109.4,229.5,102.1,238.3,102.1
		"/>
	<path clip-path="url(#SVGID_2_)" fill="#FFC740" d="M225.4,118.2v-1.4c-0.5-0.4-0.9-1-0.9-1.7c0-1.1,0.9-2,2-2s2,0.9,2,2
		c0,0.7-0.4,1.3-0.9,1.7v1.4l2.9,0v28.9l-8.1,0.1v-29L225.4,118.2z"/>
	<path clip-path="url(#SVGID_2_)" fill="#005EC7" d="M222.6,147.3l3,0l0,0l0-1.4c-0.5-0.4-1-1-1-1.7c0-1.1,0.9-2.1,2-2.1
		c1.1,0,2.1,0.9,2.1,2.1c0,0.7-0.4,1.4-0.9,1.7l0,1.4l0,0l2.8,0c0,4.4,4.1,7.7,8.4,7.7v8C230.3,163,222.6,156.1,222.6,147.3"/>
	<path clip-path="url(#SVGID_2_)" fill="#FF7361" d="M238.4,154.4v2.9h-1.4c-0.4-0.5-1-0.9-1.7-0.9c-1.1,0-2,0.9-2,2
		c0,1.1,0.9,2,2,2c0.7,0,1.3-0.4,1.7-1h1.4v3c14.7,0,27,12,27,26.8c0,0,0,0.1,0,0.1h8.1c0,0,0-0.1,0-0.1
		C273.5,170,258.1,154.4,238.4,154.4"/>
	<path clip-path="url(#SVGID_2_)" fill="#005EC7" d="M270.6,189.2v-1.4c0.5-0.4,0.9-1,0.9-1.7c0-1.1-0.9-2-2-2c-1.1,0-2,0.9-2,2
		c0,0.7,0.4,1.3,0.9,1.7v1.4l-2.9,0v28.9l8.1,0.1v-29L270.6,189.2z"/>
	<path clip-path="url(#SVGID_2_)" fill="#FFC740" d="M273.6,217.9l-3,0l0,0l0-1.4c0.5-0.4,1-1,1-1.7c0-1.1-0.9-2.1-2-2.1
		c-1.1,0-2.1,0.9-2.1,2c0,0.7,0.4,1.4,0.9,1.7l0,1.4l0,0l-2.8,0c0,4.4-3.6,7.9-8,7.8l-0.1,8.1C266.3,233.8,273.5,226.7,273.6,217.9"
		/>
	<path clip-path="url(#SVGID_2_)" fill="#FF7361" d="M257.5,228.6h1.4c0.4-0.5,1-0.9,1.7-0.9c1.1,0,2,0.9,2,2c0,1.1-0.9,2-2,2
		c-0.7,0-1.3-0.4-1.7-0.9h-1.4l0,2.9h-28.9l-0.1-8.1h29L257.5,228.6z"/>
	<path clip-path="url(#SVGID_2_)" fill="#FFC740" d="M228.8,225.6l0,3l0,0l1.4,0c0.4-0.5,1-1,1.7-1c1.1,0,2.1,0.9,2.1,2
		c0,1.1-0.9,2.1-2,2.1c-0.7,0-1.4-0.4-1.7-0.9l-1.4,0l0,0l0,2.8c-4.4,0-7.9,3.6-7.8,8l-8.1,0.1C212.9,233,220,225.7,228.8,225.6"/>
	<path clip-path="url(#SVGID_2_)" fill="#005EC7" d="M213,241.8l3,0l0,0l0-1.4c-0.5-0.4-1-1-1-1.7c0-1.1,0.9-2.1,2-2.1
		c1.1,0,2.1,0.9,2.1,2c0,0.7-0.4,1.4-0.9,1.7l0,1.4l0,0l2.8,0c0,4.4,3.6,7.9,8,7.8l0.1,8.1C220.3,257.7,213.1,250.6,213,241.8"/>
	<path clip-path="url(#SVGID_2_)" fill="#FF7361" d="M228.6,254.7h-1.4c-0.4,0.5-1,0.9-1.7,0.9c-1.1,0-2-0.9-2-2c0-1.1,0.9-2,2-2
		c0.7,0,1.3,0.4,1.7,0.9h1.4l0-2.9h28.9l0.1,8.1h-29L228.6,254.7z"/>
	<path clip-path="url(#SVGID_2_)" fill="#FFC740" d="M257.1,249.6l0,3l0,0l-1.4,0c-0.4-0.5-1-1-1.7-1c-1.1,0-2.1,0.9-2.1,2
		c0,1.1,0.9,2.1,2,2.1c0.7,0,1.4-0.4,1.7-0.9l1.4,0l0,0l0,2.8c4.4,0,7.9,3.6,7.8,8l8.1,0.1C273,256.9,265.9,249.6,257.1,249.6"/>
	<path clip-path="url(#SVGID_2_)" fill="#FF7361" d="M268.4,264.7v-1.4c-0.5-0.4-0.9-1-0.9-1.7c0-1.1,0.9-2,2-2c1.1,0,2,0.9,2,2
		c0,0.7-0.4,1.3-0.9,1.7v1.4l2.9,0v28.9l-8.1,0.1v-29L268.4,264.7z"/>
	<path clip-path="url(#SVGID_2_)" fill="#FF7361" d="M241.9,187.6c0.7-0.6,1-1.2,1-1.9c0-0.7-0.4-1.3-1-1.9
		c-0.4-0.4-0.7-0.7-0.7-1.1s0.2-0.7,0.7-1.1l-0.7-0.8c-0.7,0.6-1,1.2-1,1.9c0,0.7,0.4,1.3,1,1.9c0.4,0.4,0.7,0.7,0.7,1.1
		c0,0.3-0.2,0.7-0.7,1.1L241.9,187.6z"/>
	<path clip-path="url(#SVGID_2_)" fill="#FF7361" d="M241.9,181.8c0.7-0.6,1-1.2,1-1.9c0-0.6-0.4-1.3-1-1.9
		c-0.4-0.4-0.7-0.7-0.7-1.1c0-0.3,0.2-0.7,0.7-1.1l-0.7-0.8c-0.7,0.6-1,1.2-1,1.9c0,0.7,0.4,1.3,1,1.9c0.4,0.4,0.7,0.7,0.7,1.1
		s-0.2,0.7-0.7,1.1L241.9,181.8z"/>
</g>
<rect x="222.7" y="197.7" fill="#FFC740" width="25.1" height="18.2"/>
<polygon fill="#FF7361" points="235.2,190.7 220.7,197.7 249.7,197.7 "/>
<rect x="227.8" y="201.2" fill="#005EC7" width="3.2" height="3.2"/>
<rect x="233.4" y="208.8" fill="#FF7361" width="3.6" height="7"/>
<rect x="239.9" y="190.8" fill="#FF7361" width="3.3" height="4.7"/>
<rect x="185.5" y="272.9" fill="#FF7361" width="2.7" height="11"/>
<g>
	<defs>
		<rect id="SVGID_3_" x="3.5" y="1" width="275.3" height="358.3"/>
	</defs>
	<clipPath id="SVGID_4_">
		<use xlink:href="#SVGID_3_"  overflow="visible"/>
	</clipPath>
	<path clip-path="url(#SVGID_4_)" fill="#FF7361" d="M187.3,279v-2.2c-1.5,0-2-0.4-2.3-0.7c-0.6-0.6-0.8-2-0.7-4.1l-2.1-0.1
		c-0.2,2.8,0.2,4.6,1.3,5.7C184.3,278.6,185.6,279,187.3,279"/>
	<path clip-path="url(#SVGID_4_)" fill="#FFC740" d="M177.7,265.8c0,5.1,4.1,9.2,9.2,9.2c5.1,0,9.2-4.1,9.2-9.2s-4.1-9.2-9.2-9.2
		C181.8,256.6,177.7,260.7,177.7,265.8"/>
	<path clip-path="url(#SVGID_4_)" fill="#005EC7" d="M246.1,309.2c-2-0.8-3.6-2.6-4.8-5.5c-1-2.5-2.4-4.2-4.1-4.8
		c-1.7-0.7-3.8-0.4-6.3,0.8l-0.5-1c5.5-2.7,9.7-1.1,12,4.6c1,2.5,2.4,4.2,4.1,4.8c1.7,0.7,3.8,0.4,6.3-0.8l0.5,1
		C250.6,309.7,248.2,309.9,246.1,309.2"/>
	<path clip-path="url(#SVGID_4_)" fill="#005EC7" d="M268.6,317.8c-2-0.8-3.6-2.6-4.8-5.5c-1-2.5-2.4-4.2-4.1-4.8
		c-1.7-0.7-3.8-0.4-6.3,0.8l-0.5-1c5.5-2.7,9.7-1.1,12,4.6c1,2.5,2.4,4.2,4.1,4.8c1.7,0.7,3.8,0.4,6.3-0.8l0.5,1
		C273,318.3,270.6,318.6,268.6,317.8"/>
	<path clip-path="url(#SVGID_4_)" fill="#005EC7" d="M249.2,304.2c-2-0.8-3.6-2.6-4.8-5.5c-1-2.5-2.4-4.2-4.1-4.8
		c-1.7-0.7-3.8-0.4-6.3,0.8l-0.5-1c5.5-2.7,9.7-1.1,12,4.6c1,2.5,2.4,4.2,4.1,4.8c1.7,0.7,3.8,0.4,6.3-0.8l0.5,1
		C253.6,304.7,251.2,304.9,249.2,304.2"/>
	<path clip-path="url(#SVGID_4_)" fill="#005EC7" d="M271.6,312.8c-2-0.8-3.6-2.6-4.8-5.5c-1-2.5-2.4-4.2-4.1-4.8
		c-1.7-0.7-3.8-0.4-6.3,0.8l-0.5-1c5.5-2.7,9.7-1.1,12,4.6c1,2.5,2.4,4.2,4.1,4.8c1.7,0.7,3.8,0.4,6.3-0.8l0.5,1
		C276,313.3,273.6,313.6,271.6,312.8"/>
	<path clip-path="url(#SVGID_4_)" fill="#005EC7" d="M107.5,318.1c-2.1,0.6-3.8,2.3-5.2,5c-1.2,2.4-2.8,4-4.5,4.5
		c-1.8,0.5-3.9,0.1-6.2-1.3l-0.6,1c5.3,3.1,9.5,1.9,12.3-3.6c1.2-2.4,2.8-4,4.5-4.5c1.8-0.5,3.9-0.1,6.2,1.3l0.6-1
		C112,318,109.6,317.5,107.5,318.1"/>
	<path clip-path="url(#SVGID_4_)" fill="#005EC7" d="M130.6,311.4c-2.1,0.6-3.8,2.3-5.2,5c-1.2,2.4-2.8,4-4.5,4.5
		c-1.8,0.5-3.9,0.1-6.2-1.3l-0.6,1c5.3,3.1,9.5,1.9,12.3-3.6c1.2-2.4,2.8-4,4.5-4.5c1.8-0.5,3.9-0.1,6.2,1.3l0.6-1
		C135,311.3,132.6,310.8,130.6,311.4"/>
	<path clip-path="url(#SVGID_4_)" fill="#005EC7" d="M110.1,323.4c-2.1,0.6-3.8,2.3-5.2,5c-1.2,2.4-2.8,4-4.5,4.5
		c-1.8,0.5-3.9,0.1-6.2-1.3l-0.6,1c5.3,3.1,9.5,1.9,12.3-3.6c1.2-2.4,2.8-4,4.5-4.5c1.8-0.5,3.9-0.1,6.2,1.3l0.6-1
		C114.6,323.2,112.2,322.8,110.1,323.4"/>
	<path clip-path="url(#SVGID_4_)" fill="#005EC7" d="M133.2,316.6c-2.1,0.6-3.8,2.3-5.2,5c-1.2,2.4-2.8,4-4.5,4.5
		c-1.8,0.5-3.9,0.1-6.2-1.3l-0.6,1c5.3,3.1,9.5,1.9,12.3-3.6c1.2-2.4,2.8-4,4.5-4.5c1.8-0.5,3.9-0.1,6.2,1.3l0.6-1
		C137.6,316.5,135.2,316,133.2,316.6"/>
	<path clip-path="url(#SVGID_4_)" fill="#005EC7" d="M61.7,60.6c-1-1.9-1.1-4.3-0.1-7.2c0.9-2.6,0.8-4.8,0-6.4
		c-0.9-1.6-2.7-2.8-5.3-3.5l0.3-1.1c5.9,1.5,8.1,5.4,6.2,11.3c-0.8,2.6-0.8,4.8,0,6.4c0.9,1.6,2.7,2.8,5.3,3.5l-0.3,1.1
		C64.7,63.9,62.7,62.5,61.7,60.6"/>
	<path clip-path="url(#SVGID_4_)" fill="#005EC7" d="M73.2,81.7c-1-1.9-1.1-4.3-0.1-7.2c0.9-2.6,0.8-4.8,0-6.4
		c-0.9-1.6-2.7-2.8-5.3-3.5l0.3-1.1c5.9,1.5,8.1,5.4,6.2,11.3c-0.8,2.6-0.8,4.8,0,6.4c0.9,1.6,2.7,2.8,5.3,3.5l-0.3,1.1
		C76.3,84.9,74.3,83.6,73.2,81.7"/>
	<path clip-path="url(#SVGID_4_)" fill="#005EC7" d="M67.2,58.8c-1-1.9-1.1-4.3-0.1-7.2c0.9-2.6,0.8-4.8,0-6.4
		c-0.9-1.6-2.7-2.8-5.3-3.5l0.3-1.1c5.9,1.5,8.1,5.4,6.2,11.3c-0.9,2.6-0.8,4.8,0,6.4c0.9,1.6,2.7,2.8,5.3,3.5l-0.3,1.1
		C70.3,62,68.3,60.6,67.2,58.8"/>
	<path clip-path="url(#SVGID_4_)" fill="#005EC7" d="M78.8,79.8c-1-1.9-1.1-4.3-0.1-7.2c0.9-2.6,0.8-4.8,0-6.4
		c-0.9-1.6-2.7-2.8-5.3-3.5l0.3-1.1c5.9,1.5,8.1,5.4,6.2,11.3c-0.9,2.6-0.8,4.8,0,6.4c0.9,1.6,2.7,2.8,5.3,3.5l-0.3,1.1
		C81.8,83.1,79.8,81.7,78.8,79.8"/>
	<path clip-path="url(#SVGID_4_)" fill="#FFC740" d="M273.2,292.6l-3,0l0,0l0-1.4c0.5-0.4,1-1,1-1.7c0-1.1-0.9-2.1-2-2.1
		c-1.1,0-2.1,0.9-2.1,2c0,0.7,0.4,1.4,0.9,1.7l0,1.4l0,0l-2.8,0c0,4.4-3.6,7.9-8,7.8l-0.1,8.1C265.9,308.5,273.1,301.4,273.2,292.6"
		/>
	<path clip-path="url(#SVGID_4_)" fill="#FF7361" d="M257.4,300.2l0,3l0,0l1.4,0c0.4-0.5,1-1,1.7-1c1.1,0,2.1,0.9,2.1,2
		c0,1.1-0.9,2.1-2.1,2.1c-0.7,0-1.4-0.4-1.7-0.9l-1.4,0l0,0l0,2.8c-4.4,0-7.7,4.1-7.7,8.4h-8C241.7,307.9,248.6,300.2,257.4,300.2"
		/>
	<path clip-path="url(#SVGID_4_)" fill="#005EC7" d="M249.7,316.4l-3,0l0,0l0-1.4c0.5-0.4,1-1,1-1.7c0-1.1-0.9-2.1-2-2.1
		c-1.1,0-2.1,0.9-2.1,2c0,0.7,0.4,1.4,0.9,1.7l0,1.4l0,0l-2.8,0c0,4.4-3.6,7.9-8,7.8l-0.1,8.1C242.4,332.4,249.6,325.3,249.7,316.4"
		/>
	<path clip-path="url(#SVGID_4_)" fill="#FF7361" d="M233.8,327.1h1.4c0.4-0.5,1-0.9,1.7-0.9c1.1,0,2,0.9,2,2c0,1.1-0.9,2-2,2
		c-0.7,0-1.3-0.4-1.7-0.9h-1.4l0,2.9h-28.9l-0.1-8.1h29L233.8,327.1z"/>
	<path clip-path="url(#SVGID_4_)" fill="#FFC740" d="M205.5,327.1h1.4c0.4-0.5,1-0.9,1.7-0.9c1.1,0,2,0.9,2,2c0,1.1-0.9,2-2,2
		c-0.7,0-1.3-0.4-1.7-0.9h-1.4l0,2.9h-28.9l-0.1-8.1h29L205.5,327.1z"/>
	<path clip-path="url(#SVGID_4_)" fill="#005EC7" d="M176.5,329.3h1.4c0.4,0.5,1,0.9,1.7,0.9c1.1,0,2-0.9,2-2c0-1.1-0.9-2-2-2
		c-0.7,0-1.3,0.4-1.7,0.9h-1.4l0-2.9h-28.9l-0.1,8.1h29L176.5,329.3z"/>
	<path clip-path="url(#SVGID_4_)" fill="#FF7361" d="M148.3,332.3v-2.9h1.4c0.4,0.5,1,0.9,1.7,0.9c1.1,0,2-0.9,2-2c0-1.1-0.9-2-2-2
		c-0.7,0-1.3,0.4-1.7,1h-1.4v-3c-14.7,0-27-12-27-26.8c0,0,0-0.1,0-0.1h-8.1c0,0,0,0.1,0,0.1C113.2,316.7,128.7,332.3,148.3,332.3"
		/>
	<path clip-path="url(#SVGID_4_)" fill="#005EC7" d="M113.2,297.8h2.9v1.4c-0.5,0.4-0.9,1-0.9,1.7c0,1.1,0.9,2,2,2c1.1,0,2-0.9,2-2
		c0-0.7-0.4-1.3-1-1.7v-1.4h3c0-14.7,12-27,26.8-27c0,0,0.1,0,0.1,0v-8.1c0,0-0.1,0-0.1,0C128.8,262.7,113.2,278.2,113.2,297.8"/>
	<path clip-path="url(#SVGID_4_)" fill="#FFC740" d="M148.1,270.7l0-3l0,0l-1.4,0c-0.4,0.5-1,1-1.7,1c-1.1,0-2.1-0.9-2.1-2
		c0-1.1,0.9-2.1,2-2.1c0.7,0,1.4,0.4,1.7,0.9l1.4,0l0,0l0-2.8c4.4,0,7.9-3.6,7.8-8l8.1-0.1C164,263.4,156.9,270.6,148.1,270.7"/>
	<path clip-path="url(#SVGID_4_)" fill="#005EC7" d="M164,255l-3,0l0,0l0,1.4c0.5,0.4,1,1,1,1.7c0,1.1-0.9,2.1-2,2.1
		c-1.1,0-2.1-0.9-2.1-2.1c0-0.7,0.4-1.4,0.9-1.7l0-1.4l0,0l-2.8,0c0-4.4-4.1-7.7-8.4-7.7v-8C156.3,239.3,164,246.2,164,255"/>
	<path clip-path="url(#SVGID_4_)" fill="#FFC740" d="M148.1,244.4h1.4c0.4,0.5,1,0.9,1.7,0.9c1.1,0,2-0.9,2-2c0-1.1-0.9-2-2-2
		c-0.7,0-1.3,0.4-1.7,0.9h-1.4l0-2.9h-28.9l-0.1,8.1h29L148.1,244.4z"/>
	<path clip-path="url(#SVGID_4_)" fill="#FF7361" d="M119.3,247.2l0-3l0,0l1.4,0c0.4,0.5,1,1,1.7,1c1.1,0,2.1-0.9,2.1-2
		c0-1.1-0.9-2.1-2.1-2.1c-0.7,0-1.4,0.4-1.7,0.9l-1.4,0l0,0l0-2.8c-4.4,0-7.7-5.1-7.7-9.4h-8C103.5,238.5,110.5,247.2,119.3,247.2"
		/>
	<path clip-path="url(#SVGID_4_)" fill="#005EC7" d="M111.4,230.1h-2.9v1.4c0.5,0.4,0.9,1,0.9,1.7c0,1.1-0.9,2-2,2c-1.1,0-2-0.9-2-2
		c0-0.7,0.4-1.3,1-1.7v-1.4h-3c0-14.7-12-27-26.8-27c0,0-0.1,0-0.1,0v-8.1c0,0,0.1,0,0.1,0C95.8,195,111.4,210.5,111.4,230.1"/>
	<path clip-path="url(#SVGID_4_)" fill="#FFC740" d="M77.2,197.9h1.4c0.4-0.5,1-0.9,1.7-0.9c1.1,0,2,0.9,2,2c0,1.1-0.9,2-2,2
		c-0.7,0-1.3-0.4-1.7-0.9h-1.4l0,2.9H48.2l-0.1-8.1h29L77.2,197.9z"/>
	<path clip-path="url(#SVGID_4_)" fill="#FF7361" d="M48.7,197.9h1.4c0.4-0.5,1-0.9,1.7-0.9c1.1,0,2,0.9,2,2s-0.9,2-2,2
		c-0.7,0-1.3-0.4-1.7-0.9h-1.4l0,2.9H19.8l-0.1-8.1h29L48.7,197.9z"/>
	<path clip-path="url(#SVGID_4_)" fill="#FFC740" d="M19.9,203.1l0-3l0,0l1.4,0c0.4,0.5,1,1,1.7,1c1.1,0,2.1-0.9,2.1-2
		c0-1.1-0.9-2.1-2-2.1c-0.7,0-1.4,0.4-1.7,0.9l-1.4,0l0,0l0-2.8c-4.4,0-7.9-3.6-7.8-8l-8.1-0.1C4,195.7,11.1,203,19.9,203.1"/>
	<path clip-path="url(#SVGID_4_)" fill="#FF7361" d="M4.1,187.2l3,0l0,0l0,1.4c-0.5,0.4-1,1-1,1.7c0,1.1,0.9,2.1,2,2.1
		s2.1-0.9,2.1-2c0-0.7-0.4-1.4-0.9-1.7l0-1.4l0,0l2.8,0c0-4.4,3.6-7.9,8-7.8l0.1-8.1C11.4,171.3,4.1,178.4,4.1,187.2"/>
	<path clip-path="url(#SVGID_4_)" fill="#005EC7" d="M19.1,174.3h-1.4c-0.4-0.5-1-0.9-1.7-0.9c-1.1,0-2,0.9-2,2c0,1.1,0.9,2,2,2
		c0.7,0,1.3-0.4,1.7-0.9h1.4l0,2.9h28.9l0.1-8.1h-29L19.1,174.3z"/>
	<path clip-path="url(#SVGID_4_)" fill="#FFC740" d="M47.9,179.4l0-3l0,0l-1.4,0c-0.4,0.5-1,1-1.7,1c-1.1,0-2.1-0.9-2.1-2
		c0-1.1,0.9-2.1,2-2.1c0.7,0,1.4,0.4,1.7,0.9l1.4,0l0,0l0-2.8c4.4,0,7.9-3.6,7.8-8l8.1-0.1C63.8,172.1,56.7,179.3,47.9,179.4"/>
	<path clip-path="url(#SVGID_4_)" fill="#FF7361" d="M63.8,163.6l-3,0l0,0l0,1.4c0.5,0.4,1,1,1,1.7c0,1.1-0.9,2.1-2,2.1
		c-1.1,0-2.1-0.9-2.1-2c0-0.7,0.4-1.4,0.9-1.7l0-1.4l0,0l-2.8,0c0-4.4-3.6-7.9-8-7.8l-0.1-8.1C56.4,147.7,63.7,154.8,63.8,163.6"/>
	<path clip-path="url(#SVGID_4_)" fill="#005EC7" d="M48.1,150.7h1.4c0.4-0.5,1-0.9,1.7-0.9c1.1,0,2,0.9,2,2c0,1.1-0.9,2-2,2
		c-0.7,0-1.3-0.4-1.7-0.9h-1.4l0,2.9H19.2l-0.1-8.1h29L48.1,150.7z"/>
	<path clip-path="url(#SVGID_4_)" fill="#FFC740" d="M19.3,155.8l0-3l0,0l1.4,0c0.4,0.5,1,1,1.7,1c1.1,0,2.1-0.9,2.1-2
		c0-1.1-0.9-2.1-2-2.1c-0.7,0-1.4,0.4-1.7,0.9l-1.4,0l0,0l0-2.8c-4.4,0-7.9-3.6-7.8-8l-8.1-0.1C3.4,148.5,10.5,155.7,19.3,155.8"/>
	<path clip-path="url(#SVGID_4_)" fill="#FF7361" d="M3.5,140l3,0l0,0l0,1.4c-0.5,0.4-1,1-1,1.7c0,1.1,0.9,2.1,2,2.1s2.1-0.9,2.1-2
		c0-0.7-0.4-1.4-0.9-1.7l0-1.4l0,0l2.8,0c0-4.4,3.6-7.9,8-7.8l0.1-8.1C10.8,124.1,3.6,131.2,3.5,140"/>
	<path clip-path="url(#SVGID_4_)" fill="#FFC740" d="M18.5,129.3h-1.4c-0.4,0.5-1,0.9-1.7,0.9c-1.1,0-2-0.9-2-2c0-1.1,0.9-2,2-2
		c0.7,0,1.3,0.4,1.7,0.9h1.4l0-2.9h28.9l0.1,8.1h-29L18.5,129.3z"/>
	<path clip-path="url(#SVGID_4_)" fill="#005EC7" d="M47.6,132.1l0-3l0,0l-1.4,0c-0.4,0.5-1,1-1.7,1c-1.1,0-2.1-0.9-2.1-2
		c0-1.1,0.9-2.1,2.1-2.1c0.7,0,1.4,0.4,1.7,0.9l1.4,0l0,0l0-2.8c4.4,0,7.7-4.1,7.7-8.4h8C63.3,124.4,56.4,132.1,47.6,132.1"/>
	<path clip-path="url(#SVGID_4_)" fill="#FFC740" d="M60.2,116v1.4c0.5,0.4,0.9,1,0.9,1.7c0,1.1-0.9,2-2,2c-1.1,0-2-0.9-2-2
		c0-0.7,0.4-1.3,0.9-1.7V116l-2.9,0V87l8.1-0.1v29L60.2,116z"/>
	<path clip-path="url(#SVGID_4_)" fill="#FF7361" d="M54.7,87.6h2.9v1.4c-0.5,0.4-0.9,1-0.9,1.7c0,1.1,0.9,2,2,2c1.1,0,2-0.9,2-2
		c0-0.7-0.4-1.3-1-1.7v-1.4h3c0-14.7,12-27,26.8-27c0,0,0.1,0,0.1,0v-8.1c0,0-0.1,0-0.1,0C70.3,52.5,54.7,67.9,54.7,87.6"/>
	<path clip-path="url(#SVGID_4_)" fill="#005EC7" d="M99.9,154.1c0,2.8,2.2,5,5,5c2.8,0,5-2.2,5-5c0-2.8-2.2-5-5-5
		C102.2,149.1,99.9,151.3,99.9,154.1"/>
	<path clip-path="url(#SVGID_4_)" fill="#005EC7" d="M87.8,287.1c0,2.8,2.2,5,5,5c2.8,0,5-2.2,5-5s-2.2-5-5-5
		C90.1,282.1,87.8,284.3,87.8,287.1"/>
	<path clip-path="url(#SVGID_4_)" fill="#005EC7" d="M63.4,187.1c0,2.8,2.2,5,5,5c2.8,0,5-2.2,5-5c0-2.8-2.2-5-5-5
		C65.6,182.1,63.4,184.3,63.4,187.1"/>
	<path clip-path="url(#SVGID_4_)" fill="#005EC7" d="M10.2,12c0,2.8,2.2,5,5,5c2.8,0,5-2.2,5-5c0-2.8-2.2-5-5-5
		C12.5,7,10.2,9.3,10.2,12"/>
	<path clip-path="url(#SVGID_4_)" fill="#005EC7" d="M264.5,69.8c0,2.8,2.2,5,5,5c2.8,0,5-2.2,5-5c0-2.8-2.2-5-5-5
		C266.8,64.8,264.5,67.1,264.5,69.8"/>
	<path clip-path="url(#SVGID_4_)" fill="#005EC7" d="M78.1,354.3c0,2.8,2.2,5,5,5c2.8,0,5-2.2,5-5c0-2.8-2.2-5-5-5
		C80.4,349.3,78.1,351.5,78.1,354.3"/>
	<path clip-path="url(#SVGID_4_)" fill="#005EC7" d="M212.3,308.4c0,2.8,2.2,5,5,5c2.8,0,5-2.2,5-5c0-2.8-2.2-5-5-5
		C214.6,303.4,212.3,305.7,212.3,308.4"/>
</g>
<rect x="79.3" y="100.5" fill="#FF7361" width="3.7" height="10.4"/>
<polyline fill="#005EC7" points="85.8,108.4 81.2,90.4 76.5,108.4 "/>
<rect x="31.3" y="95" fill="#FFC740" width="12.8" height="15.1"/>
<polygon fill="#FF7361" points="37.7,85.7 30.3,95 45.1,95 "/>
<g>
	<defs>
		<rect id="SVGID_5_" x="3.5" y="1" width="275.3" height="358.3"/>
	</defs>
	<clipPath id="SVGID_6_">
		<use xlink:href="#SVGID_5_"  overflow="visible"/>
	</clipPath>
	<path clip-path="url(#SVGID_6_)" fill="#005EC7" d="M37.7,93.6c0.9,0,1.7-0.7,1.7-1.7c0-0.9-0.7-1.7-1.7-1.7C36.8,90.3,36,91,36,92
		C36,92.9,36.8,93.6,37.7,93.6"/>
</g>
<rect x="35.9" y="103.1" fill="#FF7361" width="3.6" height="7"/>
<rect x="125.3" y="220.3" fill="#FFC740" width="20.8" height="15.1"/>
<polygon fill="#FF7361" points="135.8,211 123.7,220.3 147.7,220.3 "/>
<rect x="128.7" y="222.8" fill="#005EC7" width="3.2" height="3.2"/>
<rect x="139.5" y="228.4" fill="#FF7361" width="3.6" height="7"/>
<g>
	<defs>
		<rect id="SVGID_7_" x="3.5" y="1" width="275.3" height="358.3"/>
	</defs>
	<clipPath id="SVGID_8_">
		<use xlink:href="#SVGID_7_"  overflow="visible"/>
	</clipPath>
	<path clip-path="url(#SVGID_8_)" fill="#005EC7" d="M153.4,304.5c-2.1,0.6-3.8,2.3-5.2,5c-1.2,2.4-2.8,4-4.5,4.5
		c-1.8,0.5-3.9,0.1-6.2-1.3l-0.6,1c5.3,3.1,9.5,1.9,12.3-3.6c1.2-2.4,2.8-4,4.5-4.5c1.8-0.5,3.9-0.1,6.2,1.3l0.6-1
		C157.8,304.4,155.4,303.9,153.4,304.5"/>
	<path clip-path="url(#SVGID_8_)" fill="#005EC7" d="M176.4,297.8c-2.1,0.6-3.8,2.3-5.2,5c-1.2,2.4-2.8,4-4.5,4.5
		c-1.8,0.5-3.9,0.1-6.2-1.3l-0.6,1c5.3,3.1,9.5,1.9,12.3-3.6c1.2-2.4,2.8-4,4.5-4.5c1.8-0.5,3.9-0.1,6.2,1.3l0.6-1
		C180.9,297.7,178.5,297.2,176.4,297.8"/>
	<path clip-path="url(#SVGID_8_)" fill="#005EC7" d="M156,309.8c-2.1,0.6-3.8,2.3-5.2,5c-1.2,2.4-2.8,4-4.5,4.5
		c-1.8,0.5-3.9,0.1-6.2-1.3l-0.6,1c5.3,3.1,9.5,1.9,12.3-3.6c1.2-2.4,2.8-4,4.5-4.5c1.8-0.5,3.9-0.1,6.2,1.3l0.6-1
		C160.4,309.7,158,309.2,156,309.8"/>
	<path clip-path="url(#SVGID_8_)" fill="#005EC7" d="M179,303c-2.1,0.6-3.8,2.3-5.2,5c-1.2,2.4-2.8,4-4.5,4.5
		c-1.8,0.5-3.9,0.1-6.2-1.3l-0.6,1c5.3,3.1,9.5,1.9,12.3-3.6c1.2-2.4,2.8-4,4.5-4.5c1.8-0.5,3.9-0.1,6.2,1.3l0.6-1
		C183.5,302.9,181.1,302.4,179,303"/>
	<path clip-path="url(#SVGID_8_)" fill="#FFC740" d="M88.9,55.4h-1.3c-0.3-0.5-1-0.9-1.6-0.9c-1.1,0-2,0.9-2,1.9c0,1.1,0.9,2,2,2
		c0.7,0,1.3-0.4,1.6-0.9h1.3l0,2.8h28l0.1-7.8H88.9L88.9,55.4z"/>
	<path clip-path="url(#SVGID_8_)" fill="#005EC7" d="M116.9,55.4h-1.3c-0.3-0.5-1-0.9-1.6-0.9c-1.1,0-2,0.9-2,1.9c0,1.1,0.9,2,2,2
		c0.7,0,1.3-0.4,1.6-0.9h1.3l0,2.8h28l0.1-7.8h-28.1L116.9,55.4z"/>
	<path clip-path="url(#SVGID_8_)" fill="#FFC740" d="M143.2,55.2h-1.4c-0.4-0.5-1-0.9-1.7-0.9c-1.1,0-2,0.9-2,2c0,1.1,0.9,2,2,2
		c0.7,0,1.3-0.4,1.7-0.9h1.4l0,2.9h28.9l0.1-8.1h-29L143.2,55.2z"/>
	<path clip-path="url(#SVGID_8_)" fill="#FF7361" d="M171.7,60.1l0-3l0,0l-1.4,0c-0.4,0.5-1,1-1.7,1c-1.1,0-2.1-0.9-2.1-2
		c0-1.1,0.9-2.1,2-2.1c0.7,0,1.4,0.4,1.7,0.9l1.4,0l0,0l0-2.8c4.4,0,7.9-3.6,7.8-8l8.1-0.1C187.6,52.8,180.5,60,171.7,60.1"/>
	<path clip-path="url(#SVGID_8_)" fill="#005EC7" d="M184.6,44.6V46c0.5,0.4,0.9,1,0.9,1.7c0,1.1-0.9,2-2,2c-1.1,0-2-0.9-2-2
		c0-0.7,0.4-1.3,0.9-1.7v-1.4l-2.9,0V15.6l8.1-0.1v29L184.6,44.6z"/>
	<path clip-path="url(#SVGID_8_)" fill="#FF7361" d="M179.4,16.8l3,0l0,0l0,1.4c-0.5,0.4-1,1-1,1.7c0,1.1,0.9,2.1,2,2.1
		c1.1,0,2.1-0.9,2.1-2c0-0.7-0.4-1.4-0.9-1.7l0-1.4l0,0l2.8,0c0-4.4,3.6-7.9,8-7.8l0.1-8.1C186.7,0.9,179.5,8,179.4,16.8"/>
	<path clip-path="url(#SVGID_8_)" fill="#FFC740" d="M195.6,1l0,3l0,0l-1.4,0c-0.4-0.5-1-1-1.7-1c-1.1,0-2.1,0.9-2.1,2
		c0,1.1,0.9,2.1,2,2.1c0.7,0,1.4-0.4,1.7-0.9l1.4,0l0,0l0,2.8c4.4,0,7.9,3.6,7.8,8l8.1,0.1C211.5,8.3,204.4,1.1,195.6,1"/>
</g>
<rect x="138" y="10" fill="#FFC740" width="25.1" height="18.2"/>
<polygon fill="#FF7361" points="150.5,3 165,10 136,10 "/>
<rect x="154.8" y="13.5" fill="#005EC7" width="3.2" height="3.2"/>
<rect x="148.7" y="21.1" fill="#FF7361" width="3.6" height="7"/>
<rect x="142.6" y="3.1" fill="#FF7361" width="3.3" height="4.7"/>
<g>
	<defs>
		<rect id="SVGID_9_" x="3.5" y="1" width="275.3" height="358.3"/>
	</defs>
	<clipPath id="SVGID_10_">
		<use xlink:href="#SVGID_9_"  overflow="visible"/>
	</clipPath>
	<path clip-path="url(#SVGID_10_)" fill="#005EC7" d="M150.5,40.1c-2.8,0-5,2.2-5,5c0,2.8,2.2,5,5,5c2.8,0,5-2.2,5-5
		C155.6,42.4,153.3,40.1,150.5,40.1"/>
</g>
<rect x="84.8" y="255.3" fill="#FF7361" width="2.7" height="11"/>
<g>
	<defs>
		<rect id="SVGID_11_" x="3.5" y="1" width="275.3" height="358.3"/>
	</defs>
	<clipPath id="SVGID_12_">
		<use xlink:href="#SVGID_11_"  overflow="visible"/>
	</clipPath>
	<path clip-path="url(#SVGID_12_)" fill="#FF7361" d="M86.7,261.4v-2.2c-1.5,0-2-0.4-2.3-0.7c-0.6-0.6-0.8-2-0.7-4.1l-2.1-0.1
		c-0.2,2.8,0.2,4.6,1.3,5.7C83.6,261,84.9,261.4,86.7,261.4"/>
	<path clip-path="url(#SVGID_12_)" fill="#FFC740" d="M77,248.2c0,5.1,4.1,9.2,9.2,9.2c5.1,0,9.2-4.1,9.2-9.2c0-5.1-4.1-9.2-9.2-9.2
		C81.1,239,77,243.1,77,248.2"/>
	<path clip-path="url(#SVGID_12_)" fill="#005EC7" d="M191,85.8c0,2.8,2.2,5,5,5c2.8,0,5-2.2,5-5c0-2.8-2.2-5-5-5
		C193.3,80.8,191,83,191,85.8"/>
	<path clip-path="url(#SVGID_12_)" fill="#FF7361" d="M206.4,17.1v-1.3c-0.5-0.3-0.9-1-0.9-1.6c0-1.1,0.9-2,1.9-2s2,0.9,2,2
		c0,0.7-0.4,1.3-0.9,1.6v1.3l2.8,0v28l-7.8,0.1V17L206.4,17.1z"/>
	<path clip-path="url(#SVGID_12_)" fill="#005EC7" d="M203.4,45.4l3,0l0,0l0-1.4c-0.5-0.4-1-1-1-1.7c0-1.1,0.9-2.1,2-2.1
		c1.1,0,2.1,0.9,2.1,2c0,0.7-0.4,1.4-0.9,1.7l0,1.4l0,0l2.8,0c0,4.4-0.8,6.4,3.7,8.4l0.1,8.1C206.3,61.8,203.4,54.2,203.4,45.4"/>
	<path clip-path="url(#SVGID_12_)" fill="#FF7361" d="M215.1,58.7h-1.3c-0.3,0.5-0.9,0.9-1.6,0.9c-1.1,0-2-0.9-2-1.9
		c0-1.1,0.9-2,2-2c0.7,0,1.3,0.4,1.6,0.9h1.3l0-2.8l0,7.8L215.1,58.7z"/>
</g>
<rect x="225.2" y="33.4" fill="#FF7361" width="2.7" height="11"/>
<g>
	<defs>
		<rect id="SVGID_13_" x="3.5" y="1" width="275.3" height="358.3"/>
	</defs>
	<clipPath id="SVGID_14_">
		<use xlink:href="#SVGID_13_"  overflow="visible"/>
	</clipPath>
	<path clip-path="url(#SVGID_14_)" fill="#FF7361" d="M226.1,39.4v-2.2c1.5,0,2-0.4,2.3-0.7c0.6-0.6,0.8-2,0.7-4.1l2.1-0.1
		c0.2,2.8-0.2,4.6-1.3,5.7C229.1,39,227.9,39.4,226.1,39.4"/>
	<path clip-path="url(#SVGID_14_)" fill="#FFC740" d="M235.7,26.2c0,5.1-4.1,9.2-9.2,9.2c-5.1,0-9.2-4.1-9.2-9.2
		c0-5.1,4.1-9.2,9.2-9.2C231.6,17,235.7,21.2,235.7,26.2"/>
</g>
</svg>
