<svg xmlns="http://www.w3.org/2000/svg" xmlns:xlink="http://www.w3.org/1999/xlink" viewBox="0 0 278.8 360.5"><defs><path id="a" d="M3.5 1h275.3v358.3H3.5z"/></defs><clipPath id="b"><use xlink:href="#a" overflow="visible"/></clipPath><path clip-path="url(#b)" fill="#005EC7" d="M229.1 53.4c2.2 0 4.3 1.2 6.4 3.5 1.9 2 3.7 3.1 5.6 3.1 1.8 0 3.7-1 5.6-2.9l.8.8c-4.3 4.4-8.7 4.4-12.8-.2-1.9-2-3.7-3.1-5.6-3.1-1.8 0-3.7 1-5.6 2.9l-.8-.8c2.1-2.2 4.3-3.3 6.4-3.3m-24-.3c2.2 0 4.3 1.2 6.4 3.5 1.9 2 3.7 3.1 5.6 3.1 1.8 0 3.7-1 5.6-2.9l.8.8c-4.3 4.4-8.7 4.4-12.8-.2-1.9-2-3.7-3.1-5.6-3.1-1.8 0-3.7 1-5.6 2.9l-.8-.8c2.1-2.2 4.2-3.3 6.4-3.3"/><path clip-path="url(#b)" fill="#005EC7" d="M228 59.1c2.2 0 4.3 1.2 6.4 3.5 1.9 2 3.7 3.1 5.6 3.1 1.8 0 3.7-1 5.6-2.9l.8.8c-4.3 4.4-8.7 4.4-12.8-.2-1.9-2-3.7-3.1-5.6-3.1-1.8 0-3.7 1-5.6 2.9l-.8-.8c2.1-2.2 4.3-3.3 6.4-3.3m-24-.3c2.2 0 4.3 1.2 6.4 3.5 1.9 2 3.7 3.1 5.6 3.1 1.8 0 3.7-1 5.6-2.9l.8.8c-4.3 4.4-8.7 4.4-12.8-.2-1.9-2-3.7-3.1-5.6-3.1-1.8 0-3.7 1-5.6 2.9l-.8-.8c2.1-2.2 4.2-3.3 6.4-3.3"/><path clip-path="url(#b)" fill="#FF7361" d="M215 53.7v3h-1.4c-.4-.5-1-1-1.7-1-1.1 0-2.1.9-2.1 2s.9 2.1 2 2.1c.7 0 1.4-.4 1.7-.9h1.4v2.8c4.4 0 7.9 3.6 7.8 8l8.1.1c.1-8.8-7-16-15.8-16.1"/><path clip-path="url(#b)" fill="#FFC740" d="M222.6 69.8h3v-1.4c-.5-.4-1-1-1-1.7 0-1.1.9-2.1 2-2.1s2.1.9 2.1 2.1c0 .7-.4 1.4-.9 1.7v1.4h2.8c0 4.4 3.6 7.9 7.9 7.9v8.1c-8.7 0-15.9-7.2-15.9-16"/><path clip-path="url(#b)" fill="#005EC7" d="M238.8 78.4v3h-1.4c-.4-.5-1-1-1.7-1-1.1 0-2.1.9-2.1 2s.9 2.1 2.1 2.1c.7 0 1.4-.4 1.7-.9h1.4v2.8c4.4 0 7.9 3.6 7.9 7.9h8.1c0-8.8-7.2-15.9-16-15.9"/><path clip-path="url(#b)" fill="#FFC740" d="M254.4 94.3h-3v-1.4c.5-.4 1-1 1-1.7 0-1.1-.9-2.1-2-2.1s-2.1.9-2.1 2c0 .7.4 1.4.9 1.7v1.4h-2.8c0 4.4-3.6 7.9-8 7.8l-.1 8.1c8.8.1 16-7 16.1-15.8"/><path clip-path="url(#b)" fill="#FF7361" d="M238.3 102.1v3h1.4c.4-.5 1-1 1.7-1 1.1 0 2.1.9 2.1 2s-.9 2.1-2 2.1c-.7 0-1.4-.4-1.7-.9h-1.4v2.8c-4.4 0-7.9 3.6-7.8 8l-8.1.1c-.1-8.8 7-16.1 15.8-16.1"/><path clip-path="url(#b)" fill="#FFC740" d="M225.4 118.2v-1.4c-.5-.4-.9-1-.9-1.7 0-1.1.9-2 2-2s2 .9 2 2c0 .7-.4 1.3-.9 1.7v1.4h2.9v28.9l-8.1.1v-29h3z"/><path clip-path="url(#b)" fill="#005EC7" d="M222.6 147.3h3v-1.4c-.5-.4-1-1-1-1.7 0-1.1.9-2.1 2-2.1s2.1.9 2.1 2.1c0 .7-.4 1.4-.9 1.7v1.4h2.8c0 4.4 4.1 7.7 8.4 7.7v8c-8.7 0-16.4-6.9-16.4-15.7"/><path clip-path="url(#b)" fill="#FF7361" d="M238.4 154.4v2.9H237c-.4-.5-1-.9-1.7-.9-1.1 0-2 .9-2 2s.9 2 2 2c.7 0 1.3-.4 1.7-1h1.4v3c14.7 0 27 12 27 26.8v.1h8.1v-.1c0-19.2-15.4-34.8-35.1-34.8"/><path clip-path="url(#b)" fill="#005EC7" d="M270.6 189.2v-1.4c.5-.4.9-1 .9-1.7 0-1.1-.9-2-2-2s-2 .9-2 2c0 .7.4 1.3.9 1.7v1.4h-2.9v28.9l8.1.1v-29h-3z"/><path clip-path="url(#b)" fill="#FFC740" d="M273.6 217.9h-3v-1.4c.5-.4 1-1 1-1.7 0-1.1-.9-2.1-2-2.1s-2.1.9-2.1 2c0 .7.4 1.4.9 1.7v1.4h-2.8c0 4.4-3.6 7.9-8 7.8l-.1 8.1c8.8.1 16-7 16.1-15.8"/><path clip-path="url(#b)" fill="#FF7361" d="M257.5 228.6h1.4c.4-.5 1-.9 1.7-.9 1.1 0 2 .9 2 2s-.9 2-2 2c-.7 0-1.3-.4-1.7-.9h-1.4v2.9h-28.9l-.1-8.1h29v3z"/><path clip-path="url(#b)" fill="#FFC740" d="M228.8 225.6v3h1.4c.4-.5 1-1 1.7-1 1.1 0 2.1.9 2.1 2s-.9 2.1-2 2.1c-.7 0-1.4-.4-1.7-.9h-1.4v2.8c-4.4 0-7.9 3.6-7.8 8l-8.1.1c-.1-8.7 7-16 15.8-16.1"/><path clip-path="url(#b)" fill="#005EC7" d="M213 241.8h3v-1.4c-.5-.4-1-1-1-1.7 0-1.1.9-2.1 2-2.1s2.1.9 2.1 2c0 .7-.4 1.4-.9 1.7v1.4h2.8c0 4.4 3.6 7.9 8 7.8l.1 8.1c-8.8.1-16-7-16.1-15.8"/><path clip-path="url(#b)" fill="#FF7361" d="M228.6 254.7h-1.4c-.4.5-1 .9-1.7.9-1.1 0-2-.9-2-2s.9-2 2-2c.7 0 1.3.4 1.7.9h1.4v-2.9h28.9l.1 8.1h-29v-3z"/><path clip-path="url(#b)" fill="#FFC740" d="M257.1 249.6v3h-1.4c-.4-.5-1-1-1.7-1-1.1 0-2.1.9-2.1 2s.9 2.1 2 2.1c.7 0 1.4-.4 1.7-.9h1.4v2.8c4.4 0 7.9 3.6 7.8 8l8.1.1c.1-8.8-7-16.1-15.8-16.1"/><path clip-path="url(#b)" fill="#FF7361" d="M268.4 264.7v-1.4c-.5-.4-.9-1-.9-1.7 0-1.1.9-2 2-2s2 .9 2 2c0 .7-.4 1.3-.9 1.7v1.4h2.9v28.9l-8.1.1v-29h3zm-26.5-77.1c.7-.6 1-1.2 1-1.9s-.4-1.3-1-1.9c-.4-.4-.7-.7-.7-1.1s.2-.7.7-1.1l-.7-.8c-.7.6-1 1.2-1 1.9s.4 1.3 1 1.9c.4.4.7.7.7 1.1 0 .3-.2.7-.7 1.1l.7.8z"/><path clip-path="url(#b)" fill="#FF7361" d="M241.9 181.8c.7-.6 1-1.2 1-1.9 0-.6-.4-1.3-1-1.9-.4-.4-.7-.7-.7-1.1 0-.3.2-.7.7-1.1l-.7-.8c-.7.6-1 1.2-1 1.9s.4 1.3 1 1.9c.4.4.7.7.7 1.1s-.2.7-.7 1.1l.7.8z"/><path fill="#FFC740" d="M222.7 197.7h25.1v18.2h-25.1z"/><path fill="#FF7361" d="M235.2 190.7l-14.5 7h29"/><path fill="#005EC7" d="M227.8 201.2h3.2v3.2h-3.2z"/><path fill="#FF7361" d="M233.4 208.8h3.6v7h-3.6zm6.5-18h3.3v4.7h-3.3zm-54.4 82.1h2.7v11h-2.7z"/><defs><path id="c" d="M3.5 1h275.3v358.3H3.5z"/></defs><clipPath id="d"><use xlink:href="#c" overflow="visible"/></clipPath><path clip-path="url(#d)" fill="#FF7361" d="M187.3 279v-2.2c-1.5 0-2-.4-2.3-.7-.6-.6-.8-2-.7-4.1l-2.1-.1c-.2 2.8.2 4.6 1.3 5.7.8 1 2.1 1.4 3.8 1.4"/><path clip-path="url(#d)" fill="#FFC740" d="M177.7 265.8c0 5.1 4.1 9.2 9.2 9.2s9.2-4.1 9.2-9.2-4.1-9.2-9.2-9.2-9.2 4.1-9.2 9.2"/><path clip-path="url(#d)" fill="#005EC7" d="M246.1 309.2c-2-.8-3.6-2.6-4.8-5.5-1-2.5-2.4-4.2-4.1-4.8-1.7-.7-3.8-.4-6.3.8l-.5-1c5.5-2.7 9.7-1.1 12 4.6 1 2.5 2.4 4.2 4.1 4.8 1.7.7 3.8.4 6.3-.8l.5 1c-2.7 1.4-5.1 1.6-7.2.9m22.5 8.6c-2-.8-3.6-2.6-4.8-5.5-1-2.5-2.4-4.2-4.1-4.8-1.7-.7-3.8-.4-6.3.8l-.5-1c5.5-2.7 9.7-1.1 12 4.6 1 2.5 2.4 4.2 4.1 4.8 1.7.7 3.8.4 6.3-.8l.5 1c-2.8 1.4-5.2 1.7-7.2.9"/><path clip-path="url(#d)" fill="#005EC7" d="M249.2 304.2c-2-.8-3.6-2.6-4.8-5.5-1-2.5-2.4-4.2-4.1-4.8-1.7-.7-3.8-.4-6.3.8l-.5-1c5.5-2.7 9.7-1.1 12 4.6 1 2.5 2.4 4.2 4.1 4.8 1.7.7 3.8.4 6.3-.8l.5 1c-2.8 1.4-5.2 1.6-7.2.9"/><path clip-path="url(#d)" fill="#005EC7" d="M271.6 312.8c-2-.8-3.6-2.6-4.8-5.5-1-2.5-2.4-4.2-4.1-4.8-1.7-.7-3.8-.4-6.3.8l-.5-1c5.5-2.7 9.7-1.1 12 4.6 1 2.5 2.4 4.2 4.1 4.8 1.7.7 3.8.4 6.3-.8l.5 1c-2.8 1.4-5.2 1.7-7.2.9m-164.1 5.3c-2.1.6-3.8 2.3-5.2 5-1.2 2.4-2.8 4-4.5 4.5-1.8.5-3.9.1-6.2-1.3l-.6 1c5.3 3.1 9.5 1.9 12.3-3.6 1.2-2.4 2.8-4 4.5-4.5 1.8-.5 3.9-.1 6.2 1.3l.6-1c-2.6-1.5-5-2-7.1-1.4m23.1-6.7c-2.1.6-3.8 2.3-5.2 5-1.2 2.4-2.8 4-4.5 4.5-1.8.5-3.9.1-6.2-1.3l-.6 1c5.3 3.1 9.5 1.9 12.3-3.6 1.2-2.4 2.8-4 4.5-4.5 1.8-.5 3.9-.1 6.2 1.3l.6-1c-2.7-1.5-5.1-2-7.1-1.4"/><path clip-path="url(#d)" fill="#005EC7" d="M110.1 323.4c-2.1.6-3.8 2.3-5.2 5-1.2 2.4-2.8 4-4.5 4.5-1.8.5-3.9.1-6.2-1.3l-.6 1c5.3 3.1 9.5 1.9 12.3-3.6 1.2-2.4 2.8-4 4.5-4.5 1.8-.5 3.9-.1 6.2 1.3l.6-1c-2.6-1.6-5-2-7.1-1.4m23.1-6.8c-2.1.6-3.8 2.3-5.2 5-1.2 2.4-2.8 4-4.5 4.5-1.8.5-3.9.1-6.2-1.3l-.6 1c5.3 3.1 9.5 1.9 12.3-3.6 1.2-2.4 2.8-4 4.5-4.5 1.8-.5 3.9-.1 6.2 1.3l.6-1c-2.7-1.5-5.1-2-7.1-1.4m-71.5-256c-1-1.9-1.1-4.3-.1-7.2.9-2.6.8-4.8 0-6.4-.9-1.6-2.7-2.8-5.3-3.5l.3-1.1c5.9 1.5 8.1 5.4 6.2 11.3-.8 2.6-.8 4.8 0 6.4.9 1.6 2.7 2.8 5.3 3.5l-.3 1.1c-3.1-.8-5.1-2.2-6.1-4.1"/><path clip-path="url(#d)" fill="#005EC7" d="M73.2 81.7c-1-1.9-1.1-4.3-.1-7.2.9-2.6.8-4.8 0-6.4-.9-1.6-2.7-2.8-5.3-3.5l.3-1.1c5.9 1.5 8.1 5.4 6.2 11.3-.8 2.6-.8 4.8 0 6.4.9 1.6 2.7 2.8 5.3 3.5l-.3 1.1c-3-.9-5-2.2-6.1-4.1m-6-22.9c-1-1.9-1.1-4.3-.1-7.2.9-2.6.8-4.8 0-6.4-.9-1.6-2.7-2.8-5.3-3.5l.3-1.1c5.9 1.5 8.1 5.4 6.2 11.3-.9 2.6-.8 4.8 0 6.4.9 1.6 2.7 2.8 5.3 3.5l-.3 1.1c-3-.9-5-2.3-6.1-4.1"/><path clip-path="url(#d)" fill="#005EC7" d="M78.8 79.8c-1-1.9-1.1-4.3-.1-7.2.9-2.6.8-4.8 0-6.4-.9-1.6-2.7-2.8-5.3-3.5l.3-1.1c5.9 1.5 8.1 5.4 6.2 11.3-.9 2.6-.8 4.8 0 6.4.9 1.6 2.7 2.8 5.3 3.5l-.3 1.1c-3.1-.8-5.1-2.2-6.1-4.1"/><path clip-path="url(#d)" fill="#FFC740" d="M273.2 292.6h-3v-1.4c.5-.4 1-1 1-1.7 0-1.1-.9-2.1-2-2.1s-2.1.9-2.1 2c0 .7.4 1.4.9 1.7v1.4h-2.8c0 4.4-3.6 7.9-8 7.8l-.1 8.1c8.8.1 16-7 16.1-15.8"/><path clip-path="url(#d)" fill="#FF7361" d="M257.4 300.2v3h1.4c.4-.5 1-1 1.7-1 1.1 0 2.1.9 2.1 2s-.9 2.1-2.1 2.1c-.7 0-1.4-.4-1.7-.9h-1.4v2.8c-4.4 0-7.7 4.1-7.7 8.4h-8c0-8.7 6.9-16.4 15.7-16.4"/><path clip-path="url(#d)" fill="#005EC7" d="M249.7 316.4h-3V315c.5-.4 1-1 1-1.7 0-1.1-.9-2.1-2-2.1s-2.1.9-2.1 2c0 .7.4 1.4.9 1.7v1.4h-2.8c0 4.4-3.6 7.9-8 7.8l-.1 8.1c8.8.2 16-6.9 16.1-15.8"/><path clip-path="url(#d)" fill="#FF7361" d="M233.8 327.1h1.4c.4-.5 1-.9 1.7-.9 1.1 0 2 .9 2 2s-.9 2-2 2c-.7 0-1.3-.4-1.7-.9h-1.4v2.9h-28.9l-.1-8.1h29v3z"/><path clip-path="url(#d)" fill="#FFC740" d="M205.5 327.1h1.4c.4-.5 1-.9 1.7-.9 1.1 0 2 .9 2 2s-.9 2-2 2c-.7 0-1.3-.4-1.7-.9h-1.4v2.9h-28.9l-.1-8.1h29v3z"/><path clip-path="url(#d)" fill="#005EC7" d="M176.5 329.3h1.4c.4.5 1 .9 1.7.9 1.1 0 2-.9 2-2s-.9-2-2-2c-.7 0-1.3.4-1.7.9h-1.4v-2.9h-28.9l-.1 8.1h29v-3z"/><path clip-path="url(#d)" fill="#FF7361" d="M148.3 332.3v-2.9h1.4c.4.5 1 .9 1.7.9 1.1 0 2-.9 2-2s-.9-2-2-2c-.7 0-1.3.4-1.7 1h-1.4v-3c-14.7 0-27-12-27-26.8v-.1h-8.1v.1c0 19.2 15.5 34.8 35.1 34.8"/><path clip-path="url(#d)" fill="#005EC7" d="M113.2 297.8h2.9v1.4c-.5.4-.9 1-.9 1.7 0 1.1.9 2 2 2s2-.9 2-2c0-.7-.4-1.3-1-1.7v-1.4h3c0-14.7 12-27 26.8-27h.1v-8.1h-.1c-19.2 0-34.8 15.5-34.8 35.1"/><path clip-path="url(#d)" fill="#FFC740" d="M148.1 270.7v-3h-1.4c-.4.5-1 1-1.7 1-1.1 0-2.1-.9-2.1-2s.9-2.1 2-2.1c.7 0 1.4.4 1.7.9h1.4v-2.8c4.4 0 7.9-3.6 7.8-8l8.1-.1c.1 8.8-7 16-15.8 16.1"/><path clip-path="url(#d)" fill="#005EC7" d="M164 255h-3v1.4c.5.4 1 1 1 1.7 0 1.1-.9 2.1-2 2.1s-2.1-.9-2.1-2.1c0-.7.4-1.4.9-1.7V255H156c0-4.4-4.1-7.7-8.4-7.7v-8c8.7 0 16.4 6.9 16.4 15.7"/><path clip-path="url(#d)" fill="#FFC740" d="M148.1 244.4h1.4c.4.5 1 .9 1.7.9 1.1 0 2-.9 2-2s-.9-2-2-2c-.7 0-1.3.4-1.7.9h-1.4v-2.9h-28.9l-.1 8.1h29v-3z"/><path clip-path="url(#d)" fill="#FF7361" d="M119.3 247.2v-3h1.4c.4.5 1 1 1.7 1 1.1 0 2.1-.9 2.1-2s-.9-2.1-2.1-2.1c-.7 0-1.4.4-1.7.9h-1.4v-2.8c-4.4 0-7.7-5.1-7.7-9.4h-8c-.1 8.7 6.9 17.4 15.7 17.4"/><path clip-path="url(#d)" fill="#005EC7" d="M111.4 230.1h-2.9v1.4c.5.4.9 1 .9 1.7 0 1.1-.9 2-2 2s-2-.9-2-2c0-.7.4-1.3 1-1.7v-1.4h-3c0-14.7-12-27-26.8-27h-.1V195h.1c19.2 0 34.8 15.5 34.8 35.1"/><path clip-path="url(#d)" fill="#FFC740" d="M77.2 197.9h1.4c.4-.5 1-.9 1.7-.9 1.1 0 2 .9 2 2s-.9 2-2 2c-.7 0-1.3-.4-1.7-.9h-1.4v2.9h-29l-.1-8.1h29l.1 3z"/><path clip-path="url(#d)" fill="#FF7361" d="M48.7 197.9h1.4c.4-.5 1-.9 1.7-.9 1.1 0 2 .9 2 2s-.9 2-2 2c-.7 0-1.3-.4-1.7-.9h-1.4v2.9H19.8l-.1-8.1h29v3z"/><path clip-path="url(#d)" fill="#FFC740" d="M19.9 203.1v-3h1.4c.4.5 1 1 1.7 1 1.1 0 2.1-.9 2.1-2s-.9-2.1-2-2.1c-.7 0-1.4.4-1.7.9H20v-2.8c-4.4 0-7.9-3.6-7.8-8l-8.1-.1c-.1 8.7 7 16 15.8 16.1"/><path clip-path="url(#d)" fill="#FF7361" d="M4.1 187.2h3v1.4c-.5.4-1 1-1 1.7 0 1.1.9 2.1 2 2.1s2.1-.9 2.1-2c0-.7-.4-1.4-.9-1.7v-1.4h2.8c0-4.4 3.6-7.9 8-7.8l.1-8.1c-8.8-.1-16.1 7-16.1 15.8"/><path clip-path="url(#d)" fill="#005EC7" d="M19.1 174.3h-1.4c-.4-.5-1-.9-1.7-.9-1.1 0-2 .9-2 2s.9 2 2 2c.7 0 1.3-.4 1.7-.9h1.4v2.9H48l.1-8.1h-29v3z"/><path clip-path="url(#d)" fill="#FFC740" d="M47.9 179.4v-3h-1.4c-.4.5-1 1-1.7 1-1.1 0-2.1-.9-2.1-2s.9-2.1 2-2.1c.7 0 1.4.4 1.7.9h1.4v-2.8c4.4 0 7.9-3.6 7.8-8l8.1-.1c.1 8.8-7 16-15.8 16.1"/><path clip-path="url(#d)" fill="#FF7361" d="M63.8 163.6h-3v1.4c.5.4 1 1 1 1.7 0 1.1-.9 2.1-2 2.1s-2.1-.9-2.1-2c0-.7.4-1.4.9-1.7v-1.4h-2.8c0-4.4-3.6-7.9-8-7.8l-.1-8.1c8.7-.1 16 7 16.1 15.8"/><path clip-path="url(#d)" fill="#005EC7" d="M48.1 150.7h1.4c.4-.5 1-.9 1.7-.9 1.1 0 2 .9 2 2s-.9 2-2 2c-.7 0-1.3-.4-1.7-.9h-1.4v2.9H19.2l-.1-8.1h29v3z"/><path clip-path="url(#d)" fill="#FFC740" d="M19.3 155.8v-3h1.4c.4.5 1 1 1.7 1 1.1 0 2.1-.9 2.1-2s-.9-2.1-2-2.1c-.7 0-1.4.4-1.7.9h-1.4v-2.8c-4.4 0-7.9-3.6-7.8-8l-8.1-.1c-.1 8.8 7 16 15.8 16.1"/><path clip-path="url(#d)" fill="#FF7361" d="M3.5 140h3v1.4c-.5.4-1 1-1 1.7 0 1.1.9 2.1 2 2.1s2.1-.9 2.1-2c0-.7-.4-1.4-.9-1.7v-1.4h2.8c0-4.4 3.6-7.9 8-7.8l.1-8.1c-8.8-.1-16 7-16.1 15.8"/><path clip-path="url(#d)" fill="#FFC740" d="M18.5 129.3h-1.4c-.4.5-1 .9-1.7.9-1.1 0-2-.9-2-2s.9-2 2-2c.7 0 1.3.4 1.7.9h1.4v-2.9h28.9l.1 8.1h-29v-3z"/><path clip-path="url(#d)" fill="#005EC7" d="M47.6 132.1v-3h-1.4c-.4.5-1 1-1.7 1-1.1 0-2.1-.9-2.1-2s.9-2.1 2.1-2.1c.7 0 1.4.4 1.7.9h1.4v-2.8c4.4 0 7.7-4.1 7.7-8.4h8c0 8.7-6.9 16.4-15.7 16.4"/><path clip-path="url(#d)" fill="#FFC740" d="M60.2 116v1.4c.5.4.9 1 .9 1.7 0 1.1-.9 2-2 2s-2-.9-2-2c0-.7.4-1.3.9-1.7V116h-2.9V87l8.1-.1v29l-3 .1z"/><path clip-path="url(#d)" fill="#FF7361" d="M54.7 87.6h2.9V89c-.5.4-.9 1-.9 1.7 0 1.1.9 2 2 2s2-.9 2-2c0-.7-.4-1.3-1-1.7v-1.4h3c0-14.7 12-27 26.8-27h.1v-8.1h-.1c-19.2 0-34.8 15.4-34.8 35.1"/><path clip-path="url(#d)" fill="#005EC7" d="M99.9 154.1c0 2.8 2.2 5 5 5s5-2.2 5-5-2.2-5-5-5c-2.7 0-5 2.2-5 5m-12.1 133c0 2.8 2.2 5 5 5s5-2.2 5-5-2.2-5-5-5c-2.7 0-5 2.2-5 5m-24.4-100c0 2.8 2.2 5 5 5s5-2.2 5-5-2.2-5-5-5-5 2.2-5 5M10.2 12c0 2.8 2.2 5 5 5s5-2.2 5-5-2.2-5-5-5c-2.7 0-5 2.3-5 5m254.3 57.8c0 2.8 2.2 5 5 5s5-2.2 5-5-2.2-5-5-5c-2.7 0-5 2.3-5 5M78.1 354.3c0 2.8 2.2 5 5 5s5-2.2 5-5-2.2-5-5-5c-2.7 0-5 2.2-5 5m134.2-45.9c0 2.8 2.2 5 5 5s5-2.2 5-5-2.2-5-5-5c-2.7 0-5 2.3-5 5"/><path fill="#FF7361" d="M79.3 100.5H83v10.4h-3.7z"/><path fill="#005EC7" d="M85.8 108.4l-4.6-18-4.7 18"/><path fill="#FFC740" d="M31.3 95h12.8v15.1H31.3z"/><path fill="#FF7361" d="M37.7 85.7L30.3 95h14.8"/><g><defs><path id="e" d="M3.5 1h275.3v358.3H3.5z"/></defs><clipPath id="f"><use xlink:href="#e" overflow="visible"/></clipPath><path clip-path="url(#f)" fill="#005EC7" d="M37.7 93.6c.9 0 1.7-.7 1.7-1.7 0-.9-.7-1.7-1.7-1.7-.9.1-1.7.8-1.7 1.8 0 .9.8 1.6 1.7 1.6"/></g><path fill="#FF7361" d="M35.9 103.1h3.6v7h-3.6z"/><path fill="#FFC740" d="M125.3 220.3h20.8v15.1h-20.8z"/><path fill="#FF7361" d="M135.8 211l-12.1 9.3h24"/><path fill="#005EC7" d="M128.7 222.8h3.2v3.2h-3.2z"/><path fill="#FF7361" d="M139.5 228.4h3.6v7h-3.6z"/><g><defs><path id="g" d="M3.5 1h275.3v358.3H3.5z"/></defs><clipPath id="h"><use xlink:href="#g" overflow="visible"/></clipPath><path clip-path="url(#h)" fill="#005EC7" d="M153.4 304.5c-2.1.6-3.8 2.3-5.2 5-1.2 2.4-2.8 4-4.5 4.5-1.8.5-3.9.1-6.2-1.3l-.6 1c5.3 3.1 9.5 1.9 12.3-3.6 1.2-2.4 2.8-4 4.5-4.5 1.8-.5 3.9-.1 6.2 1.3l.6-1c-2.7-1.5-5.1-2-7.1-1.4m23-6.7c-2.1.6-3.8 2.3-5.2 5-1.2 2.4-2.8 4-4.5 4.5-1.8.5-3.9.1-6.2-1.3l-.6 1c5.3 3.1 9.5 1.9 12.3-3.6 1.2-2.4 2.8-4 4.5-4.5 1.8-.5 3.9-.1 6.2 1.3l.6-1c-2.6-1.5-5-2-7.1-1.4"/><path clip-path="url(#h)" fill="#005EC7" d="M156 309.8c-2.1.6-3.8 2.3-5.2 5-1.2 2.4-2.8 4-4.5 4.5-1.8.5-3.9.1-6.2-1.3l-.6 1c5.3 3.1 9.5 1.9 12.3-3.6 1.2-2.4 2.8-4 4.5-4.5 1.8-.5 3.9-.1 6.2 1.3l.6-1c-2.7-1.5-5.1-2-7.1-1.4"/><path clip-path="url(#h)" fill="#005EC7" d="M179 303c-2.1.6-3.8 2.3-5.2 5-1.2 2.4-2.8 4-4.5 4.5-1.8.5-3.9.1-6.2-1.3l-.6 1c5.3 3.1 9.5 1.9 12.3-3.6 1.2-2.4 2.8-4 4.5-4.5 1.8-.5 3.9-.1 6.2 1.3l.6-1c-2.6-1.5-5-2-7.1-1.4"/><path clip-path="url(#h)" fill="#FFC740" d="M88.9 55.4h-1.3c-.3-.5-1-.9-1.6-.9-1.1 0-2 .9-2 1.9 0 1.1.9 2 2 2 .7 0 1.3-.4 1.6-.9h1.3v2.8h28l.1-7.8H88.9v2.9z"/><path clip-path="url(#h)" fill="#005EC7" d="M116.9 55.4h-1.3c-.3-.5-1-.9-1.6-.9-1.1 0-2 .9-2 1.9 0 1.1.9 2 2 2 .7 0 1.3-.4 1.6-.9h1.3v2.8h28l.1-7.8h-28.1v2.9z"/><path clip-path="url(#h)" fill="#FFC740" d="M143.2 55.2h-1.4c-.4-.5-1-.9-1.7-.9-1.1 0-2 .9-2 2s.9 2 2 2c.7 0 1.3-.4 1.7-.9h1.4v2.9h28.9l.1-8.1h-29v3z"/><path clip-path="url(#h)" fill="#FF7361" d="M171.7 60.1v-3h-1.4c-.4.5-1 1-1.7 1-1.1 0-2.1-.9-2.1-2s.9-2.1 2-2.1c.7 0 1.4.4 1.7.9h1.4v-2.8c4.4 0 7.9-3.6 7.8-8l8.1-.1c.1 8.8-7 16-15.8 16.1"/><path clip-path="url(#h)" fill="#005EC7" d="M184.6 44.6V46c.5.4.9 1 .9 1.7 0 1.1-.9 2-2 2s-2-.9-2-2c0-.7.4-1.3.9-1.7v-1.4h-2.9v-29l8.1-.1v29l-3 .1z"/><path clip-path="url(#h)" fill="#FF7361" d="M179.4 16.8h3v1.4c-.5.4-1 1-1 1.7 0 1.1.9 2.1 2 2.1s2.1-.9 2.1-2c0-.7-.4-1.4-.9-1.7v-1.4h2.8c0-4.4 3.6-7.9 8-7.8l.1-8.1c-8.8-.1-16 7-16.1 15.8"/><path clip-path="url(#h)" fill="#FFC740" d="M195.6 1v3h-1.4c-.4-.5-1-1-1.7-1-1.1 0-2.1.9-2.1 2s.9 2.1 2 2.1c.7 0 1.4-.4 1.7-.9h1.4V9c4.4 0 7.9 3.6 7.8 8l8.1.1c.1-8.8-7-16-15.8-16.1"/></g><path fill="#FFC740" d="M138 10h25.1v18.2H138z"/><path fill="#FF7361" d="M150.5 3l14.5 7h-29"/><path fill="#005EC7" d="M154.8 13.5h3.2v3.2h-3.2z"/><path fill="#FF7361" d="M148.7 21.1h3.6v7h-3.6zm-6.1-18h3.3v4.7h-3.3z"/><g><defs><path id="i" d="M3.5 1h275.3v358.3H3.5z"/></defs><clipPath id="j"><use xlink:href="#i" overflow="visible"/></clipPath><path clip-path="url(#j)" fill="#005EC7" d="M150.5 40.1c-2.8 0-5 2.2-5 5s2.2 5 5 5 5-2.2 5-5c.1-2.7-2.2-5-5-5"/></g><path fill="#FF7361" d="M84.8 255.3h2.7v11h-2.7z"/><g><defs><path id="k" d="M3.5 1h275.3v358.3H3.5z"/></defs><clipPath id="l"><use xlink:href="#k" overflow="visible"/></clipPath><path clip-path="url(#l)" fill="#FF7361" d="M86.7 261.4v-2.2c-1.5 0-2-.4-2.3-.7-.6-.6-.8-2-.7-4.1l-2.1-.1c-.2 2.8.2 4.6 1.3 5.7.7 1 2 1.4 3.8 1.4"/><path clip-path="url(#l)" fill="#FFC740" d="M77 248.2c0 5.1 4.1 9.2 9.2 9.2s9.2-4.1 9.2-9.2-4.1-9.2-9.2-9.2-9.2 4.1-9.2 9.2"/><path clip-path="url(#l)" fill="#005EC7" d="M191 85.8c0 2.8 2.2 5 5 5s5-2.2 5-5-2.2-5-5-5c-2.7 0-5 2.2-5 5"/><path clip-path="url(#l)" fill="#FF7361" d="M206.4 17.1v-1.3c-.5-.3-.9-1-.9-1.6 0-1.1.9-2 1.9-2s2 .9 2 2c0 .7-.4 1.3-.9 1.6v1.3h2.8v28l-7.8.1V17l2.9.1z"/><path clip-path="url(#l)" fill="#005EC7" d="M203.4 45.4h3V44c-.5-.4-1-1-1-1.7 0-1.1.9-2.1 2-2.1s2.1.9 2.1 2c0 .7-.4 1.4-.9 1.7v1.4h2.8c0 4.4-.8 6.4 3.7 8.4l.1 8.1c-8.9 0-11.8-7.6-11.8-16.4"/><path clip-path="url(#l)" fill="#FF7361" d="M215.1 58.7h-1.3c-.3.5-.9.9-1.6.9-1.1 0-2-.9-2-1.9 0-1.1.9-2 2-2 .7 0 1.3.4 1.6.9h1.3v-2.8 7.8-2.9z"/></g><path fill="#FF7361" d="M225.2 33.4h2.7v11h-2.7z"/><g><defs><path id="m" d="M3.5 1h275.3v358.3H3.5z"/></defs><clipPath id="n"><use xlink:href="#m" overflow="visible"/></clipPath><path clip-path="url(#n)" fill="#FF7361" d="M226.1 39.4v-2.2c1.5 0 2-.4 2.3-.7.6-.6.8-2 .7-4.1l2.1-.1c.2 2.8-.2 4.6-1.3 5.7-.8 1-2 1.4-3.8 1.4"/><path clip-path="url(#n)" fill="#FFC740" d="M235.7 26.2c0 5.1-4.1 9.2-9.2 9.2s-9.2-4.1-9.2-9.2 4.1-9.2 9.2-9.2 9.2 4.2 9.2 9.2"/></g></svg>