<?xml version="1.0" encoding="utf-8"?>
<!-- Generator: Adobe Illustrator 18.1.1, SVG Export Plug-In . SVG Version: 6.00 Build 0)  -->
<svg version="1.1" id="Layer_1" xmlns="http://www.w3.org/2000/svg" xmlns:xlink="http://www.w3.org/1999/xlink" x="0px" y="0px"
	 viewBox="0 0 30 30" enable-background="new 0 0 30 30" xml:space="preserve">
<g>
	<path fill="#FFC740" d="M15,29.5C7,29.5,0.5,23,0.5,15C0.5,7,7,0.5,15,0.5C23,0.5,29.5,7,29.5,15C29.5,23,23,29.5,15,29.5z M15,1.1
		C7.4,1.1,1.1,7.4,1.1,15S7.4,28.9,15,28.9S28.9,22.6,28.9,15S22.6,1.1,15,1.1z"/>
</g>
<g>
	<path fill="#005EC7" d="M22.4,10.4c-0.1-0.1-0.2-0.1-0.3-0.1c-0.1,0-0.1,0-0.2,0c-0.1,0-0.2,0-0.3,0.1c0-0.1,0.1-0.2,0.1-0.3
		c0.1-0.2,0.1-0.4,0.2-0.6c0-0.1,0-0.2-0.1-0.3c-0.1-0.1-0.2-0.1-0.3,0c-0.5,0.3-0.8,0.4-1.1,0.5c-0.2,0.1-0.5,0.1-0.7,0.2
		c-0.3-0.3-0.6-0.5-0.9-0.6c-0.4-0.2-0.8-0.2-1.2-0.2c-0.5,0-1,0.1-1.5,0.3l0,0c-0.2,0.1-0.5,0.3-0.7,0.4c-0.3,0.3-0.6,0.6-0.8,1
		s-0.3,0.8-0.3,1.3c0,0,0,0.1,0,0.1c0,0,0,0,0,0c-0.5-0.1-1.4-0.4-2.2-0.8c-0.3-0.1-0.8-0.4-1.2-0.8c-0.5-0.4-0.9-0.8-1.2-1.3
		c0-0.1-0.1-0.1-0.2-0.1c-0.1,0-0.2,0-0.2,0.1C9,9.3,8.8,9.4,8.7,9.5c-0.2,0.2-0.3,0.4-0.3,0.6c-0.1,0.2-0.1,0.4-0.1,0.7
		c0,0.2,0,0.4,0,0.5c0,0.4,0.1,0.9,0.2,1.3c-0.1,0-0.2,0.1-0.3,0.3c0,0.1,0,0.2,0,0.3c0,1,0.3,1.7,0.8,2.3c0,0.1,0.1,0.1,0.1,0.2
		c0,0,0,0,0,0c0,0,0,0,0,0.1c0,0.4,0.1,0.7,0.3,1c0.2,0.5,0.6,0.8,1.1,1.1c0.2,0.1,0.3,0.2,0.5,0.3c-0.7,0.2-1.3,0.3-1.8,0.3
		c-0.2,0-0.4,0-0.6,0c-0.2,0-0.4,0-0.5,0c0,0-0.1,0-0.1,0c-0.1,0-0.2,0-0.2,0.1c-0.1,0.1-0.1,0.2-0.1,0.2c0.1,0.4,0.3,0.7,0.6,1
		c0.4,0.4,1.1,0.8,1.8,1c0.7,0.2,1.6,0.4,2.6,0.4c1.4,0,2.9-0.3,4.3-1.1c1.3-0.7,2.4-1.9,3.1-3.2c0.2-0.5,0.5-1,0.7-1.7
		c0.2-0.6,0.3-1.3,0.3-1.9c0-0.2,0-0.4-0.1-0.6c0.2-0.1,0.3-0.2,0.4-0.4c0.3-0.2,0.5-0.5,0.6-0.7c0.2-0.3,0.3-0.6,0.5-0.9
		C22.4,10.6,22.4,10.5,22.4,10.4z"/>
</g>
<g>
	<path fill="#FF7361" d="M22.4,10.4c-0.1-0.1-0.2-0.1-0.3-0.1c-0.1,0-0.1,0-0.2,0c-0.1,0-0.2,0-0.3,0.1c0-0.1,0.1-0.2,0.1-0.3
		c0.1-0.2,0.1-0.4,0.2-0.6c0-0.1,0-0.2-0.1-0.3c-0.1-0.1-0.2-0.1-0.3,0c-0.5,0.3-0.8,0.4-1.1,0.5c-0.1,0.1-0.6,0.1-0.7,0.2
		c0.5,0.9,1,1.9,1.3,2.9c0.1-0.1,0.4-0.3,0.4-0.4c0.3-0.2,0.5-0.5,0.6-0.7c0.2-0.3,0.3-0.6,0.5-0.9C22.4,10.6,22.4,10.5,22.4,10.4z"
		/>
</g>
</svg>
