<?xml version="1.0" encoding="utf-8"?>
<!-- Generator: Adobe Illustrator 18.1.1, SVG Export Plug-In . SVG Version: 6.00 Build 0)  -->
<svg version="1.1" id="Layer_1" xmlns="http://www.w3.org/2000/svg" xmlns:xlink="http://www.w3.org/1999/xlink" x="0px" y="0px"
	 viewBox="0 0 30 30" enable-background="new 0 0 30 30" xml:space="preserve">
<g>
	<path fill="#005EC7" d="M15,29.1C7.2,29.1,0.9,22.8,0.9,15S7.2,0.9,15,0.9S29.1,7.2,29.1,15S22.8,29.1,15,29.1"/>
	<path fill="#FFFFFF" d="M22.1,10.5c-0.1-0.1-0.2-0.1-0.3-0.1c-0.1,0-0.1,0-0.2,0c-0.1,0-0.2,0-0.3,0.1c0-0.1,0.1-0.2,0.1-0.3
		c0.1-0.2,0.1-0.4,0.2-0.6c0-0.1,0-0.2-0.1-0.3c-0.1-0.1-0.2-0.1-0.3,0c-0.4,0.2-0.8,0.4-1.1,0.5c-0.2,0.1-0.4,0.1-0.7,0.2
		c-0.3-0.3-0.6-0.5-0.9-0.6c-0.4-0.2-0.8-0.2-1.2-0.2c-0.5,0-1,0.1-1.5,0.3c-0.2,0.1-0.5,0.2-0.6,0.4c-0.3,0.3-0.5,0.6-0.7,1
		c-0.2,0.4-0.3,0.8-0.3,1.2c0,0,0,0.1,0,0.1c0,0,0,0,0,0c-0.5-0.1-1.3-0.4-2.1-0.8c-0.3-0.1-0.8-0.4-1.2-0.8
		c-0.4-0.4-0.9-0.8-1.2-1.3c0-0.1-0.1-0.1-0.2-0.1c-0.1,0-0.2,0-0.2,0.1C9.2,9.5,9.1,9.6,9,9.7c-0.1,0.2-0.3,0.4-0.3,0.6
		c-0.1,0.2-0.1,0.4-0.1,0.7c0,0.2,0,0.3,0,0.5c0,0.4,0.1,0.8,0.2,1.2c-0.1,0-0.2,0.1-0.2,0.3c0,0.1,0,0.2,0,0.3
		c0,0.9,0.3,1.7,0.8,2.2c0,0,0.1,0.1,0.1,0.1c0,0,0,0,0,0c0,0,0,0,0,0.1c0,0.3,0.1,0.7,0.2,1c0.2,0.4,0.6,0.8,1,1
		c0.2,0.1,0.3,0.2,0.5,0.2c-0.7,0.2-1.3,0.3-1.8,0.3c-0.2,0-0.4,0-0.6,0c-0.2,0-0.3,0-0.5,0c0,0-0.1,0-0.1,0c-0.1,0-0.2,0-0.2,0.1
		c-0.1,0.1-0.1,0.2,0,0.2c0.1,0.3,0.3,0.6,0.6,0.9c0.4,0.4,1,0.7,1.7,1c0.7,0.2,1.6,0.4,2.5,0.4c1.3,0,2.8-0.3,4.1-1.1
		c1.3-0.7,2.3-1.8,2.9-3.1c0.2-0.4,0.5-1,0.6-1.6c0.2-0.6,0.3-1.2,0.3-1.8c0-0.2,0-0.4-0.1-0.6c0.2-0.1,0.3-0.2,0.4-0.3
		c0.3-0.2,0.5-0.5,0.6-0.7c0.2-0.3,0.3-0.5,0.4-0.9C22.1,10.7,22.1,10.6,22.1,10.5"/>
</g>
</svg>
