<?xml version="1.0" encoding="utf-8"?>
<!-- Generator: Adobe Illustrator 18.1.1, SVG Export Plug-In . SVG Version: 6.00 Build 0)  -->
<svg version="1.1" id="Layer_1" xmlns="http://www.w3.org/2000/svg" xmlns:xlink="http://www.w3.org/1999/xlink" x="0px" y="0px"
	 viewBox="-190 60 580 80" enable-background="new -190 60 580 80" xml:space="preserve">
<path fill="#FFFFFF" d="M-190,60v5v75H48.8c0.8-0.7,1.5-1.5,1.9-2.4c1-2,1-4.8-0.3-7.9c-1.4-3.6-1.4-6.7-0.2-9
	c1.2-2.4,3.7-4.3,7.3-5.4l0.4,1.3c-3.4,1.2-5.5,2.7-6.5,4.8c-1,2.1-1,4.8,0.3,7.9c1.7,4.5,1.3,8.1-0.9,10.7H390V65v-5H-190z
	 M-138.3,91.5c-3.2-1.4-5.8-1.6-7.9-0.7c-2.1,0.9-3.9,3-4.9,6.2c-2.7,7.2-7.7,9.4-14.7,6.3l0.5-1.2c3.1,1.4,5.8,1.6,7.9,0.7
	c2-0.8,3.9-3,4.9-6.2c1.3-3.6,3.3-6,5.7-7c2.5-1.1,5.6-0.8,9.1,0.7L-138.3,91.5z M-46.2,112.2c-1.6,3-5.5,4.1-8.5,2.5
	c-3-1.6-4.1-5.5-2.5-8.5s5.5-4.1,8.5-2.5C-45.7,105.4-44.6,109.1-46.2,112.2z M140,98.9c-3.3,0.7-6.7-1.5-7.4-4.8
	c-0.7-3.3,1.5-6.7,4.8-7.4c3.4-0.7,6.6,1.4,7.4,4.8C145.6,94.7,143.3,98.1,140,98.9z M257.2,101.1c-0.6-3.4-1.8-5.7-3.7-7.1
	c-1.9-1.3-4.6-1.6-7.9-0.8c-7.5,1.6-12.1-1.4-13.2-9l1.3-0.2c0.5,3.4,1.8,5.7,3.7,7.1c1.8,1.3,4.6,1.6,7.9,0.8
	c3.7-0.9,6.8-0.5,8.9,1c2.2,1.5,3.7,4.2,4.3,8L257.2,101.1z M328.3,107.4c-3.4,0.3-6.4-2.4-6.7-5.8c-0.3-3.4,2.4-6.4,5.8-6.7
	c3.4-0.3,6.4,2.4,6.7,5.8C334.3,104.1,331.7,107,328.3,107.4z"/>
</svg>
