<svg xmlns="http://www.w3.org/2000/svg" viewBox="43.8 -452 640 324"><path fill="#FFF" d="M43.8-452v325h640v-325h-640zm37.9 101.6c0-3.5 2.8-6.2 6.2-6.2 3.4 0 6.2 2.7 6.2 6.2s-2.8 6.2-6.2 6.2c-3.4.1-6.2-2.7-6.2-6.2zm14.5 203.7c-3.5 0-6.2-2.7-6.2-6.2s2.8-6.2 6.2-6.2c3.4 0 6.2 2.7 6.2 6.2s-2.7 6.2-6.2 6.2zm49.5-115.5l-1.4-.2c.7-3.4.4-6-.9-7.9-1.4-1.9-3.8-3.1-7.1-3.6-3.8-.5-6.5-2-8-4.1-1.5-2.2-1.9-5.2-1.1-9l1.4.2c-.7 3.4-.4 6 .9 7.9 1.4 1.9 3.8 3.1 7.1 3.6 7.5 1.1 10.7 5.6 9.1 13.1zM173.4-419c-3.5 0-6.2-2.7-6.2-6.2s2.7-6.2 6.2-6.2 6.2 2.7 6.2 6.2-2.8 6.2-6.2 6.2zm58.7 218.8c-3.5 0-6.2-2.7-6.2-6.2s2.7-6.2 6.2-6.2 6.2 2.7 6.2 6.2-2.7 6.2-6.2 6.2zm7.2-175.8c-3.1-1.4-5.9-1.5-7.9-.6-2.1.9-3.8 3-4.9 6.2-1.2 3.6-3.1 6-5.6 7.1-2.5 1.1-5.5.9-9-.6l.5-1.2c3.1 1.4 5.9 1.5 7.9.6 2.1-.9 3.8-3 4.9-6.2 2.6-7.2 7.6-9.5 14.8-6.5l-.7 1.2zm41.5 83.4c-3.4.1-6.2-2.7-6.2-6.2s2.8-6.2 6.2-6.2c3.4 0 6.2 2.7 6.2 6.2s-2.8 6.2-6.2 6.2zm56.5 123.3c-2.3-2.6-4.6-3.9-6.9-4-2.3-.1-4.8 1.1-7.1 3.5-5.5 5.4-11 5.2-16-.6l1-.9c2.2 2.6 4.6 3.9 6.9 4 2.2.1 4.8-1.1 7.1-3.5 2.7-2.7 5.5-4 8.1-3.9 2.7.1 5.4 1.6 7.9 4.5l-1 .9zm11.5-238.2l-1.4-.1c.4-3.4-.2-6-1.6-7.7-1.5-1.7-4-2.7-7.4-2.9-3.9-.1-6.6-1.4-8.4-3.4-1.7-2-2.4-5-2-8.9l1.4.1c-.4 3.4.2 6 1.6 7.7 1.5 1.7 4 2.7 7.4 2.9 7.7.4 11.3 4.7 10.4 12.3zm48.6 118l-1-1c2.4-2.5 3.5-4.9 3.4-7.1-.1-2.2-1.5-4.6-4.1-6.7-5.9-5-6.1-10.5-.8-16l1 1c-2.4 2.5-3.5 4.9-3.4 7.1.1 2.2 1.5 4.6 4.1 6.7 2.9 2.5 4.5 5.1 4.6 7.7.1 2.8-1.1 5.6-3.8 8.3zm20.3-113.3c1.6-3.1 5.4-4.2 8.5-2.6 3.1 1.6 4.2 5.4 2.6 8.5-1.6 3-5.4 4.2-8.5 2.6-3.1-1.6-4.2-5.4-2.6-8.5zm17.4 215.5c-1.6 3.1-5.4 4.2-8.5 2.6-3.1-1.6-4.2-5.4-2.6-8.5 1.6-3.1 5.4-4.2 8.5-2.6 3.1 1.6 4.2 5.4 2.6 8.5zm84.6-236l1.3-.6c1.4 3.2 3.4 5.1 5.5 5.8 2.1.8 4.8.2 7.9-1.4 3.4-1.9 6.4-2.3 9-1.6 2.5.9 4.6 3 6.3 6.6l-1.3.6c-1.4-3.2-3.4-5.1-5.5-5.8-2.1-.8-4.8-.2-7.9 1.4-6.7 3.6-12 1.9-15.3-5zm15.6 100c1.6-3 5.5-4.1 8.5-2.5 3 1.7 4.1 5.4 2.5 8.5-1.6 3-5.5 4.1-8.5 2.5-3-1.6-4.1-5.5-2.5-8.5zm27 100c-1-3.3-2.6-5.5-4.7-6.5s-4.7-.9-8 .2c-3.5 1.4-6.6 1.4-9 .2-2.4-1.2-4.2-3.7-5.3-7.3l1.4-.5c1 3.3 2.6 5.5 4.7 6.5s4.7.9 8-.2c7.1-2.6 12.1-.2 14.4 7.1l-1.5.5zm25.3 79.6c-1.6 3-5.5 4.1-8.5 2.5-3-1.6-4.1-5.5-2.5-8.5 1.6-3 5.5-4.1 8.5-2.5 3 1.7 4.1 5.4 2.5 8.5zm60.5-237.7c-3.1-1.6-4.2-5.4-2.6-8.5 1.6-3.1 5.4-4.2 8.5-2.6 3.1 1.6 4.2 5.4 2.6 8.5-1.6 3.1-5.4 4.2-8.5 2.6zm8.6 134.8l-1-1.3c2.6-2.2 4.1-4.4 4.3-6.7s-.9-4.7-3.2-7.3c-2.6-2.7-3.8-5.6-3.6-8.3.2-2.6 1.9-5.3 4.8-7.6l1 1.1c-2.6 2.2-4.1 4.4-4.3 6.7-.2 2.3.9 4.7 3.2 7.3 5 5.8 4.6 11.3-1.2 16.1z"/></svg>