<?xml version="1.0" encoding="utf-8"?>
<!-- Generator: Adobe Illustrator 18.1.1, SVG Export Plug-In . SVG Version: 6.00 Build 0)  -->
<svg version="1.1" id="Layer_1" xmlns="http://www.w3.org/2000/svg" xmlns:xlink="http://www.w3.org/1999/xlink" x="0px" y="0px"
	 viewBox="-1034.7 -64.2 580 150" enable-background="new -1034.7 -64.2 580 150" xml:space="preserve">
<path fill="#FFFFFF" d="M-1034.7-65.2v150h580v-150H-1034.7z M-983-38.7c-3.2-1.4-5.8-1.6-7.9-0.7c-2.1,0.9-3.9,3-4.9,6.2
	c-2.7,7.2-7.7,9.4-14.7,6.3l0.5-1.2c3.1,1.4,5.8,1.6,7.9,0.7c2-0.8,3.9-3,4.9-6.2c1.3-3.6,3.3-6,5.7-7c2.5-1.1,5.6-0.8,9.1,0.7
	L-983-38.7z M-948.8,56.1c-2-2.9-4.1-4.4-6.4-4.8s-4.9,0.5-7.5,2.6c-6.1,4.7-11.5,3.8-15.8-2.5l1.1-0.8c1.9,2.8,4.1,4.4,6.4,4.8
	c2.2,0.4,4.9-0.5,7.5-2.6c3-2.4,5.9-3.3,8.5-2.9c2.7,0.4,5.2,2.2,7.3,5.4L-948.8,56.1z M-890.9-18c-1.6,3-5.5,4.1-8.5,2.5
	c-3-1.6-4.1-5.5-2.5-8.5c1.6-3,5.5-4.1,8.5-2.5C-890.4-24.8-889.3-21.1-890.9-18z M-814.3,62.6c-1.6,3-5.5,4.1-8.5,2.5
	c-3-1.6-4.1-5.5-2.5-8.5c1.6-3,5.5-4.1,8.5-2.5C-813.8,55.8-812.7,59.5-814.3,62.6z M-793.3-8.8c-1,2.1-1,4.8,0.3,7.9
	c2.7,7.2,0.2,12.2-7.1,14.3l-0.4-1.3c3.3-0.9,5.4-2.6,6.5-4.7c1-2,1-4.8-0.3-7.9c-1.4-3.6-1.4-6.7-0.2-9c1.2-2.4,3.7-4.3,7.3-5.4
	l0.4,1.3C-790.2-12.4-792.3-10.9-793.3-8.8z M-704.7-31.3c-3.3,0.7-6.7-1.5-7.4-4.8c-0.7-3.3,1.5-6.7,4.8-7.4
	c3.4-0.7,6.6,1.4,7.4,4.8C-699.1-35.5-701.4-32.1-704.7-31.3z M-664.2,52.9c-2.5-2.4-5-3.4-7.3-3.3c-2.3,0.1-4.7,1.6-6.7,4.2
	c-4.9,5.9-10.4,6.3-16,1l0.9-1c2.4,2.4,5,3.4,7.3,3.3c2.2-0.1,4.7-1.6,6.7-4.2c2.4-3,5.1-4.5,7.7-4.7c2.7-0.2,5.5,1.1,8.3,3.7
	L-664.2,52.9z M-587.5-29.1c-0.6-3.4-1.8-5.7-3.7-7.1c-1.9-1.3-4.6-1.6-7.9-0.8c-7.5,1.6-12.1-1.4-13.2-9l1.3-0.2
	c0.5,3.4,1.8,5.7,3.7,7.1c1.8,1.3,4.6,1.6,7.9,0.8c3.7-0.9,6.8-0.5,8.9,1c2.2,1.5,3.7,4.2,4.3,8L-587.5-29.1z M-555.2,59.6
	c-3.4,0.3-6.4-2.4-6.7-5.8c-0.3-3.4,2.4-6.4,5.8-6.7s6.4,2.4,6.7,5.8C-549.2,56.4-551.7,59.3-555.2,59.6z M-516.4-22.8
	c-3.4,0.3-6.4-2.4-6.7-5.8c-0.3-3.4,2.4-6.4,5.8-6.7c3.4-0.3,6.4,2.4,6.7,5.8C-510.4-26.1-513-23.2-516.4-22.8z"/>
</svg>
