<svg xmlns="http://www.w3.org/2000/svg" viewBox="-190 60 580 80"><path fill="#FFF" d="M-190 60v80H48.8c.8-.7 1.5-1.5 1.9-2.4 1-2 1-4.8-.3-7.9-1.4-3.6-1.4-6.7-.2-9 1.2-2.4 3.7-4.3 7.3-5.4l.4 1.3c-3.4 1.2-5.5 2.7-6.5 4.8-1 2.1-1 4.8.3 7.9 1.7 4.5 1.3 8.1-.9 10.7H390V60h-580zm51.7 31.5c-3.2-1.4-5.8-1.6-7.9-.7-2.1.9-3.9 3-4.9 6.2-2.7 7.2-7.7 9.4-14.7 6.3l.5-1.2c3.1 1.4 5.8 1.6 7.9.7 2-.8 3.9-3 4.9-6.2 1.3-3.6 3.3-6 5.7-7 2.5-1.1 5.6-.8 9.1.7l-.6 1.2zm92.1 20.7c-1.6 3-5.5 4.1-8.5 2.5-3-1.6-4.1-5.5-2.5-8.5s5.5-4.1 8.5-2.5c3 1.7 4.1 5.4 2.5 8.5zM140 98.9c-3.3.7-6.7-1.5-7.4-4.8-.7-3.3 1.5-6.7 4.8-7.4 3.4-.7 6.6 1.4 7.4 4.8.8 3.2-1.5 6.6-4.8 7.4zm117.2 2.2c-.6-3.4-1.8-5.7-3.7-7.1-1.9-1.3-4.6-1.6-7.9-.8-7.5 1.6-12.1-1.4-13.2-9l1.3-.2c.5 3.4 1.8 5.7 3.7 7.1 1.8 1.3 4.6 1.6 7.9.8 3.7-.9 6.8-.5 8.9 1 2.2 1.5 3.7 4.2 4.3 8l-1.3.2zm71.1 6.3c-3.4.3-6.4-2.4-6.7-5.8-.3-3.4 2.4-6.4 5.8-6.7 3.4-.3 6.4 2.4 6.7 5.8.2 3.4-2.4 6.3-5.8 6.7z"/></svg>